<?xml version="1.0" standalone="no"?>
<!DOCTYPE svg PUBLIC "-//W3C//DTD SVG 1.1//EN" "http://www.w3.org/Graphics/SVG/1.1/DTD/svg11.dtd">
<svg xmlns="http://www.w3.org/2000/svg">
<metadata>Copyright (C) 2022 by original authors @ fontello.com</metadata>
<defs>
<font id="nxp-icon" horiz-adv-x="1000" >
<font-face font-family="nxp-icon" font-weight="400" font-stretch="normal" units-per-em="1000" ascent="850" descent="-150" />
<missing-glyph horiz-adv-x="1000" />
<glyph glyph-name="fa-align-left" unicode="&#xe800;" d="M248 565h322c14 0 27 12 27 26v9c0 15-13 28-27 28h-322c-14 0-26-13-26-28v-9c0-14 12-26 26-26z m0-333h322c14 0 27 12 27 26v9c0 14-13 27-27 27h-322c-14 0-26-13-26-27v-9c0-14 12-26 26-26z m526 229h-522c-17 0-30-14-30-31 0-18 13-31 30-31h522c17 0 32 13 32 30 0 15-15 32-32 32z m0-333h-522c-17 0-30-14-30-31 0-19 13-32 30-32h522c17 0 32 13 32 30 0 16-15 33-32 33z" horiz-adv-x="1000" />

<glyph glyph-name="fa-archway" unicode="&#xe801;" d="M854 58h-21v584h21c11 0 21 9 21 21 0 10-10 20-21 20h-708c-12 0-21-10-21-20 0-12 9-21 21-21h21v-584h-21c-12 0-21-10-21-20 0-12 9-21 21-21h208c11 0 21 9 21 21v224c0 69 53 128 122 128 71 3 128-54 128-123v-229c0-12 9-21 21-21h208c11 0 21 9 21 21 0 10-10 20-21 20z m-62 0h-125v209c0 91-76 166-167 166-92 0-167-75-167-166v-209h-125v459h584v-459z m0 500h-584v84h584v-84z" horiz-adv-x="1000" />

<glyph glyph-name="fa-arrow-down" unicode="&#xe802;" d="M513 641c18 0 32-14 32-31l0-443 164 173c12 13 33 13 45 1 13-11 13-31 1-44l-219-229c-6-7-14-9-23-9-8 0-16 2-23 9l-218 229c-12 13-12 33 1 44 12 12 33 12 44-1l164-173 0 443c0 18 15 31 32 31z" horiz-adv-x="1000" />

<glyph glyph-name="fa-arrow-left" unicode="&#xe803;" d="M804 351c0-19-14-33-31-33h-443l174-164c13-12 13-33 1-44-12-13-31-13-44-2l-230 219c-6 7-9 14-9 24 0 7 3 15 9 22l230 218c13 12 32 12 44-1 12-12 12-32-1-44l-174-164h443c18 0 31-15 31-31z" horiz-adv-x="1000" />

<glyph glyph-name="fa-arrow-right" unicode="&#xe804;" d="M222 349c0 18 15 33 32 33l442 0-173 164c-13 12-13 32-1 44 11 13 31 13 44 1l229-218c7-7 9-15 9-24 0-8-2-15-9-22l-229-219c-13-11-33-11-44 2-12 11-12 32 1 44l173 164-442 0c-19 0-32 14-32 31z" horiz-adv-x="1000" />

<glyph glyph-name="fa-arrow-to-right" unicode="&#xe805;" d="M742 569v-438c0-18 13-31 31-31 18 0 33 13 33 31v438c0 17-15 31-33 31-17 0-31-14-31-31z m-292-76l120-113h-316c-19 1-32-13-32-30 0-18 13-31 32-31h316l-120-113c-6-7-9-15-9-23 0-7 3-15 8-22 12-13 31-13 44-1l177 167c13 11 13 33 0 45l-177 167c-13 12-32 12-44-1-12-13-12-33 1-45z" horiz-adv-x="1000" />

<glyph glyph-name="fa-arrow-up-arrow-down" unicode="&#xe806;" d="M535 452c13 11 13 31 1 44l-125 135c-12 13-34 13-45 0l-125-135c-12-13-12-33 1-44 6-6 14-8 22-8 8 0 16 2 22 9l72 77v-440c0-19 13-32 31-32 17 0 31 13 31 32v440l71-77c11-12 31-13 44-1z m250-205c-13 12-33 11-44-1l-71-77v440c0 18-14 33-31 33-18 0-31-15-31-33v-440l-72 77c-6 6-14 9-22 9-8 0-16-3-22-8-13-12-13-31-1-44l123-136c12-13 34-13 46 0l123 136c15 13 15 32 2 44z" horiz-adv-x="1000" />

<glyph glyph-name="fa-arrow-up" unicode="&#xe807;" d="M514 59c-18 0-33 14-33 31l0 443-164-173c-11-13-32-13-44-2-13 12-13 32-1 45l219 229c6 6 14 9 23 9 8 0 16-3 22-9l219-229c12-13 12-33-1-45-12-11-33-11-45 2l-164 173 0-443c0-18-14-31-31-31z" horiz-adv-x="1000" />

<glyph glyph-name="fa-badge-check" unicode="&#xe808;" d="M832 350c0 46-25 89-64 111 12 44-1 91-34 125-32 32-79 44-123 32-22 39-65 65-112 65-46 0-89-26-111-65-44 12-92 0-125-32-31-34-44-81-32-125-40-22-66-65-66-111 0-47 26-90 66-112-12-44 0-91 32-124 35-35 83-45 125-33 22-40 65-64 111-64 47 0 90 24 112 64 43-12 90-2 123 33 33 33 46 80 34 124 39 22 64 65 64 112z m-118-90c7-15 39-70-8-117-38-38-76-27-117-8-7-15-23-77-89-77-69 0-85 64-90 77-41-19-79-30-117 8-48 48-14 105-8 117-15 7-77 24-77 90 0 68 64 83 77 89-8 15-39 70 8 117 48 48 105 14 117 8 7 17 24 78 90 78 68 0 83-65 89-78 15 7 70 39 117-8 48-48 14-106 8-117 17-7 78-23 78-89 0-69-65-85-78-90z m-125 173l-124-123-55 54c-8 8-22 8-30 0-8-7-8-22 0-30l71-69c3-3 9-6 14-6 5 0 10 3 14 6l140 140c7 8 7 21 0 28-8 8-23 8-30 0z" horiz-adv-x="1000" />

<glyph glyph-name="fa-bars" unicode="&#xe809;" d="M760 183h-522c-17 0-30-14-30-31 0-18 13-31 30-31h522c17 0 32 13 32 30 0 18-15 32-32 32z m0 417h-522c-17 0-30-14-30-31 0-16 13-31 30-31h522c17 0 32 13 32 29 0 16-15 33-32 33z m0-208h-522c-17 0-30-15-30-32 0-18 13-31 30-31h522c17 0 32 13 32 31 0 17-15 32-32 32z" horiz-adv-x="1000" />

<glyph glyph-name="fa-battery-full" unicode="&#xe80a;" d="M708 558h-500c-46 0-83-37-83-83v-250c0-47 37-83 83-83h500c46 0 84 36 84 83v250c0 46-38 83-84 83z m42-333c0-23-19-42-42-42h-500c-23 0-41 19-41 42v250c0 22 18 42 41 42h500c23 0 42-20 42-42v-250z m-83 250h-417c-23 0-42-19-42-42v-166c0-24 19-42 42-42h417c22 0 41 18 41 42v166c0 23-19 42-41 42z m0-208h-417v166h417v-166z m187 166c-12 0-21-10-21-20v-125c0-12 9-21 21-21 11 0 21 9 21 21v125c0 10-10 20-21 20z" horiz-adv-x="1000" />

<glyph glyph-name="fa-battery-half" unicode="&#xe80b;" d="M854 433c-12 0-21-10-21-20v-125c0-12 9-21 21-21 11 0 21 9 21 21v125c0 10-10 20-21 20z m-146 125h-500c-46 0-83-37-83-83v-250c0-47 37-83 83-83h500c46 0 84 36 84 83v250c0 46-38 83-84 83z m42-333c0-23-19-42-42-42h-500c-23 0-41 19-41 42v250c0 22 18 42 41 42h500c23 0 42-20 42-42v-250z m-292 250h-208c-23 0-42-19-42-42v-166c0-24 19-42 42-42h208c23 0 42 18 42 42v166c0 23-19 42-42 42z m0-208h-208v166h208v-166z" horiz-adv-x="1000" />

<glyph glyph-name="fa-battery-low" unicode="&#xe80c;" d="M854 433c-12 0-21-10-21-20v-125c0-12 9-21 21-21 11 0 21 9 21 21v125c0 10-10 20-21 20z m-146 125h-500c-46 0-83-37-83-83v-250c0-47 37-83 83-83h500c46 0 84 36 84 83v250c0 46-38 83-84 83z m42-333c0-23-19-42-42-42h-500c-23 0-41 19-41 42v250c0 22 18 42 41 42h500c23 0 42-20 42-42v-250z m-479 250h-21c-23 0-42-19-42-42v-166c0-24 19-42 42-42h21c22 0 42 18 42 42v166c0 23-20 42-42 42z m0-208h-21v166h21v-166z" horiz-adv-x="1000" />

<glyph glyph-name="fa-battery-slash" unicode="&#xe80d;" d="M854 267c11 0 21 9 21 21v125c0 10-10 20-21 20-11 0-21-10-21-20v-125c0-12 10-21 21-21z m-146 250c23 0 42-20 42-42v-216l42-34v250c0 46-38 83-84 83h-338l53-41h285z m-500-334c-23 0-41 19-41 42v250c0 9 2 17 8 25l-33 26c-10-14-17-33-17-51v-250c0-47 37-83 82-83h422l-53 41h-368z m700-130l-792 625c-9 8-22 5-29-4-8-8-5-22 4-28l792-625c4-3 8-4 13-4 5 0 12 2 16 8 7 9 5 22-4 28z" horiz-adv-x="1000" />

<glyph glyph-name="fa-bold" unicode="&#xe80e;" d="M645 368c2 3 6 4 9 7 28 30 45 69 44 112 0 84-70 155-156 155h-261c-18 0-31-15-31-32 0-18 13-31 31-31h32v-458h-32c-18 0-31-14-31-31 0-19 13-32 31-32h282c91 0 166 75 166 167 0 61-35 115-84 143z m-103 211c52 0 93-41 93-94 2-24-9-48-26-66-18-18-41-27-67-27h-167v187h167z m21-458h-188v208h188c57 0 104-47 104-105 0-58-47-103-104-103z" horiz-adv-x="1000" />

<glyph glyph-name="fa-bell" unicode="&#xe80f;" d="M772 247c-36 34-64 70-64 194 0 103-83 188-187 198v24c0 10-11 20-21 20-12 0-21-10-21-20v-24c-105-10-189-95-189-198 0-124-28-160-65-194-18-18-23-44-14-68 10-23 34-37 59-37h458c26 0 49 14 59 37 9 24 3 50-15 68z m-43-64h-459c-19 0-28 21-15 33 46 43 77 91 77 224 0 88 76 160 168 160 91 0 167-72 167-159 0-133 31-181 77-224 13-13 3-34-15-34z m-166-83c-11 0-20-6-23-14-6-17-22-28-41-28-21 0-35 11-42 28-1 8-10 14-21 14-13 0-23-13-19-26 11-34 44-57 82-57 38 0 70 23 82 57 5 13-5 26-18 26z" horiz-adv-x="1000" />

<glyph glyph-name="fa-book-open" unicode="&#xe810;" d="M828 609c-61 22-118 33-169 31-76 0-133-22-159-35-27 13-85 35-160 35-52 2-108-9-169-31-28-10-46-36-46-66v-380c0-21 9-42 26-55 18-13 42-18 64-12 154 42 263-30 267-32 5-4 12-6 17-6 4 0 11 2 17 6 5 2 114 74 268 32 21-6 44-1 62 12 19 13 29 34 29 55v380c0 30-19 56-47 66z m-359-469c-37 15-91 32-159 32-34 0-72-4-112-16-4-1-8 1-8 1-2 3-2 6-2 6v380c0 4 1 6 3 8 54 18 105 28 148 27 61 0 106-17 130-27v-411z m344 23c0 0 0-3-3-6-1 0-5-2-9-1-119 33-215 7-271-16v411c23 10 69 27 130 27 43 1 94-9 147-27 3-2 6-4 6-8v-380z" horiz-adv-x="1000" />

<glyph glyph-name="fa-camera-web" unicode="&#xe811;" d="M716 113c-4 4-9 8-15 8-19 0-28-21-16-35l23-28h-416l23 28c12 14 1 35-15 35-7 0-13-4-17-8l-23-27c-10-12-14-29-7-45 6-15 22-24 39-24h414c17 0 31 8 39 22 8 14 6 32-5 45l-24 29z m-216-13c160 0 292 130 292 290 0 161-132 292-292 292-161 0-292-131-292-292 0-160 131-290 292-290z m0 542c137 0 250-114 250-250 0-138-113-250-250-250-138 0-250 112-250 250 0 136 112 250 250 250z m0-438c103 0 188 84 188 188 0 103-85 187-188 187-104 0-187-84-187-187 0-104 83-188 187-188z m0 334c79 0 146-67 146-146 0-81-67-146-146-146-81 0-146 65-146 146 0 79 65 146 146 146z" horiz-adv-x="1000" />

<glyph glyph-name="fa-caret-down" unicode="&#xe812;" d="M695 362l-165-167c-9-8-20-12-30-12-12 0-22 4-30 12l-165 167c-13 11-17 30-11 45 7 16 22 26 39 26h332c17 0 32-10 38-26 7-15 4-34-8-45z" horiz-adv-x="1000" />

<glyph glyph-name="fa-caret-left" unicode="&#xe813;" d="M512 153l-167 166c-8 9-12 19-12 31 0 13 4 22 12 30l167 165c11 12 30 16 45 9 16-6 26-22 26-37v-334c0-17-10-31-26-37-15-7-34-4-45 7z" horiz-adv-x="1000" />

<glyph glyph-name="fa-caret-up" unicode="&#xe814;" d="M303 337l166 167c9 8 19 13 31 13 10 0 21-5 29-13l165-167c12-12 16-30 9-46-6-15-21-24-38-24h-332c-17 0-32 9-39 24-6 16-2 34 9 46z" horiz-adv-x="1000" />

<glyph glyph-name="fa-cars" unicode="&#xe815;" d="M177 423c0-18 13-31 31-31 17 0 32 13 32 31 0 17-15 31-32 31-18 0-31-14-31-31z m220-73h-254c-10 0-18 8-18 18v72c0 30 25 56 55 56h347c0 0 0-1 2-1 0 0 1 1 2 1h76c-11 14-25 26-41 32l-20 90c-9 38-42 65-81 65h-225c-39 0-73-27-82-65l-21-92c-31-16-54-48-54-86v-72c0-26 17-49 42-57v-44c0-12 9-21 21-21 10 0 21 9 21 21v41h207c6 6 11 11 18 16l5 26z m-199 259c5 18 22 33 42 33h225c19 0 36-15 40-33l17-71h-340l16 71z m594-384c-19 0-32-14-32-31 0-18 13-31 32-31 17 0 31 13 31 31 0 17-14 31-31 31z m-292 0c-18 0-31-14-31-31 0-18 13-31 31-31 17 0 31 13 31 31 0 17-14 31-31 31z m358 74l-21 90c-9 38-41 65-80 65h-226c-39 0-73-27-82-65l-21-92c-31-16-53-49-53-86v-72c0-26 17-49 42-57v-44c0-12 9-21 21-21 10 0 20 9 20 21v41h375v-41c0-12 9-21 21-21 11 0 21 9 21 21v44c25 8 40 31 42 57v72c0 37-24 73-59 88z m-368 81c5 18 22 33 41 33h226c19 0 36-15 40-33l17-72h-340l16 72z m385-241c0-10-9-18-19-18h-421c-10 0-18 8-18 18v72c0 30 24 56 54 56h348c30 0 56-26 56-56v-72z" horiz-adv-x="1000" />

<glyph glyph-name="fa-chalkboard-user" unicode="&#xe816;" d="M333 225h-83c-92 0-167-75-167-167 0-23 19-41 42-41h333c23 0 42 18 42 41 0 92-75 167-167 167z m-186-146c11 47 52 84 103 84h83c50 0 92-37 102-84h-288z m145 188c69 0 125 54 125 125 0 69-56 125-125 125-71 0-125-56-125-125 0-69 54-125 125-125z m0 187c34 0 62-28 62-62 0-35-28-63-62-63-35 0-63 28-63 63 0 34 28 62 63 62z m552 229h-479c-41 0-73-33-73-73v-31c0-18 13-31 31-31 17 0 31 13 31 31v31c0 6 4 11 11 11h479c5 0 10-5 10-11v-395c0-7-5-11-10-11h-73v42c0 22-20 42-42 42h-104c-23 0-42-20-42-42v-42h-41c-19 0-32-14-32-31 0-18 13-31 32-31h302c39 0 73 32 73 73v395c0 40-34 73-73 73z" horiz-adv-x="1000" />

<glyph glyph-name="fa-check" unicode="&#xe817;" d="M789 492l-354-354c-5-7-13-10-21-10-9 0-17 3-22 10l-188 187c-13 12-13 31 0 43 12 13 32 13 43 0l167-165 332 332c12 13 31 13 43 0 13-12 13-32 0-43z" horiz-adv-x="1000" />

<glyph glyph-name="fa-chevron-up" unicode="&#xe818;" d="M232 240l249 239c8 6 16 10 23 10 8 0 15-3 21-8l249-238c13-13 13-33 1-44-12-13-31-13-44-2l-227 216-229-218c-12-12-32-12-44 1-12 13-12 33 1 44z" horiz-adv-x="1000" />

<glyph glyph-name="fa-circle-check" unicode="&#xe819;" d="M609 448l-151-153-69 69c-7 8-22 8-30 0-7-7-7-22 0-30l84-83c4-4 9-5 15-5 6 0 11 1 15 5l166 167c8 8 8 22 0 30-7 8-22 8-30 0z m-109 235c-185 0-333-149-333-333 0-185 148-333 333-333 184 0 333 148 333 333 0 184-149 333-333 333z m0-625c-161 0-292 131-292 292 0 160 131 292 292 292 160 0 292-132 292-292 0-161-132-292-292-292z" horiz-adv-x="1000" />

<glyph glyph-name="fa-circle-info" unicode="&#xe81a;" d="M500 683c-185 0-333-149-333-333 0-185 148-333 333-333 184 0 333 148 333 333 0 184-149 333-333 333z m0-604c-150 0-271 121-271 271 0 148 121 271 271 271 148 0 271-123 271-271 0-150-123-271-271-271z m52 167h-21v114c0 17-14 32-31 32h-42c-18 0-31-15-31-32 0-18 13-31 31-31h11v-83h-21c-18 0-31-14-31-31 0-19 13-32 31-32h104c17 0 31 13 31 32 0 17-14 31-31 31z m-52 187c22 0 42 19 42 42 0 22-20 42-42 42-23 0-42-20-42-42 0-23 19-42 42-42z" horiz-adv-x="1000" />

<glyph glyph-name="fa-caret-right" unicode="&#xe81b;" d="M487 545l167-165c8-9 13-20 13-30 0-9-5-21-13-29l-167-165c-12-12-30-16-46-9-15 6-24 19-24 36v334c0 15 9 31 24 37 16 7 34 3 46-9z" horiz-adv-x="1000" />

<glyph glyph-name="fa-clock-five" unicode="&#xe81c;" d="M500 683c-185 0-333-149-333-333 0-185 148-333 333-333 184 0 333 148 333 333 0 184-149 333-333 333z m0-625c-161 0-292 131-292 292 0 160 131 292 292 292 160 0 292-132 292-292 0-161-132-292-292-292z m21 297v183c0 10-11 20-21 20-12 0-21-10-21-20v-188c0-4 0-8 3-10l68-119c3-6 10-10 18-10 2 0 6 1 10 4 9 5 13 18 7 27l-64 113z" horiz-adv-x="1000" />

<glyph glyph-name="fa-city" unicode="&#xe81d;" d="M250 142h-42c-23 0-41-20-41-42v-42c0-23 18-41 41-41h42c22 0 42 18 42 41v42c0 22-20 42-42 42z m0-84h-42v42h42v-42z m0 417h-42c-23 0-41-19-41-42v-41c0-24 18-42 41-42h42c22 0 42 18 42 42v41c0 23-20 42-42 42z m0-83h-42v41h42v-41z m0-84h-42c-23 0-41-19-41-41v-42c0-23 18-42 41-42h42c22 0 42 19 42 42v42c0 22-20 41-42 41z m0-83h-42v42h42v-42z m167-83h-42c-23 0-42-20-42-42v-42c0-23 19-41 42-41h42c22 0 41 18 41 41v42c0 22-19 42-41 42z m0-84h-42v42h42v-42z m375 250h-42c-23 0-42-19-42-41v-42c0-23 19-42 42-42h42c22 0 41 19 41 42v42c0 22-19 41-41 41z m0-83h-42v42h42v-42z m62 208h-104v188c0 34-29 62-62 62l-167-1c-35 0-63-27-63-62v-62h-83v105c0 10-10 20-21 20-12 0-21-10-21-20v-105h-83v105c0 10-10 20-21 20-12 0-21-10-21-20v-105l-62-1c-35 0-63-27-63-62v-457c0-12 9-21 21-21 11 0 21 9 21 21v447c0 17 13 32 31 32h344v93c0 17 13 32 31 32h146c17 0 31-15 31-32v-218h136c17 0 31-15 31-32v-322c0-12 9-21 21-21 10 0 21 9 21 21v333c0 34-29 62-63 62z m-62-291h-42c-23 0-42-20-42-42v-42c0-23 19-41 42-41h42c22 0 41 18 41 41v42c0 22-19 42-41 42z m0-84h-42v42h42v-42z m-167 375h-42c-23 0-41-19-41-41v-42c0-23 18-42 41-42h42c22 0 42 19 42 42v42c0 22-20 41-42 41z m0-83h-42v42h42v-42z m0 250h-42c-23 0-41-19-41-42v-41c0-24 18-42 41-42h42c22 0 42 18 42 42v41c0 23-20 42-42 42z m0-83h-42v41h42v-41z m-208-42h-42c-23 0-42-19-42-42v-41c0-24 19-42 42-42h42c22 0 41 18 41 42v41c0 23-19 42-41 42z m0-83h-42v41h42v-41z m0-84h-42c-23 0-42-19-42-41v-42c0-23 19-42 42-42h42c22 0 41 19 41 42v42c0 22-19 41-41 41z m0-83h-42v42h42v-42z" horiz-adv-x="1000" />

<glyph glyph-name="fa-clock-eight" unicode="&#xe81e;" d="M500 683c-185 0-333-149-333-333 0-185 148-333 333-333 184 0 333 148 333 333 0 184-149 333-333 333z m0-625c-161 0-292 131-292 292 0 160 131 292 292 292 160 0 292-132 292-292 0-161-132-292-292-292z m0 500c-12 0-21-10-21-20v-176l-108-63c-9-5-13-18-6-27 4-8 10-10 17-10 3 0 7 0 10 2l118 68c6 4 11 10 11 18v188c0 10-11 20-21 20z" horiz-adv-x="1000" />

<glyph glyph-name="fa-cloud-sleet" unicode="&#xe81f;" d="M833 402c0 72-57 130-127 134-9 60-61 106-123 106-24 0-49-8-69-21-27 38-71 62-118 62-81 0-146-66-146-145 0-4 0-8 0-12-51-21-83-69-83-124 0-75 60-135 135-135h396c74 0 135 60 135 135z m-625 0c0 42 29 80 69 90 12 3 19 13 16 25-1 6-1 13-1 21 0 57 45 104 104 104 39 0 77-25 94-61 2-7 9-11 15-12 7-2 13 1 18 5 16 17 37 26 60 26 46 0 84-38 84-83 0-12 9-21 21-21h10c51 0 94-43 94-94 0-52-43-94-94-94h-396c-52 0-94 42-94 94z m72-180c-10 6-23 2-29-9l-83-166c-5-11-1-24 9-29 4-1 7-1 11-1 6 0 14 4 18 10l83 167c5 10 1 23-9 28z m333 0c-10 6-23 2-28-9l-84-166c-5-11-1-24 9-29 4-1 7-1 11-1 6 0 14 4 18 10l83 167c6 10 2 23-9 28z m188-39c-7 9-18 13-29 7l-22-13v27c0 11-10 21-21 21-12 0-21-10-21-21v-27l-23 13c-10 6-22 2-29-7-5-10-2-23 8-28l24-13-24-15c-10-5-13-18-8-27 4-8 11-10 19-10 3 0 6 0 10 2l23 13v-26c0-12 9-21 21-21 11 0 21 9 21 21v26l22-13c4-2 7-2 11-2 7 0 14 2 18 10 5 9 2 22-8 27l-23 15 22 13c11 5 14 18 9 28z m-334 0c-6 9-18 13-28 7l-22-13v27c0 11-11 21-21 21-12 0-21-10-21-21v-27l-23 13c-11 6-23 2-29-7-5-10-3-23 8-28l23-13-23-15c-11-5-13-18-8-27 4-8 10-10 18-10 4 0 7 0 11 2l23 13v-26c0-12 9-21 21-21 10 0 21 9 21 21v26l22-13c4-2 6-2 10-2 8 0 15 2 18 10 6 9 3 22-7 27l-24 15 22 13c12 5 15 18 9 28z" horiz-adv-x="1000" />

<glyph glyph-name="fa-compress" unicode="&#xe820;" d="M399 253h-145c-19 0-32-14-32-31 0-19 13-32 32-32h114v-114c0-18 13-32 31-32 17 0 32 14 32 32v146c0 17-15 31-32 31z m230 166h145c17 0 32 14 32 32 0 17-15 31-32 31h-114v115c0 17-15 31-31 31-19 0-32-14-32-31v-146c0-18 13-32 32-32z m-230 209c-18 0-31-14-31-31v-115h-114c-19 0-32-14-32-31 0-18 13-32 32-32h145c17 0 32 14 32 32v146c0 17-15 31-32 31z m375-375h-145c-19 0-32-14-32-31v-146c0-18 13-32 32-32 16 0 31 14 31 32v114h114c17 0 32 13 32 32 0 17-15 31-32 31z" horiz-adv-x="1000" />

<glyph glyph-name="fa-copy" unicode="&#xe821;" d="M822 591l-80 79c-8 8-18 13-30 13h-212c-47 0-83-37-83-83v-333c1-47 37-84 84-84h250c46 0 84 37 84 84v294c0 12-6 22-13 30z m-50-324c0-12-10-21-21-21h-251c-12 0-21 9-21 21v332c0 11 9 21 21 21h167l1-62c0-23 18-41 42-41h61v-250h1z m-250-167c0-12-10-21-21-21h-251c-12 0-21 9-21 21v332c0 12 11 21 21 21h126v64h-126c-46 0-83-38-83-84l1-333c0-47 36-83 83-83h250c46 0 84 36 84 83v42h-63v-42z" horiz-adv-x="1000" />

<glyph glyph-name="fa-crosshairs" unicode="&#xe822;" d="M813 371h-43c-11 133-116 238-249 249v43c0 10-11 20-21 20-12 0-21-10-21-20v-43c-134-11-239-116-250-249h-41c-12 0-21-11-21-21 0-12 9-21 21-21h41c11-134 116-239 250-250v-41c0-12 9-21 20-21 10 0 22 9 22 21v41c133 11 238 116 249 250h43c10 0 20 9 20 21 0 10-10 21-20 21z m-125-42h40c-11-110-98-198-207-208v42c0 10-11 20-21 20-12 0-21-10-21-20v-42c-110 10-198 98-208 208h42c10 0 20 9 20 21 0 10-10 21-20 21h-42c10 109 98 196 208 207v-40c0-12 9-21 21-21 10 0 21 9 21 21v40c109-11 196-98 207-207h-40c-12 0-21-11-21-21 0-12 9-21 21-21z m-189 52c-18 0-32-14-32-31 0-18 14-31 32-31 17 0 31 13 31 31 0 17-13 31-31 31z" horiz-adv-x="1000" />

<glyph glyph-name="fa-diamond-turn-right" unicode="&#xe823;" d="M814 393l-271 272c-13 12-29 18-44 18-17 0-32-6-43-19l-271-271c-13-12-18-27-18-43 0-17 5-33 18-44l271-271c11-13 27-18 44-18 16 0 31 6 43 18l271 272c13 12 19 27 19 43-1 16-6 31-19 43z m-29-59l-271-270c-5-6-11-6-14-6-4 0-10 0-16 6l-270 270c-8 8-8 21 0 30l270 271c6 5 12 7 16 7 3 0 9-2 14-7l271-271c8-7 8-20 0-30z m-208 155c-8 8-22 8-30 0-8-7-8-22 0-30l69-67h-137c-35 0-62-29-62-63v-83c0-12 9-21 21-21 10 0 20 9 20 21v83c-1 11 9 21 21 21h137l-69-69c-8-8-8-22 0-30 4-4 9-5 16-5 5 0 10 1 14 5l104 104c8 8 8 22 0 30l-104 104z" horiz-adv-x="1000" />

<glyph glyph-name="fa-edit" unicode="&#xe824;" d="M811 618l-43 43c-14 15-32 22-51 22-19 0-37-7-52-22l-281-281c-10-9-17-22-19-35l-32-141c-2-12 7-21 17-21 2 0 2 0 3 0 0 0 96 20 141 30 13 4 24 11 33 20l283 282c30 29 30 75 1 103z m-44-58l-283-283c-1-1-2-2-3-2-19-4-46-11-72-16l17 72c0 2 1 3 2 5l282 281c2 3 5 4 7 4 2 0 4-1 7-4l43-43c4-4 4-10 0-14z m-48-252c-18 0-31-14-31-31v-167c0-18-15-31-32-31h-396c-18 0-31 13-31 31v396c0 17 13 32 31 32h188c17 0 31 13 31 31 0 17-14 31-31 31h-189c-51 0-92-43-92-94v-396c0-52 41-93 92-93h395c50 0 92 41 92 93l4 167c0 17-14 31-31 31z" horiz-adv-x="1000" />

<glyph glyph-name="fa-conveyor-belt-empty" unicode="&#xe825;" d="M792 267h-584c-69 0-125-56-125-125 0-69 56-125 125-125h584c69 0 125 56 125 125 0 69-56 125-125 125z m0-209h-584c-46 0-83 37-83 84 0 45 37 83 83 83h584c45 0 83-38 83-83 0-47-38-84-83-84z m-542 115c-18 0-31-14-31-31 0-19 13-32 31-32 17 0 31 13 31 32 0 17-14 31-31 31z m250 0c-18 0-31-14-31-31 0-19 13-32 31-32 17 0 31 13 31 32 0 17-14 31-31 31z m250 0c-18 0-31-14-31-31 0-19 13-32 31-32 17 0 31 13 31 32 0 17-14 31-31 31z" horiz-adv-x="1000" />

<glyph glyph-name="fa-close" unicode="&#xe826;" d="M713 208c11-13 11-32 0-44-14-13-33-13-45 0l-153 155-155-155c-13-13-33-13-45 0-13 12-13 31 0 44l155 155-155 155c-13 13-13 33 0 45 12 13 32 13 43 0l157-157 155 155c11 13 31 13 43 0 13-12 13-31 0-44l-155-154 155-155z" horiz-adv-x="1000" />

<glyph glyph-name="fa-ellipsis-vertical" unicode="&#xe827;" d="M507 531c34 0 62 27 62 62 0 34-28 63-62 63-35 0-63-29-63-63 0-35 28-62 63-62z m0-375c-35 0-63-29-63-63 0-35 28-62 63-62 34 0 62 27 62 62 0 34-28 63-62 63z m0 250c-35 0-63-29-63-63 0-35 28-62 63-62 34 0 62 27 62 62 0 34-28 63-62 63z" horiz-adv-x="1000" />

<glyph glyph-name="fa-expand" unicode="&#xe828;" d="M399 628h-145c-19 0-32-14-32-31v-146c0-18 13-32 32-32 16 0 31 14 31 32v114h114c17 0 32 13 32 32 0 17-15 31-32 31z m375 0h-145c-19 0-32-14-32-31 0-19 13-32 32-32h114v-114c0-18 13-32 31-32 17 0 32 14 32 32v146c0 17-15 31-32 31z m-375-521h-114v115c0 17-15 31-31 31-19 0-32-14-32-31v-146c0-18 13-32 32-32h145c17 0 32 14 32 32 0 17-15 31-32 31z m375 146c-18 0-31-14-31-31v-115h-114c-19 0-32-14-32-31 0-18 13-32 32-32h145c17 0 32 14 32 32v146c0 17-15 31-32 31z" horiz-adv-x="1000" />

<glyph glyph-name="fa-external-link" unicode="&#xe829;" d="M677 294c-18 0-31-14-31-31v-146c0-6-5-10-11-10h-395c-7 0-11 4-11 10v396c0 5 4 11 11 11h145c17 0 32 13 32 31 0 17-15 31-32 31h-145c-41 0-73-34-73-73v-396c0-40 32-73 73-73h395c40 0 73 33 73 73v146c0 17-14 31-31 31z m125 417h-219c-18 0-31-14-31-31 0-18 13-31 31-31h144l-322-322c-13-13-13-33 0-44 5-7 13-9 22-9 8 0 16 2 21 9l323 321v-143c0-18 13-31 31-31 17 0 31 13 31 31v219c0 17-14 31-31 31z" horiz-adv-x="1000" />

<glyph glyph-name="fa-eye-slash-1" unicode="&#xe82a;" d="M905 71l-135 107c41 41 76 91 101 149 2 5 4 15 4 22 0 6-2 15-4 22-71 160-211 268-370 268-82 0-159-29-223-78l-144 115c-5 5-12 7-18 7-11 0-20-5-25-13-12-13-9-32 5-43l770-602c13-12 32-10 42 5 13 11 11 31-3 41z m-308 243l-106 82c5 11 9 23 9 37 0 7-2 13-4 20 2 0 4 1 5 1 57 0 104-47 104-105 0-12-4-25-8-35z m51-41c12 24 20 48 20 76 0 92-76 168-167 168-43 0-81-17-109-42l-63 48c52 35 111 56 172 56 129 0 249-88 311-229-23-52-55-96-92-131l-72 54z m-147-90c17 0 34 3 49 8l-73 57c-29 7-56 28-70 55l-73 57c0-3 0-7 0-10 0-92 74-167 167-167z m0-62c-130 0-250 87-313 228 15 31 32 60 51 84l-49 41c-24-32-43-65-60-102-3-6-5-15-5-22 0-6 1-17 4-23 70-161 210-269 371-269 58 0 114 16 166 43l-56 43c-34-15-71-23-109-23z" horiz-adv-x="1000" />

<glyph glyph-name="fa-eye-slash" unicode="&#xe82b;" d="M904 71l-134 107c40 41 75 91 100 149 2 5 4 15 4 22 0 6-2 15-4 22-70 160-211 268-370 268-82 0-159-29-223-78l-144 115c-5 5-12 7-18 7-11 0-20-5-25-13-12-13-9-32 5-43l770-602c13-12 32-10 43 5 13 11 10 31-4 41z m-308 243l-106 82c5 11 9 23 9 37 0 7-2 13-4 20 2 0 4 1 5 1 57 0 104-47 104-105 0-12-4-25-8-35z m51-41c12 24 20 48 20 76 0 92-76 168-167 168-43 0-81-17-109-42l-63 48c52 35 111 56 172 56 129 0 249-88 311-229-23-52-54-96-92-131l-72 54z m-147-90c17 0 34 3 50 8l-73 57c-30 7-56 28-71 55l-73 57c0-3 0-7 0-10 0-92 75-167 167-167z m0-62c-130 0-250 87-312 228 14 31 31 60 50 84l-49 41c-24-32-43-65-60-102-3-6-5-15-5-22 0-6 1-17 4-23 70-161 211-269 371-269 58 0 114 16 166 43l-56 43c-33-15-71-23-109-23z" horiz-adv-x="1000" />

<glyph glyph-name="fa-face-smile" unicode="&#xe82c;" d="M603 381c18 0 32 13 32 32 0 16-14 31-32 31-17 0-30-15-30-31 0-19 13-32 30-32z m-208 0c18 0 32 13 32 32 0 16-14 31-32 31-17 0-30-15-30-31 0-19 13-32 30-32z m222-122c-30-35-73-55-117-55-46 0-88 20-118 55-7 9-20 9-29 3-9-8-11-21-3-30 37-45 91-69 150-69 57 0 112 26 148 70 8 9 7 22-2 30-9 5-22 5-29-4z m-117 424c-185 0-333-149-333-333 0-185 148-333 333-333 184 0 333 148 333 333 0 184-149 333-333 333z m0-625c-161 0-292 131-292 292 0 160 131 292 292 292 160 0 292-132 292-292 0-161-132-292-292-292z" horiz-adv-x="1000" />

<glyph glyph-name="fa-eye" unicode="&#xe82d;" d="M884 358c-71 160-211 270-370 270-160 0-301-110-371-270-3-6-4-15-4-22 0-6 1-17 4-23 70-160 211-269 371-269 159 0 299 109 370 269 2 6 5 17 5 23 0 7-3 16-5 22z m-370-251c-130 0-250 87-313 228 64 142 183 230 313 230 129 0 249-88 311-229-64-142-182-229-311-229z m0 396c-93 0-167-76-167-167 0-92 74-167 167-167 91 0 167 75 167 166 0 92-76 168-167 168z m0-271c-59 0-104 46-104 104 0 0 0 1 0 3 6-3 13-3 21-3 45 0 83 37 83 83 0 7-1 14-4 20 1 0 3 1 4 1 57 0 104-47 104-105 0-57-47-103-104-103z" horiz-adv-x="1000" />

<glyph glyph-name="fa-filter" unicode="&#xe82e;" d="M828 593c-10 21-32 35-55 35h-546c-23 0-45-14-54-35-11-21-7-46 7-63l217-264v-89c0-17 7-31 20-41l107-82c9-7 20-10 30-10 27 0 50 23 50 50v172l216 264c14 17 18 42 8 63z m-276-293c-7-7-10-16-10-26v-155l-83 65v88c0 11-4 20-10 28l-217 264h536l-216-264z" horiz-adv-x="1000" />

<glyph glyph-name="fa-gauge-low" unicode="&#xe82f;" d="M281 267c0-19-14-32-31-32-18 0-31 13-31 32 0 17 13 31 31 31 17 0 31-14 31-31z m219 218c17 0 31 13 31 32 0 17-14 31-31 31-18 0-31-14-31-31 0-19 13-32 31-32z m83-260c0-47-37-83-83-83-47 0-83 36-83 83 0 18 5 35 15 50l-126 156c-8 8-5 21 3 28 9 8 22 7 30-2l126-156c10 3 22 7 35 7 46 0 83-37 83-83z m-41 0c0 22-20 40-42 40-23 0-42-18-42-40 0-23 19-42 42-42 22 0 42 19 42 42z m333 42c0-69-19-134-51-189-8-13-22-21-36-21h-577c-14 0-29 8-35 21-33 55-51 120-51 189 0 207 168 375 375 375 207 0 375-168 375-375z m-42 0c0 183-149 333-333 333-185 0-333-150-333-333 0-60 15-117 44-167h577c30 50 45 107 45 167z m-156 208c-18 0-31-14-31-31 0-18 13-31 31-31 17 0 31 13 31 31 0 17-14 31-31 31z m73-177c-18 0-31-14-31-31 0-19 13-32 31-32 17 0 31 13 31 32 0 17-14 31-31 31z" horiz-adv-x="1000" />

<glyph glyph-name="fa-gauge-med" unicode="&#xe830;" d="M521 304v213c0 10-11 21-21 21-12 0-21-11-21-21v-213c-36-9-62-41-62-79 0-47 36-83 83-83 46 0 83 36 83 83 0 38-27 70-62 79z m-21-121c-23 0-42 19-42 42 0 22 19 42 42 42 22 0 42-20 42-42 0-23-20-42-42-42z m-219 84c0-19-14-32-31-32-18 0-31 13-31 32 0 17 13 31 31 31 17 0 31-14 31-31z m73 177c0-18-14-31-31-31-18 0-31 13-31 31 0 17 13 31 31 31 17 0 31-14 31-31z m354 0c0-18-14-31-31-31-18 0-31 13-31 31 0 17 13 31 31 31 17 0 31-14 31-31z m-208 198c-207 0-375-168-375-375 0-69 18-134 51-189 6-13 21-21 35-21h577c14 0 28 8 36 21 32 55 51 120 51 189 0 207-168 375-375 375z m288-542h-577c-29 50-44 107-44 167 0 183 148 333 333 333 184 0 333-150 333-333 0-60-15-117-45-167z m-7 167c0-19-14-32-31-32-18 0-31 13-31 32 0 17 13 31 31 31 17 0 31-14 31-31z" horiz-adv-x="1000" />

<glyph glyph-name="fa-file-certificate" unicode="&#xe831;" d="M483 241c13 14 18 34 13 53-2 17-4 10 1 27 6 20 0 39-14 54-12 13-12 10-16 28-5 19-19 34-37 38-18 5-16 4-29 17-13 14-34 20-52 14-18-5-14-5-33 0-18 6-39 0-52-14-13-13-10-12-28-17-19-4-33-19-38-38-4-18-4-15-16-28-14-15-19-34-14-54 5-17 4-10 0-27-5-19 0-39 14-53 13-13 11-11 16-29 5-18 19-34 38-38 8-2 10-4 13-5v-131c0-8 4-15 10-19 7-4 14-4 21-1l53 27 52-27c4-1 7-1 11-1 2 0 6 0 10 2 7 4 11 11 11 19v131c2 1 5 1 13 4 18 5 32 19 37 38 6 19 3 17 16 30z m-108-171l-33 17c-6 3-13 3-19 0l-33-17v73c10-3 19-3 26 0 19 5 15 5 33 0 8-3 17-3 26 0v-73z m81 219c2-11 4-13-5-22-16-16-17-19-24-43-1-8-8-9-13-11-21-6-25-7-39-23-8-8-9-8-19-5-21 5-25 5-46 0-10-3-12-3-20 5-14 16-18 17-39 23-5 2-10 3-13 11-6 24-7 27-23 43-9 9-8 11-5 22 5 17 5 21 0 38-3 10-4 13 5 22 14 15 17 18 22 39 3 10 4 12 14 15 21 6 25 7 39 23 8 7 10 9 20 5 21-5 25-5 46 0 10 4 11 2 19-5 14-16 18-17 39-23 11-3 12-5 14-15 6-21 8-24 23-39 9-9 7-12 5-22-5-17-5-21 0-38z m353 230l-140 140c-15 15-36 24-58 24h-196c-46 0-83-37-83-83l1-62c0-12 9-21 21-21 11 0 21 9 21 21v62c0 22 18 42 42 42h166v-146c0-35 28-63 63-63h146v-333c0-23-20-42-42-42h-271c-12 0-21-10-21-20 0-12 9-21 21-21h270c45 0 83 36 83 83v361c1 22-8 43-23 58z m-163-44c-12 0-21 9-21 21v142c5-1 10-4 16-9l138-138c5-6 8-11 9-16h-142z" horiz-adv-x="1000" />

<glyph glyph-name="fa-gauge-min" unicode="&#xe832;" d="M292 444c0 17 13 31 31 31 17 0 31-14 31-31 0-18-14-31-31-31-18 0-31 13-31 31z m208 41c17 0 31 13 31 32 0 17-14 31-31 31-18 0-31-14-31-31 0-19 13-32 31-32z m375-218c0-69-19-134-51-189-8-13-22-21-36-21h-577c-14 0-29 8-35 21-33 55-51 120-51 189 0 207 168 375 375 375 207 0 375-168 375-375z m-42 0c0 183-149 333-333 333-185 0-333-150-333-333 0-60 15-117 44-167h577c30 50 45 107 45 167z m-250-42c0-47-37-83-83-83-44 0-79 32-83 75l-171 29c-12 1-19 12-17 23 2 12 13 20 24 17l170-27c13 29 42 49 77 49 46 0 83-37 83-83z m-41 0c0 22-20 40-42 40-23 0-42-18-42-40 0-23 19-42 42-42 22 0 42 19 42 42z m208 73c-18 0-31-14-31-31 0-19 13-32 31-32 17 0 31 13 31 32 0 17-14 31-31 31z m-73 177c-18 0-31-14-31-31 0-18 13-31 31-31 17 0 31 13 31 31 0 17-14 31-31 31z" horiz-adv-x="1000" />

<glyph glyph-name="fa-gauge-simple-max" unicode="&#xe833;" d="M746 286l-170-27c-13 29-42 49-76 49-47 0-83-37-83-83 0-47 36-83 83-83 43 0 78 32 82 75l171 29c11 1 19 12 17 23-2 12-13 20-24 17z m-246-103c-23 0-42 19-42 42 0 22 19 40 42 40 22 0 42-18 42-40 0-23-20-42-42-42z m0 459c-207 0-375-168-375-375 0-69 18-134 51-189 6-13 21-21 35-21h577c14 0 28 8 36 21 32 55 51 120 51 189 0 207-168 375-375 375z m288-542h-577c-29 50-44 107-44 167 0 183 148 333 333 333 184 0 333-150 333-333 0-60-15-117-45-167z" horiz-adv-x="1000" />

<glyph glyph-name="fa-gauge-simple-med" unicode="&#xe834;" d="M521 304v213c0 10-11 21-21 21-12 0-21-11-21-21v-213c-36-9-62-41-62-79 0-47 36-83 83-83 46 0 83 36 83 83 0 38-27 70-62 79z m-21-121c-23 0-42 19-42 42 0 22 19 42 42 42 22 0 42-20 42-42 0-23-20-42-42-42z m0 459c-207 0-375-168-375-375 0-69 18-134 51-189 6-13 21-21 35-21h577c14 0 28 8 36 21 32 55 51 120 51 189 0 207-168 375-375 375z m288-542h-577c-29 50-44 107-44 167 0 183 148 333 333 333 184 0 333-150 333-333 0-60-15-117-45-167z" horiz-adv-x="1000" />

<glyph glyph-name="fa-face-meh" unicode="&#xe835;" d="M603 381c18 0 32 13 32 32 0 16-14 31-32 31-17 0-30-15-30-31 0-19 13-32 30-32z m-208 0c18 0 32 13 32 32 0 16-14 31-32 31-17 0-30-15-30-31 0-19 13-32 30-32z m230-135h-251c-12 0-21-11-21-21 0-12 9-21 21-21h250c10 0 21 9 21 21 0 10-10 21-20 21z m-125 437c-185 0-333-149-333-333 0-185 148-333 333-333 184 0 333 148 333 333 0 184-149 333-333 333z m0-625c-161 0-292 131-292 292 0 160 131 292 292 292 160 0 292-132 292-292 0-161-132-292-292-292z" horiz-adv-x="1000" />

<glyph glyph-name="fa-gauge" unicode="&#xe836;" d="M281 267c0-19-14-32-31-32-18 0-31 13-31 32 0 17 13 31 31 31 17 0 31-14 31-31z m219 218c17 0 31 13 31 32 0 17-14 31-31 31-18 0-31-14-31-31 0-19 13-32 31-32z m-177-10c-18 0-31-14-31-31 0-18 13-31 31-31 17 0 31 13 31 31 0 17-14 31-31 31z m366-16c9-7 10-20 2-28l-126-156c12-15 18-32 18-50 0-47-37-83-83-83-47 0-83 36-83 83 0 46 36 83 83 83 12 0 23-4 34-7l126 156c8 9 21 10 29 2z m-147-234c0 22-20 40-42 40-23 0-42-18-42-40 0-23 19-42 42-42 22 0 42 19 42 42z m208 73c-18 0-31-14-31-31 0-19 13-32 31-32 17 0 31 13 31 32 0 17-14 31-31 31z m125-31c0-69-19-134-51-189-8-13-22-21-36-21h-577c-14 0-29 8-35 21-33 55-51 120-51 189 0 207 168 375 375 375 207 0 375-168 375-375z m-42 0c0 183-149 333-333 333-185 0-333-150-333-333 0-60 15-117 44-167h577c30 50 45 107 45 167z" horiz-adv-x="1000" />

<glyph glyph-name="fa-gauge-simple-min" unicode="&#xe837;" d="M500 642c-207 0-375-168-375-375 0-69 18-134 51-189 6-13 21-21 35-21h577c14 0 28 8 36 21 32 55 51 120 51 189 0 207-168 375-375 375z m288-542h-577c-29 50-44 107-44 167 0 183 148 333 333 333 184 0 333-150 333-333 0-60-15-117-45-167z m-288 208c-35 0-64-20-77-49l-170 27c-11 3-22-5-24-17-2-11 5-22 17-23l171-29c4-43 39-75 83-75 46 0 83 36 83 83 0 46-37 83-83 83z m0-125c-23 0-42 19-42 42 0 22 19 40 42 40 22 0 42-18 42-40 0-23-20-42-42-42z" horiz-adv-x="1000" />

<glyph glyph-name="fa-gavel" unicode="&#xe838;" d="M833 411c0 12-10 21-20 21-7 0-12-1-16-5l-16-17-221 221 17 16c4 4 5 9 5 16 0 11-9 20-21 20-5 0-10-2-14-6l-188-188c-3-4-6-9-6-14 0-13 10-21 21-21 5 0 11 2 15 5l16 17 96-96-99-102-11 13c-12 11-26 16-41 16-14 0-28-5-39-16l-129-128c-10-11-15-25-15-40 0-14 5-29 15-40l51-51c11-10 25-15 40-15 15 0 29 5 40 15l128 129c11 11 16 25 16 39 0 15-5 30-16 41l-9 9 98 101 96-96-17-16c-3-5-5-10-5-15 0-12 9-21 21-21 5 0 10 3 14 6l188 188c4 4 6 9 6 14z m-418-211c0-4-1-8-3-10l-128-128c-3-2-7-4-11-4-3 0-7 2-10 4l-51 51c-2 3-4 7-4 10 0 4 2 8 4 11l128 128c2 2 6 5 10 5 4 0 8-3 11-5l51-51c2-3 3-7 3-11z m20 306l95 95 221-221-95-95-221 221z" horiz-adv-x="1000" />

<glyph glyph-name="fa-glasses-round" unicode="&#xe839;" d="M875 246c0 44-6 90-17 134l-40 158c-18 70-87 115-156 100-11-1-19-13-16-25 2-10 13-18 25-16 46 11 93-20 106-70l41-157c0-3 0-4 1-7-32 30-74 48-121 48-72 0-134-41-161-104h-75c-27 63-90 106-160 106-48 0-90-19-121-49 0 2 0 3 0 6l40 157c13 50 60 81 107 70 12-1 22 6 25 16 3 12-5 24-16 25-70 15-138-30-156-100l-40-157c-11-45-16-91-16-135 0-1 0-3 0-4 0-3 0-5 0-7 0-97 79-177 177-177 96 0 177 80 177 177 0 11-2 21-4 30h48c-1-9-3-19-3-30 0-97 80-177 177-177 96 0 177 80 177 177 0 2-2 4-2 7 2 1 3 3 3 4z m-573-146c-75 0-135 60-135 134 0 73 60 134 135 134 74 0 136-58 136-133 0-75-62-135-136-135z m396 0c-76 0-135 60-135 134 0 73 59 134 135 134 74 0 135-58 135-133 0-75-61-135-135-135z" horiz-adv-x="1000" />

<glyph glyph-name="fa-globe" unicode="&#xe83a;" d="M500 663c-173 0-312-141-312-313 0-173 139-312 312-312 172 0 311 139 311 312 0 172-139 313-311 313z m216-188h-64c-9 35-20 68-35 95 42-22 76-56 99-95z m-112-125c0-22-2-43-5-62h-199c-3 19-4 40-4 62 0 21 1 42 4 63h199c3-21 5-41 5-63z m-104-250c-29 0-66 47-88 125h175c-22-78-60-125-87-125z m-88 375c22 77 59 125 88 125 27 0 65-48 87-125h-175z m-30 95c-15-27-26-60-36-95h-63c23 39 57 73 99 95z m-124-157h78c-3-21-3-42-3-63 0-22 0-43 3-62h-78c-5 19-8 40-8 62 0 21 3 42 8 63z m25-188h63c10-36 21-69 36-96-42 22-76 56-99 96z m334-96c15 27 26 60 35 96h64c-23-40-57-74-99-96z m124 159h-78c2 19 4 40 4 62 0 21-2 42-4 63h78c5-21 9-42 9-63 0-22-4-43-9-62z" horiz-adv-x="1000" />

<glyph glyph-name="fa-grip-dots-vertical" unicode="&#xe83b;" d="M375 558c0 23 19 42 42 42 23 0 41-19 41-42 0-23-18-41-41-41-23 0-42 18-42 41z m0-208c0 23 19 42 42 42 23 0 41-19 41-42 0-23-18-42-41-42-23 0-42 19-42 42z m83-208c0-23-18-42-41-42-23 0-42 19-42 42 0 23 19 41 42 41 23 0 41-18 41-41z m84 416c0 23 18 42 41 42 23 0 42-19 42-42 0-23-19-41-42-41-23 0-41 18-41 41z m83-208c0-23-19-42-42-42-23 0-41 19-41 42 0 23 18 42 41 42 23 0 42-19 42-42z m-83-208c0 23 18 41 41 41 23 0 42-18 42-41 0-23-19-42-42-42-23 0-41 19-41 42z" horiz-adv-x="1000" />

<glyph glyph-name="fa-hand-pointer" unicode="&#xe83c;" d="M493 308c-12 0-21-10-21-20v-125c0-12 9-21 21-21 11 0 21 9 21 21v125c0 10-10 20-21 20z m83 0c-11 0-20-10-20-20v-125c0-12 9-21 19-21 11 0 22 9 22 21l-1 125c0 10-9 20-20 20z m136 112c-17 22-44 37-74 37h-17c-6 0-11-1-15-1-17 11-36 19-57 19h-16v115c0 50-41 93-93 93-51 0-94-43-94-93v-220c-14 6-26 6-34 6-57 0-90-48-90-91 0-20 5-38 17-53l103-137c37-50 96-78 158-78h143c8 0 17 0 23 2 38 8 71 26 95 54 29 28 45 67 45 109v143c0 52-42 94-94 95z m31-238c0-25-10-49-27-68-16-17-38-28-65-33-3-2-6-2-8-2h-143c-42 0-82 20-108 54l-102 135c-4 5-5 12-5 17 0 22 18 29 27 29 7 0 16-2 24-12l36-48c4-6 10-9 17-9 14 0 21 14 21 20v325c0 17 13 31 30 31 17 0 31-14 31-31v-171c0-9 6-21 21-21 15 0 17 15 39 15h18c27 0 24-26 46-26 10 0 11 7 26 7h17c35 0 23-36 53-36h18c18 0 33-14 33-33v-143h1z m-83 126c-12 0-21-10-21-20v-125c0-12 9-21 21-21 10 0 21 9 21 21v125c0 10-11 20-21 20z" horiz-adv-x="1000" />

<glyph glyph-name="fa-hand-wave" unicode="&#xe83d;" d="M563 642c33 0 62-29 62-63 0-12 9-21 21-21 10 0 21 9 21 21 0 58-47 104-104 104-12 0-21-10-21-20 0-12 9-21 21-21z m147-98c-55 0-75-48-77-60l-146 146c-14 14-33 22-52 22-8 0-52-2-68-47-6 3-13 3-21 3-36 0-71-29-71-72 0-6 0-14 2-21-23-7-46-31-46-67 0-16 5-33 15-47-5-4-39-22-39-64 0-20 7-39 22-55l163-161c42-40 95-63 152-63 58 0 111 23 151 62l26 26c45 44 69 104 69 166v151c2 45-35 81-80 81z m39-230c0-52-21-102-58-138l-26-25c-33-34-78-51-122-51-44 0-89 17-121 51l-163 161c-6 7-10 16-10 25 0 21 18 30 31 30 8 0 16-3 22-9l98-98c4-2 8-5 12-5 7 0 15 8 15 16 0 4-1 9-5 11l-141 141c-6 6-10 16-10 25 0 19 18 30 31 30 8 0 16-4 22-9l142-142c4-4 8-6 12-6 8 0 16 7 16 15 0 4-2 8-6 11l-162 163c-7 8-11 17-11 25 0 21 18 31 30 31 8 0 17-4 22-9l166-164c2-3 6-4 10-4 9 0 16 7 16 14 0 4-2 8-4 12l-141 139c-6 7-10 16-10 25 0 21 17 31 30 31 7 0 17-3 22-9l199-198c1-1 4-2 7-2 5 0 9 4 9 9v51c0 8 6 41 39 41 22 0 39-18 39-39v-149z m-478-172c-35 0-63 27-63 62 0 11-10 21-20 21-12 0-21-10-21-21 0-58 45-104 104-104 10 0 21 9 21 21 0 10-11 21-21 21z" horiz-adv-x="1000" />

<glyph glyph-name="fa-heart-pulse" unicode="&#xe83e;" d="M776 583c-59 57-121 59-138 59-17 0-81-2-138-59-59 57-122 59-139 59-16 0-80-2-138-59-37-35-56-83-56-134 0-42 13-79 36-112 4-5 11-8 17-8h146l40 93 75-164c6-16 29-17 37-2l65 131 29-58h167c6 0 13 3 17 8 23 33 37 70 37 112 0 51-20 99-57 134z m-8-212h-130l-36 71c-8 16-30 16-38 0l-64-127-75 168c-8 17-32 17-38 0l-47-112h-109c-12 19-56 108 23 186 30 29 69 43 107 43 44 0 71-8 139-74 72 70 96 74 138 74 39 0 77-14 107-43 79-79 35-168 23-186z m-67-83c-6 0-12-2-16-6l-169-175c-8-8-21-8-29 0l-173 174c-4 4-9 7-14 7-19 0-29-23-16-36l173-175c25-24 64-24 89 0l169 175c13 13 4 36-14 36z" horiz-adv-x="1000" />

<glyph glyph-name="fa-hourglass" unicode="&#xe83f;" d="M719 79h-11v24c0 53-20 103-58 140l-107 107 107 106c38 37 58 87 58 140v25h11c17 0 31 13 31 31 0 17-14 31-31 31h-438c-18 0-31-14-31-31 0-18 13-31 31-31h11v-29c0-51 18-99 53-135l102-107-102-108c-35-36-53-85-53-135v-28h-11c-18 0-31-14-31-31 0-18 13-31 31-31h438c17 0 31 13 31 31 0 17-14 31-31 31z m-341 438c-16 22-24 48-24 75v29h292v-25c0-30-11-57-27-79h-241z m0-334c4 6 7 11 13 16l104 111 111-111c5-5 9-10 13-16h-241z" horiz-adv-x="1000" />

<glyph glyph-name="fa-heart" unicode="&#xe840;" d="M816 636c-81 68-200 57-274-19l-28-31-29 31c-60 62-181 98-274 19-93-79-97-219-15-304l284-293c9-9 21-14 32-14 14 0 25 5 34 14l284 293c82 85 78 225-14 304z m-19-272l-283-293-284 293c-56 58-68 168 11 236 81 68 175 19 210-16l63-65 61 65c34 35 129 84 210 16 79-68 67-178 12-236z" horiz-adv-x="1000" />

<glyph glyph-name="fa-italic" unicode="&#xe841;" d="M750 610c0-18-14-31-31-31h-89l-191-458h113c17 0 31-14 31-31 0-19-14-32-31-32h-271c-18 0-31 13-31 32 0 17 13 31 31 31h91l192 458h-116c-18 0-31 13-31 31 0 17 13 32 31 32h271c17 0 31-15 31-32z" horiz-adv-x="1000" />

<glyph glyph-name="fa-laptop-mobile" unicode="&#xe842;" d="M833 517h-166c-47 0-84-38-84-84v-333c0-47 37-83 84-83h166c46 0 84 36 84 83v333c0 46-38 84-84 84z m42-417c0-23-19-42-42-42h-166c-24 0-42 19-42 42v333c0 23 18 42 42 42h166c23 0 42-19 42-42v-333z m-667 500c0 22 19 42 42 42h417c22 0 41-20 41-42v-21c0-12 9-21 20-21 10 0 22 9 22 21v21c0 46-38 83-83 83h-417c-47 0-83-37-83-83v-292h-63c-12 0-21-10-21-20v-21c0-47 37-84 82-84h355c11 0 22 9 22 21 0 11-11 21-21 21h-356c-22 0-40 18-40 42h396c10 0 21 9 21 21 0 10-11 20-21 20h-313v292z" horiz-adv-x="1000" />

<glyph glyph-name="fa-leaf-heart" unicode="&#xe843;" d="M561 405c-56 56-100 34-118 18-35-30-38-83-5-116l110-111c7-7 18-7 26 0l110 111c32 33 30 86-6 116-16 16-61 38-117-18z m94-68l-94-95-92 95c-15 13-17 39 2 55 17 14 41 4 50-6l42-41 40 41c9 10 32 20 49 6 20-16 17-42 3-55z m145 279c-2 2-4 5-6 6-5 5-11 7-18 5-5-1-12-4-14-10-34-59-94-94-164-94h-90c-120 1-216-97-216-220 0-6 0-14 1-22-62-53-108-126-126-211-3-12 5-22 15-25 2 0 3 0 6 0 9 0 18 7 19 16 14 68 50 126 96 172 4-11 8-21 13-31 40-72 112-115 192-115 8 0 15 0 22 0 176 13 303 167 303 366 0 56-13 114-33 163z m-274-487c-6 0-13 0-19 0-64 0-124 35-154 92-17 31-20 63-20 82 0 98 80 180 175 180h90c70 0 134 28 177 79 10-34 17-73 17-109 0-177-112-313-266-324z" horiz-adv-x="1000" />

<glyph glyph-name="fa-link" unicode="&#xe844;" d="M861 627c-35 37-81 55-128 55-49 1-99-17-135-55l-76-73c18-10 37-22 52-36l67 65c23 25 56 38 88 38 31 0 64-13 87-38 50-48 50-127 0-176l-147-147c-47-48-129-48-175 0-25 24-38 55-38 87 0 24 6 46 18 64-14 15-35 22-56 22-1 0-3 0-3 0-14-26-22-54-22-84 0-51 20-98 56-133 35-35 82-55 132-55 51 0 97 18 133 55l147 147c36 37 54 85 56 133 0 48-20 95-56 131z m-503-511c-23-24-56-37-88-37-32 0-64 13-88 37-49 49-49 129 0 177l147 147c47 48 129 48 176 0 25-24 38-55 38-89 0-22-6-44-18-63 14-13 35-21 56-21 1 0 2 0 2 0 15 26 23 54 23 84 0 51-20 98-56 133-36 35-83 55-132 55-51 0-98-20-133-55l-147-148c-36-37-55-85-55-133 0-47 19-95 55-132 34-33 77-53 122-54 51-3 103 15 142 54l75 73c-19 11-37 22-52 37l-67-65z" horiz-adv-x="1000" />

<glyph glyph-name="fa-list-check" unicode="&#xe845;" d="M448 527h354c17 0 31 13 31 31 0 17-14 32-31 32h-354c-18 0-31-15-31-32 0-18 13-31 31-31z m-219-344c-23 0-41-19-41-41 0-24 18-42 41-42 22 0 42 18 42 42 0 22-20 41-42 41z m573 198h-354c-18 0-31-14-31-31 0-18 13-31 31-31h354c17 0 31 13 31 31 0 17-14 31-31 31z m0-208h-396c-18 0-31-14-31-31 0-19 13-32 31-32h396c17 0 31 13 31 32 0 17-14 31-31 31z m-482 458l-71-80-30 30c-12 11-31 11-43 0-13-14-13-33 0-45l52-52c5-6 13-9 21-9 9 0 17 4 22 9l94 104c11 13 11 33-2 45-11 11-31 10-43-2z m0-208l-71-81-30 30c-12 12-31 12-43 0-13-13-13-32 0-44l52-52c5-7 13-9 21-9 9 0 17 4 22 9l94 104c11 13 11 33-2 44-11 12-31 11-43-1z" horiz-adv-x="1000" />

<glyph glyph-name="fa-long-arrow-right" unicode="&#xe846;" d="M603 151c-7 6-9 14-9 23 0 7 2 15 9 20l124 125h-529c-18 0-31 13-31 32 0 17 13 31 31 31h529l-124 124c-13 11-13 31 0 43 12 13 31 13 44 0l177-177c12-12 12-32 0-43l-177-178c-13-13-32-13-44 0z" horiz-adv-x="1000" />

<glyph glyph-name="fa-key" unicode="&#xe847;" d="M604 683c-127 0-229-102-229-229 0-21 1-40 7-58l-206-207c-7-7-9-15-9-23v-118c0-18 13-31 31-31h146c17 0 31 13 31 31v52h52c17 0 31 13 31 31v52h25c8 0 16 3 22 9l41 40c18-4 37-7 58-7 127 0 229 103 229 229 0 127-102 229-229 229z m0-416c-25 0-49 4-70 13l-55-55h-62v-83h-84v-84h-125v105l222 221c-9 21-13 45-13 70 0 103 83 188 187 188 103 0 188-85 188-188 0-104-85-187-188-187z m63 281c-19 0-32-14-32-31 0-19 13-32 32-32 17 0 31 13 31 32 0 17-14 31-31 31z" horiz-adv-x="1000" />

<glyph glyph-name="fa-mars" unicode="&#xe848;" d="M789 629c-1 5-5 9-10 10-3 1-6 3-8 3h-167c-12 0-21-11-21-21 0-12 9-21 21-21h116l-137-137c-39 33-91 54-145 54-128 0-230-103-230-229 0-128 102-230 230-230 126 0 229 102 229 230 0 54-21 106-54 145l137 137v-116c0-12 9-21 21-21 10 0 21 9 21 21v167c0 2-2 5-3 8z m-164-341c0-105-85-188-187-188-105 0-188 83-188 188 0 102 83 187 188 187 102 0 187-85 187-187z" horiz-adv-x="1000" />

<glyph glyph-name="fa-microchip" unicode="&#xe849;" d="M583 475h-166c-24 0-42-19-42-42v-166c0-24 18-42 42-42h166c23 0 42 18 42 42v166c0 23-19 42-42 42z m-20-187h-125v125h125v-125z m239 31c17 0 31 13 31 31 0 17-14 31-31 31h-52v63h52c17 0 31 13 31 31 0 17-14 31-31 31h-52v11c0 45-38 83-83 83h-11v52c0 17-14 31-31 31-18 0-31-14-31-31v-52h-63v52c0 17-14 31-31 31-18 0-31-14-31-31v-52h-63v52c0 17-14 31-31 31-18 0-31-14-31-31v-52h-11c-46 0-83-38-83-83v-11h-52c-18 0-31-14-31-31 0-18 13-31 31-31h52v-63h-52c-18 0-31-14-31-31 0-18 13-31 31-31h52v-63h-52c-18 0-31-14-31-31 0-18 13-31 31-31h52v-11c0-46 37-83 83-83h11v-52c0-18 13-31 31-31 17 0 31 13 31 31v52h63v-52c0-18 13-31 31-31 17 0 31 13 31 31v52h63v-52c0-18 13-31 31-31 17 0 31 13 31 31v52h11c45 0 83 37 83 83v11h52c17 0 31 13 31 31 0 17-14 31-31 31h-52v63h52z m-114-136c0-11-11-20-21-20h-334c-11 0-20 9-20 20v334c0 10 9 21 20 21h334c10 0 21-11 21-21v-334z" horiz-adv-x="1000" />

<glyph glyph-name="fa-mobile-signal" unicode="&#xe84a;" d="M813 288c10 0 20 9 20 20 0 11-10 21-20 21-162 0-292-131-292-291 0-12 9-21 21-21 10 0 21 9 21 21 0 136 112 250 250 250z m-271 312v-312c0-12 9-21 21-21 10 0 20 9 20 21v312c0 46-37 83-83 83h-250c-47 0-83-37-83-83v-500c0-47 36-83 83-83h188c10 0 20 9 20 21 0 10-10 20-20 20h-188c-23 0-42 19-42 42v500c0 22 19 42 42 42h250c22 0 42-20 42-42z m-209-437c-11 0-20-11-20-21 0-12 9-21 20-21h84c10 0 21 9 21 21 0 10-11 21-21 21h-84z m459-63c-24 0-42-19-42-42 0-23 18-41 42-41 22 0 41 18 41 41 0 23-19 42-41 42z m21 125c-105 0-188-85-188-187 0-12 9-21 21-21 10 0 21 9 21 21 0 79 65 145 146 145 10 0 20 9 20 21 0 11-10 21-20 21z" horiz-adv-x="1000" />

<glyph glyph-name="fa-pause" unicode="&#xe84b;" d="M365 600c-19 0-32-14-32-31v-438c0-18 13-31 32-31 17 0 31 13 31 31v438c0 17-14 31-31 31z m270 0c-18 0-31-14-31-31v-438c0-18 13-31 31-31 17 0 32 13 32 31v438c0 17-15 31-32 31z" horiz-adv-x="1000" />

<glyph glyph-name="fa-motorcycle" unicode="&#xe84c;" d="M250 392c-92 0-167-76-167-167 0-92 75-167 167-167 91 0 167 75 167 167 0 91-76 167-167 167z m0-198c9 0 17 4 22 10h100c-10-60-61-104-122-104-69 0-125 56-125 125 0 68 56 125 125 125 61 0 112-46 122-104h-100c-5 5-13 10-22 10-18 0-31-14-31-31 0-18 13-31 31-31z m500 198c-21 0-40-5-59-12l-71 137h75c30 0 55 23 55 53v17c0 30-25 55-55 55-23 0-47-9-65-24l-45-36-25 48c-4 7-12 12-18 12h-104c-12 0-21-11-21-21 0-12 9-21 21-21h91l23-44-159-128c-40 29-90 47-143 47h-104c-12 0-21-10-21-21 0-12 9-21 21-21h104c115 0 208-93 208-208 0-12 9-21 21-21h42c10 0 21 9 21 21 0 69 35 134 92 173l20-38c-43-29-71-79-71-135 0-92 75-167 167-167 91 0 167 75 167 167 0 91-76 167-167 167z m-94 194c11 9 25 14 39 14 7 0 13-6 13-13v-17c0-6-6-12-13-12h-74l35 28z m-156-340h-1c-5 60-33 114-73 155l144 117 45-83c-65-42-108-112-115-189z m250-146c-69 0-125 56-125 125 0 40 20 76 48 98l58-108c3-7 11-11 19-11 3 0 7 0 9 2 11 5 14 18 9 28l-57 108c12 4 25 8 39 8 68 0 125-57 125-125 0-69-57-125-125-125z" horiz-adv-x="1000" />

<glyph glyph-name="fa-person-digging" unicode="&#xe84d;" d="M458 517c46 0 82 36 82 83 0 46-37 83-82 83-45 0-83-37-83-83 0-47 37-83 83-83z m0 125c23 0 41-20 41-42 0-23-18-42-41-42-23 0-41 19-41 42 0 22 18 42 41 42z m-53-440l-186 104c-7 2-13 2-20 0-5-3-10-8-11-15l-62-250c-2-10 4-22 16-24 0 0 1 0 4 0 9 0 17 5 19 15l56 223 153-85v-132c0-12 10-21 21-21 10 0 19 9 19 21v145c3 7-2 15-9 19z m467-155l-119 230c-11 18-29 30-50 31-23 2-41-10-52-27l-40-64-91 48c0 2 0 3 0 4l-21 112c-8 42-33 78-69 99l-85 48c-32 20-72 26-108 17-27-7-51-26-64-50l-26-53c-5-10-1-22 9-28l434-233-11-16h-36c-25 0-47-15-55-39l-30-82c-1-6-1-13 3-19 4-6 10-8 17-8h375c6 0 13 4 17 9 5 6 5 14 2 21z m-678 394l17 34c6 14 20 25 35 29 27 6 55 2 78-11l85-49c26-16 44-42 49-71l16-83-280 151z m314-383l19 55c3 7 10 10 16 10h48c7 0 15 4 18 10l77 126c4 6 12 8 16 8 5-2 12-4 14-9l103-200h-311z" horiz-adv-x="1000" />

<glyph glyph-name="fa-person-simple" unicode="&#xe84e;" d="M542 475h-84c-46 0-83-38-83-83v-125c0-24 18-42 42-42v-187c0-12 9-21 21-21 10 0 20 9 20 21v187h84v-187c0-12 9-21 21-21 10 0 20 9 20 21v187c23 0 42 18 42 42v125c0 45-38 83-83 83z m41-208h-166v125c0 22 18 41 41 41h84c22 0 41-19 41-41v-125z m-83 250c46 0 83 36 83 83 0 46-37 83-83 83-47 0-83-37-83-83 0-47 36-83 83-83z m0 125c22 0 42-20 42-42 0-23-20-42-42-42-23 0-42 19-42 42 0 22 19 42 42 42z" horiz-adv-x="1000" />

<glyph glyph-name="fa-play-circle" unicode="&#xe84f;" d="M463 494c-5 2-11 5-16 5-19 0-32-16-32-32v-234c0-17 13-32 32-32 5 0 11 2 16 4l191 117c10 5 16 16 16 28 0 11-6 21-16 27l-191 117z m37 196c-189 0-340-153-340-340 0-189 151-340 340-340 187 0 340 151 340 340 0 187-153 340-340 340z m0-616c-153 0-276 123-276 276 0 152 123 277 276 277 152 0 277-125 277-277 0-153-125-276-277-276z" horiz-adv-x="1000" />

<glyph glyph-name="fa-play" unicode="&#xe850;" d="M720 390l-375 229c-10 5-22 9-34 9-35-1-61-30-61-63v-458c0-34 26-63 63-63 10 0 22 3 32 10l375 229c18 10 30 31 30 53 0 21-12 42-30 54z m-407-283l-2 457 377-228-375-229z" horiz-adv-x="1000" />

<glyph glyph-name="fa-phone-flip" unicode="&#xe851;" d="M168 185l27-123c7-27 30-45 59-45 319 0 579 259 579 578 0 28-19 52-46 57l-123 29c-27 6-56-8-68-34l-56-133c-10-23-3-52 16-69l53-43c-37-68-95-125-162-163l-45 54c-15 19-44 26-67 17l-133-58c-26-11-40-40-34-67z m40 9c-2 9 3 17 11 21l131 56c8 2 16 1 21-6l54-65c6-8 16-10 24-5 89 43 162 116 205 203 5 9 2 20-6 26l-65 54c-6 5-7 13-5 20l57 132c3 7 10 10 16 10 1 0 3 0 4 0l122-28c8-2 15-8 15-17 0-296-242-538-538-538-9 0-16 7-17 14l-29 123z" horiz-adv-x="1000" />

<glyph glyph-name="fa-plus" unicode="&#xe852;" d="M771 351c0-18-14-31-31-31h-209v-208c0-18-14-33-31-33-18 0-31 15-31 33v208h-209c-18 0-31 13-31 30 0 18 13 33 31 33h209v208c0 17 13 30 31 30 17 0 31-13 31-30v-208h209c17 0 31-15 31-32z" horiz-adv-x="1000" />

<glyph glyph-name="fa-rectangles-mixed" unicode="&#xe853;" d="M542 413v208c0 32-30 62-63 62h-333c-34 0-63-30-63-62v-208c0-34 29-63 63-63h333c33 0 63 29 63 63z m-396 208h333v-208h-333v208z m354-333h-271c-34 0-62-30-62-63v-146c0-34 28-62 62-62h271c33 0 63 28 63 62v146c0 33-30 63-63 63z m0-209h-271v146h271v-146z m354 604h-166c-34 0-63-30-63-62v-375c0-34 29-63 63-63h166c33 0 63 29 63 63v375c0 32-30 62-63 62z m0-437h-166v375h166v-375z" horiz-adv-x="1000" />

<glyph glyph-name="fa-question" unicode="&#xe854;" d="M493 156c-23 0-42-20-42-42 0-24 19-43 42-43 22 0 42 19 42 43 0 22-20 42-42 42z m87 500h-139c-76 0-135-62-135-136v-21c0-18 13-31 31-31 17 0 31 13 31 31v21c0 39 33 73 73 73h139c43 0 80-36 80-79 0-30-17-58-43-71l-94-49c-39-20-61-59-61-102v-22c0-18 13-32 31-32 17 0 31 14 31 32v22c0 20 11 37 28 46l93 49c47 25 77 73 77 127 0 78-64 142-142 142z" horiz-adv-x="1000" />

<glyph glyph-name="fa-plug" unicode="&#xe855;" d="M646 663c0 10-11 20-21 20-12 0-21-10-21-20v-125h42v125z m-250 0c0 10-11 20-21 20-12 0-21-10-21-20v-125h42v125z m333-167h-458c-12 0-21-11-21-21 0-12 9-21 21-21h21v-83c0-108 82-197 187-207v-126c0-12 9-21 21-21 10 0 21 9 21 21v126c104 10 187 99 187 207v83h21c11 0 21 9 21 21 0 10-10 21-21 21z m-62-125c0-93-76-167-167-167-92 0-167 74-167 167v83h334v-83z" horiz-adv-x="1000" />

<glyph glyph-name="fa-route" unicode="&#xe856;" d="M708 590c-43 0-41-63 0-63 42 0 41 63 0 63z m21-365h-146c-35 0-62 27-62 63 0 33 27 62 62 62h125c0 0 125 139 125 208 0 69-56 125-125 125-69 0-125-56-125-125 0-45 52-121 90-166h-90c-58 0-104-47-104-104 0-59 46-105 104-105h146c34 0 63-28 63-62 0-35-29-63-63-63h-403c37 46 91 121 91 167 0 69-56 125-125 125-69 0-125-56-125-125 0-69 125-208 125-208h437c58 0 104 45 104 104 0 57-46 104-104 104z m-104 333c0 46 37 84 83 84 46 0 84-38 84-84 0-27-41-88-84-144-45 56-83 118-83 144z m-417-333c0 46 37 83 84 83 45 0 83-37 83-83 0-27-40-88-83-144-46 56-84 118-84 144z m84 31c-43 0-42-62 0-62 41 0 40 62 0 62z" horiz-adv-x="1000" />

<glyph glyph-name="fa-search" unicode="&#xe857;" d="M832 57c10-11 10-29 0-40-6-6-13-7-19-7-8 0-15 1-22 6l0 1-179 180c-49-40-110-62-176-62-152 0-276 124-276 278 0 152 123 277 276 277 153 0 278-125 278-277 0-68-22-128-63-177l181-179z m-617 356c0-123 99-223 223-223 122 0 222 99 222 223 0 122-100 222-222 222-124 0-223-100-223-222z" horiz-adv-x="1000" />

<glyph glyph-name="fa-long-arrow-left" unicode="&#xe858;" d="M397 550c6-7 10-15 10-22 0-10-4-17-10-23l-124-123h530c17 0 31-15 31-31 0-19-14-32-31-32h-530l124-125c13-11 13-31 0-43-12-13-32-13-43 0l-178 177c-13 12-13 32 0 43l178 177c11 13 31 13 43 2z" horiz-adv-x="1000" />

<glyph glyph-name="fa-search-plus" unicode="&#xe859;" d="M823 70l-175 175c38 45 60 104 60 168 0 148-122 270-270 270-150 0-271-122-271-270 0-150 121-271 271-271 62 0 121 21 168 58l174-174c5-7 13-9 22-9 8 0 16 2 21 9 13 12 13 31 0 44z m-385 134c-116 0-209 93-209 209 0 114 93 208 209 208 114 0 208-94 208-208 0-116-94-209-208-209z m104 240h-75v73c0 17-14 31-29 31-17 0-32-14-32-31v-73h-74c-17 0-30-15-30-31 0-19 13-32 30-32h74v-73c0-18 13-31 30-31 17 0 30 13 30 31v73h73c20 0 34 13 34 32 0 16-14 31-31 31z" horiz-adv-x="1000" />

<glyph glyph-name="fa-sensor" unicode="&#xe85a;" d="M483 503c-19 0-32-14-32-31v-146c0-18 13-32 32-32 17 0 31 14 31 32v146c0 17-14 31-31 31z m-104 0c-19 0-32-14-32-31v-146c0-18 13-32 32-32 16 0 31 14 31 32v146c0 17-15 31-31 31z m343 125h-416c-47 0-84-38-84-84v-416c0-47 37-84 84-84h416c46 0 84 37 84 84v416c0 46-38 84-84 84z m21-500c0-12-10-21-21-21h-416c-12 0-21 9-21 21v416c0 11 9 21 21 21h416c11 0 21-10 21-21v-416z" horiz-adv-x="1000" />

<glyph glyph-name="fa-redo" unicode="&#xe85b;" d="M194 624v-208c0-18 15-31 32-31h208c18 0 31 13 31 31 0 17-13 31-31 31h-130c39 74 117 125 203 125 128 0 229-103 229-229 0-128-101-229-229-229-53 0-105 18-146 52-13 12-32 9-44-4-11-13-9-32 4-44 52-43 118-67 187-67 160 0 291 131 291 292 0 160-131 290-291 290-104 0-199-56-251-141v132c0 17-13 32-31 32-17 0-32-15-32-32z" horiz-adv-x="1000" />

<glyph glyph-name="fa-share-nodes" unicode="&#xe85c;" d="M667 308c-38 0-72-17-95-44l-118 59c3 9 4 18 4 27 0 8-1 17-4 26l118 59c23-26 57-43 95-43 69 0 125 54 125 125 0 69-56 125-125 125-71 0-125-56-125-125 0-9 0-19 2-28l-117-58c-23 27-57 44-94 44-70 0-125-56-125-125 0-70 55-125 125-125 37 0 71 16 94 43l117-59c-2-9-2-18-2-26 0-70 54-125 125-125 69 0 125 55 125 125 0 69-56 125-125 125z m0 271c34 0 62-28 62-62 0-35-28-63-62-63-35 0-63 28-63 63 0 34 28 62 63 62z m-334-291c-35 0-62 27-62 62 0 34 27 63 62 63 34 0 63-29 63-63 0-35-29-62-63-62z m334-167c-35 0-63 27-63 62 0 34 28 63 63 63 34 0 62-29 62-63 0-35-28-62-62-62z" horiz-adv-x="1000" />

<glyph glyph-name="fa-sign-out" unicode="&#xe85d;" d="M417 90c0-19-15-32-32-32h-93c-71 0-125 55-125 125v334c0 69 54 125 125 125h93c17 0 32-15 32-32 0-18-15-31-32-31h-93c-35 0-63-28-63-62v-334c0-35 28-62 63-62h93c17 0 32-14 32-31z m407 281l-165 177c-12 13-31 13-44 1-13-11-13-31-2-44l116-124h-324c-17 0-30-14-30-31 0-18 13-31 30-31h323l-117-125c-12-13-12-33 1-44 8-6 16-8 22-8 8 0 16 2 22 9l166 177c14 12 14 31 2 43z" horiz-adv-x="1000" />

<glyph glyph-name="fa-sitemap" unicode="&#xe85e;" d="M219 329h250v-31c0-18 13-31 31-31 17 0 31 13 31 30v32h250v-31c0-18 13-31 32-31 16 0 31 13 31 30v44c0 27-24 51-51 51h-262v83h52c23 0 42 18 42 42v125c0 22-19 41-42 41h-166c-24 0-42-19-42-41v-125c0-12 4-22 12-30 8-8 18-12 30-12h52v-83h-263c-28 0-50-24-50-51v-43c0-18 13-31 30-31 16 0 33 13 33 31v31z m219 209v83h125v-83h-125z m437-313h-125c-23 0-42-19-42-42v-125c0-23 19-41 42-41h125c22 0 42 18 42 41v125c0 23-20 42-42 42z m-21-146h-83v84h83v-84z m-291 146h-125c-24 0-42-19-42-42v-125c0-23 18-41 42-41h125c22 0 41 18 41 41v125c0 23-19 42-41 42z m-21-146h-84v84h84v-84z m-292 146h-125c-23 0-42-19-42-42v-125c0-23 19-41 42-41h125c22 0 42 18 42 41v125c0 23-20 42-42 42z m-21-146h-83v84h83v-84z" horiz-adv-x="1000" />

<glyph glyph-name="fa-skull" unicode="&#xe85f;" d="M375 433c-47 0-83-37-83-83 0-47 36-83 83-83 46 0 83 36 83 83 0 46-37 83-83 83z m0-125c-23 0-42 19-42 42 0 22 19 42 42 42 22 0 42-20 42-42 0-23-20-42-42-42z m125 375c-185 0-333-131-333-291 0-93 47-173 122-227 13-9 20-23 18-39l-10-27c-13-41 17-82 60-82h285c43 0 73 41 60 82l-9 27c-3 16 4 30 17 39 75 54 123 134 123 227 0 160-149 291-333 291z m185-484c-25-18-38-48-34-78 1-7-1-1 11-35 3-11-2-28-20-28h-59v63c0 10-10 21-20 21-12 0-21-11-21-21v-63h-84v63c0 10-10 21-20 21-12 0-21-11-21-21v-63h-60c-15 0-25 15-20 28 12 34 11 28 11 35 5 30-9 60-34 78-68 48-106 117-106 193 0 136 131 250 292 250 160 0 292-114 292-250 0-76-39-145-107-193z m-60 234c-47 0-83-37-83-83 0-47 36-83 83-83 46 0 83 36 83 83 0 46-37 83-83 83z m0-125c-23 0-42 19-42 42 0 22 19 42 42 42 22 0 42-20 42-42 0-23-20-42-42-42z" horiz-adv-x="1000" />

<glyph glyph-name="fa-sensor-cloud" unicode="&#xe860;" d="M846 301c-5 46-45 83-93 83-9 0-20-1-29-4-34 35-86 48-133 33-45-16-81-56-87-105-60-19-96-80-86-142 10-62 64-108 126-108h244c58 0 110 41 125 98 13 57-15 117-67 145z m-58-201h-244c-31-1-60 16-75 43-16 26-16 60 0 87 15 28 44 43 75 43 2 0 2 0 2 0-9 44 17 87 61 100 43 14 88-9 105-50 16 19 45 26 67 13 22-13 32-41 22-64 45-8 77-48 73-93-3-45-41-79-86-79z m-413 396l-1-167c0-12 10-21 22-21 10 0 21 9 21 21v167c0 10-11 21-21 21-12 0-21-11-21-21z m-208-396c-24 0-42 18-42 42v416c0 23 18 42 42 42h416c23 0 42-19 42-42v-99c1 2 4 2 7 2 11 0 23-2 35-4l-2 101c0 46-36 84-82 84h-415c-46 0-82-38-82-84v-416c0-47 38-84 82-84h267c-14 12-26 26-35 42h-233z m125 396l-2-167c0-12 11-21 23-21 10 0 19 9 19 21l1 167c0 10-10 21-20 21-12 0-21-11-21-21z m-84 0l-1-167c0-12 10-21 21-21 12 0 21 9 21 21v167c0 10-11 21-21 21-12 0-20-11-20-21z" horiz-adv-x="1000" />

<glyph glyph-name="fa-spinner" unicode="&#xe861;" d="M500 597c-136 0-246-111-246-247 0-136 110-246 246-246 136 0 247 110 247 246 0 17 14 31 31 31 17 0 31-14 31-31 0-171-138-309-309-309-171 0-309 138-309 309 0 171 138 309 309 309 17 0 31-14 31-31 0-17-14-31-31-31z" horiz-adv-x="1000" />

<glyph glyph-name="fa-sparkles" unicode="&#xe862;" d="M589 548l78-31 31-78c3-4 6-6 10-6 4 0 7 2 9 6l33 78 77 31c4 3 6 6 6 10 0 4-2 7-6 9l-77 33-33 77c-2 4-5 6-9 6-4 0-7-2-10-6l-31-77-78-33c-4-2-6-5-6-9 0-4 2-7 6-10z m238-397l-77 32-33 77c-2 4-5 7-9 7-4 0-7-3-10-7l-31-77-78-32c-4-3-6-5-6-9 0-4 2-8 6-11l78-31 31-78c3-4 6-5 10-5 4 0 7 1 9 5l33 78 77 31c4 3 6 7 6 11 0 4-2 6-6 9z m-160 199c0 12-8 22-19 27l-136 68-68 137c-10 22-46 22-56 0l-68-137-136-68c-11-5-17-15-17-27 0-13 6-23 17-29l136-67 68-137c5-10 16-17 29-17 11 0 22 7 27 17l68 137 136 67c11 6 19 16 19 29z m-192-46c-6-2-11-7-14-14l-44-90-46 90c-2 7-8 12-14 14l-90 46 90 44c6 3 12 8 14 15l46 89 44-89c3-7 8-12 14-15l90-44-90-46z" horiz-adv-x="1000" />

<glyph glyph-name="fa-speaker" unicode="&#xe863;" d="M500 433c46 0 83 37 83 84 0 45-37 83-83 83-47 0-83-38-83-83 0-47 36-84 83-84z m0 125c22 0 42-19 42-41 0-24-20-42-42-42-23 0-42 18-42 42 0 22 19 41 42 41z m0-166c-81 0-146-67-146-146 0-81 65-146 146-146 79 0 146 65 146 146 0 79-67 146-146 146z m0-250c-59 0-104 45-104 104 0 57 45 104 104 104 57 0 104-47 104-104 0-59-47-104-104-104z m167 541h-334c-46 0-83-37-83-83v-500c0-47 37-83 83-83h334c45 0 83 36 83 83v500c0 46-38 83-83 83z m41-583c0-23-19-42-41-42h-334c-23 0-41 19-41 42v500c0 22 18 42 41 42h334c22 0 41-20 41-42v-500z m-208 177c-18 0-31-14-31-31 0-18 13-31 31-31 17 0 31 13 31 31 0 17-14 31-31 31z" horiz-adv-x="1000" />

<glyph glyph-name="fa-step-backward" unicode="&#xe864;" d="M333 569v-438c0-18 13-31 32-31 17 0 31 13 31 31v137l225-161c7-4 16-7 25-7 6 0 13 1 18 4 14 8 24 22 24 38v415c0 16-10 30-24 38-5 2-12 4-18 4-9 0-18-3-25-7l-225-161v138c0 17-14 31-31 31-19 0-32-14-32-31z m63-215l229 163v-335l-229 163v9z" horiz-adv-x="1000" />

<glyph glyph-name="fa-stopwatch" unicode="&#xe865;" d="M500 454c-12 0-21-10-21-21v-187c0-12 9-21 21-21 10 0 21 9 21 21v187c0 11-11 21-21 21z m264 47c8 8 8 22 0 30-7 8-22 8-30 0l-48-48c-44 42-101 69-165 74v85l83-2c11 2 21 11 21 23 0 10-10 20-21 20h-208c-12 0-21-10-21-20 0-12 9-21 21-21h83v-85c-140-10-250-128-250-269 0-150 121-271 271-271 148 0 271 121 271 271 0 61-22 118-57 164l50 49z m-35-213c0-128-103-230-229-230-128 0-229 102-229 230 0 126 101 229 229 229 126 0 229-103 229-229z" horiz-adv-x="1000" />

<glyph glyph-name="fa-step-forward" unicode="&#xe866;" d="M656 600c-18 0-31-14-31-31v-138l-227 161c-6 5-15 8-23 8-8 0-14-3-19-5-15-8-23-22-23-38v-415c0-16 8-30 23-37 5-4 13-5 19-5 8 0 17 3 23 7l227 161v-137c0-18 13-31 31-31 17 0 32 13 32 31v438c0 17-15 31-32 31z m-31-255l-229-163v335l229-163v-9z" horiz-adv-x="1000" />

<glyph glyph-name="fa-tank-water" unicode="&#xe867;" d="M500 350c51 0 94 40 94 91 0 14-7 31-14 46-7 16-16 33-26 48-9 16-18 30-25 40-4 5-7 9-9 12-1 1-2 2-2 3-5 6-10 10-19 10-7 0-12-4-17-10 0 0-1-2-2-3-2-3-5-7-9-12-6-10-16-23-25-40-9-15-19-32-26-48-7-13-14-32-14-46 0-51 43-91 94-91z m-43 120c7 14 15 29 24 44 7 10 13 20 19 29 6-9 12-19 19-29 9-15 17-30 24-44 6-15 9-25 9-29 0-26-22-49-52-49-30 0-52 23-52 49 0 4 3 14 9 29z m241 172h-95c-11 0-20-10-20-21 0-12 9-21 20-21h95c29 0 52-23 52-52v-251l-45-39c-22-18-55-18-77 0l-32 25c-7 6-18 6-26 0l-31-25c-23-18-55-18-78 0l-32 25c-8 6-19 6-26 0l-32-25c-22-18-55-18-77 0l-44 39v251c0 29 23 52 52 52h95c12 0 21 9 21 21 0 11-9 21-21 21h-95c-52 0-94-42-94-94v-396c0-52 42-94 94-94h396c52 0 94 42 94 94v396c0 52-42 94-94 94z m52-490c0-29-23-52-52-52h-396c-29 0-52 23-52 52v89l18-15c0 0 0 0 0-1 38-30 92-30 130 0l19 15 18-15c38-30 92-30 130 0l18 15 19-15c38-30 92-30 130 0 0 1 0 1 1 1l17 15v-89z" horiz-adv-x="1000" />

<glyph glyph-name="fa-temperature-full" unicode="&#xe868;" d="M625 558c0 69-56 124-125 124-69 0-125-55-125-124v-265c-26-29-42-68-42-110-1-91 73-166 166-166 92 0 168 74 168 166 0 42-17 81-42 110v265z m-125-500h-1c-69 0-125 56-124 125 0 52 29 80 40 94v281c0 46 37 84 82 84 45 0 82-38 82-84v-281c16-13 46-43 46-94 0-69-57-125-125-125z m63 125c0-35-29-62-63-62-35 0-62 27-62 62 0 26 16 50 40 59v316c0 11 9 21 19 21 11 0 20-10 20-21v-316c27-9 46-33 46-59z" horiz-adv-x="1000" />

<glyph glyph-name="fa-temperature-half" unicode="&#xe869;" d="M563 183c0-35-29-62-63-62-35 0-62 27-62 62 0 26 16 50 40 59l1 171c0 10 9 20 20 20 10 0 21-10 21-20v-171c24-9 43-33 43-59z m62 110c25-29 42-68 42-110 0-92-76-166-167-166h-1c-93 0-167 75-166 166 0 42 16 81 41 110v265c0 69 54 124 123 124 69 0 128-55 128-124v-265z m0-110c0 51-30 81-42 94v281c0 46-36 84-82 84-44 0-84-38-84-84v-281c-13-14-42-42-42-94-1-69 55-125 124-125h1c68 0 125 56 125 125z" horiz-adv-x="1000" />

<glyph glyph-name="fa-temperature-quarter" unicode="&#xe86a;" d="M563 183c0-35-29-62-63-62-35 0-62 27-62 62 0 26 16 50 40 59l1 87c0 11 9 21 20 21 10 0 21-10 21-21v-87c24-9 43-33 43-59z m62 110c25-29 42-68 42-110 0-92-76-166-167-166h-1c-93 0-167 75-166 166 0 42 16 81 41 110v265c0 69 54 124 123 124 69 0 128-55 128-124v-265z m0-110c0 51-30 81-42 94v281c0 46-36 84-82 84-44 0-84-38-84-84v-281c-13-14-42-42-42-94-1-69 55-125 124-125h1c68 0 125 56 125 125z" horiz-adv-x="1000" />

<glyph glyph-name="fa-trash" unicode="&#xe86b;" d="M760 579h-97l-44 73c-12 20-32 31-54 31h-131c-22 0-42-11-54-31l-44-73h-98c-17 0-30-14-30-31 0-16 13-31 30-31h12l27-442c2-34 29-58 63-58h319c34 0 61 24 62 58l29 442h10c17 0 32 13 32 31 0 17-15 31-32 31z m-326 42h131l25-42h-181l25 42z m225-542h-319l-27 438h373l-27-438z" horiz-adv-x="1000" />

<glyph glyph-name="fa-tree-deciduous" unicode="&#xe86c;" d="M813 377c-15 21-55 46-55 46 10 21 14 42 12 64-3 22-12 41-26 57-16 16-34 27-55 33-8 1-16 2-22 2-15 0-29-4-42-9-4 31-18 59-42 81-23 21-52 32-83 32-33 0-61-11-85-32-23-22-37-50-40-81-14 5-29 9-43 9-6 0-14-1-22-2-21-6-39-17-55-33-14-16-23-35-26-57-2-22 2-43 13-64-23-10-41-25-56-46-13-20-19-44-19-69 0-35 11-65 36-88 24-25 54-37 89-37h187v-145c0-12 9-21 21-21 10 0 21 9 21 21v145h187c34 0 64 12 89 37 23 23 36 53 36 88 0 25-7 49-20 69z m-46-129c-17-16-35-23-59-23h-187v33l77 76c8 8 8 23 0 30-8 8-22 8-30 0l-47-48v180c0 10-11 21-22 21-11 0-20-11-20-21v-108l-47 58c-7 8-20 11-28 3-9-7-12-21-4-29l79-99v-96h-187c-25 0-43 7-60 23-17 17-24 36-24 60 0 16 4 32 13 46 10 13 21 23 38 30l44 18-24 42c-8 13-11 25-8 38 1 13 6 24 16 33 9 11 19 17 33 20 4 1 8 3 12 3 9 0 17-3 25-7l53-23 5 57c3 22 12 39 29 55 16 14 34 22 56 22 21 0 39-8 56-22 16-15 25-33 27-55l6-57 52 23c9 4 17 7 26 7 4 0 8-2 11-3 15-3 25-9 34-20 9-9 15-20 16-33 3-15 0-26-8-40l-18-35 34-20c15-10 36-25 41-33 10-14 15-29 15-46 0-24-8-43-25-60z" horiz-adv-x="1000" />

<glyph glyph-name="fa-triangle-exclamation" unicode="&#xe86d;" d="M500 215c-18 0-31-15-31-32 0-18 14-31 31-31 17 0 30 13 30 31 1 17-13 32-30 32z m0 52c10 0 20 9 20 21v187c0 10-11 21-20 21-10 0-21-11-21-21v-187c0-12 9-21 21-21z m323-102l-260 440c-13 22-37 35-63 37-27 0-51-15-64-37l-260-440c-13-22-13-48 0-70 13-24 36-37 64-37h520c27 0 50 13 63 37 13 22 13 48 0 70z m-36-49c-6-11-16-16-28-16h-519c-12 0-23 5-28 16-6 9-5 19 0 28l261 440c5 10 15 16 27 16 0 0-1 0 0 0 10-1 21-6 26-16l261-440c5-9 6-19 0-28z" horiz-adv-x="1000" />

<glyph glyph-name="fa-unlock-keyhole" unicode="&#xe86e;" d="M521 246v-83c0-12-11-21-21-21-12 0-21 9-21 21v83c0 10 9 21 21 21 10 0 21-11 21-21z m271 62v-208c0-47-38-83-84-83h-416c-47 0-84 36-84 82v208c0 47 37 85 84 85h41v125c0 99 88 178 190 164 84-12 144-87 144-171v-14c0-12-11-21-21-21-12 0-21 9-21 21v21c0 74-66 133-142 123-64-9-109-65-109-128l1-120h333c46 0 84-38 84-84z m-42 0c0 23-19 42-42 42h-416c-24 0-42-19-42-42v-208c0-23 18-42 42-42h416c23 0 42 19 42 42v208z" horiz-adv-x="1000" />

<glyph glyph-name="fa-user-large" unicode="&#xe86f;" d="M500 308c103 0 188 84 188 188 0 103-85 187-188 187-104 0-187-84-187-187 0-104 83-188 187-188z m0 334c79 0 146-67 146-146 0-81-67-146-146-146-81 0-146 65-146 146 0 79 65 146 146 146z m124-375h-249c-116 0-208-94-208-209 0-23 18-41 40-41h585c22 0 40 18 40 41 1 115-92 209-208 209z m-416-209c0 92 75 167 167 167h249c92 0 168-75 168-167h-584z" horiz-adv-x="1000" />

<glyph glyph-name="fa-venus" unicode="&#xe870;" d="M729 454c0 127-103 229-229 229-128 0-229-102-229-229 0-120 91-219 208-229v-62h-83c-12 0-21-11-21-21 0-12 9-21 21-21h83v-83c0-12 9-21 21-21 10 0 21 9 21 21v83h83c11 0 21 9 21 21 0 10-10 21-21 21h-83v62c116 10 208 109 208 229z m-416 0c0 103 83 188 187 188 103 0 188-85 188-188 0-104-85-187-188-187-104 0-187 83-187 187z" horiz-adv-x="1000" />

<glyph glyph-name="fa-video-1" unicode="&#xe871;" d="M864 549c-14 11-34 12-49 4l-134-61v25c0 45-38 83-84 83h-375c-47 0-83-38-83-83v-334c0-46 36-83 83-83h375c46 0 84 37 84 83v25l134-62c6-3 14-6 21-6 10 0 20 4 28 10 16 9 25 26 25 44v312c0 17-9 34-25 43z m-246-366c0-11-10-20-21-20h-375c-11 0-21 9-21 20v334c0 10 10 21 21 21h375c11 0 21-11 21-21v-334z m208 26l-145 67v147l145 66v-280z" horiz-adv-x="1000" />

<glyph glyph-name="fa-video-slash" unicode="&#xe872;" d="M905 72l-237 187v164l145 67v-254c0-18 13-31 32-31 17 0 31 13 31 31v271c0 17-9 34-25 43-14 10-34 11-49 4l-134-62v25c0 46-38 83-84 83h-353l-97 76c-13 12-33 9-43-5-12-13-9-33 5-43l770-603c6-7 13-8 19-8 9 0 18 4 25 12 11 13 9 32-5 43z m-300 236l-293 230h272c11 0 21-10 21-21v-209z m-21-145h-375c-11 0-21 9-21 21v293l-62 48c0-3 0-5 0-8v-333c0-47 36-84 83-84h375c21 0 41 8 56 21l-53 42c-1 0-1 0-3 0z" horiz-adv-x="1000" />

<glyph glyph-name="fa-video" unicode="&#xe873;" d="M852 553c-13 7-30 7-43-2l-134-94c-10-7-12-20-6-30 7-9 20-11 30-4l134 94v-334l-134 94c-10 7-23 4-30-5-6-10-4-24 6-30l134-94c7-5 15-6 24-6 7 0 13 1 19 4 14 7 23 22 23 37v334c0 15-9 28-23 36z m-310 47h-334c-46 0-83-38-83-83v-334c0-46 37-83 83-83h334c45 0 83 37 83 83v334c0 45-38 83-83 83z m41-417c0-23-19-41-41-41h-334c-23 0-41 18-41 41v334c0 22 18 41 41 41h334c22 0 41-19 41-41v-334z" horiz-adv-x="1000" />

<glyph glyph-name="fa-volume-low" unicode="&#xe874;" d="M759 433c-5 3-13 6-20 6-9 0-18-4-25-12-10-13-9-32 6-44 14-12 23-29 23-47 0-19-9-36-23-48-15-12-16-31-6-44 7-8 16-12 25-12 7 0 15 3 20 7 30 24 47 59 47 97 0 37-17 72-47 97z m-145 191c-6 3-12 4-17 4-10 0-21-4-28-12l-176-155h-108c-35 0-63-28-63-62v-124c0-34 28-61 63-61h108l176-156c7-11 18-14 28-14 5 0 11 0 17 3 15 8 25 22 25 39v500c0 16-10 31-25 38z m-38-492l-158 142h-133v123h133l158 142v-407z" horiz-adv-x="1000" />

<glyph glyph-name="fa-volume-mute" unicode="&#xe875;" d="M531 625c-7 3-12 3-17 3-10 0-21-3-29-11l-175-155h-109c-35 0-62-28-62-62v-124c0-34 27-61 62-61h109l175-156c8-7 19-11 29-11 5 0 10 2 17 4 14 7 23 22 23 38v497c0 16-9 32-23 38z m-38-492l-159 142h-133v124h133l159 142v-408z m314 204l61 62c13 13 13 32 0 44-12 13-31 13-44 0l-60-63-63 63c-13 12-32 12-44 0-13-13-13-33 0-44l61-62-61-61c-13-13-13-32 0-44 12-13 31-13 44 0l63 61 61-61c12-13 31-13 43 0 13 12 13 31 0 44l-61 61z" horiz-adv-x="1000" />

<glyph glyph-name="fa-volume" unicode="&#xe876;" d="M531 624c-7 3-12 4-17 4-10 0-21-4-29-12l-175-155h-109c-35 0-62-28-62-62v-124c0-34 27-61 62-61h109l175-156c8-11 19-14 29-14 5 0 10 0 17 3 14 8 25 22 25 39v500c0 16-11 31-25 38z m-38-492l-159 142h-133v123h133l159 142v-407z m182 301c-5 3-13 6-19 6-9 0-18-4-25-12-10-13-9-32 5-44 15-12 24-29 24-47 0-19-9-36-24-48-14-12-15-31-5-44 7-8 16-12 25-12 6 0 14 3 19 7 30 24 47 59 47 97 0 37-17 72-47 97z m80 96c-7 4-13 6-21 6-9 0-17-4-23-11-12-13-10-33 3-45 45-35 71-88 71-143 0-56-26-109-71-144-13-12-15-32-3-45 6-7 14-11 23-11 8 0 14 2 21 6 58 48 92 119 92 194 0 74-34 145-92 193z" horiz-adv-x="1000" />

<glyph glyph-name="fa-watch-apple" unicode="&#xe877;" d="M667 579v21c0 46-38 83-84 83h-166c-47 0-84-37-84-83v-21c-46 0-83-38-83-83v-292c0-45 37-82 83-82v-22c0-47 37-83 84-83h166c46 0 84 36 84 83v20c45 0 83 36 83 82v294c0 45-38 83-83 83z m-292 21c0 22 18 42 42 42h166c23 0 42-20 42-42v-21h-250v21z m250-500c0-23-19-42-42-42h-166c-24 0-42 19-42 42v21h250v-21z m83 104c0-23-19-41-41-41h-334c-23 0-41 18-41 41v292c0 22 18 42 41 42h334c22 0 41-20 41-42v-292z m-177 146c0 17-14 31-31 31-18 0-31-14-31-31 0-18 13-31 31-31 17 0 31 13 31 31z m-93 0c0 17-15 31-32 31-18 0-31-14-31-31 0-18 13-31 31-31 17 0 32 13 32 31z m156 31c-18 0-31-14-31-31 0-18 13-31 31-31 17 0 31 13 31 31 0 17-14 31-31 31z m-42 32c17 0 31 13 31 31 0 17-14 31-31 31-18 0-31-14-31-31 0-18 13-31 31-31z m-104 0c17 0 31 13 31 31 0 17-14 31-31 31-18 0-31-14-31-31 0-18 13-31 31-31z m104-125c-18 0-31-15-31-32 0-18 13-31 31-31 17 0 31 13 31 31 0 17-14 32-31 32z m-104 0c-18 0-31-15-31-32 0-18 13-31 31-31 17 0 31 13 31 31 0 17-14 32-31 32z" horiz-adv-x="1000" />

<glyph glyph-name="fa-wave-pulse" unicode="&#xe878;" d="M917 371c0-12-11-21-21-21h-175l-78-195c-2-9-10-15-21-13-7 0-15 6-18 15l-103 410-106-535c-2-9-11-15-20-15-10 0-18 6-21 15l-79 318h-171c-12 0-21 9-21 21 0 10 9 19 21 19h188c9 0 17-6 19-17l61-243 107 535c2 11 11 17 20 18 10-1 18-6 21-17l109-437 60 148c2 10 10 15 19 15h188c10 0 21-11 21-21z" horiz-adv-x="1000" />

<glyph glyph-name="fa-waveform-lines" unicode="&#xe879;" d="M375 558c-12 0-21-10-21-20v-375c0-12 9-21 20-21 11 0 22 9 22 21v375c0 10-11 20-21 20z m-125-125c-12 0-21-10-21-20v-125c0-12 9-21 20-21 10 0 22 9 22 21v125c0 10-11 20-21 20z m-125-41c-12 0-21-11-21-21v-42c0-12 9-21 20-21 10 0 22 9 22 21v42c0 10-11 21-21 21z m500 125c-12 0-21-11-21-21v-292c0-12 9-21 20-21 10 0 22 9 22 21v292c0 10-11 21-21 21z m250-125c-12 0-21-11-21-21v-42c0-12 9-21 21-21 10 0 21 9 21 20v43c0 10-11 21-21 21z m-125 208c-12 0-21-10-21-21v-458c0-12 9-21 20-21 11 0 22 9 22 21v458c0 11-11 21-21 21z m-250 83c-12 0-21-10-21-20v-625c0-12 9-21 20-21 10 0 22 9 22 21v625c0 10-11 20-21 20z" horiz-adv-x="1000" />

<glyph glyph-name="fa-wifi-fair" unicode="&#xe87a;" d="M500 433c-102 0-197-40-266-110-7-9-7-22 0-30 10-8 23-8 30 0 62 64 145 99 236 99 90 0 173-35 234-99 4-4 10-5 16-5 5 0 10 1 14 5 8 8 8 21 0 30-69 70-164 110-264 110z m-1-208c-47 0-84-38-84-83 0-45 37-84 84-84 45 0 83 38 83 84 0 47-36 83-83 83z m1-125c-23 0-42 18-42 42 0 22 19 41 42 41 22 0 42-19 42-41 0-24-20-42-42-42z" horiz-adv-x="1000" />

<glyph glyph-name="fa-wifi-slash" unicode="&#xe87b;" d="M602 375c49-16 95-43 132-82 4-4 10-5 16-5 5 0 10 1 14 5 8 8 8 21 0 30-62 64-144 101-234 108l72-56z m-102 225c145 0 284-59 380-160 4-5 9-7 16-7 4 0 9 2 14 6 8 7 8 20 0 28-104 111-254 175-411 175-67 0-132-13-192-34l39-31c49 14 101 23 154 23z m-411-131c-8-10-8-23 0-30 9-8 22-8 30 1 19 19 40 38 62 55l-34 26c-21-16-40-34-58-52z m145-146c-7-9-7-22 0-30 10-8 23-8 30 0 26 27 58 49 90 65l-36 29c-30-17-59-40-84-64z m297-104c-10 3-21 6-32 6-46 0-84-38-84-83 0-47 38-84 84-84 47 0 83 37 83 84 0 18-5 35-16 49l-35 28z m-31-119c-23 0-42 18-42 42 0 22 19 41 42 41 22 0 42-19 42-41 0-24-20-42-42-42z m-384 578c-9 8-22 5-29-4-8-9-5-22 4-28l792-625c4-3 8-4 12-4 5 0 11 2 15 8 8 9 5 22-2 28l-792 625z" horiz-adv-x="1000" />

<glyph glyph-name="fa-wifi" unicode="&#xe87c;" d="M910 469c-104 109-254 173-410 173-158 0-307-64-411-173-8-10-8-23 1-30 8-8 21-8 29 1 96 101 235 160 381 160 145 0 284-59 380-160 4-5 9-7 16-7 4 0 9 2 14 6 8 7 8 20 0 30z m-410-36c-102 0-195-39-266-109-7-10-7-23 0-31 10-8 23-8 30 0 62 64 145 99 236 99 90 0 173-35 234-99 4-4 10-5 16-5 5 0 10 1 14 5 8 8 8 21 0 30-69 70-164 110-264 110z m-1-208c-47 0-84-36-84-83 0-46 37-84 84-84 45 0 83 38 83 84 0 47-36 83-83 83z m1-125c-23 0-42 18-42 42 0 22 19 41 42 41 22 0 42-19 42-41 0-24-20-42-42-42z" horiz-adv-x="1000" />

<glyph glyph-name="nxp-5g" unicode="&#xe87d;" d="M440 365h-97l-1-38c8 2 15 3 22 3 12 0 23-2 34-5 10-4 19-9 27-16 8-8 14-16 17-26 5-11 7-22 7-34 0-12-2-25-7-36-5-11-11-20-20-28-8-8-18-14-29-17-12-4-25-6-37-6-21 0-39 5-53 16-15 10-24 26-30 46l54 13c2-8 5-16 11-21 7-6 15-9 23-8 5-1 10 0 14 2 5 2 9 4 12 8 4 3 6 8 8 12 1 4 2 9 2 14 0 7-1 14-5 20-3 5-8 9-13 12-6 3-12 6-18 7-7 1-13 1-20 1-9 0-17 0-26-2-8-2-17-4-25-7l3 135h148l-1-45z m276-181c-16-9-33-15-50-18-17-4-35-6-53-6-18 0-36 3-53 9-15 6-29 15-41 26-12 11-22 25-28 40-13 35-13 72 0 107 6 15 16 29 28 40 12 11 26 20 41 26 17 6 35 9 53 9 18 0 37-2 54-7 16-5 31-13 43-24l-38-42c-7 8-15 14-24 18-11 4-23 6-35 5-11 1-21-1-31-5-9-4-17-10-24-17-7-7-12-15-15-25-7-20-7-42 0-63 3-9 8-17 15-25 7-7 15-12 24-16 10-4 20-6 31-6 10 0 21 1 30 4 8 2 14 5 21 8v40h-44v50h96v-128z m-216 512c-66 0-129-25-177-69l-1-1c-1-2-3-3-4-6 0-2-1-4-1-6 0-3 1-5 2-7 0-2 2-4 3-6l11-10c3-3 7-5 12-5 5 0 9 2 12 5 39 35 90 55 143 55 53 0 104-20 143-55 3-3 7-5 11-5 4 0 8 1 11 3 1 1 2 1 2 2l11 10 0 1c3 3 5 8 5 12 0 5-2 9-6 13-48 44-111 69-177 69z m-115-145l-1-1c-1-1-3-3-3-5-1-2-2-5-2-7 0-2 1-5 2-7 1-2 2-4 4-5l10-10c0-1 1-1 1-2 4-2 8-4 12-3 4 0 8 1 11 4 23 20 52 31 81 31 30 0 59-11 81-31 3-3 7-4 11-4 4-1 8 1 12 3 0 0 1 1 1 2l11 10c0 0 0 0 0 1 4 3 5 8 5 12 0 5-2 9-6 12-31 29-72 44-115 44-42 0-83-16-115-44z" horiz-adv-x="1000" />

<glyph glyph-name="nxp-360" unicode="&#xe87e;" d="M481 439h8c2 0 5 1 7 1 2 0 4 1 6 2 2 1 3 2 4 4 2 2 2 4 2 7 0 1 0 3-1 5-1 1-2 3-3 4-3 2-7 3-11 3-3 0-6-1-9-3-3-2-5-5-6-8l-27 6c1 5 3 9 6 13 2 4 6 7 9 9 4 2 8 4 13 5 4 1 9 2 14 1 5 1 10 0 15-1 5-2 9-4 13-7 4-2 7-6 9-10 3-4 4-10 4-15 0-6-2-12-6-17-3-5-9-8-15-9v-1c4 0 7-1 10-3 2-1 5-4 7-6 2-3 3-5 4-9 1-3 2-6 2-10 0-5-1-10-4-15-2-5-5-8-9-11-4-4-9-6-14-7-5-2-11-2-17-2-9-1-19 2-27 7-4 3-8 6-10 10-3 4-5 9-5 14l26 6c1-4 3-8 6-10 3-3 8-4 12-4 2 0 4 0 7 1 2 1 4 2 5 3 3 3 4 7 4 11 0 3 0 6-2 8-1 2-3 4-5 4-3 1-5 2-8 2-3 0-6 0-8 0h-6l0 22z m112 5c1 0 2 0 4 1 1 0 3 0 4 0 5 0 11-1 15-3 5-2 9-5 12-8 4-4 6-8 8-13 2-5 3-10 3-15 0-6-2-11-4-16-2-5-5-10-9-14-5-4-9-6-15-8-11-4-23-4-35 0-5 2-10 4-14 8-4 4-7 9-10 14-2 5-3 10-3 16 0 4 1 8 1 12 1 3 2 6 4 10 1 3 2 6 4 9 2 3 4 6 6 9l26 40h31l-28-42z m20-37c0 2 0 5-1 7-1 3-2 5-4 6-4 4-9 6-14 6-5 0-10-2-14-6-3-3-5-8-5-13 0-5 2-10 5-14 4-3 9-5 14-5 5 0 10 2 14 5 2 2 3 4 4 7 1 2 1 4 1 7z m37 20c0 7 0 14 2 21 1 7 3 14 7 20 3 6 8 11 13 15 7 4 15 6 22 6 8 0 15-2 22-6 6-4 11-9 14-15 3-6 5-13 7-20 2-14 2-29 0-43-2-7-4-14-7-20-3-6-8-11-14-15-7-3-14-5-22-5-7 0-15 2-22 5-5 4-10 9-13 15-4 6-6 13-7 20-2 7-2 14-2 22z m25 0c0-3 0-7 1-12 0-4 1-8 2-12 1-4 3-8 5-11 3-2 7-4 11-4 4 0 8 2 11 4 3 3 5 7 6 11 1 4 2 8 2 12 0 5 0 9 0 12 0 3 0 7 0 11 0 4-1 9-2 13-1 4-3 7-6 10-3 3-7 4-11 4-4 0-8-1-11-4-2-3-4-7-5-10-1-4-2-9-2-13-1-4-1-8-1-11z m91 32c-2 0-5 0-7 1-2 1-4 3-6 5-2 1-3 3-4 5-1 3-2 5-2 8 0 2 1 5 2 7 1 2 2 4 4 6 2 2 4 3 6 4 2 1 5 1 7 1 3 0 5 0 8-1 2-1 4-2 5-4 2-2 3-4 4-6 1-2 2-5 2-7 0-3-1-5-2-8-1-2-2-4-4-5-1-2-3-4-5-5-3-1-5-1-8-1z m-8 19c0-2 0-3 1-4 0-2 1-3 2-3 2-1 3-2 4-2 2 0 3 0 5 1 1 0 2 1 3 2 1 1 1 3 2 4 0 1 0 3-1 4 0 2-1 3-2 4-1 1-3 2-6 2-2 0-4-1-6-2-1-1-1-2-2-3 0-1 0-2 0-3v0z m137-118c0 21-9 53-52 83-5 4-12 5-18 4-6-1-12-4-16-10-3-5-5-11-4-18 1-6 5-12 10-15 14-11 32-26 32-44 0-47-133-112-348-112-36 0-71 2-107 6-4 35-5 71-5 106 0 216 65 348 112 348 25 0 53-36 74-93 6-17 12-35 16-53 2-6 6-11 11-15 3-1 6-2 9-3 3 0 6 0 9 1 3 0 6 2 9 4 2 1 4 4 6 7 2 2 3 5 3 8 1 4 1 7 0 10-5 19-11 38-17 57-30 81-73 125-120 125-104 0-161-204-161-396 0-33 2-66 5-99-121 21-192 65-192 99 0 17 17 36 46 52l0 1 22 11-7-42c-1-5-1-11 2-15 2-5 7-8 11-10l9-3c2 0 4-1 6-1 4 0 8 2 12 4 3 3 6 6 7 10l23 101c1 5 1 10-2 15-2 4-6 8-11 9l-95 40 0 0c-5 2-11 1-16-1-4-3-8-7-9-12l-3-8c-2-5-1-10 1-15 2-5 6-8 11-10l39-19-5-3c-5-2-10-4-15-7l-2-1c0 0-1-1-1-1-58-33-71-69-71-95 0-77 111-128 247-149 21-135 72-247 149-247 27 0 63 14 97 75 1 1 1 2 2 4l11 21 19-38c2-4 4-7 8-9 3-3 7-4 11-4 2 0 4 0 6 1l9 3c5 2 9 5 11 10 3 5 3 10 1 15l-41 95c-1 5-5 9-10 11-4 2-10 3-15 1l-99-24h-1c-5-2-9-5-11-10-3-5-3-10-1-15l2-8c2-5 6-10 10-12 5-2 10-3 15-1l42 7c-1-2-2-4-3-7l-7-13c-18-34-38-53-56-53-34 0-78 70-100 192 34-3 67-5 100-5 192 0 396 56 396 160z" horiz-adv-x="1000" />

<glyph glyph-name="nxp-abs" unicode="&#xe87f;" d="M500 51c-59 0-117 18-166 50-49 33-88 80-110 135-23 54-29 114-17 172 11 58 40 112 82 153 41 42 95 71 153 82 58 12 118 6 172-17 55-22 102-61 135-110 33-49 50-107 50-166 0-79-32-155-88-211-56-56-132-88-211-88z m0 550c-50 0-98-15-139-42-42-28-74-67-93-113-19-46-24-96-14-145 10-49 34-93 69-128 35-35 79-59 128-69 49-10 99-5 145 14 46 19 85 51 113 93 27 41 42 89 42 139 0 67-27 130-74 177-47 47-110 74-177 74z m280-539c-4 0-9 2-13 4-4 3-7 7-9 11-2 4-2 9-1 14 1 4 3 9 6 12 63 67 98 155 98 247 0 92-35 180-98 247-2 2-4 5-5 8-2 3-2 6-2 9 0 4 1 7 2 10 1 3 3 5 5 8 3 2 6 4 9 5 3 1 6 1 9 1 3 0 7-1 9-2 3-2 6-3 8-6 71-76 111-176 111-280 0-104-40-204-111-280-2-2-5-4-8-6-3-1-6-2-10-2z m-543-17c-7 0-13 3-17 7-41 38-73 84-95 136-22 51-34 106-34 162 0 56 12 111 34 162 22 52 54 98 95 136 2 2 5 4 8 5 3 2 6 2 9 2 4 0 7-1 10-2 3-1 5-3 8-5 2-3 4-6 5-9 1-3 1-6 1-9 0-3-1-7-2-9-2-3-4-6-6-8-36-34-64-75-84-120-20-45-30-94-30-143 0-49 10-98 30-143 20-45 48-86 84-120 4-3 6-7 7-12 1-5 1-10-1-14-2-5-5-9-9-11-4-3-9-5-13-5z m130 369h24l56-129h-32l-11 27h-50l-11-27h-32l56 129z m11-38l-15-40h31l-16 40z m91 38h49c5 0 11-1 16-1 6-1 11-3 16-5 4-2 8-6 11-10 3-5 4-11 4-17 0-7-2-13-6-18-5-5-10-9-16-11v0c4 0 8-2 11-3 4-2 7-4 9-7 3-3 5-6 6-10 1-4 2-8 2-12 0-6-1-12-4-17-3-4-7-8-12-11-5-3-10-5-15-6-6-1-12-2-18-2h-53v130z m29-52h20c3 0 5 0 7 1 2 0 4 1 6 2 1 1 3 3 4 5 1 2 1 4 1 6 0 2 0 5-1 7-1 1-3 3-5 4-2 1-4 2-6 2-2 1-5 1-7 1h-19l0-28z m0-53h25c3 0 5 0 7 0 2 1 4 2 6 3 2 1 4 3 5 5 1 2 1 4 1 7 0 2 0 5-2 7-1 2-3 4-6 4-2 1-5 2-7 2-3 1-5 1-8 1h-21v-29z m163 73c-3 3-6 6-10 7-3 1-7 2-11 2-2 0-4 0-6-1-2 0-5-1-6-2-2-1-4-3-5-4-1-2-2-4-2-7 0-1 0-3 1-5 1-1 2-2 3-3 4-3 7-5 11-6 5-1 10-3 15-4 5-2 10-4 14-6 5-3 8-7 11-11 3-6 5-12 5-18 0-7-2-13-4-19-3-5-7-10-11-14-5-3-11-6-16-7-14-4-29-4-43 1-7 3-14 7-20 12l20 23c3-4 7-7 11-10 5-2 9-3 14-3 3 0 5 1 7 1 2 1 4 1 6 3 2 1 4 2 5 4 1 2 2 4 2 6 0 2-1 3-1 5-1 2-2 3-4 4-3 3-7 4-11 6-4 1-9 3-15 5-5 1-10 3-14 6-5 3-9 6-11 11-4 5-5 11-5 17 0 6 1 12 4 17 2 6 6 11 11 14 5 4 10 7 16 8 6 2 12 3 18 3 8 0 15-1 22-3 6-2 13-6 18-11l-19-21z" horiz-adv-x="1000" />

<glyph glyph-name="nxp-access" unicode="&#xe880;" d="M654 381c-9 0-18-3-26-9-7-5-13-13-15-22-3-9-3-18 0-27 3-9 9-16 17-22v-19c0-3 0-6 1-9 1-4 3-6 6-9 2-2 5-4 8-5 3-2 6-2 9-2 4 0 7 0 10 2 3 1 6 3 8 5 2 3 4 5 5 9 1 3 2 6 2 9v19c8 6 13 13 16 22 4 9 4 18 1 27-3 9-8 17-16 22-7 6-16 9-26 9v0z m177 91h-8v57c0 39-9 57-10 59-9 22-22 43-39 60-16 16-34 28-55 37-20 8-42 12-64 12h-1c-34 0-68-11-96-30-28-20-49-47-61-79-6-20-10-40-11-61-1-17 0-46 0-55h-8c-15 0-29-6-40-16-10-11-16-25-16-40v-109l-28 16c-2 2-4 3-5 5-1 2-2 5-2 7-1 9-3 18-5 28-11 42-38 79-76 101-38 22-83 29-126 18h0c-42-12-78-39-100-77-22-38-28-83-17-125 11-42 38-78 75-101 38-22 82-29 125-19h0c9 3 18 6 26 10 2 1 5 1 7 1 3 0 5-1 7-2l28-17c7-3 15-4 22-3l25 7c1 0 2 0 2 0 1 0 2 0 2-1 1 0 2-1 2-1 1-1 1-2 1-2l10-37c1-4 3-7 6-9 3-2 7-2 11-2l37 10c1 0 3 0 4-1 1 0 2-2 3-3l9-37c1-4 4-7 7-9 3-2 7-2 10-1l37 9c1 0 2 0 3 0 0 0 1 0 2 0 0-1 1-1 1-2 1 0 1-1 1-2l10-37c1-3 3-7 6-9 4-1 7-2 11-1l109 28c4 1 7 3 9 7 2 3 2 7 2 10l-26 98c0 1 0 2-1 2h185c15 0 30 6 40 17 11 10 17 25 17 40v193c0 7-2 14-5 21-2 7-6 13-12 19-5 5-11 9-18 12-7 3-14 4-22 4z m-297 57c0 16 3 31 9 46 6 15 15 28 26 39 11 11 25 20 39 26 15 6 31 9 46 9 16 0 32-3 47-9 14-6 28-15 39-26 11-11 20-24 26-39 6-15 9-30 9-46v-57h-241v57z m60-382c4-3 8-7 9-12l11-41c0 0 0-1 0-2 0-1-1-1-1-2 0 0-1-1-1-1-1-1-2-1-2-1l-29-8c-2 0-3 0-5 1-1 0-2 2-2 3l-10 37c-1 4-3 7-6 9-4 2-7 2-11 1l-37-9c-1 0-2 0-2 0-1 0-2 0-2 0-1 1-2 1-2 2 0 1-1 1-1 2l-10 37c0 4-3 7-6 9-3 2-7 2-11 1l-37-9c0 0-1-1-2 0-1 0-1 0-2 0-1 1-1 1-2 2 0 0 0 1-1 2l-9 37c-1 2-1 3-3 5-1 1-2 2-4 3-1 1-3 2-5 2-2 0-4 0-6 0l-48-13c-5-1-11 0-15 2l-35 21c-5 3-14 5-19 2-2-2-9-6-13-8-8-4-16-8-25-10-29-8-61-4-88 12-26 16-45 41-53 71-8 30-3 61 12 88 16 26 41 46 71 53h0c30 8 62 4 88-12 27-16 46-41 54-71 2-9 3-17 3-26 0-5 0-13 0-16 0-6 5-12 11-15l246-146z m246 76c0-1-1-2-1-3 0-1-1-2-2-3-1 0-1-1-2-1-1-1-2-1-4-1h-253l-108 64v137c0 2 0 4 2 6 1 1 3 2 6 2h353c3 0 5-1 6-2 2-2 3-4 3-6v-193z m-660 152c-7-2-14-6-19-11-5-6-8-13-9-20-1-7 0-15 4-21 3-7 8-12 14-16 7-4 14-6 21-5 8 0 15 3 21 7 5 5 10 11 12 18 3 7 3 14 1 21-2 10-9 18-17 23-9 5-19 7-28 4z" horiz-adv-x="1000" />

<glyph glyph-name="nxp-adas" unicode="&#xe881;" d="M519 270h-38c-3 0-6-1-8-3-2-2-3-5-3-7l-4-115c0-2 1-3 1-4 1-2 1-3 2-4 1-1 3-2 4-2 1-1 3-1 4-1h46c1 0 3 0 4 1 1 0 3 1 4 2 1 1 1 2 2 4 1 1 1 2 1 4l-4 115c0 2-1 5-3 7-2 2-5 3-8 3z m-29 325h20c2 0 3 0 4 1 2 0 3 1 4 2 1 1 2 2 2 3 1 2 1 3 1 5l-2 54c0 3-1 6-3 8-2 2-5 3-8 3h-16c-3 0-6-1-8-3-2-2-3-5-3-8l-2-54c0-2 1-3 1-5 1-1 1-2 2-3 1-1 3-2 4-3 1 0 3 0 4 0z m-8-280h36c1 0 3 0 4 1 1 1 3 1 4 2 1 1 1 3 2 4 0 1 1 3 1 4l-3 82c0 3-1 6-3 8-2 2-5 3-8 3h-30c-3 0-6-1-8-3-2-2-3-5-3-8l-2-82c0-1 0-3 0-4 1-1 2-3 3-4 1-1 2-1 3-2 1 0 3-1 4-1z m4 149h28c1 0 3 0 4 1 1 0 3 1 4 2 1 1 1 2 2 4 0 1 1 2 1 4l-2 64c0 3-2 6-4 8-2 2-5 3-7 3h-23c-3 0-6-1-8-3-2-2-3-5-3-8l-2-64c0-2 0-3 0-4 1-2 2-3 3-4 1-1 2-2 3-2 1-1 3-1 4-1z m-119 207h-18c-3 0-6-1-8-3-2-2-4-4-5-7l-148-516c0-1 0-2 0-4 0-1 1-3 2-4 1-1 2-2 3-2 1-1 3-1 4-1h50c2 0 5 1 7 3 3 2 4 4 5 7l117 515c0 2 0 3 0 4 0 2-1 3-2 4-1 1-2 2-3 3-1 0-3 1-4 1z m445-526l-148 516c-1 3-2 5-5 7-2 2-5 3-8 3h-18c-1 0-3-1-4-1-1-1-2-2-3-3-1-1-2-2-2-4 0-1 0-2 0-4l117-515c1-3 2-5 5-7 2-2 5-3 8-3h49c1 0 3 0 4 1 1 0 2 1 3 2 1 1 2 3 2 4 0 2 0 3 0 4z" horiz-adv-x="1000" />

<glyph glyph-name="nxp-aerospace" unicode="&#xe882;" d="M208 222c-5 0-10-1-13-4-4-2-7-6-9-10-2-4-2-9-1-13 1-5 3-9 6-12 3-4 7-6 12-7 4-1 9 0 13 2 5 1 8 4 11 8 2 4 4 9 4 13 0 3-1 6-2 9-1 3-3 5-5 8-2 2-5 3-8 5-2 1-5 1-8 1z m73 13c-5 0-11-2-15-5-5-3-8-7-11-12-2-5-2-11-1-16 1-5 4-10 7-14 4-4 9-7 15-8 5-1 10 0 16 2 5 2 9 6 12 10 3 5 5 10 5 15 0 8-3 15-9 20-5 5-12 8-19 8z m512-13c-5 0-10-1-13-4-4-2-7-6-9-10-2-4-2-9-1-13 1-5 3-9 6-12 3-4 8-6 12-7 5-1 9 0 13 2 5 1 8 4 11 8 2 4 4 9 4 13 0 3-1 6-2 9-1 3-3 5-5 8-2 2-5 3-8 5-2 1-5 1-8 1z m-74 13c-5 0-11-2-15-5-5-3-8-7-10-12-2-5-3-11-2-16 1-5 4-10 8-14 3-4 8-7 14-8 5-1 11 0 16 2 5 2 9 6 12 10 3 5 5 10 5 15 0 8-3 15-8 20-6 5-13 8-20 8z m180 356l-374 19v40h16c6 0 12 3 17 7 4 5 7 11 7 17 0 7-3 13-7 17-5 5-11 7-17 7h-82c-3 0-6 0-9-2-3-1-6-3-8-5-2-2-4-5-5-8-1-3-2-6-2-9 0-3 1-6 2-9 1-3 3-6 5-8 2-2 5-4 8-5 3-1 6-2 9-2h18v-40l-375-19c-3 0-6-1-9-2-3-1-5-3-7-5-2-3-4-6-5-9-1-3-2-6-2-9 1-3 1-6 3-9 1-3 3-6 5-8 3-2 5-3 8-4 3-2 7-2 10-2l372 19v-36c0-2 0-4 0-6l-40-14c-8-3-15-8-20-15-6-6-9-13-11-22-19-1-38-8-54-19-15-10-28-25-37-42-8-18-12-37-10-56 1-19 7-38 18-54l-144-10c-6 0-12-3-16-8-5-4-7-11-7-17 0-6 3-12 8-17 4-4 11-7 17-6h2l161 11 2-71c0-10 5-20 12-27 7-7 17-11 28-11h23v-24h-33c-6 0-11-2-16-6-4-3-7-8-8-14h0c-7 0-13-2-17-7-5-4-7-11-7-17v-46c0-7 2-13 7-17 4-5 10-7 17-7 6 0 12 2 17 7 4 4 7 10 7 17v42h57c7 0 13 2 17 7 5 5 7 11 7 17v48h86v-48c0-6 2-12 7-17 4-5 11-7 17-7h55v-42c0-6 2-13 7-17 4-5 11-7 17-7 6 0 12 2 17 7 5 4 7 11 7 17v46c0 6-2 12-6 17-4 4-10 7-16 7-1 6-4 11-8 15-4 3-10 5-16 5h-33v24h23c11 0 21 4 28 11 7 8 12 17 12 27l2 72 179-12c0 0 1 0 2 0 6 0 12 2 17 6 5 5 7 11 8 17 0 7-3 13-7 17-4 5-10 8-17 8l-161 11c11 16 17 35 18 54 1 19-2 38-11 55-8 17-21 32-37 43-15 11-34 17-53 19-2 8-5 15-11 22-5 6-12 11-20 14l-39 14c1 2 1 4 1 6v36l372-19h1c7 0 13 3 17 7 5 4 8 11 8 17 0 6-2 13-7 17-4 5-10 8-17 8l0-1z m-539-202c4 8 10 14 17 20 6 5 14 9 23 11l-15-115c-14 8-25 21-29 37-5 16-4 33 4 47v0z m25-85v-1h0l0 1z m9-114l-1 61c5-7 12-11 20-13l66-19c13-3 28-3 41 0l67 19c8 2 15 7 20 13l-1-60-212-1z m221 114v0l0 0h0z m25 85c8-14 9-31 5-47-5-16-16-29-30-37l-14 115c8-2 16-6 23-11 6-6 12-12 16-20l0 0z m-93 71l22-177-61-17c-6-1-11-1-16 0l-61 17 22 177c0 0 1 1 1 1l40 14c4 1 8 1 11 0l41-14c0-1 1-1 1-1l0 0z" horiz-adv-x="1000" />

<glyph glyph-name="nxp-ai-ml" unicode="&#xe883;" d="M791 319c-9 2-18 2-26-1-8-3-15-9-20-16-5-7-8-16-7-25 0-9 3-17 9-24l-15-53-100-40c-4-2-8-5-11-9-2-4-4-9-4-13v-125c-7-5-12-12-15-21-3-8-3-17 0-26 2-8 8-16 15-21 7-5 16-8 24-8 9 0 18 3 25 8 7 5 13 13 15 21 3 9 3 18 0 26-3 9-8 16-15 21v108l95 39c3 1 6 4 9 6 2 3 4 6 5 10l18 64c8 3 16 8 21 15 4 8 7 16 7 25-1 9-4 18-9 24-5 7-13 13-21 15h0z m88 218l-176 176c-4 5-10 7-17 7h-372c-3 0-7 0-9-2-3-1-6-2-8-5l-97-96c-9 1-18 0-26-4-8-4-14-10-18-18-4-8-6-17-4-26 1-9 5-17 11-23 7-6 15-10 24-12 8-1 17 0 25 5 8 4 14 10 18 18 4 8 6 17 4 26l90 89h352l162-162v-57l-24-29c-9 1-18-1-26-6-7-5-13-12-16-20-4-8-4-17-2-26 2-8 7-16 14-22 6-5 15-9 24-9 8-1 17 1 25 6 7 5 13 12 16 20 3 8 4 17 2 26l30 36c3 4 5 10 5 16v75c0 7-2 13-7 17z m-538-209c-6 0-13-2-19-5-6-3-11-8-15-13h-66l-79 76v59c7 5 13 12 16 21 2 8 2 17 0 26-3 8-8 16-15 21-8 5-16 8-25 8-9 0-18-3-25-8-7-5-12-13-15-21-2-9-2-18 0-26 3-9 9-16 16-21v-69c0-4 1-7 2-10 1-3 3-5 5-8l93-89c5-5 11-7 17-7h76c5-6 10-11 17-14 6-3 13-4 20-4 8 1 14 3 20 7 6 4 11 9 15 16 3 6 4 13 4 20 0 8-2 15-6 21-4 6-9 11-15 14-6 4-13 6-21 6z m228-212v46c0 4-1 7-3 11-1 3-4 6-7 8l-72 55c0 9-3 18-8 25-5 7-12 13-20 16-9 3-18 3-26 1-9-3-16-8-21-15-6-7-9-16-9-25 0-9 3-17 8-24 5-8 12-13 20-16 9-3 18-3 26 0l64-48v-34c-7-5-13-12-16-20-3-9-3-18 0-26 3-9 8-16 15-21 7-6 16-8 25-8 9 0 17 2 25 8 7 5 12 12 15 21 2 8 2 17-1 26-2 8-8 15-15 20z m72 148l56 50c4 5 7 11 7 17 1 6-2 13-6 17l-30 33c2 8 1 17-2 25-4 8-10 15-18 20-7 4-16 6-25 5-9-1-17-5-24-11-6-6-11-14-12-22-2-9-1-18 3-26 3-8 10-15 17-19 8-4 17-6 26-5l13-15-37-34c-9 2-18 1-26-3-8-3-15-9-19-17-5-8-6-17-5-26 1-8 4-17 10-23 6-7 14-11 23-13 9-1 18 0 26 3 8 4 14 10 19 18 4 8 6 17 4 26z m9 213c5-5 12-9 19-11 7-2 14-2 21 0 7 2 13 5 18 10 6 5 9 12 11 19 2 6 3 14 1 21-1 7-5 13-10 18-4 6-10 10-17 12-7 2-14 3-21 2l-54 52c-5 4-11 7-17 7h-163c-6 0-12-2-16-6l-44-39c-8 2-17 2-25-2-9-3-15-9-20-17-4-7-7-16-6-25 1-9 5-17 11-24 5-7 13-11 22-13 9-2 18-1 26 3 8 3 15 9 19 17 4 8 6 16 5 25l37 32h144l47-45c-1-7 0-13 2-20 2-6 6-12 10-16z m-363 8c-5 4-12 7-19 8-7 1-14 0-21-2-7-3-13-7-17-13-5-5-8-12-9-19-1-7-1-14 2-21 2-7 6-13 11-18 6-4 12-8 19-9 7-2 15-1 21 1l42-32c5-3 10-5 15-5h100c6 0 11 2 15 5l64 52c8-2 17-2 26 1 8 3 15 9 20 16 5 8 7 17 6 25 0 9-3 18-9 25-5 7-13 11-22 14-8 2-17 1-26-2-8-3-15-9-20-16-4-8-6-17-6-26l-57-46h-83l-35 27c0 7-1 13-4 19-3 6-7 12-13 16z" horiz-adv-x="1000" />

<glyph glyph-name="nxp-ai" unicode="&#xe884;" d="M456 441c-7 16-31 16-38 0l-73-166c-5-11 0-24 11-28 10-5 23 0 27 11l13 30h82l13-30c3-8 10-12 19-12 3 0 6 0 8 1 11 4 16 17 11 28l-73 166z m-42-112l24 52 22-52h-46z m190 125c-12 0-21-10-21-21v-166c0-12 9-21 21-21 11 0 21 9 21 21v166c0 11-10 21-21 21z m209-125c10 0 20 9 20 21 0 10-10 21-20 21h-63v83h63c10 0 20 9 20 21 0 10-10 21-20 21h-63v21c0 45-38 83-83 83h-21v63c0 10-11 20-21 20-12 0-21-10-21-20v-63h-83v63c0 10-11 20-21 20-12 0-21-10-21-20v-63h-83v63c0 10-11 20-21 20-12 0-21-10-21-20v-63h-21c-46 0-83-38-83-83v-21h-62c-12 0-21-11-21-21 0-12 9-21 21-21h62v-83h-62c-12 0-21-11-21-21 0-12 9-21 21-21h62v-83h-62c-12 0-21-11-21-21 0-12 9-21 21-21h62v-21c0-46 37-83 83-83h21v-62c0-12 9-21 21-21 10 0 21 9 21 21v62h83v-62c0-12 9-21 21-21 10 0 21 9 21 21v62h83v-62c0-12 9-21 21-21 10 0 21 9 21 21v62h21c45 0 83 37 83 83v21h63c10 0 20 9 20 21 0 10-10 21-20 21h-63v83h63z m-105-146c0-23-19-41-41-41h-334c-23 0-41 18-41 41v334c0 22 18 41 41 41h334c22 0 41-19 41-41v-334z" horiz-adv-x="1000" />

<glyph glyph-name="nxp-airbag" unicode="&#xe885;" d="M653 344l-154-14-1 0c0 0 0 1 0 1l-1 0-43 99c-9 26-28 47-53 59l-11 6 10 8c12 9 22 21 30 34 7 13 12 28 14 43 3 21-1 42-9 62-9 19-23 36-40 47-18 12-38 19-60 20-21 1-42-4-60-14-19-10-34-26-45-44-10-18-15-39-15-60 1-22 8-42 19-60 12-17 28-32 48-41l11-5-10-8c-10-9-19-19-26-31-1-2-2-4-3-7l0-1-79 35c-3 1-6 2-10 2-3 0-6-1-9-2-3-1-6-3-8-5-2-2-4-5-5-8-2-3-2-6-2-9 0-3 0-6 1-9 1-3 3-6 5-8 3-3 5-5 8-6l89-39v0c0-11 3-22 7-32l65-155c3-11 9-20 17-28l0-1 0-1-83-98c-4-5-6-11-5-18 0-6 3-12 8-16 5-4 12-6 18-6 6 1 12 4 16 9l89 105h0c9-2 18-2 27-1l162 19v-1l-15-123c-1-12 0-24 3-36 3-12 9-22 16-32 6-7 13-13 20-17 8-4 17-6 26-7h0c28-4 51 0 69 14 23 17 31 45 33 58l27 228c2 13 1 26-3 38-4 11-11 22-20 31-9 9-19 16-31 20-12 5-25 6-37 5v0z m-378 207c-9 12-14 28-14 43 0 16 5 31 15 43 10 13 24 21 39 24 15 4 31 2 45-5 15-7 26-18 33-32 6-14 8-31 5-46-4-15-12-29-25-39-12-9-27-15-43-15-3 0-5 0-8 1-9 1-18 4-26 8-8 5-15 11-21 18v0z m21-129c0 1 0 1 1 2 4 8 9 14 16 20 7 5 14 9 23 11 47 13 71-27 76-41l23-55-140 61 1 2z m67-214l-1 1c-2 3-3 6-4 9l-63 149 147-64-79-95z m336 48l-27-228c-1-4-2-8-3-11-3-7-8-13-14-17-7-4-14-7-22-7-1 0-3 0-4 1-10 1-20 6-26 14-6 8-9 19-8 29l22 180-203-23 76 90h0l167 15c6 1 12 0 17-2 5-2 10-5 14-9 4-4 7-9 9-15 2-5 3-11 2-17v0z m-24 460c-21 2-43 0-64-5-20-6-40-16-57-29-17-14-31-30-41-49-11-19-18-39-20-61-3-21-1-43 5-64 6-20 15-40 29-57 13-17 29-31 48-41 19-11 40-18 61-20 7-1 13-1 20-1 42 0 82 16 112 44 31 29 49 68 52 110 2 42-11 83-38 115-27 32-65 53-107 58z m95-177c-3-28-17-54-38-73-21-18-48-29-76-29-5 0-9 1-14 1-29 3-56 18-75 41-19 22-28 51-27 81 2 29 15 57 37 77 21 20 49 31 79 31 4 0 9 0 14-1 30-3 58-19 77-43 19-24 27-55 24-85h-1z" horiz-adv-x="1000" />

<glyph glyph-name="nxp-alert" unicode="&#xe886;" d="M771 119h-56l-57 354c-1 6-4 11-8 15-5 4-10 6-16 6h-268c-6 0-11-2-16-6-4-4-7-9-8-15l-57-354h-56c-3 0-6-2-8-4-3-2-4-6-4-9v-23c0-4 1-7 4-9 2-2 5-4 8-4h542c3 0 6 2 9 4 2 2 3 5 3 9v23c0 2 0 3-1 5 0 1-1 3-2 4-2 1-3 2-5 3-1 0-3 1-4 1z m-437 0l53 327h226l53-327h-332z m166 475c6 0 13 2 17 7 5 5 7 11 7 17v72c0 7-2 13-7 17-4 5-11 7-17 7-6 0-12-2-17-7-5-4-7-10-7-17v-72c0-6 2-12 7-17 5-5 11-7 17-7z m386-215h-73c-6 0-12-2-17-7-4-4-7-11-7-17 0-6 3-12 7-17 5-5 11-7 17-7h73c6 0 12 2 17 7 4 5 7 11 7 17 0 6-3 13-7 17-5 5-11 7-17 7z m-145 141c6 1 12 3 17 7l52 50c5 4 8 10 8 16 0 7-2 13-7 18-4 4-10 7-17 7-6 0-12-2-17-6l-53-50c-3-3-6-7-7-12-1-5 0-10 2-14 1-5 4-9 8-11 4-3 9-5 14-5z m-554-141h-73c-6 0-12-2-17-7-4-4-7-10-7-17 0-6 3-12 7-17 5-4 11-7 17-7h73c6 0 12 3 17 7 4 5 7 11 7 17 0 7-3 13-7 17-5 5-11 7-17 7z m56 148c2-2 5-4 8-5 2-1 6-2 9-1 3 0 6 0 9 2 3 1 6 3 8 5 2 2 4 5 5 8 1 3 1 6 1 9 0 4-1 7-2 10-1 3-3 5-5 7l-53 50c-2 2-5 4-8 5-3 1-6 2-9 2-4 0-7-1-10-2-3-1-5-3-8-6-2-2-4-5-5-8-1-3-1-6-1-9 0-4 1-7 2-10 2-3 4-5 6-7l53-50z" horiz-adv-x="1000" />

<glyph glyph-name="nxp-amazon" unicode="&#xe887;" d="M539 489c-73-3-252-23-252-175 0-163 205-169 273-64 20-25 43-48 67-70l85 84c0 0-48 37-48 78v219c0 38-37 122-168 122-130 0-200-81-200-155l109-10c25 74 81 74 81 74 61 0 53-45 53-103z m0-129c0-119-125-101-125-26 0 70 75 85 125 86v-60z m202-243c-34-33-75-59-120-76-44-17-92-25-139-24-156 0-275 106-311 150-10 12 1 17 8 12 109-66 279-175 554-45 11 6 20-3 8-17z m59-4c-6-17-17-33-31-46-8-7-14-4-10 6 5 9 29 69 19 82-10 12-55 6-71 4-17-1-20-3-21 1-4 8 32 23 56 26 23 3 61 1 68-9 3-22 0-44-10-64l0 0z" horiz-adv-x="1000" />

<glyph glyph-name="nxp-analog-signal" unicode="&#xe888;" d="M942 349h-112c0 49-5 136-49 184-9 10-21 19-34 25-14 6-28 9-42 8-15 0-29-2-43-8-13-6-25-15-35-25-45-48-51-136-50-184h-154c1 49-5 136-48 184-10 10-22 19-35 25-13 6-27 8-42 8-14 0-29-2-42-8-14-6-26-15-35-25-45-48-51-136-51-184h-112c-3 0-7-1-9-4-3-2-4-5-4-9v-22c0-3 1-7 4-9 2-3 6-4 9-4h316c1-109 32-159 50-179 10-11 22-19 35-25 14-6 28-9 43-9 14 0 28 3 42 9 13 6 25 14 34 25 15 16 49 66 49 179h315c4 0 7 1 9 4 3 2 4 6 4 9v22c0 4-1 7-4 10-2 2-5 3-9 3z m-723 0c0 34 4 114 38 150 5 6 11 11 18 14 7 3 15 4 23 4 8 0 15-1 22-4 7-3 13-8 18-13 34-37 36-117 36-151h-155z m323-194c-5-6-11-10-18-13-7-3-15-5-23-4-7-1-15 1-22 4-7 3-14 8-19 13-32 35-37 112-37 146h154c0-35-3-111-35-146z m84 194c0 34 3 114 37 150 5 6 12 11 19 14 7 3 15 4 22 4 8 0 16-1 23-4 7-3 13-8 18-13 9-10 37-49 35-151h-154z" horiz-adv-x="1000" />

<glyph glyph-name="nxp-analog" unicode="&#xe889;" d="M768 595h-14v84c0 1 0 2-1 2 0 1 0 2-1 2 0 1-1 1-1 1-1 1-2 1-3 1h-22c-1 0-2 0-2-1-1 0-1 0-2-1 0 0-1-1-1-2 0 0-1-1-1-2v-61h-29c-2 0-3 0-4-1-1-1-2-3-2-4v-18h-55v18c0 1-1 3-2 4-1 1-2 1-3 1h-29v61c0 1 0 2 0 2-1 1-1 2-2 2 0 1-1 1-1 1-1 1-2 1-2 1h-23c-1 0-1 0-2-1-1 0-1 0-2-1 0 0-1-1-1-2 0 0 0-1 0-2v-61h-30c-2 0-3 0-4-1-1-1-1-3-1-4v-18h-56v18c0 1 0 3-1 4-1 1-2 1-4 1h-30v61c0 1 0 2 0 2 0 1-1 2-1 2-1 1-1 1-2 1-1 1-1 1-2 1h-23c0 0-1 0-2-1 0 0-1 0-2-1 0 0 0-1-1-2 0 0 0-1 0-2v-61h-29c-1 0-3 0-4-1-1-1-1-3-1-4v-18h-55v18c0 1-1 3-2 4-1 1-2 1-4 1h-29v61c0 1-1 2-1 2 0 1 0 2-1 2 0 1-1 1-2 1 0 1-1 1-2 1h-22c-1 0-2 0-2-1-1 0-2 0-2-1-1 0-1-1-1-2-1 0-1-1-1-2v-84h-14c-9 0-18-4-24-10-6-7-10-15-10-25v-412c0-10 4-18 10-25 6-6 15-10 24-10h14v-84c0-2 1-3 2-4 1-1 2-2 4-2h22c2 0 3 1 4 2 1 1 2 2 2 4v61h29c2 0 3 0 4 1 1 1 2 2 2 4v18h55v-18c0-2 1-3 2-4 1-1 2-2 3-2h29v-61c0-1 1-3 2-4 1-1 2-1 3-1h23c2 0 3 0 4 1 1 1 1 3 1 4v62h30c2 0 3 0 4 1 1 1 1 2 1 4v18h56v-18c0-2 0-3 1-4 1-1 3-2 4-2h30v-61c0 0 0-1 0-2 1 0 1-1 1-2 1 0 2 0 2-1 1 0 2 0 2 0h23c1 0 3 0 4 1 1 1 1 3 1 4v62h29c1 0 3 0 4 1 1 1 1 3 1 4v18h55v-18c0-2 1-3 2-4 1-1 2-2 4-2h30v-61c0-1 0-3 1-4 1-1 3-1 4-1h23c1 0 3 0 4 1 1 1 1 3 1 4v85h14c9 0 18 4 24 10 7 6 10 15 10 24v413c0 5-1 9-2 14-2 4-5 8-8 11-3 3-7 6-11 7-4 2-9 3-13 3z m-14-434h-508v386h508l0-386z" horiz-adv-x="1000" />

<glyph glyph-name="nxp-app" unicode="&#xe88a;" d="M807 572h-214l-60 60c-4 4-9 7-14 9-5 2-10 4-16 4h-165c-16 0-32-7-43-18-11-11-17-27-17-42v-85h-84c-16 0-32-6-43-17-11-11-18-27-18-43v-324c0-16 7-32 18-43 11-11 27-18 43-18h468c16 1 32 7 43 18 11 11 17 27 17 43v84h85c16 0 31 6 42 17 11 12 18 27 18 43v252c0 16-7 32-18 43-11 11-26 17-42 17z m12-60v-252c0-3-2-6-4-9-2-2-5-3-8-3h-469c-3 0-6 1-9 3-2 3-3 6-3 9v325c0 1 0 3 1 4 0 2 1 3 2 4 1 1 3 2 4 3 2 0 3 1 5 1h163l59-60c4-4 9-7 14-9 5-3 11-4 16-4h217c1 0 3 0 4-1 2 0 3-1 4-2 1-1 2-3 3-4 0-2 1-3 1-5z m-637-72c0 3 1 6 3 9 2 2 5 3 9 3h84v-192c0-16 6-31 17-43 12-11 27-17 43-17h336v-84c0-4-1-7-3-9-2-2-5-3-9-3h-468c-4 0-7 1-9 3-2 2-3 5-3 9v324z" horiz-adv-x="1000" />

<glyph glyph-name="nxp-apple" unicode="&#xe88b;" d="M691 331c-1 26 6 51 19 74 13 22 32 40 55 52-14 20-33 37-55 48-22 12-46 18-71 19-53 4-110-31-132-31-22 0-73 29-113 29-83-1-172-66-172-198 1-41 8-82 22-121 19-54 88-188 159-186 38 1 64 26 113 26 47 0 72-26 114-26 72 1 134 123 153 177-28 11-51 30-67 55-17 24-25 53-25 82l0 0z m-84 244c13 15 23 32 29 51 6 18 8 38 6 57-39-4-75-22-101-52-13-14-23-31-30-49-7-19-9-38-8-58 20 0 40 4 58 13 18 9 34 22 46 38z" horiz-adv-x="1000" />

<glyph glyph-name="nxp-appliance-connected" unicode="&#xe88c;" d="M500 406c-33 0-65-10-93-28-27-19-49-45-62-75-12-31-16-65-9-97 6-33 22-62 46-86 23-23 53-39 85-46 33-6 67-3 97 10 31 13 57 34 75 62 19 27 28 59 28 93 0 44-17 87-49 118-31 31-74 49-118 49z m0-290c-24 0-48 7-68 20-21 14-36 33-46 56-9 22-11 47-7 71 5 24 17 45 34 63 17 17 39 29 63 33 24 5 49 3 71-7 23-9 42-25 55-45 14-20 21-44 21-68 0-33-13-64-36-87-23-23-54-36-87-36z m-79 318c4 0 9 1 13 4 4 3 7 6 9 11 2 4 2 9 1 14-1 4-3 8-6 12-4 3-8 5-12 6-5 1-10 1-14-1-5-2-8-5-11-9-3-4-4-8-4-13 0-6 2-12 7-17 4-4 10-7 17-7z m-48 24c0 5-1 9-4 13-3 4-7 7-11 9-4 2-9 3-14 2-5-1-9-4-12-7-4-3-6-8-7-12-1-5 0-10 2-14 1-5 4-8 8-11 4-3 9-4 14-4 6 0 12 2 17 7 4 4 7 11 7 17z m127-133c-17 0-34-5-48-14-14-10-26-23-32-39-7-16-8-34-5-50 3-17 12-33 24-45 12-12 27-20 44-23 17-4 34-2 50 4 16 7 30 18 39 32 10 15 15 31 15 49 0 23-9 45-26 61-16 16-38 25-61 25z m46-99c-2-10-8-19-17-25-8-7-18-10-29-10-9 0-18 3-26 8-8 5-14 12-17 20h23c3 0 7 1 9 4 2 2 4 5 4 9v13c0 4-2 7-4 9-2 3-6 4-9 4h-23c5 11 13 20 24 24 11 5 24 5 35 1 11-3 21-12 26-22 6-11 7-23 4-35h0z m133 334h-358c-21 0-41-8-55-22-15-15-23-35-23-55v-467c0-11 4-21 12-29 8-8 19-13 30-13h430c11 0 22 5 30 13 8 8 12 18 12 29v467c0 20-8 40-23 55-14 14-34 22-55 22z m30-538h-418v461c0 8 3 15 9 21 5 5 13 9 21 9h358c8 0 16-4 21-9 6-6 9-13 9-21v-461z m-376 691c3-3 7-5 12-5 5 0 9 2 12 5 39 35 90 55 143 55 53 0 104-20 143-55 3-3 7-5 11-5 4 0 8 1 11 3 1 1 2 1 2 2l11 10 0 1c3 3 5 8 5 12 0 5-2 9-6 13-48 44-111 69-177 69-66 0-129-25-177-69l-1-1c-2-2-3-4-4-6-1-2-1-4-1-6 0-3 1-5 1-7 1-2 3-4 4-6l11-10z m52-40l-1-1c-1-2-3-3-3-6-1-2-2-4-2-6 0-3 1-5 2-7 1-2 2-4 4-6l10-10c0 0 1-1 1-1 4-2 8-4 12-4 4 0 8 2 11 5 23 19 51 30 81 30 30 0 59-10 81-30 3-3 7-4 11-4 4-1 8 0 12 3 0 0 1 1 1 1l11 11c0 0 0 0 0 0 4 4 5 8 5 13 0 5-2 9-6 12-31 28-72 44-115 44-42 0-83-16-115-44z" horiz-adv-x="1000" />

<glyph glyph-name="nxp-audio" unicode="&#xe88d;" d="M806 600c-1 1-2 2-4 3-1 0-3 1-5 1-1 0-3 0-5-1-1-1-3-2-4-3l-15-15c-3-3-4-6-4-9 0-4 1-7 4-9 54-60 84-137 84-217 0-80-30-157-84-216-3-3-4-6-4-9 0-4 1-7 4-10l15-15c2-2 5-4 9-4 3 0 6 2 9 4l0 1c63 68 98 157 98 249 0 93-35 182-98 250l0 0z m-379 2c-4 0-9-1-13-3-4-2-8-4-11-7l-114-114h-130c-9 0-18-4-25-10-6-7-10-16-10-25v-186c0-9 4-18 10-24 7-7 16-11 25-11h130l114-114c3-3 7-5 11-7 4-2 9-3 13-3 5 0 9 1 14 3 4 2 8 4 11 7 3 3 6 7 8 12 1 4 2 8 2 13v434c0 5-1 9-2 14-2 4-5 8-8 11-3 3-7 6-11 7-5 2-9 3-14 3z m-13-436l-105 105h-137v158h137l105 105v-368z m264 344c0 0 0 0 0 0l-15-16c-2-2-4-5-4-9 0-3 1-6 4-9 30-35 47-80 47-126 0-46-17-91-47-126-3-3-4-6-4-9 0-4 2-7 4-9l15-15c1-2 2-3 4-3 1-1 3-1 5-1h0c3 0 7 1 9 3l1 1c39 44 60 100 60 159 0 59-21 115-60 159-3 3-6 4-9 4-4 1-7-1-10-3z m-97-94l-15-15c-8-6-4-13-1-16 1-2 3-5 4-7 4-9 7-19 7-29 0-11-3-22-9-31-6-10-6-14 1-20 0 0 7-5 15-12 8-6 18 0 22 7 10 17 16 36 16 56 0 22-7 44-20 63-4 5-10 13-20 4z" horiz-adv-x="1000" />

<glyph glyph-name="nxp-authentication" unicode="&#xe88e;" d="M789 587l-263 110c-8 3-17 5-26 5-9 0-18-2-26-5l-262-109c-13-6-23-14-31-25-7-11-11-25-11-38 0-125 33-242 97-340 55-84 128-149 207-182 17-7 35-7 52 0 113 47 304 210 304 522 0 13-4 26-11 38-7 11-18 19-30 24z m-7-71c-1-89-26-187-69-269-50-96-119-164-200-198l-13-5-13 5c-80 34-150 102-200 198-43 82-68 180-69 269l-1 22 283 118 283-118-1-22z m-359-45c0 0-4-9-5-29v-29h-5c-7 0-14-3-18-8-5-5-8-11-8-18v-95c0-7 3-14 8-19 4-5 11-7 18-7h174c7 0 14 2 19 7 5 5 7 12 7 19v95c0 7-2 13-7 18-5 5-12 8-19 8h-5c0 0 0 18 0 28-1 10-3 20-6 30-5 15-16 29-30 38-13 10-29 15-46 15-17 0-33-5-47-15-13-9-24-23-30-38z m90-141v-11c0-4-2-7-4-9-2-2-6-3-9-3-3 0-6 1-8 3-3 2-4 5-4 9v11c-4 3-8 7-9 11-2 5-2 10-1 15 2 5 4 9 8 12 4 3 9 4 14 4 5 0 10-1 14-4 4-3 7-7 8-12 2-5 2-10 0-15-2-4-5-8-9-11z m-13 173c16 0 32-7 43-18 11-11 18-27 18-43v-29h-122v29c0 16 7 32 18 43 12 11 27 18 43 18z" horiz-adv-x="1000" />

<glyph glyph-name="nxp-auto-edge" unicode="&#xe88f;" d="M660 533c-8 0-16-2-24-6-8-3-15-8-20-15-10-10-16-24-17-39-1-15 3-30 12-42 8-12 21-20 35-24 15-4 30-3 43 3 14 7 25 17 31 31 7 13 8 28 5 42-3 15-12 28-23 37-12 9-27 13-42 13z m19-80c-2-2-4-4-7-5-3-1-6-2-9-2-3-1-6 0-9 1-2 1-5 3-7 5-2 2-4 4-5 7-2 3-2 6-2 9 0 3 0 6 1 9 1 3 3 5 5 7 2 2 5 4 7 5 3 2 6 2 9 3 3 0 6-1 9-2 3-1 5-3 7-5 2-1 3-2 4-4 2-4 4-9 3-14 0-5-2-10-6-14z m-29 263l0-15c0-1 1-2 1-3 1-4 3-7 6-10 3-2 7-4 11-4 53 0 104-21 142-57 39-36 63-85 67-138 0-4 2-8 6-11 3-4 7-5 12-5l14 0c3 0 5 1 7 2 2 1 4 2 6 4 1 1 3 3 4 5 0 3 1 5 1 7 0 0 0 1 0 1-5 66-35 127-83 172-48 44-111 69-177 70-2 0-4-1-6-2-3 0-5-2-6-3-2-2-3-4-4-6-1-2-1-5-1-7 0 0 0 0 0 0z m130-240c0-4 2-8 5-11 3-3 7-5 11-5 1 0 2 0 2 0l14 0c3 0 5 1 7 2 2 1 4 2 6 4 1 1 3 3 3 6 1 2 2 4 2 6 0 1 0 1 0 1-4 43-23 82-54 111-31 29-72 46-115 47-4 0-9-2-12-5-3-4-5-8-5-13 0 0 0 0 0-1l0-14c0-1 1-2 1-3 0-4 3-7 6-10 3-2 7-4 11-4 30-1 58-13 80-33 21-21 35-48 38-78z m-561-28h294c4 0 9 2 12 5 3 4 5 8 5 13v11c0 5-2 10-5 13-3 3-8 5-12 5h-271v229c0 5-2 10-5 13-3 3-8 5-13 5h-11c-5 0-9-2-13-5-3-3-5-8-5-13v-252c0-7 3-12 7-17 4-4 10-7 17-7z m247 249h-11c-10 0-18-7-18-17v-150c0-9 8-17 18-17h11c10 0 18 8 18 17v150c0 10-8 17-18 17z m-162-29h-11c-10 0-18-8-18-17v-121c0-9 8-17 18-17h11c10 0 18 8 18 17v121c0 9-8 17-18 17z m81-43h-11c-10 0-18-8-18-18v-77c0-9 8-17 18-17h11c10 0 18 8 18 17v77c0 10-8 18-18 18z m496-398c-17 17-40 31-68 43-28 11-57 19-86 24-28 22-133 94-298 95-79 0-143-4-180-10l-3 0c-28-5-42-7-74-49l-7-11c-18-23-31-41-40-58l-1-3 0-1c-1-4-2-8-3-12 0-4-1-9-1-14-1-3-1-5-1-7-3-3-5-6-8-9-10-15-16-32-16-51 0-17 4-59 39-81 5-3 11-6 17-9 6-14 16-27 29-36 13-10 29-15 45-15 16-1 31 4 45 12 13 9 24 21 30 36h378c7-14 17-26 30-35 12-8 27-13 43-13 15 0 30 4 43 12 13 8 24 19 31 33 14 0 41 0 55 6 11 4 20 12 25 22 4 6 6 13 7 20 2 10 3 20 3 31 0 14-3 29-9 43-6 14-15 26-25 37z m-226 58c-42-7-107-10-189-8l-4 64c68-5 134-24 193-56z m-241 57l3-64c-49 2-90 5-110 7l-5 53c32 2 69 3 112 4z m-163-262c-6-6-13-9-21-10-8-1-16 1-22 6-7 4-11 10-14 18-2 7-2 16 1 23 3 7 9 13 16 17 7 3 15 5 22 3 8-2 15-6 20-12 5-6 7-13 7-21 0-5 0-9-2-13-2-4-4-8-7-11z m525 0c-5-6-13-9-20-10-8 0-16 2-23 6-6 4-11 11-13 18-2 8-2 16 1 23 3 7 9 13 16 17 7 4 15 5 22 3 8-1 15-6 20-12 5-6 7-13 7-21 0-5-1-9-2-13-2-4-5-8-8-11z m90 43c0-1-1-3-2-4-1-1-1-1-2-1-5-2-16-3-30-3-2 19-12 37-26 49-15 13-33 20-52 21-19 0-38-7-53-19-15-12-25-29-28-48h-367c-3 17-12 33-25 45-13 12-30 20-47 21-18 2-36-3-51-12-15-10-26-24-32-41-3 5-5 10-7 15-1 6-2 12-2 19 0 11 4 20 11 26 0 1 0 1 1 1l0 1 8 7c2 3 3 7 3 10v1c0 1 1 5 1 9 0 5 1 12 2 18 0 2 0 3 1 4 10 18 21 35 34 51 8 9 15 19 21 25 8 9 19 14 30 15l7-73c0-5 3-11 7-15 4-3 9-6 15-6 4-1 116-10 227-10 97 0 164 7 200 20 2 0 3 0 5-1l1 0 2 0c3 0 6-1 11-2 12-2 25-5 37-9 20-6 58-20 81-43 14-14 21-29 21-47 0-8-1-16-2-24z" horiz-adv-x="1000" />

</font>
</defs>
</svg>
