<svg width="36" height="36" viewBox="0 0 36 36" fill="none" xmlns="http://www.w3.org/2000/svg">
<path d="M30.75 28.5H30V7.5H30.75C31.125 7.5 31.5 7.17188 31.5 6.75C31.5 6.375 31.125 6 30.75 6H5.25C4.82812 6 4.5 6.375 4.5 6.75C4.5 7.17188 4.82812 7.5 5.25 7.5H6V28.5H5.25C4.82812 28.5 4.5 28.875 4.5 29.25C4.5 29.6719 4.82812 30 5.25 30H12.75C13.125 30 13.5 29.6719 13.5 29.25V21.1875C13.5 18.7031 15.4219 16.5469 17.9062 16.5469C20.4375 16.4531 22.5 18.5156 22.5 21V29.25C22.5 29.6719 22.8281 30 23.25 30H30.75C31.125 30 31.5 29.6719 31.5 29.25C31.5 28.875 31.125 28.5 30.75 28.5ZM28.5 28.5H24V21C24 17.7188 21.2812 15 18 15C14.6719 15 12 17.7188 12 21V28.5H7.5V12H28.5V28.5ZM28.5 10.5H7.5V7.5H28.5V10.5Z" fill="black"/>
</svg>
