<svg width="36" height="36" viewBox="0 0 36 36" fill="none" xmlns="http://www.w3.org/2000/svg">
<path d="M18.4529 7.5293C19.1091 7.5293 19.6247 8.04492 19.6247 8.6543L19.6247 24.5918L25.531 18.3574C25.9529 17.8887 26.7029 17.8887 27.1247 18.3105C27.5935 18.7324 27.5935 19.4355 27.1716 19.9043L19.2966 28.1543C19.0622 28.3887 18.781 28.4824 18.4529 28.4824C18.1716 28.4824 17.8904 28.3887 17.656 28.1543L9.78099 19.9043C9.35912 19.4355 9.35912 18.7324 9.82787 18.3105C10.2497 17.8887 10.9997 17.8887 11.4216 18.3574L17.3279 24.5918L17.3279 8.6543C17.3279 7.99805 17.8435 7.5293 18.4529 7.5293Z" fill="black"/>
</svg>
