<svg width="36" height="36" viewBox="0 0 36 36" fill="none" xmlns="http://www.w3.org/2000/svg">
<path d="M18.5 28.4827C17.8438 28.4827 17.3281 27.967 17.3281 27.3577L17.3281 11.4202L11.4219 17.6545C11 18.1233 10.25 18.1233 9.82814 17.7014C9.35939 17.2795 9.35939 16.5764 9.78126 16.1077L17.6563 7.85767C17.8906 7.62329 18.1719 7.52954 18.5 7.52954C18.7813 7.52954 19.0625 7.62329 19.2969 7.85767L27.1719 16.1077C27.5938 16.5764 27.5938 17.2795 27.125 17.7014C26.7031 18.1233 25.9531 18.1233 25.5313 17.6545L19.625 11.4202L19.625 27.3577C19.625 28.0139 19.1094 28.4827 18.5 28.4827Z" fill="black"/>
</svg>
