<svg width="36" height="36" viewBox="0 0 36 36" fill="none" xmlns="http://www.w3.org/2000/svg">
<path d="M8.9375 10.25H20.5156C21.0312 10.25 21.5 9.82812 21.5 9.3125V8.98438C21.5 8.46875 21.0312 8 20.5156 8H8.9375C8.42188 8 8 8.46875 8 8.98438V9.3125C8 9.82812 8.42188 10.25 8.9375 10.25ZM8.9375 22.25H20.5156C21.0312 22.25 21.5 21.8281 21.5 21.3125V20.9844C21.5 20.4688 21.0312 20 20.5156 20H8.9375C8.42188 20 8 20.4688 8 20.9844V21.3125C8 21.8281 8.42188 22.25 8.9375 22.25ZM27.875 14H9.07812C8.46875 14 8 14.5156 8 15.125C8 15.7812 8.46875 16.25 9.07812 16.25H27.875C28.4844 16.25 29 15.7812 29 15.1719C29 14.6094 28.4844 14 27.875 14ZM27.875 26H9.07812C8.46875 26 8 26.5156 8 27.125C8 27.7812 8.46875 28.25 9.07812 28.25H27.875C28.4844 28.25 29 27.7812 29 27.1719C29 26.6094 28.4844 26 27.875 26Z" fill="black"/>
</svg>
