<svg width="36" height="36" viewBox="0 0 36 36" fill="none" xmlns="http://www.w3.org/2000/svg">
<path d="M28.9531 17.9827C28.9531 18.6389 28.4375 19.1545 27.8281 19.1545H11.8906L18.125 25.0608C18.5938 25.4827 18.5938 26.2327 18.1719 26.6545C17.75 27.1233 17.0469 27.1233 16.5781 26.7014L8.32812 18.8264C8.09375 18.592 8 18.3108 8 17.9827C8 17.7014 8.09375 17.4202 8.32812 17.1858L16.5781 9.31078C17.0469 8.8889 17.75 8.8889 18.1719 9.35765C18.5938 9.77953 18.5938 10.5295 18.125 10.9514L11.8906 16.8577H27.8281C28.4844 16.8577 28.9531 17.3733 28.9531 17.9827Z" fill="black"/>
</svg>
