<svg width="36" height="36" viewBox="0 0 36 36" fill="none" xmlns="http://www.w3.org/2000/svg">
<path d="M19.2502 14.3438C19.719 13.9219 19.719 13.2188 19.2971 12.75L14.7971 7.875C14.3752 7.40625 13.5784 7.40625 13.1565 7.875L8.65648 12.75C8.23461 13.2188 8.23461 13.9219 8.70336 14.3438C8.93773 14.5312 9.21898 14.625 9.50023 14.625C9.78148 14.625 10.0627 14.5312 10.2971 14.2969L12.8752 11.5312V27.375C12.8752 28.0312 13.344 28.5 14.0002 28.5C14.6096 28.5 15.1252 28.0312 15.1252 27.375V11.5312L17.6565 14.2969C18.0784 14.7188 18.7815 14.7656 19.2502 14.3438ZM28.2502 21.7031C27.7815 21.2812 27.0784 21.3281 26.6565 21.75L24.1252 24.5156V8.67188C24.1252 8.01562 23.6096 7.5 23.0002 7.5C22.344 7.5 21.8752 8.01562 21.8752 8.67188V24.5156L19.2971 21.75C19.0627 21.5156 18.7815 21.4219 18.5002 21.4219C18.219 21.4219 17.9377 21.5156 17.7034 21.7031C17.2346 22.125 17.2346 22.8281 17.6565 23.2969L22.1096 28.1719C22.5315 28.6406 23.3284 28.6406 23.7502 28.1719L28.2034 23.2969C28.719 22.8281 28.719 22.125 28.2502 21.7031Z" fill="black"/>
</svg>
