<svg width="36" height="36" viewBox="0 0 36 36" fill="none" xmlns="http://www.w3.org/2000/svg">
<path d="M7.99976 18.0293C7.99976 17.3731 8.51538 16.8574 9.12476 16.8574L25.0623 16.8574L18.8279 10.9512C18.3591 10.5293 18.3591 9.77931 18.781 9.35743C19.2029 8.88868 19.906 8.88868 20.3748 9.31056L28.6248 17.1856C28.8591 17.4199 28.9529 17.7012 28.9529 18.0293C28.9529 18.3106 28.8591 18.5918 28.6248 18.8262L20.3748 26.7012C19.906 27.1231 19.2029 27.1231 18.781 26.6543C18.3591 26.2324 18.3591 25.4824 18.8279 25.0606L25.0623 19.1543L9.12476 19.1543C8.46851 19.1543 7.99976 18.6387 7.99976 18.0293Z" fill="black"/>
</svg>
