<svg width="36" height="36" viewBox="0 0 36 36" fill="none" xmlns="http://www.w3.org/2000/svg">
<path d="M26.7031 10.125V25.875C26.7031 26.5312 27.1719 27 27.8281 27C28.4844 27 29 26.5312 29 25.875V10.125C29 9.51562 28.4844 9 27.8281 9C27.2188 9 26.7031 9.51562 26.7031 10.125ZM16.2031 12.8438L20.5156 16.9219H9.125C8.46875 16.875 8 17.3906 8 18C8 18.6562 8.46875 19.125 9.125 19.125H20.5156L16.2031 23.2031C15.9688 23.4375 15.875 23.7188 15.875 24C15.875 24.2812 15.9688 24.5625 16.1562 24.7969C16.5781 25.2656 17.2812 25.2656 17.75 24.8438L24.125 18.8438C24.5938 18.4219 24.5938 17.625 24.125 17.2031L17.75 11.2031C17.2812 10.7812 16.5781 10.7812 16.1562 11.25C15.7344 11.7188 15.7344 12.4219 16.2031 12.8438Z" fill="black"/>
</svg>
