<svg width="36" height="36" viewBox="0 0 36 36" fill="none" xmlns="http://www.w3.org/2000/svg">
<path d="M21.3806 10.5H24.99C27.0525 10.5 28.74 12.1875 28.74 14.25V21.75C28.74 23.8594 27.0525 25.5 24.99 25.5H16.1775L17.865 24H24.99C26.2088 24 27.24 23.0156 27.24 21.75V14.25C27.24 13.0312 26.2088 12 24.99 12H21.99C21.99 11.4844 21.8025 10.9688 21.3806 10.5469V10.5ZM18.0056 10.5L16.3181 12H8.49001C7.22438 12 6.24001 13.0312 6.24001 14.25V21.75C6.24001 23.0156 7.22438 24 8.49001 24H12.1931C12.1931 24.5625 12.3806 25.0781 12.8025 25.5H8.49001C6.38063 25.5 4.74001 23.8594 4.74001 21.75V14.25C4.74001 12.1875 6.38063 10.5 8.49001 10.5H18.0056ZM30.99 15C31.365 15 31.74 15.375 31.74 15.75V20.25C31.74 20.6719 31.365 21 30.99 21C30.5681 21 30.24 20.6719 30.24 20.25V15.75C30.24 15.375 30.5681 15 30.99 15ZM14.9588 17.25H21.24C21.5213 17.25 21.8025 17.4844 21.8963 17.7656C22.0369 18.0469 21.9431 18.375 21.7088 18.5625L14.9588 24.5625C14.6775 24.8438 14.1619 24.8438 13.9275 24.5156C13.6463 24.1875 13.6463 23.7188 13.9744 23.4375L19.2244 18.75H12.99C12.6619 18.75 12.3806 18.5625 12.2869 18.2812C12.1463 18 12.24 17.6719 12.4744 17.4375L19.2244 11.4375C19.5056 11.2031 20.0213 11.2031 20.2556 11.5312C20.5369 11.8125 20.5369 12.3281 20.2088 12.5625L14.9588 17.25Z" fill="#20272D"/>
</svg>
