<svg width="36" height="36" viewBox="0 0 36 36" fill="none" xmlns="http://www.w3.org/2000/svg">
<path d="M23.2031 17.3438C23.2969 17.25 23.4375 17.2031 23.5312 17.1094C24.5625 16.0312 25.1719 14.625 25.125 13.0781C25.125 10.0312 22.5938 7.5 19.5 7.5H10.125C9.46875 7.5 9 8.01562 9 8.625C9 9.28125 9.46875 9.75 10.125 9.75H11.25V26.25H10.125C9.46875 26.25 9 26.7656 9 27.375C9 28.0312 9.46875 28.5 10.125 28.5H20.25C23.5312 28.5 26.25 25.8281 26.25 22.5C26.25 20.2969 24.9844 18.375 23.2031 17.3438ZM19.5 9.75C21.375 9.75 22.875 11.25 22.875 13.125C22.9219 14.0156 22.5469 14.8594 21.9375 15.5156C21.2812 16.1719 20.4375 16.5 19.5 16.5H13.5V9.75H19.5ZM20.25 26.25H13.5V18.75H20.25C22.3125 18.75 24 20.4375 24 22.5469C24 24.6094 22.3125 26.25 20.25 26.25Z" fill="#20272D"/>
</svg>
