<svg width="36" height="36" viewBox="0 0 36 36" fill="none" xmlns="http://www.w3.org/2000/svg">
<path d="M25.5 10.5H7.5C5.8125 10.5 4.5 11.8594 4.5 13.5V22.5C4.5 24.1875 5.8125 25.5 7.5 25.5H25.5C27.1406 25.5 28.5 24.1875 28.5 22.5V13.5C28.5 11.8594 27.1406 10.5 25.5 10.5ZM27 22.5C27 23.3438 26.2969 24 25.5 24H7.5C6.65625 24 6 23.3438 6 22.5V13.5C6 12.7031 6.65625 12 7.5 12H25.5C26.2969 12 27 12.7031 27 13.5V22.5ZM24 13.5H9C8.15625 13.5 7.5 14.2031 7.5 15V21C7.5 21.8438 8.15625 22.5 9 22.5H24C24.7969 22.5 25.5 21.8438 25.5 21V15C25.5 14.2031 24.7969 13.5 24 13.5ZM24 21H9V15H24V21ZM30.75 15C30.3281 15 30 15.375 30 15.75V20.25C30 20.6719 30.3281 21 30.75 21C31.125 21 31.5 20.6719 31.5 20.25V15.75C31.5 15.375 31.125 15 30.75 15Z" fill="black"/>
</svg>
