<svg width="36" height="36" viewBox="0 0 36 36" fill="none" xmlns="http://www.w3.org/2000/svg">
<path d="M27.7969 21.7031C26.4844 20.4844 25.5 19.1719 25.5 14.7188C25.5 11.0156 22.5 7.96875 18.75 7.59375V6.75C18.75 6.375 18.375 6 18 6C17.5781 6 17.25 6.375 17.25 6.75V7.59375C13.4531 7.96875 10.4531 11.0156 10.4531 14.7188C10.4531 19.1719 9.42188 20.4844 8.10938 21.7031C7.45313 22.3594 7.26563 23.2969 7.59376 24.1406C7.96876 24.9844 8.81251 25.5 9.70313 25.5H26.2031C27.1406 25.5 27.9844 24.9844 28.3125 24.1406C28.6406 23.2969 28.4531 22.3594 27.7969 21.7031ZM26.25 24H9.70313C9.04688 24 8.71876 23.25 9.18751 22.8281C10.8281 21.2812 11.9531 19.5469 11.9531 14.7656C11.9531 11.5781 14.6719 9 18 9C21.2813 9 24 11.5781 24 14.7188C24 19.5 25.125 21.2344 26.7656 22.7812C27.2344 23.25 26.9063 24 26.25 24ZM20.25 27C19.875 27 19.5469 27.2344 19.4531 27.5156C19.2188 28.125 18.6563 28.5 17.9531 28.5C17.2031 28.5 16.6875 28.125 16.4531 27.5156C16.4063 27.2344 16.0781 27 15.7031 27C15.2344 27 14.8594 27.4688 15 27.9375C15.4219 29.1562 16.5938 30 17.9531 30C19.3125 30 20.4844 29.1562 20.9063 27.9375C21.0938 27.4688 20.7188 27 20.25 27Z" fill="#20272D"/>
</svg>
