<svg width="36" height="36" viewBox="0 0 36 36" fill="none" xmlns="http://www.w3.org/2000/svg">
<path d="M22.74 9C26.0212 9 28.74 11.7188 28.74 15V27C28.74 28.6875 27.3806 30 25.74 30H10.74C9.0525 30 7.74 28.6875 7.74 27V15C7.74 11.7188 10.4119 9 13.74 9H14.49V8.25C14.49 7.03125 15.4744 6 16.74 6H19.74C20.9587 6 21.99 7.03125 21.99 8.25V9H22.74ZM15.99 8.25V9H20.49V8.25C20.49 7.875 20.115 7.5 19.74 7.5H16.74C16.3181 7.5 15.99 7.875 15.99 8.25ZM23.49 28.5V24H12.99V28.5H23.49ZM23.49 22.5V21C23.49 20.2031 22.7869 19.5 21.99 19.5H14.49C13.6462 19.5 12.99 20.2031 12.99 21V22.5H23.49ZM27.24 27V15C27.24 12.5156 25.2244 10.5 22.74 10.5H13.74C11.2556 10.5 9.24 12.5156 9.24 15V27C9.24 27.8438 9.89625 28.5 10.74 28.5H11.49V21C11.49 19.3594 12.8025 18 14.49 18H21.99C23.6306 18 24.99 19.3594 24.99 21V28.5H25.74C26.5369 28.5 27.24 27.8438 27.24 27ZM21.99 13.5C22.365 13.5 22.74 13.875 22.74 14.25C22.74 14.6719 22.365 15 21.99 15H14.49C14.0681 15 13.74 14.6719 13.74 14.25C13.74 13.875 14.0681 13.5 14.49 13.5H21.99Z" fill="#20272D"/>
</svg>
