<svg width="36" height="36" viewBox="0 0 36 36" fill="none" xmlns="http://www.w3.org/2000/svg">
<path d="M29.8125 8.67188C27.6094 7.875 25.5469 7.5 23.7188 7.54688C21 7.54688 18.9375 8.34375 18 8.8125C17.0156 8.34375 14.9531 7.54688 12.2344 7.54688C10.3594 7.5 8.34375 7.875 6.14062 8.67188C5.15625 9.04688 4.5 9.98438 4.5 11.0625V24.75C4.5 25.5 4.82812 26.25 5.4375 26.7188C6.09375 27.1875 6.9375 27.375 7.73438 27.1406C13.2656 25.6406 17.2031 28.2188 17.3438 28.3125C17.5312 28.4531 17.7656 28.5 17.9531 28.5C18.0938 28.5 18.375 28.4531 18.5625 28.3125C18.75 28.2188 22.6875 25.6406 28.2188 27.1406C28.9688 27.375 29.8125 27.1875 30.4688 26.7188C31.125 26.25 31.5 25.5 31.5 24.75V11.0625C31.5 9.98438 30.7969 9.04688 29.8125 8.67188ZM16.875 25.5469C15.5625 25.0312 13.5938 24.4219 11.1562 24.4219C9.9375 24.4219 8.57812 24.5625 7.125 24.9844C6.98438 25.0312 6.84375 24.9375 6.84375 24.9375C6.75 24.8438 6.75 24.75 6.75 24.75V11.0625C6.75 10.9219 6.79688 10.8281 6.89062 10.7812C8.8125 10.125 10.6406 9.75 12.1875 9.79688C14.3906 9.79688 16.0312 10.4062 16.875 10.7812V25.5469ZM29.25 24.75C29.25 24.75 29.25 24.8438 29.1562 24.9375C29.1094 24.9375 28.9688 25.0312 28.8281 24.9844C24.5625 23.8125 21.0938 24.75 19.0781 25.5469V10.7812C19.9219 10.4062 21.5625 9.79688 23.7656 9.79688C25.3125 9.75 27.1406 10.125 29.0625 10.7812C29.1562 10.8281 29.25 10.9219 29.25 11.0625V24.75Z" fill="black"/>
</svg>
