<svg width="36" height="36" viewBox="0 0 36 36" fill="none" xmlns="http://www.w3.org/2000/svg">
<path d="M22.6931 7.5L16.5525 12.8906L15.3806 11.9531L21.7087 6.375C21.99 6.14062 22.3181 6 22.6931 6C23.0212 6 23.3494 6.14062 23.5837 6.28125C24.1462 6.75 24.3337 7.5 24.0056 8.15625L20.2087 15.75L18.99 14.8125L22.6931 7.5ZM23.0681 18L21.0994 16.5H25.6931C26.3494 16.5 26.9119 16.9219 27.1462 17.4844C27.3337 18.0938 27.1931 18.75 26.7244 19.1719L25.6462 20.0156L24.4744 19.0781L25.6931 18H23.0681ZM13.365 18L15.2869 19.5H10.74C10.0838 19.5 9.52125 19.125 9.33375 18.5625C9.09938 17.9531 9.24 17.2969 9.70875 16.875L10.7869 15.9375L11.9588 16.875L10.74 18H13.365ZM32.9119 28.6875C33.24 28.9219 33.3337 29.3906 33.0056 29.7188C32.865 29.9062 32.6306 30 32.4431 30C32.3025 30 32.1619 29.9531 32.0212 29.8594L3.52125 7.35938C3.19313 7.125 3.09938 6.60938 3.38063 6.32812C3.615 6 4.08375 5.90625 4.41188 6.1875L32.9119 28.6875ZM13.74 28.5L19.8806 23.1562L21.0525 24.0938L14.7244 29.6719C14.4431 29.9062 14.0681 30 13.74 30C13.4119 30 13.0838 29.9062 12.8025 29.7188C12.24 29.25 12.0525 28.5 12.3806 27.8438L16.1775 20.25L17.3963 21.1406L13.74 28.5Z" fill="#20272D"/>
</svg>
