<svg width="36" height="36" viewBox="0 0 36 36" fill="none" xmlns="http://www.w3.org/2000/svg">
<path d="M30.75 21C31.125 21 31.5 20.6719 31.5 20.25V15.75C31.5 15.375 31.125 15 30.75 15C30.3282 15 30 15.375 30 15.75V20.25C30 20.6719 30.3282 21 30.75 21ZM25.5 12C26.2969 12 27 12.7032 27 13.5V21.2813L28.5 22.5V13.5C28.5 11.8594 27.1407 10.5 25.5 10.5H13.3125L15.2344 12H25.5ZM7.50003 24C6.65628 24 6.00003 23.3438 6.00003 22.5V13.5C6.00003 13.1719 6.09378 12.8907 6.28128 12.6094L5.1094 11.6719C4.7344 12.1875 4.50003 12.8438 4.50003 13.5V22.5C4.50003 24.1875 5.81253 25.5 7.45315 25.5H22.6407L20.7188 24H7.50003ZM32.6719 28.6875L4.1719 6.18753C3.84378 5.90628 3.37503 6.00003 3.14065 6.32815C2.8594 6.6094 2.95315 7.12503 3.28128 7.3594L31.7813 29.8594C31.9219 29.9532 32.0625 30 32.25 30C32.4375 30 32.6719 29.9063 32.8125 29.7188C33.0938 29.3907 33 28.9219 32.6719 28.6875Z" fill="black"/>
</svg>
