<svg width="36" height="36" viewBox="0 0 36 36" fill="none" xmlns="http://www.w3.org/2000/svg">
<path d="M14.865 15.75C14.865 15.1406 15.3338 14.625 15.99 14.625C16.5994 14.625 17.115 15.1406 17.115 15.75C17.115 16.4062 16.5994 16.875 15.99 16.875C15.3338 16.875 14.865 16.4062 14.865 15.75ZM21.615 15.75C21.615 16.4062 21.0994 16.875 20.49 16.875C19.8338 16.875 19.365 16.4062 19.365 15.75C19.365 15.1406 19.8338 14.625 20.49 14.625C21.0994 14.625 21.615 15.1406 21.615 15.75ZM14.865 20.25C14.865 19.6406 15.3338 19.125 15.99 19.125C16.5994 19.125 17.115 19.6406 17.115 20.25C17.115 20.9062 16.5994 21.375 15.99 21.375C15.3338 21.375 14.865 20.9062 14.865 20.25ZM21.615 20.25C21.615 20.9062 21.0994 21.375 20.49 21.375C19.8338 21.375 19.365 20.9062 19.365 20.25C19.365 19.6406 19.8338 19.125 20.49 19.125C21.0994 19.125 21.615 19.6406 21.615 20.25ZM29.49 10.5C31.5525 10.5 33.24 12.1875 33.24 14.25V21.75C33.24 23.8594 31.5525 25.5 29.49 25.5H6.99001C4.88063 25.5 3.24001 23.8594 3.24001 21.75V14.25C3.24001 12.1875 4.88063 10.5 6.99001 10.5H29.49ZM25.74 24H29.49C30.7088 24 31.74 23.0156 31.74 21.75V14.25C31.74 13.0312 30.7088 12 29.49 12H25.74V24ZM24.24 12H12.24V24H24.24V12ZM10.74 24V12H6.99001C5.72438 12 4.74001 13.0312 4.74001 14.25V21.75C4.74001 23.0156 5.72438 24 6.99001 24H10.74Z" fill="#20272D"/>
</svg>
