<svg width="36" height="36" viewBox="0 0 36 36" fill="none" xmlns="http://www.w3.org/2000/svg">
<path d="M25.6931 17.625C28.365 18.3281 30.24 20.7188 30.24 23.4375V27.8906C30.24 28.3125 30.0525 28.6875 29.7712 28.9688L29.1619 29.5781C28.8806 29.8594 28.5056 30 28.0837 30H26.3494C25.9275 30 25.5525 29.8594 25.2712 29.5781L24.24 28.5L23.1619 29.5781C22.8806 29.8594 22.5056 30 22.0837 30H20.3494C19.9275 30 19.5525 29.8594 19.2712 29.5781L18.24 28.5L17.1619 29.5781C16.8806 29.8594 16.5056 30 16.0837 30H14.3494C13.9275 30 13.5525 29.8594 13.2712 29.5781L12.24 28.5L11.1619 29.5781C10.8806 29.8594 10.5056 30 10.0837 30H8.34937C7.9275 30 7.5525 29.8594 7.27125 29.5781L6.66187 28.9688C6.38062 28.6875 6.24 28.3125 6.24 27.8906V7.5C6.24 6.70312 6.89625 6 7.74 6H22.74C23.5369 6 24.24 6.70312 24.24 7.5V10.5C24.24 11.3438 23.5369 12 22.74 12H7.74V24H28.74V23.4375C28.74 21.375 27.3337 19.5938 25.3181 19.0781L21.24 18H17.49C17.0681 18 16.74 17.6719 16.74 17.25C16.74 16.875 17.0681 16.5 17.49 16.5H21.24V15H17.49C17.0681 15 16.74 14.6719 16.74 14.25C16.74 13.875 17.0681 13.5 17.49 13.5H21.24C22.0369 13.5 22.74 14.2031 22.74 15V16.875L25.6931 17.625ZM7.74 7.5V10.5H22.74V7.5H7.74ZM28.74 27.8906V25.5H7.74V27.8906L8.34937 28.5H10.0837L11.1619 27.4688C11.4431 27.1875 11.8181 27 12.24 27C12.615 27 12.99 27.1875 13.2712 27.4688L14.3494 28.5H16.0837L17.1619 27.4688C17.4431 27.1875 17.8181 27 18.24 27C18.615 27 18.99 27.1875 19.2712 27.4688L20.3494 28.5H22.0837L23.1619 27.4688C23.4431 27.1875 23.8181 27 24.24 27C24.615 27 24.99 27.1875 25.2712 27.4688L26.3494 28.5H28.0837L28.74 27.8906Z" fill="#20272D"/>
</svg>
