<svg width="36" height="36" viewBox="0 0 36 36" fill="none" xmlns="http://www.w3.org/2000/svg">
<path d="M27.375 24H8.57812C7.96875 24 7.5 24.5156 7.5 25.125C7.5 25.7812 7.96875 26.25 8.57812 26.25H27.375C27.9844 26.25 28.5 25.7812 28.5 25.1719C28.5 24.5156 27.9844 24 27.375 24ZM27.375 9H8.57812C7.96875 9 7.5 9.51562 7.5 10.125C7.5 10.6875 7.96875 11.25 8.57812 11.25H27.375C27.9844 11.25 28.5 10.7812 28.5 10.1719C28.5 9.60938 27.9844 9 27.375 9ZM27.375 16.5H8.57812C7.96875 16.5 7.5 17.0156 7.5 17.625C7.5 18.2812 7.96875 18.75 8.57812 18.75H27.375C27.9844 18.75 28.5 18.2812 28.5 17.625C28.5 17.0156 27.9844 16.5 27.375 16.5Z" fill="black"/>
</svg>
