<svg width="36" height="36" viewBox="0 0 36 36" fill="none" xmlns="http://www.w3.org/2000/svg">
<path d="M25.6484 23.1016C26.0703 23.5703 26.0703 24.2734 25.6484 24.6953C25.1797 25.1641 24.4766 25.1641 24.0547 24.6953L18.5234 19.1172L12.9453 24.6953C12.4766 25.1641 11.7734 25.1641 11.3516 24.6953C10.8828 24.2734 10.8828 23.5703 11.3516 23.1016L16.9297 17.5234L11.3516 11.9453C10.8828 11.4766 10.8828 10.7734 11.3516 10.3516C11.7734 9.88281 12.4766 9.88281 12.8984 10.3516L18.5234 15.9766L24.1016 10.3984C24.5234 9.92969 25.2266 9.92969 25.6484 10.3984C26.1172 10.8203 26.1172 11.5234 25.6484 11.9922L20.0703 17.5234L25.6484 23.1016Z" fill="black"/>
</svg>
