<svg width="36" height="36" viewBox="0 0 36 36" fill="none" xmlns="http://www.w3.org/2000/svg">
<path d="M25.7812 26.5312C25.6406 26.3906 25.4531 26.25 25.2188 26.25C24.5625 26.25 24.2344 27 24.6562 27.5156L25.5 28.5H10.5L11.3438 27.5156C11.7656 27 11.3906 26.25 10.7812 26.25C10.5469 26.25 10.3125 26.3906 10.1719 26.5312L9.375 27.5156C9 27.9375 8.85938 28.5469 9.09375 29.1094C9.32812 29.6719 9.89062 30 10.5 30H25.4062C26.0156 30 26.5312 29.7188 26.8125 29.2031C27.0938 28.6875 27.0469 28.0312 26.625 27.5625L25.7812 26.5312ZM18 27C23.7656 27 28.5 22.3125 28.5 16.5469C28.5 10.7812 23.7656 6.04688 18 6.04688C12.1875 6.04688 7.5 10.7812 7.5 16.5469C7.5 22.3125 12.1875 27 18 27ZM18 7.5C22.9219 7.5 27 11.5781 27 16.5C27 21.4688 22.9219 25.5 18 25.5C13.0312 25.5 9 21.4688 9 16.5C9 11.5781 13.0312 7.5 18 7.5ZM18 23.25C21.7031 23.25 24.75 20.25 24.75 16.5C24.75 12.7969 21.7031 9.75 18 9.75C14.25 9.75 11.25 12.7969 11.25 16.5C11.25 20.25 14.25 23.25 18 23.25ZM18 11.25C20.8594 11.25 23.25 13.6406 23.25 16.5C23.25 19.4062 20.8594 21.75 18 21.75C15.0938 21.75 12.75 19.4062 12.75 16.5C12.75 13.6406 15.0938 11.25 18 11.25Z" fill="black"/>
</svg>
