<svg width="36" height="36" viewBox="0 0 36 36" fill="none" xmlns="http://www.w3.org/2000/svg">
<path d="M28.5 21H7.5C5.01562 21 3 23.0156 3 25.5C3 27.9844 5.01562 30 7.5 30H28.5C30.9844 30 33 27.9844 33 25.5C33 23.0156 30.9844 21 28.5 21ZM28.5 28.5H7.5C5.8125 28.5 4.5 27.1875 4.5 25.5C4.5 23.8594 5.8125 22.5 7.5 22.5H28.5C30.1406 22.5 31.5 23.8594 31.5 25.5C31.5 27.1875 30.1406 28.5 28.5 28.5ZM9 24.375C8.34375 24.375 7.875 24.8906 7.875 25.5C7.875 26.1562 8.34375 26.625 9 26.625C9.60938 26.625 10.125 26.1562 10.125 25.5C10.125 24.8906 9.60938 24.375 9 24.375ZM18 24.375C17.3438 24.375 16.875 24.8906 16.875 25.5C16.875 26.1562 17.3438 26.625 18 26.625C18.6094 26.625 19.125 26.1562 19.125 25.5C19.125 24.8906 18.6094 24.375 18 24.375ZM27 24.375C26.3438 24.375 25.875 24.8906 25.875 25.5C25.875 26.1562 26.3438 26.625 27 26.625C27.6094 26.625 28.125 26.1562 28.125 25.5C28.125 24.8906 27.6094 24.375 27 24.375Z" fill="black"/>
</svg>
