<svg width="36" height="36" viewBox="0 0 36 36" fill="none" xmlns="http://www.w3.org/2000/svg">
<path fill-rule="evenodd" clip-rule="evenodd" d="M18 5.875C11.2744 5.875 5.875 11.3219 5.875 18C5.875 24.7253 11.2747 30.125 18 30.125C24.6781 30.125 30.125 24.7256 30.125 18C30.125 11.3216 24.6784 5.875 18 5.875ZM8.375 18C8.375 12.7249 12.6788 8.375 18 8.375C23.2747 8.375 27.625 12.7253 27.625 18C27.625 23.3212 23.2751 27.625 18 27.625C12.6784 27.625 8.375 23.3216 8.375 18ZM18 11.875C17.2713 11.875 16.75 12.45 16.75 13.125V19.125C16.75 19.8503 17.2747 20.375 18 20.375C18.675 20.375 19.25 19.8537 19.25 19.125V13.125C19.25 12.4466 18.6784 11.875 18 11.875ZM18 21.7188C17.0898 21.7188 16.375 22.4284 16.375 23.2969C16.375 24.1654 17.0898 24.875 18 24.875C18.8659 24.875 19.5781 24.1628 19.5781 23.2969C19.5781 22.431 18.8659 21.7188 18 21.7188Z" fill="black"/>
</svg>
