<svg width="36" height="36" viewBox="0 0 36 36" fill="none" xmlns="http://www.w3.org/2000/svg">
<path d="M9 25.5H7.5C6.65625 25.5 6 26.2031 6 27V28.5C6 29.3438 6.65625 30 7.5 30H9C9.79688 30 10.5 29.3438 10.5 28.5V27C10.5 26.2031 9.79688 25.5 9 25.5ZM9 28.5H7.5V27H9V28.5ZM9 13.5H7.5C6.65625 13.5 6 14.2031 6 15V16.5C6 17.3438 6.65625 18 7.5 18H9C9.79688 18 10.5 17.3438 10.5 16.5V15C10.5 14.2031 9.79688 13.5 9 13.5ZM9 16.5H7.5V15H9V16.5ZM9 19.5H7.5C6.65625 19.5 6 20.2031 6 21V22.5C6 23.3438 6.65625 24 7.5 24H9C9.79688 24 10.5 23.3438 10.5 22.5V21C10.5 20.2031 9.79688 19.5 9 19.5ZM9 22.5H7.5V21H9V22.5ZM15 25.5H13.5C12.6562 25.5 12 26.2031 12 27V28.5C12 29.3438 12.6562 30 13.5 30H15C15.7969 30 16.5 29.3438 16.5 28.5V27C16.5 26.2031 15.7969 25.5 15 25.5ZM15 28.5H13.5V27H15V28.5ZM28.5 19.5H27C26.1562 19.5 25.5 20.2031 25.5 21V22.5C25.5 23.3438 26.1562 24 27 24H28.5C29.2969 24 30 23.3438 30 22.5V21C30 20.2031 29.2969 19.5 28.5 19.5ZM28.5 22.5H27V21H28.5V22.5ZM30.75 15H27V8.25C27 7.03125 25.9688 6 24.75 6L18.75 6.04688C17.4844 6.04688 16.5 7.03125 16.5 8.29688V10.5H13.5V6.75C13.5 6.375 13.125 6 12.75 6C12.3281 6 12 6.375 12 6.75V10.5H9V6.75C9 6.375 8.625 6 8.25 6C7.82812 6 7.5 6.375 7.5 6.75V10.5L5.25 10.5469C3.98438 10.5469 3 11.5312 3 12.7969V29.25C3 29.6719 3.32812 30 3.75 30C4.125 30 4.5 29.6719 4.5 29.25V13.125C4.5 12.5156 4.96875 12 5.625 12H18V8.625C18 8.01562 18.4688 7.5 19.125 7.5H24.375C24.9844 7.5 25.5 8.01562 25.5 8.625V16.5H30.375C30.9844 16.5 31.5 17.0156 31.5 17.625V29.25C31.5 29.6719 31.8281 30 32.25 30C32.625 30 33 29.6719 33 29.25V17.25C33 16.0312 31.9688 15 30.75 15ZM28.5 25.5H27C26.1562 25.5 25.5 26.2031 25.5 27V28.5C25.5 29.3438 26.1562 30 27 30H28.5C29.2969 30 30 29.3438 30 28.5V27C30 26.2031 29.2969 25.5 28.5 25.5ZM28.5 28.5H27V27H28.5V28.5ZM22.5 15H21C20.1562 15 19.5 15.7031 19.5 16.5V18C19.5 18.8438 20.1562 19.5 21 19.5H22.5C23.2969 19.5 24 18.8438 24 18V16.5C24 15.7031 23.2969 15 22.5 15ZM22.5 18H21V16.5H22.5V18ZM22.5 9H21C20.1562 9 19.5 9.70312 19.5 10.5V12C19.5 12.8438 20.1562 13.5 21 13.5H22.5C23.2969 13.5 24 12.8438 24 12V10.5C24 9.70312 23.2969 9 22.5 9ZM22.5 12H21V10.5H22.5V12ZM15 13.5H13.5C12.6562 13.5 12 14.2031 12 15V16.5C12 17.3438 12.6562 18 13.5 18H15C15.7969 18 16.5 17.3438 16.5 16.5V15C16.5 14.2031 15.7969 13.5 15 13.5ZM15 16.5H13.5V15H15V16.5ZM15 19.5H13.5C12.6562 19.5 12 20.2031 12 21V22.5C12 23.3438 12.6562 24 13.5 24H15C15.7969 24 16.5 23.3438 16.5 22.5V21C16.5 20.2031 15.7969 19.5 15 19.5ZM15 22.5H13.5V21H15V22.5Z" fill="black"/>
</svg>
