<svg width="36" height="36" viewBox="0 0 36 36" fill="none" xmlns="http://www.w3.org/2000/svg">
<path d="M14.375 21.5H9.125C8.46875 21.5 8 22.0156 8 22.625C8 23.2812 8.46875 23.75 9.125 23.75H13.25V27.875C13.25 28.5312 13.7188 29 14.375 29C14.9844 29 15.5 28.5312 15.5 27.875V22.625C15.5 22.0156 14.9844 21.5 14.375 21.5ZM22.625 15.5H27.875C28.4844 15.5 29 15.0312 29 14.375C29 13.7656 28.4844 13.25 27.875 13.25H23.75V9.125C23.75 8.51562 23.2344 8 22.625 8C21.9688 8 21.5 8.51562 21.5 9.125V14.375C21.5 15.0312 21.9688 15.5 22.625 15.5ZM14.375 8C13.7188 8 13.25 8.51562 13.25 9.125V13.25H9.125C8.46875 13.25 8 13.7656 8 14.375C8 15.0312 8.46875 15.5 9.125 15.5H14.375C14.9844 15.5 15.5 15.0312 15.5 14.375V9.125C15.5 8.51562 14.9844 8 14.375 8ZM27.875 21.5H22.625C21.9688 21.5 21.5 22.0156 21.5 22.625V27.875C21.5 28.5312 21.9688 29 22.625 29C23.2344 29 23.75 28.5312 23.75 27.875V23.75H27.875C28.4844 23.75 29 23.2812 29 22.625C29 22.0156 28.4844 21.5 27.875 21.5Z" fill="black"/>
</svg>
