<svg width="36" height="36" viewBox="0 0 36 36" fill="none" xmlns="http://www.w3.org/2000/svg">
<path fill-rule="evenodd" clip-rule="evenodd" d="M18 5.875C11.2744 5.875 5.875 11.3219 5.875 18C5.875 24.7253 11.2747 30.125 18 30.125C24.6781 30.125 30.125 24.7256 30.125 18C30.125 11.3216 24.6784 5.875 18 5.875ZM17 13.125C17 12.5812 17.4162 12.125 18 12.125C18.5403 12.125 19 12.5847 19 13.125V19.125C19 19.7088 18.5438 20.125 18 20.125C17.4128 20.125 17 19.7122 17 19.125V13.125ZM16.625 23.2969C16.625 22.5716 17.2227 21.9688 18 21.9688C18.7278 21.9688 19.3281 22.569 19.3281 23.2969C19.3281 24.0247 18.7278 24.625 18 24.625C17.2227 24.625 16.625 24.0221 16.625 23.2969Z" fill="black"/>
</svg>
