<svg width="36" height="36" viewBox="0 0 36 36" fill="none" xmlns="http://www.w3.org/2000/svg">
<path d="M18 6C11.3438 6 6 11.3906 6 18C6 24.6562 11.3438 30 18 30C24.6094 30 30 24.6562 30 18C30 11.3906 24.6094 6 18 6ZM18 27.75C12.6094 27.75 8.25 23.3906 8.25 18C8.25 12.6562 12.6094 8.25 18 8.25C23.3438 8.25 27.75 12.6562 27.75 18C27.75 23.3906 23.3438 27.75 18 27.75ZM19.875 21.75H19.125V17.625C19.125 17.0156 18.6094 16.5 18 16.5H16.5C15.8438 16.5 15.375 17.0156 15.375 17.625C15.375 18.2812 15.8438 18.75 16.5 18.75H16.875V21.75H16.125C15.4688 21.75 15 22.2656 15 22.875C15 23.5312 15.4688 24 16.125 24H19.875C20.4844 24 21 23.5312 21 22.875C21 22.2656 20.4844 21.75 19.875 21.75ZM18 15C18.7969 15 19.5 14.3438 19.5 13.5C19.5 12.7031 18.7969 12 18 12C17.1562 12 16.5 12.7031 16.5 13.5C16.5 14.3438 17.1562 15 18 15Z" fill="black"/>
</svg>
