<svg width="36" height="36" viewBox="0 0 36 36" fill="none" xmlns="http://www.w3.org/2000/svg">
<path fill-rule="evenodd" clip-rule="evenodd" d="M18 5.875C11.2744 5.875 5.875 11.3219 5.875 18C5.875 24.7253 11.2747 30.125 18 30.125C24.6781 30.125 30.125 24.7256 30.125 18C30.125 11.3216 24.6784 5.875 18 5.875ZM8.375 18C8.375 12.7249 12.6788 8.375 18 8.375C23.2747 8.375 27.625 12.7253 27.625 18C27.625 23.3212 23.2751 27.625 18 27.625C12.6784 27.625 8.375 23.3216 8.375 18ZM15.8336 14.1102C15.32 13.648 14.541 13.6416 14.0679 14.1147C13.5538 14.6288 13.546 15.4133 14.0701 15.8875L16.1835 18.0009L14.1143 20.1152C13.6015 20.6285 13.5931 21.4111 14.1146 21.8854C14.5858 22.4034 15.3698 22.4028 15.8402 21.8835L17.9991 19.7696L20.1125 21.883C20.5828 22.4028 21.3672 22.4036 21.8385 21.8854C22.3602 21.4109 22.3516 20.628 21.8384 20.1147L19.7237 18L21.8361 15.8875C22.3603 15.4133 22.3525 14.6286 21.8385 14.1146L21.8336 14.1102C21.32 13.648 20.5409 13.6416 20.0678 14.1147L17.9981 16.2744L15.8385 14.1146L15.8336 14.1102Z" fill="black"/>
</svg>
