<svg width="36" height="36" viewBox="0 0 36 36" fill="none" xmlns="http://www.w3.org/2000/svg">
<path d="M30 16.125C30 13.5469 27.9375 11.4375 25.4062 11.2969C25.0781 9.14062 23.2031 7.5 21 7.5C20.1094 7.5 19.2187 7.78125 18.5156 8.25C17.5312 6.89062 15.9375 6 14.25 6C11.3437 6 9 8.39062 9 11.25C9 11.3906 9 11.5312 9 11.6719C7.17188 12.4219 6 14.1562 6 16.125C6 18.8438 8.15625 21 10.875 21H25.125C27.7969 21 30 18.8438 30 16.125ZM7.5 16.125C7.5 14.625 8.53125 13.2656 9.98438 12.8906C10.4062 12.7969 10.6406 12.4219 10.5469 12C10.5 11.7656 10.5 11.5312 10.5 11.25C10.5 9.1875 12.1406 7.5 14.25 7.5C15.6562 7.5 17.0156 8.39062 17.625 9.70312C17.7187 9.9375 17.9531 10.0781 18.1875 10.125C18.4219 10.1719 18.6562 10.0781 18.8437 9.9375C19.4062 9.32812 20.1562 9 21 9C22.6406 9 24 10.3594 24 12C24 12.4219 24.3281 12.75 24.75 12.75H25.125C26.9531 12.75 28.5 14.2969 28.5 16.125C28.5 18 26.9531 19.5 25.125 19.5H10.875C9 19.5 7.5 18 7.5 16.125ZM10.0781 22.5938C9.70312 22.4062 9.23438 22.5469 9.04688 22.9219L6.04687 28.9219C5.85937 29.2969 6 29.7656 6.375 29.9531C6.51562 30 6.60937 30 6.75 30C6.98438 30 7.26562 29.8594 7.40625 29.625L10.4062 23.625C10.5938 23.25 10.4531 22.7812 10.0781 22.5938ZM22.0781 22.5938C21.7031 22.4062 21.2344 22.5469 21.0469 22.9219L18.0469 28.9219C17.8594 29.2969 18 29.7656 18.375 29.9531C18.5156 30 18.6094 30 18.75 30C18.9844 30 19.2656 29.8594 19.4062 29.625L22.4062 23.625C22.5937 23.25 22.4531 22.7812 22.0781 22.5938ZM28.8281 24C28.5937 23.6719 28.1719 23.5312 27.7969 23.7656L27 24.2344V23.25C27 22.875 26.625 22.5 26.25 22.5C25.8281 22.5 25.5 22.875 25.5 23.25V24.2344L24.6562 23.7656C24.2812 23.5312 23.8594 23.6719 23.625 24C23.4375 24.375 23.5312 24.8438 23.9062 25.0312L24.75 25.5L23.9062 26.0156C23.5312 26.2031 23.4375 26.6719 23.625 27C23.7656 27.2812 24 27.375 24.2812 27.375C24.4219 27.375 24.5156 27.375 24.6562 27.2812L25.5 26.8125V27.75C25.5 28.1719 25.8281 28.5 26.25 28.5C26.625 28.5 27 28.1719 27 27.75V26.8125L27.7969 27.2812C27.9375 27.375 28.0312 27.375 28.1719 27.375C28.4531 27.375 28.6875 27.2812 28.8281 27C29.0156 26.6719 28.9219 26.2031 28.5469 26.0156L27.7031 25.5L28.5 25.0312C28.9219 24.8438 29.0156 24.375 28.8281 24ZM16.8281 24C16.5937 23.6719 16.1719 23.5312 15.7969 23.7656L15 24.2344V23.25C15 22.875 14.625 22.5 14.25 22.5C13.8281 22.5 13.5 22.875 13.5 23.25V24.2344L12.6562 23.7656C12.2812 23.5312 11.8594 23.6719 11.625 24C11.4375 24.375 11.5312 24.8438 11.9062 25.0312L12.75 25.5L11.9062 26.0156C11.5312 26.2031 11.4375 26.6719 11.625 27C11.7656 27.2812 12 27.375 12.2812 27.375C12.4219 27.375 12.5156 27.375 12.6562 27.2812L13.5 26.8125V27.75C13.5 28.1719 13.8281 28.5 14.25 28.5C14.625 28.5 15 28.1719 15 27.75V26.8125L15.7969 27.2812C15.9375 27.375 16.0312 27.375 16.1719 27.375C16.4531 27.375 16.6875 27.2812 16.8281 27C17.0156 26.6719 16.9219 26.2031 16.5469 26.0156L15.7031 25.5L16.5 25.0312C16.9219 24.8438 17.0156 24.375 16.8281 24Z" fill="black"/>
</svg>
