<svg width="36" height="36" viewBox="0 0 36 36" fill="none" xmlns="http://www.w3.org/2000/svg">
<path d="M13.6463 10.125L16.74 9.32812L15.6619 11.1562L13.4119 11.7188C13.0838 11.8125 12.7088 11.625 12.5681 11.2969L11.49 8.95312L10.365 11.2969C10.2244 11.625 9.84938 11.8125 9.52125 11.7188L6.99 11.1094L8.16188 13.4062C8.34938 13.7344 8.25563 14.1094 7.97438 14.3438L5.91188 15.9375L8.44313 16.4531C8.77125 16.5 9.0525 16.8281 9.0525 17.2031L9.00563 19.7812L10.5056 18.5156L9.99 20.5781C9.94313 20.7188 9.89625 20.8594 9.89625 21L8.6775 21.9844C8.44313 22.1719 8.16188 22.2188 7.88063 22.0781C7.64625 21.9375 7.45875 21.7031 7.45875 21.375L7.50563 17.7656L3.99 17.0625C3.70875 16.9688 3.47438 16.7812 3.4275 16.5C3.38063 16.2188 3.47438 15.8906 3.70875 15.7031L6.56813 13.5469L4.9275 10.3125C4.78688 10.0312 4.83375 9.75 5.02125 9.51562C5.20875 9.28125 5.49 9.1875 5.77125 9.23438L9.28688 10.125L10.7869 6.84375C10.9275 6.5625 11.1619 6.375 11.4431 6.375C11.7713 6.375 12.0056 6.5625 12.1463 6.84375L13.6463 10.125ZM15.3338 18.1875C15.5213 17.4844 16.2244 17.0625 16.9275 17.25C17.6306 17.4375 18.0525 18.1875 17.865 18.8906C17.6775 19.5938 16.9744 19.9688 16.2713 19.7812C15.5681 19.5938 15.1463 18.8906 15.3338 18.1875ZM29.6775 22.0312C29.49 22.7344 28.7869 23.1562 28.0838 22.9688C27.3806 22.7812 26.9588 22.0781 27.1463 21.375C27.3338 20.6719 28.0838 20.25 28.7869 20.4375C29.49 20.625 29.865 21.3281 29.6775 22.0312ZM21.4744 8.67188L29.1619 10.7344C30.4744 11.0625 31.365 12.2344 31.365 13.5469L31.4588 17.7656C32.7244 18.6562 33.3338 20.25 32.9119 21.7969L31.6931 26.3906C31.6931 26.4375 31.6931 26.4375 31.6931 26.4844L30.9431 29.1562C30.8494 29.625 30.3338 29.9062 29.865 29.8125C29.3963 29.6719 29.1619 29.2031 29.2556 28.7344L29.7244 27.0469L12.8025 22.5L12.3806 24.1875C12.24 24.6562 11.7713 24.9375 11.3025 24.7969C10.8338 24.7031 10.5525 24.1875 10.6931 23.7188L11.3963 21.1406C11.3963 21.0938 11.3963 21 11.4431 20.9531L12.6619 16.3594C13.0838 14.8125 14.3963 13.7344 15.9431 13.5938L18.0994 9.98438C18.8025 8.85938 20.1619 8.29688 21.4744 8.625V8.67188ZM21.0525 10.0781C20.4431 9.9375 19.74 10.2188 19.4119 10.7812L17.5838 13.8281L29.9588 17.1094L29.865 13.5938C29.865 12.9375 29.4431 12.3281 28.7869 12.1406L21.0525 10.0781ZM29.865 18.6562L16.8338 15.1875C15.6619 14.8594 14.4431 15.5625 14.115 16.7812L12.99 21L30.3338 25.6406L31.4588 21.4219C31.7869 20.2031 31.0838 18.9844 29.865 18.6562Z" fill="#20272D"/>
</svg>
