<svg width="36" height="36" viewBox="0 0 36 36" fill="none" xmlns="http://www.w3.org/2000/svg">
<path d="M12 22.5H9C5.67188 22.5 3 25.2188 3 28.5C3 29.3438 3.65625 30 4.5 30H16.5C17.2969 30 18 29.3438 18 28.5C18 25.2188 15.2812 22.5 12 22.5ZM5.29688 27.75C5.67188 26.0625 7.17188 24.75 9 24.75H12C13.7812 24.75 15.2812 26.0625 15.6562 27.75H5.29688ZM10.5 21C12.9844 21 15 19.0312 15 16.5C15 14.0156 12.9844 12 10.5 12C7.96875 12 6 14.0156 6 16.5C6 18.9844 7.96875 21 10.5 21ZM10.5 14.25C11.7188 14.25 12.75 15.2812 12.75 16.5C12.75 17.7656 11.7188 18.75 10.5 18.75C9.23438 18.75 8.25 17.7656 8.25 16.5C8.25 15.2812 9.23438 14.25 10.5 14.25ZM30.375 6H13.125C11.6719 6 10.5 7.21875 10.5 8.625V9.75C10.5 10.4062 10.9688 10.875 11.625 10.875C12.2344 10.875 12.75 10.4062 12.75 9.75V8.625C12.75 8.4375 12.8906 8.25 13.125 8.25H30.375C30.5625 8.25 30.75 8.4375 30.75 8.625V22.875C30.75 23.1094 30.5625 23.25 30.375 23.25H27.75V21.75C27.75 20.9531 27.0469 20.25 26.25 20.25H22.5C21.6562 20.25 21 20.9531 21 21.75V23.25H19.5C18.8438 23.25 18.375 23.7656 18.375 24.375C18.375 25.0312 18.8438 25.5 19.5 25.5H30.375C31.7812 25.5 33 24.3281 33 22.875V8.625C33 7.21875 31.7812 6 30.375 6Z" fill="black"/>
</svg>
