<svg width="36" height="36" viewBox="0 0 36 36" fill="none" xmlns="http://www.w3.org/2000/svg">
<path d="M18 6C11.3438 6 6 11.3906 6 18C6 24.6562 11.3438 30 18 30C24.6094 30 30 24.6562 30 18C30 11.3906 24.6094 6 18 6ZM18 28.5C12.1875 28.5 7.5 23.8125 7.5 18C7.5 12.2344 12.1875 7.5 18 7.5C23.7656 7.5 28.5 12.2344 28.5 18C28.5 23.8125 23.7656 28.5 18 28.5ZM18.75 17.8125V11.25C18.75 10.875 18.375 10.5 18 10.5C17.5781 10.5 17.25 10.875 17.25 11.25V18C17.25 18.1406 17.25 18.2812 17.3438 18.375L19.7812 22.6406C19.9219 22.875 20.1562 23.0156 20.4375 23.0156C20.5312 23.0156 20.6719 22.9688 20.8125 22.875C21.1406 22.6875 21.2812 22.2188 21.0469 21.8906L18.75 17.8125Z" fill="black"/>
</svg>
