<svg width="36" height="36" viewBox="0 0 36 36" fill="none" xmlns="http://www.w3.org/2000/svg">
<path d="M25.6463 11.2969C28.1775 11.4375 30.24 13.5469 30.24 16.125C30.24 18.8438 28.0369 21 25.365 21H11.115C8.39625 21 6.24 18.8438 6.24 16.125C6.24 14.1562 7.41188 12.4219 9.24 11.6719C9.24 11.5312 9.24 11.3906 9.24 11.25C9.24 8.39062 11.5838 6 14.49 6C16.1775 6 17.7713 6.89062 18.7556 8.25C19.4588 7.78125 20.3494 7.5 21.24 7.5C23.4431 7.5 25.3181 9.14062 25.6463 11.2969ZM25.365 19.5C27.1931 19.5 28.74 18 28.74 16.125C28.74 14.2969 27.1931 12.75 25.365 12.75H24.99C24.5681 12.75 24.24 12.4219 24.24 12C24.24 10.3594 22.8806 9 21.24 9C20.3963 9 19.6463 9.32812 19.0838 9.9375C18.8963 10.0781 18.6619 10.1719 18.4275 10.125C18.1931 10.0781 17.9588 9.9375 17.865 9.70312C17.2556 8.39062 15.8963 7.5 14.49 7.5C12.3806 7.5 10.74 9.1875 10.74 11.25C10.74 11.5312 10.74 11.7656 10.7869 12C10.8806 12.4219 10.6463 12.7969 10.2244 12.8906C8.77125 13.2656 7.74 14.625 7.74 16.125C7.74 18 9.24 19.5 11.115 19.5H25.365ZM17.5838 22.8281C17.865 22.4531 18.5681 22.4531 18.8494 22.8281C19.3181 23.5781 20.9588 26.0156 20.9588 27.2812C20.9588 28.7812 19.74 30 18.24 30C16.6931 30 15.4744 28.7812 15.4744 27.2812C15.4744 26.0156 17.115 23.5781 17.5838 22.8281ZM18.24 28.5C18.8963 28.5 19.4588 27.9375 19.4588 27.2812C19.4588 26.8594 18.8963 25.7344 18.24 24.6562C17.5369 25.7344 16.9744 26.8594 16.9744 27.2812C16.9744 27.9844 17.5369 28.5 18.24 28.5ZM10.0838 22.8281C10.365 22.4531 11.0681 22.4531 11.3494 22.8281C11.8181 23.5781 13.4588 26.0156 13.4588 27.2812C13.4588 28.7812 12.24 30 10.74 30C9.19313 30 7.97438 28.7812 7.97438 27.2812C7.97438 26.0156 9.615 23.5781 10.0838 22.8281ZM10.74 28.5C11.3963 28.5 11.9588 27.9375 11.9588 27.2812C11.9588 26.8594 11.3963 25.7344 10.74 24.6562C10.0369 25.7344 9.47438 26.8594 9.47438 27.2812C9.47438 27.9844 10.0369 28.5 10.74 28.5ZM25.0838 22.8281C25.365 22.4531 26.0681 22.4531 26.3494 22.8281C26.8181 23.5781 28.4588 26.0156 28.4588 27.2812C28.4588 28.7812 27.24 30 25.74 30C24.1931 30 22.9744 28.7812 22.9744 27.2812C22.9744 26.0156 24.615 23.5781 25.0838 22.8281ZM25.74 28.5C26.3963 28.5 26.9588 27.9375 26.9588 27.2812C26.9588 26.8594 26.3963 25.7344 25.74 24.6562C25.0369 25.7344 24.4744 26.8594 24.4744 27.2812C24.4744 27.9844 25.0369 28.5 25.74 28.5Z" fill="#20272D"/>
</svg>
