<svg width="36" height="36" viewBox="0 0 36 36" fill="none" xmlns="http://www.w3.org/2000/svg">
<path d="M29.25 17.25H27.7031C27.3281 12.4688 23.5312 8.67188 18.75 8.29688V6.75C18.75 6.375 18.375 6 18 6C17.5781 6 17.25 6.375 17.25 6.75V8.29688C12.4219 8.67188 8.625 12.4688 8.25 17.25H6.75C6.32812 17.25 6 17.625 6 18C6 18.4219 6.32812 18.75 6.75 18.75H8.25C8.625 23.5781 12.4219 27.375 17.25 27.75V29.25C17.25 29.6719 17.5781 30 17.9531 30C18.3281 30 18.75 29.6719 18.75 29.25V27.75C23.5312 27.375 27.3281 23.5781 27.7031 18.75H29.25C29.625 18.75 30 18.4219 30 18C30 17.625 29.625 17.25 29.25 17.25ZM24.75 18.75H26.2031C25.8281 22.7344 22.6875 25.875 18.75 26.25V24.75C18.75 24.375 18.375 24 18 24C17.5781 24 17.25 24.375 17.25 24.75V26.25C13.2656 25.875 10.125 22.7344 9.75 18.75H11.25C11.625 18.75 12 18.4219 12 18C12 17.625 11.625 17.25 11.25 17.25H9.75C10.125 13.3125 13.2656 10.1719 17.25 9.79688V11.25C17.25 11.6719 17.5781 12 18 12C18.375 12 18.75 11.6719 18.75 11.25V9.79688C22.6875 10.1719 25.8281 13.3125 26.2031 17.25H24.75C24.3281 17.25 24 17.625 24 18C24 18.4219 24.3281 18.75 24.75 18.75ZM17.9531 16.875C17.2969 16.875 16.8281 17.3906 16.8281 18C16.8281 18.6562 17.2969 19.125 17.9531 19.125C18.5625 19.125 19.0781 18.6562 19.0781 18C19.0781 17.3906 18.6094 16.875 17.9531 16.875Z" fill="black"/>
</svg>
