<svg width="36" height="36" viewBox="0 0 36 36" fill="none" xmlns="http://www.w3.org/2000/svg">
<path fill-rule="evenodd" clip-rule="evenodd" d="M18 5.875C11.2744 5.875 5.875 11.3219 5.875 18C5.875 24.7253 11.2747 30.125 18 30.125C24.6781 30.125 30.125 24.7256 30.125 18C30.125 11.3216 24.6784 5.875 18 5.875ZM8.375 18C8.375 12.7249 12.6788 8.375 18 8.375C23.2747 8.375 27.625 12.7253 27.625 18C27.625 23.3212 23.2751 27.625 18 27.625C12.6784 27.625 8.375 23.3216 8.375 18ZM21.6147 14.1147C22.0848 13.6446 22.8674 13.6434 23.3385 14.1615C23.8567 14.6328 23.8559 15.4172 23.3361 15.8875L17.3431 21.8805C17.1255 22.1485 16.8054 22.25 16.5 22.25C16.1451 22.25 15.8298 22.1472 15.5679 21.8853L12.5701 18.8875C12.046 18.4133 12.0538 17.6288 12.5679 17.1147C13.041 16.6416 13.82 16.648 14.3336 17.1102L14.3384 17.1147L16.4996 19.276L21.6147 14.1147Z" fill="black"/>
</svg>
