<svg width="36" height="36" viewBox="0 0 36 36" fill="none" xmlns="http://www.w3.org/2000/svg">
<path d="M21.9375 14.4844L16.5 19.9688L14.0156 17.4844C13.7344 17.2031 13.2188 17.2031 12.9375 17.4844C12.6562 17.7656 12.6562 18.2812 12.9375 18.5625L15.9375 21.5625C16.0781 21.7031 16.2656 21.75 16.5 21.75C16.6875 21.75 16.875 21.7031 17.0156 21.5625L23.0156 15.5625C23.2969 15.2812 23.2969 14.7656 23.0156 14.4844C22.7344 14.2031 22.2188 14.2031 21.9375 14.4844ZM18 6C11.3438 6 6 11.3906 6 18C6 24.6562 11.3438 30 18 30C24.6094 30 30 24.6562 30 18C30 11.3906 24.6094 6 18 6ZM18 28.5C12.1875 28.5 7.5 23.8125 7.5 18C7.5 12.2344 12.1875 7.5 18 7.5C23.7656 7.5 28.5 12.2344 28.5 18C28.5 23.8125 23.7656 28.5 18 28.5Z" fill="black"/>
</svg>
