<svg width="36" height="36" viewBox="0 0 36 36" fill="none" xmlns="http://www.w3.org/2000/svg">
<path d="M18 6C11.3438 6 6 11.3906 6 18C6 24.6562 11.3438 30 18 30C24.6094 30 30 24.6562 30 18C30 11.3906 24.6094 6 18 6ZM18 28.5C12.1875 28.5 7.5 23.8125 7.5 18C7.5 12.2344 12.1875 7.5 18 7.5C23.7656 7.5 28.5 12.2344 28.5 18C28.5 23.8125 23.7656 28.5 18 28.5ZM18 10.5C17.5781 10.5 17.25 10.875 17.25 11.25V17.5781L13.3594 19.8281C13.0312 20.0156 12.8906 20.4844 13.125 20.8125C13.2656 21.0938 13.5 21.1875 13.7344 21.1875C13.875 21.1875 14.0156 21.1875 14.1094 21.0938L18.375 18.6562C18.5625 18.5156 18.75 18.2812 18.75 18V11.25C18.75 10.875 18.375 10.5 18 10.5Z" fill="black"/>
</svg>
