<svg width="36" height="36" viewBox="0 0 36 36" fill="none" xmlns="http://www.w3.org/2000/svg">
<path d="M6.375 15.375C6.375 16.0312 6.84375 16.5 7.5 16.5C8.10938 16.5 8.625 16.0312 8.625 15.375C8.625 14.7656 8.10938 14.25 7.5 14.25C6.84375 14.25 6.375 14.7656 6.375 15.375ZM14.2969 18H5.15625C4.78125 18 4.5 17.7188 4.5 17.3438V14.7656C4.5 13.6875 5.39062 12.75 6.46875 12.75H18.9844C18.9844 12.75 18.9844 12.7969 19.0312 12.7969C19.0312 12.7969 19.0781 12.75 19.125 12.75H21.8438C21.4688 12.2344 20.9531 11.8125 20.3906 11.5781L19.6406 8.34375C19.3125 6.98438 18.1406 6 16.7344 6H8.625C7.21875 6 6 6.98438 5.67188 8.34375L4.92188 11.6719C3.79688 12.2344 3 13.4062 3 14.7656V17.3438C3 18.2812 3.60938 19.125 4.5 19.4062V21C4.5 21.4219 4.82812 21.75 5.25 21.75C5.625 21.75 6 21.4219 6 21V19.5H13.4531C13.6875 19.3125 13.875 19.125 14.1094 18.9375L14.2969 18ZM7.125 8.67188C7.3125 8.01562 7.92188 7.5 8.625 7.5H16.7344C17.4375 7.5 18.0469 8.01562 18.1875 8.67188L18.7969 11.25H6.5625L7.125 8.67188ZM28.5 22.5C27.8438 22.5 27.375 23.0156 27.375 23.625C27.375 24.2812 27.8438 24.75 28.5 24.75C29.1094 24.75 29.625 24.2812 29.625 23.625C29.625 23.0156 29.1094 22.5 28.5 22.5ZM18 22.5C17.3438 22.5 16.875 23.0156 16.875 23.625C16.875 24.2812 17.3438 24.75 18 24.75C18.6094 24.75 19.125 24.2812 19.125 23.625C19.125 23.0156 18.6094 22.5 18 22.5ZM30.8906 19.8281L30.1406 16.5938C29.8125 15.2344 28.6406 14.25 27.2344 14.25H19.125C17.7188 14.25 16.5 15.2344 16.1719 16.5938L15.4219 19.9219C14.2969 20.4844 13.5 21.6562 13.5 23.0156V25.5938C13.5 26.5312 14.1094 27.375 15 27.6562V29.25C15 29.6719 15.3281 30 15.75 30C16.125 30 16.5 29.6719 16.5 29.25V27.75H30V29.25C30 29.6719 30.3281 30 30.75 30C31.125 30 31.5 29.6719 31.5 29.25V27.6562C32.3906 27.375 32.9531 26.5312 33 25.5938V23.0156C33 21.6562 32.1562 20.3906 30.8906 19.8281ZM17.625 16.9219C17.8125 16.2656 18.4219 15.75 19.125 15.75H27.2344C27.9375 15.75 28.5469 16.2656 28.6875 16.9219L29.2969 19.5H17.0625L17.625 16.9219ZM31.5 25.5938C31.5 25.9688 31.1719 26.25 30.7969 26.25H15.6562C15.2812 26.25 15 25.9688 15 25.5938V23.0156C15 21.9375 15.8906 21 16.9688 21H29.4844C30.5625 21 31.5 21.9375 31.5 23.0156V25.5938Z" fill="black"/>
</svg>
