<svg width="36" height="36" viewBox="0 0 36 36" fill="none" xmlns="http://www.w3.org/2000/svg">
<path d="M29.5781 9.32812L26.7188 6.46875C26.4375 6.1875 26.0625 6 25.6406 6H18C16.3125 6 15 7.35938 15 9V21C15.0469 22.6875 16.3594 24 18.0469 24H27.0469C28.6875 24 30.0469 22.6875 30.0469 21V10.4062C30.0469 9.98438 29.8594 9.60938 29.5781 9.32812ZM27.7969 21C27.7969 21.4219 27.4219 21.75 27.0469 21.75H18C17.5781 21.75 17.25 21.4219 17.25 21V9.04688C17.25 8.625 17.5781 8.29688 18 8.29688H24L24.0469 10.5C24.0469 11.3438 24.7031 12 25.5469 12H27.75V21H27.7969ZM18.7969 27C18.7969 27.4219 18.4219 27.75 18.0469 27.75H9C8.57812 27.75 8.25 27.4219 8.25 27V15.0469C8.25 14.625 8.625 14.2969 9 14.2969H13.5469V12H9C7.35938 12 6 13.3594 6 15L6.04688 27C6.04688 28.6875 7.35938 30 9.04688 30H18.0469C19.6875 30 21.0469 28.6875 21.0469 27V25.5H18.7969V27Z" fill="black"/>
</svg>
