<svg width="36" height="36" viewBox="0 0 36 36" fill="none" xmlns="http://www.w3.org/2000/svg">
<path d="M17.28 12.75C15.405 12.75 13.905 11.25 13.905 9.375C13.905 7.54688 15.405 6 17.28 6C19.1081 6 20.655 7.54688 20.655 9.375C20.655 11.25 19.1081 12.75 17.28 12.75ZM17.28 7.5C16.2019 7.5 15.405 8.34375 15.405 9.375C15.405 10.4531 16.2019 11.25 17.28 11.25C18.3113 11.25 19.155 10.4531 19.155 9.375C19.155 8.34375 18.3113 7.5 17.28 7.5ZM25.905 11.3906C26.2331 11.5781 26.3738 12.0469 26.1394 12.4219C26.0925 12.5156 24.5925 14.9062 21.03 15.9844V29.25C21.03 29.6719 20.655 30 20.28 30C19.8581 30 19.53 29.6719 19.53 29.25V23.25H15.03V29.25C15.03 29.6719 14.655 30 14.28 30C13.8581 30 13.53 29.6719 13.53 29.25V15.9844C9.92063 14.9062 8.42063 12.5156 8.37375 12.4219C8.13938 12.0469 8.28 11.5781 8.60813 11.3906C8.98313 11.1562 9.45188 11.2969 9.63938 11.625C9.73313 11.7656 11.7956 15 17.28 15C22.7175 15 24.78 11.7656 24.8738 11.625C25.0613 11.2969 25.53 11.1562 25.905 11.3906ZM19.53 21.75V16.3594C18.8269 16.4531 18.0769 16.5 17.28 16.5C16.4363 16.5 15.6863 16.4531 15.03 16.3594V21.75H19.53Z" fill="#20272D"/>
</svg>
