<svg width="36" height="36" viewBox="0 0 36 36" fill="none" xmlns="http://www.w3.org/2000/svg">
<path d="M29.2969 16.4531L19.5469 6.65625C19.0781 6.23438 18.5156 6 17.9531 6C17.3438 6 16.8281 6.23438 16.4062 6.70312L6.65625 16.4531C6.1875 16.875 6 17.4375 6 18C6 18.6094 6.1875 19.1719 6.65625 19.5938L16.4062 29.3438C16.8281 29.8125 17.3906 30 18 30C18.5625 30 19.125 29.7656 19.5469 29.3438L29.2969 19.5469C29.7656 19.125 30 18.5625 30 18C29.9531 17.4375 29.7656 16.875 29.2969 16.4531ZM28.2656 18.5625L18.5156 28.3125C18.3281 28.5 18.0938 28.5 18 28.5C17.8594 28.5 17.625 28.5 17.4375 28.3125L7.6875 18.5625C7.40625 18.2812 7.40625 17.8125 7.6875 17.4844L17.4375 7.73438C17.625 7.54688 17.8594 7.5 18 7.5C18.0938 7.5 18.3281 7.54688 18.5156 7.73438L28.2656 17.4844C28.5469 17.7656 28.5469 18.2344 28.2656 18.5625ZM20.7656 12.9844C20.4844 12.7031 19.9688 12.7031 19.6875 12.9844C19.4062 13.2656 19.4062 13.7812 19.6875 14.0625L22.1719 16.5H17.25C15.9844 16.5 15 17.5312 15 18.75V21.75C15 22.1719 15.3281 22.5 15.75 22.5C16.125 22.5 16.5 22.1719 16.5 21.75V18.75C16.4531 18.375 16.8281 18 17.25 18H22.1719L19.6875 20.4844C19.4062 20.7656 19.4062 21.2812 19.6875 21.5625C19.8281 21.7031 20.0156 21.75 20.25 21.75C20.4375 21.75 20.625 21.7031 20.7656 21.5625L24.5156 17.8125C24.7969 17.5312 24.7969 17.0156 24.5156 16.7344L20.7656 12.9844Z" fill="black"/>
</svg>
