<svg width="36" height="36" viewBox="0 0 36 36" fill="none" xmlns="http://www.w3.org/2000/svg">
<path d="M14.375 8H9.125C8.46875 8 8 8.51562 8 9.125V14.375C8 15.0312 8.46875 15.5 9.125 15.5C9.73438 15.5 10.25 15.0312 10.25 14.375V10.25H14.375C14.9844 10.25 15.5 9.78125 15.5 9.125C15.5 8.51562 14.9844 8 14.375 8ZM27.875 8H22.625C21.9688 8 21.5 8.51562 21.5 9.125C21.5 9.78125 21.9688 10.25 22.625 10.25H26.75V14.375C26.75 15.0312 27.2188 15.5 27.875 15.5C28.4844 15.5 29 15.0312 29 14.375V9.125C29 8.51562 28.4844 8 27.875 8ZM14.375 26.75H10.25V22.625C10.25 22.0156 9.73438 21.5 9.125 21.5C8.46875 21.5 8 22.0156 8 22.625V27.875C8 28.5312 8.46875 29 9.125 29H14.375C14.9844 29 15.5 28.5312 15.5 27.875C15.5 27.2656 14.9844 26.75 14.375 26.75ZM27.875 21.5C27.2188 21.5 26.75 22.0156 26.75 22.625V26.75H22.625C21.9688 26.75 21.5 27.2656 21.5 27.875C21.5 28.5312 21.9688 29 22.625 29H27.875C28.4844 29 29 28.5312 29 27.875V22.625C29 22.0156 28.4844 21.5 27.875 21.5Z" fill="black"/>
</svg>
