<svg width="36" height="36" viewBox="0 0 36 36" fill="none" xmlns="http://www.w3.org/2000/svg">
<path d="M18.25 11.5C19.4688 11.5 20.5 10.5156 20.5 9.25C20.5 8.03125 19.4688 7 18.25 7C16.9844 7 16 8.03125 16 9.25C16 10.5156 16.9844 11.5 18.25 11.5ZM18.25 25C16.9844 25 16 26.0312 16 27.25C16 28.5156 16.9844 29.5 18.25 29.5C19.4688 29.5 20.5 28.5156 20.5 27.25C20.5 26.0312 19.4688 25 18.25 25ZM18.25 16C16.9844 16 16 17.0312 16 18.25C16 19.5156 16.9844 20.5 18.25 20.5C19.4688 20.5 20.5 19.5156 20.5 18.25C20.5 17.0312 19.4688 16 18.25 16Z" fill="black"/>
</svg>
