<svg width="36" height="36" viewBox="0 0 36 36" fill="none" xmlns="http://www.w3.org/2000/svg">
<path d="M31.8125 17.7031C29.2812 11.9375 24.2188 8 18.5 8C12.7344 8 7.67188 11.9375 5.14062 17.7031C5.04688 17.9375 5 18.2656 5 18.5C5 18.7344 5.04688 19.1094 5.14062 19.3438C7.67188 25.1094 12.7344 29 18.5 29C24.2188 29 29.2812 25.1094 31.8125 19.3438C31.9062 19.1094 32 18.7344 32 18.5C32 18.2656 31.9062 17.9375 31.8125 17.7031ZM18.5 26.75C13.8125 26.75 9.5 23.6094 7.25 18.5469C9.54688 13.4375 13.8125 10.25 18.5 10.25C23.1406 10.25 27.4531 13.4375 29.7031 18.5C27.4062 23.6094 23.1406 26.75 18.5 26.75ZM18.5 12.5C15.1719 12.5 12.5 15.2188 12.5 18.5C12.5 21.8281 15.1719 24.5 18.5 24.5C21.7812 24.5 24.5 21.8281 24.5 18.5469C24.5 15.2188 21.7812 12.5 18.5 12.5ZM18.5 22.25C16.3906 22.25 14.75 20.6094 14.75 18.5C14.75 18.5 14.75 18.4531 14.75 18.4062C14.9844 18.5 15.2188 18.5 15.5 18.5C17.1406 18.5 18.5 17.1875 18.5 15.5C18.5 15.2656 18.4531 15.0312 18.3594 14.7969C18.4062 14.7969 18.4531 14.75 18.5 14.75C20.5625 14.75 22.25 16.4375 22.25 18.5469C22.25 20.6094 20.5625 22.25 18.5 22.25Z" fill="black"/>
</svg>
