<svg width="36" height="36" viewBox="0 0 36 36" fill="none" xmlns="http://www.w3.org/2000/svg">
<path d="M24.375 20C23.7188 20 23.25 20.5156 23.25 21.125V26.375C23.25 26.6094 23.0625 26.75 22.875 26.75H8.625C8.39062 26.75 8.25 26.6094 8.25 26.375V12.125C8.25 11.9375 8.39062 11.75 8.625 11.75H13.875C14.4844 11.75 15 11.2812 15 10.625C15 10.0156 14.4844 9.5 13.875 9.5H8.625C7.17188 9.5 6 10.7188 6 12.125V26.375C6 27.8281 7.17188 29 8.625 29H22.875C24.2812 29 25.5 27.8281 25.5 26.375V21.125C25.5 20.5156 24.9844 20 24.375 20ZM28.875 5H21C20.3438 5 19.875 5.51562 19.875 6.125C19.875 6.78125 20.3438 7.25 21 7.25H26.1562L14.5781 18.8281C14.1094 19.2969 14.1094 20 14.5781 20.4219C14.7656 20.6562 15.0469 20.75 15.375 20.75C15.6562 20.75 15.9375 20.6562 16.125 20.4219L27.75 8.84375V14C27.75 14.6562 28.2188 15.125 28.875 15.125C29.4844 15.125 30 14.6562 30 14V6.125C30 5.51562 29.4844 5 28.875 5Z" fill="black"/>
</svg>
