<svg width="36" height="36" viewBox="0 0 36 36" fill="none" xmlns="http://www.w3.org/2000/svg">
<path d="M18.24 12C21.5212 12 24.24 14.7188 24.24 18V18.0469C24.24 21.3281 21.5212 24 18.24 24C14.9119 24 12.24 21.3281 12.24 18C12.24 14.7188 14.9119 12 18.24 12ZM18.24 22.5C20.6775 22.5 22.74 20.4844 22.74 18.0469C22.74 15.5625 20.6775 13.5 18.24 13.5C15.7556 13.5 13.74 15.5625 13.74 18C13.74 20.4844 15.7556 22.5 18.24 22.5ZM31.5525 17.2031C31.6462 17.4375 31.74 17.8125 31.74 18C31.74 18.2344 31.6462 18.6094 31.5525 18.8438C29.0212 24.6094 23.9587 28.5 18.24 28.5C12.4744 28.5 7.41187 24.6094 4.88062 18.8438C4.78687 18.6094 4.73999 18.2344 4.73999 18C4.73999 17.8125 4.78687 17.4375 4.88062 17.2031C7.41187 11.4375 12.4744 7.5 18.24 7.5C23.9587 7.5 29.0212 11.4375 31.5525 17.2031ZM30.1931 18.2344C30.1931 18.1875 30.1931 18.0469 30.24 18C30.1931 18 30.1931 17.8594 30.1931 17.8125C27.8025 12.375 23.2087 9 18.24 9C13.2244 9 8.63062 12.375 6.23999 17.8125C6.23999 17.8594 6.23999 18 6.19312 18.0469C6.23999 18.0469 6.23999 18.1875 6.23999 18.2344C8.63062 23.6719 13.2244 27 18.24 27C23.2087 27 27.8025 23.6719 30.1931 18.2344Z" fill="#20272D"/>
</svg>
