<svg width="36" height="36" viewBox="0 0 36 36" fill="none" xmlns="http://www.w3.org/2000/svg">
<path d="M32.5626 28.0312L27.7344 24.1875C29.1876 22.7344 30.4532 20.9062 31.3438 18.8438C31.4376 18.6562 31.4844 18.2812 31.4844 18.0469C31.4844 17.8125 31.4376 17.4844 31.3438 17.25C28.8126 11.4844 23.7501 7.59375 18.0313 7.59375C15.0782 7.59375 12.3126 8.625 10.0157 10.4062L4.81256 6.28125C4.62506 6.09375 4.39068 6 4.15631 6C3.78131 6 3.45318 6.1875 3.26568 6.46875C2.84381 6.9375 2.93756 7.64062 3.45318 8.01562L31.1563 29.7188C31.6251 30.1406 32.3282 30.0469 32.7032 29.5312C33.1719 29.1094 33.0782 28.4062 32.5626 28.0312ZM21.5001 19.3125L17.6563 16.3594C17.8438 15.9375 17.9844 15.5156 17.9844 15C17.9844 14.7656 17.9376 14.5312 17.8438 14.2969C17.9376 14.2969 17.9844 14.25 18.0313 14.25C20.0938 14.25 21.7813 15.9375 21.7813 18.0469C21.7813 18.4688 21.6407 18.9375 21.5001 19.3125ZM23.3282 20.7656C23.7501 19.9219 24.0313 19.0312 24.0313 18.0469C24.0313 14.7188 21.3126 12 18.0313 12C16.4844 12 15.1251 12.6094 14.0938 13.5L11.8438 11.7656C13.7188 10.5 15.8282 9.75 18.0313 9.75C22.6719 9.75 26.9844 12.9375 29.2344 18C28.3907 19.875 27.2657 21.4688 25.9063 22.7344L23.3282 20.7656ZM18.0313 24C18.6407 24 19.2501 23.9062 19.8126 23.7188L17.1876 21.6562C16.1094 21.4219 15.1719 20.6719 14.6563 19.6875L12.0313 17.625C12.0313 17.7656 12.0313 17.9062 12.0313 18C12.0313 21.3281 14.7032 24 18.0313 24ZM18.0313 26.25C13.3438 26.25 9.03131 23.1094 6.78131 18.0469C7.29693 16.9219 7.90631 15.8906 8.60943 15L6.82818 13.5469C5.98443 14.6719 5.28131 15.8906 4.67193 17.2031C4.57818 17.4375 4.48443 17.7656 4.48443 18C4.48443 18.2344 4.53131 18.6094 4.62506 18.8438C7.15631 24.6094 12.2188 28.5 17.9844 28.5C20.0938 28.5 22.1094 27.9375 23.9844 26.9531L21.9688 25.4062C20.7501 25.9688 19.3907 26.25 18.0313 26.25Z" fill="black"/>
</svg>
