<svg width="36" height="36" viewBox="0 0 36 36" fill="none" xmlns="http://www.w3.org/2000/svg">
<path d="M29.2031 8.34375L27.6562 6.79688C27.1406 6.28125 26.4844 6 25.8281 6C25.125 6 24.4688 6.28125 23.9531 6.79688L13.8281 16.9219C13.4531 17.25 13.2188 17.7188 13.125 18.1875L12 23.25C11.9062 23.6719 12.2344 24 12.6094 24C12.6562 24 12.6562 24 12.7031 24C12.7031 24 16.1719 23.2969 17.7656 22.9219C18.2344 22.7812 18.6562 22.5469 18.9844 22.2188L29.1562 12.0469C30.2344 11.0156 30.2344 9.375 29.2031 8.34375ZM27.6094 10.4531L17.4375 20.625C17.3906 20.6719 17.3438 20.7188 17.2969 20.7188C16.6406 20.8594 15.6562 21.0938 14.7188 21.2812L15.3281 18.7031C15.3281 18.6094 15.375 18.5625 15.4219 18.5156L25.5469 8.39062C25.6406 8.29688 25.7344 8.25 25.8281 8.25C25.875 8.25 25.9688 8.29688 26.0625 8.39062L27.6094 9.9375C27.75 10.0781 27.75 10.3125 27.6094 10.4531ZM25.875 19.5C25.2188 19.5 24.75 20.0156 24.75 20.625V26.625C24.75 27.2812 24.2344 27.75 23.625 27.75H9.375C8.71875 27.75 8.25 27.2812 8.25 26.625V12.375C8.25 11.7656 8.71875 11.25 9.375 11.25H16.125C16.7344 11.25 17.25 10.7812 17.25 10.125C17.25 9.51562 16.7344 9 16.125 9H9.32812C7.5 9 6 10.5469 6 12.375V26.625C6 28.5 7.5 30 9.32812 30H23.5312C25.3594 30 26.8594 28.5 26.8594 26.625L27 20.625C27 20.0156 26.4844 19.5 25.875 19.5Z" fill="black"/>
</svg>
