<svg width="36" height="36" viewBox="0 0 36 36" fill="none" xmlns="http://www.w3.org/2000/svg">
<path d="M32.5312 28.0312L27.7031 24.1875C29.1562 22.7344 30.4219 20.9062 31.3125 18.8438C31.4062 18.6562 31.4531 18.2812 31.4531 18.0469C31.4531 17.8125 31.4062 17.4844 31.3125 17.25C28.7812 11.4844 23.7187 7.59375 18 7.59375C15.0469 7.59375 12.2812 8.625 9.98437 10.4062L4.78125 6.28125C4.59375 6.09375 4.35937 6 4.125 6C3.75 6 3.42187 6.1875 3.23437 6.46875C2.8125 6.9375 2.90625 7.64062 3.42187 8.01562L31.125 29.7188C31.5937 30.1406 32.2969 30.0469 32.6719 29.5312C33.1406 29.1094 33.0469 28.4062 32.5312 28.0312ZM21.4687 19.3125L17.625 16.3594C17.8125 15.9375 17.9531 15.5156 17.9531 15C17.9531 14.7656 17.9062 14.5312 17.8125 14.2969C17.9062 14.2969 17.9531 14.25 18 14.25C20.0625 14.25 21.75 15.9375 21.75 18.0469C21.75 18.4688 21.6094 18.9375 21.4687 19.3125ZM23.2969 20.7656C23.7187 19.9219 24 19.0312 24 18.0469C24 14.7188 21.2812 12 18 12C16.4531 12 15.0937 12.6094 14.0625 13.5L11.8125 11.7656C13.6875 10.5 15.7969 9.75 18 9.75C22.6406 9.75 26.9531 12.9375 29.2031 18C28.3594 19.875 27.2344 21.4688 25.875 22.7344L23.2969 20.7656ZM18 24C18.6094 24 19.2187 23.9062 19.7812 23.7188L17.1562 21.6562C16.0781 21.4219 15.1406 20.6719 14.625 19.6875L12 17.625C12 17.7656 12 17.9062 12 18C12 21.3281 14.6719 24 18 24ZM18 26.25C13.3125 26.25 9 23.1094 6.75 18.0469C7.26562 16.9219 7.875 15.8906 8.57812 15L6.79687 13.5469C5.95312 14.6719 5.25 15.8906 4.64062 17.2031C4.54687 17.4375 4.45312 17.7656 4.45312 18C4.45312 18.2344 4.5 18.6094 4.59375 18.8438C7.125 24.6094 12.1875 28.5 17.9531 28.5C20.0625 28.5 22.0781 27.9375 23.9531 26.9531L21.9375 25.4062C20.7187 25.9688 19.3594 26.25 18 26.25Z" fill="#20272D"/>
</svg>
