<svg width="36" height="36" viewBox="0 0 36 36" fill="none" xmlns="http://www.w3.org/2000/svg">
<path d="M21.7031 16.875C22.3594 16.875 22.875 16.4062 22.875 15.75C22.875 15.1406 22.3594 14.625 21.7031 14.625C21.0938 14.625 20.625 15.1406 20.625 15.75C20.625 16.4062 21.0938 16.875 21.7031 16.875ZM14.2031 16.875C14.8594 16.875 15.375 16.4062 15.375 15.75C15.375 15.1406 14.8594 14.625 14.2031 14.625C13.5938 14.625 13.125 15.1406 13.125 15.75C13.125 16.4062 13.5938 16.875 14.2031 16.875ZM22.5 21.75H13.4531C13.0312 21.75 12.7031 22.125 12.7031 22.5C12.7031 22.9219 13.0312 23.25 13.4531 23.25H22.4531C22.8281 23.25 23.2031 22.9219 23.2031 22.5C23.2031 22.125 22.875 21.75 22.5 21.75ZM18 6C11.3438 6 6 11.3906 6 18C6 24.6562 11.3438 30 18 30C24.6094 30 30 24.6562 30 18C30 11.3906 24.6094 6 18 6ZM18 28.5C12.1875 28.5 7.5 23.8125 7.5 18C7.5 12.2344 12.1875 7.5 18 7.5C23.7656 7.5 28.5 12.2344 28.5 18C28.5 23.8125 23.7656 28.5 18 28.5Z" fill="black"/>
</svg>
