<svg width="36" height="36" viewBox="0 0 36 36" fill="none" xmlns="http://www.w3.org/2000/svg">
<path d="M29.79 9.26562C29.4619 8.51562 28.665 8 27.8212 8H8.18062C7.33687 8 6.53999 8.51562 6.21187 9.26562C5.83687 10.0156 5.97749 10.9062 6.49312 11.5156L14.2744 21.0312V24.2188C14.2744 24.8281 14.5556 25.3438 15.0244 25.7188L18.8681 28.6719C19.1962 28.9062 19.5712 29 19.9462 29C20.9306 29 21.7275 28.2031 21.7275 27.2188V21.0312L29.5087 11.5156C30.0244 10.9062 30.165 10.0156 29.79 9.26562ZM19.8525 19.8125C19.6181 20.0469 19.5244 20.375 19.5244 20.75V26.3281L16.5244 23.9844V20.7969C16.5244 20.4219 16.3837 20.0938 16.1494 19.8125L8.36812 10.2969H27.6337L19.8525 19.8125Z" fill="black"/>
</svg>
