<svg width="36" height="36" viewBox="0 0 36 36" fill="none" xmlns="http://www.w3.org/2000/svg">
<path d="M17.3906 21.9375C17.8594 21.4219 18.0469 20.7188 17.8594 20.0156C17.7656 19.4062 17.7188 19.6406 17.9063 19.0312C18.0938 18.3281 17.9063 17.625 17.3906 17.1094C16.9688 16.6406 16.9688 16.7344 16.8281 16.0781C16.6406 15.4219 16.125 14.8594 15.4688 14.7188C14.8125 14.5312 14.9063 14.5781 14.4375 14.1094C13.9688 13.5938 13.2188 13.4062 12.5625 13.5938C11.9063 13.7812 12.0469 13.7812 11.3906 13.5938C10.7344 13.4062 9.98439 13.5938 9.51564 14.1094C9.04689 14.5781 9.14064 14.5312 8.48439 14.7188C7.82814 14.8594 7.31252 15.4219 7.12502 16.0781C6.98439 16.7344 6.98439 16.6406 6.56252 17.1094C6.04689 17.625 5.85939 18.3281 6.04689 19.0312C6.23439 19.6406 6.18752 19.4062 6.04689 20.0156C5.85939 20.7188 6.04689 21.4219 6.56252 21.9375C7.03127 22.4062 6.93752 22.3125 7.12502 22.9688C7.31252 23.625 7.82814 24.1875 8.48439 24.3281C8.76564 24.4219 8.85939 24.4688 8.95314 24.5156V29.25C8.95314 29.5312 9.09377 29.7656 9.32814 29.9062C9.56252 30.0469 9.84377 30.0469 10.0781 29.9531L12 28.9688L13.875 29.9531C14.0156 30 14.1094 30 14.25 30C14.3438 30 14.4844 30 14.625 29.9062C14.8594 29.7656 15 29.5312 15 29.25V24.5156C15.0938 24.4688 15.1875 24.4688 15.4688 24.375C16.125 24.1875 16.6406 23.6719 16.8281 23.0156C17.0156 22.3125 16.9219 22.4062 17.3906 21.9375ZM13.5 28.0781L12.3281 27.4688C12.0938 27.375 11.8594 27.375 11.625 27.4688L10.4531 28.0781V25.4531C10.7813 25.5469 11.1094 25.5469 11.3906 25.4531C12.0469 25.2656 11.9063 25.2656 12.5625 25.4531C12.8438 25.5469 13.1719 25.5469 13.5 25.4531V28.0781ZM16.4063 20.2031C16.5 20.5781 16.5469 20.6719 16.2188 21C15.6563 21.5625 15.6094 21.6562 15.375 22.5469C15.3281 22.8281 15.0938 22.875 14.9063 22.9219C14.1563 23.1562 14.0156 23.2031 13.5 23.7656C13.2188 24.0469 13.1719 24.0469 12.7969 23.9531C12.0469 23.7656 11.9063 23.7656 11.1563 23.9531C10.7813 24.0469 10.7344 24.0469 10.4531 23.7656C9.93752 23.2031 9.79689 23.1562 9.04689 22.9219C8.85939 22.875 8.67189 22.8281 8.57814 22.5469C8.34377 21.6562 8.29689 21.5625 7.73439 21C7.40627 20.6719 7.45314 20.5781 7.54689 20.2031C7.73439 19.5938 7.73439 19.4531 7.54689 18.8438C7.45314 18.4688 7.40627 18.375 7.73439 18.0469C8.25002 17.4844 8.34377 17.3906 8.53127 16.6406C8.62502 16.2656 8.67189 16.2188 9.04689 16.0781C9.79689 15.8906 9.93752 15.8438 10.4531 15.2812C10.7344 15 10.7813 14.9531 11.1563 15.0938C11.9063 15.2812 12.0469 15.2812 12.7969 15.0938C13.1719 14.9531 13.2188 15 13.5 15.2812C14.0156 15.8438 14.1563 15.8906 14.9063 16.0781C15.2813 16.2188 15.3281 16.2656 15.4219 16.6406C15.6094 17.3906 15.7031 17.4844 16.2188 18.0469C16.5469 18.375 16.5 18.4688 16.4063 18.8438C16.2188 19.4531 16.2188 19.5938 16.4063 20.2031ZM29.1094 11.9062L24.0938 6.89062C23.5313 6.32812 22.7813 6 21.9844 6H14.9531C13.2656 6 11.9531 7.35938 11.9531 9L12 11.25C12 11.6719 12.3281 12 12.75 12C13.125 12 13.5 11.6719 13.5 11.25V9C13.5 8.20312 14.1563 7.5 15 7.5H21V12.75C21 14.0156 21.9844 15 23.25 15H28.5V27C28.5 27.8438 27.7969 28.5 27 28.5H17.25C16.8281 28.5 16.5 28.875 16.5 29.25C16.5 29.6719 16.8281 30 17.25 30H26.9531C28.5938 30 29.9531 28.6875 29.9531 27V14.0156C30 13.2188 29.6719 12.4688 29.1094 11.9062ZM23.25 13.5C22.8281 13.5 22.5 13.1719 22.5 12.75V7.64062C22.6875 7.6875 22.875 7.78125 23.0625 7.96875L28.0313 12.9375C28.2188 13.125 28.3125 13.3125 28.3594 13.5H23.25Z" fill="black"/>
</svg>
