<svg width="36" height="36" viewBox="0 0 36 36" fill="none" xmlns="http://www.w3.org/2000/svg">
<path d="M21.7031 16.875C22.3594 16.875 22.875 16.4062 22.875 15.75C22.875 15.1406 22.3594 14.625 21.7031 14.625C21.0938 14.625 20.625 15.1406 20.625 15.75C20.625 16.4062 21.0938 16.875 21.7031 16.875ZM14.2031 16.875C14.8594 16.875 15.375 16.4062 15.375 15.75C15.375 15.1406 14.8594 14.625 14.2031 14.625C13.5938 14.625 13.125 15.1406 13.125 15.75C13.125 16.4062 13.5938 16.875 14.2031 16.875ZM22.2188 21.2812C21.1406 22.5469 19.5938 23.25 18 23.25C16.3594 23.25 14.8125 22.5469 13.7344 21.2812C13.5 20.9531 13.0312 20.9531 12.7031 21.1875C12.375 21.4688 12.3281 21.9375 12.6094 22.2656C13.9219 23.8594 15.8906 24.75 18 24.75C20.0625 24.75 22.0312 23.8125 23.3438 22.2188C23.625 21.8906 23.5781 21.4219 23.25 21.1406C22.9219 20.9531 22.4531 20.9531 22.2188 21.2812ZM18 6C11.3438 6 6 11.3906 6 18C6 24.6562 11.3438 30 18 30C24.6094 30 30 24.6562 30 18C30 11.3906 24.6094 6 18 6ZM18 28.5C12.1875 28.5 7.5 23.8125 7.5 18C7.5 12.2344 12.1875 7.5 18 7.5C23.7656 7.5 28.5 12.2344 28.5 18C28.5 23.8125 23.7656 28.5 18 28.5Z" fill="black"/>
</svg>
