<svg width="36" height="36" viewBox="0 0 36 36" fill="none" xmlns="http://www.w3.org/2000/svg">
<path d="M26.6423 10.1429V25.8571C26.6423 26.2893 26.2887 26.6429 25.8564 26.6429H10.1386C9.70641 26.6429 9.35276 26.2893 9.35276 25.8571V13.8013C9.35276 13.5951 9.43626 13.3937 9.58361 13.2464L7.91851 11.5817C7.32909 12.171 7 12.9714 7 13.8063V25.8571C7 27.5906 8.40969 29 10.1436 29H25.8564C27.5903 29 29 27.5906 29 25.8571V10.1429C29 8.40937 27.5903 7 25.8564 7H13.7979C12.9629 7 12.1623 7.32902 11.5729 7.9183L7.9136 11.5768L8.74615 12.4092L9.5787 13.2415L13.2429 9.58795C13.2576 9.57321 13.2675 9.56339 13.2822 9.54866V14.4643C13.2822 15.1174 13.8078 15.6429 14.461 15.6429H23.8917C24.545 15.6429 25.0706 15.1174 25.0706 14.4643V9.35714H25.8564C26.2887 9.35714 26.6423 9.71071 26.6423 10.1429ZM22.7129 9.35714V13.2857H15.6399V9.35714H22.7129ZM21.1411 21.1429C21.1411 20.3093 20.8099 19.5099 20.2204 18.9205C19.6308 18.3311 18.8313 18 17.9975 18C17.1638 18 16.3642 18.3311 15.7747 18.9205C15.1852 19.5099 14.854 20.3093 14.854 21.1429C14.854 21.9764 15.1852 22.7758 15.7747 23.3652C16.3642 23.9546 17.1638 24.2857 17.9975 24.2857C18.8313 24.2857 19.6308 23.9546 20.2204 23.3652C20.8099 22.7758 21.1411 21.9764 21.1411 21.1429Z" fill="black"/>
</svg>
