<svg width="36" height="36" viewBox="0 0 36 36" fill="none" xmlns="http://www.w3.org/2000/svg">
<path d="M16.5056 18.9844C16.7869 19.2656 16.7869 19.7812 16.5056 20.0625L14.7712 21.75L16.5056 23.4844C16.7869 23.7656 16.7869 24.2812 16.5056 24.5625C16.365 24.7031 16.1775 24.75 15.99 24.75C15.7556 24.75 15.5681 24.7031 15.4275 24.5625L13.1775 22.3125C12.8962 22.0312 12.8962 21.5156 13.1775 21.2344L15.4275 18.9844C15.7087 18.7031 16.2244 18.7031 16.5056 18.9844ZM26.3494 11.9062C26.9119 12.4688 27.24 13.2188 27.24 14.0156V27C27.24 28.6875 25.8806 30 24.24 30H12.24C10.5525 30 9.24 28.6875 9.24 27V9C9.24 7.35938 10.5525 6 12.24 6H19.2244C20.0212 6 20.7712 6.32812 21.3337 6.89062L26.3494 11.9062ZM19.74 7.64062V12.75C19.74 13.1719 20.0681 13.5 20.49 13.5H25.5994C25.5525 13.3125 25.4587 13.125 25.2712 12.9375L20.3025 7.96875C20.115 7.78125 19.9275 7.6875 19.74 7.64062ZM25.74 27V15H20.49C19.2244 15 18.24 14.0156 18.24 12.75V7.5H12.24C11.3962 7.5 10.74 8.20312 10.74 9V27C10.74 27.8438 11.3962 28.5 12.24 28.5H24.24C25.0369 28.5 25.74 27.8438 25.74 27ZM19.9275 20.0625C19.6462 19.7812 19.6462 19.2656 19.9275 18.9844C20.2087 18.7031 20.7244 18.7031 21.0056 18.9844L23.2556 21.2344C23.5369 21.5156 23.5369 22.0312 23.2556 22.3125L21.0056 24.5625C20.865 24.7031 20.6775 24.75 20.49 24.75C20.2556 24.75 20.0681 24.7031 19.9275 24.5625C19.6462 24.2812 19.6462 23.7656 19.9275 23.4844L21.6619 21.75L19.9275 20.0625Z" fill="black"/>
</svg>
