<svg width="36" height="36" viewBox="0 0 36 36" fill="none" xmlns="http://www.w3.org/2000/svg">
<path d="M18 6.75C11.7656 6.75 6.75 11.8125 6.75 18C6.75 24.2344 11.7656 29.25 18 29.25C24.1875 29.25 29.2031 24.2344 29.2031 18C29.2031 11.8125 24.1875 6.75 18 6.75ZM25.7812 13.5H23.4844C23.1562 12.2344 22.7344 11.0625 22.2188 10.0781C23.7188 10.875 24.9375 12.0938 25.7812 13.5ZM21.75 18C21.75 18.7969 21.6562 19.5469 21.5625 20.25H14.3906C14.2969 19.5469 14.25 18.7969 14.25 18C14.25 17.25 14.2969 16.5 14.3906 15.75H21.5625C21.6562 16.5 21.75 17.2031 21.75 18ZM18 27C16.9688 27 15.6094 25.3125 14.8125 22.5H21.1406C20.3438 25.3125 18.9844 27 18 27ZM14.8125 13.5C15.6094 10.7344 16.9688 9 18 9C18.9844 9 20.3438 10.7344 21.1406 13.5H14.8125ZM13.7344 10.0781C13.2188 11.0625 12.7969 12.2344 12.4688 13.5H10.1719C11.0156 12.0938 12.2344 10.875 13.7344 10.0781ZM9.28125 15.75H12.0938C12 16.5 12 17.25 12 18C12 18.7969 12 19.5469 12.0938 20.25H9.28125C9.09375 19.5469 9 18.7969 9 18C9 17.25 9.09375 16.5 9.28125 15.75ZM10.1719 22.5H12.4688C12.7969 23.8125 13.2188 24.9844 13.7344 25.9688C12.2344 25.1719 11.0156 23.9531 10.1719 22.5ZM22.2188 25.9688C22.7344 24.9844 23.1562 23.8125 23.4844 22.5H25.7812C24.9375 23.9531 23.7188 25.1719 22.2188 25.9688ZM26.6719 20.25H23.8594C23.9531 19.5469 24 18.7969 24 18C24 17.25 23.9531 16.5 23.8594 15.75H26.6719C26.8594 16.5 27 17.25 27 18C27 18.7969 26.8594 19.5469 26.6719 20.25Z" fill="#20272D"/>
</svg>
