<svg width="36" height="36" viewBox="0 0 36 36" fill="none" xmlns="http://www.w3.org/2000/svg">
<path d="M18.75 19.6406V12C18.75 11.625 18.375 11.25 18 11.25C17.5781 11.25 17.25 11.625 17.25 12V19.6406C15.9375 19.9688 15 21.1406 15 22.5C15 24.1875 16.3125 25.5 18 25.5C19.6406 25.5 21 24.1875 21 22.5C21 21.1406 20.0156 19.9688 18.75 19.6406ZM18 24C17.1562 24 16.5 23.3438 16.5 22.5C16.5 21.7031 17.1562 21 18 21C18.7969 21 19.5 21.7031 19.5 22.5C19.5 23.3438 18.7969 24 18 24ZM18 7.5C10.5469 7.5 4.5 13.5469 4.5 21C4.5 23.4844 5.15625 25.8281 6.32812 27.7969C6.5625 28.2656 7.07812 28.5469 7.59375 28.5469H28.3594C28.875 28.5469 29.3906 28.2656 29.6719 27.7969C30.7969 25.8281 31.5 23.4844 31.5 21C31.5 13.5469 25.4531 7.5 18 7.5ZM28.3594 27H7.59375C6.5625 25.2188 6 23.1562 6 21C6 14.3906 11.3438 9 18 9C24.6094 9 30 14.3906 30 21C30 23.1562 29.4375 25.2188 28.3594 27Z" fill="black"/>
</svg>
