<svg width="36" height="36" viewBox="0 0 36 36" fill="none" xmlns="http://www.w3.org/2000/svg">
<path d="M18.75 19.6406V12C18.75 11.625 18.375 11.25 18 11.25C17.5781 11.25 17.25 11.625 17.25 12V19.6406C15.9375 19.9688 15 21.1406 15 22.5C15 24.1875 16.3125 25.5 18 25.5C19.6406 25.5 21 24.1875 21 22.5C21 21.1406 20.0156 19.9688 18.75 19.6406ZM18 24C17.1562 24 16.5 23.3438 16.5 22.5C16.5 21.7031 17.1562 21 18 21C18.7969 21 19.5 21.7031 19.5 22.5C19.5 23.3438 18.7969 24 18 24ZM10.125 21C10.125 21.6562 9.60938 22.125 9 22.125C8.34375 22.125 7.875 21.6562 7.875 21C7.875 20.3906 8.34375 19.875 9 19.875C9.60938 19.875 10.125 20.3906 10.125 21ZM12.75 14.625C12.75 15.2812 12.2344 15.75 11.625 15.75C10.9688 15.75 10.5 15.2812 10.5 14.625C10.5 14.0156 10.9688 13.5 11.625 13.5C12.2344 13.5 12.75 14.0156 12.75 14.625ZM25.5 14.625C25.5 15.2812 24.9844 15.75 24.375 15.75C23.7188 15.75 23.25 15.2812 23.25 14.625C23.25 14.0156 23.7188 13.5 24.375 13.5C24.9844 13.5 25.5 14.0156 25.5 14.625ZM18 7.5C10.5469 7.5 4.5 13.5469 4.5 21C4.5 23.4844 5.15625 25.8281 6.32812 27.7969C6.5625 28.2656 7.07812 28.5469 7.59375 28.5469H28.3594C28.875 28.5469 29.3906 28.2656 29.6719 27.7969C30.7969 25.8281 31.5 23.4844 31.5 21C31.5 13.5469 25.4531 7.5 18 7.5ZM28.3594 27H7.59375C6.5625 25.2188 6 23.1562 6 21C6 14.3906 11.3438 9 18 9C24.6094 9 30 14.3906 30 21C30 23.1562 29.4375 25.2188 28.3594 27ZM28.125 21C28.125 21.6562 27.6094 22.125 27 22.125C26.3438 22.125 25.875 21.6562 25.875 21C25.875 20.3906 26.3438 19.875 27 19.875C27.6094 19.875 28.125 20.3906 28.125 21Z" fill="black"/>
</svg>
