<svg width="36" height="36" viewBox="0 0 36 36" fill="none" xmlns="http://www.w3.org/2000/svg">
<path d="M31.5 21.75C31.5 20.1563 31.2656 18.5156 30.8906 16.9219L29.4375 11.25C28.7812 8.71877 26.2969 7.07814 23.8125 7.64064C23.4375 7.68752 23.1562 8.10939 23.25 8.53127C23.3438 8.90627 23.7188 9.18752 24.1406 9.09377C25.8281 8.71877 27.5156 9.84377 27.9844 11.625L29.4375 17.2969C29.4375 17.3906 29.4375 17.4375 29.4844 17.5313C28.3125 16.4531 26.8125 15.7969 25.125 15.7969C22.5469 15.7969 20.2969 17.2969 19.3125 19.5469H16.6406C15.6562 17.2969 13.4062 15.75 10.875 15.75C9.14062 15.75 7.64062 16.4063 6.51562 17.4844C6.51562 17.4375 6.51562 17.3906 6.51562 17.2969L7.96875 11.625C8.4375 9.84377 10.125 8.71877 11.8125 9.09377C12.2344 9.14064 12.6094 8.90627 12.7031 8.53127C12.7969 8.10939 12.5156 7.68752 12.1406 7.64064C9.60938 7.07814 7.17188 8.71877 6.51562 11.25L5.0625 16.875C4.6875 18.5156 4.5 20.1563 4.5 21.75C4.5 21.7969 4.5 21.8438 4.5 21.8906C4.5 21.9844 4.5 22.0781 4.5 22.125C4.5 25.6406 7.35938 28.5 10.875 28.5C14.3438 28.5 17.25 25.6406 17.25 22.125C17.25 21.75 17.1562 21.375 17.1094 21.0469H18.8438C18.7969 21.375 18.7031 21.75 18.7031 22.125C18.7031 25.6406 21.6094 28.5 25.0781 28.5C28.5469 28.5 31.4531 25.6406 31.4531 22.125C31.4531 22.0781 31.4062 21.9844 31.4062 21.8906C31.4531 21.8438 31.5 21.7969 31.5 21.75ZM10.875 27C8.15625 27 6 24.8438 6 22.1719C6 19.5469 8.15625 17.3438 10.875 17.3438C13.5469 17.3438 15.75 19.4531 15.75 22.125C15.75 24.8438 13.5469 27 10.875 27ZM25.125 27C22.4062 27 20.25 24.8438 20.25 22.1719C20.25 19.5469 22.4062 17.3438 25.125 17.3438C27.7969 17.3438 30 19.4531 30 22.125C30 24.8438 27.7969 27 25.125 27Z" fill="black"/>
</svg>
