<svg width="36" height="36" viewBox="0 0 36 36" fill="none" xmlns="http://www.w3.org/2000/svg">
<path d="M26.8594 20.2969L20.7188 21.2812C20.25 20.25 19.2188 19.5 18 19.5C16.3125 19.5 15 20.8594 15 22.5C15 24.1875 16.3125 25.5 18 25.5C19.5469 25.5 20.8125 24.3281 20.9531 22.7812L27.0938 21.75C27.5156 21.7031 27.7969 21.3281 27.7031 20.9062C27.6562 20.4844 27.2344 20.2031 26.8594 20.2969ZM18 24C17.1562 24 16.5 23.3438 16.5 22.5C16.5 21.7031 17.1562 21.0469 18 21.0469C18.7969 21.0469 19.5 21.7031 19.5 22.5C19.5 23.3438 18.7969 24 18 24ZM18 7.5C10.5469 7.5 4.5 13.5469 4.5 21C4.5 23.4844 5.15625 25.8281 6.32812 27.7969C6.5625 28.2656 7.07812 28.5469 7.59375 28.5469H28.3594C28.875 28.5469 29.3906 28.2656 29.6719 27.7969C30.7969 25.8281 31.5 23.4844 31.5 21C31.5 13.5469 25.4531 7.5 18 7.5ZM28.3594 27H7.59375C6.5625 25.2188 6 23.1562 6 21C6 14.3906 11.3438 9 18 9C24.6094 9 30 14.3906 30 21C30 23.1562 29.4375 25.2188 28.3594 27Z" fill="black"/>
</svg>
