<svg width="36" height="36" viewBox="0 0 36 36" fill="none" xmlns="http://www.w3.org/2000/svg">
<path d="M13.5 10.5C13.5 9.67172 14.1717 9 15 9C15.8283 9 16.5 9.67172 16.5 10.5C16.5 11.3297 15.8283 12 15 12C14.1717 12 13.5 11.3297 13.5 10.5ZM13.5 18C13.5 17.1703 14.1717 16.5 15 16.5C15.8283 16.5 16.5 17.1703 16.5 18C16.5 18.8297 15.8283 19.5 15 19.5C14.1717 19.5 13.5 18.8297 13.5 18ZM16.5 25.5C16.5 26.3297 15.8283 27 15 27C14.1717 27 13.5 26.3297 13.5 25.5C13.5 24.6703 14.1717 24 15 24C15.8283 24 16.5 24.6703 16.5 25.5ZM19.5 10.5C19.5 9.67172 20.1703 9 21 9C21.8297 9 22.5 9.67172 22.5 10.5C22.5 11.3297 21.8297 12 21 12C20.1703 12 19.5 11.3297 19.5 10.5ZM22.5 18C22.5 18.8297 21.8297 19.5 21 19.5C20.1703 19.5 19.5 18.8297 19.5 18C19.5 17.1703 20.1703 16.5 21 16.5C21.8297 16.5 22.5 17.1703 22.5 18ZM19.5 25.5C19.5 24.6703 20.1703 24 21 24C21.8297 24 22.5 24.6703 22.5 25.5C22.5 26.3297 21.8297 27 21 27C20.1703 27 19.5 26.3297 19.5 25.5Z" fill="black"/>
</svg>
