<svg width="36" height="36" viewBox="0 0 36 36" fill="none" xmlns="http://www.w3.org/2000/svg">
<path d="M15.28 28.5C16.78 28.5 18.1862 28.2188 19.4987 27.6094C19.78 28.0781 20.1081 28.4531 20.4362 28.875C18.8894 29.5781 17.1081 30 15.28 30C8.62375 30 3.28 24.6562 3.28 18C3.28 11.3906 8.62375 6 15.28 6C20.8581 6 25.5456 9.84375 26.905 15.0469C26.7644 15.0469 26.6237 15 26.53 15C26.1081 15 25.7331 15.0469 25.3581 15.0938C24.0925 10.7344 20.0612 7.5 15.28 7.5C9.4675 7.5 4.78 12.2344 4.78 18C4.78 23.8125 9.4675 28.5 15.28 28.5ZM15.28 24C16.0769 24 16.78 23.3438 16.78 22.5C16.78 21.7031 16.0769 21 15.28 21C14.4362 21 13.78 21.7031 13.78 22.5C13.78 23.3438 14.4362 24 15.28 24ZM15.28 25.5C13.5925 25.5 12.28 24.1875 12.28 22.5C12.28 21.1406 13.2175 19.9688 14.53 19.5938V10.5V9.75H16.03V10.5V19.5938C17.2956 19.9688 18.28 21.1406 18.28 22.5C18.28 24.1875 16.9206 25.5 15.28 25.5ZM10.03 11.625C10.6394 11.625 11.155 12.1406 11.155 12.75C11.155 13.4062 10.6394 13.875 10.03 13.875C9.37375 13.875 8.905 13.4062 8.905 12.75C8.905 12.1406 9.37375 11.625 10.03 11.625ZM6.655 18C6.655 17.3906 7.12375 16.875 7.78 16.875C8.38937 16.875 8.905 17.3906 8.905 18C8.905 18.6562 8.38937 19.125 7.78 19.125C7.12375 19.125 6.655 18.6562 6.655 18ZM19.405 12.75C19.405 12.1406 19.8737 11.625 20.53 11.625C21.1394 11.625 21.655 12.1406 21.655 12.75C21.655 13.4062 21.1394 13.875 20.53 13.875C19.8737 13.875 19.405 13.4062 19.405 12.75ZM31.78 23.25C31.78 21.375 30.7487 19.6875 29.155 18.75C27.5144 17.7656 25.4987 17.7656 23.905 18.75C22.2644 19.6875 21.28 21.375 21.28 23.25C21.28 25.1719 22.2644 26.8594 23.905 27.7969C25.4987 28.7812 27.5144 28.7812 29.155 27.7969C30.7487 26.8594 31.78 25.1719 31.78 23.25ZM19.78 23.25C19.78 20.8594 21.0456 18.6562 23.155 17.4375C25.2175 16.2188 27.7956 16.2188 29.905 17.4375C31.9675 18.6562 33.28 20.8594 33.28 23.25C33.28 25.6875 31.9675 27.8906 29.905 29.1094C27.7956 30.3281 25.2175 30.3281 23.155 29.1094C21.0456 27.8906 19.78 25.6875 19.78 23.25ZM27.655 19.5L27.1394 22.5H30.28L25.405 27L25.8737 24H22.78L27.655 19.5Z" fill="#20272D"/>
</svg>
