<svg width="36" height="36" viewBox="0 0 36 36" fill="none" xmlns="http://www.w3.org/2000/svg">
<path d="M10.125 21C10.125 21.6562 9.60938 22.125 9 22.125C8.34375 22.125 7.875 21.6562 7.875 21C7.875 20.3906 8.34375 19.875 9 19.875C9.60938 19.875 10.125 20.3906 10.125 21ZM18 13.125C18.6094 13.125 19.125 12.6562 19.125 12C19.125 11.3906 18.6094 10.875 18 10.875C17.3438 10.875 16.875 11.3906 16.875 12C16.875 12.6562 17.3438 13.125 18 13.125ZM11.625 13.5C10.9688 13.5 10.5 14.0156 10.5 14.625C10.5 15.2812 10.9688 15.75 11.625 15.75C12.2344 15.75 12.75 15.2812 12.75 14.625C12.75 14.0156 12.2344 13.5 11.625 13.5ZM24.7969 14.0625C25.125 14.3438 25.1719 14.8125 24.8906 15.0938L20.3438 20.7188C20.7656 21.2344 21 21.8438 21 22.5C21 24.1875 19.6406 25.5 18 25.5C16.3125 25.5 15 24.1875 15 22.5C15 20.8594 16.3125 19.5 18 19.5C18.4219 19.5 18.8438 19.6406 19.2188 19.7812L23.7656 14.1562C24.0469 13.8281 24.5156 13.7812 24.7969 14.0625ZM19.5 22.5C19.5 21.7031 18.7969 21.0469 18 21.0469C17.1562 21.0469 16.5 21.7031 16.5 22.5C16.5 23.3438 17.1562 24 18 24C18.7969 24 19.5 23.3438 19.5 22.5ZM27 19.875C26.3438 19.875 25.875 20.3906 25.875 21C25.875 21.6562 26.3438 22.125 27 22.125C27.6094 22.125 28.125 21.6562 28.125 21C28.125 20.3906 27.6094 19.875 27 19.875ZM31.5 21C31.5 23.4844 30.7969 25.8281 29.6719 27.7969C29.3906 28.2656 28.875 28.5469 28.3594 28.5469H7.59375C7.07812 28.5469 6.5625 28.2656 6.32812 27.7969C5.15625 25.8281 4.5 23.4844 4.5 21C4.5 13.5469 10.5469 7.5 18 7.5C25.4531 7.5 31.5 13.5469 31.5 21ZM30 21C30 14.3906 24.6094 9 18 9C11.3438 9 6 14.3906 6 21C6 23.1562 6.5625 25.2188 7.59375 27H28.3594C29.4375 25.2188 30 23.1562 30 21Z" fill="black"/>
</svg>
