<svg width="36" height="36" viewBox="0 0 36 36" fill="none" xmlns="http://www.w3.org/2000/svg">
<path d="M30 15.7969C30 15.375 29.625 15.0469 29.25 15.0469C29.0156 15.0469 28.8281 15.0938 28.6875 15.2344L28.125 15.8438L20.1562 7.875L20.7656 7.3125C20.9062 7.17188 20.9531 6.98438 20.9531 6.75C20.9531 6.32812 20.625 6 20.2031 6C20.0156 6 19.8281 6.09375 19.6875 6.23438L12.9375 12.9844C12.7969 13.125 12.7031 13.3125 12.7031 13.5C12.7031 13.9688 13.0781 14.25 13.4531 14.25C13.6406 14.25 13.875 14.2031 14.0156 14.0625L14.5781 13.4531L18.0469 16.9219L14.4844 20.5781L14.0625 20.1094C13.6406 19.7344 13.125 19.5469 12.6094 19.5469C12.0938 19.5469 11.5781 19.7344 11.2031 20.1094L6.5625 24.75C6.1875 25.125 6 25.6406 6 26.1562C6 26.6719 6.1875 27.2344 6.5625 27.6094L8.39062 29.4375C8.76562 29.8125 9.28125 30 9.84375 30C10.3594 30 10.875 29.8125 11.25 29.4375L15.8906 24.7969C16.2656 24.4219 16.4531 23.9062 16.4531 23.3906C16.4531 22.875 16.2656 22.3125 15.8906 21.9375L15.5625 21.6094L19.0781 17.9531L22.5469 21.4219L21.9375 21.9844C21.7969 22.1719 21.75 22.3594 21.75 22.5469C21.75 22.9688 22.0781 23.2969 22.5 23.2969C22.6875 23.2969 22.875 23.2031 23.0156 23.0625L29.7656 16.3125C29.9062 16.1719 30 15.9844 30 15.7969ZM14.9531 23.3906C14.9531 23.5312 14.9062 23.6719 14.8125 23.7656L10.2188 28.3594C10.125 28.4531 9.98438 28.5 9.84375 28.5C9.70312 28.5 9.5625 28.4531 9.46875 28.3594L7.64062 26.5312C7.54688 26.4375 7.5 26.2969 7.5 26.1562C7.5 26.0156 7.54688 25.875 7.64062 25.7812L12.2344 21.1875C12.3281 21.0938 12.4688 21 12.6094 21C12.75 21 12.8906 21.0938 12.9844 21.1875L14.8125 23.0156C14.9062 23.1094 14.9531 23.25 14.9531 23.3906ZM15.6562 12.375L19.0781 8.95312L27.0469 16.9219L23.625 20.3438L15.6562 12.375Z" fill="black"/>
</svg>
