<svg width="36" height="36" viewBox="0 0 36 36" fill="none" xmlns="http://www.w3.org/2000/svg">
<path d="M25.875 27.75H25.5V26.9062C25.5 24.9844 24.75 23.2031 23.3906 21.8438L19.5469 18L23.3906 14.2031C24.75 12.8438 25.5 11.0625 25.5 9.14062V8.25H25.875C26.4844 8.25 27 7.78125 27 7.125C27 6.51562 26.4844 6 25.875 6H10.125C9.46875 6 9 6.51562 9 7.125C9 7.78125 9.46875 8.25 10.125 8.25H10.5V9.28125C10.5 11.1094 11.1562 12.8438 12.4219 14.1562L16.0781 18L12.4219 21.8906C11.1562 23.2031 10.5 24.9375 10.5 26.7656V27.75H10.125C9.46875 27.75 9 28.2656 9 28.875C9 29.5312 9.46875 30 10.125 30H25.875C26.4844 30 27 29.5312 27 28.875C27 28.2656 26.4844 27.75 25.875 27.75ZM13.5938 12C13.0312 11.2031 12.75 10.2656 12.75 9.28125V8.25H23.25V9.14062C23.25 10.2188 22.875 11.2031 22.2656 12H13.5938ZM13.5938 24C13.7344 23.8125 13.875 23.625 14.0625 23.4375L17.8125 19.4531L21.7969 23.4375C21.9844 23.625 22.125 23.8125 22.2656 24H13.5938Z" fill="black"/>
</svg>
