<svg width="36" height="36" viewBox="0 0 36 36" fill="none" xmlns="http://www.w3.org/2000/svg">
<path d="M27.9375 9.60938C25.8281 7.54688 23.5781 7.5 22.9688 7.5C22.3594 7.5 20.0625 7.54688 18 9.60938C15.8906 7.54688 13.5938 7.5 12.9844 7.5C12.4219 7.5 10.125 7.54688 8.01562 9.60938C6.70312 10.875 6 12.6094 6 14.4375C6 15.9375 6.46875 17.2969 7.3125 18.4688C7.45312 18.6562 7.6875 18.75 7.92188 18.75H13.1719L14.625 15.4219L17.2969 21.3281C17.5312 21.8906 18.375 21.9375 18.6562 21.375L21 16.6875L22.0312 18.75H28.0312C28.2656 18.75 28.5 18.6562 28.6406 18.4688C29.4844 17.2969 30 15.9375 30 14.4375C30 12.6094 29.25 10.875 27.9375 9.60938ZM27.6562 17.25H22.9688L21.6562 14.6719C21.375 14.1094 20.5781 14.1094 20.2969 14.6719L18 19.2656L15.2812 13.2188C15 12.6094 14.1562 12.6094 13.9219 13.2188L12.2344 17.25H8.29688C7.875 16.5469 6.28125 13.3594 9.14062 10.5469C10.2188 9.51562 11.625 9 12.9844 9C14.5781 9 15.5625 9.28125 18 11.6719C20.5781 9.14062 21.4688 9 22.9688 9C24.375 9 25.7344 9.51562 26.8125 10.5469C29.6719 13.4062 28.0781 16.5938 27.6562 17.25ZM25.2188 20.25C25.0312 20.25 24.7969 20.2969 24.6562 20.4375L18.5625 26.7656C18.2812 27.0469 17.8125 27.0469 17.5312 26.7656L11.2969 20.4844C11.1562 20.3438 10.9688 20.25 10.7812 20.25C10.125 20.25 9.75 21.0469 10.2188 21.5156L16.4531 27.8438C17.3438 28.6875 18.75 28.6875 19.6406 27.8438L25.7344 21.5156C26.2031 21.0469 25.875 20.25 25.2188 20.25Z" fill="black"/>
</svg>
