<svg width="36" height="36" viewBox="0 0 36 36" fill="none" xmlns="http://www.w3.org/2000/svg">
<path d="M29.3633 7.6972C26.4629 5.27142 22.1914 5.64056 19.502 8.38274L18.5 9.49017L17.4453 8.38274C15.2832 6.1679 10.959 4.84954 7.58399 7.6972C4.26172 10.5449 4.10352 15.6074 7.05664 18.6659L17.2871 29.2128C17.6035 29.5292 18.0254 29.6874 18.4473 29.6874C18.9219 29.6874 19.3438 29.5292 19.6602 29.2128L29.8906 18.6659C32.8438 15.6074 32.6856 10.5449 29.3633 7.6972ZM28.6777 17.5058L18.5 28.0527L8.26953 17.5058C6.26563 15.3964 5.84375 11.4413 8.69141 9.01556C11.5918 6.53704 14.9668 8.33001 16.2324 9.59564L18.5 11.9159L20.7148 9.59564C21.9277 8.33001 25.3555 6.53704 28.2559 9.01556C31.1035 11.4413 30.6816 15.3964 28.6777 17.5058Z" fill="black"/>
</svg>
