<svg width="36" height="36" viewBox="0 0 36 36" fill="none" xmlns="http://www.w3.org/2000/svg">
<path d="M17.75 19.5C17.3281 19.5 17 19.875 17 20.25V24.75C17 25.1719 17.3281 25.5 17.75 25.5C18.125 25.5 18.5 25.1719 18.5 24.75V20.25C18.5 19.875 18.125 19.5 17.75 19.5ZM20.75 19.5C20.3281 19.5 20 19.875 20 20.25V24.75C20 25.1719 20.3281 25.5 20.7031 25.5C21.0781 25.5 21.5 25.1719 21.5 24.75L21.4531 20.25C21.4531 19.875 21.125 19.5 20.75 19.5ZM25.625 15.4688C25.0156 14.6719 24.0312 14.1562 22.9531 14.1562H22.3438C22.1562 14.1562 21.9688 14.2031 21.8281 14.2031C21.2188 13.7812 20.5156 13.5 19.7656 13.5H19.2031V9.375C19.2031 7.54688 17.7031 6 15.8281 6C14 6 12.4531 7.54688 12.4531 9.375V17.2969C11.9375 17.0625 11.5156 17.0625 11.2344 17.0625C9.17188 17.0625 8 18.7969 8 20.3438C8 21.0469 8.1875 21.7031 8.60938 22.2656L12.3125 27.1875C13.625 28.9688 15.7812 30 17.9844 30H23.1406C23.4219 30 23.75 30 23.9844 29.9062C25.3438 29.625 26.5156 28.9688 27.4062 27.9844C28.4375 26.9531 29 25.5469 29 24.0469V18.8906C29 17.0156 27.5 15.5156 25.625 15.4688ZM26.75 24.0469C26.75 24.9375 26.375 25.8281 25.7656 26.4844C25.2031 27.0938 24.4062 27.5156 23.4219 27.7031C23.3281 27.75 23.2344 27.75 23.1406 27.75H17.9844C16.4844 27.75 15.0312 27.0469 14.0938 25.8281L10.4375 20.9531C10.2969 20.7656 10.25 20.5312 10.25 20.3438C10.25 19.5469 10.9062 19.3125 11.2344 19.3125C11.4688 19.3125 11.7969 19.3594 12.0781 19.7344L13.3906 21.4688C13.5312 21.6562 13.7656 21.7969 14 21.7969C14.5156 21.7969 14.75 21.2812 14.75 21.0469V9.375C14.75 8.76562 15.2188 8.25 15.8281 8.25C16.4375 8.25 16.9531 8.76562 16.9531 9.375V15.5156C16.9531 15.8438 17.1875 16.2656 17.7031 16.2656C18.2656 16.2656 18.3125 15.75 19.1094 15.75H19.7656C20.75 15.75 20.6094 16.6875 21.4062 16.6875C21.7812 16.6875 21.8281 16.4062 22.3438 16.4062H22.9531C24.2188 16.4062 23.7969 17.7188 24.875 17.7188H25.5312C26.1875 17.7188 26.7031 18.2344 26.7031 18.8906V24.0469H26.75ZM23.75 19.5C23.3281 19.5 23 19.875 23 20.25V24.75C23 25.1719 23.3281 25.5 23.75 25.5C24.125 25.5 24.5 25.1719 24.5 24.75V20.25C24.5 19.875 24.125 19.5 23.75 19.5Z" fill="black"/>
</svg>
