<svg width="36" height="36" viewBox="0 0 36 36" fill="none" xmlns="http://www.w3.org/2000/svg">
<path d="M20.25 7.5C21.4688 7.5 22.5 8.53125 22.5 9.75C22.5 10.1719 22.8281 10.5 23.25 10.5C23.625 10.5 24 10.1719 24 9.75C24 7.6875 22.3125 6 20.25 6C19.8281 6 19.5 6.375 19.5 6.75C19.5 7.17188 19.8281 7.5 20.25 7.5ZM25.5469 11.0156C23.5781 11.0156 22.875 12.75 22.7812 13.1719L17.5312 7.92188C17.0156 7.40625 16.3594 7.125 15.6562 7.125C15.375 7.125 13.7812 7.21875 13.2188 8.8125C12.9844 8.71875 12.75 8.71875 12.4688 8.71875C11.1562 8.71875 9.89062 9.75 9.89062 11.2969C9.89062 11.5312 9.89062 11.8125 9.98438 12.0469C9.14062 12.3281 8.29688 13.1719 8.29688 14.4844C8.29688 15.0469 8.48438 15.6562 8.85938 16.1719C8.67188 16.3125 7.45312 16.9688 7.45312 18.4688C7.45312 19.1719 7.6875 19.875 8.25 20.4375L14.1094 26.25C15.6094 27.7031 17.5312 28.5 19.5938 28.5C21.6562 28.5 23.5781 27.7031 25.0312 26.2969L25.9688 25.3594C27.5625 23.7656 28.4531 21.6094 28.4531 19.3594V13.9219C28.5 12.3281 27.1875 11.0156 25.5469 11.0156ZM26.9531 19.3125C26.9531 21.1875 26.2031 22.9688 24.8906 24.2812L23.9531 25.1719C22.7344 26.3906 21.1406 27 19.5469 27C17.9531 27 16.3594 26.3906 15.1875 25.1719L9.32812 19.3594C9.09375 19.125 8.95312 18.7969 8.95312 18.4688C8.95312 17.7188 9.60938 17.3906 10.0781 17.3906C10.3594 17.3906 10.6406 17.4844 10.875 17.7188L14.3906 21.2344C14.5312 21.3281 14.6719 21.4219 14.8125 21.4219C15.0938 21.4219 15.375 21.1406 15.375 20.8594C15.375 20.7188 15.3281 20.5312 15.1875 20.4375L10.125 15.375C9.89062 15.1406 9.75 14.8125 9.75 14.4844C9.75 13.7812 10.4062 13.4062 10.875 13.4062C11.1562 13.4062 11.4375 13.5469 11.6719 13.7344L16.7812 18.8438C16.9219 18.9844 17.0625 19.0312 17.2031 19.0312C17.4844 19.0312 17.7656 18.7969 17.7656 18.5156C17.7656 18.375 17.7188 18.2344 17.5781 18.0938L11.7188 12.2344C11.4844 11.9531 11.3438 11.625 11.3438 11.3438C11.3438 10.5938 12 10.2188 12.4219 10.2188C12.7031 10.2188 13.0312 10.3594 13.2188 10.5469L19.1719 16.4531C19.2656 16.5469 19.4062 16.5938 19.5469 16.5938C19.875 16.5938 20.1094 16.3594 20.1094 16.0781C20.1094 15.9375 20.0625 15.7969 19.9688 15.6562L14.9062 10.6406C14.6719 10.4062 14.5312 10.0781 14.5312 9.75C14.5312 9 15.1406 8.625 15.6094 8.625C15.8906 8.625 16.2188 8.76562 16.4062 8.95312L23.5781 16.0781C23.625 16.125 23.7188 16.1719 23.8125 16.1719C24 16.1719 24.1406 16.0312 24.1406 15.8438V14.0156C24.1406 13.7344 24.375 12.5156 25.5469 12.5156C26.3438 12.5156 26.9531 13.1719 26.9531 13.9219V19.3125ZM9.75 25.5C8.48438 25.5 7.5 24.5156 7.5 23.25C7.5 22.875 7.125 22.5 6.75 22.5C6.32812 22.5 6 22.875 6 23.25C6 25.3594 7.64062 27 9.75 27C10.125 27 10.5 26.6719 10.5 26.25C10.5 25.875 10.125 25.5 9.75 25.5Z" fill="black"/>
</svg>
