<svg width="36" height="36" viewBox="0 0 36 36" fill="none" xmlns="http://www.w3.org/2000/svg">
<path d="M6.24001 16.8751C6.84938 16.8751 7.36501 17.3907 7.36501 18.0001C7.36501 18.6563 6.84938 19.1251 6.24001 19.1251C5.58376 19.1251 5.11501 18.6563 5.11501 18.0001C5.11501 17.3907 5.58376 16.8751 6.24001 16.8751ZM6.24001 21.3751C6.84938 21.3751 7.36501 21.8907 7.36501 22.5001C7.36501 23.1563 6.84938 23.6251 6.24001 23.6251C5.58376 23.6251 5.11501 23.1563 5.11501 22.5001C5.11501 21.8907 5.58376 21.3751 6.24001 21.3751ZM6.24001 25.8751C6.84938 25.8751 7.36501 26.3907 7.36501 27.0001C7.36501 27.6563 6.84938 28.1251 6.24001 28.1251C5.58376 28.1251 5.11501 27.6563 5.11501 27.0001C5.11501 26.3907 5.58376 25.8751 6.24001 25.8751ZM10.6931 23.6251C11.3494 23.6251 11.8181 24.1407 11.8181 24.797C11.8181 25.4063 11.3025 25.8751 10.6931 25.8751C10.0838 25.8751 9.61501 25.4063 9.61501 24.7501C9.61501 24.1407 10.0369 23.6251 10.6931 23.6251ZM10.6931 19.1251C11.3494 19.1251 11.8181 19.6407 11.8181 20.2501C11.8181 20.8595 11.3025 21.3751 10.6931 21.3751C10.0838 21.3751 9.61501 20.9063 9.61501 20.2501C9.61501 19.6407 10.0369 19.1251 10.6931 19.1251ZM21.7556 11.4845L30.0056 19.7345C30.1931 19.922 30.2869 20.2032 30.1931 20.4845L28.5994 25.8282C28.0838 27.4688 26.6775 28.5001 24.99 28.5001H15.9431C14.7244 28.5001 13.6931 27.5157 13.6931 26.2032V18.7501C13.6931 17.5313 14.7244 16.5001 15.9431 16.5001L19.1306 16.547L20.49 11.8126C20.5838 11.5782 20.7713 11.3438 21.0056 11.297C21.2869 11.2501 21.5681 11.297 21.7556 11.4845ZM27.1463 25.4063L28.5525 20.4845L21.5213 13.4532L20.3494 17.4845C20.2556 17.8126 19.9744 18.0001 19.6463 18.0001H15.9431C15.5213 18.0001 15.1931 18.3751 15.1931 18.7501V26.2501C15.1931 26.672 15.5213 27.0001 15.9431 27.0001H24.99C25.9744 27.0001 26.865 26.3907 27.1463 25.4063ZM31.1306 9.04695C31.5525 9.1407 31.7869 9.5157 31.74 9.98445L30.24 16.6876C30.1463 17.0157 29.865 17.297 29.49 17.297C29.4431 17.297 29.3963 17.2501 29.3494 17.2501C28.9275 17.1563 28.6931 16.7813 28.7869 16.3595L30.0994 10.3595L24.7556 9.1407L24.24 10.7813C24.0994 11.1563 23.6775 11.3907 23.2556 11.2501C22.8806 11.1095 22.6463 10.6876 22.7869 10.2657L23.5369 8.0157C23.6775 7.68758 24.0525 7.4532 24.4275 7.54695L31.1306 9.04695Z" fill="#20272D"/>
</svg>
