<svg width="36" height="36" viewBox="0 0 36 36" fill="none" xmlns="http://www.w3.org/2000/svg">
<path d="M21.75 6C17.1562 6 13.5 9.70312 13.5 14.25C13.5 15 13.5469 15.7031 13.7344 16.3594L6.32812 23.8125C6.09375 24.0469 6 24.3281 6 24.6094V28.875C6 29.5312 6.46875 30 7.125 30H12.375C12.9844 30 13.5 29.5312 13.5 28.875V27H15.375C15.9844 27 16.5 26.5312 16.5 25.875V24H17.3906C17.6719 24 17.9531 23.9062 18.1875 23.6719L19.6406 22.2656C20.2969 22.4062 21 22.5 21.75 22.5C26.2969 22.5 30 18.7969 30 14.25C30 9.70312 26.2969 6 21.75 6ZM21.75 21C20.8594 21 19.9688 20.8594 19.2188 20.5312L17.25 22.5H15V25.5H12V28.5H7.5V24.75L15.4688 16.7812C15.1406 16.0312 15 15.1406 15 14.25C15 10.5469 18 7.5 21.75 7.5C25.4531 7.5 28.5 10.5469 28.5 14.25C28.5 18 25.4531 21 21.75 21ZM24 10.875C23.3438 10.875 22.875 11.3906 22.875 12C22.875 12.6562 23.3438 13.125 24 13.125C24.6094 13.125 25.125 12.6562 25.125 12C25.125 11.3906 24.6094 10.875 24 10.875Z" fill="black"/>
</svg>
