<svg width="36" height="36" viewBox="0 0 36 36" fill="none" xmlns="http://www.w3.org/2000/svg">
<path d="M28.74 7.5C30.3806 7.5 31.74 8.85938 31.74 10.5V25.5C31.74 27.1875 30.3806 28.5 28.74 28.5H7.74001C6.05251 28.5 4.74001 27.1875 4.74001 25.5V10.5C4.74001 8.85938 6.05251 7.5 7.74001 7.5H28.74ZM9.24001 27V9H7.74001C6.89626 9 6.24001 9.70312 6.24001 10.5V25.5C6.24001 26.3438 6.89626 27 7.74001 27H9.24001ZM25.74 27V9H10.74V27H25.74ZM30.24 25.5V10.5C30.24 9.70312 29.5369 9 28.74 9H27.24V27H28.74C29.5369 27 30.24 26.3438 30.24 25.5ZM14.49 19.5C14.0681 19.5 13.74 19.1719 13.74 18.75V17.25C13.74 16.875 14.0681 16.5 14.49 16.5H16.74V14.25C16.74 13.875 17.0681 13.5 17.49 13.5H18.99C19.365 13.5 19.74 13.875 19.74 14.25V16.5H21.99C22.365 16.5 22.74 16.875 22.74 17.25V18.75C22.74 19.1719 22.365 19.5 21.99 19.5H19.74V21.75C19.74 22.1719 19.365 22.5 18.99 22.5H17.49C17.0681 22.5 16.74 22.1719 16.74 21.75V19.5H14.49Z" fill="#20272D"/>
</svg>
