<svg width="36" height="36" viewBox="0 0 36 36" fill="none" xmlns="http://www.w3.org/2000/svg">
<path d="M21.7031 25.1484C21.4688 24.9609 21.375 24.6797 21.375 24.3516C21.375 24.0703 21.4688 23.7891 21.7031 23.6016L26.1562 19.1016H7.125C6.46875 19.1016 6 18.6328 6 17.9766C6 17.3672 6.46875 16.8516 7.125 16.8516H26.1562L21.7031 12.3984C21.2344 11.9766 21.2344 11.2734 21.7031 10.8516C22.125 10.3828 22.8281 10.3828 23.2969 10.8516L29.6719 17.2266C30.0938 17.6484 30.0938 18.3516 29.6719 18.7734L23.2969 25.1484C22.8281 25.6172 22.125 25.6172 21.7031 25.1484Z" fill="black"/>
</svg>
