<svg width="36" height="36" viewBox="0 0 36 36" fill="none" xmlns="http://www.w3.org/2000/svg">
<path d="M30.9844 8.01553C29.7188 6.70303 28.0781 6.04678 26.3906 6.04678C24.6094 5.9999 22.8281 6.65615 21.5156 8.01553L18.7969 10.6405C19.4531 11.0155 20.1094 11.4374 20.6719 11.953L23.0625 9.60928C23.9062 8.71865 25.0781 8.2499 26.25 8.2499C27.375 8.2499 28.5469 8.71865 29.3906 9.60928C31.1719 11.3437 31.1719 14.203 29.3906 15.9374L24.0938 21.2343C22.4062 22.9687 19.4531 22.9687 17.7656 21.2343C16.875 20.3905 16.4062 19.2655 16.4062 18.0937C16.4062 17.2499 16.6406 16.453 17.0625 15.7968C16.5469 15.2812 15.7969 14.9999 15.0469 14.9999C15 14.9999 14.9531 14.9999 14.9531 14.9999C14.4375 15.9374 14.1562 16.9687 14.1562 18.0468C14.1562 19.8749 14.8594 21.5624 16.1719 22.828C17.4375 24.0937 19.125 24.7968 20.9062 24.7968C22.7344 24.7968 24.4219 24.1405 25.6875 22.828L30.9844 17.5312C32.2969 16.2187 32.9531 14.4843 33 12.7499C33 11.0155 32.2969 9.32803 30.9844 8.01553ZM12.8906 26.4374C12.0469 27.2812 10.875 27.7499 9.70312 27.7499C8.57812 27.7499 7.40625 27.2812 6.5625 26.4374C4.78125 24.6562 4.78125 21.7968 6.5625 20.0624L11.8594 14.7655C13.5469 13.0312 16.5 13.0312 18.1875 14.7655C19.0781 15.6093 19.5469 16.7343 19.5469 17.953C19.5469 18.7499 19.3125 19.5468 18.8906 20.2499C19.4062 20.7187 20.1562 20.9999 20.9062 20.9999C20.9531 20.9999 21 20.9999 21 20.9999C21.5156 20.0624 21.7969 19.0312 21.7969 17.953C21.7969 16.1249 21.0938 14.4374 19.7812 13.1718C18.5156 11.9062 16.8281 11.203 15.0469 11.203C13.2188 11.203 11.5312 11.9062 10.2656 13.1718L4.96875 18.5155C3.65625 19.828 3 21.5624 3 23.2968C3 24.9843 3.65625 26.7187 4.96875 28.0312C6.1875 29.2499 7.73438 29.953 9.375 29.9999C11.2031 30.0937 13.0781 29.4374 14.4844 28.0312L17.1562 25.4062C16.5 25.0312 15.8438 24.6093 15.2812 24.0937L12.8906 26.4374Z" fill="#20272D"/>
</svg>
