<svg width="36" height="36" viewBox="0 0 36 36" fill="none" xmlns="http://www.w3.org/2000/svg">
<path d="M14.2734 10.8108C14.5078 11.0452 14.6484 11.3264 14.6484 11.6077C14.6484 11.9358 14.5078 12.217 14.2734 12.4045L9.82031 16.8577H28.8984C29.5078 16.8577 30.0234 17.3733 30.0234 17.9827C30.0234 18.6389 29.5078 19.1077 28.8984 19.1077H9.82031L14.2734 23.6077C14.7422 24.0295 14.7422 24.7327 14.2734 25.1545C13.8516 25.6233 13.1484 25.6233 12.7266 25.1545L6.35156 18.7795C5.88281 18.3577 5.88281 17.6545 6.35156 17.2327L12.7266 10.8577C13.1484 10.3889 13.8516 10.3889 14.2734 10.8108Z" fill="black"/>
</svg>
