<svg width="36" height="36" viewBox="0 0 36 36" fill="none" xmlns="http://www.w3.org/2000/svg">
<path d="M16.125 11.625H28.875C29.4844 11.625 30 11.1562 30 10.5C30 9.89062 29.4844 9.375 28.875 9.375H16.125C15.4688 9.375 15 9.89062 15 10.5C15 11.1562 15.4688 11.625 16.125 11.625ZM8.25 24C7.40625 24 6.75 24.7031 6.75 25.5C6.75 26.3437 7.40625 27 8.25 27C9.04688 27 9.75 26.3437 9.75 25.5C9.75 24.7031 9.04688 24 8.25 24ZM28.875 16.875H16.125C15.4688 16.875 15 17.3906 15 18C15 18.6562 15.4688 19.125 16.125 19.125H28.875C29.4844 19.125 30 18.6562 30 18C30 17.3906 29.4844 16.875 28.875 16.875ZM28.875 24.375H14.625C13.9688 24.375 13.5 24.8906 13.5 25.5C13.5 26.1562 13.9688 26.625 14.625 26.625H28.875C29.4844 26.625 30 26.1562 30 25.5C30 24.8906 29.4844 24.375 28.875 24.375ZM11.5312 7.875L8.95312 10.7812L7.875 9.70312C7.45312 9.28125 6.75 9.28125 6.32812 9.70312C5.85938 10.1719 5.85938 10.875 6.32812 11.2969L8.20312 13.1719C8.39062 13.4062 8.67188 13.5 8.95312 13.5C9.28125 13.5 9.5625 13.3594 9.75 13.1719L13.125 9.42187C13.5469 8.95312 13.5469 8.25 13.0781 7.82812C12.6562 7.40625 11.9531 7.45312 11.5312 7.875ZM11.5312 15.375L8.95312 18.2812L7.875 17.2031C7.45312 16.7812 6.75 16.7812 6.32812 17.2031C5.85938 17.6719 5.85938 18.375 6.32812 18.7969L8.20312 20.6719C8.39062 20.9062 8.67188 21 8.95312 21C9.28125 21 9.5625 20.8594 9.75 20.6719L13.125 16.9219C13.5469 16.4531 13.5469 15.75 13.0781 15.3281C12.6562 14.9062 11.9531 14.9531 11.5312 15.375Z" fill="#20272D"/>
</svg>
