<svg width="36" height="36" viewBox="0 0 36 36" fill="none" xmlns="http://www.w3.org/2000/svg">
<path d="M30 12H24C22.3125 12 21 13.3594 21 15V27C21 28.6875 22.3125 30 24 30H30C31.6406 30 33 28.6875 33 27V15C33 13.3594 31.6406 12 30 12ZM31.5 27C31.5 27.8438 30.7969 28.5 30 28.5H24C23.1562 28.5 22.5 27.8438 22.5 27V15C22.5 14.2031 23.1562 13.5 24 13.5H30C30.7969 13.5 31.5 14.2031 31.5 15V27ZM7.5 9C7.5 8.20312 8.15625 7.5 9 7.5H24C24.7969 7.5 25.5 8.20312 25.5 9V9.75C25.5 10.1719 25.8281 10.5 26.2031 10.5C26.5781 10.5 27 10.1719 27 9.75V9C27 7.35938 25.6406 6 24 6H9C7.3125 6 6 7.35938 6 9V19.5H3.75C3.32812 19.5 3 19.875 3 20.25V21C3 22.6875 4.3125 24 5.95312 24H18.7031C19.125 24 19.5 23.6719 19.5 23.25C19.5 22.875 19.125 22.5 18.75 22.5H5.95312C5.15625 22.5 4.5 21.8438 4.5 21H18.75C19.125 21 19.5 20.6719 19.5 20.25C19.5 19.875 19.125 19.5 18.75 19.5H7.5V9Z" fill="black"/>
</svg>
