<svg width="36" height="36" viewBox="0 0 36 36" fill="none" xmlns="http://www.w3.org/2000/svg">
<path d="M20.2031 16.0328C18.1875 14.0172 16.5937 14.814 15.9375 15.3765C14.6719 16.4547 14.5781 18.3765 15.75 19.5484L19.7344 23.5328C19.9687 23.814 20.3906 23.814 20.6719 23.5328L24.6094 19.5484C25.7812 18.3765 25.6875 16.4547 24.4219 15.3765C23.8125 14.814 22.2187 14.0172 20.2031 16.0328ZM23.5781 18.4703L20.2031 21.8922L16.875 18.4703C16.3594 18.0015 16.2656 17.064 16.9687 16.5015C17.5781 15.9859 18.4219 16.3609 18.75 16.689L20.25 18.189L21.7031 16.689C22.0312 16.3609 22.875 15.9859 23.4844 16.5015C24.1875 17.064 24.0937 18.0015 23.5781 18.4703ZM28.7812 8.43903C28.7344 8.34528 28.6406 8.25153 28.5937 8.20465C28.4062 8.01715 28.1719 7.97028 27.9375 8.01715C27.75 8.06403 27.5156 8.15778 27.4219 8.39215C26.2031 10.5015 24.0469 11.7672 21.5156 11.7672H18.2812C13.9687 11.7203 10.5 15.2828 10.5 19.689C10.5 19.9234 10.5 20.2047 10.5469 20.4859C8.29686 22.4078 6.65623 25.0328 5.99998 28.0797C5.90623 28.5015 6.18748 28.8765 6.56248 28.9703C6.60936 28.9703 6.65623 28.9703 6.74998 28.9703C7.07811 28.9703 7.40623 28.7359 7.45311 28.4078C7.96873 25.9703 9.23436 23.8609 10.9219 22.2203C11.0625 22.5953 11.2031 22.9703 11.3906 23.3453C12.7969 25.9234 15.4219 27.4703 18.2812 27.4703C18.5625 27.4703 18.8437 27.4703 19.0781 27.4703C25.4062 27.0015 30 21.4703 30 14.2984C30 12.2828 29.5312 10.1734 28.7812 8.43903ZM18.9375 25.9703C18.7031 25.9703 18.4687 25.9703 18.2344 25.9703C15.9375 25.9703 13.7812 24.7047 12.7031 22.6422C12.0937 21.5172 12 20.3922 12 19.689C12 16.1734 14.8594 13.2203 18.2812 13.2203H21.5156C24.0469 13.2203 26.3437 12.189 27.8906 10.3609C28.2656 11.5797 28.5 12.9859 28.5 14.2984C28.5 20.6734 24.4687 25.5484 18.9375 25.9703Z" fill="#20272D"/>
</svg>
