<svg width="36" height="36" viewBox="0 0 36 36" fill="none" xmlns="http://www.w3.org/2000/svg">
<path d="M21 13.5H15C14.1562 13.5 13.5 14.2031 13.5 15V21C13.5 21.8438 14.1562 22.5 15 22.5H21C21.7969 22.5 22.5 21.8438 22.5 21V15C22.5 14.2031 21.7969 13.5 21 13.5ZM20.25 20.25H15.75V15.75H20.25V20.25ZM28.875 19.125C29.4844 19.125 30 18.6562 30 18C30 17.3906 29.4844 16.875 28.875 16.875H27V14.625H28.875C29.4844 14.625 30 14.1562 30 13.5C30 12.8906 29.4844 12.375 28.875 12.375H27V12C27 10.3594 25.6406 9 24 9H23.625V7.125C23.625 6.51562 23.1094 6 22.5 6C21.8438 6 21.375 6.51562 21.375 7.125V9H19.125V7.125C19.125 6.51562 18.6094 6 18 6C17.3438 6 16.875 6.51562 16.875 7.125V9H14.625V7.125C14.625 6.51562 14.1094 6 13.5 6C12.8438 6 12.375 6.51562 12.375 7.125V9H12C10.3125 9 9 10.3594 9 12V12.375H7.125C6.46875 12.375 6 12.8906 6 13.5C6 14.1562 6.46875 14.625 7.125 14.625H9V16.875H7.125C6.46875 16.875 6 17.3906 6 18C6 18.6562 6.46875 19.125 7.125 19.125H9V21.375H7.125C6.46875 21.375 6 21.8906 6 22.5C6 23.1562 6.46875 23.625 7.125 23.625H9V24C9 25.6875 10.3125 27 12 27H12.375V28.875C12.375 29.5312 12.8438 30 13.5 30C14.1094 30 14.625 29.5312 14.625 28.875V27H16.875V28.875C16.875 29.5312 17.3438 30 18 30C18.6094 30 19.125 29.5312 19.125 28.875V27H21.375V28.875C21.375 29.5312 21.8438 30 22.5 30C23.1094 30 23.625 29.5312 23.625 28.875V27H24C25.6406 27 27 25.6875 27 24V23.625H28.875C29.4844 23.625 30 23.1562 30 22.5C30 21.8906 29.4844 21.375 28.875 21.375H27V19.125H28.875ZM24.75 24C24.75 24.4219 24.375 24.75 24 24.75H12C11.5781 24.75 11.25 24.4219 11.25 24V12C11.25 11.625 11.5781 11.25 12 11.25H24C24.375 11.25 24.75 11.625 24.75 12V24Z" fill="black"/>
</svg>
