<svg width="36" height="36" viewBox="0 0 36 36" fill="none" xmlns="http://www.w3.org/2000/svg">
<path d="M29.25 20.25C29.625 20.25 30 19.9219 30 19.5C30 19.125 29.625 18.75 29.25 18.75C23.4375 18.75 18.75 23.4844 18.75 29.25C18.75 29.6719 19.0781 30 19.5 30C19.875 30 20.25 29.6719 20.25 29.25C20.25 24.3281 24.2812 20.25 29.25 20.25ZM19.5 9V20.25C19.5 20.6719 19.8281 21 20.25 21C20.625 21 21 20.6719 21 20.25V9C21 7.35938 19.6406 6 18 6H9C7.3125 6 6 7.35938 6 9V27C6 28.6875 7.3125 30 9 30H15.75C16.125 30 16.5 29.6719 16.5 29.25C16.5 28.875 16.125 28.5 15.75 28.5H9C8.15625 28.5 7.5 27.8438 7.5 27V9C7.5 8.20312 8.15625 7.5 9 7.5H18C18.7969 7.5 19.5 8.20312 19.5 9ZM12 24.75C11.5781 24.75 11.25 25.125 11.25 25.5C11.25 25.9219 11.5781 26.25 12 26.25H15C15.375 26.25 15.75 25.9219 15.75 25.5C15.75 25.125 15.375 24.75 15 24.75H12ZM28.5 27C27.6562 27 27 27.7031 27 28.5C27 29.3438 27.6562 30 28.5 30C29.2969 30 30 29.3438 30 28.5C30 27.7031 29.2969 27 28.5 27ZM29.25 22.5C25.5 22.5 22.5 25.5469 22.5 29.25C22.5 29.6719 22.8281 30 23.25 30C23.625 30 24 29.6719 24 29.25C24 26.3906 26.3438 24 29.25 24C29.625 24 30 23.6719 30 23.25C30 22.875 29.625 22.5 29.25 22.5Z" fill="black"/>
</svg>
