<svg width="36" height="36" viewBox="0 0 36 36" fill="none" xmlns="http://www.w3.org/2000/svg">
<path d="M28.4062 7.96875C28.3594 7.78125 28.2188 7.64062 28.0312 7.59375C27.9375 7.54688 27.8438 7.5 27.75 7.5H21.75C21.3281 7.5 21 7.875 21 8.25C21 8.67188 21.3281 9 21.75 9H25.9219L21 13.9219C19.5938 12.75 17.7188 12 15.75 12C11.1562 12 7.5 15.7031 7.5 20.25C7.5 24.8438 11.1562 28.5 15.75 28.5C20.2969 28.5 24 24.8438 24 20.25C24 18.2812 23.25 16.4062 22.0781 15L27 10.0781V14.25C27 14.6719 27.3281 15 27.75 15C28.125 15 28.5 14.6719 28.5 14.25V8.25C28.5 8.15625 28.4531 8.0625 28.4062 7.96875ZM22.5 20.25C22.5 24 19.4531 27 15.75 27C12 27 9 24 9 20.25C9 16.5469 12 13.5 15.75 13.5C19.4531 13.5 22.5 16.5469 22.5 20.25Z" fill="black"/>
</svg>
