<svg width="36" height="36" viewBox="0 0 36 36" fill="none" xmlns="http://www.w3.org/2000/svg">
<path d="M26.3025 23.25C26.5369 23.6719 26.5369 24.2344 26.2088 24.6094C24.1931 27.0938 21.2869 28.5 18.0994 28.5C12.3806 28.5 7.74 23.8125 7.74 18C7.74 12.2344 12.3806 7.5 18.0994 7.5C18.6619 7.5 19.5056 7.59375 20.0213 7.6875C20.5369 7.78125 20.9119 8.20312 21.0056 8.67188C21.0525 9.1875 20.8181 9.70312 20.3963 9.9375C18.2869 11.1562 16.9275 13.4531 16.9275 15.9375C16.9275 18 17.865 19.9219 19.4588 21.2812C21.0056 22.5469 23.0681 23.0625 25.0369 22.6875C25.5525 22.5938 26.0213 22.8281 26.3025 23.25ZM18.0994 27C20.5369 27 22.8338 26.0156 24.5213 24.2812C22.365 24.4688 20.2088 23.8125 18.4744 22.4062C16.5525 20.8125 15.4275 18.4688 15.4275 15.9375C15.4275 13.1719 16.7869 10.6406 18.9431 9.09375C18.6619 9.04688 18.3338 9 18.0994 9C13.2244 9 9.24 13.0781 9.24 18C9.24 22.9688 13.2244 27 18.0994 27Z" fill="#20272D"/>
</svg>
