<svg width="36" height="36" viewBox="0 0 36 36" fill="none" xmlns="http://www.w3.org/2000/svg">
<path d="M27 19.5C24.4688 19.5 22.5 21.5156 22.5 24C22.5 26.5312 24.4688 28.5 27 28.5C29.4844 28.5 31.5 26.5312 31.5 24C31.5 21.5156 29.4844 19.5 27 19.5ZM27 27C25.3125 27 24 25.6875 24 24C24 22.3594 25.3125 21 27 21C28.6406 21 30 22.3594 30 24C30 25.6875 28.6406 27 27 27ZM32.0156 18.9844C30.6562 17.625 28.875 16.875 27 16.875C26.5781 16.875 26.1562 16.9688 25.7344 17.0156L24.7969 13.6406L25.5938 14.0156C25.875 14.2031 26.25 14.25 26.5781 14.25H27C27.7969 14.25 28.5 13.5938 28.5 12.75V9.75C28.5 8.95312 27.7969 8.25 27 8.25H26.5781C26.25 8.25 25.875 8.34375 25.5938 8.53125L23.625 9.51562L23.2031 8.0625C23.1094 7.73438 22.8281 7.5 22.5 7.5H18.75C18.3281 7.5 18 7.875 18 8.25C18 8.67188 18.3281 9 18.75 9H21.8906L24.3281 17.4375C22.1719 18.2812 20.5312 20.2031 20.0156 22.5H16.5C15.6562 22.5 15 21.8438 15 21V16.5C15 15.7031 14.2969 15 13.5 15H9C5.67188 15 3 17.7188 3 21V22.5C3 23.3438 3.65625 24 4.5 24H6C6 26.5312 7.96875 28.5 10.5 28.5C12.9844 28.5 15 26.5312 15 24H19.875C19.875 24.4219 20.2031 24.75 20.625 24.75C21 24.75 21.375 24.4219 21.375 24C21.375 20.9062 23.8594 18.375 27 18.375C28.5 18.375 29.9062 18.9844 30.9844 20.0625C31.2656 20.3438 31.7344 20.3438 32.0156 20.0625C32.2969 19.7812 32.2969 19.2656 32.0156 18.9844ZM10.5 27C8.8125 27 7.5 25.6875 7.5 24H13.5C13.5 25.6875 12.1406 27 10.5 27ZM4.5 22.5V21C4.5 18.5625 6.51562 16.5 9 16.5H13.5V21C13.5 21.5625 13.6406 22.0781 13.875 22.5H4.5ZM24.2344 11.7188L24.0469 10.9688L26.25 9.84375C26.3438 9.79688 26.4844 9.75 26.5781 9.75H27V12.75H26.5781C26.4844 12.75 26.3438 12.75 26.25 12.7031L24.3281 11.7188C24.2812 11.7188 24.2812 11.7188 24.2344 11.7188ZM8.25 13.5H14.25C14.625 13.5 15 13.1719 15 12.75C15 12.375 14.625 12 14.25 12H8.25C7.82812 12 7.5 12.375 7.5 12.75C7.5 13.1719 7.82812 13.5 8.25 13.5Z" fill="#20272D"/>
</svg>
