<svg width="36" height="36" viewBox="0 0 36 36" fill="none" xmlns="http://www.w3.org/2000/svg">
<path d="M9 16.5C5.67188 16.5 3 19.2188 3 22.5C3 25.8281 5.67188 28.5 9 28.5C12.2812 28.5 15 25.8281 15 22.5C15 19.2188 12.2812 16.5 9 16.5ZM9 23.625C9.32812 23.625 9.60938 23.4844 9.79688 23.25H13.4062C13.0312 25.4062 11.2031 27 9 27C6.51562 27 4.5 24.9844 4.5 22.5C4.5 20.0625 6.51562 18 9 18C11.2031 18 13.0312 19.6406 13.4062 21.75H9.79688C9.60938 21.5625 9.32812 21.375 9 21.375C8.34375 21.375 7.875 21.8906 7.875 22.5C7.875 23.1562 8.34375 23.625 9 23.625ZM27 16.5C26.25 16.5 25.5469 16.6875 24.8906 16.9219L22.3125 12H25.0312C26.1094 12 27 11.1562 27 10.0781V9.46875C27 8.39062 26.1094 7.5 25.0312 7.5C24.1875 7.5 23.3438 7.82812 22.6875 8.34375L21.0469 9.65625L20.1562 7.92188C20.0156 7.6875 19.7344 7.5 19.5 7.5H15.75C15.3281 7.5 15 7.875 15 8.25C15 8.67188 15.3281 9 15.75 9H19.0312L19.875 10.5938L14.1562 15.1875C12.7031 14.1562 10.9219 13.5 9 13.5H5.25C4.82812 13.5 4.5 13.875 4.5 14.25C4.5 14.6719 4.82812 15 5.25 15H9C13.125 15 16.5 18.375 16.5 22.5C16.5 22.9219 16.8281 23.25 17.25 23.25H18.75C19.125 23.25 19.5 22.9219 19.5 22.5C19.5 20.0156 20.7656 17.6719 22.8281 16.2656L23.5312 17.625C21.9844 18.7031 21 20.4844 21 22.5C21 25.8281 23.6719 28.5 27 28.5C30.2812 28.5 33 25.8281 33 22.5C33 19.2188 30.2812 16.5 27 16.5ZM23.625 9.51562C24 9.1875 24.5156 9 25.0312 9C25.2656 9 25.5 9.23438 25.5 9.46875V10.0781C25.5 10.3125 25.2656 10.5 25.0312 10.5H22.3594L23.625 9.51562ZM18 21.75H17.9531C17.7656 19.5938 16.7812 17.625 15.3281 16.1719L20.5312 11.9531L22.125 14.9531C19.7812 16.4531 18.2344 18.9844 18 21.75ZM27 27C24.5156 27 22.5 24.9844 22.5 22.5C22.5 21.0469 23.2031 19.7812 24.2344 18.9844L26.2969 22.875C26.4375 23.1094 26.7188 23.25 27 23.25C27.0938 23.25 27.2344 23.25 27.3281 23.2031C27.7031 23.0156 27.8438 22.5469 27.6562 22.1719L25.5938 18.2812C26.0156 18.1406 26.4844 18 27 18C29.4375 18 31.5 20.0625 31.5 22.5C31.5 24.9844 29.4375 27 27 27Z" fill="black"/>
</svg>
