<svg width="36" height="36" viewBox="0 0 36 36" fill="none" xmlns="http://www.w3.org/2000/svg">
<path d="M27.75 17.9531C27.75 18.6094 27.2344 19.0781 26.625 19.0781H19.125V26.5781C19.125 27.2344 18.6094 27.75 18 27.75C17.3438 27.75 16.875 27.2344 16.875 26.5781V19.0781H9.375C8.71875 19.0781 8.25 18.6094 8.25 18C8.25 17.3438 8.71875 16.8281 9.375 16.8281H16.875V9.32812C16.875 8.71875 17.3438 8.25 18 8.25C18.6094 8.25 19.125 8.71875 19.125 9.32812V16.8281H26.625C27.2344 16.8281 27.75 17.3438 27.75 17.9531Z" fill="black"/>
</svg>
