<svg width="35" height="36" viewBox="0 0 35 36" fill="none" xmlns="http://www.w3.org/2000/svg">
<path d="M12.3581 11.25C10.9519 11.25 9.73312 10.0781 9.73312 8.625C9.73312 7.21875 10.9519 6 12.3581 6C13.8112 6 14.9831 7.21875 14.9831 8.625C14.9831 10.0781 13.8112 11.25 12.3581 11.25ZM12.3581 7.5C11.7487 7.5 11.2331 8.01562 11.2331 8.625C11.2331 9.28125 11.7487 9.75 12.3581 9.75C13.0144 9.75 13.4831 9.28125 13.4831 8.625C13.4831 8.01562 13.0144 7.5 12.3581 7.5ZM26.9831 27C27.405 27 27.7331 27.375 27.7331 27.75C27.7331 28.1719 27.405 28.5 26.9831 28.5H24.7331C24.4519 28.5 24.2175 28.3594 24.0769 28.125L21.3112 22.5H14.7487C13.6706 22.5 12.7331 21.75 12.5456 20.6719L11.28 13.6406C11.1862 13.2656 11.4675 12.8438 11.8894 12.7969C12.2644 12.7031 12.6862 12.9844 12.7331 13.4062L13.0612 15H20.9831C21.405 15 21.7331 15.375 21.7331 15.75C21.7331 16.1719 21.405 16.5 20.9831 16.5H13.2956L13.9987 20.3906C14.0925 20.7656 14.3737 21 14.7487 21H21.7331C22.0612 21 22.2956 21.1875 22.4362 21.4219L25.2019 27H26.9831ZM19.4831 25.5C19.905 25.5 20.2331 25.875 20.2331 26.25C20.2331 26.6719 19.905 27 19.4831 27H14.2331C11.4206 27 9.03 25.0312 8.51437 22.2656L6.78 12.8906C6.68625 12.5156 6.9675 12.0938 7.38937 12.0469C7.76437 11.9531 8.18625 12.2344 8.23312 12.6562L10.0144 21.9844C10.3894 24.0469 12.1706 25.5 14.2331 25.5H19.4831Z" fill="#20272D"/>
</svg>
