<svg width="36" height="36" viewBox="0 0 36 36" fill="none" xmlns="http://www.w3.org/2000/svg">
<path d="M6.04688 23.9532L7.03125 28.3595C7.26563 29.3438 8.10938 30.0001 9.14063 30.0001C20.625 30.0001 30 20.672 30 9.1876C30 8.15635 29.2969 7.3126 28.3125 7.1251L23.9062 6.09385C22.9219 5.85947 21.8906 6.3751 21.4688 7.3126L19.4531 12.0939C19.0781 12.9376 19.3125 13.9689 20.0156 14.5782L21.9375 16.1251C20.5781 18.5626 18.5156 20.6251 16.0781 21.9845L14.4844 20.0626C13.9219 19.3595 12.8906 19.1251 12.0469 19.4532L7.26563 21.5157C6.32813 21.9376 5.8125 22.9688 6.04688 23.9532ZM7.5 23.6251C7.40625 23.297 7.59375 23.0157 7.875 22.8751L12.6094 20.8595C12.8906 20.7657 13.1719 20.8126 13.3594 21.047L15.2813 23.3907C15.5156 23.672 15.8906 23.7657 16.1719 23.5782C19.3594 22.0313 21.9844 19.4064 23.5312 16.2657C23.7188 15.9376 23.625 15.5626 23.3438 15.3282L21 13.4064C20.7656 13.2189 20.7188 12.9376 20.8125 12.6564L22.875 7.92197C22.9688 7.6876 23.2031 7.54697 23.4375 7.54697C23.4844 7.54697 23.5312 7.54697 23.5781 7.54697L27.9844 8.57822C28.2656 8.6251 28.5 8.85947 28.5 9.1876C28.5 19.8282 19.7813 28.547 9.14063 28.547C8.8125 28.547 8.57813 28.3126 8.53125 28.0313L7.5 23.6251Z" fill="black"/>
</svg>
