<svg width="36" height="36" viewBox="0 0 36 36" fill="none" xmlns="http://www.w3.org/2000/svg">
<path d="M16.6602 12.832C16.4688 12.7363 16.2773 12.6406 16.0859 12.6406C15.416 12.6406 14.9375 13.2148 14.9375 13.7891V22.2109C14.9375 22.833 15.416 23.3594 16.0859 23.3594C16.2773 23.3594 16.4688 23.3115 16.6602 23.2158L23.5508 19.0049C23.8857 18.8135 24.125 18.4307 24.125 18C24.125 17.6172 23.8857 17.2344 23.5508 17.043L16.6602 12.832ZM18 5.75C11.2051 5.75 5.75 11.2529 5.75 18C5.75 24.7949 11.2051 30.25 18 30.25C24.7471 30.25 30.25 24.7949 30.25 18C30.25 11.2529 24.7471 5.75 18 5.75ZM18 27.9531C12.4971 27.9531 8.04688 23.5029 8.04688 18C8.04688 12.5449 12.4971 8.04688 18 8.04688C23.4551 8.04688 27.9531 12.5449 27.9531 18C27.9531 23.5029 23.4551 27.9531 18 27.9531Z" fill="black"/>
</svg>
