<svg width="36" height="36" viewBox="0 0 36 36" fill="none" xmlns="http://www.w3.org/2000/svg">
<path d="M16.5 12C18.1406 12 19.4531 10.6875 19.4531 9C19.4531 7.35938 18.0937 6 16.5 6C14.8594 6 13.5 7.35938 13.5 9C13.5 10.6875 14.8125 12 16.5 12ZM16.5 7.5C17.2969 7.5 17.9531 8.20312 17.9531 9C17.9531 9.84375 17.2969 10.5 16.5 10.5C15.6562 10.5 15 9.84375 15 9C15 8.20312 15.6562 7.5 16.5 7.5ZM14.5781 23.3438L7.875 19.5938C7.64062 19.5 7.40625 19.5 7.17187 19.5938C6.98437 19.6875 6.79687 19.875 6.75 20.1094L4.54687 29.1094C4.45312 29.4844 4.6875 29.9062 5.10937 30C5.10937 30 5.15625 30 5.25 30C5.57812 30 5.85937 29.8125 5.95312 29.4375L7.96875 21.4219L13.4531 24.4688V29.25C13.4531 29.6719 13.8281 30 14.2031 30C14.5781 30 14.9062 29.6719 14.9062 29.25V24C15 23.7656 14.8125 23.4844 14.5781 23.3438ZM31.4062 28.9219L27.0937 20.625C26.7187 19.9688 26.0625 19.5469 25.3125 19.5C24.4687 19.4531 23.8125 19.875 23.4375 20.4844L21.9844 22.7812L18.7031 21.0469C18.7031 21 18.7031 20.9531 18.7031 20.9062L17.9531 16.875C17.6719 15.375 16.7812 14.0625 15.4687 13.3125L12.4219 11.5781C11.25 10.875 9.84375 10.6406 8.53125 10.9688C7.54687 11.25 6.70312 11.9062 6.23437 12.7969L5.29687 14.6719C5.10937 15.0469 5.25 15.4688 5.625 15.7031L21.2344 24.0938L20.8594 24.6562H19.5469C18.6562 24.6562 17.8594 25.2188 17.5781 26.0625L16.5 29.0156C16.4531 29.25 16.4531 29.4844 16.5937 29.7188C16.7344 29.9062 16.9687 30 17.2031 30H30.7031C30.9375 30 31.1719 29.8594 31.3125 29.6719C31.5 29.4375 31.5 29.1562 31.4062 28.9219ZM6.98437 14.7188L7.59375 13.5C7.82812 12.9844 8.29687 12.6094 8.85937 12.4688C9.84375 12.2344 10.8281 12.375 11.6719 12.8438L14.7187 14.625C15.6562 15.1875 16.3125 16.125 16.5 17.1562L17.0625 20.1562L6.98437 14.7188ZM18.2812 28.5L18.9844 26.5312C19.0781 26.2969 19.3125 26.1562 19.5469 26.1562H21.2812C21.5156 26.1562 21.7969 26.0156 21.9375 25.8281L24.7031 21.2812C24.8437 21.0469 25.125 21 25.2656 21C25.4531 21.0469 25.6875 21.1406 25.7812 21.3281L29.4844 28.5H18.2812Z" fill="black"/>
</svg>
