<svg width="36" height="36" viewBox="0 0 36 36" fill="none" xmlns="http://www.w3.org/2000/svg">
<path d="M20.115 11.25C18.6619 11.25 17.49 10.0781 17.49 8.625C17.49 7.21875 18.6619 6 20.115 6C21.5212 6 22.74 7.21875 22.74 8.625C22.74 10.0781 21.5212 11.25 20.115 11.25ZM20.115 7.5C19.4587 7.5 18.99 8.01562 18.99 8.625C18.99 9.28125 19.4587 9.75 20.115 9.75C20.7244 9.75 21.24 9.28125 21.24 8.625C21.24 8.01562 20.7244 7.5 20.115 7.5ZM25.365 18.8906C25.74 19.125 25.8337 19.5938 25.5994 19.9219C25.4587 20.1562 25.2244 20.25 24.99 20.25C24.8025 20.25 24.6619 20.25 24.5681 20.1562L22.74 18.9375C22.3181 18.6562 21.99 18.2344 21.8494 17.7656L21.0525 15.4219C20.8181 14.625 20.1619 14.0625 19.365 13.9219L18.4744 13.7344C18.3806 13.7344 18.2869 13.7344 18.1931 13.7344L17.1619 17.9062C16.9275 18.75 17.2087 19.5938 17.865 20.1562L21.3806 23.1562C21.7087 23.4375 21.9431 23.8125 22.0837 24.2344L23.4431 29.0625C23.5369 29.4844 23.3025 29.8594 22.9275 30C22.8337 30 22.7869 30 22.74 30C22.4119 30 22.0837 29.8125 21.99 29.4844L20.6306 24.6562C20.5837 24.5156 20.49 24.375 20.3962 24.2812L16.8806 21.2812C15.8025 20.3906 15.3337 18.9375 15.7087 17.5312L16.5056 14.2031L14.3962 15.5156C14.3025 15.5625 14.2087 15.6094 14.1619 15.7031L12.8494 17.6719C12.615 18.0469 12.1462 18.1406 11.8181 17.9062C11.4431 17.6719 11.3494 17.2031 11.5837 16.875L12.8962 14.9062C13.0837 14.625 13.3181 14.3906 13.5994 14.2031L16.0837 12.75C16.8806 12.2344 17.8181 12.0938 18.7556 12.2812L19.6462 12.4688C20.9587 12.7031 22.0369 13.6406 22.4587 14.9531L23.2556 17.2969C23.3025 17.4375 23.4431 17.5781 23.5837 17.6719L25.365 18.8906ZM16.3181 22.5938C16.6931 22.7812 16.8337 23.25 16.6462 23.625L15.24 26.3906C15.1462 26.625 15.0056 26.8125 14.8181 26.9531L12.0056 29.8125C11.865 29.9531 11.6775 30 11.49 30C11.2556 30 11.0681 29.9531 10.9275 29.8125C10.6462 29.5312 10.6462 29.0156 10.9275 28.7344L13.7869 25.9219C13.8337 25.875 13.8806 25.7812 13.9275 25.7344L15.2869 22.9219C15.4744 22.5469 15.9431 22.4062 16.3181 22.5938Z" fill="#20272D"/>
</svg>
