<svg width="36" height="36" viewBox="0 0 36 36" fill="none" xmlns="http://www.w3.org/2000/svg">
<path d="M19.5 13.5H16.5C14.8125 13.5 13.5 14.8594 13.5 16.5V21C13.5 21.8438 14.1562 22.5 15 22.5V29.25C15 29.6719 15.3281 30 15.75 30C16.125 30 16.5 29.6719 16.5 29.25V22.5H19.5V29.25C19.5 29.6719 19.8281 30 20.25 30C20.625 30 21 29.6719 21 29.25V22.5C21.7969 22.5 22.5 21.8438 22.5 21V16.5C22.5 14.8594 21.1406 13.5 19.5 13.5ZM21 21H15V16.5C15 15.7031 15.6562 15 16.5 15H19.5C20.2969 15 21 15.7031 21 16.5V21ZM18 12C19.6406 12 21 10.6875 21 9C21 7.35938 19.6406 6 18 6C16.3125 6 15 7.35938 15 9C15 10.6875 16.3125 12 18 12ZM18 7.5C18.7969 7.5 19.5 8.20312 19.5 9C19.5 9.84375 18.7969 10.5 18 10.5C17.1562 10.5 16.5 9.84375 16.5 9C16.5 8.20312 17.1562 7.5 18 7.5Z" fill="black"/>
</svg>
