<svg width="36" height="36" viewBox="0 0 36 36" fill="none" xmlns="http://www.w3.org/2000/svg">
<path d="M23.25 6.75C23.25 6.375 22.875 6 22.5 6C22.0781 6 21.75 6.375 21.75 6.75V11.25H23.25V6.75ZM14.25 6.75C14.25 6.375 13.875 6 13.5 6C13.0781 6 12.75 6.375 12.75 6.75V11.25H14.25V6.75ZM26.25 12.75H9.75C9.32812 12.75 9 13.125 9 13.5C9 13.9219 9.32812 14.25 9.75 14.25H10.5V17.25C10.5 21.1406 13.4531 24.3281 17.25 24.7031V29.25C17.25 29.6719 17.5781 30 18 30C18.375 30 18.75 29.6719 18.75 29.25V24.7031C22.5 24.3281 25.5 21.1406 25.5 17.25V14.25H26.25C26.625 14.25 27 13.9219 27 13.5C27 13.125 26.625 12.75 26.25 12.75ZM24 17.25C24 20.5781 21.2812 23.25 18 23.25C14.6719 23.25 12 20.5781 12 17.25V14.25H24V17.25Z" fill="#20272D"/>
</svg>
