<svg width="36" height="36" viewBox="0 0 36 36" fill="none" xmlns="http://www.w3.org/2000/svg">
<path d="M17.75 25C16.9062 25 16.25 25.7031 16.25 26.5C16.25 27.3438 16.9062 28.0469 17.75 28.0469C18.5469 28.0469 19.25 27.3438 19.25 26.5C19.25 25.7031 18.5469 25 17.75 25ZM20.8906 7H15.875C13.1562 7 11 9.20312 11 11.875V12.625C11 13.2812 11.4688 13.75 12.125 13.75C12.7344 13.75 13.25 13.2812 13.25 12.625V11.875C13.25 10.4688 14.4219 9.25 15.875 9.25H20.8906C22.4375 9.25 23.75 10.5625 23.75 12.1094C23.75 13.1875 23.1406 14.1719 22.2031 14.6406L18.8281 16.4219C17.4219 17.125 16.625 18.5312 16.625 20.0781V20.875C16.625 21.5312 17.0938 22.0469 17.75 22.0469C18.3594 22.0469 18.875 21.5312 18.875 20.875V20.0781C18.875 19.375 19.25 18.7656 19.8594 18.4375L23.2344 16.6562C24.9219 15.7656 26 14.0312 26 12.1094C26 9.29688 23.7031 7 20.8906 7Z" fill="black"/>
</svg>
