<svg width="36" height="36" viewBox="0 0 36 36" fill="none" xmlns="http://www.w3.org/2000/svg">
<path d="M25.5 9.375C23.9531 9.375 24 11.625 25.5 11.625C27 11.625 26.9531 9.375 25.5 9.375ZM26.25 22.5H21C19.7344 22.5 18.75 21.5156 18.75 20.25C18.75 19.0312 19.7344 18 21 18H25.5C25.5 18 30 12.9844 30 10.5C30 8.01562 27.9844 6 25.5 6C23.0156 6 21 8.01562 21 10.5C21 12.1406 22.875 14.8594 24.2344 16.5H21C18.8906 16.5 17.25 18.1875 17.25 20.25C17.25 22.3594 18.8906 24 21 24H26.25C27.4688 24 28.5 25.0312 28.5 26.25C28.5 27.5156 27.4688 28.5 26.25 28.5H11.7188C13.0781 26.8594 15 24.1406 15 22.5C15 20.0156 12.9844 18 10.5 18C8.01562 18 6 20.0156 6 22.5C6 24.9844 10.5 30 10.5 30H26.25C28.3125 30 30 28.3594 30 26.25C30 24.1875 28.3125 22.5 26.25 22.5ZM22.5 10.5C22.5 8.85938 23.8125 7.5 25.5 7.5C27.1406 7.5 28.5 8.85938 28.5 10.5C28.5 11.4844 27.0469 13.6875 25.5 15.7031C23.8594 13.6875 22.5 11.4375 22.5 10.5ZM7.5 22.5C7.5 20.8594 8.8125 19.5 10.5 19.5C12.1406 19.5 13.5 20.8594 13.5 22.5C13.5 23.4844 12.0469 25.6875 10.5 27.7031C8.85938 25.6875 7.5 23.4375 7.5 22.5ZM10.5 21.375C8.95312 21.375 9 23.625 10.5 23.625C12 23.625 11.9531 21.375 10.5 21.375Z" fill="black"/>
</svg>
