<svg width="36" height="36" viewBox="0 0 36 36" fill="none" xmlns="http://www.w3.org/2000/svg">
<path d="M31.5994 25.5C32.115 27 31.0369 28.5 29.4431 28.5H6.98999C5.39624 28.5 4.31812 27 4.83374 25.5L10.74 9C11.0681 8.10938 11.9119 7.5 12.8494 7.5H23.5837C24.5212 7.5 25.365 8.10938 25.6931 9L31.5994 25.5ZM30.0994 26.7188C30.1462 26.5781 30.2869 26.3438 30.1931 26.0156L24.2869 9.51562C24.1931 9.23438 23.865 9 23.5837 9H18.9431V11.25C18.9431 11.6719 18.615 12 18.1931 12C17.8181 12 17.4431 11.6719 17.4431 11.25V9H12.8494C12.5681 9 12.24 9.23438 12.1462 9.51562L6.23999 26.0156C6.14624 26.3438 6.28687 26.5781 6.33374 26.7188C6.42749 26.8125 6.61499 27 6.98999 27H17.4431V24.75C17.4431 24.375 17.8181 24 18.1931 24C18.615 24 18.9431 24.375 18.9431 24.75V27H29.4431C29.8181 27 30.0056 26.8125 30.0994 26.7188ZM18.1931 15C18.615 15 18.9431 15.375 18.9431 15.75V20.25C18.9431 20.6719 18.615 21 18.1931 21C17.8181 21 17.4431 20.6719 17.4431 20.25V15.75C17.4431 15.375 17.8181 15 18.1931 15Z" fill="#20272D"/>
</svg>
