<svg width="36" height="36" viewBox="0 0 36 36" fill="none" xmlns="http://www.w3.org/2000/svg">
<path d="M19.5 15.75V8.25C19.5 7.07812 18.4219 6 17.25 6H5.25C4.03125 6 3 7.07812 3 8.25V15.75C3 16.9688 4.03125 18 5.25 18H17.25C18.4219 18 19.5 16.9688 19.5 15.75ZM5.25 8.25H17.25V15.75H5.25V8.25ZM18 20.25H8.25C7.03125 20.25 6 21.3281 6 22.5V27.75C6 28.9688 7.03125 30 8.25 30H18C19.1719 30 20.25 28.9688 20.25 27.75V22.5C20.25 21.3281 19.1719 20.25 18 20.25ZM18 27.75H8.25V22.5H18V27.75ZM30.75 6H24.75C23.5312 6 22.5 7.07812 22.5 8.25V21.75C22.5 22.9688 23.5312 24 24.75 24H30.75C31.9219 24 33 22.9688 33 21.75V8.25C33 7.07812 31.9219 6 30.75 6ZM30.75 21.75H24.75V8.25H30.75V21.75Z" fill="#20272D"/>
</svg>
