<svg width="36" height="36" viewBox="0 0 36 36" fill="none" xmlns="http://www.w3.org/2000/svg">
<path d="M7 8.125V15.625C7 16.2812 7.51562 16.75 8.125 16.75H15.625C16.2812 16.75 16.75 16.2812 16.75 15.625C16.75 15.0156 16.2812 14.5 15.625 14.5H10.9375C12.3438 11.8281 15.1562 10 18.25 10C22.8438 10 26.5 13.7031 26.5 18.25C26.5 22.8438 22.8438 26.5 18.25 26.5C16.3281 26.5 14.4531 25.8438 13 24.625C12.5312 24.2031 11.8281 24.2969 11.4062 24.7656C11.0312 25.2344 11.0781 25.9375 11.5469 26.3594C13.4219 27.9062 15.8125 28.75 18.2969 28.75C24.0625 28.75 28.75 24.0625 28.75 18.25C28.75 12.4844 24.0625 7.79688 18.2969 7.79688C14.5469 7.79688 11.125 9.8125 9.25 12.9062V8.125C9.25 7.51562 8.78125 7 8.125 7C7.51562 7 7 7.51562 7 8.125Z" fill="black"/>
</svg>
