<svg width="36" height="36" viewBox="0 0 36 36" fill="none" xmlns="http://www.w3.org/2000/svg">
<path d="M17.375 12.5C16.7188 12.5 16.25 13.0156 16.25 13.625V18.875C16.25 19.5312 16.7188 20 17.375 20C17.9844 20 18.5 19.5312 18.5 18.875V13.625C18.5 13.0156 17.9844 12.5 17.375 12.5ZM13.625 12.5C12.9688 12.5 12.5 13.0156 12.5 13.625V18.875C12.5 19.5312 12.9688 20 13.625 20C14.2344 20 14.75 19.5312 14.75 18.875V13.625C14.75 13.0156 14.2344 12.5 13.625 12.5ZM26 8H11C9.3125 8 8 9.35938 8 11V26C8 27.6875 9.3125 29 11 29H26C27.6406 29 29 27.6875 29 26V11C29 9.35938 27.6406 8 26 8ZM26.75 26C26.75 26.4219 26.375 26.75 26 26.75H11C10.5781 26.75 10.25 26.4219 10.25 26V11C10.25 10.625 10.5781 10.25 11 10.25H26C26.375 10.25 26.75 10.625 26.75 11V26Z" fill="black"/>
</svg>
