<svg width="36" height="36" viewBox="0 0 36 36" fill="none" xmlns="http://www.w3.org/2000/svg">
<path d="M13.5 15C11.8125 15 10.5 16.3594 10.5 18C10.5 19.6875 11.8125 21 13.5 21C15.1406 21 16.5 19.6875 16.5 18C16.5 16.3594 15.1406 15 13.5 15ZM13.5 19.5C12.6562 19.5 12 18.8438 12 18C12 17.2031 12.6562 16.5 13.5 16.5C14.2969 16.5 15 17.2031 15 18C15 18.8438 14.2969 19.5 13.5 19.5ZM18 6C11.3438 6 6 10.7344 6 16.5C6 19.8281 7.6875 22.7344 10.4062 24.6562C10.875 24.9844 11.1094 25.5 11.0625 26.0625L10.6875 27.0469C10.2188 28.5 11.2969 30 12.8438 30H23.1094C24.6562 30 25.7344 28.5 25.2656 27.0469L24.9375 26.0625C24.8438 25.5 25.0781 24.9844 25.5469 24.6562C28.2656 22.7344 30 19.8281 30 16.5C30 10.7344 24.6094 6 18 6ZM24.6562 23.4375C23.7656 24.0938 23.2969 25.1719 23.4375 26.25C23.4844 26.4844 23.3906 26.2969 23.8125 27.5156C23.9531 27.8906 23.7656 28.5 23.1094 28.5H21V26.25C21 25.875 20.625 25.5 20.25 25.5C19.8281 25.5 19.5 25.875 19.5 26.25V28.5H16.5V26.25C16.5 25.875 16.125 25.5 15.75 25.5C15.3281 25.5 15 25.875 15 26.25V28.5H12.8438C12.3281 28.5 11.9531 27.9844 12.1406 27.5156C12.5625 26.2969 12.5156 26.4844 12.5156 26.25C12.7031 25.1719 12.1875 24.0938 11.2969 23.4375C8.85938 21.7031 7.5 19.2188 7.5 16.5C7.5 11.5781 12.1875 7.5 18 7.5C23.7656 7.5 28.5 11.5781 28.5 16.5C28.5 19.2188 27.0938 21.7031 24.6562 23.4375ZM22.5 15C20.8125 15 19.5 16.3594 19.5 18C19.5 19.6875 20.8125 21 22.5 21C24.1406 21 25.5 19.6875 25.5 18C25.5 16.3594 24.1406 15 22.5 15ZM22.5 19.5C21.6562 19.5 21 18.8438 21 18C21 17.2031 21.6562 16.5 22.5 16.5C23.2969 16.5 24 17.2031 24 18C24 18.8438 23.2969 19.5 22.5 19.5Z" fill="black"/>
</svg>
