<svg width="36" height="36" viewBox="0 0 36 36" fill="none" xmlns="http://www.w3.org/2000/svg">
<path d="M30.0056 9.98438C30.2869 10.2656 30.2869 10.7812 30.0056 11.0625C29.865 11.2031 29.6775 11.25 29.49 11.25C29.2556 11.25 29.0681 11.2031 28.9275 11.0625L27.615 9.70312L25.2713 12L28.5056 15.2344C28.7869 15.5156 28.7869 16.0312 28.5056 16.3125C28.365 16.4531 28.1775 16.5 27.99 16.5C27.7556 16.5 27.5681 16.4531 27.4275 16.3125L19.9275 8.8125C19.6463 8.53125 19.6463 8.01562 19.9275 7.73438C20.2088 7.45312 20.7244 7.45312 21.0056 7.73438L24.24 10.9688L26.5369 8.625L25.1775 7.3125C24.8963 7.03125 24.8963 6.51562 25.1775 6.23438C25.4588 5.95312 25.9744 5.95312 26.2556 6.23438L30.0056 9.98438ZM24.4275 16.7344C24.7088 16.4531 25.2244 16.4531 25.5056 16.7344C25.7869 17.0156 25.7869 17.5312 25.5056 17.8125L16.6463 26.6719C15.8963 27.375 14.9588 27.75 13.9744 27.75H9.52126L7.50563 29.8125C7.36501 29.9531 7.17751 30 6.99001 30C6.75563 30 6.56813 29.9531 6.42751 29.8125C6.14626 29.5312 6.14626 29.0156 6.42751 28.7344L8.49001 26.7188V22.2656C8.49001 21.2812 8.86501 20.3438 9.56813 19.5938L18.4275 10.7344C18.7088 10.4531 19.2244 10.4531 19.5056 10.7344C19.7869 11.0156 19.7869 11.5312 19.5056 11.8125L16.2713 15L18.7556 17.4844C19.0369 17.7656 19.0369 18.2812 18.7556 18.5625C18.615 18.7031 18.4275 18.75 18.24 18.75C18.0056 18.75 17.8181 18.7031 17.6775 18.5625L15.24 16.0781L13.2713 18L15.7556 20.4844C16.0369 20.7656 16.0369 21.2812 15.7556 21.5625C15.615 21.7031 15.4275 21.75 15.24 21.75C15.0056 21.75 14.8181 21.7031 14.6775 21.5625L12.24 19.0781L10.6463 20.6719C10.2244 21.0938 9.99001 21.6562 9.99001 22.2656V26.25H13.9744C14.5838 26.25 15.1463 26.0156 15.5681 25.5938L24.4275 16.7344Z" fill="#20272D"/>
</svg>
