<svg width="36" height="36" viewBox="0 0 36 36" fill="none" xmlns="http://www.w3.org/2000/svg">
<path d="M18 14.25C17.5781 14.25 17.25 14.625 17.25 15V21.75C17.25 22.1719 17.5781 22.5 18 22.5C18.375 22.5 18.75 22.1719 18.75 21.75V15C18.75 14.625 18.375 14.25 18 14.25ZM27.5156 12.5625C27.7969 12.2812 27.7969 11.7656 27.5156 11.4844C27.2344 11.2031 26.7188 11.2031 26.4375 11.4844L24.7031 13.2188C23.1094 11.7188 21.0469 10.7344 18.75 10.5469V7.5L21.75 7.54688C22.125 7.5 22.5 7.17188 22.5 6.75C22.5 6.375 22.125 6 21.75 6H14.25C13.8281 6 13.5 6.375 13.5 6.75C13.5 7.17188 13.8281 7.5 14.25 7.5H17.25V10.5469C12.1875 10.9219 8.25 15.1406 8.25 20.25C8.25 25.6406 12.6094 30 18 30C23.3438 30 27.75 25.6406 27.75 20.25C27.75 18.0469 26.9531 15.9844 25.6875 14.3438L27.5156 12.5625ZM26.25 20.25C26.25 24.8438 22.5469 28.5 18 28.5C13.4062 28.5 9.75 24.8438 9.75 20.25C9.75 15.7031 13.4062 12 18 12C22.5469 12 26.25 15.7031 26.25 20.25Z" fill="black"/>
</svg>
