<svg width="36" height="36" viewBox="0 0 36 36" fill="none" xmlns="http://www.w3.org/2000/svg">
<path fill-rule="evenodd" clip-rule="evenodd" d="M29.9424 28.5576C30.3213 28.9365 30.3213 29.6104 29.9424 29.9893C29.7384 30.1933 29.476 30.25 29.25 30.25C28.9747 30.25 28.7309 30.1927 28.4906 30.0125L28.4761 30.0016L22.0164 23.4961C20.2653 24.9408 18.073 25.75 15.7031 25.75C10.2205 25.75 5.75 21.2779 5.75 15.75C5.75 10.2705 10.1721 5.75 15.7031 5.75C21.1849 5.75 25.7031 10.2682 25.7031 15.75C25.7031 18.1646 24.8943 20.3585 23.4492 22.1101L29.9424 28.5576ZM7.75 15.75C7.75 20.1597 11.2952 23.75 15.75 23.75C20.1597 23.75 23.75 20.2048 23.75 15.75C23.75 11.3412 20.1588 7.75 15.75 7.75C11.2952 7.75 7.75 11.3403 7.75 15.75Z" fill="black"/>
</svg>
