<svg width="36" height="36" viewBox="0 0 36 36" fill="none" xmlns="http://www.w3.org/2000/svg">
<path d="M9.00562 26.6719L7.08374 23.8594C6.94312 23.625 6.89624 23.3906 7.03687 23.1562C7.13062 22.9219 7.31812 22.7344 7.55249 22.6875L12.1931 21.75L13.1306 17.1094C13.1775 16.8281 13.365 16.6406 13.5994 16.5469C13.7869 16.4531 14.0681 16.4531 14.3025 16.5938L18.24 19.2188L22.1775 16.5938C22.365 16.4531 22.6462 16.4531 22.8806 16.5469C23.115 16.6406 23.2556 16.8281 23.3025 17.1094L24.24 21.7031L28.8806 22.6406C29.115 22.6875 29.3494 22.875 29.4431 23.1094C29.5369 23.3438 29.49 23.5781 29.3494 23.8125L27.4744 26.6719C27.3337 26.8594 27.0994 27 26.8181 27C26.2087 27 25.8806 26.3438 26.2087 25.8281L27.4744 23.9062L23.4431 23.1094C23.1619 23.0156 22.9275 22.7812 22.8806 22.5L22.0369 18.4688L18.615 20.7656C18.3806 20.9062 18.0525 20.9062 17.8181 20.7656L14.3962 18.4688L13.5525 22.5C13.5056 22.8281 13.2712 23.0156 12.99 23.1094L8.95874 23.9062L10.2244 25.8281C10.5525 26.3438 10.2244 27 9.61499 27C9.33374 27 9.09937 26.8594 9.00562 26.6719ZM18.1931 22.5469C20.49 22.5469 22.4119 24 23.1619 26.0625C23.3025 26.5312 22.9744 27.0469 22.4587 27.0469C22.0837 27.0469 21.8494 26.8125 21.7556 26.5312C21.24 25.0781 19.8337 24.0469 18.1931 24.0469C16.5994 24.0469 15.1931 25.0781 14.6775 26.5312C14.5837 26.8125 14.3025 27.0469 13.9744 27.0469C13.2244 27.0469 13.2244 26.25 13.2712 26.0625C13.9744 24 15.9431 22.5469 18.1931 22.5469ZM30.99 28.5C31.365 28.5 31.74 28.875 31.74 29.2969C31.74 29.6719 31.365 30 30.99 30H5.48999C5.06812 30 4.73999 29.6719 4.73999 29.25C4.73999 28.875 5.06812 28.5 5.48999 28.5H30.99ZM17.6775 16.3125L13.1775 11.8125C12.8962 11.5312 12.8962 11.0156 13.1775 10.7344C13.4587 10.4531 13.9744 10.4531 14.2556 10.7344L17.49 13.9688V6.75C17.49 6.375 17.8181 6 18.24 6C18.615 6 18.99 6.375 18.99 6.75V13.9688L22.1775 10.7344C22.4587 10.4531 22.9744 10.4531 23.2556 10.7344C23.5369 11.0156 23.5369 11.5312 23.2556 11.8125L18.7556 16.3125C18.615 16.4531 18.4275 16.5 18.24 16.5C18.0056 16.5 17.8181 16.4531 17.6775 16.3125Z" fill="#20272D"/>
</svg>
