<svg width="36" height="36" viewBox="0 0 36 36" fill="none" xmlns="http://www.w3.org/2000/svg">
<path d="M25.74 7.5C27.3806 7.5 28.74 8.85938 28.74 10.5V25.5C28.74 27.1875 27.3806 28.5 25.74 28.5H10.74C9.0525 28.5 7.74 27.1875 7.74 25.5V10.5C7.74 8.85938 9.0525 7.5 10.74 7.5H25.74ZM27.24 25.5V10.5C27.24 9.70312 26.5369 9 25.74 9H10.74C9.89625 9 9.24 9.70312 9.24 10.5V25.5C9.24 26.3438 9.89625 27 10.74 27H25.74C26.5369 27 27.24 26.3438 27.24 25.5ZM21.99 17.25C22.2713 17.25 22.5525 17.4375 22.6463 17.7656C22.7869 18.0469 22.6931 18.375 22.5056 18.5625L16.2244 24.5625C16.0838 24.7031 15.8963 24.75 15.7088 24.75C15.5213 24.75 15.3338 24.7031 15.1931 24.5625C14.865 24.2344 14.9119 23.7656 15.1931 23.4844L20.115 18.75H14.49C14.1619 18.75 13.8806 18.5156 13.7869 18.2812C13.6463 18 13.74 17.6719 13.9744 17.4844L20.2088 11.4844C20.49 11.2031 20.9588 11.2031 21.24 11.4844C21.5681 11.8125 21.5213 12.2812 21.24 12.5625L16.3181 17.25H21.99Z" fill="#20272D"/>
</svg>
