<svg width="36" height="36" viewBox="0 0 36 36" fill="none" xmlns="http://www.w3.org/2000/svg">
<path d="M12 10.125V25.875C12 26.5312 12.4688 27 13.125 27C13.7344 27 14.25 26.5312 14.25 25.875V20.9531L22.3594 26.7656C22.5938 26.9062 22.9219 27 23.25 27C23.4844 27 23.7188 26.9531 23.9062 26.8594C24.4219 26.5781 24.75 26.0625 24.75 25.5V10.5469C24.75 9.98438 24.4219 9.46875 23.9062 9.1875C23.7188 9.09375 23.4844 9.04688 23.25 9.04688C22.9219 9.04688 22.5938 9.14062 22.3594 9.28125L14.25 15.0938V10.125C14.25 9.51562 13.7344 9 13.125 9C12.4688 9 12 9.51562 12 10.125ZM14.25 17.8594L22.5 12V24.0469L14.25 18.1875V17.8594Z" fill="black"/>
</svg>
