<svg width="36" height="36" viewBox="0 0 36 36" fill="none" xmlns="http://www.w3.org/2000/svg">
<path d="M14.865 17.625V22.875C14.865 23.5312 14.3494 24 13.74 24C13.0837 24 12.615 23.5312 12.615 22.875V17.625C12.615 17.0156 13.0837 16.5 13.74 16.5C14.3494 16.5 14.865 17.0156 14.865 17.625ZM17.115 13.125C17.115 12.5156 17.5837 12 18.24 12C18.8494 12 19.365 12.5156 19.365 13.125V22.875C19.365 23.5312 18.8494 24 18.24 24C17.5837 24 17.115 23.5312 17.115 22.875V13.125ZM23.865 20.625V22.875C23.865 23.5312 23.3494 24 22.74 24C22.0837 24 21.615 23.5312 21.615 22.875V20.625C21.615 20.0156 22.0837 19.5 22.74 19.5C23.3494 19.5 23.865 20.0156 23.865 20.625ZM7.73999 10.5C7.73999 8.85938 9.05249 7.5 10.74 7.5H25.74C27.3806 7.5 28.74 8.85938 28.74 10.5V25.5C28.74 27.1875 27.3806 28.5 25.74 28.5H10.74C9.05249 28.5 7.73999 27.1875 7.73999 25.5V10.5ZM9.98999 10.5V25.5C9.98999 25.9219 10.3181 26.25 10.74 26.25H25.74C26.115 26.25 26.49 25.9219 26.49 25.5V10.5C26.49 10.125 26.115 9.75 25.74 9.75H10.74C10.3181 9.75 9.98999 10.125 9.98999 10.5Z" fill="#20272D"/>
</svg>
