<svg width="36" height="36" viewBox="0 0 36 36" fill="none" xmlns="http://www.w3.org/2000/svg">
<path d="M18.24 12C21.5213 12 24.1931 14.7656 24.1931 18C24.1931 21.2812 21.5213 24 18.24 24C14.9119 24 12.24 21.2343 12.24 18C12.24 14.7187 14.9119 12 18.24 12ZM18.24 22.5C20.7244 22.5 22.6931 20.4843 22.6931 17.9531C22.6931 15.5156 20.7244 13.5 18.24 13.5C15.7088 13.5 13.74 15.5156 13.74 18C13.74 20.4843 15.7088 22.5 18.24 22.5ZM27.4744 18L29.9588 21.6093C30.24 21.9843 30.2869 22.5 30.0994 22.9687C29.9119 23.3906 29.5369 23.7187 29.0681 23.8125L24.7556 24.5625L24.0056 28.875C23.9119 29.3437 23.5838 29.7187 23.1619 29.9062C22.6931 30.0937 22.1775 30.0468 21.8025 29.7656L18.24 27.2812L14.6306 29.7656C14.3963 29.9531 14.115 30 13.8338 30C13.6463 30 13.4588 30 13.2713 29.9062C12.8494 29.7187 12.5213 29.3437 12.4275 28.875L11.6775 24.5625L7.365 23.8125C6.89625 23.7187 6.52125 23.3906 6.33375 22.9687C6.14625 22.5 6.19313 21.9843 6.47438 21.6093L8.95875 18L6.47438 14.4375C6.19313 14.0625 6.14625 13.5468 6.33375 13.0781C6.52125 12.6562 6.89625 12.3281 7.365 12.2343L11.6775 11.4843L12.4275 7.17183C12.5213 6.70308 12.8494 6.32808 13.2713 6.14058C13.74 5.95308 14.2556 5.99995 14.6306 6.2812L18.24 8.76558L21.8025 6.2812C22.1775 5.99995 22.6931 5.95308 23.1619 6.14058C23.5838 6.32808 23.9119 6.70308 24.0056 7.17183L24.7556 11.4843L29.0681 12.2343C29.5369 12.3281 29.9119 12.6562 30.0994 13.0781C30.2869 13.5468 30.24 14.0625 29.9588 14.4375L27.4744 18ZM24.0056 23.2031L28.6463 22.3593L25.9744 18.4687C25.7869 18.1875 25.7869 17.8593 25.9744 17.5781L28.74 13.5937L24.0056 12.8437C23.6775 12.7968 23.4431 12.5625 23.3963 12.2343L22.5056 7.45308L18.6619 10.2656C18.3806 10.4531 18.0525 10.4531 17.7713 10.2656L13.7869 7.49995L13.0369 12.2343C12.99 12.5625 12.7556 12.7968 12.4275 12.8437L7.64625 13.7343L10.4588 17.5781C10.6463 17.8593 10.6463 18.1875 10.4588 18.4687L7.69313 22.4531L12.4275 23.2031C12.7556 23.25 12.99 23.4843 13.0369 23.8125L13.9275 28.5937L17.7713 25.7812C18.0525 25.5937 18.3806 25.5937 18.6619 25.7812L22.6463 28.5468L23.3963 23.8125C23.4431 23.4843 23.6775 23.25 24.0056 23.2031Z" fill="#20272D"/>
</svg>
