<svg width="36" height="36" viewBox="0 0 36 36" fill="none" xmlns="http://www.w3.org/2000/svg">
<path d="M24 19.5C22.6406 19.5 21.4219 20.1094 20.5781 21.0938L16.3594 18.9844C16.4531 18.6562 16.5 18.3281 16.5 18C16.5 17.7188 16.4531 17.3906 16.3594 17.0625L20.5781 14.9531C21.4219 15.8906 22.6406 16.5 24 16.5C26.4844 16.5 28.5 14.5312 28.5 12C28.5 9.51562 26.4844 7.5 24 7.5C21.4688 7.5 19.5 9.51562 19.5 12C19.5 12.3281 19.5 12.6562 19.5938 12.9844L15.375 15.0938C14.5312 14.1094 13.3125 13.5 12 13.5C9.46875 13.5 7.5 15.5156 7.5 18C7.5 20.5312 9.46875 22.5 12 22.5C13.3125 22.5 14.5312 21.9375 15.375 20.9531L19.5938 23.0625C19.5 23.3906 19.5 23.7188 19.5 24C19.5 26.5312 21.4688 28.5 24 28.5C26.4844 28.5 28.5 26.5312 28.5 24C28.5 21.5156 26.4844 19.5 24 19.5ZM24 9.75C25.2188 9.75 26.25 10.7812 26.25 12C26.25 13.2656 25.2188 14.25 24 14.25C22.7344 14.25 21.75 13.2656 21.75 12C21.75 10.7812 22.7344 9.75 24 9.75ZM12 20.25C10.7344 20.25 9.75 19.2656 9.75 18C9.75 16.7812 10.7344 15.75 12 15.75C13.2188 15.75 14.25 16.7812 14.25 18C14.25 19.2656 13.2188 20.25 12 20.25ZM24 26.25C22.7344 26.25 21.75 25.2656 21.75 24C21.75 22.7812 22.7344 21.75 24 21.75C25.2188 21.75 26.25 22.7812 26.25 24C26.25 25.2656 25.2188 26.25 24 26.25Z" fill="black"/>
</svg>
