<svg width="36" height="36" viewBox="0 0 36 36" fill="none" xmlns="http://www.w3.org/2000/svg">
<path d="M23.49 28.5C23.865 28.5 24.1931 28.8281 24.1931 29.25C24.1931 29.6719 23.8181 30 23.4431 30H12.99C12.5681 30 12.24 29.6719 12.24 29.25C12.24 28.875 12.5681 28.5 12.99 28.5H17.4431V26.25C17.4431 25.875 17.7712 25.5 18.1931 25.5C18.615 25.5 18.9431 25.875 18.9431 26.25V28.5H23.49ZM33.1931 20.5312C33.4744 22.3594 32.0212 24 30.0994 24H6.33375C4.41187 24 2.95875 22.3594 3.24 20.5312L5.34937 8.53125C5.58375 7.07812 6.89625 6 8.39625 6H28.0369C29.5369 6 30.8494 7.07812 31.0837 8.53125L33.1931 20.5312ZM15.1931 7.5L14.5369 14.2969H21.8962L21.2869 7.5H15.1931ZM12.2869 22.5L12.8962 15.8438H5.58375L4.74 20.7656C4.64625 21.3281 4.88062 21.75 5.06812 21.9375C5.34937 22.3125 5.81812 22.5 6.33375 22.5H12.2869ZM13.0369 14.2969L13.6931 7.5H8.39625C7.59937 7.5 6.94312 8.0625 6.8025 8.76562L5.865 14.2969H13.0369ZM13.7869 22.5H22.6462L22.0369 15.7969H14.3962L13.7869 22.5ZM22.7869 7.5L23.4431 14.2969H30.5681L29.6306 8.76562C29.49 8.0625 28.8337 7.5 28.0369 7.5H22.7869ZM31.365 21.9375C31.5525 21.75 31.7869 21.3281 31.6931 20.7656L30.8494 15.7969H23.5369L24.1462 22.5H30.0994C30.615 22.5 31.0837 22.3125 31.365 21.9375Z" fill="#20272D"/>
</svg>
