<svg width="36" height="36" viewBox="0 0 36 36" fill="none" xmlns="http://www.w3.org/2000/svg">
<path d="M18.24 11.25C18.615 11.25 18.99 10.9219 18.99 10.5V6.75C18.99 6.375 18.615 6 18.24 6C17.8181 6 17.49 6.375 17.49 6.75V10.5C17.49 10.9219 17.8181 11.25 18.24 11.25ZM18.99 29.25C18.99 29.6719 18.615 30 18.24 30C17.8181 30 17.49 29.6719 17.49 29.25V25.5C17.49 25.125 17.8181 24.75 18.24 24.75C18.615 24.75 18.99 25.125 18.99 25.5V29.25ZM30.24 18C30.24 18.4219 29.865 18.75 29.49 18.75H25.74C25.3181 18.75 24.99 18.4219 24.99 18C24.99 17.625 25.3181 17.25 25.74 17.25H29.49C29.865 17.25 30.24 17.625 30.24 18ZM11.49 18C11.49 18.4219 11.115 18.75 10.74 18.75H6.99C6.56812 18.75 6.24 18.4219 6.24 18C6.24 17.625 6.56812 17.25 6.99 17.25H10.74C11.115 17.25 11.49 17.625 11.49 18ZM24.0525 13.2656C23.9119 13.4062 23.7244 13.4531 23.5369 13.4531C23.3494 13.4531 23.1619 13.4062 22.9744 13.2656C22.6931 12.9375 22.6931 12.4688 22.9744 12.1875L25.6462 9.51562C25.9275 9.23438 26.3962 9.23438 26.7244 9.51562C27.0056 9.84375 27.0056 10.3125 26.7244 10.5938L24.0525 13.2656ZM10.7869 26.4844C10.6462 26.6719 10.4587 26.7188 10.2712 26.7188C10.0837 26.7188 9.89625 26.6719 9.70875 26.4844C9.4275 26.2031 9.4275 25.7344 9.70875 25.4531L12.3806 22.7812C12.6619 22.5 13.1306 22.5 13.4587 22.7812C13.74 23.1094 13.74 23.5781 13.4587 23.8594L10.7869 26.4844ZM26.7244 26.4844C26.5369 26.6719 26.3494 26.7188 26.1619 26.7188C25.9744 26.7188 25.7869 26.6719 25.6462 26.5312L22.9744 23.8594C22.6931 23.5781 22.6931 23.1094 22.9744 22.7812C23.3025 22.5 23.7712 22.5 24.0525 22.7812L26.7244 25.4531C27.0056 25.7344 27.0056 26.2031 26.7244 26.4844ZM13.4587 13.2656C13.3181 13.4062 13.0837 13.4531 12.8962 13.4531C12.7087 13.4531 12.5212 13.4062 12.3806 13.2656L9.70875 10.5938C9.4275 10.3125 9.4275 9.84375 9.70875 9.51562C10.0369 9.23438 10.5056 9.23438 10.7869 9.51562L13.4587 12.1875C13.74 12.4688 13.74 12.9375 13.4587 13.2656ZM23.49 18C23.49 20.9062 21.0994 23.25 18.24 23.25C15.3337 23.25 12.99 20.9062 12.99 18C12.99 15.1406 15.3337 12.75 18.24 12.75C21.0994 12.75 23.49 15.1406 23.49 18ZM21.99 18C21.99 15.9375 20.3025 14.25 18.24 14.25C16.1306 14.25 14.49 15.9375 14.49 18C14.49 20.1094 16.1306 21.75 18.24 21.75C20.3025 21.75 21.99 20.1094 21.99 18Z" fill="#20272D"/>
</svg>
