<svg width="36" height="36" viewBox="0 0 36 36" fill="none" xmlns="http://www.w3.org/2000/svg">
<path d="M29.625 28.0781L23.3438 21.7969C24.7031 20.1562 25.5 18.0469 25.5 15.75C25.5 10.4062 21.0938 6 15.75 6C10.3594 6 6 10.4062 6 15.75C6 21.1406 10.3594 25.5 15.75 25.5C18 25.5 20.1094 24.75 21.7969 23.3906L28.0781 29.6719C28.2656 29.9062 28.5469 30 28.875 30C29.1562 30 29.4375 29.9062 29.625 29.6719C30.0938 29.25 30.0938 28.5469 29.625 28.0781ZM15.75 23.25C11.5781 23.25 8.25 19.9219 8.25 15.75C8.25 11.625 11.5781 8.25 15.75 8.25C19.875 8.25 23.25 11.625 23.25 15.75C23.25 19.9219 19.875 23.25 15.75 23.25ZM19.5 14.625H16.8281V12C16.8281 11.3906 16.3125 10.875 15.75 10.875C15.1406 10.875 14.625 11.3906 14.625 12V14.625H11.9531C11.3438 14.625 10.875 15.1406 10.875 15.75C10.875 16.4062 11.3438 16.875 11.9531 16.875H14.625V19.5C14.625 20.1562 15.0938 20.625 15.7031 20.625C16.3125 20.625 16.7812 20.1562 16.7812 19.5V16.875H19.4062C20.1094 16.875 20.625 16.4062 20.625 15.75C20.625 15.1406 20.1094 14.625 19.5 14.625Z" fill="black"/>
</svg>
