<svg width="36" height="36" viewBox="0 0 36 36" fill="none" xmlns="http://www.w3.org/2000/svg">
<path d="M25.74 7.5C27.3806 7.5 28.74 8.85938 28.74 10.5V25.5C28.74 27.1875 27.3806 28.5 25.74 28.5H10.74C9.05249 28.5 7.73999 27.1875 7.73999 25.5V10.5C7.73999 8.85938 9.05249 7.5 10.74 7.5H25.74ZM26.49 25.5V10.5C26.49 10.125 26.115 9.75 25.74 9.75H10.74C10.3181 9.75 9.98999 10.125 9.98999 10.5V25.5C9.98999 25.9219 10.3181 26.25 10.74 26.25H25.74C26.115 26.25 26.49 25.9219 26.49 25.5ZM20.115 21.75C20.7244 21.75 21.24 22.2656 21.24 22.875C21.24 23.5312 20.7244 24 20.115 24H16.365C15.7087 24 15.24 23.5312 15.24 22.875C15.24 22.2656 15.7087 21.75 16.365 21.75H17.115V18.75H16.74C16.0837 18.75 15.615 18.2812 15.615 17.625C15.615 17.0156 16.0837 16.5 16.74 16.5H18.24C18.8494 16.5 19.365 17.0156 19.365 17.625V21.75H20.115ZM18.24 15C17.3962 15 16.74 14.3438 16.74 13.5C16.74 12.7031 17.3962 12 18.24 12C19.0369 12 19.74 12.7031 19.74 13.5C19.74 14.3438 19.0369 15 18.24 15Z" fill="#20272D"/>
</svg>
