<svg width="36" height="36" viewBox="0 0 36 36" fill="none" xmlns="http://www.w3.org/2000/svg">
<path d="M18 15C19.6406 15 21 13.6875 21 12C21 10.3594 19.6406 9 18 9C16.3125 9 15 10.3594 15 12C15 13.6875 16.3125 15 18 15ZM18 10.5C18.7969 10.5 19.5 11.2031 19.5 12C19.5 12.8438 18.7969 13.5 18 13.5C17.1562 13.5 16.5 12.8438 16.5 12C16.5 11.2031 17.1562 10.5 18 10.5ZM18 16.5C15.0938 16.5 12.75 18.8906 12.75 21.75C12.75 24.6562 15.0938 27 18 27C20.8594 27 23.25 24.6562 23.25 21.75C23.25 18.8906 20.8594 16.5 18 16.5ZM18 25.5C15.8906 25.5 14.25 23.8594 14.25 21.75C14.25 19.6875 15.8906 18 18 18C20.0625 18 21.75 19.6875 21.75 21.75C21.75 23.8594 20.0625 25.5 18 25.5ZM24 6H12C10.3125 6 9 7.35938 9 9V27C9 28.6875 10.3125 30 12 30H24C25.6406 30 27 28.6875 27 27V9C27 7.35938 25.6406 6 24 6ZM25.5 27C25.5 27.8438 24.7969 28.5 24 28.5H12C11.1562 28.5 10.5 27.8438 10.5 27V9C10.5 8.20312 11.1562 7.5 12 7.5H24C24.7969 7.5 25.5 8.20312 25.5 9V27ZM18 20.625C17.3438 20.625 16.875 21.1406 16.875 21.75C16.875 22.4062 17.3438 22.875 18 22.875C18.6094 22.875 19.125 22.4062 19.125 21.75C19.125 21.1406 18.6094 20.625 18 20.625Z" fill="black"/>
</svg>
