<svg width="36" height="36" viewBox="0 0 36 36" fill="none" xmlns="http://www.w3.org/2000/svg">
<path d="M7.875 18.75H16.875V19.875C16.875 20.5312 17.3438 21 18 21C18.6094 21 19.125 20.5312 19.125 19.9219V18.75H28.125V19.875C28.125 20.5312 28.5938 21 29.25 21C29.8594 21 30.375 20.5312 30.375 19.9219V18.3281C30.375 17.3438 29.5312 16.5 28.5469 16.5H19.125V13.5H21C21.7969 13.5 22.5 12.8438 22.5 12V7.5C22.5 6.70312 21.7969 6 21 6H15C14.1562 6 13.5 6.70312 13.5 7.5V12C13.5 12.4219 13.6406 12.7969 13.9219 13.0781C14.2031 13.3594 14.5781 13.5 15 13.5H16.875V16.5H7.40625C6.42188 16.5 5.625 17.3438 5.625 18.3281V19.875C5.625 20.5312 6.09375 21 6.70312 21C7.26562 21 7.875 20.5312 7.875 19.875V18.75ZM15.75 11.25V8.25H20.25V11.25H15.75ZM31.5 22.5H27C26.1562 22.5 25.5 23.2031 25.5 24V28.5C25.5 29.3438 26.1562 30 27 30H31.5C32.2969 30 33 29.3438 33 28.5V24C33 23.2031 32.2969 22.5 31.5 22.5ZM30.75 27.75H27.75V24.75H30.75V27.75ZM20.25 22.5H15.75C14.9062 22.5 14.25 23.2031 14.25 24V28.5C14.25 29.3438 14.9062 30 15.75 30H20.25C21.0469 30 21.75 29.3438 21.75 28.5V24C21.75 23.2031 21.0469 22.5 20.25 22.5ZM19.5 27.75H16.5V24.75H19.5V27.75ZM9 22.5H4.5C3.65625 22.5 3 23.2031 3 24V28.5C3 29.3438 3.65625 30 4.5 30H9C9.79688 30 10.5 29.3438 10.5 28.5V24C10.5 23.2031 9.79688 22.5 9 22.5ZM8.25 27.75H5.25V24.75H8.25V27.75Z" fill="#20272D"/>
</svg>
