<svg width="36" height="36" viewBox="0 0 36 36" fill="none" xmlns="http://www.w3.org/2000/svg">
<path d="M15 27.375C15 28.0312 14.4844 28.5 13.875 28.5H10.5C7.96875 28.5 6 26.5312 6 24V12C6 9.51562 7.96875 7.5 10.5 7.5H13.875C14.4844 7.5 15 8.01562 15 8.625C15 9.28125 14.4844 9.75 13.875 9.75H10.5C9.23438 9.75 8.25 10.7812 8.25 12V24C8.25 25.2656 9.23438 26.25 10.5 26.25H13.875C14.4844 26.25 15 26.7656 15 27.375ZM29.6719 17.25L23.7188 10.875C23.2969 10.4062 22.5938 10.4062 22.125 10.8281C21.6562 11.25 21.6562 11.9531 22.0781 12.4219L26.25 16.875H14.5781C13.9688 16.875 13.5 17.3906 13.5 18C13.5 18.6562 13.9688 19.125 14.5781 19.125H26.2031L21.9844 23.625C21.5625 24.0938 21.5625 24.7969 22.0312 25.2188C22.3125 25.4062 22.5938 25.5 22.8281 25.5C23.1094 25.5 23.3906 25.4062 23.625 25.1719L29.5781 18.7969C30.0938 18.375 30.0938 17.6719 29.6719 17.25Z" fill="black"/>
</svg>
