<svg width="36" height="36" viewBox="0 0 36 36" fill="none" xmlns="http://www.w3.org/2000/svg">
<path d="M21.1875 10.875L24 12L25.125 14.8125C25.2188 14.9531 25.3594 15 25.5 15C25.6406 15 25.7344 14.9531 25.8281 14.8125L27 12L29.7656 10.875C29.9062 10.7812 30 10.6406 30 10.5C30 10.3594 29.9062 10.2656 29.7656 10.1719L27 9L25.8281 6.23438C25.7344 6.09375 25.6406 6 25.5 6C25.3594 6 25.2188 6.09375 25.125 6.23438L24 9L21.1875 10.1719C21.0469 10.2656 21 10.3594 21 10.5C21 10.6406 21.0469 10.7812 21.1875 10.875ZM29.7656 25.1719L27 24L25.8281 21.2344C25.7344 21.0938 25.6406 21 25.5 21C25.3594 21 25.2188 21.0938 25.125 21.2344L24 24L21.1875 25.1719C21.0469 25.2656 21 25.3594 21 25.5C21 25.6406 21.0469 25.7812 21.1875 25.875L24 27L25.125 29.8125C25.2188 29.9531 25.3594 30 25.5 30C25.6406 30 25.7344 29.9531 25.8281 29.8125L27 27L29.7656 25.875C29.9062 25.7812 30 25.6406 30 25.5C30 25.3594 29.9062 25.2656 29.7656 25.1719ZM24 18C24 17.5781 23.7188 17.2031 23.3438 17.0156L18.4219 14.5781L15.9844 9.65625C15.6094 8.85938 14.3438 8.85938 13.9688 9.65625L11.5312 14.5781L6.60938 17.0156C6.23438 17.2031 6 17.5781 6 18C6 18.4688 6.23438 18.8438 6.60938 19.0312L11.5312 21.4688L13.9688 26.3906C14.1562 26.7656 14.5312 27 15 27C15.4219 27 15.7969 26.7656 15.9844 26.3906L18.4219 21.4688L23.3438 19.0312C23.7188 18.8438 24 18.4688 24 18ZM17.1094 19.6406C16.875 19.7344 16.6875 19.9219 16.5938 20.1562L15 23.3906L13.3594 20.1562C13.2656 19.9219 13.0781 19.7344 12.8438 19.6406L9.60938 18L12.8438 16.4062C13.0781 16.3125 13.2656 16.125 13.3594 15.8906L15 12.6562L16.5938 15.8906C16.6875 16.125 16.875 16.3125 17.1094 16.4062L20.3438 18L17.1094 19.6406Z" fill="black"/>
</svg>
