<svg width="36" height="36" viewBox="0 0 36 36" fill="none" xmlns="http://www.w3.org/2000/svg">
<path d="M30.4688 19.7812C30.2812 18.0938 28.8281 16.7812 27.0938 16.7812C26.7656 16.7812 26.3906 16.8281 26.0625 16.9219C24.8438 15.6562 22.9688 15.1875 21.2812 15.75C19.6406 16.3125 18.375 17.7656 18.1406 19.5C15.9844 20.2031 14.6719 22.4062 15.0469 24.6094C15.4219 26.8594 17.3438 28.5 19.5938 28.5H28.3594C30.4688 28.5 32.3438 27.0469 32.8594 24.9844C33.3281 22.9219 32.3438 20.7656 30.4688 19.7812ZM28.3594 27H19.5938C18.4688 27.0469 17.4375 26.4375 16.875 25.4531C16.3125 24.5156 16.3125 23.2969 16.875 22.3125C17.4375 21.3281 18.4688 20.7656 19.5938 20.7656C19.6406 20.7656 19.6406 20.7656 19.6406 20.7656C19.3125 19.1719 20.25 17.625 21.8438 17.1562C23.3906 16.6875 25.0312 17.4844 25.6406 18.9844C26.2031 18.2812 27.2344 18.0469 28.0312 18.5156C28.8281 18.9844 29.2031 19.9688 28.8281 20.8125C30.4688 21.0938 31.5938 22.5469 31.4531 24.1406C31.3594 25.7812 30 27 28.3594 27ZM13.5 12.75L13.4531 18.75C13.4531 19.1719 13.8281 19.5 14.25 19.5C14.625 19.5 15 19.1719 15 18.75V12.75C15 12.375 14.625 12 14.25 12C13.8281 12 13.5 12.375 13.5 12.75ZM6 27C5.15625 27 4.5 26.3438 4.5 25.5V10.5C4.5 9.70312 5.15625 9 6 9H21C21.7969 9 22.5 9.70312 22.5 10.5V14.0625C22.5469 14.0156 22.6406 14.0156 22.7344 14.0156C23.1562 14.0156 23.5781 14.0625 24 14.1562L23.9531 10.5C23.9531 8.85938 22.6406 7.5 21 7.5H6.04688C4.40625 7.5 3.09375 8.85938 3.09375 10.5V25.5C3.09375 27.1875 4.45312 28.5 6.04688 28.5H15.6562C15.1406 28.0781 14.7188 27.5625 14.3906 27H6ZM10.5 12.75L10.4531 18.75C10.4531 19.1719 10.8281 19.5 11.25 19.5C11.625 19.5 11.9531 19.1719 11.9531 18.75L12 12.75C12 12.375 11.625 12 11.25 12C10.8281 12 10.5 12.375 10.5 12.75ZM7.5 12.75L7.45312 18.75C7.45312 19.1719 7.82812 19.5 8.20312 19.5C8.625 19.5 8.95312 19.1719 8.95312 18.75V12.75C8.95312 12.375 8.57812 12 8.20312 12C7.78125 12 7.5 12.375 7.5 12.75Z" fill="black"/>
</svg>
