<svg width="36" height="36" viewBox="0 0 36 36" fill="none" xmlns="http://www.w3.org/2000/svg">
<path d="M23.625 9C22.9688 9 22.5 9.51562 22.5 10.125V15.0938L14.3438 9.28125C14.1094 9.09375 13.7812 9 13.5 9C13.2188 9 12.9844 9.09375 12.7969 9.1875C12.2812 9.46875 12 9.98438 12 10.5469V25.5C12 26.0625 12.2812 26.5781 12.7969 26.8125C12.9844 26.9531 13.2656 27 13.5 27C13.7812 27 14.1094 26.9062 14.3438 26.7656L22.5 20.9531V25.875C22.5 26.5312 22.9688 27 23.625 27C24.2344 27 24.75 26.5312 24.75 25.875V10.125C24.75 9.51562 24.2344 9 23.625 9ZM22.5 18.1875L14.25 24.0469V12L22.5 17.8594V18.1875Z" fill="black"/>
</svg>
