<svg width="36" height="36" viewBox="0 0 36 36" fill="none" xmlns="http://www.w3.org/2000/svg">
<path fill-rule="evenodd" clip-rule="evenodd" d="M18 9.125C13.0985 9.125 9.125 13.0985 9.125 18C9.125 22.9015 13.0985 26.875 18 26.875C22.9015 26.875 26.875 22.9015 26.875 18C26.875 17.3787 27.3787 16.875 28 16.875C28.6213 16.875 29.125 17.3787 29.125 18C29.125 24.1442 24.1442 29.125 18 29.125C11.8558 29.125 6.875 24.1442 6.875 18C6.875 11.8558 11.8558 6.875 18 6.875C18.6213 6.875 19.125 7.37868 19.125 8C19.125 8.62132 18.6213 9.125 18 9.125Z" fill="black"/>
</svg>
