<svg width="36" height="36" viewBox="0 0 36 36" fill="none" xmlns="http://www.w3.org/2000/svg">
<path d="M29.25 17.0156C28.7344 16.2656 27.2812 15.375 27.2812 15.375C27.6562 14.625 27.7969 13.875 27.7031 13.0781C27.6094 12.2812 27.2812 11.5781 26.7656 11.0156C26.2031 10.4531 25.5469 10.0312 24.7969 9.84375C24.5156 9.79688 24.2344 9.75 24 9.75C23.4844 9.75 22.9688 9.89062 22.5 10.0781C22.3594 8.95312 21.8438 7.96875 21 7.17188C20.1562 6.42188 19.125 6 18 6C16.8281 6 15.7969 6.42188 14.9531 7.17188C14.1094 7.96875 13.5938 8.95312 13.5 10.0781C12.9844 9.89062 12.4688 9.75 11.9531 9.75C11.7188 9.75 11.4375 9.79688 11.1562 9.84375C10.4062 10.0312 9.75 10.4531 9.1875 11.0156C8.67188 11.5781 8.34375 12.2812 8.25 13.0781C8.15625 13.875 8.29688 14.625 8.71875 15.375C7.875 15.75 7.21875 16.2656 6.70312 17.0156C6.23438 17.7656 6 18.6094 6 19.5C6 20.7656 6.42188 21.8438 7.3125 22.6875C8.15625 23.5781 9.23438 24 10.5 24H17.25V29.25C17.25 29.6719 17.5781 30 18 30C18.375 30 18.75 29.6719 18.75 29.25V24H25.5C26.7188 24 27.7969 23.5781 28.6875 22.6875C29.5312 21.8438 30 20.7656 30 19.5C30 18.6094 29.7188 17.7656 29.25 17.0156ZM27.6094 21.6562C27 22.2656 26.3438 22.5 25.5 22.5H18.75V21.3281L21.5156 18.5625C21.7969 18.2812 21.7969 17.7656 21.5156 17.4844C21.2344 17.2031 20.7188 17.2031 20.4375 17.4844L18.75 19.2188V12.75C18.75 12.375 18.375 12 17.9531 12C17.5781 12 17.25 12.375 17.25 12.75V16.6406L15.5625 14.5312C15.2812 14.25 14.8125 14.1562 14.5312 14.4375C14.2031 14.6719 14.1094 15.1875 14.3906 15.4688L17.25 19.0312V22.5H10.5C9.60938 22.5 8.95312 22.2656 8.34375 21.6562C7.73438 21.0469 7.5 20.3906 7.5 19.5C7.5 18.9375 7.64062 18.375 7.96875 17.8594C8.29688 17.3906 8.71875 17.0156 9.32812 16.7812L10.9219 16.125L10.0312 14.625C9.75 14.1562 9.65625 13.7344 9.75 13.2656C9.79688 12.7969 9.98438 12.375 10.3125 12.0469C10.6406 11.6719 11.0156 11.4375 11.5312 11.3438C11.6719 11.2969 11.8125 11.25 11.9531 11.25C12.2812 11.25 12.5625 11.3438 12.8438 11.4844L14.7656 12.3281L14.9531 10.2656C15.0469 9.46875 15.375 8.85938 15.9844 8.29688C16.5469 7.78125 17.2031 7.5 18 7.5C18.75 7.5 19.4062 7.78125 20.0156 8.29688C20.5781 8.8125 20.9062 9.46875 21 10.2656L21.1875 12.3281L23.0625 11.4844C23.3906 11.3438 23.6719 11.25 24 11.25C24.1406 11.25 24.2812 11.2969 24.4219 11.3438C24.9375 11.4375 25.3125 11.6719 25.6406 12.0469C25.9688 12.375 26.1562 12.7969 26.2031 13.2656C26.2969 13.7812 26.2031 14.2031 25.9219 14.6719L25.2656 15.9375L26.4844 16.6875C27.0469 17.0156 27.7969 17.5781 27.9844 17.8594C28.3125 18.375 28.5 18.8906 28.5 19.5C28.5 20.3906 28.2188 21.0469 27.6094 21.6562Z" fill="black"/>
</svg>
