<svg width="36" height="36" viewBox="0 0 36 36" fill="none" xmlns="http://www.w3.org/2000/svg">
<path d="M27.375 9.75H23.8594L22.2656 7.125C21.8438 6.42188 21.1406 6 20.3438 6H15.6094C14.8125 6 14.1094 6.42188 13.6875 7.125L12.0938 9.75H8.57812C7.96875 9.75 7.5 10.2656 7.5 10.875C7.5 11.4375 7.96875 12 8.57812 12H9L9.98438 27.8906C10.0312 29.1094 11.0156 30 12.2344 30H23.7188C24.9375 30 25.9219 29.1094 25.9688 27.8906L27 12H27.375C27.9844 12 28.5 11.5312 28.5 10.875C28.5 10.2656 27.9844 9.75 27.375 9.75ZM15.6094 8.25H20.3438L21.2344 9.75H14.7188L15.6094 8.25ZM23.7188 27.75H12.2344L11.25 12H24.7031L23.7188 27.75Z" fill="#20272D"/>
</svg>
