<svg width="36" height="36" viewBox="0 0 36 36" fill="none" xmlns="http://www.w3.org/2000/svg">
<path d="M20.25 24C20.25 25.2656 19.2187 26.25 18 26.25C16.7344 26.25 15.75 25.2656 15.75 24C15.75 23.0625 16.3594 22.2188 17.2031 21.8906L17.25 15.75C17.25 15.375 17.5781 15 17.9531 15C18.3281 15 18.7031 15.375 18.7031 15.75V21.8906C19.5937 22.2188 20.25 23.0625 20.25 24ZM22.5 20.0625C23.3906 21.0938 24 22.5 24 24C24 27.3281 21.2812 30 18 30H17.9531C14.625 30 11.9531 27.2812 12 24C12 22.5 12.5625 21.0938 13.4531 20.0625V10.5C13.4531 8.01562 15.4219 6.04688 17.9062 6.04688C20.3906 6.04688 22.5 8.01562 22.5 10.5V20.0625ZM22.5 24C22.5 22.1719 21.4219 21.0938 21 20.625V10.5C21 8.85938 19.6875 7.5 18.0469 7.5C16.4531 7.5 15 8.85938 15 10.5V20.625C14.5312 21.1406 13.5 22.125 13.5 24C13.4531 26.4844 15.4687 28.5 17.9531 28.5H18C20.4375 28.5 22.5 26.4844 22.5 24Z" fill="black"/>
</svg>
