<svg width="36" height="36" viewBox="0 0 36 36" fill="none" xmlns="http://www.w3.org/2000/svg">
<path d="M22.5 10.5C22.5 8.01562 20.4844 6.04688 18 6.04688C15.5156 6.04688 13.5 8.01562 13.5 10.5V20.0625C12.5625 21.0938 12 22.5 12 24C11.9531 27.2812 14.625 30 17.9531 30C21.2812 30 24 27.3281 24 24C24 22.5 23.3906 21.0938 22.5 20.0625V10.5ZM18 28.5H17.9531C15.4687 28.5 13.4531 26.4844 13.5 24C13.5 22.125 14.5312 21.1406 14.9531 20.625V10.5C14.9531 8.85938 16.2656 7.5 17.9062 7.5C19.5 7.5 20.8594 8.85938 20.8594 10.5V20.625C21.4219 21.0938 22.5 22.1719 22.5 24C22.5 26.4844 20.4375 28.5 18 28.5ZM20.25 24C20.25 25.2656 19.2187 26.25 18 26.25C16.7344 26.25 15.75 25.2656 15.75 24C15.75 23.0625 16.3594 22.2188 17.2031 21.8906V10.5C17.2031 10.125 17.5312 9.75 17.9062 9.75C18.2812 9.75 18.6094 10.125 18.6094 10.5V21.8906C19.5937 22.2188 20.25 23.0625 20.25 24Z" fill="black"/>
</svg>
