<svg width="36" height="36" viewBox="0 0 36 36" fill="none" xmlns="http://www.w3.org/2000/svg">
<path d="M15.99 15H5.44312C5.06812 15 4.73999 14.6719 4.73999 14.25C4.73999 13.875 5.06812 13.5 5.48999 13.5H15.99C16.365 13.5 16.74 13.875 16.74 14.25C16.74 14.6719 16.365 15 15.99 15ZM32.49 24C32.865 24 33.24 24.375 33.24 24.75C33.24 25.1719 32.865 25.5 32.49 25.5H30.24C30.24 27.9844 28.1775 30 25.74 30C23.2556 30 21.24 27.9844 21.24 25.5H15.24C15.24 28.0312 13.2244 30 10.74 30C8.20874 30 6.23999 28.0312 6.23999 25.5V18H3.94312C3.56812 18 3.23999 17.6719 3.23999 17.25C3.23999 16.875 3.56812 16.5 3.98999 16.5H14.49C14.865 16.5 15.24 16.875 15.24 17.25C15.24 17.6719 14.865 18 14.49 18H7.73999V22.1719C8.53687 21.4688 9.56812 21 10.74 21C12.6619 21 14.3025 22.2656 14.9587 24H21.4744C22.0837 22.2656 23.7712 21 25.74 21C27.6619 21 29.3494 22.2656 29.9587 24H30.24V18H22.74V19.5C22.74 19.9219 22.365 20.25 21.99 20.25C21.5681 20.25 21.24 19.9219 21.24 19.5V9C21.24 8.20312 20.5369 7.5 19.74 7.5H9.23999C8.39624 7.5 7.73999 8.20312 7.73999 9V10.5H14.49C14.865 10.5 15.24 10.875 15.24 11.25C15.24 11.6719 14.865 12 14.4431 12H3.94312C3.56812 12 3.23999 11.6719 3.23999 11.25C3.23999 10.875 3.56812 10.5 3.94312 10.5H6.23999V9C6.23999 7.35938 7.55249 6 9.23999 6H19.74C21.3806 6 22.74 7.35938 22.74 9V10.5H25.7869C26.4431 10.5 27.0525 10.8281 27.4744 11.2969L30.8025 15.1875C31.4119 15.8906 31.74 16.7344 31.74 17.625V24H32.49ZM22.74 16.5H29.9119C29.865 16.4062 29.7712 16.2656 29.6775 16.1719L26.3494 12.2812C26.2087 12.1406 25.9744 12 25.7869 12H22.74V16.5ZM10.74 28.5C12.3806 28.5 13.74 27.1875 13.74 25.5C13.74 23.8594 12.3806 22.5 10.74 22.5C9.05249 22.5 7.73999 23.8594 7.73999 25.5C7.73999 27.1875 9.05249 28.5 10.74 28.5ZM25.74 28.5C27.3806 28.5 28.74 27.1875 28.74 25.5C28.74 23.8594 27.3806 22.5 25.74 22.5C24.0525 22.5 22.74 23.8594 22.74 25.5C22.74 27.1875 24.0525 28.5 25.74 28.5Z" fill="#20272D"/>
</svg>
