<svg width="36" height="36" viewBox="0 0 36 36" fill="none" xmlns="http://www.w3.org/2000/svg">
<path d="M18 22.875C17.3438 22.875 16.875 23.3906 16.875 24C16.875 24.6562 17.3906 25.125 18 25.125C18.6094 25.125 19.0781 24.6562 19.0781 24C19.125 23.3906 18.6094 22.875 18 22.875ZM18 21C18.375 21 18.7031 20.6719 18.7031 20.25V13.5C18.7031 13.125 18.3281 12.75 18 12.75C17.625 12.75 17.25 13.125 17.25 13.5V20.25C17.25 20.6719 17.5781 21 18 21ZM29.625 24.6562L20.25 8.8125C19.7812 8.01562 18.9375 7.54688 18 7.5C17.0156 7.5 16.1719 8.01562 15.7031 8.8125L6.32812 24.6562C5.85938 25.4531 5.85938 26.3906 6.32812 27.1875C6.79688 28.0312 7.64062 28.5 8.625 28.5H27.375C28.3125 28.5 29.1562 28.0312 29.625 27.1875C30.0938 26.3906 30.0938 25.4531 29.625 24.6562ZM28.3125 26.4375C28.125 26.8125 27.75 27 27.3281 27H8.625C8.20312 27 7.82812 26.8125 7.64062 26.4375C7.40625 26.1094 7.45312 25.7344 7.64062 25.4062L17.0156 9.5625C17.2031 9.23438 17.5781 9 18 9C18 9 17.9531 9 18 9C18.375 9.04688 18.75 9.23438 18.9375 9.5625L28.3125 25.4062C28.5 25.7344 28.5469 26.1094 28.3125 26.4375Z" fill="black"/>
</svg>
