<svg width="36" height="36" viewBox="0 0 36 36" fill="none" xmlns="http://www.w3.org/2000/svg">
<path d="M19.78 12C19.3581 12 19.03 11.6719 19.03 11.25C19.03 10.875 19.3581 10.5 19.78 10.5H24.28C24.655 10.5 25.03 10.875 25.03 11.25C25.03 11.6719 24.655 12 24.28 12H19.78ZM12.28 9C11.8581 9 11.53 8.67188 11.53 8.25C11.53 7.875 11.8581 7.5 12.28 7.5H13.78V6.75C13.78 6.375 14.1081 6 14.53 6C14.905 6 15.28 6.375 15.28 6.75V7.5H16.78C17.155 7.5 17.53 7.875 17.53 8.25C17.53 8.67188 17.155 9 16.78 9H12.28ZM26.53 28.5C26.905 28.5 27.28 28.875 27.28 29.25C27.28 29.6719 26.905 30 26.53 30H10.03C9.60812 30 9.28 29.6719 9.28 29.25C9.28 28.875 9.60812 28.5 10.03 28.5H10.78V15H10.03C9.60812 15 9.28 14.6719 9.28 14.25C9.28 13.875 9.60812 13.5 10.03 13.5H26.53C26.905 13.5 27.28 13.875 27.28 14.25C27.28 14.6719 26.905 15 26.53 15H25.78V28.5H26.53ZM24.28 28.5V15H12.28V28.5H24.28ZM19.78 9C19.3581 9 19.03 8.67188 19.03 8.25C19.03 7.875 19.3581 7.5 19.78 7.5H21.28V6.75C21.28 6.375 21.6081 6 22.03 6C22.405 6 22.78 6.375 22.78 6.75V7.5H24.28C24.655 7.5 25.03 7.875 25.03 8.25C25.03 8.67188 24.655 9 24.28 9H19.78ZM12.28 12C11.8581 12 11.53 11.6719 11.53 11.25C11.53 10.875 11.8581 10.5 12.28 10.5H16.78C17.155 10.5 17.53 10.875 17.53 11.25C17.53 11.6719 17.155 12 16.78 12H12.28ZM15.28 22.5C14.9519 22.5 14.6706 22.3594 14.5769 22.0781C14.4362 21.7969 14.53 21.4688 14.7175 21.2344L19.2175 16.7344C19.4987 16.4531 20.0144 16.4531 20.2956 16.7344C20.5769 17.0156 20.5769 17.5312 20.2956 17.8125L17.0612 21H21.28C21.5612 21 21.8425 21.1875 21.9362 21.4688C22.0769 21.75 21.9831 22.0781 21.7956 22.3125L17.2956 26.8125C17.155 26.9531 16.9675 27 16.78 27C16.5456 27 16.3581 26.9531 16.2175 26.8125C15.9362 26.5312 15.9362 26.0156 16.2175 25.7344L19.4519 22.5H15.28Z" fill="#20272D"/>
</svg>
