<svg width="36" height="36" viewBox="0 0 36 36" fill="none" xmlns="http://www.w3.org/2000/svg">
<path d="M18 18C19.8347 18 21.375 16.5675 21.375 14.7347C21.375 14.2083 21.144 13.5919 20.895 13.0547C20.6325 12.4847 20.2875 11.8772 19.9514 11.3297C19.6139 10.7794 19.2792 10.275 19.0275 9.90938C18.9015 9.72638 18.7965 9.57633 18.723 9.47287C18.687 9.42042 18.657 9.37988 18.6375 9.35283C18.4828 9.14109 18.2859 9 17.9578 9C17.7094 9 17.5172 9.14156 17.3625 9.3525C17.343 9.37951 17.313 9.42155 17.2771 9.47255C17.1984 9.5775 17.0953 9.72609 16.9688 9.90891C16.7203 10.275 16.3828 10.7391 16.0453 11.3297C15.7125 11.8781 15.3656 12.4828 15.1031 13.0547C14.8547 13.5516 14.625 14.2078 14.625 14.7328C14.625 16.5656 16.1672 18 18 18ZM16.4672 13.6828C16.6967 13.1878 17.0072 12.6356 17.3283 12.1106C17.5594 11.7281 17.7937 11.3672 18 11.0672C18.2025 11.3701 18.438 11.7319 18.6722 12.1144C18.9932 12.6394 19.305 13.1916 19.5347 13.6866C19.7766 14.2125 19.875 14.5641 19.875 14.7328C19.875 15.6797 19.0688 16.5 18 16.5C16.9312 16.5 16.125 15.6797 16.125 14.7328C16.125 14.5641 16.2234 14.2125 16.4672 13.6828ZM25.125 7.5H21.7186C21.3046 7.5 20.9686 7.836 20.9686 8.25C20.9686 8.664 21.3046 9 21.7186 9H25.125C26.1609 9 27 9.84 27 10.875V19.9125L25.3922 21.3234C24.57 21.9698 23.4108 21.967 22.5933 21.313L21.4669 20.413C21.1939 20.1925 20.8041 20.1925 20.5308 20.413L19.4044 21.313C18.5822 21.9702 17.4155 21.9702 16.5933 21.313L15.4266 20.4141C15.1536 20.1936 14.7638 20.1936 14.4905 20.4141L13.3641 21.3141C12.5466 21.968 11.3869 21.9712 10.5652 21.3245L9 19.9125V10.875C9 9.84 9.84 9 10.875 9H14.295C14.709 9 15.045 8.664 15.045 8.25C15.045 7.836 14.709 7.5 14.295 7.5H10.875C9.01031 7.5 7.5 9.01031 7.5 10.875V25.125C7.5 26.9906 9.01031 28.5 10.875 28.5H25.125C26.9897 28.5 28.5 26.9897 28.5 25.125V10.875C28.5 9.01031 26.9906 7.5 25.125 7.5ZM27 25.125C27 26.16 26.16 27 25.125 27H10.875C9.84 27 9 26.1609 9 25.125V21.9089L9.63 22.4639C9.63907 22.4714 9.64804 22.4789 9.65701 22.4864C11.0267 23.5814 12.9734 23.5814 14.3431 22.4864L15 21.9609L15.6572 22.4873C17.0269 23.5823 18.9736 23.5823 20.3433 22.4873L21 21.9609L21.6572 22.4873C23.0269 23.5823 24.9736 23.5823 26.3433 22.4873C26.3523 22.4798 26.3612 22.4723 26.3703 22.4648L27 21.9094V25.125Z" fill="black"/>
</svg>
