<svg width="36" height="36" viewBox="0 0 36 36" fill="none" xmlns="http://www.w3.org/2000/svg">
<path d="M18 19.5C21.7031 19.5 24.75 16.5 24.75 12.75C24.75 9.04688 21.7031 6 18 6C14.25 6 11.25 9.04688 11.25 12.75C11.25 16.5 14.25 19.5 18 19.5ZM18 7.5C20.8594 7.5 23.25 9.89062 23.25 12.75C23.25 15.6562 20.8594 18 18 18C15.0938 18 12.75 15.6562 12.75 12.75C12.75 9.89062 15.0938 7.5 18 7.5ZM22.4531 21H13.5C9.32812 21 6 24.375 6 28.5C6 29.3438 6.65625 30 7.45312 30H28.5C29.2969 30 29.9531 29.3438 29.9531 28.5C30 24.375 26.625 21 22.4531 21ZM7.5 28.5C7.5 25.2188 10.1719 22.5 13.5 22.5H22.4531C25.7812 22.5 28.5 25.2188 28.5 28.5H7.5Z" fill="black"/>
</svg>
