<svg width="36" height="36" viewBox="0 0 36 36" fill="none" xmlns="http://www.w3.org/2000/svg">
<path d="M18.75 21.75V24.75C18.75 25.1719 18.375 25.5 18 25.5C17.5781 25.5 17.25 25.1719 17.25 24.75V21.75C17.25 21.375 17.5781 21 18 21C18.375 21 18.75 21.375 18.75 21.75ZM28.5 19.5V27C28.5 28.6875 27.1406 30 25.5 30H10.5C8.8125 30 7.5 28.6875 7.5 27.0469V19.5469C7.5 17.8594 8.8125 16.5 10.5 16.5H12V12C12 8.43753 15.1406 5.57815 18.8438 6.09378C21.8438 6.51565 24 9.2344 24 12.2344V12.75C24 13.1719 23.625 13.5 23.25 13.5C22.8281 13.5 22.5 13.1719 22.5 12.75V12C22.5 9.32815 20.1094 7.21878 17.3906 7.5469C15.0938 7.87503 13.4531 9.89065 13.4531 12.1875L13.5 16.5H25.5C27.1406 16.5 28.5 17.8594 28.5 19.5ZM27 19.5C27 18.7032 26.2969 18 25.5 18H10.5C9.65625 18 9 18.7032 9 19.5V27C9 27.8438 9.65625 28.5 10.5 28.5H25.5C26.2969 28.5 27 27.8438 27 27V19.5Z" fill="black"/>
</svg>
