<svg width="36" height="36" viewBox="0 0 36 36" fill="none" xmlns="http://www.w3.org/2000/svg">
<path d="M29.49 7.5C29.865 7.5 30.24 7.875 30.24 8.25V10.5C30.24 11.3438 29.5369 12 28.74 12H27.4275L20.49 16.6875V29.2969C20.49 29.6719 20.115 30 19.74 30C19.3181 30 18.99 29.6719 18.99 29.25V12H17.49V29.2969C17.49 29.6719 17.115 30 16.74 30C16.3181 30 15.99 29.6719 15.99 29.25V16.6875L9.00562 12H7.73999C6.89624 12 6.23999 11.3438 6.23999 10.5V8.25C6.23999 7.875 6.56812 7.5 6.98999 7.5C7.36499 7.5 7.73999 7.875 7.73999 8.25V10.5H10.74V8.25C10.74 7.875 11.0681 7.5 11.49 7.5C11.865 7.5 12.24 7.875 12.24 8.25V10.5H15.99V7.5C15.99 6.70312 16.6462 6 17.49 6H18.99C19.7869 6 20.49 6.70312 20.49 7.5V10.5H24.24V8.25C24.24 7.875 24.5681 7.5 24.99 7.5C25.365 7.5 25.74 7.875 25.74 8.25V10.5H28.74V8.25C28.74 7.875 29.0681 7.5 29.49 7.5ZM15.99 14.8594V12H11.6775L15.99 14.8594ZM18.99 10.5V7.5H17.49V10.5H18.99ZM20.49 14.8594L24.7556 12H20.49V14.8594Z" fill="#20272D"/>
</svg>
