<svg width="36" height="36" viewBox="0 0 36 36" fill="none" xmlns="http://www.w3.org/2000/svg">
<path d="M27.3125 15.0312C27.125 14.8906 26.8438 14.7969 26.6094 14.7969C26.2812 14.7969 25.9531 14.9375 25.7188 15.2188C25.3438 15.6875 25.3906 16.3906 25.9062 16.8125C26.4219 17.2344 26.75 17.8438 26.75 18.5C26.75 19.2031 26.4219 19.8125 25.9062 20.2344C25.3906 20.6562 25.3438 21.3594 25.7188 21.8281C25.9531 22.1094 26.2812 22.25 26.6094 22.25C26.8438 22.25 27.125 22.1562 27.3125 22.0156C28.3906 21.125 29 19.8594 29 18.5C29 17.1875 28.3906 15.9219 27.3125 15.0312ZM22.1094 8.14062C21.875 8.04688 21.6875 8 21.5 8C21.125 8 20.75 8.14062 20.4688 8.42188L14.1406 14H10.25C8.98438 14 8 15.0312 8 16.25V20.7031C8 21.9219 8.98438 22.9062 10.25 22.9062H14.1406L20.4688 28.5312C20.75 28.9062 21.125 29 21.5 29C21.6875 29 21.875 29 22.1094 28.9062C22.625 28.625 23 28.1094 23 27.5V9.5C23 8.9375 22.625 8.375 22.1094 8.14062ZM20.75 25.8594L15.0312 20.75H10.25V16.2969H15.0312L20.75 11.1875V25.8594Z" fill="black"/>
</svg>
