<svg width="36" height="36" viewBox="0 0 36 36" fill="none" xmlns="http://www.w3.org/2000/svg">
<path d="M30.6562 10.6875C30.1875 10.4531 29.5781 10.4531 29.1094 10.7812L24.2812 14.1562C23.9531 14.3906 23.8594 14.8594 24.0938 15.2344C24.3281 15.5625 24.7969 15.6094 25.1719 15.375L30 12V24L25.1719 20.625C24.7969 20.3906 24.3281 20.4844 24.0938 20.8125C23.8594 21.1875 23.9531 21.6562 24.2812 21.8906L29.1094 25.2656C29.3906 25.4531 29.6719 25.5 30 25.5C30.2344 25.5 30.4688 25.4531 30.6562 25.3594C31.1719 25.0781 31.5 24.5625 31.5 24V12C31.5 11.4375 31.1719 10.9688 30.6562 10.6875ZM19.5 9H7.5C5.8125 9 4.5 10.3594 4.5 12V24C4.5 25.6875 5.8125 27 7.5 27H19.5C21.1406 27 22.5 25.6875 22.5 24V12C22.5 10.3594 21.1406 9 19.5 9ZM21 24C21 24.8438 20.2969 25.5 19.5 25.5H7.5C6.65625 25.5 6 24.8438 6 24V12C6 11.2031 6.65625 10.5 7.5 10.5H19.5C20.2969 10.5 21 11.2031 21 12V24Z" fill="black"/>
</svg>
