<svg width="36" height="36" viewBox="0 0 36 36" fill="none" xmlns="http://www.w3.org/2000/svg">
<path d="M32.5626 28.0157L24.0313 21.2657V15.3594L29.2813 12.9688V22.1094C29.2813 22.7657 29.7501 23.2344 30.4063 23.2344C31.0157 23.2344 31.5313 22.7657 31.5313 22.1094V12.3594C31.5313 11.7501 31.2032 11.1407 30.6407 10.8126C30.1251 10.4376 29.4219 10.3907 28.8594 10.6719L24.0313 12.8751V11.9844C24.0313 10.3438 22.6719 8.98443 21.0313 8.98443H8.32818L4.81256 6.26568C4.34381 5.84381 3.64068 5.93756 3.26568 6.45318C2.84381 6.92193 2.93756 7.62506 3.45318 8.00006L31.1563 29.7032C31.3907 29.9376 31.6251 29.9844 31.8594 29.9844C32.1876 29.9844 32.5157 29.8438 32.7501 29.5626C33.1719 29.0938 33.0782 28.3907 32.5626 28.0157ZM21.7813 19.5313L11.2344 11.2344H21.0313C21.4063 11.2344 21.7813 11.6094 21.7813 11.9844V19.5313ZM21.0313 24.7344H7.53131C7.10943 24.7344 6.78131 24.4063 6.78131 23.9844V13.4376L4.53131 11.7032C4.53131 11.7969 4.53131 11.8907 4.53131 11.9844V23.9844C4.53131 25.6719 5.84381 26.9844 7.53131 26.9844H21.0313C21.7813 26.9844 22.4844 26.7032 23.0469 26.2344L21.1251 24.7344C21.0782 24.7344 21.0782 24.7344 21.0313 24.7344Z" fill="black"/>
</svg>
