<svg width="36" height="36" viewBox="0 0 36 36" fill="none" xmlns="http://www.w3.org/2000/svg">
<path d="M26.25 14.25C26.25 9.70312 22.5469 6 18 6C13.4062 6 9.75 9.70312 9.75 14.25C9.75 18.5625 13.0312 22.125 17.25 22.5V24.75H14.25C13.8281 24.75 13.5 25.125 13.5 25.5C13.5 25.9219 13.8281 26.25 14.25 26.25H17.25V29.25C17.25 29.6719 17.5781 30 18 30C18.375 30 18.75 29.6719 18.75 29.25V26.25H21.75C22.125 26.25 22.5 25.9219 22.5 25.5C22.5 25.125 22.125 24.75 21.75 24.75H18.75V22.5C22.9219 22.125 26.25 18.5625 26.25 14.25ZM11.25 14.25C11.25 10.5469 14.25 7.5 18 7.5C21.7031 7.5 24.75 10.5469 24.75 14.25C24.75 18 21.7031 21 18 21C14.25 21 11.25 18 11.25 14.25Z" fill="black"/>
</svg>
