<svg width="36" height="36" viewBox="0 0 36 36" fill="none" xmlns="http://www.w3.org/2000/svg">
<path d="M19.1094 8.09375C18.875 8 18.6875 8 18.5 8C18.125 8 17.75 8.09375 17.4688 8.375L11.1406 13.9531H7.25C5.98438 13.9531 5 14.9844 5 16.2031V20.6562C5 21.875 5.98438 22.8594 7.25 22.8594H11.1406L17.4688 28.4844C17.75 28.7188 18.125 28.8594 18.5 28.8594C18.6875 28.8594 18.875 28.8125 19.1094 28.7188C19.625 28.4844 19.9531 27.9219 19.9531 27.3594V9.45312C19.9531 8.89062 19.625 8.32812 19.1094 8.09375ZM17.75 25.8125L12.0312 20.7031H7.25V16.25H12.0312L17.75 11.1406V25.8125ZM29.0469 18.4531L31.25 16.25C31.7188 15.7812 31.7188 15.0781 31.25 14.6562C30.8281 14.1875 30.125 14.1875 29.6562 14.6562L27.5 16.9062L25.25 14.6562C24.7812 14.2344 24.0781 14.2344 23.6562 14.6562C23.1875 15.125 23.1875 15.8281 23.6562 16.25L25.8594 18.4531L23.6562 20.6562C23.1875 21.125 23.1875 21.8281 23.6562 22.25C24.0781 22.7188 24.7812 22.7188 25.25 22.25L27.5 20.0469L29.7031 22.25C30.125 22.7188 30.8281 22.7188 31.25 22.25C31.7188 21.8281 31.7188 21.125 31.25 20.6562L29.0469 18.4531Z" fill="black"/>
</svg>
