<svg width="36" height="36" viewBox="0 0 36 36" fill="none" xmlns="http://www.w3.org/2000/svg">
<path d="M31.1094 10.8281C30.5938 10.4531 29.8906 10.4062 29.3281 10.6875L24.5 12.8906V12C24.5 10.3594 23.1406 9 21.5 9H8C6.3125 9 5 10.3594 5 12V24C5 25.6875 6.3125 27 8 27H21.5C23.1406 27 24.5 25.6875 24.5 24V23.1094L29.3281 25.3594C29.5625 25.4531 29.8438 25.5469 30.0781 25.5469C30.4531 25.5469 30.8281 25.4062 31.1094 25.2188C31.6719 24.8906 32 24.2812 32 23.625V12.375C32 11.7656 31.6719 11.1562 31.1094 10.8281ZM22.25 24C22.25 24.4219 21.875 24.75 21.5 24.75H8C7.57812 24.75 7.25 24.4219 7.25 24V12C7.25 11.625 7.57812 11.25 8 11.25H21.5C21.875 11.25 22.25 11.625 22.25 12V24ZM29.75 23.0625L24.5 20.6719V15.375L29.75 12.9844V23.0625Z" fill="black"/>
</svg>
