<svg width="36" height="36" viewBox="0 0 36 36" fill="none" xmlns="http://www.w3.org/2000/svg">
<path d="M19.1094 8.14062C18.875 8.04688 18.6875 8 18.5 8C18.125 8 17.75 8.14062 17.4688 8.42188L11.1406 14H7.25C5.98438 14 5 15.0312 5 16.25V20.7031C5 21.9219 5.98438 22.9062 7.25 22.9062H11.1406L17.4688 28.5312C17.75 28.9062 18.125 29 18.5 29C18.6875 29 18.875 29 19.1094 28.9062C19.625 28.625 20 28.1094 20 27.5V9.5C20 8.9375 19.625 8.375 19.1094 8.14062ZM17.75 25.8594L12.0312 20.75H7.25V16.2969H12.0312L17.75 11.1875V25.8594ZM24.3125 15.0312C24.125 14.8906 23.8438 14.7969 23.6094 14.7969C23.2812 14.7969 22.9531 14.9375 22.7188 15.2188C22.3438 15.6875 22.3906 16.3906 22.9062 16.8125C23.4219 17.2344 23.75 17.8438 23.75 18.5C23.75 19.2031 23.4219 19.8125 22.9062 20.2344C22.3906 20.6562 22.3438 21.3594 22.7188 21.8281C22.9531 22.1094 23.2812 22.25 23.6094 22.25C23.8438 22.25 24.125 22.1562 24.3125 22.0156C25.3906 21.125 26 19.8594 26 18.5C26 17.1875 25.3906 15.9219 24.3125 15.0312ZM27.1719 11.5625C26.9375 11.4219 26.7031 11.3281 26.4219 11.3281C26.0938 11.3281 25.8125 11.4688 25.5781 11.75C25.1562 12.2188 25.25 12.9219 25.7188 13.3438C27.3125 14.6094 28.25 16.5312 28.25 18.5C28.25 20.5156 27.3125 22.4375 25.7188 23.7031C25.25 24.125 25.1562 24.8281 25.5781 25.2969C25.8125 25.5781 26.0938 25.7188 26.4219 25.7188C26.7031 25.7188 26.9375 25.625 27.1719 25.4844C29.2812 23.75 30.5 21.2188 30.5 18.5C30.5 15.8281 29.2812 13.2969 27.1719 11.5625Z" fill="black"/>
</svg>
