<svg width="36" height="36" viewBox="0 0 36 36" fill="none" xmlns="http://www.w3.org/2000/svg">
<path d="M24 9.75V9C24 7.35938 22.6406 6 21 6H15C13.3125 6 12 7.35938 12 9V9.75C10.3125 9.75 9 11.1094 9 12.75V23.25C9 24.8906 10.3125 26.2031 12 26.2031V27C12 28.6875 13.3125 30 15 30H21C22.6406 30 24 28.6875 24 27V26.2969C25.6406 26.2969 27 24.9844 27 23.3438V12.75C27 11.1094 25.6406 9.75 24 9.75ZM13.5 9C13.5 8.20312 14.1562 7.5 15 7.5H21C21.7969 7.5 22.5 8.20312 22.5 9V9.75H13.5V9ZM22.5 27C22.5 27.8438 21.7969 28.5 21 28.5H15C14.1562 28.5 13.5 27.8438 13.5 27V26.25H22.5V27ZM25.5 23.25C25.5 24.0938 24.7969 24.75 24 24.75H12C11.1562 24.75 10.5 24.0938 10.5 23.25V12.75C10.5 11.9531 11.1562 11.25 12 11.25H24C24.7969 11.25 25.5 11.9531 25.5 12.75V23.25ZM19.125 18C19.125 17.3906 18.6094 16.875 18 16.875C17.3438 16.875 16.875 17.3906 16.875 18C16.875 18.6562 17.3438 19.125 18 19.125C18.6094 19.125 19.125 18.6562 19.125 18ZM15.75 18C15.75 17.3906 15.2344 16.875 14.625 16.875C13.9688 16.875 13.5 17.3906 13.5 18C13.5 18.6562 13.9688 19.125 14.625 19.125C15.2344 19.125 15.75 18.6562 15.75 18ZM21.375 16.875C20.7188 16.875 20.25 17.3906 20.25 18C20.25 18.6562 20.7188 19.125 21.375 19.125C21.9844 19.125 22.5 18.6562 22.5 18C22.5 17.3906 21.9844 16.875 21.375 16.875ZM19.875 15.75C20.4844 15.75 21 15.2812 21 14.625C21 14.0156 20.4844 13.5 19.875 13.5C19.2188 13.5 18.75 14.0156 18.75 14.625C18.75 15.2812 19.2188 15.75 19.875 15.75ZM16.125 15.75C16.7344 15.75 17.25 15.2812 17.25 14.625C17.25 14.0156 16.7344 13.5 16.125 13.5C15.4688 13.5 15 14.0156 15 14.625C15 15.2812 15.4688 15.75 16.125 15.75ZM19.875 20.25C19.2188 20.25 18.75 20.7656 18.75 21.375C18.75 22.0312 19.2188 22.5 19.875 22.5C20.4844 22.5 21 22.0312 21 21.375C21 20.7656 20.4844 20.25 19.875 20.25ZM16.125 20.25C15.4688 20.25 15 20.7656 15 21.375C15 22.0312 15.4688 22.5 16.125 22.5C16.7344 22.5 17.25 22.0312 17.25 21.375C17.25 20.7656 16.7344 20.25 16.125 20.25Z" fill="black"/>
</svg>
