<svg width="36" height="36" viewBox="0 0 36 36" fill="none" xmlns="http://www.w3.org/2000/svg">
<path d="M33 17.25C33 17.6719 32.625 18 32.25 18H25.9688L23.1562 25.0312C23.0625 25.3594 22.7812 25.5469 22.4062 25.5C22.125 25.5 21.8438 25.2656 21.75 24.9375L18.0469 10.1719L14.2031 29.4375C14.1562 29.7656 13.8281 30 13.5 30C13.125 30 12.8438 29.7656 12.75 29.4375L9.89062 18H3.75C3.32812 18 3 17.6719 3 17.25C3 16.875 3.32812 16.5469 3.75 16.5469H10.5C10.8281 16.5469 11.1094 16.7812 11.2031 17.1562L13.4062 25.9219L17.25 6.65625C17.2969 6.28125 17.625 6.04688 17.9531 6C18.3281 6.04688 18.6094 6.23438 18.7031 6.60938L22.6406 22.3594L24.7969 17.0156C24.8906 16.6875 25.1719 16.5 25.5 16.5H32.25C32.625 16.5 33 16.875 33 17.25Z" fill="black"/>
</svg>
