<svg width="36" height="36" viewBox="0 0 36 36" fill="none" xmlns="http://www.w3.org/2000/svg">
<path d="M21.6563 17.1094C23.4375 17.6719 25.0782 18.6563 26.4375 20.0625C26.5782 20.2032 26.7657 20.25 27 20.25C27.1875 20.25 27.375 20.2032 27.5157 20.0625C27.7969 19.7813 27.7969 19.3125 27.5157 18.9844C25.2657 16.6875 22.3125 15.3282 19.0782 15.0938L21.6563 17.1094ZM18 9.00003C23.2032 9.00003 28.2188 11.1094 31.6875 14.7657C31.8282 14.9532 32.0157 15 32.25 15C32.3907 15 32.5782 14.9532 32.7657 14.8125C33.0469 14.5313 33.0469 14.0625 32.7657 13.7813C29.0157 9.7969 23.625 7.50003 17.9532 7.50003C15.5625 7.50003 13.2188 7.96878 11.0625 8.71878L12.4688 9.84378C14.2032 9.32815 16.0782 9.00003 18 9.00003ZM3.18753 13.7344C2.90628 14.0625 2.90628 14.5313 3.18753 14.8125C3.51565 15.0938 3.9844 15.0938 4.26565 14.7657C4.96878 14.0625 5.71878 13.4063 6.51565 12.7969L5.2969 11.8594C4.5469 12.4219 3.84378 13.0782 3.18753 13.7344ZM8.43753 18.9844C8.15628 19.3125 8.15628 19.7813 8.43753 20.0625C8.76565 20.3438 9.2344 20.3438 9.51565 20.0625C10.4532 19.0782 11.5782 18.2813 12.75 17.7188L11.4375 16.6875C10.3594 17.2969 9.32815 18.0938 8.43753 18.9844ZM19.125 22.7344C18.75 22.5938 18.375 22.5 17.9532 22.5C16.3125 22.5 14.9532 23.8594 14.9532 25.5C14.9532 27.1875 16.3125 28.5 17.9532 28.5C19.6407 28.5 20.9532 27.1875 20.9532 25.5C20.9532 24.8438 20.7657 24.2344 20.3907 23.7188L19.125 22.7344ZM18 27C17.1563 27 16.5 26.3438 16.5 25.5C16.5 24.7032 17.1563 24 18 24C18.7969 24 19.5 24.7032 19.5 25.5C19.5 26.3438 18.7969 27 18 27ZM4.1719 6.18753C3.84378 5.90628 3.37503 6.00003 3.14065 6.32815C2.8594 6.65628 2.95315 7.12503 3.28128 7.3594L31.7813 29.8594C31.9219 29.9532 32.0625 30 32.2032 30C32.3907 30 32.625 29.9063 32.7657 29.7188C33.0469 29.3907 32.9532 28.9219 32.6719 28.6875L4.1719 6.18753Z" fill="black"/>
</svg>
