<svg width="36" height="36" viewBox="0 0 36 36" fill="none" xmlns="http://www.w3.org/2000/svg">
<path d="M6.99001 15C6.56813 15 6.24001 14.6719 6.24001 14.25C6.24001 13.875 6.56813 13.5 6.99001 13.5H23.49C24.7088 13.5 25.74 12.5156 25.74 11.25C25.74 10.0312 24.7088 9 23.49 9H21.99C21.5681 9 21.24 8.67188 21.24 8.25C21.24 7.875 21.5681 7.5 21.99 7.5H23.49C25.5525 7.5 27.24 9.1875 27.24 11.25C27.24 13.3594 25.5525 15 23.49 15H6.99001ZM14.49 21C16.5525 21 18.24 22.6875 18.24 24.75C18.24 26.8594 16.5525 28.5 14.49 28.5H12.99C12.5681 28.5 12.24 28.1719 12.24 27.75C12.24 27.375 12.5681 27 12.99 27H14.49C15.7088 27 16.74 26.0156 16.74 24.75C16.74 23.5312 15.7088 22.5 14.49 22.5H6.99001C6.56813 22.5 6.24001 22.1719 6.24001 21.75C6.24001 21.375 6.56813 21 6.99001 21H14.49ZM26.115 17.25C28.365 17.25 30.24 19.125 30.24 21.375C30.24 23.6719 28.365 25.5 26.115 25.5H24.99C24.5681 25.5 24.24 25.1719 24.24 24.75C24.24 24.375 24.5681 24 24.99 24H26.115C27.5213 24 28.74 22.8281 28.74 21.375C28.74 19.9688 27.5213 18.75 26.115 18.75H6.99001C6.56813 18.75 6.24001 18.4219 6.24001 18C6.24001 17.625 6.56813 17.25 6.99001 17.25H26.115Z" fill="#20272D"/>
</svg>
