<svg width="36" height="36" viewBox="0 0 36 36" fill="none" xmlns="http://www.w3.org/2000/svg">
<path d="M18 15C14.3438 15 10.9219 16.4531 8.4375 18.9844C8.15625 19.3125 8.15625 19.7812 8.4375 20.0625C8.76562 20.3438 9.23438 20.3438 9.51562 20.0625C11.7188 17.7656 14.7188 16.5 18 16.5C21.2344 16.5 24.2344 17.7656 26.4375 20.0625C26.5781 20.2031 26.7656 20.25 27 20.25C27.1875 20.25 27.375 20.2031 27.5156 20.0625C27.7969 19.7812 27.7969 19.3125 27.5156 18.9844C25.0312 16.4531 21.6094 15 18 15ZM17.9531 22.5C16.2656 22.5 14.9531 23.8594 14.9531 25.5C14.9531 27.0938 16.2656 28.5 17.9531 28.5C19.5938 28.5 20.9531 27.1406 20.9531 25.5C20.9531 23.8125 19.6406 22.5 17.9531 22.5ZM18 27C17.1562 27 16.5 26.3438 16.5 25.5C16.5 24.7031 17.1562 24 18 24C18.7969 24 19.5 24.7031 19.5 25.5C19.5 26.3438 18.7969 27 18 27Z" fill="black"/>
</svg>
