<svg width="36" height="36" viewBox="0 0 36 36" fill="none" xmlns="http://www.w3.org/2000/svg">
<path d="M13.5 10.5C13.0781 10.5 12.75 10.875 12.75 11.25V24.75C12.75 25.1719 13.0781 25.5 13.4531 25.5C13.875 25.5 14.25 25.1719 14.25 24.75V11.25C14.25 10.875 13.875 10.5 13.5 10.5ZM9 15C8.57812 15 8.25 15.375 8.25 15.75V20.25C8.25 20.6719 8.57812 21 8.95312 21C9.32812 21 9.75 20.6719 9.75 20.25V15.75C9.75 15.375 9.375 15 9 15ZM4.5 16.5C4.07812 16.5 3.75 16.875 3.75 17.25V18.75C3.75 19.1719 4.07812 19.5 4.45312 19.5C4.82812 19.5 5.25 19.1719 5.25 18.75V17.25C5.25 16.875 4.875 16.5 4.5 16.5ZM22.5 12C22.0781 12 21.75 12.375 21.75 12.75V23.25C21.75 23.6719 22.0781 24 22.4531 24C22.8281 24 23.25 23.6719 23.25 23.25V12.75C23.25 12.375 22.875 12 22.5 12ZM31.5 16.5C31.0781 16.5 30.75 16.875 30.75 17.25V18.75C30.75 19.1719 31.0781 19.5 31.5 19.5C31.875 19.5 32.25 19.1719 32.25 18.7969V17.25C32.25 16.875 31.875 16.5 31.5 16.5ZM27 9C26.5781 9 26.25 9.375 26.25 9.75V26.25C26.25 26.6719 26.5781 27 26.9531 27C27.375 27 27.75 26.6719 27.75 26.25V9.75C27.75 9.375 27.375 9 27 9ZM18 6C17.5781 6 17.25 6.375 17.25 6.75V29.25C17.25 29.6719 17.5781 30 17.9531 30C18.3281 30 18.75 29.6719 18.75 29.25V6.75C18.75 6.375 18.375 6 18 6Z" fill="black"/>
</svg>
