<svg width="36" height="36" viewBox="0 0 36 36" fill="none" xmlns="http://www.w3.org/2000/svg">
<path d="M32.7656 13.7344C29.0156 9.79688 23.625 7.5 18 7.5C12.3281 7.5 6.9375 9.79688 3.1875 13.7344C2.90625 14.0625 2.90625 14.5312 3.23438 14.8125C3.51563 15.0938 3.98438 15.0938 4.26563 14.7656C7.73438 11.1094 12.75 9 18 9C23.2031 9 28.2188 11.1094 31.6875 14.7656C31.8281 14.9531 32.0156 15 32.25 15C32.3906 15 32.5781 14.9531 32.7656 14.8125C33.0469 14.5312 33.0469 14.0625 32.7656 13.7344ZM18 15C14.3438 15 10.9688 16.4062 8.4375 18.9375C8.15625 19.3125 8.15625 19.7812 8.4375 20.0625C8.76563 20.3438 9.23438 20.3438 9.51563 20.0625C11.7188 17.7656 14.7188 16.5 18 16.5C21.2344 16.5 24.2344 17.7656 26.4375 20.0625C26.5781 20.2031 26.7656 20.25 27 20.25C27.1875 20.25 27.375 20.2031 27.5156 20.0625C27.7969 19.7812 27.7969 19.3125 27.5156 18.9844C25.0313 16.4531 21.6094 15 18 15ZM17.9531 22.5C16.2656 22.5 14.9531 23.8125 14.9531 25.5C14.9531 27.1406 16.2656 28.5 17.9531 28.5C19.5938 28.5 20.9531 27.1406 20.9531 25.5C20.9531 23.8125 19.6406 22.5 17.9531 22.5ZM18 27C17.1563 27 16.5 26.3438 16.5 25.5C16.5 24.7031 17.1563 24 18 24C18.7969 24 19.5 24.7031 19.5 25.5C19.5 26.3438 18.7969 27 18 27Z" fill="black"/>
</svg>
