<svg width="36" height="36" viewBox="0 0 36 36" fill="none" xmlns="http://www.w3.org/2000/svg">
<path d="M22.74 18.6562L19.2713 21.9844C18.6619 22.5469 17.7713 22.5469 17.1619 21.9844L13.6931 18.6562C12.5213 17.4844 12.5213 15.5625 13.6931 14.4375C14.8181 13.3594 16.5994 13.3594 17.7244 14.4375L18.24 14.9062L18.7088 14.4375C19.8338 13.3594 21.615 13.3594 22.74 14.4375C23.9119 15.5625 23.9119 17.4844 22.74 18.6562ZM18.24 16.9688L16.6931 15.5156C16.1306 15 15.2869 15 14.7244 15.5156C14.1619 16.0781 14.1619 17.0156 14.7244 17.5781L18.24 20.9062L21.7088 17.5781C22.2713 17.0156 22.2713 16.0781 21.7088 15.5156C21.1463 15 20.3025 15 19.74 15.5156L18.24 16.9688ZM12.24 9.09375V8.25C12.24 7.03125 13.2244 6 14.49 6H21.99C23.2088 6 24.24 7.03125 24.24 8.25V9.09375C25.9275 9.46875 27.24 10.9688 27.24 12.75V23.25C27.24 25.0781 25.9275 26.5781 24.24 26.9531V27.75C24.24 29.0156 23.2088 30 21.99 30H14.49C13.2244 30 12.24 29.0156 12.24 27.75V26.9531C10.5056 26.5781 9.24001 25.0781 9.24001 23.25V12.75C9.24001 10.9688 10.5056 9.46875 12.24 9.09375ZM13.74 9H22.74V8.25C22.74 7.875 22.365 7.5 21.99 7.5H14.49C14.0681 7.5 13.74 7.875 13.74 8.25V9ZM14.49 28.5H21.99C22.365 28.5 22.74 28.1719 22.74 27.75V27H13.74V27.75C13.74 28.1719 14.0681 28.5 14.49 28.5ZM10.74 12.75V23.25C10.74 24.5156 11.7244 25.5 12.99 25.5H23.49C24.7088 25.5 25.74 24.5156 25.74 23.25V12.75C25.74 11.5312 24.7088 10.5 23.49 10.5H12.99C11.7244 10.5 10.74 11.5312 10.74 12.75Z" fill="#20272D"/>
</svg>
