<svg width="36" height="36" viewBox="0 0 36 36" fill="none" xmlns="http://www.w3.org/2000/svg">
<path d="M29.0051 17.7477C28.4375 17.2007 27.7673 16.7713 27.0332 16.4844C26.2193 16.1557 25.3705 15.9211 24.5033 15.7853C21.9792 13.9266 18.9138 12.9499 15.7797 13.0056C14.0085 12.9755 12.2373 13.0666 10.4785 13.2783C9.61641 13.4184 9.20259 13.4497 8.25793 14.7236C7.74794 15.3583 7.28617 16.0304 6.87647 16.7341L6.84407 16.8104L6.83048 16.8491C6.79838 16.9691 6.77498 17.0913 6.76047 17.2148C6.74479 17.3266 6.72912 17.4573 6.71344 17.613C6.70613 17.6882 6.69881 17.7582 6.69254 17.8219C6.61057 17.9014 6.53511 17.9874 6.46683 18.079C6.15503 18.5061 5.99203 19.0237 6.00286 19.5524C5.98233 20.0081 6.07256 20.4619 6.26584 20.875C6.45913 21.2882 6.74969 21.6483 7.11263 21.9245C7.27833 22.0245 7.45331 22.1081 7.63512 22.1743C7.80079 22.61 8.09247 22.9864 8.47297 23.2556C8.85346 23.5248 9.30553 23.6746 9.7715 23.6858C10.2375 23.697 10.6962 23.5691 11.0892 23.3185C11.4822 23.0679 11.7917 22.706 11.9781 22.2788H23.1051C23.2843 22.69 23.5776 23.0413 23.9503 23.2909C24.3231 23.5405 24.7595 23.678 25.208 23.6871C25.6565 23.6963 26.0982 23.5766 26.4808 23.3424C26.8634 23.1081 27.1707 22.7691 27.3665 22.3655C27.9211 22.4011 28.4777 22.3382 29.0103 22.1795C29.3104 22.0596 29.5619 21.843 29.7251 21.5641C29.8268 21.3809 29.8974 21.182 29.9341 20.9757C29.9837 20.6806 30.0054 20.3814 29.9989 20.0822C29.9981 19.6464 29.9097 19.2151 29.739 18.8141C29.5682 18.413 29.3187 18.0504 29.0051 17.7477ZM22.4823 16.0392C20.6036 16.2761 18.7084 16.3568 16.8164 16.2806L16.7045 14.363C18.7319 14.4809 20.7066 15.0538 22.4823 16.0392ZM15.3461 14.3338L15.4558 16.2398C14.1872 16.1928 13.0178 16.1228 12.1526 16.0559L12.0084 14.4477C12.8235 14.3902 13.928 14.3432 15.3461 14.3348V14.3338ZM10.5454 22.0583C10.3789 22.2251 10.1597 22.329 9.92511 22.3523C9.69056 22.3756 9.4552 22.3169 9.2591 22.1861C9.063 22.0553 8.91829 21.8607 8.84965 21.6352C8.78102 21.4097 8.7927 21.1674 8.88268 20.9495C8.97266 20.7317 9.13539 20.5518 9.34314 20.4404C9.5509 20.3291 9.79083 20.2932 10.0221 20.3389C10.2533 20.3847 10.4615 20.5092 10.6112 20.6912C10.761 20.8732 10.8429 21.1015 10.8432 21.3372C10.8436 21.4713 10.8175 21.6041 10.7664 21.728C10.7153 21.852 10.6402 21.9646 10.5454 22.0594V22.0583ZM25.9757 22.0583C25.8091 22.2251 25.5899 22.329 25.3554 22.3523C25.1208 22.3756 24.8855 22.3169 24.6894 22.1861C24.4933 22.0553 24.3486 21.8607 24.2799 21.6352C24.2113 21.4097 24.2229 21.1674 24.3129 20.9495C24.4029 20.7317 24.5656 20.5518 24.7734 20.4404C24.9811 20.3291 25.2211 20.2932 25.4523 20.3389C25.6835 20.3847 25.8917 20.5092 26.0415 20.6912C26.1912 20.8732 26.2732 21.1015 26.2735 21.3372C26.2742 21.4713 26.2483 21.6043 26.1972 21.7282C26.146 21.8522 26.0707 21.9648 25.9757 22.0594V22.0583ZM28.6142 20.773C28.6059 20.8243 28.5878 20.8736 28.561 20.9182C28.5338 20.936 28.5043 20.9497 28.4732 20.959C28.1806 21.0225 27.8809 21.0478 27.5818 21.0342C27.5084 20.4772 27.2377 19.965 26.8187 19.5907C26.3998 19.2163 25.8604 19.0046 25.2987 18.9941C24.737 18.9836 24.1902 19.175 23.7575 19.5335C23.3249 19.8919 23.0352 20.3936 22.941 20.9475H12.138C12.0508 20.4327 11.7946 19.9617 11.4097 19.609C11.0249 19.2562 10.5334 19.0418 10.013 18.9997C9.49267 18.9577 8.97313 19.0903 8.53659 19.3766C8.10005 19.663 7.77143 20.0866 7.60272 20.5807C7.50303 20.4393 7.42974 20.2811 7.38641 20.1136C7.34345 19.9298 7.32415 19.7411 7.32894 19.5524C7.32044 19.4038 7.34403 19.2551 7.39813 19.1165C7.45223 18.9778 7.53556 18.8524 7.64244 18.7488L7.67379 18.7238L7.8995 18.4949C7.9517 18.4073 7.9835 18.3091 7.9925 18.2075V18.1908C7.9925 18.1542 8.00296 18.0508 8.0155 17.9212C8.02804 17.7916 8.04788 17.5743 8.07296 17.3987C8.08028 17.3486 8.0876 17.3036 8.09387 17.2712C8.39185 16.7437 8.73446 16.2428 9.11795 15.7738C9.3468 15.4854 9.55999 15.223 9.7345 15.037C9.97902 14.7809 10.3094 14.6239 10.6625 14.5961L10.8537 16.7508C10.8681 16.9092 10.9377 17.0575 11.0504 17.1696C11.1632 17.2818 11.3118 17.3506 11.4702 17.3642C11.698 17.3851 14.9187 17.6547 18.1466 17.6547C20.1214 17.7452 22.0986 17.5409 24.0132 17.0486C24.0554 17.0626 24.0988 17.0731 24.1428 17.08H24.1783L24.2535 17.0905C24.3235 17.1009 24.4343 17.1165 24.5754 17.1437C24.9384 17.2118 25.2977 17.2987 25.6517 17.4039C26.5412 17.6356 27.3642 18.0718 28.0552 18.6778C28.247 18.8575 28.4 19.0747 28.5046 19.3159C28.6092 19.5571 28.6632 19.8172 28.6634 20.0801C28.6722 20.3125 28.6557 20.5452 28.6142 20.774V20.773Z" fill="black"/>
</svg>
