<svg width="36" height="36" viewBox="0 0 36 36" fill="none" xmlns="http://www.w3.org/2000/svg">
<path d="M24.6699 6.48622C22.9349 4.74384 20.5846 3.75308 18.1259 3.72756C15.6671 3.70203 13.2968 4.64379 11.526 6.34979C9.75515 8.05578 8.7257 10.3893 8.65955 12.8474C8.59341 15.3054 9.49588 17.6909 11.1724 19.4897C12.1236 20.4962 12.6531 21.8289 12.6521 23.2138V26.3657C12.6547 27.0447 12.8919 27.7019 13.3236 28.2261C13.7552 28.7503 14.3548 29.1091 15.0207 29.242V29.3189C15.0207 30.1091 15.3345 30.8669 15.8933 31.4256C16.452 31.9844 17.2098 32.2982 18 32.2982C18.7901 32.2982 19.5479 31.9844 20.1067 31.4256C20.6654 30.8669 20.9793 30.1091 20.9793 29.3189V29.242C21.6469 29.1094 22.2479 28.7496 22.6802 28.2239C23.1125 27.6981 23.3493 27.0389 23.3503 26.3582V23.2064C23.3493 21.826 23.8781 20.4979 24.8275 19.4959C26.4914 17.7296 27.4053 15.3867 27.3768 12.9602C27.3483 10.5338 26.3797 8.21301 24.6749 6.48622H24.6699ZM19.2835 29.3189C19.2835 29.4875 19.2503 29.6544 19.1858 29.8101C19.1213 29.9659 19.0268 30.1074 18.9076 30.2266C18.7884 30.3458 18.6469 30.4403 18.4912 30.5048C18.3354 30.5693 18.1685 30.6025 18 30.6025C17.8314 30.6025 17.6645 30.5693 17.5088 30.5048C17.353 30.4403 17.2115 30.3458 17.0923 30.2266C16.9731 30.1074 16.8786 29.9659 16.8141 29.8101C16.7496 29.6544 16.7164 29.4875 16.7164 29.3189V29.2966H19.2835V29.3189ZM21.6546 26.3582C21.6546 26.6875 21.5238 27.0032 21.291 27.236C21.0582 27.4688 20.7424 27.5996 20.4132 27.5996H15.588C15.2587 27.5996 14.943 27.4688 14.7102 27.236C14.4774 27.0032 14.3466 26.6875 14.3466 26.3582V24.0555H21.6558L21.6546 26.3582ZM23.5862 18.3315C22.5428 19.4365 21.8829 20.8481 21.7042 22.3573H14.2932C14.1106 20.8451 13.4485 19.4312 12.4038 18.3228C11.3788 17.2308 10.6957 15.8628 10.4387 14.3874C10.1817 12.9119 10.3621 11.3935 10.9575 10.0193C11.553 8.64508 12.5375 7.47514 13.7898 6.65367C15.0421 5.8322 16.5074 5.39511 18.005 5.39628C19.5027 5.39744 20.9673 5.83681 22.2183 6.66022C23.4693 7.48363 24.4521 8.6551 25.0454 10.0302C25.6387 11.4054 25.8167 12.9241 25.5574 14.3991C25.2981 15.8742 24.6129 17.2411 23.5862 18.3315Z" fill="black"/>
<path d="M23.4622 11.545C23.2072 10.6888 22.7543 9.90465 22.1402 9.25586C21.9863 9.09141 21.7811 8.98414 21.5582 8.95166C21.3354 8.91918 21.1081 8.96341 20.9137 9.0771L20.5065 9.31048C20.3716 9.22027 20.232 9.13739 20.0882 9.0622V8.5942C20.0894 8.3687 20.0139 8.14947 19.874 7.97259C19.7341 7.7957 19.5382 7.6717 19.3185 7.62096C18.4514 7.41736 17.5489 7.41736 16.6818 7.62096C16.4621 7.6717 16.2662 7.7957 16.1263 7.97259C15.9864 8.14947 15.9109 8.3687 15.9122 8.5942V9.0622C15.7683 9.13739 15.6287 9.22027 15.4938 9.31048L15.0854 9.07461C14.891 8.96093 14.6637 8.91669 14.4408 8.94918C14.218 8.98166 14.0128 9.08892 13.8589 9.25337C13.2449 9.903 12.7924 10.688 12.5381 11.545C12.4735 11.7601 12.4838 11.9908 12.5672 12.1993C12.6506 12.4079 12.8023 12.582 12.9974 12.6932L13.4071 12.9303C13.3984 13.0908 13.3984 13.2516 13.4071 13.412L12.9974 13.6491C12.8023 13.7603 12.6506 13.9345 12.5672 14.143C12.4838 14.3516 12.4735 14.5822 12.5381 14.7974C12.7937 15.6533 13.2465 16.4374 13.8602 17.0865C14.014 17.2509 14.2192 17.3582 14.4421 17.3907C14.6649 17.4232 14.8922 17.3789 15.0866 17.2652L15.4951 17.0294C15.6301 17.1175 15.7697 17.1983 15.9134 17.2714V17.7432C15.9118 17.9689 15.9872 18.1884 16.1271 18.3655C16.267 18.5427 16.4631 18.6669 16.6831 18.7177C17.5502 18.9212 18.4526 18.9212 19.3197 18.7177C19.5397 18.6669 19.7358 18.5427 19.8757 18.3655C20.0156 18.1884 20.091 17.9689 20.0894 17.7432V17.2714C20.2331 17.1983 20.3727 17.1175 20.5077 17.0294L20.9162 17.2652C21.1106 17.3789 21.3378 17.4232 21.5607 17.3907C21.7836 17.3582 21.9888 17.2509 22.1426 17.0865C22.7559 16.436 23.2079 15.6507 23.4622 14.7936C23.5268 14.5785 23.5165 14.3478 23.4331 14.1393C23.3497 13.9307 23.198 13.7566 23.0029 13.6454L22.5933 13.407C22.6019 13.2466 22.6019 13.0858 22.5933 12.9254L23.0029 12.6883C23.197 12.5772 23.348 12.4039 23.4313 12.1965C23.5147 11.989 23.5256 11.7594 23.4622 11.545ZM20.8429 12.4003C20.9671 13.0843 20.9671 13.2568 20.8429 13.9421L20.7784 14.2872L21.6871 14.811C21.5719 15.0699 21.4296 15.3159 21.2625 15.5447L20.3588 15.0208L20.0919 15.2492C19.5618 15.7023 19.4116 15.7892 18.7586 16.0201L18.4272 16.1368V17.1858C18.1458 17.2156 17.862 17.2156 17.5806 17.1858V16.1381L17.2491 16.0214C16.5962 15.7905 16.446 15.7048 15.9159 15.2505L15.6415 15.0208L14.7328 15.5459C14.5657 15.3171 14.4234 15.0712 14.3083 14.8123L15.217 14.2884L15.1524 13.9433C15.0283 13.2581 15.0283 13.0855 15.1524 12.4015L15.217 12.0564L14.3083 11.5325C14.4247 11.2739 14.5682 11.0284 14.7366 10.8001L15.6415 11.319L15.9084 11.0906C16.4385 10.6375 16.5875 10.5506 17.2417 10.3197L17.5731 10.203V9.15406C17.8545 9.12427 18.1383 9.12427 18.4197 9.15406V10.203L18.7512 10.3197C19.4054 10.5506 19.5544 10.6363 20.0844 11.0906L20.3588 11.319L21.2637 10.8001C21.4308 11.029 21.5732 11.2749 21.6883 11.5338L20.7796 12.0576L20.8429 12.4003Z" fill="black"/>
<path d="M18.0361 11.6031H17.9641C17.1201 11.6031 16.436 12.2873 16.436 13.1313V13.2033C16.436 14.0473 17.1201 14.7314 17.9641 14.7314H18.0361C18.8801 14.7314 19.5642 14.0473 19.5642 13.2033V13.1313C19.5642 12.2873 18.8801 11.6031 18.0361 11.6031Z" fill="black"/>
</svg>
