<svg width="36" height="36" viewBox="0 0 36 36" fill="none" xmlns="http://www.w3.org/2000/svg">
<path d="M6.03934 18.0003C6.03111 15.1142 7.11342 12.3315 9.06955 10.2094C9.15437 10.1209 9.20173 10.003 9.20173 9.88041C9.20173 9.75782 9.15437 9.63996 9.06955 9.55145L8.53575 9.01021C8.49275 8.96598 8.44144 8.93067 8.38477 8.90629C8.32809 8.88191 8.26717 8.86895 8.20549 8.86814C8.1438 8.86734 8.08256 8.8787 8.02527 8.90159C7.96798 8.92447 7.91577 8.95843 7.87162 9.00152L7.85672 9.01641C5.60185 11.4656 4.35022 14.673 4.35022 18.0021C4.35022 21.3312 5.60185 24.5387 7.85672 26.9879C7.94258 27.0779 8.06056 27.1304 8.18495 27.1339C8.30935 27.1374 8.43008 27.0916 8.52086 27.0065L9.0621 26.4491C9.14684 26.3608 9.19416 26.2432 9.19416 26.1208C9.19416 25.9984 9.14684 25.8807 9.0621 25.7924C7.10881 23.6686 6.02926 20.8857 6.03934 18.0003Z" fill="black"/>
<path d="M13.0258 13.4553C13.1028 13.3671 13.1452 13.254 13.1452 13.1369C13.1452 13.0198 13.1028 12.9067 13.0258 12.8185C13.0222 12.8112 13.0171 12.8049 13.0109 12.7998L12.4795 12.2586C12.3928 12.1692 12.2743 12.1179 12.1498 12.1158C12.0253 12.1137 11.9051 12.161 11.8154 12.2474L11.7955 12.2685C10.391 13.8471 9.61511 15.8864 9.61511 17.9994C9.61511 20.1123 10.391 22.1516 11.7955 23.7302C11.8803 23.8215 11.9976 23.8759 12.122 23.8816H12.1419C12.2597 23.882 12.3733 23.8376 12.4597 23.7575L12.4795 23.7389L13.0121 23.1964C13.0959 23.1086 13.1434 22.9924 13.145 22.871C13.1466 22.7496 13.1022 22.6322 13.0208 22.5422C11.9207 21.284 11.3148 19.6691 11.3157 17.9978C11.3166 16.3265 11.9243 14.7123 13.0258 13.4553Z" fill="black"/>
<path d="M17.9999 14.8966C17.3861 14.8966 16.7861 15.0786 16.2758 15.4196C15.7654 15.7606 15.3676 16.2453 15.1327 16.8124C14.8978 17.3795 14.8364 18.0035 14.9561 18.6055C15.0759 19.2075 15.3714 19.7605 15.8055 20.1945C16.2395 20.6286 16.7925 20.9241 17.3945 21.0439C17.9965 21.1636 18.6205 21.1022 19.1876 20.8673C19.7547 20.6324 20.2394 20.2346 20.5804 19.7242C20.9214 19.2139 21.1034 18.6139 21.1034 18.0001C21.1034 17.177 20.7764 16.3876 20.1944 15.8056C19.6124 15.2236 18.823 14.8966 17.9999 14.8966ZM19.4139 18.0001C19.4139 18.2797 19.331 18.5531 19.1756 18.7856C19.0202 19.0181 18.7994 19.1993 18.541 19.3064C18.2827 19.4134 17.9984 19.4414 17.7241 19.3868C17.4498 19.3323 17.1979 19.1976 17.0001 18.9999C16.8024 18.8021 16.6677 18.5502 16.6132 18.2759C16.5586 18.0016 16.5866 17.7173 16.6936 17.459C16.8007 17.2006 16.9819 16.9798 17.2144 16.8244C17.4469 16.6691 17.7203 16.5861 17.9999 16.5861C18.3748 16.5865 18.7343 16.7355 18.9994 17.0006C19.2645 17.2657 19.4136 17.6252 19.4139 18.0001Z" fill="black"/>
<path d="M28.1482 9.01478C28.0628 8.92406 27.945 8.87089 27.8205 8.86694C27.696 8.86298 27.575 8.90856 27.484 8.99367L26.9378 9.55105C26.8531 9.63936 26.8058 9.75701 26.8058 9.8794C26.8058 10.0018 26.8531 10.1194 26.9378 10.2077C28.8868 12.3345 29.968 15.1145 29.968 17.9993C29.968 20.884 28.8868 23.664 26.9378 25.7908C26.8529 25.8795 26.8055 25.9976 26.8055 26.1204C26.8055 26.2432 26.8529 26.3612 26.9378 26.45L27.4716 26.9912C27.5585 27.0805 27.6772 27.1319 27.8018 27.134H27.8068C27.8676 27.1343 27.9278 27.1226 27.984 27.0996C28.0403 27.0766 28.0914 27.0427 28.1345 26.9999L28.1494 26.985C30.4037 24.5357 31.6549 21.3286 31.6549 17.9999C31.6549 14.6711 30.4037 11.464 28.1494 9.01478H28.1482Z" fill="black"/>
<path d="M23.5353 12.2411L23.5155 12.2597L22.9829 12.8035C22.8991 12.8912 22.8516 13.0075 22.85 13.1289C22.8484 13.2502 22.8928 13.3677 22.9742 13.4577C24.0748 14.7154 24.6814 16.3299 24.6814 18.0011C24.6814 19.6724 24.0748 21.2868 22.9742 22.5446C22.8923 22.6348 22.8477 22.7528 22.8493 22.8746C22.8509 22.9965 22.8986 23.1132 22.9829 23.2013L23.5142 23.7413C23.557 23.7859 23.6082 23.8216 23.6649 23.8463C23.7216 23.871 23.7826 23.8843 23.8444 23.8853H23.8519C23.9739 23.8855 24.0911 23.8378 24.1784 23.7524C24.1856 23.746 24.1922 23.7389 24.1982 23.7313C25.6026 22.153 26.3785 20.1138 26.3785 18.0011C26.3785 15.8884 25.6026 13.8493 24.1982 12.2709C24.1141 12.1794 23.9971 12.1248 23.8729 12.1192C23.7487 12.1137 23.6273 12.1575 23.5353 12.2411Z" fill="black"/>
</svg>
