<svg width="36" height="36" viewBox="0 0 36 36" fill="none" xmlns="http://www.w3.org/2000/svg">
<path d="M29.8105 18.4109C29.8105 18.2743 29.8179 18.1378 29.8179 18C29.8202 15.9308 29.274 13.8979 28.2352 12.1084C29.2966 8.47365 28.4735 6.96165 27.5785 6.33103C26.8486 5.81958 25.3502 5.42482 22.6601 7.16648C21.2167 6.55073 19.6646 6.23 18.0953 6.22318C16.5259 6.21635 14.9711 6.52358 13.5223 7.12676C10.3233 6.08276 8.13102 6.25282 7.17888 7.61089C6.51102 8.56303 6.71461 9.77338 7.09199 10.7541L7.11557 10.7342C6.65511 11.1792 6.37823 11.7806 6.33962 12.4198C6.30101 13.0589 6.50347 13.6893 6.90702 14.1865C6.21427 16.2066 6.08503 18.3773 6.53318 20.4654C6.98132 22.5535 7.98992 24.48 9.45061 26.0379C8.76413 29.0371 9.51889 30.3517 10.3382 30.9265C10.7729 31.2238 11.2901 31.3771 11.8167 31.3647C12.7899 31.3647 14.1356 30.9265 15.9691 29.5895C17.9709 29.9474 20.0312 29.7805 21.9492 29.105C23.8672 28.4294 25.5775 27.2684 26.9131 25.735C27.6026 25.9005 28.3082 25.9895 29.0172 26.0007C30.173 26.0007 31.1797 25.6928 31.7706 24.8512C32.4633 23.8618 32.6781 21.9426 29.8105 18.4109ZM24.619 8.06151C25.5203 7.62579 26.2328 7.51531 26.5804 7.75738C26.928 7.99945 27.1415 8.77903 26.892 10.2401C26.183 9.43026 25.3675 8.72033 24.4676 8.12979C24.5185 8.11117 24.5694 8.0851 24.619 8.06151ZM18.0397 7.96469C19.0395 7.96381 20.0338 8.1132 20.9892 8.40786C20.6876 8.65614 20.3686 8.93545 20.047 9.23338C19.5708 9.04569 19.0493 9.00494 18.5497 9.11638C18.0501 9.22782 17.5954 9.48634 17.2441 9.85862C16.8928 10.2309 16.661 10.6999 16.5787 11.2051C16.4964 11.7103 16.5672 12.2286 16.7822 12.6931C16.0287 13.6018 15.2925 14.5663 14.5887 15.5706C14.3752 15.8743 14.1683 16.1793 13.968 16.4855C12.9817 15.6335 12.0489 14.7214 11.1749 13.7545C11.4072 13.3122 11.5047 12.8115 11.4553 12.3144C11.4058 11.8172 11.2117 11.3455 10.8968 10.9577C11.8293 10.0084 12.9418 9.25481 14.1692 8.74089C15.3965 8.22697 16.7141 7.96308 18.0447 7.96469H18.0397ZM19.9415 11.6218C19.943 11.7863 19.8955 11.9476 19.8051 12.085C19.7146 12.2225 19.5853 12.3299 19.4337 12.3937C19.282 12.4574 19.1148 12.4746 18.9533 12.4431C18.7918 12.4115 18.6433 12.3326 18.5268 12.2165C18.4103 12.1003 18.331 11.9521 18.2989 11.7907C18.2669 11.6293 18.2836 11.4621 18.3469 11.3102C18.4102 11.1583 18.5172 11.0287 18.6544 10.9379C18.7916 10.847 18.9527 10.799 19.1172 10.8C19.3358 10.8003 19.5454 10.8868 19.7006 11.0406C19.8559 11.1944 19.9442 11.4033 19.9465 11.6218H19.9415ZM8.60151 8.60772C8.87213 8.22165 9.79199 8.04786 11.3189 8.34331C10.6084 8.84073 9.95484 9.41481 9.36992 10.0552C9.21563 10.0259 9.05896 10.0109 8.90192 10.0105C8.82371 10.0105 8.74675 10.0105 8.67102 10.0217C8.44137 9.37986 8.41282 8.87834 8.60151 8.60772ZM8.90192 11.7447C9.06577 11.7454 9.22573 11.7947 9.3616 11.8862C9.49748 11.9778 9.60319 12.1076 9.66538 12.2592C9.72757 12.4108 9.74346 12.5774 9.71105 12.738C9.67863 12.8986 9.59936 13.046 9.48324 13.1616C9.36712 13.2772 9.21936 13.3558 9.05861 13.3875C8.89785 13.4192 8.73131 13.4026 8.58 13.3397C8.4287 13.2768 8.29941 13.1705 8.20845 13.0342C8.1175 12.898 8.06896 12.7378 8.06895 12.5739C8.06912 12.4648 8.0908 12.3567 8.13276 12.2559C8.17473 12.1551 8.23615 12.0636 8.31351 11.9866C8.39088 11.9096 8.48267 11.8486 8.58363 11.8071C8.6846 11.7656 8.79275 11.7444 8.90192 11.7447ZM10.0415 24.0468C9.08779 22.7868 8.44565 21.3191 8.16755 19.7636C7.88945 18.208 7.98328 16.6088 8.44137 15.0964C8.59405 15.1252 8.74903 15.1402 8.9044 15.1411C9.24565 15.1409 9.58338 15.0721 9.89751 14.9388C10.8726 16.0136 11.9158 17.0245 13.0208 17.9652C11.7347 20.0768 10.7106 22.1611 10.0415 24.0468ZM11.335 29.5026C11.0259 29.2866 10.8161 28.62 10.9626 27.4022C11.8153 28.0468 12.7521 28.5718 13.747 28.9626C12.4771 29.6826 11.669 29.7397 11.335 29.5026ZM18.0447 28.0353C15.5907 28.0368 13.2219 27.1354 11.3896 25.5029C11.4128 25.4276 11.4364 25.3506 11.4604 25.272C12.0525 23.4 13.0643 21.2636 14.3801 19.0812C15.0356 19.5977 15.7159 20.1054 16.4148 20.5945C17.3197 21.2288 18.2408 21.8234 19.1594 22.3734C19.1532 22.4466 19.1483 22.5199 19.1483 22.5956C19.1479 23.0855 19.2878 23.5652 19.5515 23.9781C19.8152 24.391 20.1916 24.7197 20.6363 24.9254C21.0809 25.131 21.5751 25.2051 22.0605 25.1387C22.5459 25.0723 23.0021 24.8683 23.3752 24.5508C23.8643 24.7593 24.4291 24.984 25.0337 25.1926C23.1645 27.0163 20.6562 28.0366 18.0447 28.0353ZM20.8862 22.5931C20.8862 22.4291 20.9348 22.2688 21.026 22.1324C21.1171 21.996 21.2466 21.8897 21.3981 21.827C21.5496 21.7642 21.7164 21.7478 21.8772 21.7798C22.0381 21.8118 22.1858 21.8908 22.3018 22.0067C22.4178 22.1227 22.4968 22.2705 22.5288 22.4313C22.5608 22.5922 22.5443 22.7589 22.4816 22.9104C22.4188 23.062 22.3125 23.1915 22.1761 23.2826C22.0398 23.3737 21.8795 23.4223 21.7154 23.4223C21.4956 23.422 21.2849 23.3345 21.1294 23.1791C20.974 23.0237 20.8865 22.8129 20.8862 22.5931ZM26.2465 23.7687C25.6469 23.5837 24.979 23.3404 24.2429 23.0239C24.2687 22.8796 24.282 22.7334 24.2826 22.5869C24.2828 22.0784 24.1319 21.5812 23.8491 21.1586C23.5662 20.736 23.1641 20.407 22.6939 20.2133C22.2237 20.0196 21.7065 19.97 21.2081 20.0708C20.7096 20.1716 20.2524 20.4183 19.8943 20.7794C19.0639 20.2829 18.2309 19.7367 17.4116 19.1657C16.6866 18.6579 15.9852 18.1316 15.3124 17.5965C15.5392 17.2514 15.7734 16.9068 16.015 16.5625C16.6581 15.6451 17.3284 14.7637 18.0137 13.9308C18.3578 14.0951 18.7346 14.18 19.116 14.179C19.5619 14.1794 20.0003 14.0636 20.3877 13.8429C20.7752 13.6222 21.0985 13.3043 21.3256 12.9205C21.5527 12.5367 21.6758 12.1004 21.6828 11.6545C21.6898 11.2086 21.5804 10.7686 21.3654 10.3779C21.8619 9.92482 22.3585 9.52138 22.8277 9.17007C24.0729 9.84412 25.1611 10.7744 26.0207 11.8996C26.8802 13.0247 27.4916 14.3193 27.8145 15.6979C28.1374 17.0765 28.1645 18.5079 27.894 19.8977C27.6235 21.2876 27.0616 22.6043 26.2452 23.7612L26.2465 23.7687ZM30.343 23.8506C30.1109 24.1808 29.3636 24.3857 28.0465 24.192C28.686 23.1644 29.1622 22.0437 29.4579 20.8701C30.4411 22.3845 30.6459 23.4273 30.348 23.8531L30.343 23.8506Z" fill="black"/>
</svg>
