<svg width="36" height="36" viewBox="0 0 36 36" fill="none" xmlns="http://www.w3.org/2000/svg">
<path d="M25.9882 10.3888H22.3013C22.0708 10.3888 21.8498 10.4804 21.6868 10.6434C21.5239 10.8063 21.4323 11.0273 21.4323 11.2578V14.9447C21.4323 15.1752 21.5239 15.3962 21.6868 15.5592C21.8498 15.7221 22.0708 15.8137 22.3013 15.8137H23.282V16.6317C23.2808 16.9067 23.209 17.1767 23.0733 17.4158C22.9377 17.655 22.7428 17.8552 22.5074 17.9973L18.8689 20.1746V8.84084H21.0785C21.2326 8.84112 21.3839 8.80007 21.5167 8.72199C21.6495 8.6439 21.759 8.53163 21.8336 8.39687C21.9083 8.26212 21.9455 8.1098 21.9412 7.9558C21.937 7.80179 21.8916 7.65174 21.8097 7.52126L18.7311 2.60664C18.6533 2.4827 18.5455 2.38041 18.4177 2.30923C18.2899 2.23805 18.1462 2.20029 17.9999 2.19946C17.8536 2.20029 17.7099 2.23805 17.5821 2.30923C17.4542 2.38041 17.3465 2.4827 17.2687 2.60664L14.1963 7.52002C14.1145 7.6506 14.0691 7.8007 14.065 7.95474C14.0608 8.10878 14.098 8.26112 14.1726 8.39593C14.2472 8.53075 14.3566 8.64311 14.4894 8.72135C14.6221 8.79959 14.7734 8.84085 14.9275 8.84084H17.1371V23.9186L14.1578 22.2602C13.909 22.1222 13.7017 21.9202 13.5574 21.675C13.4131 21.4299 13.3371 21.1506 13.3373 20.8661V19.9859C14.1149 19.7767 14.7901 19.292 15.237 18.622C15.6839 17.9521 15.8721 17.1426 15.7666 16.3442C15.661 15.5458 15.269 14.8129 14.6634 14.2821C14.0577 13.7513 13.2798 13.4586 12.4745 13.4586C11.6692 13.4586 10.8913 13.7513 10.2857 14.2821C9.68005 14.8129 9.28798 15.5458 9.18245 16.3442C9.07692 17.1426 9.26513 17.9521 9.71203 18.622C10.1589 19.292 10.8341 19.7767 11.6118 19.9859V20.8636C11.6116 21.4558 11.7699 22.0372 12.0703 22.5476C12.3706 23.0579 12.8021 23.4786 13.3199 23.7659L17.1421 25.8899V27.2728C16.3644 27.4821 15.6893 27.9668 15.2424 28.6368C14.7955 29.3067 14.6073 30.1162 14.7128 30.9146C14.8183 31.713 15.2104 32.4459 15.816 32.9767C16.4216 33.5075 17.1995 33.8002 18.0049 33.8002C18.8102 33.8002 19.5881 33.5075 20.1937 32.9767C20.7993 32.4459 21.1914 31.713 21.2969 30.9146C21.4025 30.1162 21.2142 29.3067 20.7673 28.6368C20.3204 27.9668 19.6453 27.4821 18.8676 27.2728V22.1832L23.3999 19.4633C23.8908 19.1672 24.2972 18.7496 24.5798 18.2508C24.8625 17.7521 25.0119 17.1889 25.0137 16.6156V15.7975H25.9944C26.2249 15.7975 26.4459 15.706 26.6088 15.543C26.7718 15.3801 26.8634 15.159 26.8634 14.9286V11.2516C26.8625 11.1375 26.8393 11.0246 26.7948 10.9195C26.7504 10.8144 26.6857 10.7191 26.6045 10.639C26.5232 10.5588 26.4269 10.4955 26.3212 10.4526C26.2155 10.4097 26.1023 10.388 25.9882 10.3888ZM25.1254 12.1144V14.0757H23.164V12.1144H25.1254ZM19.5156 7.11533H16.4842L17.9999 4.68967L19.5156 7.11533ZM19.5951 30.4793C19.5951 30.7948 19.5015 31.1032 19.3262 31.3656C19.151 31.6279 18.9018 31.8323 18.6103 31.9531C18.3189 32.0738 17.9981 32.1054 17.6887 32.0438C17.3793 31.9823 17.095 31.8304 16.8719 31.6073C16.6488 31.3842 16.4969 31.1 16.4354 30.7905C16.3738 30.4811 16.4054 30.1604 16.5261 29.8689C16.6469 29.5774 16.8513 29.3283 17.1137 29.153C17.376 28.9777 17.6844 28.8842 17.9999 28.8842C18.4229 28.8845 18.8284 29.0527 19.1275 29.3517C19.4266 29.6508 19.5947 30.0564 19.5951 30.4793ZM14.0647 16.7819C14.0647 17.0974 13.9712 17.4059 13.7959 17.6682C13.6206 17.9305 13.3715 18.135 13.08 18.2557C12.7885 18.3764 12.4678 18.408 12.1583 18.3465C11.8489 18.2849 11.5647 18.133 11.3416 17.9099C11.1185 17.6868 10.9666 17.4026 10.905 17.0932C10.8435 16.7837 10.8751 16.463 10.9958 16.1715C11.1165 15.88 11.321 15.6309 11.5833 15.4556C11.8456 15.2803 12.154 15.1868 12.4695 15.1868C12.8925 15.1871 13.2981 15.3553 13.5971 15.6544C13.8962 15.9534 14.0644 16.359 14.0647 16.7819Z" fill="black"/>
</svg>
