<svg width="36" height="36" viewBox="0 0 36 36" fill="none" xmlns="http://www.w3.org/2000/svg">
<path d="M23.1875 4.375H13.0625C11.1641 4.375 9.6875 5.9043 9.6875 7.75V28C9.6875 29.8984 11.1641 31.375 13.0625 31.375H23.1875C25.0332 31.375 26.5625 29.8984 26.5625 28V7.75C26.5625 5.9043 25.0332 4.375 23.1875 4.375ZM24.875 28C24.875 28.9492 24.084 29.6875 23.1875 29.6875H13.0625C12.1133 29.6875 11.375 28.9492 11.375 28V7.75C11.375 6.85352 12.1133 6.0625 13.0625 6.0625H23.1875C24.084 6.0625 24.875 6.85352 24.875 7.75V28ZM19.8125 25.4688H16.4375C15.9629 25.4688 15.5938 25.8906 15.5938 26.3125C15.5938 26.7871 15.9629 27.1562 16.4375 27.1562H19.8125C20.2344 27.1562 20.6562 26.7871 20.6562 26.3125C20.6562 25.8906 20.2344 25.4688 19.8125 25.4688Z" fill="black"/>
<path d="M33.2826 11.6143C33.1673 11.4927 33.0084 11.4218 32.8408 11.4171C32.6733 11.4125 32.5107 11.4744 32.3888 11.5895C32.3838 11.5951 32.3784 11.6005 32.3727 11.6056L32.0003 11.978C31.9784 11.9998 31.9584 12.0235 31.9407 12.0488C31.8546 12.168 31.8127 12.3134 31.8219 12.4601C31.8312 12.6068 31.8912 12.7458 31.9916 12.8532C33.277 14.2575 33.99 16.0924 33.99 17.9962C33.99 19.9001 33.277 21.7349 31.9916 23.1393C31.8782 23.2572 31.8148 23.4145 31.8148 23.5781C31.8148 23.7417 31.8782 23.899 31.9916 24.0169L32.3565 24.3893C32.4739 24.5093 32.6342 24.5777 32.802 24.5796C32.9698 24.5815 33.1315 24.5166 33.2516 24.3993L33.2702 24.3794C34.8726 22.6394 35.7621 20.3604 35.7621 17.995C35.7621 15.6295 34.8726 13.3506 33.2702 11.6106L33.2826 11.6143Z" fill="black"/>
<path d="M30.58 13.849C30.4666 13.7262 30.3093 13.6533 30.1423 13.6461C29.9753 13.6389 29.8123 13.698 29.6887 13.8105C29.6799 13.8178 29.6716 13.8256 29.6639 13.8341L29.2915 14.2065C29.2711 14.2281 29.252 14.2509 29.2344 14.2748C29.1493 14.3926 29.1069 14.536 29.1144 14.6811C29.1218 14.8263 29.1786 14.9645 29.2753 15.073C29.9811 15.8814 30.3694 16.9185 30.368 17.9916C30.3666 19.0648 29.9757 20.1009 29.2679 20.9075C29.1665 21.0204 29.1086 21.1657 29.1045 21.3174C29.1004 21.4691 29.1504 21.6173 29.2455 21.7355C29.2566 21.7515 29.269 21.7664 29.2828 21.7802L29.6453 22.1526C29.7031 22.2124 29.7721 22.2602 29.8484 22.2932C29.9247 22.3263 30.0068 22.344 30.09 22.3452C30.1731 22.3465 30.2557 22.3313 30.333 22.3006C30.4103 22.2699 30.4807 22.2242 30.5403 22.1662C30.5503 22.1576 30.5595 22.1481 30.5676 22.1377C31.5856 20.998 32.1494 19.5239 32.1517 17.9957C32.154 16.4675 31.5946 14.9918 30.58 13.849Z" fill="black"/>
</svg>
