<svg width="36" height="36" viewBox="0 0 36 36" fill="none" xmlns="http://www.w3.org/2000/svg">
<path d="M30.0513 22.1749C29.758 20.9493 29.3657 19.7495 28.8782 18.5873C28.589 17.9046 28.3147 17.3658 27.9087 16.9574C27.4196 16.4671 26.8051 16.2411 26.0305 16.2684C25.5799 16.2829 25.142 16.4207 24.7643 16.6669C24.7171 16.626 24.6638 16.5813 24.5992 16.5304C24.1192 16.1393 23.5164 15.9304 22.8973 15.9407C22.6869 15.9454 22.4782 15.9784 22.2766 16.0388V6.12018C22.2759 5.47431 22.0192 4.85506 21.5626 4.39824C21.106 3.94143 20.4869 3.68434 19.841 3.68335H8.88955C8.24399 3.68499 7.62538 3.94233 7.16914 4.39904C6.71289 4.85575 6.45618 5.47462 6.4552 6.12018V26.4626C6.45619 27.1085 6.71328 27.7276 7.17009 28.1842C7.62691 28.6408 8.24616 28.8976 8.89203 28.8982H15.4713L15.4788 28.9069C15.7941 29.2508 16.0895 29.5909 16.4135 29.9671C16.7562 30.3668 17.1298 30.7913 17.5432 31.1873C18.0094 31.6197 18.5219 31.9994 19.0713 32.3195C19.4434 32.52 19.7691 32.7966 20.0272 33.1313C20.0595 33.1735 20.0955 33.2331 20.1352 33.2952L20.1513 33.32C20.3127 33.5819 20.6218 34.081 21.173 34.081C21.2914 34.0797 21.4088 34.0592 21.5206 34.0202L28.7206 31.5597C29.6404 31.2457 30.0216 28.9417 30.0613 28.686C30.2661 27.5997 30.4002 26.8102 30.4176 25.7563C30.4407 24.5521 30.3177 23.3495 30.0513 22.1749ZM8.88955 27.1553C8.79831 27.1557 8.70791 27.138 8.62351 27.1033C8.53912 27.0687 8.46238 27.0177 8.3977 26.9534C8.33301 26.8891 8.28165 26.8126 8.24655 26.7284C8.21145 26.6442 8.19329 26.5539 8.19313 26.4626V6.12018C8.19346 5.93623 8.26668 5.75992 8.39674 5.62985C8.52681 5.49979 8.70312 5.42657 8.88706 5.42624H19.841C20.0248 5.42657 20.201 5.49983 20.3309 5.62993C20.4607 5.76003 20.5337 5.93635 20.5337 6.12018V16.1443C20.1632 16.0157 19.7673 15.9778 19.3792 16.0338V6.56955H9.35134V22.8415H11.6491C11.5086 23.1186 11.4268 23.4217 11.4089 23.7319C11.3909 24.0421 11.4372 24.3526 11.5449 24.644C11.6843 25.0374 11.9032 25.3978 12.1879 25.7029C12.4486 25.9649 12.7242 26.2131 12.9911 26.4477L13.0482 26.4999C13.2331 26.6662 13.4206 26.84 13.6068 27.0151L13.7495 27.1491L8.88955 27.1553ZM12.6931 16.1071C12.6931 16.1071 13.8799 19.9851 14.1989 21.0204C14.2126 21.0639 14.2262 21.1073 14.2411 21.1508H11.0359V8.25411H17.6971V15.0209C17.4811 14.4958 17.2813 14.0191 17.213 13.88C16.534 12.5071 15.2268 11.9696 13.9643 12.5443C12.9948 12.9788 12.4883 13.8031 12.4995 14.9265C12.5064 15.3269 12.5716 15.7242 12.6931 16.1058V16.1071ZM28.5828 26.8164C28.342 28.6562 28.0006 29.8764 27.8169 29.9894L21.4163 32.1767C21.0526 31.5622 20.6504 31.1426 20.1551 30.8596C19.0378 30.2215 18.6033 29.7734 17.7207 28.7493C16.3949 27.2025 15.7345 26.5371 13.5733 24.5633C13.2009 24.2195 13.0916 23.8706 13.2667 23.5702C13.4901 23.1978 14.1567 22.9495 14.8804 23.1978C15.6042 23.4461 16.0138 23.8644 16.5228 24.4553C16.5686 24.5116 16.6342 24.5484 16.7061 24.5581C16.7781 24.5677 16.851 24.5497 16.9101 24.5075C16.9749 24.4686 17.0252 24.4096 17.0533 24.3394C17.0813 24.2692 17.0855 24.1917 17.0653 24.1189C16.9011 23.4124 16.6972 22.7157 16.4545 22.0322C16.3912 21.8472 16.3242 21.6498 16.2509 21.4276C15.557 19.3955 14.9015 17.4775 14.3007 15.32C14.1331 14.7217 14.3839 14.2922 14.7191 14.1767C14.9996 14.0811 15.418 14.1904 15.6774 14.8148C16.4607 16.6769 17.0938 18.2907 17.7952 20.2173C17.9889 20.7486 18.4482 20.9025 18.8044 20.7809H18.8107C19.1756 20.6567 19.445 20.226 19.2513 19.6636L19.2004 19.5146C19.1272 19.3036 19.0589 19.1038 18.9931 18.8853C18.833 18.3403 19.1173 17.9691 19.4624 17.8425C19.8075 17.7159 20.2904 17.8177 20.5238 18.3515C20.6404 18.6171 20.7385 18.8989 20.8329 19.172C20.9049 19.3756 20.9793 19.5879 21.0588 19.7927C21.0927 19.8837 21.1443 19.9671 21.2106 20.0381C21.277 20.109 21.3567 20.1661 21.4453 20.2061C21.5338 20.246 21.6294 20.268 21.7265 20.2708C21.8236 20.2736 21.9203 20.2571 22.0109 20.2222C22.1025 20.1913 22.187 20.1424 22.2595 20.0784C22.3319 20.0145 22.3909 19.9367 22.433 19.8497C22.4751 19.7626 22.4994 19.6681 22.5045 19.5716C22.5096 19.475 22.4954 19.3785 22.4628 19.2875L22.4144 19.1373C22.3722 19.0131 22.3337 18.889 22.3051 18.781C22.1487 18.2025 22.4181 17.8872 22.6987 17.7879C23.0711 17.6638 23.5676 17.8537 23.8022 18.4508C23.8482 18.5662 23.9016 18.7351 23.9587 18.9138C24.0158 19.0926 24.0667 19.2465 24.1225 19.398C24.1541 19.4892 24.2035 19.5732 24.2677 19.6453C24.332 19.7174 24.4098 19.776 24.4968 19.8179C24.5838 19.8598 24.6782 19.8841 24.7746 19.8893C24.871 19.8946 24.9675 19.8807 25.0585 19.8486L25.0759 19.8424C25.2618 19.7832 25.4171 19.6534 25.5083 19.4809C25.5996 19.3084 25.6195 19.107 25.5638 18.92C25.4396 18.5402 25.5352 18.2398 25.8257 18.0933C25.9862 18.0149 26.1696 17.9969 26.3423 18.0425C26.5151 18.0881 26.6657 18.1942 26.7667 18.3415C27.1763 18.9374 27.5115 19.9876 27.7833 20.8318C28.3035 22.422 28.8559 24.7533 28.5853 26.814L28.5828 26.8164Z" fill="black"/>
</svg>
