<svg width="36" height="36" viewBox="0 0 36 36" fill="none" xmlns="http://www.w3.org/2000/svg">
<path fill-rule="evenodd" clip-rule="evenodd" d="M7.25 15C7.25 14.5858 7.58579 14.25 8 14.25H28C28.4142 14.25 28.75 14.5858 28.75 15C28.75 15.4142 28.4142 15.75 28 15.75H8C7.58579 15.75 7.25 15.4142 7.25 15Z" fill="black"/>
<path fill-rule="evenodd" clip-rule="evenodd" d="M7.25 21C7.25 20.5858 7.58579 20.25 8 20.25H12C12.4142 20.25 12.75 20.5858 12.75 21C12.75 21.4142 12.4142 21.75 12 21.75H8C7.58579 21.75 7.25 21.4142 7.25 21Z" fill="black"/>
<path fill-rule="evenodd" clip-rule="evenodd" d="M15.25 21C15.25 20.5858 15.5858 20.25 16 20.25H20C20.4142 20.25 20.75 20.5858 20.75 21C20.75 21.4142 20.4142 21.75 20 21.75H16C15.5858 21.75 15.25 21.4142 15.25 21Z" fill="black"/>
<path fill-rule="evenodd" clip-rule="evenodd" d="M23.25 21C23.25 20.5858 23.5858 20.25 24 20.25H28C28.4142 20.25 28.75 20.5858 28.75 21C28.75 21.4142 28.4142 21.75 28 21.75H24C23.5858 21.75 23.25 21.4142 23.25 21Z" fill="black"/>
</svg>
