<svg width="36" height="36" viewBox="0 0 36 36" fill="none" xmlns="http://www.w3.org/2000/svg">
<path d="M27.7088 8.14319H8.29116C7.51645 8.14417 6.77375 8.45236 6.22594 9.00017C5.67813 9.54798 5.36994 10.2907 5.36896 11.0654V24.9341C5.36994 25.7088 5.67813 26.4515 6.22594 26.9993C6.77375 27.5471 7.51645 27.8553 8.29116 27.8563H27.7088C28.4835 27.8553 29.2262 27.5471 29.774 26.9993C30.3219 26.4515 30.63 25.7088 30.631 24.9341V11.0654C30.63 10.2907 30.3219 9.54798 29.774 9.00017C29.2262 8.45236 28.4835 8.14417 27.7088 8.14319ZM28.9502 11.0654V24.9341C28.9502 25.2633 28.8194 25.5791 28.5866 25.8119C28.3538 26.0447 28.0381 26.1755 27.7088 26.1755H8.29116C7.96193 26.1755 7.64618 26.0447 7.41338 25.8119C7.18057 25.5791 7.04979 25.2633 7.04979 24.9341V11.0654C7.04979 10.7362 7.18057 10.4204 7.41338 10.1876C7.64618 9.9548 7.96193 9.82402 8.29116 9.82402H27.7088C28.0376 9.82467 28.3527 9.95575 28.585 10.1885C28.8173 10.4212 28.9477 10.7366 28.9477 11.0654H28.9502Z" fill="black"/>
<path d="M15.2688 20.5635C15.0508 20.8421 14.7678 21.0629 14.4446 21.2066C14.1208 21.3561 13.7684 21.4336 13.4117 21.4337C13.0861 21.4358 12.7625 21.3808 12.4559 21.2711C12.1676 21.1689 11.9026 21.0102 11.6763 20.8044C11.4538 20.5998 11.2762 20.3513 11.1549 20.0744C11.0298 19.7728 10.9653 19.4495 10.9653 19.1229C10.9653 18.7964 11.0298 18.473 11.1549 18.1714C11.2762 17.8946 11.4538 17.646 11.6763 17.4415C11.9026 17.2356 12.1676 17.077 12.4559 16.9747C12.7625 16.865 13.0861 16.81 13.4117 16.8121C13.7053 16.8083 13.9966 16.8636 14.2683 16.9747C14.518 17.079 14.7409 17.2386 14.92 17.4415C15.1047 17.6549 15.2448 17.903 15.3322 18.1714C15.4325 18.4782 15.4816 18.7995 15.4774 19.1223V19.5493H12.323C12.3663 19.7904 12.4907 20.0094 12.6756 20.17C12.8637 20.3265 13.1026 20.4087 13.3472 20.4009C13.5465 20.4077 13.7435 20.3554 13.9133 20.2507C14.0703 20.1484 14.2071 20.0179 14.3167 19.8659L15.2688 20.5635ZM14.1168 18.6208C14.1217 18.5122 14.1042 18.4039 14.0653 18.3024C14.0264 18.201 13.9671 18.1086 13.8909 18.0311C13.8125 17.9495 13.7179 17.8852 13.6131 17.8425C13.5083 17.7997 13.3957 17.7794 13.2826 17.7828C13.0271 17.7766 12.779 17.869 12.5899 18.041C12.5094 18.115 12.4448 18.2045 12.4 18.3042C12.3542 18.4025 12.328 18.5087 12.323 18.617L14.1168 18.6208Z" fill="black"/>
<path d="M16.4545 14.9089H17.8684V21.3244H16.4545V14.9089Z" fill="black"/>
<path d="M19.1557 14.909H21.276C21.7691 14.9064 22.2606 14.9644 22.7396 15.0816C23.176 15.1841 23.5872 15.3737 23.9487 15.639C24.2989 15.9014 24.5805 16.2446 24.7692 16.6395C24.9848 17.108 25.0897 17.6198 25.0758 18.1354C25.0853 18.6098 24.9841 19.0798 24.7804 19.5083C24.591 19.8926 24.3209 20.2314 23.9884 20.5014C23.6478 20.7761 23.2587 20.9845 22.8414 21.1159C22.3997 21.2558 21.9391 21.3262 21.4758 21.3245H19.1557V14.909ZM20.5696 20.0198H21.3033C21.6094 20.0219 21.9147 19.9885 22.2132 19.9205C22.4769 19.8617 22.7254 19.7489 22.9431 19.589C23.153 19.4302 23.3198 19.2216 23.4285 18.982C23.5541 18.692 23.6143 18.378 23.6048 18.0621C23.6118 17.7789 23.5514 17.4981 23.4285 17.2428C23.3162 17.0166 23.153 16.8195 22.9518 16.6668C22.7414 16.5106 22.5035 16.3952 22.2505 16.3267C21.9742 16.2509 21.689 16.2129 21.4026 16.2137H20.5696V20.0198Z" fill="black"/>
</svg>
