<svg width="36" height="36" viewBox="0 0 36 36" fill="none" xmlns="http://www.w3.org/2000/svg">
<path d="M33.0948 15.2818L18.5831 8.25563C18.3597 8.15632 18.0991 8.15632 17.8756 8.25563L3.3639 15.2818C3.05355 15.4184 2.85498 15.7287 2.85498 16.0763C2.85498 16.4239 3.05355 16.7218 3.3639 16.8708L8.5156 19.1797V22.9783C8.5156 23.4377 8.87563 23.8225 9.34735 23.8473C9.40942 23.8473 15.0453 24.108 17.8135 25.6845C17.9377 25.759 18.0867 25.7963 18.248 25.7963C18.3846 25.7963 18.5211 25.759 18.6577 25.6845C19.4894 25.2501 20.47 24.9273 21.4631 24.6666L21.2645 25.6225C21.2149 25.8583 21.3762 26.1066 21.6121 26.1439L22.4439 26.3176C22.6797 26.3673 22.928 26.2059 22.9653 25.9701L23.2135 24.7783L23.4618 25.9701C23.5115 26.2059 23.7472 26.3673 23.9831 26.3176L24.8148 26.1439C25.0507 26.0942 25.212 25.8583 25.1624 25.6225L24.8397 24.0459C26.168 23.8845 27.1114 23.8349 27.1362 23.8349C27.5955 23.8101 27.968 23.4377 27.968 22.9659V19.1673L33.1197 16.8584C33.43 16.7218 33.6286 16.4115 33.6286 16.0639C33.6286 15.7163 33.4052 15.4308 33.0948 15.2818ZM8.86316 17.3922C8.85075 17.4046 8.83836 17.417 8.82595 17.417L5.83428 16.0763L18.2355 10.1798L22.3321 12.1039V14.8225C20.2093 14.1149 15.008 13.1467 8.86316 17.3922ZM18.2232 23.9342C15.728 22.7052 11.8673 22.2832 10.2287 22.159V18.5342C15.0949 14.9342 20.4577 15.9149 22.3197 16.6101V18.8818C21.8976 19.1673 21.6245 19.639 21.6245 20.1852C21.6245 20.6446 21.8231 21.0542 22.1459 21.3521C22.121 21.3894 22.1087 21.439 22.0963 21.4763L21.8232 22.817C20.5073 23.1025 19.179 23.4749 18.2232 23.9342ZM26.2176 22.1342C25.8079 22.159 25.1996 22.2335 24.4796 22.3328L24.3059 21.4639C24.2935 21.4142 24.281 21.377 24.2562 21.3397C24.579 21.0542 24.7776 20.6446 24.7776 20.1728C24.7776 19.6266 24.5046 19.1549 24.0825 18.8694V17.4046C25.4232 18.0625 25.8576 18.2735 26.23 18.5218V22.1342H26.2176ZM27.6328 17.417C27.6204 17.4046 27.608 17.3922 27.5956 17.3922C26.9004 16.8832 25.5845 16.2004 24.07 15.5177V12.8735L30.6369 16.0763L27.6328 17.417Z" fill="black"/>
</svg>
