<svg width="36" height="36" viewBox="0 0 36 36" fill="none" xmlns="http://www.w3.org/2000/svg">
<path d="M18.7635 6.7605H16.9623C16.8046 6.7605 16.6768 6.88833 16.6768 7.04601V8.11857C16.6768 8.27625 16.8046 8.40408 16.9623 8.40408H18.7635C18.9212 8.40408 19.049 8.27625 19.049 8.11857V7.04601C19.049 6.88833 18.9212 6.7605 18.7635 6.7605Z" fill="black"/>
<path d="M22.2914 6.7605H20.4901C20.3324 6.7605 20.2046 6.88833 20.2046 7.04601V8.11857C20.2046 8.27625 20.3324 8.40408 20.4901 8.40408H22.2914C22.449 8.40408 22.5769 8.27625 22.5769 8.11857V7.04601C22.5769 6.88833 22.449 6.7605 22.2914 6.7605Z" fill="black"/>
<path d="M19.4922 20.704H17.6909C17.5332 20.704 17.4054 20.8318 17.4054 20.9895V22.062C17.4054 22.2197 17.5332 22.3476 17.6909 22.3476H19.4922C19.6498 22.3476 19.7777 22.2197 19.7777 22.062V20.9895C19.7777 20.8318 19.6498 20.704 19.4922 20.704Z" fill="black"/>
<path d="M23.0201 20.7039H21.9512V14.4349C21.9408 14.2291 21.8538 14.0348 21.7072 13.89C21.5606 13.7452 21.3651 13.6606 21.1592 13.6528H7.14903C6.94402 13.6614 6.74971 13.7466 6.60462 13.8917C6.45953 14.0368 6.37426 14.2311 6.36572 14.4361V28.4563C6.37428 28.6615 6.45973 28.856 6.60508 29.0011C6.75043 29.1462 6.94505 29.2313 7.15027 29.2396H21.1667C21.3717 29.2308 21.566 29.1455 21.7113 29.0005C21.8565 28.8555 21.9421 28.6613 21.9512 28.4563V22.345H23.0201C23.096 22.3446 23.1688 22.3143 23.2225 22.2606C23.2762 22.2069 23.3065 22.1342 23.3068 22.0582V20.9857C23.3052 20.9106 23.2743 20.8391 23.2208 20.7864C23.1672 20.7338 23.0952 20.7042 23.0201 20.7039ZM14.1616 16.4497H15.2341C15.3094 16.4484 15.3812 16.4176 15.4341 16.364C15.4871 16.3104 15.5169 16.2382 15.5172 16.1629V15.2939H20.3014V27.5898H8.01179V15.3001H13.8773V16.1691C13.8792 16.2436 13.9099 16.3144 13.9629 16.3667C14.0159 16.419 14.0871 16.4487 14.1616 16.4497Z" fill="black"/>
<path d="M15.2342 10.4187H14.1616C14.0039 10.4187 13.8761 10.5465 13.8761 10.7042V12.8493C13.8761 13.007 14.0039 13.1348 14.1616 13.1348H15.2342C15.3919 13.1348 15.5197 13.007 15.5197 12.8493V10.7042C15.5197 10.5465 15.3919 10.4187 15.2342 10.4187Z" fill="black"/>
<path d="M29.3487 6.7605H27.5475C27.3898 6.7605 27.262 6.88833 27.262 7.04601V8.11857C27.262 8.27625 27.3898 8.40408 27.5475 8.40408H29.3487C29.5064 8.40408 29.6342 8.27625 29.6342 8.11857V7.04601C29.6342 6.88833 29.5064 6.7605 29.3487 6.7605Z" fill="black"/>
<path d="M15.2342 6.7605H14.1616C14.0039 6.7605 13.8761 6.88833 13.8761 7.04602V9.19112C13.8761 9.34881 14.0039 9.47664 14.1616 9.47664H15.2342C15.3919 9.47664 15.5197 9.34881 15.5197 9.19112V7.04602C15.5197 6.88833 15.3919 6.7605 15.2342 6.7605Z" fill="black"/>
<path d="M25.8208 6.7605H24.0195C23.8618 6.7605 23.734 6.88833 23.734 7.04601V8.11857C23.734 8.27625 23.8618 8.40408 24.0195 8.40408H25.8208C25.9785 8.40408 26.1063 8.27625 26.1063 8.11857V7.04601C26.1063 6.88833 25.9785 6.7605 25.8208 6.7605Z" fill="black"/>
<path d="M29.3487 19.9747H28.2761C28.1184 19.9747 27.9906 20.1026 27.9906 20.2602V22.0615C27.9906 22.2192 28.1184 22.347 28.2761 22.347H29.3487C29.5064 22.347 29.6342 22.2192 29.6342 22.0615V20.2602C29.6342 20.1026 29.5064 19.9747 29.3487 19.9747Z" fill="black"/>
<path d="M29.3487 16.4891H28.2761C28.1184 16.4891 27.9906 16.617 27.9906 16.7747V18.5759C27.9906 18.7336 28.1184 18.8614 28.2761 18.8614H29.3487C29.5064 18.8614 29.6342 18.7336 29.6342 18.5759V16.7747C29.6342 16.617 29.5064 16.4891 29.3487 16.4891Z" fill="black"/>
<path d="M29.3487 9.51782H28.2761C28.1184 9.51782 27.9906 9.64565 27.9906 9.80334V11.6046C27.9906 11.7623 28.1184 11.8901 28.2761 11.8901H29.3487C29.5064 11.8901 29.6342 11.7623 29.6342 11.6046V9.80334C29.6342 9.64565 29.5064 9.51782 29.3487 9.51782Z" fill="black"/>
<path d="M29.3487 13.0034H28.2761C28.1184 13.0034 27.9906 13.1312 27.9906 13.2889V15.0902C27.9906 15.2479 28.1184 15.3757 28.2761 15.3757H29.3487C29.5064 15.3757 29.6342 15.2479 29.6342 15.0902V13.2889C29.6342 13.1312 29.5064 13.0034 29.3487 13.0034Z" fill="black"/>
<path d="M26.5493 20.704H24.748C24.5904 20.704 24.4625 20.8318 24.4625 20.9895V22.062C24.4625 22.2197 24.5904 22.3476 24.748 22.3476H26.5493C26.707 22.3476 26.8348 22.2197 26.8348 22.062V20.9895C26.8348 20.8318 26.707 20.704 26.5493 20.704Z" fill="black"/>
<path d="M15.9629 20.704H14.1616C14.0039 20.704 13.8761 20.8318 13.8761 20.9895V22.062C13.8761 22.2197 14.0039 22.3476 14.1616 22.3476H15.9629C16.1205 22.3476 16.2484 22.2197 16.2484 22.062V20.9895C16.2484 20.8318 16.1205 20.704 15.9629 20.704Z" fill="black"/>
<path d="M15.2342 17.3906H14.1616C14.0039 17.3906 13.8761 17.5185 13.8761 17.6761V19.4774C13.8761 19.6351 14.0039 19.7629 14.1616 19.7629H15.2342C15.3919 19.7629 15.5197 19.6351 15.5197 19.4774V17.6761C15.5197 17.5185 15.3919 17.3906 15.2342 17.3906Z" fill="black"/>
</svg>
