<svg width="36" height="36" viewBox="0 0 36 36" fill="none" xmlns="http://www.w3.org/2000/svg">
<path d="M18 4.86621C15.4024 4.86621 12.8631 5.63649 10.7033 7.07965C8.54343 8.52281 6.86003 10.574 5.86597 12.9739C4.8719 15.3738 4.61181 18.0146 5.11858 20.5623C5.62535 23.11 6.87622 25.4502 8.71302 27.287C10.5498 29.1238 12.89 30.3747 15.4377 30.8814C17.9854 31.3882 20.6262 31.1281 23.0261 30.134C25.426 29.14 27.4772 27.4566 28.9204 25.2967C30.3635 23.1369 31.1338 20.5976 31.1338 18C31.1299 14.5179 29.7449 11.1796 27.2827 8.71736C24.8204 6.25515 21.4821 4.87015 18 4.86621ZM17.0528 29.1724C14.2392 28.9543 11.6115 27.6826 9.69461 25.6114C7.77776 23.5402 6.71297 20.8221 6.71297 18C6.71297 15.1779 7.77776 12.4598 9.69461 10.3886C11.6115 8.31738 14.2392 7.0457 17.0528 6.82759V29.1724ZM28.157 12.8967H23.8742C23.4075 10.6101 22.639 8.65118 21.6459 7.22359C24.4719 8.19514 26.8077 10.2303 28.157 12.8967ZM18.8603 6.88221C20.0433 7.56993 21.3567 9.61325 22.0879 12.8967H18.8603V6.88221ZM18.8603 14.6495H22.3957C22.5443 15.7606 22.6186 16.8803 22.6179 18.0012C22.6186 19.1222 22.5443 20.2419 22.3957 21.353H18.8603V14.6495ZM18.8603 29.1178V23.1033H22.0879C21.3517 26.393 20.0433 28.4276 18.8603 29.1178ZM21.6459 28.7764C22.639 27.3439 23.4099 25.385 23.8742 23.1033H28.157C26.8077 25.7697 24.4719 27.8049 21.6459 28.7764ZM24.1535 21.3517C24.2964 20.2402 24.369 19.1207 24.3708 18C24.3704 16.8793 24.2978 15.7597 24.1535 14.6483H28.877C29.5495 16.8322 29.5495 19.1678 28.877 21.3517H24.1535Z" fill="black"/>
<path d="M9.54742 17.8299V20.0743C9.54742 20.2389 9.61282 20.3968 9.72922 20.5132C9.84562 20.6296 10.0035 20.695 10.1681 20.695H14.2845C14.4491 20.695 14.607 20.6296 14.7234 20.5132C14.8398 20.3968 14.9052 20.2389 14.9052 20.0743V17.8299C14.9052 17.6653 14.8398 17.5074 14.7234 17.391C14.607 17.2746 14.4491 17.2092 14.2845 17.2092H14.1604C14.1604 17.2092 14.1691 16.7809 14.1604 16.5414C14.1488 16.3069 14.1071 16.0749 14.0363 15.8512C13.8992 15.4816 13.6523 15.1628 13.3288 14.9377C13.0052 14.7126 12.6205 14.5919 12.2263 14.5919C11.8322 14.5919 11.4474 14.7126 11.1239 14.9377C10.8003 15.1628 10.5534 15.4816 10.4164 15.8512C10.4164 15.8512 10.3009 16.0485 10.2923 16.524V17.2092H10.1681C10.0035 17.2092 9.84562 17.2746 9.72922 17.391C9.61282 17.5074 9.54742 17.6653 9.54742 17.8299ZM12.5267 19.1756V19.4462C12.5294 19.4867 12.5236 19.5273 12.51 19.5655C12.4963 19.6037 12.4749 19.6387 12.4471 19.6683C12.4194 19.6979 12.3859 19.7215 12.3486 19.7376C12.3114 19.7537 12.2712 19.7621 12.2307 19.7621C12.1901 19.7621 12.1499 19.7537 12.1127 19.7376C12.0755 19.7215 12.0419 19.6979 12.0142 19.6683C11.9864 19.6387 11.9651 19.6037 11.9514 19.5655C11.9377 19.5273 11.932 19.4867 11.9346 19.4462V19.1756C11.8355 19.1116 11.7597 19.0173 11.7187 18.9068C11.6776 18.7962 11.6734 18.6754 11.7067 18.5622C11.74 18.4491 11.8091 18.3498 11.9035 18.2792C11.998 18.2085 12.1127 18.1704 12.2307 18.1704C12.3486 18.1704 12.4634 18.2085 12.5578 18.2792C12.6523 18.3498 12.7213 18.4491 12.7546 18.5622C12.7879 18.6754 12.7837 18.7962 12.7427 18.9068C12.7016 19.0173 12.6258 19.1116 12.5267 19.1756ZM10.8 16.5203C10.7943 16.3283 10.8273 16.1372 10.8968 15.9583C10.9663 15.7793 11.0711 15.6161 11.2049 15.4784C11.3386 15.3406 11.4986 15.2311 11.6755 15.1563C11.8523 15.0816 12.0424 15.043 12.2344 15.043C12.4264 15.043 12.6164 15.0816 12.7933 15.1563C12.9701 15.2311 13.1302 15.3406 13.2639 15.4784C13.3977 15.6161 13.5024 15.7793 13.572 15.9583C13.6415 16.1372 13.6744 16.3283 13.6688 16.5203V17.2055H10.8V16.5203Z" fill="black"/>
</svg>
