<svg width="36" height="36" viewBox="0 0 36 36" fill="none" xmlns="http://www.w3.org/2000/svg">
<path d="M30.7043 10.8422C30.7046 9.53409 30.2699 8.26301 29.4685 7.22909C28.6672 6.19518 27.5447 5.45716 26.2778 5.13123C25.011 4.80531 23.6717 4.90999 22.4708 5.42881C21.27 5.94762 20.2758 6.85109 19.6448 7.99697C17.1762 7.45252 14.5972 7.73178 12.3023 8.79203C10.0074 9.85227 8.12301 11.6351 6.93743 13.8678C5.75184 16.1006 5.33033 18.6602 5.73737 21.1552C6.14441 23.6502 7.35759 25.9431 9.19131 27.6832C11.025 29.4234 13.3783 30.5149 15.8912 30.7908C18.4041 31.0667 20.9381 30.5118 23.1057 29.2109C25.2733 27.9101 26.9551 25.935 27.8938 23.5878C28.8325 21.2405 28.9764 18.6504 28.3035 16.2137C30.2686 13.392 30.7043 12.595 30.7043 10.8422ZM21.8669 7.90139C22.4485 7.3197 23.1895 6.92355 23.9963 6.76305C24.8031 6.60255 25.6393 6.6849 26.3992 6.9997C27.1592 7.31449 27.8087 7.84759 28.2657 8.53156C28.7226 9.21553 28.9664 10.0196 28.9664 10.8422C28.9664 12.2363 28.5939 12.7589 26.213 16.1603C25.7971 16.7537 25.3353 17.4116 24.8065 18.1726C24.2777 17.4104 23.8134 16.7537 23.4 16.159C21.0153 12.7589 20.6491 12.2363 20.6491 10.8422C20.6479 10.2959 20.7549 9.75476 20.9639 9.25001C21.1729 8.74526 21.4798 8.2869 21.8669 7.90139ZM21.0824 19.296C21.0823 20.2424 21.0214 21.1878 20.8999 22.1264H13.3895C13.1446 20.2474 13.1446 18.3446 13.3895 16.4657H20.8999C21.0214 17.4042 21.0824 18.3496 21.0824 19.296ZM17.1447 9.44939C17.6921 9.44939 18.3315 9.90373 18.9149 10.7007C18.9149 10.7479 18.9149 10.795 18.9149 10.8422C18.9149 12.245 19.1942 13.0345 20.3139 14.7401H13.6974C14.0586 13.1698 14.6011 11.8279 15.2715 10.8509C15.8785 9.95959 16.5625 9.44939 17.1447 9.44939ZM13.7148 10.0701C12.929 11.2904 12.3157 12.8942 11.9334 14.7401H8.42898C9.56151 12.5902 11.4417 10.9291 13.7148 10.0701ZM7.29808 19.296C7.29699 18.3373 7.43669 17.3837 7.7127 16.4657H11.6578C11.5412 17.4046 11.4819 18.3498 11.4803 19.296C11.4805 20.2422 11.5398 21.1875 11.6578 22.1264H7.7127C7.43669 21.2083 7.29699 20.2547 7.29808 19.296ZM8.42898 23.8519H11.9334C12.3182 25.7015 12.9265 27.3054 13.7148 28.5219C11.4415 27.6632 9.56123 26.002 8.42898 23.8519ZM17.1447 29.1426C16.5625 29.1426 15.8785 28.6312 15.2677 27.7411C14.5974 26.7641 14.0549 25.4222 13.6937 23.8519H20.5945C20.2345 25.4222 19.692 26.7641 19.0217 27.7411C18.4097 28.6312 17.7257 29.1426 17.1447 29.1426ZM20.5734 28.5219C21.3592 27.3017 21.9724 25.6978 22.356 23.8519H25.8604C24.7274 26.0019 22.8468 27.663 20.5734 28.5219ZM26.5755 22.1264H22.6304C22.7469 21.1874 22.8062 20.2422 22.8079 19.296C22.8079 18.9683 22.7992 18.6406 22.7843 18.3116C23.148 18.8317 23.5428 19.3978 23.9773 20.0284C24.0704 20.1625 24.1945 20.272 24.3391 20.3476C24.4838 20.4233 24.6445 20.4628 24.8077 20.4629C24.9705 20.4621 25.1306 20.4223 25.2747 20.3466C25.4188 20.271 25.5426 20.1619 25.6357 20.0284C26.1087 19.3419 26.5345 18.7299 26.9255 18.1664C26.9682 18.5393 26.9898 18.9144 26.9901 19.2898C26.9917 20.2505 26.852 21.2063 26.5755 22.1264Z" fill="black"/>
<path d="M27.6826 10.8422C27.6829 10.2726 27.5142 9.71568 27.1979 9.24193C26.8817 8.76818 26.432 8.39885 25.9059 8.18064C25.3797 7.96243 24.8007 7.90515 24.242 8.01604C23.6833 8.12692 23.17 8.40099 22.767 8.80359C22.3641 9.20619 22.0896 9.71924 21.9782 10.2779C21.8668 10.8365 21.9236 11.4156 22.1414 11.9419C22.3591 12.4683 22.7281 12.9182 23.2015 13.2349C23.675 13.5515 24.2318 13.7207 24.8014 13.7209C25.5649 13.7203 26.297 13.4168 26.8371 12.8772C27.3772 12.3375 27.6813 11.6057 27.6826 10.8422ZM23.6605 10.8422C23.6603 10.6162 23.7271 10.3952 23.8525 10.2072C23.9779 10.0192 24.1563 9.87263 24.365 9.78604C24.5737 9.69945 24.8035 9.67673 25.0251 9.72075C25.2468 9.76478 25.4504 9.87358 25.6102 10.0334C25.77 10.1932 25.8788 10.3968 25.9228 10.6184C25.9668 10.8401 25.9441 11.0698 25.8575 11.2786C25.7709 11.4873 25.6243 11.6656 25.4363 11.791C25.2483 11.9164 25.0274 11.9832 24.8014 11.983C24.4999 11.981 24.2113 11.8601 23.9986 11.6464C23.7859 11.4327 23.6662 11.1437 23.6655 10.8422H23.6605Z" fill="black"/>
</svg>
