<svg width="36" height="36" viewBox="0 0 36 36" fill="none" xmlns="http://www.w3.org/2000/svg">
<path d="M14.057 14.397C14.1175 14.3277 14.1508 14.2389 14.1508 14.147C14.1508 14.055 14.1175 13.9662 14.057 13.897L14.045 13.881L13.624 13.452C13.5549 13.3815 13.4607 13.3412 13.3619 13.3399C13.2632 13.3386 13.168 13.3763 13.097 13.445L13.082 13.461C11.969 14.7117 11.3541 16.3277 11.3541 18.002C11.3541 19.6762 11.969 21.2922 13.082 22.543C13.1489 22.6152 13.2416 22.658 13.34 22.662H13.356C13.4496 22.6617 13.5397 22.626 13.608 22.562L13.623 22.549L14.046 22.119C14.112 22.0493 14.1494 21.9573 14.1507 21.8613C14.152 21.7654 14.1171 21.6724 14.053 21.601C13.1807 20.6036 12.7002 19.3233 12.701 17.9982C12.7017 16.6732 13.1836 15.3934 14.057 14.397Z" fill="black"/>
<path d="M17.9991 15.5369C17.5124 15.5371 17.0367 15.6815 16.6322 15.952C16.2276 16.2225 15.9124 16.6069 15.7262 17.0565C15.5401 17.5062 15.4914 18.0009 15.5864 18.4782C15.6814 18.9555 15.9158 19.3939 16.2599 19.7381C16.604 20.0822 17.0424 20.3165 17.5197 20.4115C17.997 20.5065 18.4917 20.4579 18.9414 20.2717C19.391 20.0856 19.7754 19.7703 20.0459 19.3657C20.3164 18.9612 20.4609 18.4855 20.4611 17.9989C20.4608 17.346 20.2013 16.7199 19.7397 16.2583C19.278 15.7966 18.6519 15.5371 17.9991 15.5369ZM19.1201 17.9989C19.1201 18.2206 19.0543 18.4373 18.9311 18.6217C18.808 18.806 18.6329 18.9497 18.4281 19.0345C18.2232 19.1194 17.9978 19.1416 17.7804 19.0983C17.5629 19.0551 17.3632 18.9483 17.2064 18.7915C17.0496 18.6348 16.9429 18.435 16.8996 18.2176C16.8564 18.0001 16.8786 17.7747 16.9634 17.5699C17.0482 17.365 17.1919 17.19 17.3763 17.0668C17.5606 16.9436 17.7774 16.8779 17.9991 16.8779C18.2963 16.8781 18.5813 16.9963 18.7914 17.2065C19.0016 17.4167 19.1198 17.7016 19.1201 17.9989Z" fill="black"/>
<path d="M22.385 13.4349L22.37 13.4499L21.947 13.8799C21.8808 13.9499 21.8434 14.0423 21.8421 14.1386C21.8408 14.2349 21.8757 14.3282 21.94 14.3999C22.8122 15.3964 23.2929 16.6757 23.2929 18C23.2929 19.3242 22.8122 20.6035 21.94 21.6C21.8751 21.6714 21.8397 21.7648 21.841 21.8613C21.8423 21.9579 21.8802 22.0503 21.947 22.1199L22.368 22.5489C22.4018 22.5842 22.4422 22.6124 22.4871 22.6318C22.5319 22.6512 22.5801 22.6615 22.629 22.6619H22.642C22.7377 22.6631 22.8301 22.6273 22.9 22.5619L22.916 22.5459C24.029 21.2952 24.6439 19.6792 24.6439 18.0049C24.6439 16.3307 24.029 14.7147 22.916 13.4639C22.8833 13.4268 22.8435 13.3966 22.7989 13.375C22.7544 13.3534 22.706 13.3409 22.6566 13.3382C22.6071 13.3355 22.5577 13.3427 22.5111 13.3593C22.4644 13.3759 22.4216 13.4016 22.385 13.4349Z" fill="black"/>
</svg>
