<svg width="36" height="36" viewBox="0 0 36 36" fill="none" xmlns="http://www.w3.org/2000/svg">
<path d="M28.7665 11.7855H27.2905V9.53989C27.2901 9.31974 27.2025 9.10869 27.0469 8.95302C26.8912 8.79734 26.6801 8.70974 26.46 8.70941H20.3077C20.0873 8.70941 19.876 8.79687 19.72 8.95258C19.5641 9.10829 19.4763 9.31952 19.476 9.53989V11.7855H16.524V9.53989C16.5237 9.31974 16.4361 9.10869 16.2804 8.95302C16.1247 8.79734 15.9137 8.70974 15.6935 8.70941H9.53998C9.31983 8.70974 9.10878 8.79734 8.95311 8.95302C8.79743 9.10869 8.70983 9.31974 8.7095 9.53989V11.7855H7.2335C6.80922 11.7859 6.40241 11.9546 6.10239 12.2546C5.80238 12.5546 5.63369 12.9614 5.63336 13.3857V25.6964C5.63369 26.1207 5.80238 26.5275 6.10239 26.8275C6.40241 27.1276 6.80922 27.2963 7.2335 27.2966H28.7665C29.1908 27.2963 29.5976 27.1276 29.8976 26.8275C30.1976 26.5275 30.3663 26.1207 30.3666 25.6964V13.3857C30.3663 12.9614 30.1976 12.5546 29.8976 12.2546C29.5976 11.9546 29.1908 11.7859 28.7665 11.7855ZM21.1382 10.3716H25.6283V11.7855H21.1382V10.3716ZM10.3717 10.3716H14.8618V11.7855H10.3717V10.3716ZM28.7044 25.6282H7.29557V13.4478H28.7044V25.6282Z" fill="black"/>
<path d="M20.6913 20.4044H22.5534V22.2665C22.5534 22.385 22.6005 22.4987 22.6843 22.5825C22.7681 22.6663 22.8818 22.7134 23.0003 22.7134H23.7687C23.8872 22.7134 24.0009 22.6663 24.0847 22.5825C24.1685 22.4987 24.2156 22.385 24.2156 22.2665V20.4044H26.0777C26.1962 20.4044 26.3099 20.3573 26.3937 20.2735C26.4775 20.1897 26.5246 20.076 26.5246 19.9575V19.1891C26.5246 19.0706 26.4775 18.9569 26.3937 18.8731C26.3099 18.7893 26.1962 18.7422 26.0777 18.7422H24.2156V16.8826C24.2156 16.7641 24.1685 16.6504 24.0847 16.5666C24.0009 16.4828 23.8872 16.4357 23.7687 16.4357H23.0003C22.8818 16.4357 22.7681 16.4828 22.6843 16.5666C22.6005 16.6504 22.5534 16.7641 22.5534 16.8826V18.7447H20.6913C20.573 18.745 20.4597 18.7923 20.3761 18.876C20.2926 18.9598 20.2457 19.0733 20.2457 19.1916V19.96C20.2463 20.0779 20.2935 20.1907 20.377 20.274C20.4605 20.3572 20.5734 20.4041 20.6913 20.4044Z" fill="black"/>
<path d="M15.3075 18.7424H9.92486C9.67805 18.7424 9.47797 18.9425 9.47797 19.1893V19.9577C9.47797 20.2046 9.67805 20.4046 9.92486 20.4046H15.3075C15.5543 20.4046 15.7544 20.2046 15.7544 19.9577V19.1893C15.7544 18.9425 15.5543 18.7424 15.3075 18.7424Z" fill="black"/>
</svg>
