<svg width="36" height="36" viewBox="0 0 36 36" fill="none" xmlns="http://www.w3.org/2000/svg">
<path d="M31.5595 11.6355C30.9277 10.0477 27.7237 9.77339 26.0466 10.4388L21.0239 12.4374L13.1511 6.1647C13.0325 6.07118 12.8914 6.01047 12.7419 5.98869C12.5925 5.9669 12.4399 5.98479 12.2995 6.04057L8.37801 7.59974C8.25459 7.64856 8.14421 7.72543 8.05563 7.82428C7.96705 7.92313 7.90269 8.04124 7.86764 8.16926C7.83259 8.29728 7.82782 8.4317 7.85371 8.56189C7.87959 8.69207 7.93542 8.81445 8.01677 8.91932L13.1486 15.5731L10.466 16.6407L7.57236 14.8717C7.45865 14.8024 7.33043 14.7604 7.19775 14.749C7.06507 14.7376 6.93154 14.7571 6.80767 14.8059L4.32491 15.799C4.20405 15.848 4.09592 15.9239 4.00873 16.0209C3.92154 16.1178 3.85757 16.2334 3.82168 16.3588C3.78579 16.4842 3.77892 16.6161 3.80159 16.7445C3.82425 16.8729 3.87586 16.9945 3.9525 17.1L7.24463 21.3207L7.75484 26.6524C7.77205 26.7815 7.81847 26.905 7.89058 27.0135C7.96269 27.122 8.05859 27.2126 8.17098 27.2784C8.28337 27.3442 8.40929 27.3836 8.53917 27.3934C8.66905 27.4032 8.79947 27.3833 8.9205 27.3352L11.4033 26.3421C11.5266 26.2922 11.6369 26.2147 11.7256 26.1155C11.8143 26.0163 11.879 25.898 11.9147 25.7698L12.8023 22.4951L15.4837 21.4262L16.3278 29.7869C16.3495 29.998 16.4485 30.1936 16.6057 30.3361C16.7629 30.4786 16.9672 30.558 17.1794 30.5591C17.2883 30.5586 17.3961 30.5376 17.4972 30.497L21.4199 28.9366C21.56 28.8802 21.6828 28.7881 21.7761 28.6694C21.8693 28.5506 21.9297 28.4095 21.9513 28.26L23.359 18.2917L28.3816 16.2931C30.0537 15.6253 32.1902 13.2219 31.5595 11.6355ZM27.7423 14.6992L21.7948 17.0665L20.3188 27.5264L17.9155 28.4835L16.9572 18.9931L11.371 21.2202L10.3779 24.9083L9.3525 25.3155L8.91057 20.6839V20.6578L6.01815 16.9659L7.04229 16.5588L10.3034 18.5512L15.8958 16.3254L10.0688 8.77284L12.4721 7.8207L20.6913 14.3702L20.7335 14.4037L26.6809 12.0364C27.8391 11.5759 29.7285 11.9123 29.9631 12.271C30.0413 12.6869 28.903 14.2374 27.7423 14.6992Z" fill="black"/>
</svg>
