<svg width="36" height="36" viewBox="0 0 36 36" fill="none" xmlns="http://www.w3.org/2000/svg">
<path d="M29.1725 19.1818H21.8235V15.1846C21.8235 15.0594 21.7738 14.9395 21.6853 14.851C21.5969 14.7625 21.4769 14.7128 21.3518 14.7128H20.6069C20.4818 14.7128 20.3618 14.7625 20.2734 14.851C20.1849 14.9395 20.1352 15.0594 20.1352 15.1846V19.1818H6.82763C6.20887 19.1825 5.61564 19.4286 5.17811 19.8661C4.74058 20.3036 4.49449 20.8968 4.49384 21.5156V25.9846C4.49449 26.6033 4.74058 27.1966 5.17811 27.6341C5.61564 28.0716 6.20887 28.3177 6.82763 28.3184H29.1725C29.7912 28.3177 30.3844 28.0716 30.822 27.6341C31.2595 27.1966 31.5056 26.6033 31.5063 25.9846V21.5156C31.5056 20.8968 31.2595 20.3036 30.822 19.8661C30.3844 19.4286 29.7912 19.1825 29.1725 19.1818ZM29.818 25.9846C29.818 26.1558 29.75 26.32 29.6289 26.441C29.5079 26.5621 29.3437 26.6301 29.1725 26.6301H6.82763C6.65643 26.6301 6.49224 26.5621 6.37118 26.441C6.25012 26.32 6.18211 26.1558 6.18211 25.9846V21.5156C6.18211 21.3444 6.25012 21.1802 6.37118 21.0592C6.49224 20.9381 6.65643 20.8701 6.82763 20.8701H29.1725C29.3437 20.8701 29.5079 20.9381 29.6289 21.0592C29.75 21.1802 29.818 21.3444 29.818 21.5156V25.9846Z" fill="black"/>
<path d="M9.43454 24.9667C10.1064 24.9667 10.6511 24.422 10.6511 23.7501C10.6511 23.0782 10.1064 22.5336 9.43454 22.5336C8.76266 22.5336 8.21799 23.0782 8.21799 23.7501C8.21799 24.422 8.76266 24.9667 9.43454 24.9667Z" fill="black"/>
<path d="M13.1587 24.9667C13.8306 24.9667 14.3752 24.422 14.3752 23.7501C14.3752 23.0782 13.8306 22.5336 13.1587 22.5336C12.4868 22.5336 11.9421 23.0782 11.9421 23.7501C11.9421 24.422 12.4868 24.9667 13.1587 24.9667Z" fill="black"/>
<path d="M13.6092 8.79027C13.7219 8.89824 13.872 8.95851 14.0282 8.95851C14.1843 8.95851 14.3344 8.89824 14.4471 8.79027C16.2289 7.14952 18.5645 6.24197 20.9867 6.24917C23.4103 6.24224 25.7469 7.1512 27.5288 8.794C27.631 8.88998 27.7635 8.94742 27.9034 8.95647C28.0434 8.96553 28.1822 8.92565 28.2959 8.84365C28.3203 8.82667 28.3432 8.80756 28.3642 8.78655L28.8446 8.31731C28.8994 8.2601 28.9423 8.19261 28.9709 8.11873C28.9994 8.04484 29.0131 7.96604 29.011 7.88686C29.0089 7.80767 28.9912 7.72969 28.9588 7.65741C28.9264 7.58512 28.88 7.51997 28.8223 7.46572C26.6911 5.49209 23.8914 4.39915 20.9867 4.40696C18.0849 4.39987 15.288 5.49184 13.1586 7.46324L13.1399 7.48062C13.0847 7.53718 13.0411 7.60407 13.0117 7.67748C12.9822 7.7509 12.9676 7.82939 12.9685 7.90847C12.9694 7.98755 12.9859 8.06568 13.017 8.13838C13.0481 8.21109 13.0933 8.27695 13.1499 8.3322L13.6092 8.79027Z" fill="black"/>
<path d="M15.9505 10.8521L15.9245 10.8769C15.8135 10.992 15.7527 11.1464 15.7553 11.3062C15.7578 11.466 15.8236 11.6183 15.9381 11.7298L16.3999 12.1829C16.4105 12.1927 16.4217 12.2018 16.4334 12.2102C16.5472 12.3026 16.69 12.3519 16.8365 12.3491C16.983 12.3464 17.1239 12.2919 17.2341 12.1953C18.274 11.2825 19.61 10.7783 20.9936 10.7765C22.3773 10.7747 23.7146 11.2753 24.7569 12.1854C24.8604 12.2783 24.9927 12.3329 25.1316 12.3401C25.2705 12.3474 25.4077 12.3068 25.5203 12.2251C25.5434 12.2082 25.5653 12.19 25.5861 12.1705L26.0517 11.7112L26.0752 11.6863C26.1826 11.5692 26.2392 11.4143 26.2324 11.2556C26.2257 11.0968 26.1562 10.9473 26.0392 10.8397C24.6483 9.60513 22.8524 8.92435 20.9925 8.92664C19.1327 8.92893 17.3385 9.61413 15.9505 10.8521Z" fill="black"/>
</svg>
