<svg width="36" height="36" viewBox="0 0 36 36" fill="none" xmlns="http://www.w3.org/2000/svg">
<path d="M20.8862 23.4509H19.116C18.9631 23.4509 18.8391 23.5749 18.8391 23.7278V25.498C18.8391 25.6508 18.9631 25.7748 19.116 25.7748H20.8862C21.039 25.7748 21.163 25.6508 21.163 25.498V23.7278C21.163 23.5749 21.039 23.4509 20.8862 23.4509Z" fill="black"/>
<path d="M26.0243 23.0424L25.9361 23.1542L26.0205 23.0387L18.6691 17.1124C18.4216 16.9132 18.1135 16.8046 17.7958 16.8046C17.4781 16.8046 17.17 16.9132 16.9225 17.1124L12.8048 20.433V19.2004C12.8048 18.8664 12.6211 18.5946 12.2872 18.5946H11.6665C11.3326 18.5946 11.1501 18.8664 11.1501 19.2004V21.7725L9.55862 23.0499C9.44594 23.1465 9.37435 23.2825 9.35844 23.4302C9.34252 23.5778 9.38348 23.7259 9.47296 23.8444L9.87765 24.3409C9.9736 24.4585 10.1122 24.5334 10.2631 24.5492C10.414 24.565 10.5651 24.5205 10.6833 24.4253L11.1463 24.0529V31.0667C11.1457 31.176 11.1666 31.2844 11.2079 31.3857C11.2491 31.4869 11.31 31.579 11.3869 31.6567C11.4638 31.7344 11.5552 31.7962 11.6561 31.8385C11.7569 31.8809 11.865 31.9029 11.9743 31.9034H23.6172C23.8374 31.9031 24.0484 31.8155 24.2041 31.6598C24.3598 31.5041 24.4474 31.2931 24.4477 31.0729V24.0517L24.9157 24.4241C25.0344 24.5154 25.184 24.5569 25.3328 24.5397C25.4816 24.5226 25.6179 24.4481 25.7127 24.3322L26.1137 23.8357C26.2056 23.7181 26.2478 23.5691 26.2311 23.4208C26.2144 23.2724 26.1401 23.1366 26.0243 23.0424ZM22.7868 30.2424H12.8048V22.7172L17.7977 18.6914L22.7868 22.7172V30.2424Z" fill="black"/>
<path d="M26.0764 14.678C26.0334 14.6777 25.9909 14.6874 25.9523 14.7066L25.0833 15.141C25.0353 15.1655 24.9956 15.2036 24.9691 15.2506C24.9426 15.2975 24.9305 15.3512 24.9344 15.405C24.9382 15.4587 24.9578 15.5102 24.9907 15.5529C25.0236 15.5955 25.0683 15.6276 25.1193 15.645C25.1881 15.6675 25.263 15.6622 25.3279 15.6301L26.1968 15.1957C26.2298 15.1797 26.2591 15.1573 26.2833 15.1298C26.3074 15.1023 26.3258 15.0703 26.3373 15.0356C26.3489 15.0009 26.3534 14.9642 26.3506 14.9278C26.3478 14.8913 26.3377 14.8558 26.321 14.8232C26.2976 14.7788 26.2624 14.7417 26.2192 14.7161C26.1761 14.6905 26.1266 14.6773 26.0764 14.678Z" fill="black"/>
<path d="M26.1993 11.2333L25.3304 10.7988C25.2655 10.7667 25.1906 10.7613 25.1218 10.7839C25.0875 10.7956 25.0558 10.814 25.0288 10.8381C25.0017 10.8622 24.9797 10.8915 24.9642 10.9242C24.9473 10.9567 24.937 10.9923 24.9341 11.0288C24.9312 11.0653 24.9357 11.102 24.9473 11.1367C24.9589 11.1715 24.9773 11.2035 25.0016 11.231C25.0258 11.2585 25.0553 11.2808 25.0883 11.2966L25.9573 11.7299C25.996 11.7488 26.0383 11.759 26.0814 11.7597C26.143 11.7596 26.2029 11.7388 26.2512 11.7006C26.2996 11.6625 26.3337 11.6091 26.348 11.5492C26.3624 11.4892 26.3561 11.4262 26.3303 11.3703C26.3044 11.3143 26.2605 11.2687 26.2056 11.2408L26.1993 11.2333Z" fill="black"/>
<path d="M24.7742 13.4886H25.6432C25.6807 13.4911 25.7183 13.4859 25.7537 13.4733C25.7891 13.4607 25.8215 13.441 25.849 13.4153C25.8764 13.3896 25.8983 13.3586 25.9133 13.3241C25.9283 13.2897 25.936 13.2525 25.936 13.2149C25.936 13.1773 25.9283 13.1401 25.9133 13.1057C25.8983 13.0712 25.8764 13.0402 25.849 13.0145C25.8215 12.9888 25.7891 12.9691 25.7537 12.9565C25.7183 12.9439 25.6807 12.9386 25.6432 12.9412H24.7742C24.7048 12.9458 24.6398 12.9767 24.5923 13.0275C24.5447 13.0784 24.5183 13.1453 24.5183 13.2149C24.5183 13.2845 24.5447 13.3514 24.5923 13.4023C24.6398 13.4531 24.7048 13.4839 24.7742 13.4886Z" fill="black"/>
<path d="M31.721 11.7522C31.764 11.7515 31.8064 11.7414 31.8451 11.7224L32.7141 11.2892C32.7788 11.2564 32.8279 11.1992 32.8506 11.1303C32.8625 11.0963 32.8672 11.0603 32.8647 11.0245C32.8621 10.9886 32.8523 10.9537 32.8357 10.9217C32.8199 10.8894 32.7978 10.8606 32.7708 10.837C32.7437 10.8133 32.7122 10.7953 32.6781 10.7839C32.6093 10.7613 32.5344 10.7667 32.4695 10.7988L31.6006 11.2333C31.5677 11.2493 31.5383 11.2717 31.5141 11.2992C31.49 11.3267 31.4716 11.3587 31.4601 11.3934C31.4485 11.4281 31.444 11.4647 31.4468 11.5012C31.4496 11.5377 31.4597 11.5732 31.4764 11.6057C31.4996 11.6504 31.5348 11.6877 31.578 11.7136C31.6211 11.7395 31.6706 11.7528 31.721 11.7522Z" fill="black"/>
<path d="M33.0207 12.9413H32.1517C32.0823 12.946 32.0173 12.9768 31.9698 13.0277C31.9223 13.0785 31.8958 13.1454 31.8958 13.215C31.8958 13.2846 31.9223 13.3515 31.9698 13.4024C32.0173 13.4532 32.0823 13.4841 32.1517 13.4887H33.0207C33.0901 13.4841 33.1552 13.4532 33.2027 13.4024C33.2502 13.3515 33.2766 13.2846 33.2766 13.215C33.2766 13.1454 33.2502 13.0785 33.2027 13.0277C33.1552 12.9768 33.0901 12.946 33.0207 12.9413Z" fill="black"/>
<path d="M32.7116 15.1447L31.8427 14.7102C31.7943 14.686 31.7398 14.6766 31.6861 14.6834C31.6324 14.6902 31.582 14.7128 31.5411 14.7483C31.5003 14.7838 31.4709 14.8307 31.4568 14.8829C31.4426 14.9351 31.4443 14.9904 31.4616 15.0416C31.4724 15.0758 31.4902 15.1074 31.5136 15.1345C31.5371 15.1616 31.5658 15.1837 31.5981 15.1993L32.4671 15.6338C32.5055 15.6534 32.5481 15.6632 32.5912 15.6623C32.6207 15.6627 32.6501 15.6581 32.6781 15.6487C32.7122 15.6373 32.7437 15.6193 32.7708 15.5956C32.7979 15.572 32.82 15.5432 32.8358 15.5109C32.8523 15.479 32.8621 15.444 32.8647 15.4081C32.8673 15.3723 32.8625 15.3363 32.8507 15.3023C32.8393 15.268 32.8211 15.2364 32.7972 15.2093C32.7733 15.1822 32.7442 15.1602 32.7116 15.1447Z" fill="black"/>
<path d="M30.5093 11.3748C30.0627 10.9839 29.4891 10.769 28.8955 10.7702C28.5757 10.7679 28.2586 10.8292 27.9626 10.9504C27.6666 11.0717 27.3976 11.2505 27.1713 11.4765C26.7126 11.939 26.454 12.5632 26.4513 13.2145C26.4516 13.8073 26.6689 14.3796 27.062 14.8233C27.3997 15.2069 27.7274 15.84 27.7597 16.0411V17.0566C27.7596 17.1105 27.7756 17.1632 27.8056 17.208L28.1383 17.7046C28.1629 17.7425 28.1965 17.7737 28.2362 17.7954C28.2758 17.8171 28.3203 17.8285 28.3655 17.8287H29.4355C29.4809 17.8286 29.5256 17.8172 29.5655 17.7955C29.6054 17.7739 29.6392 17.7426 29.664 17.7046L29.9967 17.208C30.0257 17.1628 30.0417 17.1103 30.0426 17.0566V16.0411C30.0749 15.84 30.4038 15.2069 30.7402 14.8233C31.1672 14.3357 31.3829 13.6984 31.3401 13.0517C31.2972 12.405 30.9993 11.8018 30.5118 11.3748H30.5093ZM27.9496 13.2952C27.9449 13.3646 27.9141 13.4296 27.8632 13.4771C27.8124 13.5246 27.7455 13.5511 27.6759 13.5511C27.6063 13.5511 27.5394 13.5246 27.4885 13.4771C27.4377 13.4296 27.4068 13.3646 27.4022 13.2952C27.4035 12.8774 27.57 12.4772 27.8654 12.1818C28.1607 11.8864 28.561 11.7199 28.9787 11.7186C29.0481 11.7233 29.1132 11.7542 29.1607 11.805C29.2082 11.8558 29.2346 11.9228 29.2346 11.9923C29.2346 12.0619 29.2082 12.1289 29.1607 12.1797C29.1132 12.2305 29.0481 12.2614 28.9787 12.2661C28.706 12.2667 28.4446 12.3754 28.2518 12.5682C28.0589 12.7611 27.9503 13.0224 27.9496 13.2952ZM29.4927 16.9734L29.2866 17.2825H28.5095L28.3034 16.9734V16.961H29.4914L29.4927 16.9734ZM29.4927 16.4148H28.3034V16.0932H29.4939L29.4927 16.4148Z" fill="black"/>
<path d="M8.48731 13.5011H8.33462C8.33462 13.5011 8.34579 12.9797 8.33462 12.688C8.31943 12.4025 8.26812 12.1202 8.18193 11.8476C8.04522 11.4802 7.81854 11.153 7.52265 10.8959C7.22676 10.6388 6.87111 10.46 6.48824 10.3759C6.10538 10.2918 5.70753 10.305 5.33112 10.4145C4.95471 10.5239 4.61176 10.726 4.33365 11.0022C4.09343 11.2419 3.9072 11.5301 3.78745 11.8476C3.78745 11.8476 3.64841 12.0959 3.64096 12.6669V13.5011H3.48455C3.38495 13.501 3.28628 13.5204 3.1942 13.5584C3.10211 13.5963 3.01841 13.6521 2.94786 13.7224C2.87731 13.7927 2.82131 13.8762 2.78304 13.9682C2.74477 14.0602 2.72499 14.1588 2.72483 14.2584V16.9894C2.7245 17.0894 2.74391 17.1884 2.78194 17.2809C2.81998 17.3733 2.87589 17.4574 2.94647 17.5282C3.01704 17.599 3.10091 17.6552 3.19324 17.6935C3.28558 17.7319 3.38457 17.7516 3.48455 17.7516H8.48731C8.68826 17.7513 8.88086 17.6712 9.02284 17.529C9.16481 17.3868 9.24455 17.1941 9.24455 16.9931V14.2621C9.24488 14.1624 9.22554 14.0636 9.18765 13.9713C9.14976 13.8791 9.09405 13.7953 9.02372 13.7246C8.95338 13.6539 8.8698 13.5978 8.77776 13.5594C8.68572 13.5211 8.58702 13.5013 8.48731 13.5011ZM6.30497 15.8597V16.149C6.30767 16.192 6.30153 16.235 6.28694 16.2756C6.27235 16.3161 6.2496 16.3532 6.22012 16.3846C6.19063 16.416 6.15503 16.441 6.11549 16.4581C6.07596 16.4752 6.03335 16.4841 5.99028 16.4841C5.9472 16.4841 5.90459 16.4752 5.86506 16.4581C5.82553 16.441 5.78992 16.416 5.76043 16.3846C5.73095 16.3532 5.7082 16.3161 5.69361 16.2756C5.67902 16.235 5.67288 16.192 5.67559 16.149V15.8597C5.57012 15.7918 5.48949 15.6915 5.44575 15.5739C5.40202 15.4563 5.39752 15.3277 5.43294 15.2074C5.46836 15.087 5.5418 14.9813 5.64226 14.9062C5.74272 14.831 5.86481 14.7904 5.99028 14.7904C6.11574 14.7904 6.23783 14.831 6.33829 14.9062C6.43875 14.9813 6.51219 15.087 6.54761 15.2074C6.58303 15.3277 6.57853 15.4563 6.5348 15.5739C6.49106 15.6915 6.41043 15.7918 6.30497 15.8597ZM7.73007 13.5011H4.24179V12.6619C4.24179 12.1994 4.42555 11.7557 4.75264 11.4287C5.07973 11.1016 5.52336 10.9178 5.98593 10.9178C6.4485 10.9178 6.89213 11.1016 7.21922 11.4287C7.54631 11.7557 7.73007 12.1994 7.73007 12.6619V13.5011Z" fill="black"/>
<path d="M13.5435 8.63377L14.6756 9.39101L14.4112 10.7255C14.4034 10.7666 14.4057 10.8091 14.4181 10.8491C14.4304 10.8891 14.4523 10.9255 14.4819 10.9552C14.5115 10.9848 14.548 11.0067 14.588 11.019C14.628 11.0314 14.6704 11.0337 14.7116 11.0259L16.0448 10.7615L16.8021 11.8936C16.8254 11.9285 16.857 11.9571 16.894 11.9768C16.9311 11.9965 16.9724 12.0067 17.0144 12.0066C17.0565 12.0066 17.0979 11.9963 17.1351 11.9766C17.1724 11.9569 17.2042 11.9284 17.2279 11.8936L17.9851 10.7615L18.4444 10.8521C18.4444 10.8956 18.437 10.9378 18.437 10.9762C18.4364 11.2704 18.5081 11.5601 18.646 11.82C18.7838 12.0798 18.9834 12.3017 19.2273 12.4662C19.4712 12.6306 19.7517 12.7325 20.0443 12.7629C20.3369 12.7933 20.6324 12.7513 20.9048 12.6405C21.1773 12.5296 21.4183 12.3535 21.6066 12.1275C21.7949 11.9016 21.9247 11.6328 21.9846 11.3448C22.0444 11.0568 22.0325 10.7585 21.9498 10.4763C21.8672 10.194 21.7164 9.93639 21.5106 9.72618V5.86053C21.516 5.68902 21.4868 5.51818 21.4249 5.35816C21.3629 5.19814 21.2694 5.05219 21.15 4.92899C21.0306 4.80578 20.8876 4.70782 20.7296 4.64092C20.5716 4.57402 20.4017 4.53955 20.2301 4.53955C20.0586 4.53955 19.8887 4.57402 19.7307 4.64092C19.5727 4.70782 19.4297 4.80578 19.3103 4.92899C19.1908 5.05219 19.0974 5.19814 19.0354 5.35816C18.9735 5.51818 18.9443 5.68902 18.9497 5.86053V5.88908L17.9851 6.08273L17.2279 4.9506C17.2031 4.91746 17.171 4.89056 17.1341 4.87202C17.0971 4.85349 17.0563 4.84384 17.015 4.84384C16.9736 4.84384 16.9329 4.85349 16.8959 4.87202C16.8589 4.89056 16.8268 4.91746 16.8021 4.9506L16.0448 6.08273L14.7116 5.81708C14.6706 5.80832 14.628 5.8101 14.5878 5.82225C14.5477 5.83441 14.5112 5.85655 14.4819 5.8866C14.4522 5.9164 14.4302 5.95302 14.4179 5.99326C14.4056 6.03351 14.4033 6.07615 14.4112 6.11749L14.6756 7.44825L13.5435 8.20549C13.5086 8.22903 13.4801 8.26074 13.4604 8.29786C13.4407 8.33498 13.4304 8.37636 13.4304 8.41839C13.4304 8.46042 13.4407 8.5018 13.4604 8.53892C13.4801 8.57604 13.5086 8.60775 13.5435 8.63128V8.63377ZM19.9217 10.4276V5.92756C19.9265 5.85268 19.9597 5.78245 20.0145 5.73113C20.0692 5.67981 20.1414 5.65126 20.2165 5.65126C20.2915 5.65126 20.3638 5.67981 20.4185 5.73113C20.4733 5.78245 20.5065 5.85268 20.5113 5.92756V10.4127C20.649 10.4758 20.7612 10.5838 20.8297 10.7189C20.8981 10.854 20.9188 11.0084 20.8883 11.1567C20.8579 11.3051 20.7781 11.4388 20.6619 11.536C20.5457 11.6332 20.4001 11.6882 20.2486 11.692C20.0972 11.6959 19.9489 11.6483 19.828 11.5571C19.7071 11.4659 19.6206 11.3364 19.5827 11.1897C19.5448 11.0431 19.5576 10.8879 19.6192 10.7495C19.6808 10.6111 19.7874 10.4976 19.9217 10.4276ZM17.1037 7.16894C17.3512 7.16894 17.5931 7.24233 17.7989 7.37982C18.0047 7.51732 18.1651 7.71275 18.2598 7.94139C18.3545 8.17004 18.3793 8.42164 18.331 8.66437C18.2827 8.9071 18.1635 9.13006 17.9885 9.30506C17.8135 9.48006 17.5906 9.59923 17.3479 9.64752C17.1051 9.6958 16.8535 9.67102 16.6249 9.57631C16.3962 9.4816 16.2008 9.32122 16.0633 9.11544C15.9258 8.90966 15.8524 8.66774 15.8524 8.42025C15.8531 8.08858 15.9851 7.77069 16.2196 7.53617C16.4542 7.30164 16.7721 7.1696 17.1037 7.16894Z" fill="black"/>
</svg>
