<svg width="36" height="36" viewBox="0 0 36 36" fill="none" xmlns="http://www.w3.org/2000/svg">
<path d="M26.0083 14.1318H20.3501C20.0594 14.1318 19.8237 14.3675 19.8237 14.6582V15.3509C19.8237 15.6416 20.0594 15.8772 20.3501 15.8772H26.0083C26.299 15.8772 26.5346 15.6416 26.5346 15.3509V14.6582C26.5346 14.3675 26.299 14.1318 26.0083 14.1318Z" fill="black"/>
<path d="M26.0083 17.3956H20.3501C20.0594 17.3956 19.8237 17.6313 19.8237 17.922V18.6147C19.8237 18.9054 20.0594 19.141 20.3501 19.141H26.0083C26.299 19.141 26.5346 18.9054 26.5346 18.6147V17.922C26.5346 17.6313 26.299 17.3956 26.0083 17.3956Z" fill="black"/>
<path d="M26.0083 20.6592H20.3501C20.0594 20.6592 19.8237 20.8948 19.8237 21.1855V21.8782C19.8237 22.1689 20.0594 22.4046 20.3501 22.4046H26.0083C26.299 22.4046 26.5346 22.1689 26.5346 21.8782V21.1855C26.5346 20.8948 26.299 20.6592 26.0083 20.6592Z" fill="black"/>
<path d="M27.7089 8.14319H8.29123C7.51651 8.14417 6.77381 8.45236 6.226 9.00017C5.67819 9.54798 5.37 10.2907 5.36902 11.0654V24.9341C5.37 25.7088 5.67819 26.4515 6.226 26.9993C6.77381 27.5471 7.51651 27.8553 8.29123 27.8563H27.7089C28.4836 27.8553 29.2263 27.5471 29.7741 26.9993C30.3219 26.4515 30.6301 25.7088 30.6311 24.9341V11.0654C30.6301 10.2907 30.3219 9.54798 29.7741 9.00017C29.2263 8.45236 28.4836 8.14417 27.7089 8.14319ZM28.9503 24.9341C28.9503 25.2633 28.8195 25.5791 28.5867 25.8119C28.3539 26.0447 28.0381 26.1755 27.7089 26.1755H8.29123C7.96199 26.1755 7.64624 26.0447 7.41344 25.8119C7.18063 25.5791 7.04985 25.2633 7.04985 24.9341V11.0654C7.04985 10.7362 7.18063 10.4204 7.41344 10.1876C7.64624 9.9548 7.96199 9.82402 8.29123 9.82402H27.7089C28.0381 9.82402 28.3539 9.9548 28.5867 10.1876C28.8195 10.4204 28.9503 10.7362 28.9503 11.0654V24.9341Z" fill="black"/>
<path d="M12.2028 17.5929C12.3195 17.6759 12.4443 17.747 12.5752 17.8052C12.653 17.8409 12.733 17.8716 12.8148 17.8971C13.0979 17.9846 13.3956 18.015 13.6905 17.9865C13.9855 17.9579 14.2718 17.871 14.5329 17.7307C14.6073 17.6897 14.6806 17.6451 14.7513 17.5966C15.1323 17.3265 15.4174 16.9423 15.5656 16.4994C15.7137 16.0566 15.7172 15.5781 15.5755 15.1332C15.4337 14.6882 15.1541 14.2999 14.7771 14.0243C14.4002 13.7487 13.9453 13.6002 13.4783 13.6002C13.0113 13.6002 12.5565 13.7487 12.1795 14.0243C11.8025 14.2999 11.5229 14.6882 11.3812 15.1332C11.2394 15.5781 11.2429 16.0566 11.391 16.4994C11.5392 16.9423 11.8243 17.3265 12.2053 17.5966L12.2028 17.5929Z" fill="black"/>
<path d="M15.0269 18.3031C14.5637 18.5839 14.0324 18.7324 13.4907 18.7324C12.949 18.7324 12.4177 18.5839 11.9545 18.3031C10.5269 18.889 9.55865 20.0894 9.45437 21.774C9.43079 22.1365 9.82679 22.4034 10.1868 22.3947H16.7003C17.0951 22.3947 17.5134 22.103 17.4861 21.7653C17.4873 20.2111 16.4384 18.8692 15.0269 18.3031Z" fill="black"/>
</svg>
