<svg width="36" height="36" viewBox="0 0 36 36" fill="none" xmlns="http://www.w3.org/2000/svg">
<path d="M27.7833 26.4182H26.6747V11.5775C26.6747 11.2482 26.5439 10.9325 26.3111 10.6997C26.0783 10.4669 25.7626 10.3361 25.4334 10.3361H24.5756V9.4485C24.7167 9.41448 24.8423 9.33397 24.9321 9.21992C25.022 9.10587 25.0708 8.96492 25.0708 8.81974C25.0708 8.67456 25.022 8.5336 24.9321 8.41955C24.8423 8.3055 24.7167 8.22499 24.5756 8.19098V7.47346C24.7167 7.43945 24.8423 7.35894 24.9321 7.24489C25.022 7.13084 25.0708 6.98988 25.0708 6.8447C25.0708 6.69952 25.022 6.55857 24.9321 6.44452C24.8423 6.33047 24.7167 6.24996 24.5756 6.21595V5.85719C24.5756 5.42359 24.4033 5.00774 24.0967 4.70114C23.7901 4.39454 23.3743 4.22229 22.9407 4.22229C22.5071 4.22229 22.0912 4.39454 21.7846 4.70114C21.478 5.00774 21.3058 5.42359 21.3058 5.85719V6.21595C21.1655 6.25092 21.0409 6.33181 20.9519 6.44574C20.8629 6.55968 20.8145 6.70011 20.8145 6.8447C20.8145 6.98929 20.8629 7.12973 20.9519 7.24366C21.0409 7.3576 21.1655 7.43849 21.3058 7.47346V8.19346C21.1655 8.22844 21.0409 8.30933 20.9519 8.42326C20.8629 8.5372 20.8145 8.67763 20.8145 8.82222C20.8145 8.96681 20.8629 9.10725 20.9519 9.22118C21.0409 9.33512 21.1655 9.41601 21.3058 9.45098V10.3361H19.6349V9.4485C19.7752 9.41352 19.8997 9.33263 19.9888 9.2187C20.0778 9.10476 20.1261 8.96433 20.1261 8.81974C20.1261 8.67515 20.0778 8.53471 19.9888 8.42078C19.8997 8.30684 19.7752 8.22595 19.6349 8.19098V7.47346C19.7752 7.43849 19.8997 7.3576 19.9888 7.24366C20.0778 7.12973 20.1261 6.98929 20.1261 6.8447C20.1261 6.70011 20.0778 6.55968 19.9888 6.44574C19.8997 6.33181 19.7752 6.25092 19.6349 6.21595V5.85719C19.6349 5.42359 19.4626 5.00774 19.156 4.70114C18.8494 4.39454 18.4336 4.22229 18 4.22229C17.5664 4.22229 17.1505 4.39454 16.8439 4.70114C16.5373 5.00774 16.3651 5.42359 16.3651 5.85719V6.21595C16.2248 6.25092 16.1002 6.33181 16.0112 6.44574C15.9222 6.55968 15.8738 6.70011 15.8738 6.8447C15.8738 6.98929 15.9222 7.12973 16.0112 7.24366C16.1002 7.3576 16.2248 7.43849 16.3651 7.47346V8.19346C16.2242 8.22798 16.099 8.30876 16.0095 8.42286C15.92 8.53697 15.8713 8.67781 15.8713 8.82284C15.8713 8.96787 15.92 9.10871 16.0095 9.22282C16.099 9.33693 16.2242 9.4177 16.3651 9.45222V10.3373H14.6979V9.4485C14.8382 9.41352 14.9628 9.33263 15.0518 9.2187C15.1408 9.10476 15.1892 8.96433 15.1892 8.81974C15.1892 8.67515 15.1408 8.53471 15.0518 8.42078C14.9628 8.30684 14.8382 8.22595 14.6979 8.19098V7.47346C14.8382 7.43849 14.9628 7.3576 15.0518 7.24366C15.1408 7.12973 15.1892 6.98929 15.1892 6.8447C15.1892 6.70011 15.1408 6.55968 15.0518 6.44574C14.9628 6.33181 14.8382 6.25092 14.6979 6.21595V5.85719C14.6979 5.42359 14.5257 5.00774 14.2191 4.70114C13.9125 4.39454 13.4966 4.22229 13.063 4.22229C12.6294 4.22229 12.2136 4.39454 11.907 4.70114C11.6004 5.00774 11.4281 5.42359 11.4281 5.85719V6.21595C11.2878 6.25092 11.1632 6.33181 11.0742 6.44574C10.9852 6.55968 10.9369 6.70011 10.9369 6.8447C10.9369 6.98929 10.9852 7.12973 11.0742 7.24366C11.1632 7.3576 11.2878 7.43849 11.4281 7.47346V8.19346C11.2878 8.22844 11.1632 8.30933 11.0742 8.42326C10.9852 8.5372 10.9369 8.67763 10.9369 8.82222C10.9369 8.96681 10.9852 9.10725 11.0742 9.22118C11.1632 9.33512 11.2878 9.41601 11.4281 9.45098V10.3361H10.5703C10.2411 10.3361 9.92534 10.4669 9.69253 10.6997C9.45973 10.9325 9.32894 11.2482 9.32894 11.5775V26.4182H8.21667C8.07454 26.4185 7.93832 26.4751 7.83782 26.5756C7.73732 26.6761 7.68072 26.8123 7.68039 26.9544V27.6198C7.68072 27.7619 7.73732 27.8981 7.83782 27.9986C7.93832 28.0991 8.07454 28.1558 8.21667 28.1561H27.7833C27.9254 28.1558 28.0616 28.0991 28.1621 27.9986C28.2626 27.8981 28.3192 27.7619 28.3196 27.6198V26.9544C28.3192 26.8123 28.2626 26.6761 28.1621 26.5756C28.0616 26.4751 27.9254 26.4185 27.7833 26.4182ZM22.5931 5.85719C22.5931 5.76698 22.6289 5.68046 22.6927 5.61667C22.7565 5.55288 22.843 5.51705 22.9332 5.51705C23.0234 5.51705 23.1099 5.55288 23.1737 5.61667C23.2375 5.68046 23.2734 5.76698 23.2734 5.85719V6.19732H22.5931V5.85719ZM22.5931 7.49208H23.2734V8.17236H22.5931V7.49208ZM22.5931 9.46588H23.2734V10.3348H22.5931V9.46588ZM17.6598 5.85719C17.6598 5.76698 17.6957 5.68046 17.7595 5.61667C17.8233 5.55288 17.9098 5.51705 18 5.51705C18.0902 5.51705 18.1767 5.55288 18.2405 5.61667C18.3043 5.68046 18.3401 5.76698 18.3401 5.85719V6.19732H17.6598V5.85719ZM17.6598 7.49208H18.3401V8.17236H17.6598V7.49208ZM17.6598 9.46588H18.3401V10.3348H17.6598V9.46588ZM12.7229 5.85719C12.7229 5.76698 12.7587 5.68046 12.8225 5.61667C12.8863 5.55288 12.9728 5.51705 13.063 5.51705C13.1532 5.51705 13.2397 5.55288 13.3035 5.61667C13.3673 5.68046 13.4031 5.76698 13.4031 5.85719V6.19732H12.7229V5.85719ZM12.7229 7.49208H13.4069V8.17236H12.7266L12.7229 7.49208ZM12.7229 9.46588H13.4069V10.3348H12.7266L12.7229 9.46588ZM24.9356 26.4169H11.0644V12.0728H24.9356V26.4169Z" fill="black"/>
<path d="M15.6215 19.4428H16.7251L15.9219 22.9931C15.9103 23.0393 15.9093 23.0876 15.919 23.1343C15.9287 23.181 15.9487 23.2249 15.9777 23.2627C16.0067 23.3005 16.0439 23.3313 16.0865 23.3528C16.129 23.3742 16.1759 23.3858 16.2236 23.3866C16.2642 23.3859 16.3042 23.3764 16.3408 23.3588C16.3774 23.3413 16.4098 23.316 16.4359 23.2848L20.5982 18.6917C20.6388 18.6465 20.6659 18.5907 20.6765 18.5308C20.687 18.4709 20.6805 18.4092 20.6578 18.3528C20.6378 18.2951 20.6002 18.2452 20.5503 18.21C20.5004 18.1748 20.4407 18.1562 20.3797 18.1567H19.3208L20.0656 15.9532C20.0822 15.9062 20.0878 15.8561 20.082 15.8066C20.0762 15.7571 20.0591 15.7096 20.0321 15.6677C20.0059 15.6254 19.9693 15.5905 19.9259 15.5662C19.8825 15.5419 19.8336 15.529 19.7838 15.5287H16.8045C16.7427 15.5291 16.6826 15.5487 16.6323 15.5847C16.5821 15.6207 16.5443 15.6714 16.524 15.7298L15.3335 19.017C15.3154 19.0639 15.3087 19.1145 15.3139 19.1645C15.319 19.2146 15.336 19.2627 15.3633 19.305C15.3905 19.3485 15.4287 19.3842 15.474 19.4084C15.5193 19.4326 15.5702 19.4444 15.6215 19.4428Z" fill="black"/>
</svg>
