<svg width="36" height="36" viewBox="0 0 36 36" fill="none" xmlns="http://www.w3.org/2000/svg">
<path d="M32.3566 16.1791C32.3563 15.957 32.2679 15.744 32.1108 15.587C31.9538 15.4299 31.7408 15.3415 31.5187 15.3412H28.7566C28.5344 15.3412 28.3213 15.4295 28.1641 15.5866C28.007 15.7437 27.9187 15.9569 27.9187 16.1791V17.6812H25.9772V13.8677C25.9772 13.6454 25.8889 13.4323 25.7318 13.2752C25.5746 13.118 25.3615 13.0297 25.1392 13.0297H22.371V11.5128C22.3703 11.2908 22.2818 11.0782 22.1247 10.9214C21.9677 10.7646 21.755 10.6764 21.533 10.6761H17.7766V9.06228H21.1457C21.1968 9.06715 21.2483 9.06163 21.2971 9.04605C21.346 9.03048 21.3912 9.00517 21.43 8.97166C21.543 8.85621 21.5405 8.62904 21.538 8.36587C21.538 8.31994 21.538 8.27276 21.538 8.22435C21.538 8.17594 21.538 8.13001 21.538 8.08407C21.538 7.8209 21.538 7.58752 21.43 7.47828C21.3913 7.44455 21.3461 7.41902 21.2973 7.40323C21.2484 7.38744 21.1969 7.38172 21.1457 7.38642H12.7317C12.6805 7.38172 12.629 7.38744 12.5801 7.40323C12.5313 7.41902 12.4861 7.44455 12.4474 7.47828C12.3332 7.59373 12.3369 7.8209 12.3394 8.08407C12.3394 8.13001 12.3394 8.17718 12.3394 8.22435C12.3394 8.27152 12.3394 8.31994 12.3394 8.36587C12.3394 8.62904 12.3332 8.86242 12.4474 8.97166C12.4862 9.00517 12.5314 9.03048 12.5803 9.04605C12.6291 9.06163 12.6806 9.06715 12.7317 9.06228H16.1008V10.6761H12.3443C12.1222 10.6764 11.9093 10.7648 11.7522 10.9219C11.5951 11.0789 11.5067 11.2919 11.5064 11.514V13.0347H8.73814C8.51591 13.0347 8.30278 13.123 8.14563 13.2801C7.98849 13.4373 7.90021 13.6504 7.90021 13.8726V18.5216H7.86421C7.82949 18.5193 7.79466 18.5193 7.75993 18.5216H6.21318V14.0526C6.21776 14.0016 6.2121 13.9502 6.19654 13.9013C6.18098 13.8525 6.15582 13.8073 6.12256 13.7684C6.00711 13.6541 5.77993 13.6566 5.51552 13.6604C5.42366 13.6604 5.32559 13.6604 5.23497 13.6604C4.97056 13.6604 4.73842 13.6604 4.62793 13.7684C4.59467 13.8073 4.56951 13.8525 4.55395 13.9013C4.53839 13.9502 4.53273 14.0016 4.53731 14.0526V24.829C4.53262 24.8799 4.53823 24.9312 4.5538 24.9798C4.56937 25.0284 4.59458 25.0734 4.62793 25.1121C4.74338 25.2263 4.97056 25.2238 5.23497 25.2213H5.51552C5.77993 25.2213 6.01207 25.2213 6.12256 25.1121C6.15591 25.0734 6.18112 25.0284 6.19669 24.9798C6.21226 24.9312 6.21787 24.8799 6.21318 24.829V20.1863H7.75993C7.79482 20.1861 7.82965 20.1836 7.86421 20.1788H7.90021V24.9979C7.90021 25.2201 7.98849 25.4332 8.14563 25.5904C8.30278 25.7475 8.51591 25.8358 8.73814 25.8358H12.0092C12.1167 25.8475 12.2225 25.8716 12.3245 25.9078L16.2088 27.6457C16.3165 27.6942 16.4333 27.7191 16.5514 27.719H20.314H20.3252H20.3761H25.1392C25.3615 27.719 25.5746 27.6307 25.7318 27.4735C25.8889 27.3164 25.9772 27.1033 25.9772 26.881V22.849H27.9187V24.397C27.9187 24.6193 28.007 24.8324 28.1641 24.9895C28.3213 25.1467 28.5344 25.235 28.7566 25.235H31.5187C31.7408 25.2346 31.9538 25.1463 32.1108 24.9892C32.2679 24.8321 32.3563 24.6192 32.3566 24.397V16.1791ZM24.3013 26.0406H21.6137C21.5869 26.0389 21.5599 26.0389 21.533 26.0406H16.7289L13.0147 24.3772C12.9874 24.3648 12.9601 24.3499 12.9303 24.335C12.7826 24.2568 12.5815 24.1488 12.0154 24.1587H9.57607V14.7056H12.3443C12.5666 14.7056 12.7797 14.6173 12.9369 14.4602C13.094 14.303 13.1823 14.0899 13.1823 13.8677V12.3507H20.6951V13.8677C20.6951 14.0899 20.7834 14.303 20.9405 14.4602C21.0977 14.6173 21.3108 14.7056 21.533 14.7056H24.3013V26.0406ZM27.9187 21.1732H25.9772V19.357H27.9187V21.1732ZM30.6808 23.5591H29.5946V17.017H30.6808V23.5591Z" fill="black"/>
<path d="M18.8417 18.3138H18L18.5984 16.5511C18.6117 16.5135 18.6161 16.4733 18.6114 16.4337C18.6067 16.3941 18.5929 16.3561 18.5711 16.3227C18.5502 16.2884 18.5208 16.2602 18.4858 16.2406C18.4508 16.221 18.4113 16.2108 18.3712 16.2109H15.9878C15.9383 16.2123 15.8904 16.2283 15.8501 16.2571C15.8099 16.2858 15.7791 16.326 15.7618 16.3723L14.8097 19.0016C14.7954 19.0393 14.7902 19.0799 14.7945 19.12C14.7988 19.1601 14.8125 19.1986 14.8345 19.2325C14.8552 19.2673 14.8847 19.2962 14.9199 19.3162C14.9552 19.3362 14.9951 19.3467 15.0356 19.3467H15.9182L15.2764 22.1869C15.2618 22.2402 15.2653 22.2968 15.2864 22.3479C15.3076 22.3989 15.3451 22.4414 15.3931 22.4687C15.4305 22.4919 15.4733 22.5048 15.5173 22.506C15.5498 22.5051 15.5818 22.4974 15.6111 22.4833C15.6404 22.4692 15.6664 22.449 15.6873 22.424L19.018 18.7446C19.0503 18.7082 19.0719 18.6634 19.0802 18.6154C19.0886 18.5673 19.0833 18.5179 19.0651 18.4727C19.0492 18.4262 19.0191 18.3858 18.979 18.3572C18.9389 18.3287 18.8909 18.3135 18.8417 18.3138Z" fill="black"/>
</svg>
