<svg width="36" height="36" viewBox="0 0 36 36" fill="none" xmlns="http://www.w3.org/2000/svg">
<path d="M5.4745 17.6537V18.5922H3.37161V19.4438H5.35782V20.3822H3.37161V21.3207H5.60609V22.2592H2.35864V17.6537H5.4745Z" fill="black"/>
<path d="M7.75127 17.6537C9.20368 17.6537 10.4302 18.3042 10.4302 19.9564C10.4302 21.42 9.25334 22.2468 7.87665 22.2468H6.18713V17.6537H7.75127ZM7.76493 21.3207C8.66492 21.3207 9.37872 20.9483 9.37872 19.9316C9.37872 19.018 8.65251 18.6046 7.82699 18.6046H7.2001V21.3356H7.76368L7.76493 21.3207Z" fill="black"/>
<path d="M15.1845 18.124L14.4707 18.8999C14.1715 18.5746 13.7954 18.4617 13.3534 18.4617C12.4907 18.4617 11.9147 19.0749 11.9147 19.9389C11.9147 20.8029 12.4907 21.4149 13.3534 21.4149C13.6835 21.4149 14.0091 21.338 14.3043 21.1902V20.4392H13.4788V19.5007H15.2813V21.9027C14.6854 22.2042 14.0249 22.3559 13.3572 22.3447C11.906 22.3695 10.8669 21.431 10.8669 19.955C10.8669 18.479 11.906 17.5393 13.3572 17.5393C14.0337 17.5405 14.6842 17.6783 15.1845 18.124Z" fill="black"/>
<path d="M19.0637 17.6537V18.5922H16.9534V19.4438H18.9396V20.3822H16.9534V21.3207H19.1816V22.2592H15.9354V17.6537H19.0637Z" fill="black"/>
<path d="M26.8337 14.8507L26.9839 14.7389C25.6954 13.4279 24.1356 12.4146 22.414 11.7703C20.6924 11.126 18.8506 10.8662 17.018 11.0093C15.1853 11.1523 13.4061 11.6946 11.8053 12.5982C10.2044 13.5017 8.82072 14.7447 7.75122 16.2398H7.97715C9.03982 14.7899 10.4045 13.5879 11.9769 12.7167C13.5494 11.8456 15.2921 11.326 17.0849 11.1939C18.8776 11.0619 20.6777 11.3204 22.3608 11.9518C24.044 12.5831 25.57 13.5721 26.8337 14.8507Z" fill="black"/>
<path d="M26.8598 15.2639C27.1292 15.2639 27.3476 15.0455 27.3476 14.7761C27.3476 14.5066 27.1292 14.2882 26.8598 14.2882C26.5904 14.2882 26.3719 14.5066 26.3719 14.7761C26.3719 15.0455 26.5904 15.2639 26.8598 15.2639Z" fill="black"/>
<path d="M19.502 17.6537H19.965L21.441 21.6832L22.9307 17.6537H23.38L21.6421 22.2468H21.2175L19.502 17.6537Z" fill="black"/>
<path d="M25.7959 21.6832C25.6589 21.8967 25.4632 22.0661 25.2323 22.1711C25.0002 22.2737 24.7487 22.3249 24.4949 22.3213C24.2827 22.3234 24.0721 22.2851 23.8742 22.2083C23.6926 22.1377 23.5296 22.0264 23.3976 21.8831C23.2617 21.7397 23.1554 21.571 23.0847 21.3865C23.0074 21.1828 22.9695 20.9663 22.973 20.7484C22.9711 20.5364 23.009 20.3258 23.0847 20.1278C23.1583 19.9448 23.2643 19.7766 23.3976 19.6312C23.5319 19.4905 23.6943 19.3797 23.8742 19.306C24.0642 19.2262 24.2678 19.1841 24.4738 19.1818C24.685 19.1766 24.8946 19.219 25.0871 19.306C25.254 19.3775 25.4034 19.4842 25.5253 19.6188C25.6447 19.7503 25.7382 19.9032 25.8009 20.0694C25.8608 20.2336 25.8902 20.4073 25.8877 20.5821V20.8552H23.3678C23.3688 20.9615 23.3859 21.0669 23.4187 21.168C23.4562 21.3009 23.5153 21.4268 23.5937 21.5404C23.6856 21.6695 23.8052 21.7764 23.9438 21.8533C24.1172 21.9441 24.3118 21.987 24.5073 21.9774C24.7068 21.9751 24.9033 21.928 25.0821 21.8396C25.2569 21.7515 25.4042 21.6171 25.5079 21.4511L25.7959 21.6832ZM25.4955 20.5064C25.497 20.377 25.471 20.2488 25.4192 20.1302C25.3675 20.0116 25.291 19.9054 25.1951 19.8187C25.1021 19.7266 24.9915 19.6544 24.8698 19.6064C24.7423 19.5557 24.6061 19.5299 24.4689 19.5307C24.2855 19.5208 24.1033 19.5639 23.9438 19.6548C23.8146 19.7346 23.7004 19.8362 23.6061 19.9552C23.5309 20.0537 23.4718 20.1634 23.4311 20.2804C23.4025 20.3479 23.3853 20.4196 23.3802 20.4927H25.4905L25.4955 20.5064Z" fill="black"/>
<path d="M26.4959 20.0942C26.4973 20.0269 26.4931 19.9597 26.4835 19.8931C26.4835 19.8186 26.4711 19.7304 26.4711 19.656C26.4739 19.5808 26.4698 19.5056 26.4587 19.4313C26.4587 19.3555 26.4463 19.3071 26.4463 19.2674H26.8336C26.8336 19.3804 26.8473 19.4933 26.8473 19.5939C26.8473 19.6944 26.8597 19.7689 26.8597 19.7938C26.9539 19.6203 27.0864 19.4704 27.247 19.3555C27.4163 19.2404 27.6184 19.1834 27.823 19.1929C27.8611 19.191 27.8992 19.1952 27.9359 19.2053C27.9732 19.2178 28.0104 19.2178 28.0477 19.2302L27.998 19.6187C27.9491 19.6044 27.8987 19.5961 27.8478 19.5939C27.6984 19.5912 27.5498 19.6165 27.4096 19.6684C27.2906 19.714 27.1866 19.7918 27.1092 19.8931C27.0326 19.996 26.9746 20.1115 26.9379 20.2344C26.8971 20.3681 26.8762 20.5069 26.8758 20.6466V22.2865H26.4873V20.0942H26.4959Z" fill="black"/>
<path d="M28.3976 21.4832C28.4752 21.6411 28.6032 21.7686 28.7613 21.8457C28.9135 21.9287 29.0845 21.9714 29.2578 21.9698C29.342 21.9694 29.4256 21.9569 29.5061 21.9326C29.5865 21.9071 29.6624 21.869 29.7308 21.8196C29.7939 21.7702 29.8488 21.7111 29.8934 21.6446C29.9342 21.5763 29.9557 21.4982 29.9555 21.4187C29.9579 21.3596 29.9468 21.3007 29.9232 21.2466C29.8995 21.1924 29.8639 21.1443 29.819 21.1058C29.7227 21.0301 29.6121 20.9747 29.4937 20.9432C29.3539 20.9015 29.2117 20.8683 29.0679 20.8439C28.9222 20.8168 28.7796 20.7753 28.6421 20.7198C28.5193 20.6621 28.4089 20.5811 28.3169 20.4814C28.2191 20.357 28.1701 20.2012 28.1791 20.0432C28.1738 19.9086 28.2042 19.775 28.2672 19.6559C28.3254 19.548 28.4063 19.454 28.5043 19.3803C28.6035 19.3093 28.7133 19.2544 28.8296 19.2177C28.9507 19.1833 29.0761 19.1666 29.202 19.168C29.4225 19.1633 29.6411 19.2105 29.8401 19.3058C30.0187 19.4005 30.1629 19.549 30.2522 19.7304L29.917 19.9439C29.8532 19.8179 29.7584 19.7103 29.6414 19.6311C29.5148 19.5509 29.3666 19.5114 29.2169 19.5181C29.1441 19.5184 29.0719 19.531 29.0034 19.5554C28.9336 19.5771 28.8666 19.6067 28.8035 19.6435C28.7415 19.68 28.6898 19.7317 28.6533 19.7937C28.6125 19.8569 28.5909 19.9307 28.5912 20.006C28.5872 20.0636 28.5977 20.1213 28.6218 20.1737C28.6459 20.2262 28.6828 20.2718 28.729 20.3064C28.8283 20.3742 28.9382 20.425 29.0543 20.4566C29.1784 20.4938 29.3286 20.5187 29.4788 20.5571C29.6261 20.5772 29.7696 20.6191 29.9046 20.6813C30.0308 20.7377 30.1422 20.8227 30.2298 20.9296C30.3286 21.0677 30.3773 21.2354 30.3676 21.405C30.3729 21.544 30.3425 21.682 30.2795 21.806C30.2216 21.9186 30.1403 22.0177 30.0412 22.0965C29.9364 22.1762 29.8177 22.2355 29.6911 22.2715C29.557 22.3121 29.4178 22.333 29.2777 22.3336C29.0319 22.3374 28.7884 22.2861 28.5652 22.1833C28.3556 22.0843 28.1821 21.9224 28.0686 21.7203L28.3976 21.4832Z" fill="black"/>
<path d="M33.5533 21.6832C33.4164 21.8963 33.2212 22.0657 32.9909 22.1711C32.7584 22.2737 32.5065 22.325 32.2523 22.3213C32.0401 22.3233 31.8295 22.2849 31.6316 22.2083C31.4505 22.1373 31.288 22.0261 31.1562 21.8831C31.02 21.7399 30.9137 21.5711 30.8434 21.3865C30.7656 21.1829 30.7273 20.9664 30.7304 20.7484C30.7289 20.5363 30.7672 20.3257 30.8434 20.1277C30.9164 19.9445 31.0224 19.7762 31.1562 19.6312C31.2903 19.4908 31.4522 19.38 31.6316 19.3059C31.822 19.2262 32.0261 19.184 32.2325 19.1818C32.4436 19.1767 32.6532 19.2191 32.8457 19.3059C33.0126 19.3774 33.1621 19.4841 33.2839 19.6188C33.518 19.8797 33.6456 20.2191 33.6414 20.5697V20.8552H31.1264C31.1275 20.9613 31.1442 21.0667 31.1761 21.168C31.2141 21.3007 31.2732 21.4265 31.3511 21.5404C31.4438 21.6693 31.5637 21.7761 31.7024 21.8533C31.8754 21.944 32.0696 21.9869 32.2647 21.9774C32.4646 21.9752 32.6615 21.9281 32.8407 21.8396C33.0155 21.7515 33.1628 21.6171 33.2665 21.4511L33.5533 21.6832ZM33.2541 20.5064C33.255 20.3783 33.2292 20.2515 33.1784 20.1339C33.1266 20.0149 33.05 19.9082 32.9537 19.8211C32.8606 19.7293 32.75 19.6572 32.6285 19.6088C32.5009 19.5581 32.3648 19.5324 32.2275 19.5331C32.0442 19.5231 31.8618 19.5662 31.7024 19.6573C31.5732 19.7374 31.4585 19.839 31.3635 19.9577C31.2893 20.0568 31.2303 20.1664 31.1885 20.2829C31.1607 20.3506 31.144 20.4222 31.1388 20.4952H33.2491L33.2541 20.5064Z" fill="black"/>
</svg>
