<svg width="36" height="36" viewBox="0 0 36 36" fill="none" xmlns="http://www.w3.org/2000/svg">
<path d="M24.4167 19.3047L24.4242 19.2836C24.4317 19.2616 24.4379 19.2392 24.4428 19.2165C24.4428 19.2103 24.4428 19.2029 24.4428 19.1954C24.4428 19.188 24.4502 19.1545 24.4527 19.1334C24.4552 19.1123 24.4527 19.1147 24.4527 19.1048C24.4527 19.0949 24.4527 19.0763 24.4527 19.0614C24.4527 19.0465 24.4527 19.0316 24.4527 19.0167V12.343C24.4524 12.1199 24.3636 11.906 24.2058 11.7482C24.0481 11.5905 23.8342 11.5017 23.6111 11.5014H23.5837V4.51985C23.5831 4.06603 23.4025 3.631 23.0816 3.3101C22.7607 2.98921 22.3257 2.80864 21.8719 2.80798H14.1132C13.6592 2.80864 13.224 2.98938 12.9031 3.31054C12.5821 3.6317 12.4017 4.06706 12.4014 4.52109V11.5014H12.3728C12.1496 11.5014 11.9355 11.59 11.7777 11.7479C11.6198 11.9057 11.5312 12.1198 11.5312 12.343V19.0167C11.5292 19.0464 11.5292 19.0763 11.5312 19.1061C11.5306 19.1131 11.5306 19.1201 11.5312 19.1272C11.5312 19.1495 11.5374 19.1731 11.5423 19.1954L11.5498 19.2227C11.5498 19.2426 11.5597 19.2612 11.5659 19.2798C11.5721 19.2985 11.5746 19.3034 11.5796 19.3158C11.5845 19.3283 11.5908 19.3444 11.597 19.3593C11.5993 19.3661 11.6022 19.3728 11.6056 19.3792L14.1964 25.5438L14.2076 25.5687C14.2777 25.7084 14.3853 25.8258 14.5184 25.9079C14.6515 25.9899 14.8048 26.0332 14.9611 26.0329H15.4105V27.7709C15.4103 27.9678 15.449 28.1627 15.5242 28.3447C15.5994 28.5266 15.7098 28.6919 15.8489 28.8312C15.9881 28.9704 16.1533 29.0809 16.3352 29.1563C16.517 29.2317 16.712 29.2705 16.9088 29.2705H17.131V33.1833C17.131 33.4138 17.2226 33.6348 17.3856 33.7977C17.5485 33.9607 17.7695 34.0523 18 34.0523C18.2305 34.0523 18.4515 33.9607 18.6145 33.7977C18.7774 33.6348 18.869 33.4138 18.869 33.1833V29.268H19.0837C19.4809 29.267 19.8615 29.1086 20.1421 28.8275C20.4228 28.5464 20.5805 28.1656 20.5808 27.7684V26.0305H21.0315C21.2547 26.0295 21.4684 25.9402 21.6261 25.7822C21.6898 25.7188 21.7426 25.6454 21.7825 25.5649L24.3894 19.3742C24.3894 19.3742 24.3894 19.3655 24.3894 19.3605C24.3994 19.3424 24.4085 19.3237 24.4167 19.3047ZM19.7454 24.3496H15.5098L13.6428 19.8621H21.6683C21.7048 19.8615 21.7413 19.859 21.7775 19.8546C21.8138 19.859 21.8503 19.8615 21.8868 19.8621H22.356L20.4939 24.3521L19.7454 24.3496ZM13.2356 13.1859H15.8537V14.3131C15.853 14.5951 15.9081 14.8744 16.0159 15.135C16.1238 15.3956 16.2821 15.6322 16.4818 15.8313C16.5327 15.8809 16.5861 15.9294 16.6407 15.9741C17.0235 16.2891 17.5042 16.4607 18 16.4594C18.5539 16.4595 19.0864 16.2451 19.4856 15.8611C19.8849 15.4772 20.1199 14.9535 20.1414 14.4C20.1414 14.3727 20.1414 14.3454 20.1414 14.3181V13.1909H22.7781V18.18H21.8818C21.8457 18.1806 21.8097 18.1831 21.7738 18.1874C21.7371 18.1831 21.7003 18.1806 21.6633 18.18H13.2157V13.1859H13.2356ZM14.0859 4.52109C14.0862 4.51381 14.0891 4.50689 14.0942 4.50163C14.0992 4.49637 14.106 4.49314 14.1132 4.49253H14.8966V6.74067C14.8966 6.93821 14.975 7.12766 15.1147 7.26734C15.2544 7.40703 15.4438 7.4855 15.6414 7.4855C15.8389 7.4855 16.0284 7.40703 16.1681 7.26734C16.3077 7.12766 16.3862 6.93821 16.3862 6.74067V4.49253H17.2552V6.74067C17.2552 6.93821 17.3336 7.12766 17.4733 7.26734C17.613 7.40703 17.8025 7.4855 18 7.4855C18.1975 7.4855 18.387 7.40703 18.5267 7.26734C18.6664 7.12766 18.7448 6.93821 18.7448 6.74067V4.49253H19.6138V6.74067C19.6138 6.93821 19.6923 7.12766 19.832 7.26734C19.9716 7.40703 20.1611 7.4855 20.3586 7.4855C20.5562 7.4855 20.7456 7.40703 20.8853 7.26734C21.025 7.12766 21.1035 6.93821 21.1035 6.74067V4.49253H21.888C21.8956 4.49253 21.9028 4.49554 21.9082 4.5009C21.9136 4.50625 21.9166 4.51351 21.9166 4.52109V11.5014H20.1464V9.91612C20.1461 9.72071 20.0786 9.53133 19.9552 9.37984C19.9378 9.35874 19.9192 9.33764 19.8993 9.31778C19.8213 9.23911 19.7285 9.17666 19.6262 9.13405C19.5239 9.09144 19.4142 9.0695 19.3035 9.0695H16.6966C16.474 9.07207 16.2613 9.16153 16.1038 9.31879C15.9463 9.47604 15.8566 9.68862 15.8537 9.91115V11.5014H14.0859V4.52109ZM17.5382 12.3492V10.7565H18.4618V14.3131C18.4555 14.4333 18.4047 14.5468 18.3194 14.6317C18.234 14.7166 18.1202 14.7667 18 14.7724C17.8775 14.7724 17.7601 14.7237 17.6735 14.6371C17.5869 14.5505 17.5382 14.4331 17.5382 14.3106V12.3492ZM17.1037 26.0342H18.8963V27.5834H17.1037V26.0342Z" fill="black"/>
</svg>
