<svg width="36" height="36" viewBox="0 0 36 36" fill="none" xmlns="http://www.w3.org/2000/svg">
<path d="M32.0027 11.0358C31.742 10.9116 31.4193 10.8744 31.0344 10.9489C30.8731 10.9737 30.662 11.0109 30.4138 11.0606C28.6758 11.3461 23.9958 12.0165 18.0496 12.0165C12.0041 12.0165 6.67858 11.222 5.18893 10.9737C4.61789 10.8744 4.12135 10.9737 3.811 11.2468C2.78066 12.1034 2.42065 14.6482 2.42065 16.7337C2.42065 18.7199 2.75583 21.1902 3.69927 22.1213C4.02203 22.444 4.55583 22.6054 5.05238 22.5185C6.31859 22.3075 10.3903 21.6744 15.3807 21.5006C15.3807 21.5378 15.3682 21.5875 15.3682 21.6247V26.3296C15.3682 26.6399 15.542 26.9378 15.8151 27.0868C15.9517 27.1613 16.0882 27.1985 16.2372 27.1985C16.3986 27.1985 16.5476 27.1613 16.6965 27.0744L18.422 26.0192L20.1476 27.0744C20.4207 27.2358 20.7558 27.2482 21.0289 27.0868C21.302 26.9378 21.4758 26.6399 21.4758 26.3296V21.6247C21.4758 21.5875 21.4758 21.5503 21.4634 21.513C26.3048 21.7116 29.8551 22.2827 30.9724 22.4813C31.0965 22.5061 31.2703 22.5309 31.4441 22.5309C31.7544 22.5309 32.102 22.444 32.4372 22.1089C32.5613 21.9723 32.6731 21.8358 32.7724 21.6868C33.3682 20.7185 33.7282 18.8689 33.7282 16.7213C33.691 15.9144 33.6165 11.8302 32.0027 11.0358ZM18.0372 13.742C18.2731 13.742 18.5213 13.742 18.7572 13.742C18.8938 13.9778 19.0924 14.5116 19.2538 15.3558C18.9807 15.2937 18.6951 15.2564 18.3972 15.2564C17.9007 15.2564 17.4165 15.3558 16.982 15.5296C16.9075 14.9834 16.771 14.3254 16.5724 13.7296C17.0565 13.742 17.5531 13.742 18.0372 13.742ZM20.4331 19.0303C20.4331 20.1475 19.5145 21.0661 18.3972 21.0661C17.28 21.0661 16.3613 20.1475 16.3613 19.0303C16.3613 17.913 17.28 16.9944 18.3972 16.9944C19.5145 16.9944 20.4331 17.913 20.4331 19.0303ZM4.66755 20.4454C4.41927 19.8247 4.13376 18.5833 4.13376 16.7213C4.13376 14.9337 4.40686 13.6427 4.66755 12.9971C4.91582 13.6178 5.20134 14.9089 5.20134 16.7213C5.21375 18.5337 4.91582 19.8247 4.66755 20.4454ZM6.47997 12.9102C8.31721 13.1709 11.2593 13.5061 14.6607 13.6675C14.822 13.9034 15.1448 14.6978 15.3186 16.1503C15.331 16.2496 15.3434 16.3364 15.3558 16.4358C15.3558 16.4854 15.3682 16.6095 15.3807 16.7833C14.9089 17.4164 14.6358 18.1861 14.6358 19.0303C14.6358 19.2909 14.6607 19.5392 14.7103 19.7875C11.2965 19.9364 8.35445 20.284 6.49238 20.5447C6.92686 19.0923 6.9641 17.2799 6.9641 16.7337C6.9641 16.1875 6.91445 14.3627 6.47997 12.9102ZM18.8565 24.2564C18.5834 24.0826 18.2234 24.0826 17.9503 24.2564L17.0938 24.7778V22.5682C17.5034 22.7171 17.9379 22.804 18.4096 22.804C18.8689 22.804 19.3158 22.7171 19.7255 22.5682V24.7778L18.8565 24.2564ZM31.2703 20.7806C31.2579 20.7806 31.2579 20.7806 31.2703 20.7806C30.1531 20.582 26.7517 20.0358 22.0965 19.8123C22.1462 19.564 22.1834 19.3034 22.1834 19.0303C22.1834 18.0371 21.7986 17.1309 21.1655 16.4482C21.1655 16.3613 21.1531 16.2992 21.1531 16.262C21.1407 16.1502 21.1282 16.0385 21.1158 15.9392C21.0413 15.3433 20.9048 14.4744 20.6441 13.7047C25.262 13.5682 28.8372 13.0716 30.7117 12.7737C30.9351 12.7364 31.1338 12.6992 31.2827 12.6744C31.5558 13.1089 31.9655 14.5365 31.9655 16.7337C31.9531 18.7447 31.5931 20.2468 31.2703 20.7806Z" fill="black"/>
</svg>
