<svg width="36" height="36" viewBox="0 0 36 36" fill="none" xmlns="http://www.w3.org/2000/svg">
<g clip-path="url(#clip0_248_77973)">
<path d="M29.1376 5.84924H6.86234C6.20447 5.85121 5.57411 6.11341 5.10893 6.5786C4.64375 7.04378 4.38154 7.67414 4.37958 8.332V23.9659C4.38122 24.6239 4.64332 25.2544 5.10857 25.7197C5.57382 26.1849 6.20437 26.4471 6.86234 26.4487H10.6448C10.5265 26.5781 10.4232 26.7205 10.337 26.8732C10.1696 27.1612 10.0745 27.4853 10.0596 27.818C10.0446 28.1506 10.1104 28.482 10.2513 28.7837C10.4039 29.12 10.624 29.4213 10.8981 29.6688C11.1463 29.8811 11.412 30.081 11.6429 30.2572C11.8055 30.3814 11.993 30.5229 12.1742 30.6681C12.8098 31.1721 13.3597 31.6401 13.855 32.097C14.1641 32.3825 14.4571 32.668 14.7029 32.9101C15.0753 33.275 15.3919 33.5754 15.7407 33.8572C16.168 34.1898 16.63 34.4754 17.1186 34.7088C17.4244 34.8401 17.6987 35.0353 17.923 35.2811C17.9541 35.3159 17.9938 35.3692 18.0323 35.4201C18.1837 35.6237 18.499 36.0408 18.9919 36.0408C19.1347 36.0392 19.2755 36.0074 19.4052 35.9477L25.2186 33.3967C26.0267 33.0417 26.1981 31.151 26.2229 30.7898C26.3172 29.8637 26.3743 29.1897 26.3135 28.307C26.2718 27.6835 26.1855 27.0637 26.0553 26.4524H29.1364C29.7944 26.4508 30.4249 26.1887 30.8902 25.7234C31.3554 25.2582 31.6175 24.6276 31.6192 23.9697V8.33573C31.6182 7.67743 31.3566 7.0463 30.8916 6.58035C30.4265 6.1144 29.7959 5.85154 29.1376 5.84924ZM23.9747 21.5055C23.508 20.8848 22.8774 20.4578 21.8321 20.5819C21.4692 20.6236 21.1225 20.7559 20.8241 20.9668L20.7645 20.9258C20.3074 20.6139 19.7547 20.4736 19.2041 20.5298C18.7274 20.5821 18.2816 20.7912 17.9367 21.1244C17.7947 21.0371 17.6425 20.9675 17.4836 20.9171C17.1506 20.8014 16.7944 20.7685 16.4458 20.821C16.0972 20.8736 15.7666 21.0101 15.4825 21.2188C15.1845 20.6279 14.6135 19.497 14.4819 19.2859C13.7843 18.1327 12.5491 17.7479 11.479 18.3487C10.6572 18.803 10.2563 19.5975 10.3481 20.5832C10.3812 20.8995 10.4559 21.21 10.5703 21.5068H9.35006V10.7999H26.6499V21.5092L23.9747 21.5055ZM24.7196 29.3262C24.6488 30.8742 24.4502 31.912 24.305 32.02L19.1334 34.2892C18.8505 33.8577 18.4569 33.51 17.9938 33.2825C17.023 32.8306 16.6283 32.4892 15.8214 31.6985C14.6098 30.5055 14.0152 29.999 12.0774 28.5094C11.7447 28.2499 11.6292 27.9669 11.7546 27.7087C11.9123 27.3822 12.4498 27.1352 13.0742 27.2903C13.6986 27.4455 14.0574 27.7571 14.5229 28.2127C14.5653 28.256 14.6225 28.2816 14.683 28.2846C14.7435 28.2876 14.8029 28.2677 14.8494 28.2288C14.9006 28.192 14.9382 28.1394 14.9566 28.079C14.975 28.0187 14.9731 27.954 14.9512 27.8949C14.7652 27.3188 14.5464 26.7539 14.2957 26.2029C14.2312 26.0527 14.1616 25.8938 14.0859 25.7138C13.3659 24.0727 12.6856 22.5234 12.0339 20.7731C11.8527 20.2865 12.0339 19.9116 12.3008 19.7924C12.528 19.6931 12.883 19.7552 13.1425 20.2554C13.9245 21.7451 14.5651 23.0498 15.2826 24.6003C15.4812 25.0286 15.8747 25.1241 16.1627 24.9975C16.457 24.8659 16.6494 24.4923 16.4495 24.0379L16.3974 23.9138C16.3216 23.7425 16.2509 23.5811 16.1801 23.4048C16.0088 22.9629 16.2161 22.6339 16.4979 22.5048C16.7797 22.3757 17.1844 22.4254 17.4153 22.8524C17.5307 23.0659 17.6325 23.2931 17.7306 23.5128C17.8039 23.6779 17.8808 23.8492 17.9627 24.0094C18.0314 24.1593 18.1568 24.2759 18.3114 24.3334C18.466 24.3909 18.6371 24.3846 18.787 24.316C18.937 24.2474 19.0535 24.1219 19.111 23.9674C19.1686 23.8128 19.1623 23.6417 19.0936 23.4917L19.0427 23.3676C18.9993 23.2633 18.9583 23.164 18.9273 23.0783C18.756 22.6091 18.9583 22.3335 19.1843 22.2292C19.4834 22.1051 19.9105 22.2292 20.1476 22.7022C20.1935 22.7966 20.2506 22.9319 20.3114 23.0746C20.3723 23.2174 20.4244 23.344 20.4803 23.4669C20.5131 23.5404 20.5602 23.6068 20.6189 23.662C20.6775 23.7173 20.7464 23.7604 20.8218 23.7889C20.8971 23.8174 20.9774 23.8307 21.0579 23.8281C21.1384 23.8254 21.2176 23.8069 21.2909 23.7735H21.3058C21.4561 23.7113 21.576 23.5925 21.6396 23.4427C21.7032 23.293 21.7055 23.1242 21.6459 22.9728C21.5218 22.665 21.5739 22.408 21.8048 22.2665C21.9326 22.1899 22.0836 22.1617 22.2304 22.1873C22.3772 22.2128 22.5099 22.2903 22.6043 22.4055C22.9866 22.8735 23.3404 23.7226 23.6247 24.4054C24.1709 25.6964 24.7953 27.592 24.7146 29.325L24.7196 29.3262ZM29.9706 23.9672C29.9703 24.1867 29.8829 24.3971 29.7277 24.5523C29.5725 24.7075 29.3621 24.7948 29.1426 24.7952H25.5724C25.3787 24.2601 25.1503 23.7065 24.8971 23.1652H27.6827C27.8474 23.1652 28.0052 23.0998 28.1216 22.9834C28.238 22.867 28.3034 22.7092 28.3034 22.5446V9.75835C28.3034 9.59373 28.238 9.43585 28.1216 9.31945C28.0052 9.20305 27.8474 9.13766 27.6827 9.13766H8.31723C8.15262 9.13766 7.99474 9.20305 7.87834 9.31945C7.76194 9.43585 7.69654 9.59373 7.69654 9.75835V22.5446C7.69654 22.7092 7.76194 22.867 7.87834 22.9834C7.99474 23.0998 8.15262 23.1652 8.31723 23.1652H11.232L11.8862 24.7952H6.86234C6.64284 24.7948 6.43242 24.7075 6.27721 24.5523C6.12201 24.3971 6.03466 24.1867 6.03434 23.9672V8.33573C6.03499 8.11633 6.12244 7.9061 6.27758 7.75097C6.43271 7.59583 6.64294 7.50838 6.86234 7.50773H29.1376C29.357 7.50838 29.5673 7.59583 29.7224 7.75097C29.8775 7.9061 29.965 8.11633 29.9656 8.33573L29.9706 23.9672Z" fill="black"/>
<path d="M18.8292 12.2785C18.6954 12.1713 18.529 12.1129 18.3575 12.1129C18.186 12.1129 18.0197 12.1713 17.8858 12.2785L16.2621 13.5906V13.2182C16.2621 12.9985 16.1715 12.8185 15.9505 12.8185H15.5781C15.3571 12.8185 15.2665 12.9985 15.2665 13.2182V14.4L14.6036 14.9326C14.5274 14.9979 14.4793 15.09 14.4691 15.1898C14.4589 15.2896 14.4875 15.3895 14.549 15.4688L14.729 15.691C14.7929 15.7693 14.8849 15.8195 14.9854 15.8308C15.0858 15.8422 15.1867 15.8139 15.2665 15.7519V18.6071C15.2665 18.7387 15.3188 18.865 15.4119 18.9582C15.505 19.0513 15.6313 19.1036 15.763 19.1036H20.9619C21.0936 19.1036 21.2199 19.0513 21.313 18.9582C21.4062 18.865 21.4585 18.7387 21.4585 18.6071V15.7519C21.5386 15.8127 21.6392 15.8403 21.7391 15.8287C21.8391 15.8171 21.9307 15.7674 21.9948 15.6898L22.1735 15.4688C22.2352 15.3911 22.2647 15.2926 22.256 15.1938C22.2472 15.0949 22.2008 15.0032 22.1263 14.9375L18.8292 12.2785ZM20.047 16.6593C20.047 16.6922 20.034 16.7238 20.0107 16.7471C19.9874 16.7704 19.9558 16.7835 19.9229 16.7835H19.1061C19.0731 16.7835 19.0416 16.7704 19.0183 16.7471C18.995 16.7238 18.9819 16.6922 18.9819 16.6593V15.8413C18.9819 15.8083 18.995 15.7768 19.0183 15.7535C19.0416 15.7302 19.0731 15.7171 19.1061 15.7171H19.9229C19.9558 15.7171 19.9874 15.7302 20.0107 15.7535C20.034 15.7768 20.047 15.8083 20.047 15.8413V16.6593Z" fill="black"/>
</g>
<defs>
<clipPath id="clip0_248_77973">
<rect width="36" height="36" fill="white"/>
</clipPath>
</defs>
</svg>
