<svg width="36" height="36" viewBox="0 0 36 36" fill="none" xmlns="http://www.w3.org/2000/svg">
<path d="M18.3971 3.7429C18.4598 3.89529 18.5792 4.01737 18.7302 4.08337C18.8812 4.14938 19.052 4.15415 19.2064 4.09669C20.9979 3.45318 22.9654 3.5041 24.7212 4.2394C26.4769 4.97471 27.8936 6.34105 28.6918 8.06911C28.7524 8.2044 28.8585 8.31416 28.9916 8.37927C29.1248 8.44437 29.2766 8.46069 29.4205 8.42538C29.4507 8.41931 29.4803 8.41016 29.5086 8.39807L29.9977 8.20318C30.004 8.19954 30.0107 8.19662 30.0176 8.19449C30.0937 8.1611 30.1625 8.11299 30.22 8.05293C30.2775 7.99287 30.3225 7.92204 30.3525 7.84451C30.3825 7.76698 30.3969 7.68429 30.3948 7.60118C30.3927 7.51808 30.3742 7.43621 30.3404 7.36028C29.3549 5.20849 27.5961 3.50616 25.4133 2.5915C23.2305 1.67684 20.7835 1.6168 18.5584 2.42331L18.5324 2.43324C18.3782 2.49867 18.2562 2.62255 18.1931 2.77774C18.1301 2.93294 18.1311 3.1068 18.196 3.26124L18.3971 3.7429Z" fill="black"/>
<path d="M19.5803 5.79593L19.5443 5.80959C19.4677 5.8422 19.3983 5.8896 19.34 5.94908C19.2818 6.00855 19.2358 6.07893 19.2048 6.15619C19.1738 6.23344 19.1583 6.31606 19.1593 6.3993C19.1602 6.48254 19.1776 6.56478 19.2104 6.64131L19.4115 7.118C19.4186 7.13609 19.4274 7.15354 19.4375 7.17014C19.5105 7.30352 19.6283 7.40675 19.7701 7.46152C19.9119 7.51629 20.0685 7.51905 20.2122 7.46931C21.2295 7.12833 22.3359 7.1683 23.326 7.58181C24.316 7.99531 25.1222 8.75421 25.5948 9.71745C25.6576 9.84894 25.7635 9.95494 25.895 10.0177C26.0265 10.0805 26.1755 10.0964 26.3173 10.0626C26.3461 10.0563 26.3744 10.0476 26.4017 10.0365L26.8908 9.84034L26.9218 9.82669C27.0736 9.75649 27.1913 9.62902 27.2492 9.4722C27.3072 9.31537 27.3006 9.14198 27.2309 8.99C26.569 7.6123 25.424 6.52579 24.0135 5.93693C22.603 5.34807 21.0253 5.29789 19.5803 5.79593Z" fill="black"/>
<path d="M28.3036 12.2626H26.6352C26.4559 12.1276 26.2576 12.0201 26.0467 11.9436L16.6023 8.50122C16.0292 8.29361 15.3972 8.32168 14.8448 8.57927C14.2924 8.83687 13.8646 9.30297 13.6553 9.87543L12.7863 12.2626H7.69667C7.11719 12.2639 6.56186 12.4949 6.15234 12.9049C5.74281 13.3148 5.5125 13.8704 5.51184 14.4499V25.0972C5.51289 25.6118 5.69511 26.1095 6.02653 26.5032C6.35795 26.8968 6.81739 27.1611 7.32425 27.2498L7.26467 27.4149C7.05627 27.9879 7.0838 28.6203 7.34122 29.1731C7.59864 29.7258 8.0649 30.1539 8.63763 30.3632L18.082 33.8055C18.6554 34.0139 19.2881 33.9862 19.8411 33.7286C20.3941 33.4709 20.8223 33.0044 21.0316 32.4313L22.906 27.2858H28.3036C28.8838 27.2851 29.4401 27.0543 29.8504 26.644C30.2607 26.2338 30.4915 25.6775 30.4921 25.0972V14.4499C30.4915 13.8698 30.2606 13.3136 29.8503 12.9035C29.44 12.4934 28.8837 12.2629 28.3036 12.2626ZM7.94494 25.5479H7.69667C7.57766 25.5462 7.46397 25.4983 7.37981 25.4141C7.29565 25.3299 7.24765 25.2162 7.24605 25.0972V14.4499C7.24766 14.331 7.29569 14.2175 7.37989 14.1335C7.46408 14.0495 7.57777 14.0018 7.69667 14.0005H12.1507L7.94494 25.5479ZM19.3818 31.8305C19.3561 31.901 19.3168 31.9658 19.2662 32.0211C19.2155 32.0765 19.1544 32.1213 19.0863 32.153C19.0183 32.1847 18.9447 32.2027 18.8697 32.2059C18.7947 32.2092 18.7199 32.1976 18.6494 32.1719L9.20246 28.7308C9.05992 28.6787 8.94388 28.5722 8.87986 28.4346C8.81584 28.297 8.80909 28.1397 8.86108 27.9971L15.2529 10.4576C15.2939 10.3482 15.3674 10.2539 15.4634 10.1873C15.5595 10.1208 15.6736 10.0851 15.7905 10.0852C15.857 10.0853 15.9229 10.0971 15.9854 10.12L25.4298 13.5623C25.5718 13.6146 25.6874 13.721 25.7514 13.8582C25.8153 13.9954 25.8224 14.1523 25.7712 14.2947L19.3818 31.8305ZM28.7529 25.0972C28.7513 25.216 28.7035 25.3295 28.6196 25.4137C28.5357 25.4978 28.4224 25.5459 28.3036 25.5479H23.5367L27.4197 14.8968C27.5242 14.6118 27.5707 14.3087 27.5563 14.0055H28.3011C28.42 14.0068 28.5337 14.0545 28.6179 14.1385C28.7021 14.2224 28.7501 14.336 28.7517 14.4549L28.7529 25.0972Z" fill="black"/>
<path d="M14.997 27.5079C14.7694 27.4248 14.5222 27.4111 14.2867 27.4685C14.0513 27.5259 13.8381 27.6519 13.6742 27.8304C13.5104 28.009 13.4032 28.2322 13.3661 28.4717C13.3291 28.7112 13.3639 28.9563 13.4662 29.176C13.5685 29.3957 13.7337 29.5802 13.9408 29.706C14.148 29.8318 14.3878 29.8934 14.6299 29.8829C14.8721 29.8725 15.1056 29.7904 15.3011 29.6472C15.4966 29.5039 15.6453 29.3059 15.7282 29.0782C15.7839 28.9271 15.8092 28.7665 15.8026 28.6056C15.796 28.4448 15.7576 28.2868 15.6896 28.1408C15.6216 27.9948 15.5254 27.8637 15.4066 27.7551C15.2877 27.6465 15.1485 27.5624 14.997 27.5079Z" fill="black"/>
<path d="M10.9241 25.2772L19.5939 28.4365L24.7159 14.3792L16.0498 11.2198L10.9241 25.2772ZM22.6266 15.299L18.6207 26.2976L12.9997 24.2494L17.0069 13.2507L22.6266 15.299Z" fill="black"/>
</svg>
