<svg width="36" height="36" viewBox="0 0 36 36" fill="none" xmlns="http://www.w3.org/2000/svg">
<path d="M27.5709 6.18286H8.32953C7.60953 6.18286 7.01367 6.77872 7.01367 7.49872V28.4904C7.01367 29.2104 7.60953 29.8062 8.32953 29.8062H27.5833C28.3033 29.8062 28.8992 29.2104 28.8992 28.4904V7.49872C28.8868 6.77872 28.3033 6.18286 27.5709 6.18286ZM27.1488 10.689H22.1461V7.9332H27.1488V10.689ZM15.4923 23.5745V12.427H20.4082V23.5745H15.4923ZM20.4082 25.3125V28.0683H15.4923V25.3125H20.4082ZM13.7544 23.5745H8.7516V12.427H13.7544V23.5745ZM15.4923 10.689V7.9332H20.4082V10.689H15.4923ZM22.1461 12.427H27.1488V23.5745H22.1461V12.427ZM13.7544 7.92079V10.6766H8.7516V7.92079H13.7544ZM8.7516 25.3125H13.7544V28.0683H8.7516V25.3125ZM22.1461 28.0683V25.3125H27.1488V28.0683H22.1461Z" fill="black"/>
<path d="M10.2165 18.8571H12.3393C12.6124 18.8571 12.8358 18.6337 12.8358 18.3606V17.6281C12.8358 17.355 12.6124 17.1316 12.3393 17.1316H10.2165C9.94342 17.1316 9.71997 17.355 9.71997 17.6281V18.3606C9.71997 18.6337 9.94342 18.8571 10.2165 18.8571Z" fill="black"/>
<path d="M19.0054 17.1316H16.8827C16.6096 17.1316 16.3861 17.355 16.3861 17.6281V18.3606C16.3861 18.6337 16.6096 18.8571 16.8827 18.8571H19.0054C19.2785 18.8571 19.502 18.6337 19.502 18.3606V17.6281C19.502 17.355 19.2785 17.1316 19.0054 17.1316Z" fill="black"/>
<path d="M25.6716 17.1316H23.5488C23.2757 17.1316 23.0522 17.355 23.0522 17.6281V18.3606C23.0522 18.6337 23.2757 18.8571 23.5488 18.8571H25.6716C25.9447 18.8571 26.1681 18.6337 26.1681 18.3606V17.6281C26.1681 17.355 25.9447 17.1316 25.6716 17.1316Z" fill="black"/>
</svg>
