<svg width="36" height="36" viewBox="0 0 36 36" fill="none" xmlns="http://www.w3.org/2000/svg">
<path d="M29.3531 25.8577H7.9615V8.90055C7.9615 8.63986 7.75071 8.42883 7.49029 8.42883H6.73382C6.4734 8.42883 6.26257 8.63986 6.26257 8.90055V26.7019C6.26257 27.1736 6.64702 27.5584 7.11826 27.5584H29.3655C29.626 27.5584 29.8368 27.3474 29.8368 27.0867V26.3295C29.8244 26.0688 29.6136 25.8577 29.3531 25.8577Z" fill="black"/>
<path d="M9.85893 21.2285C10.0449 21.5265 10.4294 21.6133 10.727 21.4396L26.6869 12.0796L26.5009 13.1348C26.4265 13.4699 26.6373 13.8175 26.9721 13.892L27.4434 14.0037C27.6046 14.041 27.7782 14.0161 27.927 13.9292C28.0758 13.8423 28.175 13.7058 28.2122 13.532L28.9315 10.1927C29.0059 9.85751 28.7951 9.50993 28.4602 9.43545L25.1492 8.57889C24.988 8.54165 24.8144 8.56648 24.6656 8.65337C24.5168 8.74027 24.4176 8.87683 24.3804 9.05062L24.2687 9.52234C24.1943 9.85751 24.4052 10.2051 24.74 10.2796L25.7568 10.5899L9.79692 19.9499C9.4993 20.1361 9.4125 20.5209 9.58611 20.8189L9.85893 21.2285Z" fill="black"/>
<path d="M23.8597 24.2562H24.6161C24.8765 24.2562 25.0874 24.0328 25.0874 23.7473V14.4493L23.3884 15.4424V23.7473C23.3884 24.0204 23.5993 24.2562 23.8597 24.2562Z" fill="black"/>
<path d="M19.8416 24.2567H20.5981C20.8585 24.2567 21.0693 24.0333 21.0693 23.7478V16.8085L19.3704 17.8016V23.7478C19.3704 24.0209 19.5812 24.2567 19.8416 24.2567Z" fill="black"/>
<path d="M11.8058 24.2566H12.5623C12.8227 24.2566 13.0335 24.0083 13.0335 23.7104V21.4263L11.3346 22.4194V23.698C11.3346 24.0083 11.5454 24.2566 11.8058 24.2566Z" fill="black"/>
<path d="M15.8235 24.2565H16.5799C16.8404 24.2565 17.0512 24.033 17.0512 23.7475V19.1544L15.3522 20.1475V23.7351C15.3522 24.0206 15.5631 24.2565 15.8235 24.2565Z" fill="black"/>
</svg>
