<svg width="36" height="36" viewBox="0 0 36 36" fill="none" xmlns="http://www.w3.org/2000/svg">
<path d="M5.99994 13.2445H9.57211C10.0701 13.2445 10.541 13.2898 10.9847 13.3803C11.4284 13.4709 11.8132 13.6293 12.1392 13.8557C12.4742 14.073 12.7368 14.3718 12.927 14.7521C13.1262 15.1234 13.2258 15.5942 13.2258 16.1647C13.2258 16.7261 13.1352 17.197 12.9541 17.5773C12.773 17.9576 12.524 18.2609 12.2071 18.4873C11.8902 18.7137 11.5144 18.8767 11.0798 18.9763C10.6451 19.0668 10.1743 19.1121 9.66719 19.1121H8.11879V22.8608H5.99994V13.2445ZM8.11879 17.3192H9.53136C9.72152 17.3192 9.90262 17.3011 10.0747 17.2649C10.2558 17.2287 10.4142 17.1698 10.55 17.0883C10.6949 16.9978 10.8081 16.88 10.8896 16.7352C10.9802 16.5812 11.0254 16.3911 11.0254 16.1647C11.0254 15.9202 10.9666 15.7255 10.8489 15.5807C10.7402 15.4267 10.5953 15.309 10.4142 15.2275C10.2422 15.146 10.0475 15.0962 9.83018 15.0781C9.61286 15.0509 9.40459 15.0374 9.20539 15.0374H8.11879V17.3192Z" fill="black"/>
<path d="M14.6368 13.2445H16.7556V20.905H20.6809V22.8608H14.6368V13.2445Z" fill="black"/>
<path d="M28.1392 15.7436C27.9309 15.4901 27.6728 15.2954 27.365 15.1596C27.0661 15.0238 26.7175 14.9559 26.3191 14.9559C25.9207 14.9559 25.5494 15.0328 25.2054 15.1868C24.8703 15.3407 24.576 15.558 24.3225 15.8387C24.078 16.1104 23.8833 16.4363 23.7385 16.8167C23.6026 17.197 23.5347 17.609 23.5347 18.0527C23.5347 18.5054 23.6026 18.9219 23.7385 19.3022C23.8833 19.6735 24.078 19.9995 24.3225 20.2802C24.567 20.5518 24.8522 20.7646 25.1782 20.9185C25.5132 21.0725 25.8709 21.1494 26.2512 21.1494C26.6858 21.1494 27.0707 21.0589 27.4057 20.8778C27.7407 20.6967 28.0169 20.4432 28.2342 20.1172L29.9999 21.4347C29.5925 22.0051 29.0763 22.4262 28.4515 22.6978C27.8268 22.9695 27.1839 23.1053 26.5228 23.1053C25.7713 23.1053 25.0786 22.9876 24.4447 22.7522C23.8109 22.5167 23.2631 22.1817 22.8013 21.7471C22.3395 21.3034 21.9773 20.7691 21.7147 20.1443C21.4611 19.5196 21.3344 18.8223 21.3344 18.0527C21.3344 17.283 21.4611 16.5858 21.7147 15.961C21.9773 15.3362 22.3395 14.8065 22.8013 14.3718C23.2631 13.9281 23.8109 13.5886 24.4447 13.3531C25.0786 13.1177 25.7713 13 26.5228 13C26.7945 13 27.0752 13.0272 27.365 13.0815C27.6638 13.1268 27.9535 13.2037 28.2342 13.3124C28.524 13.4211 28.8002 13.5659 29.0628 13.747C29.3253 13.9281 29.5608 14.15 29.769 14.4126L28.1392 15.7436Z" fill="black"/>
</svg>
