<svg width="36" height="36" viewBox="0 0 36 36" fill="none" xmlns="http://www.w3.org/2000/svg">
<path d="M30.25 11.5H24.25C23.8281 11.5 23.5 11.875 23.5 12.25C23.5 12.6719 23.8281 13 24.25 13H30.2031C30.625 13 31 12.6719 31 12.25C31 11.875 30.625 11.5 30.25 11.5ZM24.25 10H30.25C30.625 10 31 9.67188 31 9.25C31 8.875 30.625 8.5 30.25 8.5H24.25C23.875 8.5 23.5 8.875 23.5 9.25C23.5 9.67188 23.8281 10 24.25 10ZM30.25 16H24.25C23.875 16 23.5 16.3281 23.5 16.75C23.5 17.125 23.8281 17.5 24.25 17.5H30.25C30.625 17.5 31 17.1719 31 16.75C31 16.2812 30.625 16 30.25 16ZM18.25 8.5H9.34375C6.39063 8.5 4 10.8906 4 13.7969C4 16.1875 5.59375 18.2031 7.75 18.8594L4.28125 24.6719C3.67188 25.75 4.04688 27.1094 5.125 27.7188L7.70313 29.2188C8.03125 29.4062 8.45313 29.5 8.82813 29.5C9.625 29.5 10.375 29.125 10.7969 28.4219L16.2813 19.1406H18.25C19.4688 19.1406 20.5 18.1094 20.5 16.8906V10.75C20.5 9.53125 19.4688 8.5 18.25 8.5ZM9.48438 27.6719C9.34375 27.9062 9.10938 28.0469 8.82813 28.0469C8.6875 28.0469 8.54688 28 8.45313 27.9531L5.875 26.4531C5.5 26.2188 5.35938 25.7969 5.59375 25.4219L9.34375 19.1406H14.5469L9.48438 27.6719ZM19 16.8906C19 17.3125 18.625 17.6406 18.25 17.6406H9.34375C7.1875 17.6406 5.5 15.9062 5.5 13.7969C5.5 11.7344 7.1875 10 9.34375 10H18.25C18.625 10 19 10.3281 19 10.75V16.8906ZM30.25 19H24.25C23.8281 19 23.5 19.375 23.5 19.75C23.5 20.1719 23.8281 20.5 24.25 20.5H30.2031C30.625 20.5 31 20.1719 31 19.75C31 19.375 30.625 19 30.25 19ZM30.25 22H24.25C23.8281 22 23.5 22.375 23.5 22.75C23.5 23.1719 23.8281 23.5 24.25 23.5H30.2031C30.625 23.5 31 23.1719 31 22.75C31 22.375 30.625 22 30.25 22ZM30.25 28H24.25C23.8281 28 23.5 28.375 23.5 28.75C23.5 29.1719 23.8281 29.5 24.25 29.5H30.25C30.625 29.5 31 29.1719 31 28.75C31 28.375 30.625 28 30.25 28Z" fill="black"/>
</svg>
