<svg width="36" height="36" viewBox="0 0 36 36" fill="none" xmlns="http://www.w3.org/2000/svg">
<path d="M28.7565 17.876H26.9938C26.321 17.8768 25.6644 18.083 25.1119 18.4669L24.9617 18.5699L25.1119 18.6717C25.5163 18.9469 25.8845 19.2718 26.208 19.6387L26.2676 19.7058L26.3508 19.671C26.5535 19.5819 26.7724 19.5354 26.9938 19.5345H28.7565C29.7583 19.5345 30.5727 20.4283 30.5727 21.5207C30.5727 21.7406 30.66 21.9515 30.8155 22.107C30.9711 22.2625 31.182 22.3499 31.4019 22.3499C31.6218 22.3499 31.8328 22.2625 31.9883 22.107C32.1438 21.9515 32.2311 21.7406 32.2311 21.5207C32.2311 19.5134 30.6732 17.876 28.7565 17.876Z" fill="black"/>
<path d="M27.8751 16.7138C28.5975 16.7141 29.3037 16.5001 29.9045 16.0989C30.5053 15.6978 30.9736 15.1275 31.2502 14.4602C31.5268 13.7928 31.5993 13.0585 31.4585 12.35C31.3177 11.6414 30.97 10.9906 30.4593 10.4797C29.9486 9.96879 29.2978 9.62083 28.5893 9.47981C27.8809 9.33879 27.1465 9.41105 26.4791 9.68743C25.8116 9.96382 25.2412 10.4319 24.8398 11.0325C24.4385 11.6332 24.2242 12.3393 24.2242 13.0617C24.2252 14.0298 24.6102 14.958 25.2946 15.6426C25.979 16.3273 26.9071 16.7125 27.8751 16.7138ZM25.8827 13.0617C25.8815 12.6674 25.9973 12.2815 26.2155 11.9531C26.4337 11.6246 26.7444 11.3683 27.1084 11.2165C27.4723 11.0648 27.8731 11.0244 28.26 11.1006C28.6469 11.1768 29.0025 11.366 29.2818 11.6444C29.561 11.9228 29.7514 12.2778 29.8288 12.6645C29.9062 13.0512 29.8671 13.4521 29.7165 13.8165C29.5659 14.1809 29.3105 14.4925 28.9827 14.7117C28.6549 14.9309 28.2695 15.0479 27.8751 15.0479C27.348 15.0472 26.8425 14.838 26.4692 14.4658C26.0959 14.0936 25.885 13.5888 25.8827 13.0617Z" fill="black"/>
<path d="M8.12486 16.7138C8.84702 16.7131 9.55276 16.4982 10.1529 16.0965C10.753 15.6947 11.2205 15.1241 11.4963 14.4567C11.7722 13.7893 11.844 13.0551 11.7026 12.3469C11.5613 11.6387 11.2132 10.9883 10.7023 10.4779C10.1914 9.96753 9.54061 9.62007 8.83226 9.47945C8.12392 9.33883 7.38979 9.41137 6.72266 9.6879C6.05554 9.96443 5.48537 10.4325 5.08423 11.033C4.6831 11.6336 4.46899 12.3395 4.46899 13.0617C4.46998 14.0306 4.85559 14.9595 5.54109 15.6443C6.22659 16.3291 7.15591 16.7138 8.12486 16.7138ZM8.12486 11.0705C8.51743 11.0717 8.90083 11.1893 9.22664 11.4083C9.55245 11.6272 9.80606 11.9379 9.95544 12.3009C10.1048 12.664 10.1433 13.0631 10.0659 13.448C9.9886 13.8329 9.79894 14.1862 9.52092 14.4633C9.2429 14.7405 8.88898 14.9291 8.50386 15.0052C8.11875 15.0813 7.71971 15.0416 7.35714 14.8911C6.99457 14.7406 6.68473 14.486 6.46675 14.1595C6.24878 13.833 6.13245 13.4493 6.13244 13.0567C6.13474 12.5296 6.34559 12.0248 6.71892 11.6526C7.09225 11.2804 7.59771 11.0712 8.12486 11.0705Z" fill="black"/>
<path d="M9.73241 19.7058L9.79199 19.6387C10.1164 19.2723 10.485 18.9474 10.8894 18.6717L11.0383 18.5687L10.8881 18.4669C10.3349 18.0843 9.67879 17.8783 9.0062 17.876H7.24344C5.32675 17.876 3.76758 19.5134 3.76758 21.5269C3.76758 21.7468 3.85494 21.9577 4.01046 22.1132C4.16597 22.2687 4.37689 22.3561 4.59682 22.3561C4.81675 22.3561 5.02767 22.2687 5.18318 22.1132C5.33869 21.9577 5.42606 21.7468 5.42606 21.5269C5.42606 20.4283 6.24041 19.5407 7.2422 19.5407H9.00496C9.2264 19.5416 9.44529 19.5881 9.64799 19.6772L9.73241 19.7058Z" fill="black"/>
<path d="M18.0001 18.1242C19.0013 18.1242 19.9801 17.8273 20.8126 17.2711C21.6451 16.7148 22.2939 15.9242 22.6771 14.9991C23.0603 14.0741 23.1605 13.0562 22.9652 12.0742C22.7698 11.0922 22.2877 10.1902 21.5797 9.48224C20.8717 8.77426 19.9697 8.29212 18.9877 8.09679C18.0057 7.90145 16.9878 8.0017 16.0628 8.38486C15.1378 8.76802 14.3472 9.41687 13.7909 10.2494C13.2346 11.0819 12.9377 12.0606 12.9377 13.0619C12.9391 14.4041 13.4728 15.6909 14.4219 16.64C15.371 17.5891 16.6579 18.1229 18.0001 18.1242ZM14.5975 13.0619C14.5977 12.3889 14.7975 11.7312 15.1715 11.1718C15.5456 10.6124 16.0771 10.1765 16.6988 9.91914C17.3206 9.66179 18.0047 9.59458 18.6647 9.72601C19.3246 9.85744 19.9308 10.1816 20.4066 10.6575C20.8823 11.1334 21.2062 11.7397 21.3374 12.3997C21.4686 13.0598 21.4012 13.7438 21.1436 14.3655C20.886 14.9872 20.4499 15.5185 19.8904 15.8924C19.3308 16.2662 18.673 16.4657 18.0001 16.4657C17.0978 16.4644 16.233 16.1053 15.5951 15.4672C14.9572 14.8291 14.5985 13.9641 14.5975 13.0619Z" fill="black"/>
<path d="M21.5317 18.7573C20.9654 18.758 20.4025 18.8442 19.862 19.013C18.644 19.3772 17.346 19.3772 16.128 19.013C15.589 18.8447 15.0279 18.7585 14.4633 18.7573C12.7477 18.7573 11.1873 19.5506 10.2922 20.8801C9.71296 21.7375 9.40421 22.7489 9.40589 23.7837V25.7587C9.40654 26.3517 9.64197 26.9203 10.0607 27.3402C10.4794 27.7601 11.0474 27.9971 11.6404 27.9994H24.3484C24.9424 27.9987 25.512 27.7624 25.9321 27.3424C26.3521 26.9223 26.5884 26.3528 26.5891 25.7587V23.7837C26.5907 22.7489 26.282 21.7375 25.7027 20.8801C24.8077 19.5506 23.2473 18.7573 21.5317 18.7573ZM14.4645 20.417C14.9105 20.4243 15.3531 20.4971 15.7779 20.633C17.2302 21.0509 18.7709 21.0509 20.2233 20.633C20.6466 20.4981 21.0874 20.4257 21.5317 20.4183C22.6936 20.4183 23.7389 20.9384 24.3248 21.8086C24.7171 22.393 24.9262 23.0811 24.9256 23.7849V25.8319C24.9078 25.9726 24.8394 26.102 24.7332 26.1959C24.6269 26.2898 24.4902 26.3418 24.3484 26.3421H11.6515C11.4974 26.3418 11.3496 26.2803 11.2407 26.1712C11.1317 26.062 11.0706 25.9141 11.0706 25.7599V23.7837C11.0686 23.08 11.277 22.3918 11.6689 21.8074C12.2573 20.9372 13.3013 20.417 14.4645 20.417Z" fill="black"/>
</svg>
