<svg width="36" height="36" viewBox="0 0 36 36" fill="none" xmlns="http://www.w3.org/2000/svg">
<path d="M13.109 27.3226L13.5931 26.826C16.2373 24.1198 28.3283 11.7184 28.3283 11.7184C28.5766 11.4205 28.6139 11.0109 28.4152 10.6757L28.8869 10.1915C29.2966 9.74464 29.5325 9.1612 29.5449 8.55292C29.5076 7.91982 29.2346 7.32396 28.7877 6.87706C27.8815 5.95844 26.3918 5.94602 25.4856 6.85223L25.0387 7.31155L23.4373 5.74741C23.2759 5.59845 23.0649 5.52395 22.8663 5.53637C22.6552 5.52395 22.4442 5.62327 22.3201 5.78464L16.2125 12.0412C16.0511 12.2026 15.9642 12.426 15.9642 12.6495C15.9642 12.8729 16.0635 13.0964 16.2249 13.2453C16.3862 13.4067 16.6097 13.4936 16.8332 13.4936C17.0566 13.4936 17.28 13.3943 17.4414 13.2329L22.9159 7.60948L23.549 8.23017C23.549 8.23017 9.59589 22.5308 8.93795 23.2136C8.90071 23.2508 8.72694 23.437 8.67728 23.6108L7.24969 28.0177C7.15038 28.3281 7.23726 28.6757 7.47312 28.9115C7.70898 29.1474 8.05659 29.2219 8.36694 29.1101L12.7366 27.5708C12.8856 27.5336 13.0718 27.3598 13.109 27.3226ZM10.7007 23.8715L16.5725 17.8509L18.298 19.5391L12.4262 25.5598L10.7007 23.8715ZM26.6897 8.05637C26.938 7.83292 27.3104 7.84533 27.5587 8.08119C27.6828 8.1805 27.7573 8.32948 27.7573 8.49086C27.7697 8.65223 27.7076 8.81361 27.5959 8.93775L27.1614 9.38464L26.2552 8.50327L26.6897 8.05637ZM24.7656 9.44671L26.4911 11.135L21.6125 16.1377L19.8869 14.4495L24.7656 9.44671ZM18.6952 15.6784L20.4207 17.3667L19.4897 18.3226L17.7642 16.6343L18.6952 15.6784ZM9.19866 27.0867L9.79453 25.2619L11.0111 26.4536L9.19866 27.0867Z" fill="black"/>
</svg>
