<svg width="36" height="36" viewBox="0 0 36 36" fill="none" xmlns="http://www.w3.org/2000/svg">
<path d="M28.8435 13.582L26.285 11.5859C26.1487 11.4787 25.9832 11.4151 25.8102 11.4036C25.6372 11.3921 25.4648 11.4331 25.3155 11.5213L23.5304 12.5703L16.3304 11.3128C15.9881 10.8322 15.5455 10.4318 15.0333 10.1389C14.5211 9.84613 13.9515 9.66799 13.3637 9.61681C12.7759 9.56563 12.1841 9.64264 11.629 9.84251C11.0739 10.0424 10.5688 10.3604 10.1486 10.7745C9.72833 11.1886 9.40301 11.689 9.19504 12.2411C8.98708 12.7933 8.90143 13.3839 8.94402 13.9724C8.9866 14.5608 9.15641 15.133 9.4417 15.6495C9.727 16.1659 10.121 16.6142 10.5965 16.9635L13.1053 25.6197H9.56983C9.33937 25.6197 9.11834 25.7112 8.95538 25.8742C8.79242 26.0371 8.70087 26.2582 8.70087 26.4886V30.1073C8.70087 30.3377 8.79242 30.5587 8.95538 30.7217C9.11834 30.8847 9.33937 30.9762 9.56983 30.9762H24.8574C25.0879 30.9762 25.3089 30.8847 25.4719 30.7217C25.6348 30.5587 25.7264 30.3377 25.7264 30.1073V26.4837C25.7264 26.2532 25.6348 26.0322 25.4719 25.8692C25.3089 25.7063 25.0879 25.6147 24.8574 25.6147H19.6709L16.498 16.7115L22.8116 17.4564L24.1014 18.8554C24.196 18.9574 24.3137 19.0353 24.4446 19.0824C24.5755 19.1294 24.7158 19.1444 24.8537 19.126L27.6642 18.7449C27.8729 18.6943 28.0555 18.5682 28.1767 18.3909C28.2979 18.2137 28.3492 17.9978 28.3207 17.785C28.2921 17.5721 28.1858 17.3774 28.0222 17.2383C27.8585 17.0992 27.6492 17.0257 27.4345 17.0318L25.0759 17.3521L24.0543 16.2448L24.4056 14.0661L25.6916 13.3101L27.7871 14.945C27.8753 15.0274 27.9796 15.0904 28.0935 15.1302C28.2074 15.17 28.3283 15.1856 28.4486 15.1761C28.5689 15.1666 28.6858 15.1322 28.792 15.075C28.8983 15.0178 28.9914 14.9391 29.0656 14.8439C29.1397 14.7487 29.1932 14.6392 29.2227 14.5222C29.2522 14.4052 29.257 14.2834 29.2368 14.1644C29.2166 14.0455 29.1719 13.9321 29.1054 13.8314C29.039 13.7307 28.9523 13.6449 28.8509 13.5795L28.8435 13.582ZM10.661 13.6776C10.661 13.2128 10.7988 12.7585 11.057 12.372C11.3153 11.9856 11.6823 11.6844 12.1117 11.5065C12.5411 11.3287 13.0135 11.2821 13.4694 11.3728C13.9252 11.4635 14.3439 11.6873 14.6726 12.0159C15.0012 12.3446 15.225 12.7633 15.3157 13.2191C15.4064 13.675 15.3599 14.1475 15.182 14.5769C15.0041 15.0063 14.7029 15.3733 14.3165 15.6315C13.93 15.8897 13.4757 16.0275 13.0109 16.0275C12.3879 16.0269 11.7906 15.7791 11.35 15.3385C10.9095 14.898 10.6617 14.3006 10.661 13.6776ZM23.9922 27.3489V29.2383H10.4338V27.3489H23.9922ZM17.8349 25.6197H14.9065L12.6211 17.7381C13.3978 17.8121 14.1793 17.6617 14.873 17.3049L17.8349 25.6197ZM22.3796 15.7246L16.8592 15.0282C17.0122 14.5944 17.0899 14.1376 17.0889 13.6776C17.089 13.5433 17.0824 13.409 17.069 13.2754L22.6329 14.1518L22.3796 15.7246Z" fill="black"/>
<path d="M14.0834 13.6775C14.0834 13.4654 14.0205 13.258 13.9026 13.0817C13.7848 12.9053 13.6173 12.7678 13.4213 12.6866C13.2253 12.6054 13.0097 12.5842 12.8016 12.6256C12.5935 12.667 12.4024 12.7691 12.2524 12.9191C12.1024 13.0691 12.0003 13.2602 11.9589 13.4683C11.9175 13.6763 11.9388 13.892 12.0199 14.088C12.1011 14.284 12.2386 14.4515 12.415 14.5693C12.5913 14.6872 12.7987 14.7501 13.0108 14.7501C13.2951 14.7494 13.5675 14.6362 13.7685 14.4352C13.9695 14.2342 14.0827 13.9618 14.0834 13.6775Z" fill="black"/>
<path d="M14.4 3.99981C14.4961 4.13365 14.6406 4.22481 14.8028 4.25401C14.965 4.2832 15.1321 4.24813 15.2689 4.15622C16.8735 3.13132 18.8038 2.74471 20.6793 3.07261C22.5548 3.40051 24.2394 4.41914 25.401 5.92767C25.4895 6.04498 25.616 6.12793 25.7589 6.16235C25.9018 6.19676 26.0521 6.18051 26.1844 6.11636C26.2122 6.10231 26.2391 6.08655 26.265 6.06919L26.697 5.77001L26.7157 5.7576C26.7827 5.70802 26.8391 5.64561 26.8817 5.574C26.9243 5.50239 26.9523 5.42301 26.9639 5.3405C26.9757 5.25815 26.9707 5.17429 26.9494 5.09389C26.9281 5.0135 26.8908 4.93821 26.8398 4.8725C25.4019 2.99428 23.3101 1.72563 20.9799 1.31857C18.6498 0.911504 16.2517 1.3958 14.2622 2.67525L14.2386 2.69015C14.1026 2.78822 14.0111 2.93622 13.9841 3.10169C13.9571 3.26715 13.9968 3.43657 14.0946 3.57277L14.4 3.99981Z" fill="black"/>
<path d="M16.0138 5.73029L15.9816 5.75264C15.8456 5.8511 15.7544 5.99952 15.7278 6.16527C15.7013 6.33101 15.7416 6.50051 15.84 6.6365L16.1417 7.05857C16.1529 7.07346 16.1653 7.08836 16.1777 7.10202C16.2775 7.21672 16.4148 7.29219 16.5652 7.31494C16.7155 7.33768 16.869 7.30621 16.9983 7.22615C17.9156 6.66925 19.0039 6.46422 20.0609 6.64915C21.118 6.83409 22.0721 7.39641 22.7458 8.23167C22.8354 8.34614 22.9617 8.42637 23.1034 8.45891C23.245 8.49145 23.3936 8.47433 23.5242 8.41043C23.5514 8.3977 23.5776 8.38275 23.6024 8.36574L24.0344 8.06781L24.0629 8.04671C24.1955 7.94453 24.282 7.79396 24.3037 7.62803C24.3253 7.46209 24.2803 7.29435 24.1784 7.1616C23.2294 5.96385 21.8736 5.15636 20.3684 4.89249C18.8633 4.62862 17.3136 4.92677 16.0138 5.73029Z" fill="black"/>
</svg>
