<svg width="36" height="36" viewBox="0 0 36 36" fill="none" xmlns="http://www.w3.org/2000/svg">
<path d="M9.42444 17.5032C9.42444 18.4303 9.69935 19.3366 10.2144 20.1075C10.7295 20.8783 11.4616 21.4791 12.3181 21.8339C13.1746 22.1887 14.1171 22.2815 15.0264 22.1006C15.9356 21.9198 16.7709 21.4733 17.4264 20.8178C18.082 20.1622 18.5284 19.327 18.7093 18.4177C18.8901 17.5084 18.7973 16.566 18.4425 15.7094C18.0878 14.8529 17.487 14.1208 16.7161 13.6058C15.9453 13.0907 15.039 12.8158 14.1119 12.8158C12.8691 12.8171 11.6776 13.3114 10.7988 14.1902C9.92003 15.069 9.42575 16.2605 9.42444 17.5032ZM17.1334 17.5032C17.1334 18.1008 16.9562 18.685 16.6242 19.1819C16.2922 19.6788 15.8203 20.0661 15.2682 20.2948C14.7161 20.5235 14.1085 20.5833 13.5224 20.4667C12.9363 20.3501 12.3979 20.0623 11.9754 19.6398C11.5528 19.2172 11.265 18.6788 11.1484 18.0927C11.0318 17.5066 11.0917 16.8991 11.3204 16.347C11.5491 15.7948 11.9363 15.323 12.4332 14.9909C12.9301 14.6589 13.5143 14.4817 14.1119 14.4817C14.9125 14.4834 15.6798 14.8023 16.2457 15.3687C16.8116 15.935 17.13 16.7026 17.1309 17.5032H17.1334Z" fill="black"/>
<path d="M15.9827 23.2251L14.1119 26.0195L12.2412 23.2202C12.1515 23.0816 12.0217 22.9735 11.8692 22.9103C11.7167 22.8472 11.5485 22.8318 11.3871 22.8664L8.08751 23.5231L8.738 20.2222C8.77186 20.0605 8.75622 19.8922 8.69311 19.7394C8.63001 19.5867 8.52237 19.4564 8.3842 19.3657L5.58613 17.5036L8.38544 15.6329C8.52385 15.5413 8.63179 15.4105 8.69548 15.2573C8.75916 15.104 8.7757 14.9353 8.74296 14.7726L8.09124 11.4718L11.3921 12.1285C11.5535 12.1618 11.7212 12.1459 11.8735 12.0828C12.0257 12.0197 12.1556 11.9124 12.2461 11.7747L14.1082 8.97536L15.979 11.7747C16.069 11.9129 16.1988 12.0206 16.3512 12.0838C16.5037 12.1469 16.6716 12.1625 16.833 12.1285L20.3374 11.4296V9.7326L17.0565 10.3856L14.8046 7.01274C14.7244 6.90464 14.6199 6.81682 14.4996 6.75632C14.3793 6.69582 14.2466 6.66431 14.1119 6.66431C13.9773 6.66431 13.8445 6.69582 13.7242 6.75632C13.604 6.81682 13.4995 6.90464 13.4192 7.01274L11.1637 10.3856L7.19124 9.59356C7.05789 9.56625 6.91982 9.57285 6.78969 9.61276C6.65955 9.65266 6.54152 9.7246 6.44641 9.82198C6.35051 9.91811 6.27957 10.0362 6.23976 10.166C6.19995 10.2959 6.19248 10.4334 6.21799 10.5668L7.00503 14.5392L3.62724 16.806C3.51355 16.8821 3.42038 16.9851 3.35595 17.1058C3.29152 17.2265 3.25781 17.3612 3.25781 17.498C3.25781 17.6349 3.29152 17.7696 3.35595 17.8903C3.42038 18.011 3.51355 18.114 3.62724 18.1901L7.00006 20.4457L6.21303 24.4181C6.18751 24.5515 6.19498 24.689 6.23479 24.8189C6.2746 24.9487 6.34555 25.0668 6.44144 25.1629C6.53707 25.2596 6.65515 25.331 6.78512 25.3708C6.91509 25.4107 7.05291 25.4177 7.18627 25.3913L11.1587 24.6043L13.4143 27.9759C13.49 28.0904 13.5929 28.1843 13.7137 28.2493C13.8346 28.3143 13.9697 28.3483 14.107 28.3483C14.244 28.3474 14.3788 28.313 14.4996 28.2481C14.6203 28.1832 14.7233 28.0898 14.7997 27.9759L17.0552 24.6031L18.8192 24.9519V24.8799C18.8445 24.3693 18.9278 23.8633 19.0675 23.3716L19.0861 23.3071L16.8293 22.8602C16.6679 22.829 16.5008 22.8472 16.3498 22.9123C16.1988 22.9774 16.0709 23.0864 15.9827 23.2251Z" fill="black"/>
<path d="M29.5908 21.4174V9.78811C29.5725 8.76162 29.1519 7.78334 28.4195 7.06387C27.6871 6.34441 26.7015 5.94128 25.6748 5.94128C24.6482 5.94128 23.6626 6.34441 22.9302 7.06387C22.1978 7.78334 21.7772 8.76162 21.7589 9.78811V21.4174C21.0103 22.1872 20.5053 23.1606 20.3068 24.2159C20.1084 25.2712 20.2254 26.3615 20.6433 27.3507C21.0611 28.3398 21.7613 29.1839 22.6562 29.7773C23.5511 30.3708 24.6011 30.6873 25.6748 30.6873C26.7486 30.6873 27.7986 30.3708 28.6935 29.7773C29.5884 29.1839 30.2885 28.3398 30.7064 27.3507C31.1242 26.3615 31.2413 25.2712 31.0428 24.2159C30.8444 23.1606 30.3394 22.1872 29.5908 21.4174ZM25.6755 28.9972C24.8802 28.9983 24.1047 28.749 23.4591 28.2846C22.8135 27.8202 22.3305 27.1643 22.0787 26.4099C21.8269 25.6555 21.819 24.841 22.0562 24.0819C22.2933 23.3228 22.7635 22.6576 23.4 22.1808L23.4248 22.1622V9.78811C23.4386 9.20052 23.6818 8.64165 24.1022 8.23096C24.5227 7.82027 25.0871 7.59034 25.6748 7.59034C26.2626 7.59034 26.827 7.82027 27.2475 8.23096C27.6679 8.64165 27.911 9.20052 27.9248 9.78811V22.1634L27.9497 22.182C28.5863 22.6586 29.0567 23.3235 29.2941 24.0825C29.5315 24.8415 29.5237 25.656 29.272 26.4103C29.0203 27.1647 28.5374 27.8206 27.8918 28.285C27.2462 28.7493 26.4707 28.9985 25.6755 28.9972Z" fill="black"/>
<path d="M26.5035 23.4135V9.99299C26.5035 9.76253 26.4119 9.5415 26.2489 9.37854C26.086 9.21558 25.865 9.12402 25.6345 9.12402C25.404 9.12402 25.183 9.21558 25.02 9.37854C24.8571 9.5415 24.7655 9.76253 24.7655 9.99299V23.452C24.3417 23.6595 24.0015 24.0055 23.8013 24.4328C23.601 24.86 23.5526 25.3429 23.6642 25.8013C23.7758 26.2598 24.0406 26.6664 24.4148 26.9538C24.789 27.2413 25.2502 27.3922 25.7219 27.3818C26.1937 27.3714 26.6477 27.2001 27.0088 26.8964C27.3699 26.5927 27.6165 26.1748 27.7077 25.7118C27.7989 25.2488 27.7292 24.7686 27.5102 24.3507C27.2912 23.9327 26.936 23.6021 26.5035 23.4135Z" fill="black"/>
</svg>
