<svg width="36" height="36" viewBox="0 0 36 36" fill="none" xmlns="http://www.w3.org/2000/svg">
<path d="M24.8524 18.5593C25.3323 18.5593 25.7214 18.1702 25.7214 17.6903C25.7214 17.2104 25.3323 16.8213 24.8524 16.8213C24.3726 16.8213 23.9835 17.2104 23.9835 17.6903C23.9835 18.1702 24.3726 18.5593 24.8524 18.5593Z" fill="black"/>
<path d="M4.00977 15.4063C4.18356 14.0284 5.41255 12.9856 6.86499 12.9856C7.07603 12.9856 7.2499 13.1594 7.2499 13.3704V14.3387C7.2499 14.5498 7.07603 14.7235 6.86499 14.7235H6.81541C6.2816 14.7235 5.82231 15.0835 5.723 15.5677C5.66093 15.8904 5.73539 16.2132 5.94642 16.4491C6.14505 16.6973 6.44294 16.8339 6.7657 16.8339H7.22504C7.75885 14.3387 9.48442 12.2781 11.8431 11.285C11.7189 10.8132 11.6692 10.4036 11.6692 9.99393C11.6692 6.9774 14.1272 4.50708 17.1563 4.50708C20.1729 4.50708 22.6433 6.96499 22.6433 9.99393C22.6433 10.0932 22.6308 10.1926 22.6184 10.2919C23.7729 9.53463 25.0764 9.12497 26.3923 9.12497H27.2613V12.2781C28.3041 13.0849 29.1358 14.1153 29.6572 15.2822H31.0103C31.482 15.2822 31.8792 15.667 31.8792 16.1511V22.3083C31.8792 22.78 31.4944 23.1773 31.0103 23.1773H28.7137C28.3164 23.6986 27.8323 24.1828 27.2488 24.6297V28.4779C27.2488 28.9496 26.864 29.3469 26.3798 29.3469H20.9922C20.5205 29.3469 20.1233 28.9621 20.1233 28.4779V26.2559H17.2307V28.4779C17.2307 28.9496 16.8459 29.3469 16.3617 29.3469H10.9741C10.5024 29.3469 10.1051 28.9621 10.1051 28.4779V24.6421C8.16853 23.1649 7.0513 20.9552 7.02647 18.5594H6.72848C5.93399 18.5594 5.16427 18.2118 4.63047 17.6159C4.14632 17.0077 3.89804 16.2008 4.00977 15.4063ZM21.8736 24.5304V27.609H25.5357V23.7731L25.5729 23.7483C26.8888 22.7428 27.0005 22.5938 27.6212 21.7621L27.8572 21.4518H30.1538V17.0201H28.5274L28.5027 16.9704C27.671 15.0835 27.4847 14.6366 25.5729 13.1842L25.5357 13.1594V10.9498C24.2198 11.1732 23.4749 11.7691 22.6929 12.3898L22.6681 12.4146H14.8597C11.5203 12.4146 8.78916 15.1332 8.78916 18.4849V18.5221C8.78916 19.4035 8.78916 21.4642 11.8306 23.7731L11.8679 23.798V27.6338H15.5301V24.5552H21.8736V24.5304ZM13.5065 10.8008C13.9906 10.7139 14.4376 10.6767 14.8597 10.6767H20.8681C20.9053 10.4408 20.9302 10.2174 20.9302 9.99393C20.9302 7.92084 19.2418 6.23257 17.1686 6.23257C15.0955 6.23257 13.4072 7.92084 13.4072 9.99393C13.4072 10.267 13.432 10.5277 13.5065 10.8008Z" fill="black"/>
</svg>
