<svg width="36" height="36" viewBox="0 0 36 36" fill="none" xmlns="http://www.w3.org/2000/svg">
<path d="M29.9987 20.891C29.9821 19.0531 29.5435 17.2436 28.7167 15.6021C27.8899 13.9606 26.6971 12.5309 25.2303 11.4234C23.7635 10.3159 22.0618 9.56016 20.2566 9.21444C18.4515 8.86873 16.591 8.94228 14.8188 9.42945C13.0466 9.91663 11.41 10.8044 10.0353 12.0243C8.66047 13.2441 7.58428 14.7635 6.8897 16.4652C6.19513 18.1668 5.90075 20.0053 6.02924 21.8388C6.15772 23.6723 6.70559 25.4517 7.63071 27.0399C7.7575 27.2484 7.93581 27.4209 8.14846 27.5406C8.36111 27.6604 8.60098 27.7235 8.84504 27.7239H27.1508C27.3953 27.7233 27.6355 27.6601 27.8485 27.5402C28.0615 27.4202 28.2402 27.2475 28.3674 27.0387C29.4374 25.2085 30.0008 23.1266 29.9999 21.0065L29.9987 20.891ZM28.4471 21.1845C28.4512 22.9967 27.9788 24.7782 27.0769 26.3502L8.93742 26.3825C8.02688 24.7939 7.54983 22.994 7.55399 21.163C7.55815 19.332 8.04336 17.5343 8.96111 15.9499C9.87886 14.3655 11.1969 13.0501 12.7831 12.1355C14.3693 11.2209 16.168 10.7392 17.999 10.7387C20.7691 10.7396 23.4255 11.8404 25.3843 13.7992C27.3431 15.758 28.4439 18.4144 28.4448 21.1845H28.4471Z" fill="black"/>
<path d="M24.081 14.7769C23.9201 14.6566 23.719 14.6029 23.5196 14.627C23.3201 14.6511 23.1376 14.7511 23.01 14.9063L19.0597 19.7843C18.6972 19.6313 18.3063 19.5573 17.9129 19.5671C17.5196 19.5769 17.1329 19.6703 16.7784 19.841C16.424 20.0118 16.1098 20.2561 15.857 20.5576C15.6042 20.8591 15.4185 21.2109 15.3122 21.5898C15.2059 21.9686 15.1813 22.3657 15.2403 22.7547C15.2993 23.1437 15.4404 23.5158 15.6542 23.8461C15.8681 24.1764 16.1496 24.4573 16.4804 24.6704C16.8112 24.8834 17.1836 25.0236 17.5728 25.0817C17.7105 25.102 17.8495 25.112 17.9887 25.1117C18.4939 25.1105 18.9892 24.9713 19.421 24.7091C19.8529 24.447 20.205 24.0718 20.4392 23.6241C20.6734 23.1765 20.7807 22.6733 20.7498 22.1691C20.7188 21.6648 20.5507 21.1786 20.2636 20.7629L24.2173 15.878C24.3446 15.7183 24.4039 15.5148 24.3823 15.3118C24.3607 15.1087 24.2598 14.9224 24.1018 14.7931L24.081 14.7769ZM19.2065 22.3273C19.2065 22.5659 19.1357 22.7991 19.0031 22.9975C18.8706 23.1958 18.6823 23.3504 18.4618 23.4416C18.2414 23.5329 17.999 23.5569 17.765 23.5103C17.531 23.4638 17.3161 23.3489 17.1474 23.1802C16.9787 23.0115 16.8638 22.7966 16.8172 22.5626C16.7707 22.3287 16.7946 22.0861 16.8859 21.8657C16.9772 21.6453 17.1318 21.4569 17.3302 21.3243C17.5285 21.1918 17.7617 21.1211 18.0002 21.1211C18.3201 21.1211 18.627 21.2482 18.8532 21.4744C19.0794 21.7006 19.2065 22.0074 19.2065 22.3273Z" fill="black"/>
<path d="M21.4489 14.9526C20.3873 14.3865 19.2021 14.0924 17.999 14.0965C16.4916 14.0592 15.0146 14.5249 13.8012 15.4201C12.5878 16.3153 11.7069 17.5891 11.2978 19.0404C11.2486 19.2334 11.1248 19.3991 10.9535 19.5008C10.7822 19.6025 10.5776 19.632 10.3846 19.5828C10.1915 19.5336 10.0258 19.4098 9.92407 19.2385C9.82234 19.0673 9.79295 18.8626 9.84213 18.6695C10.3338 16.894 11.4029 15.3329 12.8806 14.2328C14.3584 13.1327 16.1606 12.5563 18.0025 12.5946C19.5496 12.5889 21.0705 12.9935 22.4102 13.7672" fill="black"/>
<path d="M25.2986 16.6006C25.6873 17.2478 25.9789 17.9484 26.164 18.6802C26.1883 18.7758 26.1934 18.8753 26.1791 18.9729C26.1649 19.0705 26.1317 19.1643 26.0811 19.249C26.0306 19.3337 25.9638 19.4075 25.8846 19.4663C25.8055 19.5252 25.7156 19.5678 25.6199 19.5918C25.56 19.6077 25.4982 19.6158 25.4362 19.6161C25.2688 19.616 25.1064 19.56 24.9745 19.457C24.8427 19.354 24.7489 19.2099 24.7083 19.0476C24.6063 18.6447 24.4644 18.253 24.2843 17.8785" fill="black"/>
</svg>
