<svg width="36" height="36" viewBox="0 0 36 36" fill="none" xmlns="http://www.w3.org/2000/svg">
<path d="M31.5802 26.131C31.5554 26.1062 30.5002 24.9765 29.7678 23.4993C31.0837 22.2082 31.8781 20.582 31.8781 18.8069C31.8781 14.9834 28.2161 11.8179 23.4493 11.2469C21.9472 8.491 18.3969 6.55444 14.2756 6.55444C8.77635 6.55444 4.31982 9.98064 4.31982 14.2137C4.31982 15.9889 5.1143 17.6151 6.43015 18.9062C5.69774 20.371 4.64258 21.5131 4.63017 21.5379C4.33224 21.8606 4.24538 22.3324 4.41917 22.7296C4.59296 23.1393 4.99016 23.4 5.43705 23.4C7.99427 23.4 10.0674 22.4317 11.4329 21.5379C11.8674 21.6372 12.3142 21.7117 12.7735 21.7613C14.2756 24.5172 17.8259 26.4538 21.9472 26.4538C22.9403 26.4538 23.8962 26.342 24.8024 26.131C26.1679 27.0124 28.2286 27.9931 30.7982 27.9931C31.2327 27.9931 31.6299 27.7324 31.8161 27.3227C31.965 26.9255 31.8782 26.4538 31.5802 26.131ZM11.7557 20.0607L11.1225 19.9117L10.5764 20.2717C9.62051 20.8924 8.15566 21.6248 6.3805 21.8234C6.80257 21.2772 7.34876 20.5075 7.79565 19.6013L8.2922 18.6082L7.49773 17.8262C6.7405 17.0813 5.84674 15.8524 5.84674 14.2137C5.84674 10.8372 9.62047 8.09374 14.2632 8.09374C18.9059 8.09374 22.6797 10.8372 22.6797 14.2137C22.6797 17.5903 18.9059 20.3338 14.2632 20.3338C13.419 20.3462 12.575 20.2469 11.7557 20.0607ZM25.6217 24.8524L25.0755 24.4924L24.4424 24.6413C23.6231 24.8275 22.7666 24.9269 21.9224 24.9269C18.8066 24.9269 16.088 23.6855 14.6356 21.8482C19.961 21.6993 24.219 18.3351 24.219 14.2013C24.219 13.742 24.1569 13.3075 24.0575 12.8731C27.6699 13.5682 30.3389 15.9517 30.3389 18.7944C30.3389 20.433 29.4451 21.662 28.6879 22.4069L27.8934 23.1889L28.39 24.182C28.8368 25.0882 29.383 25.8703 29.8051 26.4041C28.0299 26.2055 26.5775 25.4855 25.6217 24.8524Z" fill="black"/>
</svg>
