<svg width="36" height="36" viewBox="0 0 36 36" fill="none" xmlns="http://www.w3.org/2000/svg">
<path d="M31.4937 19.254H30.091C30.5503 18.1864 30.7737 17.1188 30.7737 15.9892C30.7737 13.9037 30.0537 11.9795 28.7502 10.5644C27.4344 9.13677 25.622 8.34229 23.6482 8.34229C22.1709 8.34229 20.8303 8.80161 19.6386 9.72023C19.0799 10.1547 18.5709 10.6637 18.1241 11.2719C17.6772 10.6761 17.1682 10.1547 16.6096 9.72023C15.4179 8.80161 14.0772 8.34229 12.5999 8.34229C10.6261 8.34229 8.82619 9.12436 7.49792 10.5644C6.19447 11.9795 5.47444 13.9037 5.47444 15.9892C5.47444 17.1188 5.69788 18.1864 6.15719 19.254H4.75446C4.27032 19.254 3.8855 19.6388 3.8855 20.123C3.8855 20.6071 4.27032 20.9919 4.75446 20.9919H7.11308C7.37377 21.3768 7.67171 21.774 7.99447 22.1588C9.52136 23.9961 11.6937 25.8581 14.2261 28.0057C15.0827 28.7381 16.0634 29.5699 17.0689 30.4512C17.3544 30.6995 17.7268 30.8485 18.1241 30.8485C18.5089 30.8485 18.8813 30.7119 19.1792 30.4512C20.2096 29.545 21.2151 28.6885 22.0344 28.0057C24.5544 25.8581 26.7392 23.9961 28.2661 22.1588C28.5889 21.7616 28.8868 21.3768 29.1475 20.9919H31.5061C31.9903 20.9919 32.3751 20.6071 32.3751 20.123C32.3751 19.6388 31.9654 19.254 31.4937 19.254ZM7.19994 15.9892C7.19994 14.3382 7.75857 12.8237 8.76408 11.7188C9.75718 10.6388 11.1227 10.0554 12.5999 10.0554C13.6799 10.0554 14.6855 10.403 15.5544 11.0857C16.3489 11.694 16.8951 12.4637 17.2179 13.0099C17.4041 13.3326 17.7516 13.5188 18.1241 13.5188C18.4965 13.5188 18.8317 13.3326 19.0303 13.0099C19.353 12.4637 19.8992 11.694 20.6937 11.0857C21.5751 10.403 22.5682 10.0554 23.6482 10.0554C25.1254 10.0554 26.491 10.6513 27.4841 11.7188C28.4896 12.8113 29.0482 14.3257 29.0482 15.9892C29.0482 17.1188 28.7751 18.174 28.1916 19.254H21.3516C21.0537 19.254 20.7806 19.403 20.6192 19.6513L18.9434 22.2085L16.8455 15.5919C16.7461 15.2692 16.4482 15.0333 16.1131 14.9961C15.7655 14.9588 15.4427 15.1326 15.2689 15.4306L13.0593 19.2664H8.0689C7.47304 18.174 7.19994 17.1188 7.19994 15.9892ZM26.9255 21.0788C25.4979 22.8044 23.3751 24.6168 20.9048 26.7147C20.1103 27.385 19.1296 28.2292 18.1117 29.1105C17.1186 28.2416 16.1627 27.4347 15.331 26.7147C12.8606 24.6168 10.7379 22.8044 9.31028 21.0788C9.28545 21.054 9.27304 21.0292 9.24821 21.0043H13.5558C13.8662 21.0043 14.1517 20.843 14.3131 20.5699L15.7903 18.0002L17.8386 24.4802C17.9379 24.803 18.211 25.0388 18.5462 25.0761C18.5834 25.0761 18.6206 25.0885 18.6703 25.0885C18.9558 25.0885 19.2289 24.9395 19.4027 24.6912L21.8234 20.9919H26.9999C26.9751 21.0168 26.9503 21.054 26.9255 21.0788Z" fill="black"/>
</svg>
