<svg width="36" height="36" viewBox="0 0 36 36" fill="none" xmlns="http://www.w3.org/2000/svg">
<path d="M19.5467 18.1691H16.452C16.4067 18.1691 16.3701 18.2057 16.3701 18.251V18.7388C16.3701 18.7841 16.4067 18.8208 16.452 18.8208H19.5467C19.592 18.8208 19.6287 18.7841 19.6287 18.7388V18.251C19.6287 18.2057 19.592 18.1691 19.5467 18.1691Z" fill="black"/>
<path d="M19.5467 16.8656H16.452C16.4067 16.8656 16.3701 16.9023 16.3701 16.9475V17.1102C16.3701 17.1554 16.4067 17.1921 16.452 17.1921H19.5467C19.592 17.1921 19.6287 17.1554 19.6287 17.1102V16.9475C19.6287 16.9023 19.592 16.8656 19.5467 16.8656Z" fill="black"/>
<path d="M19.5467 14.2587H16.452C16.4067 14.2587 16.3701 14.2953 16.3701 14.3406V14.8285C16.3701 14.8737 16.4067 14.9104 16.452 14.9104H19.5467C19.592 14.9104 19.6287 14.8737 19.6287 14.8285V14.3406C19.6287 14.2953 19.592 14.2587 19.5467 14.2587Z" fill="black"/>
<path d="M19.5467 17.5173H16.452C16.4067 17.5173 16.3701 17.554 16.3701 17.5993V17.7619C16.3701 17.8071 16.4067 17.8438 16.452 17.8438H19.5467C19.592 17.8438 19.6287 17.8071 19.6287 17.7619V17.5993C19.6287 17.554 19.592 17.5173 19.5467 17.5173Z" fill="black"/>
<path d="M15.4738 14.9102H15.6414C15.6629 14.9099 15.6834 14.9011 15.6985 14.8858C15.7136 14.8704 15.7221 14.8498 15.7221 14.8283V13.6068H17.0255C17.0473 13.6068 17.0681 13.5981 17.0835 13.5828C17.0988 13.5674 17.1075 13.5466 17.1075 13.5248V13.3622C17.1075 13.3405 17.0988 13.3196 17.0835 13.3043C17.0681 13.2889 17.0473 13.2803 17.0255 13.2803H15.4738C15.4523 13.2806 15.4318 13.2894 15.4167 13.3047C15.4016 13.32 15.3931 13.3407 15.3931 13.3622V14.8283C15.3931 14.8498 15.4016 14.8704 15.4167 14.8858C15.4318 14.9011 15.4523 14.9099 15.4738 14.9102Z" fill="black"/>
<path d="M19.5467 15.562H16.452C16.4067 15.562 16.3701 15.5987 16.3701 15.6439V16.1318C16.3701 16.1771 16.4067 16.2137 16.452 16.2137H19.5467C19.592 16.2137 19.6287 16.1771 19.6287 16.1318V15.6439C19.6287 15.5987 19.592 15.562 19.5467 15.562Z" fill="black"/>
<path d="M17.0218 19.4725H15.7184V18.2484C15.7184 18.2269 15.7099 18.2063 15.6948 18.1909C15.6797 18.1756 15.6592 18.1668 15.6377 18.1665H15.4738C15.4523 18.1668 15.4318 18.1756 15.4167 18.1909C15.4016 18.2063 15.3931 18.2269 15.3931 18.2484V19.7145C15.3931 19.736 15.4016 19.7567 15.4167 19.772C15.4318 19.7874 15.4523 19.7961 15.4738 19.7965H17.0218C17.0435 19.7965 17.0644 19.7878 17.0797 19.7725C17.0951 19.7571 17.1037 19.7363 17.1037 19.7145V19.5519C17.1031 19.5306 17.0942 19.5104 17.0789 19.4956C17.0636 19.4807 17.0431 19.4724 17.0218 19.4725Z" fill="black"/>
<path d="M20.5262 13.2827H18.9782C18.9565 13.2827 18.9357 13.2913 18.9203 13.3067C18.9049 13.3221 18.8963 13.3429 18.8963 13.3646V13.531C18.8963 13.5527 18.9049 13.5736 18.9203 13.5889C18.9357 13.6043 18.9565 13.6129 18.9782 13.6129H20.2817V14.8344C20.2817 14.856 20.2901 14.8766 20.3052 14.8919C20.3203 14.9073 20.3409 14.916 20.3624 14.9164H20.5262C20.5477 14.916 20.5683 14.9073 20.5834 14.8919C20.5985 14.8766 20.6069 14.856 20.6069 14.8344V13.3622C20.6063 13.3411 20.5975 13.3211 20.5825 13.3063C20.5675 13.2915 20.5473 13.283 20.5262 13.2827Z" fill="black"/>
<path d="M20.5262 18.1691H20.3586C20.3371 18.1694 20.3166 18.1782 20.3015 18.1935C20.2864 18.2088 20.278 18.2295 20.278 18.251V19.4725H18.9745C18.9528 19.4725 18.9319 19.4811 18.9166 19.4965C18.9012 19.5119 18.8926 19.5327 18.8926 19.5544V19.717C18.8926 19.7388 18.9012 19.7596 18.9166 19.775C18.9319 19.7903 18.9528 19.799 18.9745 19.799H20.5225C20.544 19.7987 20.5645 19.7899 20.5796 19.7745C20.5947 19.7592 20.6032 19.7386 20.6032 19.717V18.2485C20.6026 18.2281 20.5944 18.2085 20.5801 18.1938C20.5659 18.1791 20.5467 18.1703 20.5262 18.1691Z" fill="black"/>
<path d="M23.8656 4.53101H12.1345C11.4517 4.53199 10.797 4.80369 10.3142 5.28655C9.83134 5.7694 9.55964 6.42401 9.55865 7.10687V28.8931C9.55964 29.5759 9.83134 30.2305 10.3142 30.7134C10.797 31.1962 11.4517 31.4679 12.1345 31.4689H23.8656C24.5484 31.4679 25.203 31.1962 25.6859 30.7134C26.1687 30.2305 26.4404 29.5759 26.4414 28.8931V7.10687C26.4404 6.42401 26.1687 5.7694 25.6859 5.28655C25.203 4.80369 24.5484 4.53199 23.8656 4.53101ZM24.6414 28.8931C24.6414 29.0988 24.5597 29.2962 24.4142 29.4417C24.2687 29.5872 24.0713 29.6689 23.8656 29.6689H12.1345C11.9287 29.6689 11.7314 29.5872 11.5859 29.4417C11.4404 29.2962 11.3587 29.0988 11.3587 28.8931V7.10687C11.3587 6.9011 11.4404 6.70375 11.5859 6.55825C11.7314 6.41275 11.9287 6.33101 12.1345 6.33101H23.8656C24.0713 6.33101 24.2687 6.41275 24.4142 6.55825C24.5597 6.70375 24.6414 6.9011 24.6414 7.10687V28.8931Z" fill="black"/>
<path d="M12.662 24.9752H23.3379V7.62073H12.662V24.9752ZM14.4 9.35866H21.6V23.2373H14.4V9.35866Z" fill="black"/>
<path d="M18 28.7642C18.7898 28.7642 19.4301 28.1239 19.4301 27.3341C19.4301 26.5443 18.7898 25.9041 18 25.9041C17.2102 25.9041 16.5699 26.5443 16.5699 27.3341C16.5699 28.1239 17.2102 28.7642 18 28.7642Z" fill="black"/>
</svg>
