<svg width="36" height="36" viewBox="0 0 36 36" fill="none" xmlns="http://www.w3.org/2000/svg">
<path d="M29.1971 13.2926L29.1723 13.2827L29.1785 13.2604C29.2804 12.8544 29.3321 12.4375 29.3324 12.019C29.3308 10.6798 28.7981 9.396 27.8512 8.44907C26.9042 7.50215 25.6204 6.96945 24.2813 6.9678C23.5866 6.96608 22.8992 7.10898 22.2628 7.38739L22.2404 7.39856L22.2255 7.37746C21.2722 6.07624 19.9407 5.10078 18.4126 4.58413C16.8846 4.06748 15.2343 4.03479 13.6869 4.49052C12.1396 4.94625 10.7705 5.86822 9.76642 7.13066C8.76233 8.39311 8.17212 9.93456 8.0763 11.5448V11.5646L8.05644 11.5721C6.66664 12.094 5.4996 13.0797 4.75243 14.3626C4.00526 15.6454 3.72377 17.1468 3.95549 18.6132C4.18722 20.0796 4.91796 21.4211 6.02429 22.411C7.13062 23.401 8.54473 23.9787 10.0277 24.0467V28.9526C10.0297 29.4781 10.2398 29.9814 10.6121 30.3523C10.9844 30.7232 11.4885 30.9314 12.014 30.9314H23.9957C24.5195 30.9288 25.021 30.7194 25.3912 30.3488C25.7613 29.9782 25.9701 29.4764 25.972 28.9526V24.0542H26.3792C27.1345 24.055 27.8826 23.9068 28.5806 23.6181C29.2786 23.3294 29.9128 22.9059 30.4469 22.3718C30.981 21.8377 31.4045 21.2035 31.6932 20.5055C31.9819 19.8075 32.1301 19.0594 32.1292 18.3041C32.1287 17.2838 31.8569 16.282 31.3417 15.4014C30.8264 14.5208 30.0863 13.793 29.1971 13.2926ZM24.1956 28.9502C24.1961 28.9767 24.1913 29.0031 24.1815 29.0278C24.1716 29.0525 24.157 29.0749 24.1384 29.0939C24.1198 29.1129 24.0976 29.1279 24.0731 29.1382C24.0486 29.1485 24.0223 29.1538 23.9957 29.1538H12.0053C11.9787 29.1538 11.9524 29.1485 11.9279 29.1382C11.9034 29.1279 11.8812 29.1129 11.8626 29.0939C11.844 29.0749 11.8294 29.0525 11.8195 29.0278C11.8097 29.0031 11.8049 28.9767 11.8054 28.9502V22.4131C11.8054 22.3599 11.8264 22.309 11.8639 22.2713C11.9013 22.2336 11.9521 22.2123 12.0053 22.212H23.9957C24.0489 22.2123 24.0997 22.2336 24.1371 22.2713C24.1746 22.309 24.1956 22.3599 24.1956 22.4131V28.9502ZM13.9865 20.4343V18.5983C13.9865 17.5332 14.4096 16.5118 15.1627 15.7587C15.9158 15.0055 16.9373 14.5824 18.0024 14.5824C19.0674 14.5824 20.0889 15.0055 20.842 15.7587C21.5951 16.5118 22.0182 17.5332 22.0182 18.5983V20.4343H13.9865ZM27.4344 22.1908C27.2519 22.2393 26.5654 22.2765 25.9658 22.3001C25.9364 21.797 25.716 21.324 25.3496 20.978C24.9832 20.6319 24.4985 20.4387 23.9945 20.438H23.7946V20.4057C23.8008 20.0582 23.8133 19.1892 23.7946 18.6492C23.7615 17.9465 23.6363 17.2512 23.4222 16.5811C23.0095 15.4771 22.2697 14.5254 21.3017 13.8531C20.3337 13.1808 19.1836 12.8199 18.005 12.8187C16.8264 12.8175 15.6755 13.176 14.7061 13.8463C13.7368 14.5166 12.995 15.4668 12.58 16.5699C12.5204 16.6828 12.2312 17.2998 12.2151 18.602V20.438H12.0077C11.4995 20.4399 11.0112 20.6366 10.6436 20.9876C10.276 21.3387 10.0569 21.8173 10.0315 22.3249C8.85731 22.2577 7.75042 21.755 6.92719 20.9151C6.10397 20.0752 5.62359 18.9584 5.57999 17.7831C5.53638 16.6079 5.93267 15.4586 6.69138 14.5599C7.4501 13.6613 8.51669 13.078 9.68264 12.9239C9.72532 12.9181 9.76396 12.8956 9.79021 12.8615C9.81647 12.8273 9.82822 12.7842 9.82292 12.7415C9.79437 12.5017 9.78028 12.2604 9.78071 12.019C9.78148 10.5998 10.2751 9.22503 11.1772 8.12953C12.0794 7.03403 13.334 6.28586 14.7266 6.01291C16.1192 5.73995 17.5634 5.95915 18.8124 6.63305C20.0613 7.30694 21.0374 8.39369 21.5738 9.70753C21.5843 9.7328 21.6009 9.75505 21.6222 9.77224C21.6435 9.78944 21.6687 9.80103 21.6956 9.80597C21.7225 9.8109 21.7502 9.80903 21.7762 9.8005C21.8022 9.79198 21.8257 9.77709 21.8444 9.75719C22.1544 9.41908 22.5317 9.14947 22.9519 8.96563C23.3722 8.78179 23.8263 8.68777 24.285 8.6896C25.1674 8.69058 26.0133 9.04154 26.6372 9.66548C27.2612 10.2894 27.6121 11.1354 27.6131 12.0177C27.6157 12.7599 27.3677 13.4812 26.9093 14.0648C26.8921 14.0876 26.8811 14.1143 26.8771 14.1426C26.8732 14.1708 26.8766 14.1996 26.8869 14.2262C26.8972 14.2522 26.914 14.2751 26.9358 14.2927C26.9575 14.3103 26.9834 14.322 27.011 14.3267C27.9206 14.4717 28.753 14.9241 29.3694 15.6085C29.9857 16.2929 30.3489 17.1679 30.3983 18.0877C30.4476 19.0074 30.1802 19.9162 29.6407 20.6627C29.1011 21.4091 28.3219 21.9481 27.4331 22.1896L27.4344 22.1908Z" fill="black"/>
<path d="M18.0112 23.436C17.6748 23.4365 17.3476 23.5457 17.0784 23.7473C16.8091 23.949 16.6123 24.2324 16.5174 24.5551C16.4224 24.8778 16.4344 25.2226 16.5515 25.5379C16.6686 25.8533 16.8845 26.1223 17.1671 26.3049L17.182 26.3148V27.1205C17.182 27.2295 17.2035 27.3375 17.2452 27.4383C17.2869 27.539 17.3481 27.6306 17.4252 27.7077C17.5023 27.7848 17.5939 27.846 17.6947 27.8877C17.7954 27.9295 17.9034 27.9509 18.0125 27.9509C18.1215 27.9509 18.2295 27.9295 18.3303 27.8877C18.431 27.846 18.5226 27.7848 18.5997 27.7077C18.6768 27.6306 18.738 27.539 18.7797 27.4383C18.8215 27.3375 18.843 27.2295 18.843 27.1205V26.3173L18.8579 26.3073C19.1406 26.1247 19.3566 25.8554 19.4737 25.5398C19.5907 25.2242 19.6025 24.8792 19.5072 24.5564C19.4119 24.2335 19.2147 23.9502 18.9451 23.7487C18.6754 23.5472 18.3478 23.4384 18.0112 23.4385V23.436Z" fill="black"/>
</svg>
