<svg width="36" height="36" viewBox="0 0 36 36" fill="none" xmlns="http://www.w3.org/2000/svg">
<path d="M27.8652 14.3318H23.7922V10.2601C23.7922 9.46991 23.4783 8.71211 22.9196 8.15338C22.3609 7.59465 21.6031 7.28076 20.8129 7.28076H8.13471C7.34454 7.28076 6.58674 7.59465 6.02802 8.15338C5.46929 8.71211 5.1554 9.46991 5.1554 10.2601V17.3061C5.1554 18.0963 5.46929 18.8541 6.02802 19.4128C6.58674 19.9716 7.34454 20.2855 8.13471 20.2855H9.38974V22.4206C9.38974 22.6018 9.46163 22.7756 9.58964 22.9038C9.71765 23.0321 9.89131 23.1043 10.0725 23.1046C10.2169 23.103 10.3569 23.0542 10.471 22.9656L13.6166 21.1867V24.351C13.6166 25.1411 13.9305 25.8989 14.4893 26.4577C15.048 27.0164 15.8058 27.3303 16.5959 27.3303H20.7831L25.5351 30.0191C25.6368 30.093 25.757 30.1372 25.8824 30.1469C26.0077 30.1566 26.1333 30.1314 26.2452 30.074C26.3571 30.0167 26.4509 29.9294 26.5162 29.822C26.5815 29.7146 26.6157 29.5912 26.6151 29.4654V27.3303H27.8702C28.6592 27.3286 29.4154 27.014 29.9728 26.4555C30.5302 25.8969 30.8433 25.1401 30.8433 24.351V17.3061C30.8419 16.5171 30.5276 15.7607 29.9693 15.2031C29.411 14.6455 28.6543 14.3321 27.8652 14.3318ZM8.13471 18.5599C7.80228 18.5596 7.48356 18.4274 7.2485 18.1923C7.01344 17.9573 6.88124 17.6386 6.88091 17.3061V10.2601C6.88124 9.92753 7.0134 9.60869 7.24843 9.37343C7.48345 9.13817 7.80217 9.00569 8.13471 9.00504H20.8179C21.1505 9.00569 21.4694 9.13813 21.7046 9.37335C21.9398 9.60858 22.0723 9.92742 22.0729 10.2601V17.3061C22.0723 17.6387 21.9398 17.9574 21.7045 18.1924C21.4693 18.4274 21.1504 18.5596 20.8179 18.5599H14.7724L11.1115 20.633V18.5599H8.13471ZM29.114 17.3061V24.3522C29.1137 24.6846 28.9815 25.0033 28.7464 25.2384C28.5114 25.4735 28.1926 25.6057 27.8602 25.606H24.8809V27.6828L21.5813 25.8208L21.2238 25.6147H16.5811C16.2485 25.6144 15.9297 25.4822 15.6944 25.2472C15.4592 25.0122 15.3267 24.6934 15.326 24.3609V20.2792H20.8179C21.608 20.2792 22.3658 19.9654 22.9246 19.4066C23.4833 18.8479 23.7972 18.0901 23.7972 17.2999V16.0511H27.8702C28.2018 16.0531 28.5193 16.1861 28.7532 16.4212C28.9872 16.6564 29.1187 16.9745 29.119 17.3061H29.114Z" fill="black"/>
</svg>
