<svg width="36" height="36" viewBox="0 0 36 36" fill="none" xmlns="http://www.w3.org/2000/svg">
<path d="M27.6059 19.6137C27.5091 18.2308 27.2881 16.9472 25.6644 16.4557C25.1848 16.3103 24.6729 16.3103 24.1933 16.4557C24.1428 16.3432 24.0821 16.2356 24.0121 16.1341C23.6863 15.612 23.1864 15.222 22.6007 15.033C21.9932 14.8456 21.3365 14.903 20.7709 15.1932C20.6292 14.941 20.4481 14.713 20.2346 14.5179C19.895 14.205 19.4735 13.9952 19.0192 13.9128C18.5649 13.8303 18.0965 13.8788 17.6687 14.0524L17.6351 14.0635H17.6202C17.6202 13.9059 17.6103 13.7321 17.6103 13.6663H18.9932C19.3778 13.6653 19.7462 13.5118 20.0178 13.2396C20.2894 12.9673 20.4419 12.5984 20.4419 12.2139V4.96545C20.4416 4.58111 20.2889 4.21256 20.0174 3.94056C19.7458 3.66855 19.3776 3.51527 18.9932 3.51428H10.6213C10.2361 3.51428 9.86663 3.66705 9.59389 3.93909C9.32115 4.21114 9.16744 4.58024 9.16645 4.96545V12.2188C9.16743 12.6042 9.32111 12.9734 9.59382 13.2456C9.86652 13.5179 10.236 13.6709 10.6213 13.6712H12.3891C12.3543 14.7463 12.3208 15.8226 12.286 16.982V17.2539C12.286 17.3892 12.286 17.5195 12.2786 17.6524C12.1197 17.571 11.9534 17.5049 11.782 17.455C10.8771 17.1906 9.96093 17.3308 9.26824 17.8584C8.97465 18.0707 8.73691 18.351 8.57541 18.6753C8.4139 18.9996 8.33344 19.3583 8.34093 19.7205C8.34467 20.14 8.43512 20.5542 8.60659 20.937C8.78162 21.297 8.979 21.6521 9.17017 21.9947C9.30921 22.243 9.45197 22.5024 9.58479 22.7594C10.0813 23.6979 10.491 24.5395 10.8373 25.3328C11.0459 25.8095 11.2408 26.2886 11.4196 26.7355C11.6678 27.345 11.8764 27.8528 12.1321 28.3493C12.4494 28.9361 12.8295 29.4868 13.2655 29.9917C13.5898 30.3426 13.8364 30.758 13.9892 31.2107C14.0128 31.2802 14.0339 31.3696 14.055 31.459C14.1431 31.8438 14.2921 32.4856 15.0059 32.4856H23.1543C24.104 32.4856 25.3342 30.1394 25.3342 30.1394C25.9127 29.1177 26.3198 28.3692 26.6997 27.3227C27.1339 26.1261 27.4223 24.8816 27.5587 23.6159C27.6827 22.2853 27.6985 20.9469 27.6059 19.6137ZM14.8036 8.49966C13.7558 8.59773 13.0147 9.21221 12.6634 10.2748C12.5379 10.6651 12.4697 11.0716 12.4611 11.4815L12.44 12.1021H10.7368V5.0809H18.8765V12.1034H17.5346C17.5036 11.6068 17.4663 11.1897 17.4179 10.8061C17.2193 9.29415 16.1691 8.36684 14.8036 8.49966ZM13.6267 21.451C13.7061 21.4338 13.7777 21.3911 13.8306 21.3295C13.8835 21.2679 13.9148 21.1907 13.9197 21.1096C13.9965 20.337 14.0305 19.5608 14.0215 18.7845C14.0215 18.5747 14.0215 18.3512 14.0215 18.1005C14.0215 15.8015 14.0215 13.6315 14.1593 11.2357C14.1965 10.5715 14.6012 10.2227 14.9798 10.2215C15.2976 10.2215 15.6837 10.4772 15.7247 11.1984C15.8724 13.3609 15.9543 15.218 16.0002 17.4053C16.0114 18.0124 16.4236 18.3277 16.827 18.3277H16.8357C17.2491 18.3277 17.6687 17.985 17.6687 17.347V17.1769C17.6687 16.9386 17.6687 16.7126 17.6761 16.4668C17.7022 15.861 18.1156 15.5817 18.514 15.5743C18.9125 15.5668 19.3607 15.835 19.4128 16.4569C19.4376 16.766 19.4401 17.0863 19.4426 17.3954C19.4426 17.6275 19.4426 17.8671 19.4575 18.1017C19.4611 18.3134 19.5487 18.515 19.7009 18.6621C19.8532 18.8093 20.0576 18.8899 20.2693 18.8863C20.481 18.8827 20.6826 18.7951 20.8298 18.6428C20.9769 18.4906 21.0575 18.2861 21.0539 18.0744V17.9056C21.0539 17.7616 21.0539 17.625 21.0663 17.5071C21.1073 16.8678 21.4896 16.6381 21.8111 16.6381C22.2282 16.6381 22.6677 17.0106 22.7 17.6908C22.7 17.8237 22.7 18.0136 22.7 18.2147C22.7 18.4158 22.6938 18.5871 22.7 18.7621C22.7005 18.8656 22.7214 18.9679 22.7616 19.0633C22.8018 19.1586 22.8604 19.245 22.9341 19.3176C23.0079 19.3902 23.0952 19.4474 23.1912 19.4861C23.2871 19.5248 23.3898 19.5441 23.4932 19.543H23.5131C23.7222 19.5487 23.9252 19.4715 24.0777 19.3283C24.2302 19.1851 24.32 18.9874 24.3274 18.7783C24.3274 18.35 24.5335 18.0769 24.8786 18.0335C25.0684 18.011 25.2599 18.0567 25.4191 18.1624C25.5783 18.2682 25.6947 18.4271 25.7476 18.6107C25.9561 19.3555 25.9338 20.5373 25.9151 21.487C25.8829 23.2795 25.6358 25.8318 24.6489 27.8292C23.7676 29.6118 22.9991 30.7303 22.772 30.7799H15.5372C15.3833 30.0351 15.1201 29.4678 14.7167 29.011C13.808 27.9781 13.5187 27.3724 12.9787 26.0317C12.1693 24.0045 11.7373 23.102 10.2241 20.3511C9.9659 19.8757 9.97583 19.4821 10.2551 19.245C10.6114 18.9421 11.3724 18.9285 12.0229 19.4337C12.6733 19.939 12.939 20.4877 13.2506 21.2648C13.2783 21.3374 13.3325 21.397 13.4022 21.4315C13.4719 21.466 13.5521 21.473 13.6267 21.451Z" fill="black"/>
</svg>
