<svg width="36" height="36" viewBox="0 0 36 36" fill="none" xmlns="http://www.w3.org/2000/svg">
<path d="M19.8435 6.19702C19.1001 6.19931 18.3879 6.49563 17.8622 7.02127C17.3366 7.54691 17.0403 8.25918 17.038 9.00254C17.038 9.19448 17.1142 9.37857 17.2499 9.51429C17.3857 9.65001 17.5697 9.72626 17.7617 9.72626C17.9536 9.72626 18.1377 9.65001 18.2734 9.51429C18.4092 9.37857 18.4854 9.19448 18.4854 9.00254C18.4854 8.64167 18.6283 8.29547 18.8827 8.0396C19.1372 7.78373 19.4826 7.63899 19.8435 7.63702C20.0354 7.63702 20.2195 7.56077 20.3552 7.42505C20.491 7.28932 20.5672 7.10524 20.5672 6.9133C20.5672 6.72136 20.491 6.53727 20.3552 6.40155C20.2195 6.26582 20.0354 6.18958 19.8435 6.18958V6.19702Z" fill="black"/>
<path d="M20.6962 18.1166C20.8234 18.1167 20.9486 18.0852 21.0606 18.025C21.1727 17.9647 21.268 17.8776 21.338 17.7715L21.9786 16.8082C22.0612 16.6817 22.1044 16.5335 22.1027 16.3824V14.462C22.1611 14.1057 22.7731 12.9438 23.3888 12.2399C24.2141 11.2707 24.6348 10.0211 24.5639 8.75014C24.4929 7.47916 23.9357 6.28418 23.0077 5.41283C22.0797 4.54149 20.852 4.06056 19.5791 4.06971C18.3062 4.07886 17.0855 4.57738 16.1702 5.46198C15.2396 6.39975 14.716 7.66639 14.7128 8.98749C14.7127 10.185 15.1487 11.3416 15.9393 12.2411C16.5227 12.9065 17.1657 14.0933 17.2216 14.4285V16.3861C17.2194 16.5373 17.2627 16.6856 17.3457 16.8119L17.9851 17.774C18.0556 17.88 18.1511 17.9669 18.2633 18.0271C18.3755 18.0873 18.5008 18.1189 18.6281 18.1191L20.6962 18.1166ZM20.2642 16.5736H19.0663L18.9124 16.1751H20.4182L20.2642 16.5736ZM20.5671 15.0839H18.7646V14.5079H20.5684L20.5671 15.0839ZM17.0987 11.2232C16.5573 10.602 16.2599 9.80531 16.262 8.98129C16.2615 8.07403 16.6183 7.20305 17.2551 6.55687C17.5723 6.24105 17.9491 5.99139 18.3636 5.82239C18.7781 5.6534 19.222 5.56845 19.6696 5.57246C20.324 5.57278 20.9645 5.76154 21.5145 6.11617C22.0645 6.47081 22.5008 6.97632 22.7711 7.57229C23.0415 8.16826 23.1345 8.82947 23.0391 9.4769C22.9437 10.1243 22.6639 10.7306 22.2331 11.2232L22.2219 11.2356C21.7144 11.8407 21.2864 12.5082 20.9482 13.2218H18.3848C18.0426 12.5038 17.6105 11.8322 17.0987 11.2232Z" fill="black"/>
<path d="M25.3947 5.72035H25.4394C25.5594 5.71388 25.6763 5.67944 25.7808 5.6198L27.4653 4.65649C27.6437 4.55443 27.7743 4.38566 27.8283 4.18731C27.8824 3.98896 27.8554 3.77728 27.7533 3.59884C27.7028 3.51048 27.6353 3.43294 27.5548 3.37065C27.4743 3.30836 27.3823 3.26253 27.2841 3.23579C27.0858 3.18178 26.8741 3.20877 26.6956 3.31084L25.0111 4.27415C24.8631 4.35916 24.7472 4.49062 24.6814 4.64816C24.6157 4.80571 24.6037 4.98054 24.6474 5.14557C24.6911 5.3106 24.788 5.45661 24.9231 5.56097C25.0582 5.66534 25.224 5.72223 25.3947 5.72284V5.72035Z" fill="black"/>
<path d="M28.9627 8.2228C28.9508 8.0177 28.8582 7.82565 28.7052 7.68863C28.5521 7.55161 28.351 7.48078 28.1459 7.49162L26.4079 7.58845C26.2094 7.60381 26.0243 7.69495 25.891 7.843C25.7578 7.99104 25.6866 8.18466 25.6922 8.38376C25.6978 8.58285 25.7797 8.77217 25.921 8.91252C26.0624 9.05287 26.2523 9.13349 26.4514 9.13769H26.4948L28.2328 9.04211C28.4381 9.03026 28.6303 8.9375 28.7674 8.78416C28.9044 8.63081 28.9751 8.4294 28.9639 8.22404L28.9627 8.2228Z" fill="black"/>
<path d="M27.8701 11.9359L26.0887 11.1725C25.9001 11.0902 25.6865 11.0862 25.4949 11.1614C25.3033 11.2366 25.1494 11.3848 25.0671 11.5734C24.9848 11.7621 24.9808 11.9757 25.056 12.1673C25.1312 12.3589 25.2794 12.5128 25.468 12.5951L27.2494 13.366C27.3467 13.4079 27.4514 13.4294 27.5573 13.4293C27.6551 13.4298 27.7521 13.4113 27.8428 13.3747C27.9857 13.3185 28.1086 13.2211 28.196 13.0949C28.2835 12.9687 28.3314 12.8194 28.3338 12.6659C28.3362 12.5124 28.2929 12.3616 28.2095 12.2328C28.126 12.1039 28.0062 12.0028 27.8651 11.9421L27.8701 11.9359Z" fill="black"/>
<path d="M14.4955 4.26777L12.8097 3.30446C12.6317 3.21142 12.4246 3.19103 12.2319 3.24756C12.0392 3.30409 11.8759 3.43314 11.7764 3.60758C11.6769 3.78202 11.6489 3.98825 11.6983 4.18291C11.7477 4.37757 11.8706 4.54549 12.0413 4.65136L13.7271 5.61467C13.8323 5.67339 13.9494 5.70775 14.0697 5.71522H14.1119C14.2488 5.71596 14.3833 5.6801 14.5016 5.61134C14.6199 5.54259 14.7177 5.44344 14.7847 5.32418C14.8861 5.14565 14.9126 4.93423 14.8584 4.73622C14.8042 4.53821 14.6737 4.36976 14.4955 4.26777Z" fill="black"/>
<path d="M11.2743 9.03721L13.0122 9.13404H13.0556C13.2575 9.13362 13.4512 9.05456 13.5957 8.91364C13.7402 8.77273 13.8241 8.58105 13.8296 8.37929C13.8351 8.17754 13.7617 7.98158 13.6251 7.83301C13.4885 7.68445 13.2994 7.59497 13.0979 7.58356L11.3599 7.48798C11.1546 7.47645 10.9532 7.54695 10.7999 7.68395C10.6466 7.82096 10.554 8.01325 10.5425 8.21853C10.531 8.4238 10.6015 8.62525 10.7385 8.77855C10.8755 8.93185 11.0678 9.02445 11.273 9.03597L11.2743 9.03721Z" fill="black"/>
<path d="M25.4656 15.1907C25.3067 14.7339 25.3067 14.7339 25.3005 14.7215C25.0448 14.2076 24.5445 14.0536 24.1833 14.1678C23.8804 14.2622 23.5626 14.5849 23.6458 15.1833L23.6557 15.218C23.8531 15.7804 25.5749 20.6938 25.9895 21.8234H23.4856V25.9448C23.4856 26.2323 23.3715 26.5081 23.1683 26.7115C22.9651 26.915 22.6894 27.0294 22.4019 27.0298H18.2805V30.8259C18.2805 30.9698 18.3377 31.1077 18.4394 31.2095C18.5411 31.3112 18.6791 31.3684 18.823 31.3684H19.4735C19.6174 31.3684 19.7553 31.3112 19.8571 31.2095C19.9588 31.1077 20.016 30.9698 20.016 30.8259V28.7652H22.4019C23.1497 28.7645 23.8667 28.4672 24.3955 27.9384C24.9243 27.4096 25.2217 26.6926 25.2223 25.9448V23.5601H26.306C26.7088 23.5594 27.0948 23.3989 27.3793 23.1138C27.6637 22.8286 27.8233 22.4422 27.823 22.0394C27.8217 21.8305 27.7795 21.6239 27.6989 21.4311C27.2805 20.407 25.915 16.4818 25.4656 15.1907Z" fill="black"/>
<path d="M13.1016 10.3284C13.063 10.3284 13.0244 10.3309 12.9861 10.3359L12.9377 10.3483C12.9066 10.3538 12.876 10.3613 12.8458 10.3706C9.28557 11.2582 6.7035 14.3257 6.57936 17.8251C6.53291 18.988 6.74129 20.147 7.18989 21.2209C7.63849 22.2948 8.31647 23.2576 9.17632 24.0419V30.8261C9.17665 30.9701 9.23408 31.1081 9.33602 31.2098C9.43795 31.3115 9.57606 31.3686 9.72005 31.3686H10.3705C10.5144 31.3686 10.6524 31.3114 10.7541 31.2097C10.8559 31.1079 10.913 30.97 10.913 30.8261V23.2673L10.4078 22.8142C9.71653 22.1997 9.17025 21.4395 8.80833 20.5883C8.4464 19.7372 8.27784 18.8163 8.31481 17.8922C8.41784 15.1884 10.4252 12.7938 13.2071 12.0701C13.2071 12.0701 13.3213 12.0391 13.361 12.0229C13.4037 12.0098 13.4452 11.9932 13.4852 11.9733C13.659 11.8856 13.7984 11.742 13.881 11.5657C13.9635 11.3893 13.9844 11.1903 13.9403 11.0006C13.8962 10.8109 13.7897 10.6416 13.6378 10.5197C13.4859 10.3978 13.2975 10.3304 13.1028 10.3284H13.1016Z" fill="black"/>
</svg>
