<svg width="36" height="36" viewBox="0 0 36 36" fill="none" xmlns="http://www.w3.org/2000/svg">
<path d="M18 28.7653C15.8708 28.7655 13.7893 28.1344 12.0188 26.9516C10.2483 25.7689 8.86832 24.0876 8.05334 22.1206C7.23835 20.1535 7.02499 17.9889 7.44023 15.9006C7.85546 13.8123 8.88066 11.894 10.3862 10.3883C11.8916 8.88264 13.8098 7.85723 15.8981 7.44175C17.9864 7.02627 20.151 7.23938 22.1182 8.05414C24.0853 8.8689 25.7667 10.2487 26.9496 12.0191C28.1326 13.7894 28.764 15.8708 28.764 18C28.7611 20.854 27.6261 23.5903 25.6081 25.6085C23.5901 27.6267 20.854 28.762 18 28.7653ZM18 8.97398C16.2145 8.97373 14.469 9.503 12.9842 10.4948C11.4995 11.4867 10.3423 12.8965 9.65886 14.5461C8.97545 16.1957 8.79657 18.0109 9.14485 19.7621C9.49313 21.5134 10.3529 23.122 11.6155 24.3845C12.8781 25.6471 14.4867 26.5069 16.2379 26.8552C17.9892 27.2035 19.8044 27.0246 21.4539 26.3412C23.1035 25.6578 24.5134 24.5005 25.5052 23.0158C26.4971 21.5311 27.0263 19.7856 27.0261 18C27.0231 15.6071 26.0712 13.313 24.3791 11.6209C22.6871 9.92884 20.393 8.97693 18 8.97398Z" fill="black"/>
<path d="M28.0961 28.3557C27.9266 28.3556 27.7609 28.3059 27.6193 28.2128C27.4777 28.1197 27.3664 27.9873 27.2991 27.8317C27.2318 27.6762 27.2115 27.5044 27.2406 27.3374C27.2697 27.1705 27.347 27.0157 27.463 26.8921C29.7254 24.4841 30.9849 21.3042 30.9849 18.0001C30.9849 14.696 29.7254 11.5161 27.463 9.1081C27.3808 9.02576 27.3159 8.92776 27.2723 8.81989C27.2287 8.71203 27.2072 8.5965 27.209 8.48016C27.2109 8.36382 27.2361 8.24904 27.2832 8.14263C27.3302 8.03622 27.3982 7.94034 27.483 7.86069C27.5678 7.78103 27.6677 7.71922 27.7769 7.67892C27.886 7.63861 28.0022 7.62064 28.1184 7.62607C28.2346 7.63149 28.3486 7.6602 28.4535 7.7105C28.5584 7.76079 28.6522 7.83164 28.7292 7.91885C31.2945 10.6488 32.7226 14.254 32.7226 18.0001C32.7226 21.7462 31.2945 25.3514 28.7292 28.0813C28.648 28.1679 28.5499 28.2369 28.441 28.284C28.3322 28.3312 28.2148 28.3556 28.0961 28.3557Z" fill="black"/>
<path d="M8.51336 28.9651C8.29238 28.9649 8.07975 28.8806 7.91874 28.7292C6.45342 27.3526 5.28562 25.6904 4.48734 23.8451C3.68906 21.9998 3.27722 20.0105 3.27722 18C3.27722 15.9894 3.68906 14.0002 4.48734 12.1549C5.28562 10.3096 6.45342 8.64738 7.91874 7.27073C8.00107 7.18852 8.09908 7.12368 8.20695 7.08005C8.31481 7.03643 8.43034 7.01491 8.54668 7.01677C8.66301 7.01864 8.77779 7.04385 8.8842 7.09091C8.99062 7.13797 9.08649 7.20592 9.16615 7.29073C9.24581 7.37554 9.30762 7.47548 9.34792 7.58463C9.38822 7.69378 9.40619 7.80992 9.40077 7.92614C9.39535 8.04237 9.36663 8.15632 9.31634 8.26124C9.26605 8.36616 9.19519 8.45992 9.10798 8.53694C7.81584 9.75127 6.78608 11.2174 6.08217 12.8449C5.37825 14.4724 5.01511 16.2268 5.01511 18C5.01511 19.7732 5.37825 21.5276 6.08217 23.1551C6.78608 24.7826 7.81584 26.2487 9.10798 27.463C9.23483 27.5823 9.32292 27.7369 9.36086 27.9068C9.39879 28.0767 9.38481 28.2541 9.32073 28.416C9.25665 28.5778 9.14542 28.7167 9.00146 28.8146C8.85751 28.9125 8.68746 28.965 8.51336 28.9651Z" fill="black"/>
<path d="M13.2207 15.7034H14.0685L16.0957 20.3585H14.9375L14.5365 19.3654H12.7266L12.3381 20.3585H11.2072L13.2207 15.7034ZM13.6154 17.059L13.0494 18.5064H14.1877L13.6154 17.059Z" fill="black"/>
<path d="M16.8915 15.7034H18.6294C18.8329 15.7033 19.0362 15.7174 19.2377 15.7456C19.4296 15.7702 19.6157 15.8282 19.7876 15.9169C19.948 16.0003 20.084 16.1239 20.1824 16.2756C20.2913 16.4606 20.3439 16.6733 20.3338 16.8876C20.3428 17.1254 20.2642 17.3582 20.1128 17.5419C19.9591 17.7199 19.7568 17.8493 19.5306 17.9143V17.9267C19.6759 17.9451 19.8172 17.987 19.949 18.0508C20.0707 18.1134 20.1801 18.1975 20.2717 18.2991C20.3627 18.3993 20.4327 18.5166 20.4778 18.6442C20.527 18.779 20.5518 18.9215 20.5511 19.065C20.5594 19.2828 20.5047 19.4983 20.3934 19.6857C20.2897 19.8478 20.1499 19.9838 19.985 20.083C19.8115 20.1873 19.6212 20.2608 19.4226 20.3002C19.2186 20.3439 19.0106 20.366 18.802 20.366H16.8915V15.7034ZM17.9181 17.5654H18.6629C18.7415 17.5656 18.8199 17.5564 18.8963 17.5381C18.9697 17.5219 19.0397 17.4933 19.1036 17.4537C19.165 17.4135 19.2156 17.3589 19.2513 17.2948C19.2902 17.2224 19.3095 17.1411 19.3072 17.059C19.3116 16.9795 19.2928 16.9005 19.2531 16.8315C19.2135 16.7626 19.1546 16.7066 19.0837 16.6704C19.0136 16.6338 18.9383 16.6082 18.8603 16.5947C18.7784 16.5794 18.6953 16.5715 18.612 16.5711H17.9144L17.9181 17.5654ZM17.9181 19.4933H18.8392C18.9198 19.4927 19.0001 19.4835 19.0788 19.466C19.1576 19.4496 19.2326 19.4185 19.2997 19.3741C19.3659 19.3301 19.4211 19.2715 19.4611 19.2028C19.5044 19.1247 19.5259 19.0364 19.5232 18.9471C19.5278 18.8513 19.4988 18.7569 19.4413 18.6802C19.3861 18.6121 19.3149 18.5588 19.234 18.525C19.1472 18.4896 19.0562 18.4654 18.9633 18.453C18.8741 18.4407 18.7841 18.434 18.694 18.4332H17.9181V19.4933Z" fill="black"/>
<path d="M23.7861 16.8418C23.6979 16.7328 23.5803 16.6513 23.4472 16.6072C23.3175 16.5597 23.1806 16.5345 23.0425 16.5327C22.9652 16.5331 22.8882 16.5418 22.8128 16.5588C22.7349 16.5756 22.6597 16.6032 22.5894 16.6407C22.5214 16.6757 22.4627 16.7264 22.4181 16.7884C22.3733 16.8542 22.3503 16.9323 22.3523 17.0119C22.3492 17.0746 22.3621 17.1371 22.3896 17.1935C22.4172 17.25 22.4586 17.2985 22.5099 17.3346C22.6328 17.4173 22.767 17.4817 22.9084 17.5258C23.0686 17.5779 23.2399 17.6313 23.4248 17.6835C23.606 17.735 23.7796 17.8102 23.9413 17.9069C24.1021 18.0042 24.2384 18.1372 24.3397 18.2955C24.4535 18.4932 24.5082 18.7193 24.4974 18.9472C24.5027 19.1814 24.4529 19.4135 24.3522 19.625C24.2598 19.8147 24.1252 19.9808 23.9586 20.1104C23.7881 20.2411 23.5937 20.3372 23.3864 20.3934C22.8831 20.5317 22.3498 20.5157 21.8557 20.3475C21.5868 20.2489 21.3406 20.0969 21.132 19.9006L21.8632 19.0974C21.9671 19.2369 22.1035 19.349 22.2604 19.4239C22.4154 19.4985 22.585 19.5375 22.757 19.5381C22.8406 19.5375 22.9239 19.5275 23.0053 19.5083C23.086 19.4912 23.1635 19.4615 23.2349 19.4202C23.3008 19.3829 23.3572 19.3311 23.4 19.2687C23.4421 19.2042 23.4638 19.1285 23.4621 19.0515C23.4644 18.987 23.4509 18.9231 23.4228 18.8651C23.3946 18.8071 23.3527 18.7568 23.3007 18.7188C23.177 18.63 23.0406 18.5605 22.896 18.5127C22.7334 18.4556 22.5584 18.3985 22.3697 18.3414C22.1855 18.2862 22.0087 18.2086 21.8433 18.1105C21.6818 18.0151 21.5435 17.8849 21.4386 17.7294C21.3242 17.5432 21.268 17.3271 21.2773 17.1087C21.2719 16.8906 21.3184 16.6744 21.4129 16.4778C21.5074 16.2812 21.6473 16.1098 21.821 15.9778C21.9906 15.8471 22.1836 15.7498 22.3895 15.6911C22.6052 15.6275 22.8289 15.5953 23.0537 15.5955C23.3123 15.5948 23.5696 15.6324 23.8171 15.7072C24.063 15.7815 24.2896 15.9086 24.4813 16.0796L23.7861 16.8418Z" fill="black"/>
</svg>
