<svg width="36" height="36" viewBox="0 0 36 36" fill="none" xmlns="http://www.w3.org/2000/svg">
<path d="M16.2969 20.6554L17.9901 18.9621H18.0087C18.1209 19.0001 18.238 19.0215 18.3563 19.0255C18.7018 19.0255 19.0394 18.923 19.3267 18.7311C19.6139 18.5392 19.8378 18.2664 19.97 17.9472C20.1022 17.6281 20.1368 17.2769 20.0694 16.9381C20.002 16.5993 19.8356 16.2881 19.5914 16.0438C19.3471 15.7995 19.0359 15.6332 18.6971 15.5658C18.3582 15.4984 18.0071 15.533 17.6879 15.6652C17.3687 15.7974 17.096 16.0212 16.904 16.3085C16.7121 16.5957 16.6097 16.9334 16.6097 17.2788C16.6138 17.3968 16.6351 17.5134 16.673 17.6252C16.673 17.6252 16.673 17.6376 16.673 17.6438L14.981 19.3383L8.21548 12.5728C8.11777 12.4748 8.00169 12.397 7.87387 12.344C7.74606 12.2909 7.60903 12.2636 7.47065 12.2637C7.29098 12.2619 7.11431 12.3097 6.9601 12.4019C6.80589 12.4941 6.68015 12.6271 6.59672 12.7863C5.39621 15.0366 4.9374 17.6087 5.28582 20.1352C5.64634 22.7036 6.82907 25.0861 8.65694 26.9261C10.4848 28.766 12.8595 29.9644 15.4254 30.3419C17.9775 30.7238 20.5846 30.27 22.8575 29.0483C22.9908 28.9751 23.1051 28.8718 23.1913 28.7466C23.2775 28.6213 23.3332 28.4777 23.3541 28.3271C23.3782 28.1634 23.3639 27.9963 23.3124 27.8391C23.2609 27.6818 23.1736 27.5387 23.0574 27.4209L16.2969 20.6554ZM20.9148 27.8964C19.8609 28.2998 18.2135 28.6164 17.146 28.6126C14.4641 28.6057 11.8939 27.5378 9.99686 25.642C7.16899 22.8141 6.27272 18.442 7.74251 14.7241L20.9148 27.8964Z" fill="black"/>
<path d="M31.5434 20.1265C31.4292 15.9086 29.7016 11.8951 26.7166 8.91292C23.7316 5.9307 19.7166 4.20688 15.4986 4.09656C15.4298 4.09672 15.3617 4.11043 15.2982 4.13691C15.2347 4.16339 15.177 4.20211 15.1285 4.25087C15.08 4.29963 15.0415 4.35747 15.0154 4.42109C14.9892 4.48471 14.9758 4.55287 14.976 4.62166V5.43352C14.976 5.56973 15.0299 5.70039 15.126 5.79693C15.222 5.89347 15.3524 5.94804 15.4886 5.9487C19.2238 6.04392 22.7796 7.57018 25.4216 10.2122C28.0636 12.8541 29.5898 16.41 29.6851 20.1451C29.687 20.281 29.7419 20.4108 29.8382 20.5068C29.9344 20.6028 30.0643 20.6574 30.2002 20.659H31.0257C31.1648 20.6571 31.2974 20.6 31.3944 20.5004C31.4915 20.4008 31.5451 20.2668 31.5434 20.1277V20.1265Z" fill="black"/>
<path d="M15.5073 9H15.4911C15.3533 9.00164 15.2217 9.0578 15.1252 9.15621C15.0286 9.25461 14.975 9.38725 14.976 9.5251V10.3444C14.9774 10.479 15.0306 10.6079 15.1244 10.7045C15.2182 10.8011 15.3455 10.8579 15.48 10.8633C20.5162 11.0644 24.6016 15.1448 24.7816 20.1513C24.7849 20.2871 24.8411 20.4162 24.9383 20.5111C25.0355 20.606 25.1659 20.6591 25.3017 20.659H26.1149C26.1839 20.6584 26.2522 20.6441 26.3157 20.6171C26.3793 20.59 26.4368 20.5506 26.4852 20.5013C26.5335 20.4519 26.5716 20.3935 26.5973 20.3294C26.623 20.2653 26.6358 20.1968 26.635 20.1277C26.4177 14.1083 21.5317 9.22097 15.5073 9Z" fill="black"/>
</svg>
