<svg width="36" height="36" viewBox="0 0 36 36" fill="none" xmlns="http://www.w3.org/2000/svg">
<path d="M27.6331 9.18635H27.1366V6.14373C27.1366 6.1183 27.1316 6.09311 27.1218 6.06962C27.1121 6.04612 27.0978 6.02478 27.0798 6.00679C27.0619 5.98881 27.0405 5.97455 27.017 5.96481C26.9935 5.95508 26.9683 5.95007 26.9429 5.95007H26.1273C26.1019 5.95007 26.0767 5.95508 26.0532 5.96481C26.0297 5.97455 26.0084 5.98881 25.9904 6.00679C25.9724 6.02478 25.9581 6.04612 25.9484 6.06962C25.9387 6.09311 25.9337 6.1183 25.9337 6.14373V8.34717H24.8599C24.8086 8.3475 24.7595 8.36801 24.7233 8.40425C24.687 8.4405 24.6665 8.48957 24.6662 8.54083V9.18635H22.68V8.54083C22.6797 8.48957 22.6592 8.4405 22.6229 8.40425C22.5867 8.36801 22.5376 8.3475 22.4864 8.34717H21.4535V6.14373C21.4535 6.1183 21.4485 6.09311 21.4388 6.06962C21.4291 6.04612 21.4148 6.02478 21.3968 6.00679C21.3788 5.98881 21.3575 5.97455 21.334 5.96481C21.3105 5.95508 21.2853 5.95007 21.2599 5.95007H20.4443C20.4189 5.95007 20.3937 5.95508 20.3702 5.96481C20.3467 5.97455 20.3253 5.98881 20.3074 6.00679C20.2894 6.02478 20.2751 6.04612 20.2654 6.06962C20.2556 6.09311 20.2506 6.1183 20.2506 6.14373V8.34717H19.1768C19.1273 8.35002 19.0808 8.37163 19.0466 8.40761C19.0125 8.44359 18.9933 8.49123 18.9931 8.54083V9.18635H17.0069V8.54083C17.0066 8.48957 16.9861 8.4405 16.9498 8.40425C16.9136 8.36801 16.8645 8.3475 16.8133 8.34717H15.7395V6.14373C15.7395 6.1183 15.7344 6.09311 15.7247 6.06962C15.715 6.04612 15.7007 6.02478 15.6827 6.00679C15.6648 5.98881 15.6434 5.97455 15.6199 5.96481C15.5964 5.95508 15.5712 5.95007 15.5458 5.95007H14.7302C14.7048 5.95007 14.6796 5.95508 14.6561 5.96481C14.6326 5.97455 14.6113 5.98881 14.5933 6.00679C14.5753 6.02478 14.561 6.04612 14.5513 6.06962C14.5416 6.09311 14.5366 6.1183 14.5366 6.14373V8.34717H13.5062C13.455 8.3475 13.4059 8.36801 13.3696 8.40425C13.3334 8.4405 13.3129 8.48957 13.3126 8.54083V9.18635H11.3264V8.54083C11.326 8.48957 11.3055 8.4405 11.2693 8.40425C11.233 8.36801 11.184 8.3475 11.1327 8.34717H10.0639V6.14373C10.0639 6.1183 10.0589 6.09311 10.0491 6.06962C10.0394 6.04612 10.0251 6.02478 10.0072 6.00679C9.98917 5.98881 9.96782 5.97455 9.94433 5.96481C9.92083 5.95508 9.89565 5.95007 9.87022 5.95007H9.05463C9.0292 5.95007 9.00402 5.95508 8.98052 5.96481C8.95703 5.97455 8.93568 5.98881 8.9177 6.00679C8.89972 6.02478 8.88545 6.04612 8.87572 6.06962C8.86599 6.09311 8.86098 6.1183 8.86098 6.14373V9.18635H8.36443C8.03519 9.18635 7.71944 9.31713 7.48664 9.54994C7.25383 9.78274 7.12305 10.0985 7.12305 10.4277V25.287C7.12305 25.6163 7.25383 25.932 7.48664 26.1648C7.71944 26.3976 8.03519 26.5284 8.36443 26.5284H8.86098V29.5723C8.86098 29.6236 8.88138 29.6729 8.9177 29.7092C8.95402 29.7455 9.00327 29.7659 9.05463 29.7659H9.87022C9.92158 29.7659 9.97084 29.7455 10.0072 29.7092C10.0435 29.6729 10.0639 29.6236 10.0639 29.5723V27.3763H11.1377C11.1884 27.3763 11.2371 27.3564 11.2733 27.3209C11.3095 27.2853 11.3303 27.237 11.3313 27.1863V26.5408H13.3175V27.1863C13.3175 27.2377 13.3379 27.2869 13.3742 27.3233C13.4106 27.3596 13.4598 27.38 13.5112 27.38H14.544V29.5847C14.544 29.636 14.5644 29.6853 14.6007 29.7216C14.637 29.7579 14.6863 29.7783 14.7377 29.7783H15.5533C15.6046 29.7783 15.6539 29.7579 15.6902 29.7216C15.7265 29.6853 15.7469 29.636 15.7469 29.5847V27.3763H16.8207C16.8701 27.3744 16.9169 27.3536 16.9516 27.3183C16.9862 27.283 17.006 27.2358 17.0069 27.1863V26.5408H18.9931V27.1863C18.9931 27.2377 19.0135 27.2869 19.0498 27.3233C19.0862 27.3596 19.1354 27.38 19.1868 27.38H20.2606V29.5847C20.2606 29.6101 20.2656 29.6353 20.2753 29.6588C20.285 29.6823 20.2993 29.7036 20.3173 29.7216C20.3353 29.7396 20.3566 29.7539 20.3801 29.7636C20.4036 29.7733 20.4288 29.7783 20.4542 29.7783H21.2698C21.3212 29.7783 21.3704 29.7579 21.4067 29.7216C21.4431 29.6853 21.4635 29.636 21.4635 29.5847V27.3763H22.4963C22.5476 27.3763 22.5969 27.3559 22.6332 27.3195C22.6695 27.2832 22.6899 27.234 22.6899 27.1826V26.5371H24.6761V27.1863C24.6761 27.2377 24.6966 27.2869 24.7329 27.3233C24.7692 27.3596 24.8184 27.38 24.8698 27.38H25.9436V29.5847C25.9436 29.636 25.964 29.6853 26.0003 29.7216C26.0366 29.7579 26.0859 29.7783 26.1373 29.7783H26.9528C27.0042 29.7783 27.0535 29.7579 27.0898 29.7216C27.1261 29.6853 27.1465 29.636 27.1465 29.5847V26.5371H27.643C27.9723 26.5371 28.288 26.4063 28.5208 26.1735C28.7536 25.9407 28.8844 25.6249 28.8844 25.2957V10.4277C28.8844 10.2639 28.852 10.1016 28.789 9.95036C28.726 9.7991 28.6337 9.66181 28.5173 9.54641C28.401 9.431 28.263 9.33977 28.1112 9.27797C27.9595 9.21618 27.797 9.18503 27.6331 9.18635ZM27.1366 24.7967H8.86098V10.9243H27.139L27.1366 24.7967Z" fill="black"/>
</svg>
