<svg width="36" height="36" viewBox="0 0 36 36" fill="none" xmlns="http://www.w3.org/2000/svg">
<path d="M11.731 16.0211H12.9724L14.7289 18.8912H14.7401V16.0211H15.6414V20.1524H14.4509L12.6484 17.2116H12.636V20.1524H11.731V16.0211Z" fill="black"/>
<path d="M17.105 16.0211H19.8757V16.8615H18.0137V17.7019H19.7379V18.5424H18.0149V20.1562H17.105V16.0211Z" fill="black"/>
<path d="M23.8147 17.0948C23.7253 16.9876 23.6123 16.9026 23.4844 16.8465C23.3418 16.7855 23.1877 16.7554 23.0326 16.7584C22.8688 16.757 22.7067 16.7909 22.5571 16.8577C22.4129 16.9229 22.2835 17.0172 22.1773 17.1345C22.0688 17.2589 21.9846 17.4025 21.929 17.5579C21.8085 17.9027 21.8085 18.2782 21.929 18.623C21.9849 18.777 22.0691 18.9193 22.1773 19.0425C22.2807 19.1601 22.4076 19.2548 22.5497 19.3206C22.6933 19.3868 22.8496 19.4207 23.0078 19.4199C23.1806 19.4232 23.3514 19.3826 23.5043 19.302C23.6482 19.2247 23.7703 19.1124 23.8593 18.9755L24.6178 19.5416C24.451 19.7804 24.221 19.9682 23.9537 20.0841C23.6924 20.1991 23.41 20.2587 23.1244 20.2591C22.8202 20.2627 22.5179 20.2114 22.2319 20.1076C21.9692 20.0127 21.7288 19.8648 21.5255 19.6732C21.3247 19.4799 21.1669 19.2464 21.0625 18.9879C20.8407 18.4093 20.8407 17.7691 21.0625 17.1904C21.1669 16.9319 21.3247 16.6984 21.5255 16.5052C21.7288 16.3136 21.9692 16.1657 22.2319 16.0707C22.5178 15.9665 22.8202 15.9147 23.1244 15.918C23.2468 15.9187 23.3689 15.9295 23.4894 15.9503C23.6166 15.9726 23.7413 16.0071 23.8618 16.0533C23.9865 16.1007 24.1049 16.1633 24.2144 16.2395C24.329 16.3191 24.4311 16.4153 24.5173 16.525L23.8147 17.0948Z" fill="black"/>
<path d="M24.9902 8.49842H24.9654V5.76739C24.965 5.31183 24.7839 4.87502 24.4618 4.55289C24.1397 4.23076 23.7029 4.04965 23.2473 4.04932H12.7527C12.2988 4.04963 11.8635 4.22939 11.5417 4.54937C11.2198 4.86936 11.0376 5.30362 11.0346 5.75745V8.48849H11.0098C10.0302 8.69105 9.15013 9.2244 8.51723 9.99902C7.88433 10.7736 7.53714 11.7424 7.53394 12.7427V23.2373C7.53714 24.2376 7.88433 25.2064 8.51723 25.981C9.15013 26.7556 10.0302 27.289 11.0098 27.4915H11.0346V30.2226C11.035 30.6781 11.2161 31.1149 11.5382 31.4371C11.8603 31.7592 12.2971 31.9403 12.7527 31.9406H23.2473C23.7029 31.9403 24.1397 31.7592 24.4618 31.4371C24.7839 31.1149 24.965 30.6781 24.9654 30.2226V27.4915H24.9902C25.9698 27.289 26.8499 26.7556 27.4828 25.981C28.1157 25.2064 28.4628 24.2376 28.466 23.2373V12.7526C28.4628 11.7523 28.1157 10.7836 27.4828 10.009C26.8499 9.23433 25.9698 8.70098 24.9902 8.49842ZM23.2783 27.5884V30.2735H12.7266V27.5884H23.2783ZM12.7266 8.41152V5.72642H23.2783V8.41152H12.7266ZM26.7815 12.7564V23.251C26.7795 23.9543 26.4993 24.6282 26.002 25.1255C25.5047 25.6228 24.8307 25.9031 24.1274 25.905H11.8788C11.1746 25.9034 10.4998 25.6228 10.0021 25.1246C9.50443 24.6265 9.22443 23.9514 9.22345 23.2472V12.7526C9.22542 12.0493 9.50567 11.3754 10.003 10.8781C10.5003 10.3808 11.1742 10.1005 11.8775 10.0986H24.1212C24.8247 10.1002 25.499 10.3803 25.9966 10.8777C26.4941 11.375 26.7746 12.0491 26.7765 12.7526L26.7815 12.7564Z" fill="black"/>
</svg>
