<svg width="36" height="36" viewBox="0 0 36 36" fill="none" xmlns="http://www.w3.org/2000/svg">
<path d="M29.1377 7.66675H6.86237C6.19477 7.66773 5.55481 7.93346 5.08286 8.40564C4.61091 8.87782 4.34551 9.51791 4.34485 10.1855V25.8207C4.34551 26.4883 4.61091 27.1284 5.08286 27.6005C5.55481 28.0727 6.19477 28.3385 6.86237 28.3394H29.1377C29.8053 28.3385 30.4452 28.0727 30.9172 27.6005C31.3891 27.1284 31.6545 26.4883 31.6552 25.8207V10.1855C31.6545 9.51791 31.3891 8.87782 30.9172 8.40564C30.4452 7.93346 29.8053 7.66773 29.1377 7.66675ZM29.9346 25.8207C29.9343 26.0319 29.8502 26.2345 29.7009 26.3839C29.5515 26.5332 29.3489 26.6173 29.1377 26.6176H6.86237C6.6511 26.6173 6.44858 26.5332 6.29919 26.3839C6.1498 26.2345 6.06573 26.0319 6.0654 25.8207V10.1855C6.06573 9.97424 6.1498 9.77172 6.29919 9.62233C6.44858 9.47294 6.6511 9.38887 6.86237 9.38854H29.1377C29.3489 9.38887 29.5515 9.47294 29.7009 9.62233C29.8502 9.77172 29.9343 9.97424 29.9346 10.1855V25.8207Z" fill="black"/>
<path d="M27.6827 11.8862H8.31723C8.14361 11.8856 7.97682 11.9538 7.85347 12.076C7.73012 12.1982 7.66029 12.3643 7.6593 12.538V23.4621C7.66029 23.6357 7.73012 23.8018 7.85347 23.924C7.97682 24.0462 8.14361 24.1145 8.31723 24.1138H27.6827C27.8564 24.1145 28.0232 24.0462 28.1465 23.924C28.2699 23.8018 28.3397 23.6357 28.3407 23.4621V12.538C28.3397 12.3643 28.2699 12.1982 28.1465 12.076C28.0232 11.9538 27.8564 11.8856 27.6827 11.8862ZM26.6152 22.392H9.38109V13.608H26.6189L26.6152 22.392Z" fill="black"/>
<path d="M15.3248 16.2511H12.7179V15.2233H16.5761V16.2064L14.4658 20.4966H13.1623L15.3248 16.2511Z" fill="black"/>
<path d="M17.4029 19.3121L19.4512 17.4724C19.5616 17.3718 19.666 17.2649 19.764 17.1521C19.8666 17.0376 19.9224 16.8888 19.9204 16.735C19.9239 16.6545 19.9082 16.5744 19.8745 16.5012C19.8408 16.428 19.7902 16.3639 19.7268 16.3142C19.5975 16.2124 19.4369 16.1584 19.2724 16.1615C19.1819 16.1562 19.0913 16.1708 19.007 16.2042C18.9227 16.2377 18.8468 16.2892 18.7845 16.3552C18.6666 16.4871 18.597 16.6552 18.5872 16.8319L17.4699 16.7499C17.4782 16.5037 17.5365 16.2617 17.6412 16.0386C17.7356 15.8467 17.8703 15.6773 18.036 15.5421C18.2066 15.4044 18.4028 15.3019 18.6132 15.2404C18.8466 15.1716 19.0888 15.1377 19.332 15.1399C19.5593 15.1382 19.7855 15.1721 20.0023 15.2404C20.2017 15.3024 20.3866 15.4037 20.5461 15.5383C20.7029 15.674 20.8265 15.8439 20.9073 16.0349C20.9982 16.2543 21.0426 16.4902 21.0376 16.7276C21.0393 16.8818 21.0218 17.0357 20.9855 17.1857C20.9534 17.3155 20.9046 17.4407 20.8403 17.5581C20.7788 17.669 20.7051 17.7726 20.6205 17.8672C20.5337 17.9639 20.4417 18.0559 20.345 18.1428L18.7448 19.5132H21.0836V20.4964H17.4029V19.3121Z" fill="black"/>
<path d="M23.0611 17.4178C22.9183 17.4187 22.7768 17.3904 22.6453 17.3346C22.3906 17.2239 22.1874 17.0207 22.0767 16.766C22.0218 16.6343 21.9935 16.4929 21.9935 16.3502C21.9935 16.2074 22.0218 16.0661 22.0767 15.9343C22.1314 15.8083 22.2093 15.6938 22.3064 15.5967C22.4041 15.4994 22.519 15.4212 22.6453 15.3658C22.777 15.3109 22.9184 15.2826 23.0611 15.2826C23.2039 15.2826 23.3452 15.3109 23.477 15.3658C23.603 15.4209 23.7176 15.4992 23.8146 15.5967C23.9121 15.6934 23.9901 15.8081 24.0443 15.9343C24.1 16.0659 24.1287 16.2073 24.1287 16.3502C24.1287 16.4931 24.1 16.6345 24.0443 16.766C23.9336 17.0203 23.731 17.2234 23.477 17.3346C23.3455 17.3904 23.204 17.4187 23.0611 17.4178ZM23.0611 16.8964C23.1854 16.8946 23.3053 16.8499 23.4004 16.7698C23.4955 16.6898 23.56 16.5793 23.5829 16.4571C23.6059 16.3349 23.5859 16.2086 23.5263 16.0995C23.4667 15.9903 23.3712 15.9052 23.256 15.8585C23.1408 15.8117 23.013 15.8062 22.8942 15.843C22.7754 15.8797 22.673 15.9564 22.6044 16.06C22.5357 16.1637 22.5049 16.2879 22.5174 16.4116C22.5298 16.5353 22.5846 16.6508 22.6726 16.7387C22.7231 16.7902 22.7836 16.8308 22.8505 16.8579C22.9173 16.885 22.989 16.8981 23.0611 16.8964Z" fill="black"/>
</svg>
