<svg width="36" height="36" viewBox="0 0 36 36" fill="none" xmlns="http://www.w3.org/2000/svg">
<path d="M29.0309 9.01487C28.9885 8.96976 28.9377 8.93349 28.8812 8.90814C28.8247 8.88279 28.7638 8.86885 28.702 8.86714C28.6406 8.86445 28.5794 8.87405 28.5218 8.89537C28.4643 8.91669 28.4116 8.9493 28.3668 8.99128L27.8169 9.54866C27.7321 9.63696 27.6848 9.75461 27.6848 9.877C27.6848 9.99939 27.7321 10.117 27.8169 10.2053C29.7651 12.3325 30.8457 15.1124 30.8457 17.9969C30.8457 20.8814 29.7651 23.6612 27.8169 25.7884C27.7317 25.877 27.6841 25.9951 27.6841 26.118C27.6841 26.2409 27.7317 26.359 27.8169 26.4476L28.3507 26.9888C28.4375 27.0781 28.5563 27.1295 28.6809 27.1316C28.8035 27.1319 28.9213 27.0837 29.0086 26.9975L29.0235 26.9826C31.2772 24.5331 32.5281 21.3261 32.5281 17.9975C32.5281 14.6689 31.2772 11.4619 29.0235 9.01238L29.0309 9.01487Z" fill="black"/>
<path d="M15.3844 8.93791C15.2226 8.93796 15.0624 8.97026 14.9132 9.03292C14.764 9.09559 14.6288 9.18736 14.5155 9.30288L10.4102 13.4069H5.71037C5.38114 13.4069 5.06539 13.5377 4.83259 13.7705C4.59978 14.0033 4.46899 14.319 4.46899 14.6483V21.3517C4.46899 21.6809 4.59978 21.9967 4.83259 22.2295C5.06539 22.4623 5.38114 22.5931 5.71037 22.5931H10.4102L14.5155 26.6971C14.6289 26.8125 14.7641 26.9042 14.9133 26.9668C15.0625 27.0295 15.2226 27.0619 15.3844 27.062C15.5485 27.0642 15.7113 27.0336 15.8633 26.9721C16.0154 26.9106 16.1537 26.8194 16.2701 26.7038C16.3865 26.5882 16.4787 26.4506 16.5412 26.2989C16.6038 26.1473 16.6355 25.9847 16.6345 25.8207V10.1793C16.6355 10.0153 16.6038 9.85267 16.5412 9.70103C16.4787 9.5494 16.3865 9.41176 16.2701 9.29618C16.1537 9.18059 16.0154 9.08937 15.8633 9.02786C15.7113 8.96634 15.5485 8.93576 15.3844 8.93791ZM14.8966 24.6215L11.1302 20.8552H6.20692V15.1448H11.1302L14.8966 11.3785V24.6215Z" fill="black"/>
<path d="M24.4178 12.2388C24.4106 12.2448 24.4039 12.2515 24.3979 12.2587L23.8654 12.8024C23.7811 12.8899 23.7332 13.0061 23.7314 13.1276C23.7295 13.249 23.7739 13.3666 23.8554 13.4566C24.9565 14.7141 25.5634 16.3287 25.5634 18.0001C25.5634 19.6715 24.9565 21.286 23.8554 22.5435C23.7735 22.6338 23.7289 22.7517 23.7305 22.8736C23.7321 22.9955 23.7799 23.1122 23.8641 23.2002L24.3967 23.7402C24.4391 23.7849 24.4901 23.8205 24.5467 23.845C24.6032 23.8696 24.664 23.8825 24.7256 23.883H24.7343C24.8558 23.8836 24.9727 23.8363 25.0596 23.7514L25.0807 23.7303C26.4849 22.1518 27.2606 20.1127 27.2606 18.0001C27.2606 15.8874 26.4849 13.8483 25.0807 12.2699C24.9967 12.1782 24.8799 12.1234 24.7556 12.1176C24.6314 12.1118 24.51 12.1554 24.4178 12.2388Z" fill="black"/>
<path d="M20.9085 15.6166L20.3673 16.1578C20.0917 16.3924 20.2208 16.6171 20.3275 16.7437C20.3907 16.8242 20.4428 16.9127 20.4827 17.0069C20.6427 17.3281 20.7251 17.6822 20.7235 18.041C20.7263 18.4334 20.6234 18.8193 20.4256 19.1582C20.2059 19.5306 20.2059 19.6448 20.4529 19.8671C20.4529 19.8671 20.6913 20.057 20.9817 20.2916C21.2722 20.5262 21.6471 20.2916 21.7886 20.0495C22.1482 19.4422 22.3378 18.7493 22.3373 18.0435C22.3404 17.23 22.0886 16.436 21.6173 15.773C21.4895 15.5918 21.2611 15.31 20.9085 15.6166Z" fill="black"/>
</svg>
