<svg width="36" height="36" viewBox="0 0 36 36" fill="none" xmlns="http://www.w3.org/2000/svg">
<path d="M24.9766 24.65C24.9931 24.6696 25.0134 24.6856 25.0362 24.6971C25.059 24.7086 25.0839 24.7154 25.1095 24.7171C25.1618 24.7192 25.213 24.701 25.2522 24.6662L32.6484 18.1402C32.6693 18.1223 32.6862 18.1 32.6977 18.0749C32.7093 18.0499 32.7152 18.0226 32.7152 17.995C32.7152 17.9674 32.7093 17.9401 32.6977 17.915C32.6862 17.89 32.6693 17.8677 32.6484 17.8498L25.2535 11.33C25.219 11.2999 25.1751 11.2828 25.1293 11.2816C25.1014 11.2817 25.0738 11.2874 25.0482 11.2985C25.0226 11.3096 24.9995 11.3258 24.9804 11.3462L24.027 12.4138C24.0098 12.4327 23.9967 12.4548 23.9884 12.4789C23.9801 12.503 23.9767 12.5286 23.9786 12.554C23.9826 12.6067 24.0071 12.6557 24.0468 12.6906L30.3096 18L24.0468 23.3056C24.027 23.3227 24.0107 23.3436 23.999 23.367C23.9872 23.3905 23.9803 23.416 23.9786 23.4422C23.9766 23.4672 23.9799 23.4924 23.9883 23.5162C23.9966 23.5399 24.0098 23.5616 24.027 23.58L24.9766 24.65Z" fill="black"/>
<path d="M22.3175 5.30574L21.0352 4.94077C21.0129 4.93484 20.99 4.93192 20.9669 4.93208C20.9237 4.93102 20.8809 4.94129 20.8428 4.96187C20.8147 4.97733 20.79 4.99826 20.7702 5.02342C20.7504 5.04858 20.7358 5.07746 20.7273 5.10836L13.5149 30.3928C13.5057 30.4236 13.5027 30.4559 13.5062 30.4879C13.5096 30.5199 13.5194 30.5508 13.5351 30.579C13.5507 30.6071 13.5718 30.6318 13.5971 30.6516C13.6224 30.6714 13.6515 30.686 13.6825 30.6944L14.9649 31.0594C15.0258 31.0751 15.0904 31.0662 15.1449 31.0346C15.1746 31.0192 15.2009 30.998 15.2223 30.9721C15.2436 30.9463 15.2595 30.9165 15.269 30.8844L22.4851 5.60863C22.5021 5.54626 22.4941 5.47972 22.4628 5.42316C22.4315 5.3666 22.3794 5.32447 22.3175 5.30574Z" fill="black"/>
<path d="M11.0235 11.345C11.007 11.3255 10.9868 11.3094 10.9639 11.2979C10.9411 11.2864 10.9162 11.2796 10.8907 11.278H10.8783C10.8322 11.2797 10.7882 11.2977 10.7541 11.3289L3.35178 17.8548C3.33081 17.8727 3.31397 17.895 3.30243 17.9201C3.29089 17.9451 3.28491 17.9724 3.28491 18C3.28491 18.0276 3.29089 18.0549 3.30243 18.08C3.31397 18.105 3.33081 18.1273 3.35178 18.1453L10.743 24.6712C10.7827 24.7046 10.834 24.7211 10.8857 24.7171C10.9113 24.7156 10.9363 24.709 10.9593 24.6977C10.9824 24.6864 11.0029 24.6706 11.0198 24.6513L11.9694 23.58C11.9865 23.5614 11.9996 23.5394 12.008 23.5155C12.0163 23.4916 12.0197 23.4662 12.0178 23.441C12.0161 23.4148 12.0092 23.3893 11.9974 23.3658C11.9857 23.3424 11.9694 23.3215 11.9496 23.3044L5.69054 18L11.9533 12.6956C11.993 12.6608 12.0175 12.6117 12.0216 12.5591C12.0234 12.5338 12.0201 12.5084 12.0118 12.4845C12.0035 12.4606 11.9903 12.4386 11.9732 12.42L11.0235 11.345Z" fill="black"/>
</svg>
