<svg width="36" height="36" viewBox="0 0 36 36" fill="none" xmlns="http://www.w3.org/2000/svg">
<path d="M21.2727 16.3315H19.8123L20.8453 13.289C20.8679 13.2241 20.8754 13.1548 20.867 13.0865C20.8587 13.0183 20.8348 12.9528 20.7971 12.8953C20.761 12.8361 20.7102 12.7873 20.6497 12.7535C20.5891 12.7198 20.5209 12.7022 20.4516 12.7026H16.3447C16.2597 12.7041 16.1771 12.7316 16.108 12.7813C16.0389 12.831 15.9867 12.9006 15.9583 12.9808L14.3136 17.5198C14.2895 17.5851 14.2808 17.655 14.2883 17.7242C14.2959 17.7934 14.3193 17.8598 14.3569 17.9184C14.3926 17.9781 14.4432 18.0276 14.5038 18.0618C14.5644 18.096 14.6329 18.1138 14.7025 18.1134H16.228L15.1179 23.0113C15.0946 23.1026 15.1018 23.199 15.1383 23.286C15.1748 23.3729 15.2386 23.4455 15.3201 23.4929C15.3853 23.5331 15.4603 23.5547 15.5369 23.5555C15.5928 23.5545 15.6479 23.5416 15.6983 23.5175C15.7488 23.4934 15.7935 23.4587 15.8294 23.4158L21.5761 17.0659C21.6326 17.0036 21.6705 16.9266 21.6854 16.8438C21.7003 16.761 21.6916 16.6757 21.6604 16.5976C21.6312 16.5186 21.5783 16.4505 21.5089 16.4029C21.4394 16.3552 21.3569 16.3303 21.2727 16.3315Z" fill="black"/>
<path d="M29.4358 18.04H28.9542C28.8162 18.0398 28.6834 18.0925 28.5831 18.1873C28.4827 18.282 28.4225 18.4116 28.4148 18.5493C28.2932 20.8379 27.4214 23.0228 25.9341 24.7664C24.4468 26.51 22.4268 27.7154 20.186 28.1963C17.9453 28.6772 15.6085 28.4068 13.5367 27.427C11.4649 26.4473 9.77336 24.8125 8.72343 22.7754L8.69095 22.714H10.2935C10.4367 22.7133 10.5739 22.656 10.675 22.5544C10.7761 22.4529 10.8329 22.3154 10.8329 22.1722V21.6906C10.8325 21.5476 10.7756 21.4106 10.6745 21.3095C10.5734 21.2084 10.4364 21.1515 10.2935 21.1512H6.54181C6.47082 21.151 6.40049 21.1648 6.33484 21.1919C6.26919 21.2189 6.20952 21.2586 6.15921 21.3087C6.1089 21.3588 6.06894 21.4183 6.04163 21.4838C6.01432 21.5493 6.00016 21.6196 6 21.6906V25.7637C6 25.9074 6.05709 26.0452 6.15869 26.1468C6.2603 26.2484 6.39812 26.3055 6.54181 26.3055H7.0234C7.1671 26.3055 7.30492 26.2484 7.40652 26.1468C7.50813 26.0452 7.56518 25.9074 7.56518 25.7637V23.9348L7.64344 24.0673C8.94923 26.2959 10.9393 28.0436 13.3179 29.0507C15.6964 30.0578 18.3364 30.2705 20.8455 29.6571C23.3546 29.0438 25.5988 27.6372 27.2445 25.6464C28.8902 23.6556 29.8496 21.1868 29.98 18.6071C29.9839 18.5349 29.9729 18.4627 29.9476 18.395C29.9223 18.3272 29.8834 18.2654 29.8331 18.2134C29.7825 18.1586 29.7211 18.1148 29.6527 18.085C29.5843 18.0551 29.5104 18.0398 29.4358 18.04Z" fill="black"/>
<path d="M29.4462 9.69483H28.9574C28.8141 9.69546 28.6769 9.75283 28.5758 9.85437C28.4748 9.9559 28.418 10.0934 28.418 10.2366V12.0655L28.3397 11.9331C27.0339 9.70447 25.0439 7.95674 22.6653 6.94964C20.2868 5.94254 17.6467 5.72986 15.1377 6.3432C12.6286 6.95654 10.3844 8.36314 8.73867 10.354C7.09296 12.3448 6.1336 14.8135 6.00318 17.3932C5.99886 17.4654 6.00971 17.5378 6.035 17.6056C6.0603 17.6734 6.0995 17.7351 6.15008 17.7869C6.20039 17.8406 6.26117 17.8834 6.32869 17.9126C6.39621 17.9418 6.46901 17.9567 6.54257 17.9567H7.02416C7.16215 17.9569 7.29497 17.9042 7.39531 17.8095C7.49564 17.7147 7.55585 17.5852 7.56355 17.4474C7.6849 15.1587 8.55653 12.9737 10.0437 11.2299C11.531 9.48607 13.551 8.28056 15.7918 7.79951C18.0326 7.31846 20.3695 7.58868 22.4414 8.56843C24.5133 9.54819 26.2049 11.1829 27.2549 13.2201L27.285 13.2815H25.5994C25.4562 13.2822 25.319 13.3395 25.2179 13.4411C25.1168 13.5426 25.06 13.6801 25.06 13.8234V14.3049C25.06 14.4482 25.1168 14.5857 25.2179 14.6872C25.319 14.7888 25.4562 14.8461 25.5994 14.8468H29.4354C29.5791 14.8468 29.7169 14.7897 29.8185 14.6881C29.9201 14.5865 29.9772 14.4486 29.9772 14.3049V10.2318C29.9759 10.0908 29.9198 9.95584 29.8207 9.85558C29.7215 9.75531 29.5872 9.69764 29.4462 9.69483Z" fill="black"/>
</svg>
