<svg width="36" height="36" viewBox="0 0 36 36" fill="none" xmlns="http://www.w3.org/2000/svg">
<path d="M22.5558 19.8503C21.6868 19.8503 21.1407 19.9993 20.5572 20.1607C19.949 20.3221 19.3158 20.4959 18.2482 20.4959C17.1806 20.4959 16.5476 20.3221 15.9393 20.1607C15.3558 19.9993 14.8097 19.8503 13.9407 19.8503C11.88 19.8503 10.0179 20.7938 8.95032 22.3828C8.25514 23.4131 7.89514 24.6172 7.89514 25.8586V28.2669C7.89514 29.7069 9.06204 30.8738 10.502 30.8738H25.9945C27.4345 30.8738 28.6014 29.7069 28.6014 28.2669V25.8586C28.6014 24.6172 28.229 23.4131 27.5462 22.3828C26.4786 20.7938 24.6041 19.8503 22.5558 19.8503ZM18.2358 22.271C19.5269 22.271 20.2716 22.0724 20.9172 21.8862C21.3641 21.7621 21.7737 21.6503 22.2827 21.6255L18.3103 24.9151H18.1614L14.189 21.6255C14.6979 21.6503 15.0952 21.7621 15.5545 21.8862C16.2124 22.0724 16.9448 22.271 18.2358 22.271ZM9.64544 28.2793V25.871C9.64544 24.9772 9.9062 24.1207 10.4028 23.3883C10.7876 22.8172 11.3337 22.3579 11.9792 22.06L17.3669 26.5414V29.1234H10.4772C10.0303 29.111 9.64544 28.7386 9.64544 28.2793ZM26.8262 28.3786C26.7766 28.8007 26.4165 29.111 25.9945 29.111H19.1048V26.5289L24.4924 22.0476C25.1255 22.3455 25.6717 22.8048 26.0565 23.3759C26.5531 24.1083 26.8137 24.9648 26.8137 25.8586L26.8262 28.3786Z" fill="black"/>
<path d="M28.5019 9.19919C28.8123 9.06264 29.0233 8.76471 29.0233 8.42954C29.0233 8.09436 28.8494 7.78402 28.5515 7.62264L18.5585 2.54537C18.3102 2.42124 18.0247 2.42124 17.7764 2.54537L7.92003 7.51091C7.6221 7.65987 7.4358 7.97022 7.44822 8.3054C7.46063 8.64057 7.65927 8.9385 7.96962 9.07505L12.5999 11.0985C12.3268 11.7813 12.1779 12.5261 12.1779 13.2958C12.1779 16.6351 14.8965 19.3537 18.2358 19.3537C21.5751 19.3537 24.2936 16.6351 24.2936 13.2958C24.2936 12.5385 24.1571 11.8185 23.8964 11.1482L25.9446 10.2668V11.7564C25.5226 12.042 25.2495 12.5137 25.2495 13.0599C25.2495 13.5068 25.4358 13.904 25.7337 14.1896C25.7213 14.2144 25.7088 14.2392 25.6964 14.264L24.9268 16.8213C24.8523 17.0571 24.9888 17.3054 25.2247 17.3799L26.0316 17.6282C26.2674 17.7027 26.5157 17.5661 26.5902 17.3302L26.8136 16.5854L27.0371 17.3302C27.1116 17.5661 27.3599 17.7027 27.5958 17.6282L28.4026 17.3799C28.6385 17.3054 28.775 17.0571 28.7005 16.8213L27.9308 14.264C27.9184 14.2392 27.906 14.2144 27.8936 14.1896C28.1915 13.904 28.3778 13.5068 28.3778 13.0599C28.3778 12.5137 28.1046 12.042 27.6826 11.7564V9.52194L28.5019 9.19919ZM18.2358 17.5909C15.8772 17.5909 13.953 15.6668 13.953 13.3082C13.953 10.9495 15.8772 9.02539 18.2358 9.02539C20.5944 9.02539 22.5185 10.9495 22.5185 13.3082C22.5185 15.6668 20.6068 17.5909 18.2358 17.5909ZM23.1889 9.5716C23.1392 9.59643 23.102 9.60884 23.0648 9.64608C21.9599 8.19366 20.2096 7.25022 18.2358 7.25022C16.2992 7.25022 14.5613 8.16885 13.4565 9.59644C13.4441 9.58403 13.4192 9.58402 13.4068 9.5716L10.3531 8.24333L18.1613 4.30813L26.0192 8.3054H25.9446V8.41712L23.1889 9.5716Z" fill="black"/>
</svg>
