<svg width="36" height="36" viewBox="0 0 36 36" fill="none" xmlns="http://www.w3.org/2000/svg">
<path d="M23.7701 16.9873C23.9536 16.9873 24.1296 16.9145 24.2595 16.7849C24.3893 16.6552 24.4625 16.4794 24.4628 16.2959L24.4752 12.1534C24.4749 11.9698 24.4018 11.7938 24.272 11.6639C24.1421 11.5341 23.9661 11.461 23.7825 11.4607L19.6425 11.4731C19.4589 11.4734 19.2829 11.5465 19.1531 11.6764C19.0232 11.8062 18.9502 11.9822 18.9498 12.1658V12.5233C18.9505 12.7069 19.0239 12.8828 19.1539 13.0124C19.284 13.142 19.4601 13.2148 19.6438 13.2148L21.5505 13.2048L17.5694 17.1859H12.404V15.0048C12.404 14.9554 12.3844 14.9081 12.3495 14.8732C12.3146 14.8382 12.2672 14.8186 12.2178 14.8186H10.8933C10.8439 14.8186 10.7965 14.8382 10.7616 14.8732C10.7267 14.9081 10.7071 14.9554 10.7071 15.0048V17.1859H7.43479C7.15537 17.1863 6.88749 17.2974 6.68991 17.495C6.49233 17.6926 6.38119 17.9604 6.38086 18.2399V28.521C6.38119 28.8004 6.49233 29.0683 6.68991 29.2659C6.88749 29.4634 7.15537 29.5746 7.43479 29.5749H17.7159C17.9953 29.5746 18.2632 29.4634 18.4608 29.2659C18.6584 29.0683 18.7695 28.8004 18.7698 28.521V25.3381H21.0614C21.1108 25.3381 21.1582 25.3185 21.1931 25.2835C21.228 25.2486 21.2476 25.2013 21.2476 25.1519V23.8273C21.2476 23.7779 21.228 23.7306 21.1931 23.6957C21.1582 23.6607 21.1108 23.6411 21.0614 23.6411H18.7698V18.3491L22.7311 14.3866L22.7174 16.2946C22.7174 16.4783 22.7904 16.6545 22.9203 16.7844C23.0502 16.9143 23.2264 16.9873 23.4101 16.9873H23.7701ZM17.0667 27.868H8.08776V18.8928H17.0629L17.0667 27.868Z" fill="black"/>
<path d="M25.7275 23.641H23.4372C23.3343 23.641 23.251 23.7244 23.251 23.8272V25.1518C23.251 25.2546 23.3343 25.338 23.4372 25.338H25.7275C25.8303 25.338 25.9137 25.2546 25.9137 25.1518V23.8272C25.9137 23.7244 25.8303 23.641 25.7275 23.641Z" fill="black"/>
<path d="M29.4332 22.6738H28.1086C28.0058 22.6738 27.9224 22.7572 27.9224 22.86V25.1504C27.9224 25.2532 28.0058 25.3366 28.1086 25.3366H29.4332C29.536 25.3366 29.6194 25.2532 29.6194 25.1504V22.86C29.6194 22.7572 29.536 22.6738 29.4332 22.6738Z" fill="black"/>
<path d="M29.4332 9.60352H28.1086C28.0058 9.60352 27.9224 9.68688 27.9224 9.78972V12.0801C27.9224 12.1829 28.0058 12.2663 28.1086 12.2663H29.4332C29.536 12.2663 29.6194 12.1829 29.6194 12.0801V9.78972C29.6194 9.68688 29.536 9.60352 29.4332 9.60352Z" fill="black"/>
<path d="M29.4332 13.9901H28.1086C28.0058 13.9901 27.9224 14.0735 27.9224 14.1763V16.4667C27.9224 16.5695 28.0058 16.6529 28.1086 16.6529H29.4332C29.536 16.6529 29.6194 16.5695 29.6194 16.4667V14.1763C29.6194 14.0735 29.536 13.9901 29.4332 13.9901Z" fill="black"/>
<path d="M29.4332 18.1985H28.1086C28.0058 18.1985 27.9224 18.2819 27.9224 18.3847V20.675C27.9224 20.7779 28.0058 20.8612 28.1086 20.8612H29.4332C29.536 20.8612 29.6194 20.7779 29.6194 20.675V18.3847C29.6194 18.2819 29.536 18.1985 29.4332 18.1985Z" fill="black"/>
<path d="M12.2177 10.667H10.8931C10.7903 10.667 10.7069 10.7504 10.7069 10.8532V13.1435C10.7069 13.2464 10.7903 13.3298 10.8931 13.3298H12.2177C12.3205 13.3298 12.4039 13.2464 12.4039 13.1435V10.8532C12.4039 10.7504 12.3205 10.667 12.2177 10.667Z" fill="black"/>
<path d="M16.4421 6.42651H14.1517C14.0489 6.42651 13.9655 6.50988 13.9655 6.61272V7.93728C13.9655 8.04012 14.0489 8.12349 14.1517 8.12349H16.4421C16.5449 8.12349 16.6283 8.04012 16.6283 7.93728V6.61272C16.6283 6.50988 16.5449 6.42651 16.4421 6.42651Z" fill="black"/>
<path d="M20.7721 6.42651H18.4818C18.379 6.42651 18.2956 6.50988 18.2956 6.61272V7.93728C18.2956 8.04012 18.379 8.12349 18.4818 8.12349H20.7721C20.875 8.12349 20.9583 8.04012 20.9583 7.93728V6.61272C20.9583 6.50988 20.875 6.42651 20.7721 6.42651Z" fill="black"/>
<path d="M25.1913 6.42651H22.901C22.7982 6.42651 22.7148 6.50988 22.7148 6.61272V7.93728C22.7148 8.04012 22.7982 8.12349 22.901 8.12349H25.1913C25.2942 8.12349 25.3775 8.04012 25.3775 7.93728V6.61272C25.3775 6.50988 25.2942 6.42651 25.1913 6.42651Z" fill="black"/>
<path d="M29.432 6.42651H27.1417C27.0388 6.42651 26.9554 6.50988 26.9554 6.61272V7.93728C26.9554 8.04012 27.0388 8.12349 27.1417 8.12349H29.432C29.5348 8.12349 29.6182 8.04012 29.6182 7.93728V6.61272C29.6182 6.50988 29.5348 6.42651 29.432 6.42651Z" fill="black"/>
<path d="M12.2177 6.42651H10.8931C10.7903 6.42651 10.7069 6.50988 10.7069 6.61272V8.90306C10.7069 9.0059 10.7903 9.08927 10.8931 9.08927H12.2177C12.3205 9.08927 12.4039 9.0059 12.4039 8.90306V6.61272C12.4039 6.50988 12.3205 6.42651 12.2177 6.42651Z" fill="black"/>
</svg>
