<svg width="36" height="36" viewBox="0 0 36 36" fill="none" xmlns="http://www.w3.org/2000/svg">
<path d="M28.5902 6.54834H7.4098C7.18131 6.54834 6.96218 6.63911 6.80061 6.80067C6.63905 6.96224 6.54828 7.18137 6.54828 7.40986V10.234C6.54861 10.4623 6.63952 10.6811 6.80105 10.8424C6.96258 11.0037 7.18152 11.0943 7.4098 11.0943H12.1966V15.0208H8.51338L9.21849 12.1966H7.44828L6.57931 15.6725C6.52593 15.8931 6.56098 16.1258 6.67698 16.3209C6.79297 16.516 6.98069 16.658 7.2 16.7165C7.26822 16.7334 7.33828 16.7417 7.40855 16.7413H12.1966V18.0212C11.9194 18.1349 11.6676 18.3025 11.4558 18.5143C11.244 18.7262 11.0763 18.978 10.9626 19.2551H8.51338L8.86593 17.8436H7.08952L6.57931 19.9093C6.54799 20.0358 6.54574 20.1678 6.57274 20.2954C6.59974 20.4229 6.65529 20.5426 6.73521 20.6456C6.81514 20.7486 6.91736 20.8321 7.03419 20.8899C7.15103 20.9477 7.27945 20.9783 7.4098 20.9794H10.9626C11.104 21.3256 11.3287 21.6315 11.6169 21.8698C11.905 22.1082 12.2477 22.2716 12.6142 22.3455C12.9808 22.4194 13.36 22.4015 13.718 22.2934C14.076 22.1853 14.4017 21.9903 14.6661 21.7259C14.9305 21.4615 15.1255 21.1358 15.2336 20.7778C15.3417 20.4198 15.3596 20.0406 15.2857 19.674C15.2118 19.3074 15.0484 18.9648 14.8101 18.6767C14.5717 18.3885 14.2658 18.1637 13.9196 18.0224V11.0943H28.5902C28.8185 11.0943 29.0374 11.0037 29.199 10.8424C29.3605 10.6811 29.4514 10.4623 29.4517 10.234V7.40986C29.4517 7.18137 29.361 6.96224 29.1994 6.80067C29.0378 6.63911 28.8187 6.54834 28.5902 6.54834ZM12.5069 20.1179C12.5069 20.0088 12.5392 19.9023 12.5998 19.8116C12.6604 19.721 12.7464 19.6504 12.8471 19.6086C12.9479 19.5669 13.0587 19.556 13.1656 19.5773C13.2725 19.5985 13.3707 19.651 13.4478 19.7281C13.5249 19.8052 13.5774 19.9034 13.5987 20.0103C13.6199 20.1172 13.609 20.2281 13.5673 20.3288C13.5256 20.4295 13.4549 20.5156 13.3643 20.5761C13.2736 20.6367 13.1671 20.669 13.0581 20.669C12.912 20.6687 12.772 20.6105 12.6687 20.5072C12.5654 20.4039 12.5072 20.2639 12.5069 20.1179ZM27.7299 8.27013V9.37248H8.27131V8.27013H27.7299Z" fill="black"/>
<path d="M28.9091 22.0803H27.1327L27.4865 23.493H8.51326L8.86581 22.0803H7.08939L6.57919 24.146C6.5258 24.3666 6.56086 24.5993 6.67685 24.7944C6.79284 24.9895 6.98057 25.1315 7.19988 25.19C7.2681 25.2069 7.33815 25.2152 7.40843 25.2148H28.5901C28.7206 25.2142 28.8493 25.1839 28.9663 25.1263C29.0834 25.0686 29.1859 24.9851 29.2659 24.882C29.3459 24.7789 29.4014 24.6589 29.4282 24.5312C29.455 24.4035 29.4524 24.2713 29.4206 24.1447L28.9091 22.0803Z" fill="black"/>
<path d="M28.9092 26.3173H27.1328L27.4866 27.7287H8.51336L8.86591 26.3173H7.0895L6.57929 28.3817C6.54787 28.5086 6.54572 28.641 6.57299 28.7689C6.60026 28.8968 6.65626 29.0168 6.73673 29.1199C6.81721 29.223 6.92006 29.3064 7.03752 29.3639C7.15498 29.4214 7.28397 29.4514 7.41474 29.4517H28.5902C28.7211 29.4519 28.8504 29.4222 28.9681 29.3649C29.0858 29.3075 29.1888 29.2241 29.2694 29.1209C29.35 29.0177 29.4059 28.8974 29.433 28.7693C29.4601 28.6412 29.4576 28.5086 29.4256 28.3817L28.9092 26.3173Z" fill="black"/>
<path d="M28.9092 17.8448H27.1328L27.4866 19.2563H16.3266L16.3651 19.4425C16.4557 19.8881 16.4557 20.3475 16.3651 20.7931L16.3266 20.9793H28.5902C28.7211 20.9795 28.8504 20.9498 28.9681 20.8924C29.0858 20.8351 29.1888 20.7517 29.2694 20.6485C29.35 20.5453 29.4059 20.425 29.433 20.2969C29.4601 20.1688 29.4576 20.0362 29.4256 19.9093L28.9092 17.8448Z" fill="black"/>
<path d="M28.5517 12.1965H26.7803L27.4866 15.0207H15.0207V16.7425H28.5902C28.7033 16.7426 28.8153 16.7205 28.9198 16.6773C29.0243 16.6342 29.1193 16.5708 29.1993 16.4909C29.2793 16.411 29.3428 16.3162 29.3861 16.2117C29.4294 16.1072 29.4517 15.9953 29.4517 15.8822C29.4518 15.8119 29.4431 15.7418 29.4256 15.6736L28.5517 12.1965Z" fill="black"/>
</svg>
