<svg width="36" height="36" viewBox="0 0 36 36" fill="none" xmlns="http://www.w3.org/2000/svg">
<path d="M31.351 24.2068L19.2848 5.43712C19.1466 5.22187 18.9565 5.04479 18.732 4.92214C18.5075 4.7995 18.2558 4.73523 18 4.73523C17.7442 4.73523 17.4925 4.7995 17.268 4.92214C17.0435 5.04479 16.8534 5.22187 16.7152 5.43712L4.64895 24.2068C4.50167 24.4374 4.41908 24.7034 4.40981 24.9769C4.40054 25.2503 4.46494 25.5213 4.59627 25.7614C4.7276 26.0014 4.92103 26.2018 5.15632 26.3415C5.39162 26.4812 5.66013 26.5551 5.93378 26.5555H30.0662C30.3398 26.5551 30.6083 26.4812 30.8436 26.3415C31.0789 26.2018 31.2724 26.0014 31.4037 25.7614C31.535 25.5213 31.5994 25.2503 31.5902 24.9769C31.5809 24.7034 31.4983 24.4374 31.351 24.2068ZM29.7248 24.8461H6.27516L12.6769 14.8877L15.3186 17.5294L18.355 14.493H23.0723L29.7248 24.8461ZM13.6229 13.4068L18 6.60278L21.9724 12.7762H17.6449L15.3186 15.1037L13.6229 13.4068Z" fill="black"/>
</svg>
