<svg width="36" height="36" viewBox="0 0 36 36" fill="none" xmlns="http://www.w3.org/2000/svg">
<path d="M30.0997 21.6V15.269C30.4576 15.1441 30.7838 14.9424 31.0553 14.6779C31.3269 14.4135 31.5372 14.0927 31.6714 13.7382C31.8057 13.3838 31.8607 13.0042 31.8324 12.6262C31.8042 12.2482 31.6936 11.881 31.5082 11.5503C31.3228 11.2197 31.0672 10.9337 30.7594 10.7125C30.4516 10.4913 30.0991 10.3402 29.7266 10.2698C29.3542 10.1995 28.9708 10.2116 28.6035 10.3054C28.2363 10.3991 27.894 10.5722 27.6008 10.8124L20.5944 6.39932C20.5944 6.38318 20.5944 6.36704 20.5944 6.3509V6.33104C20.602 5.98564 20.5405 5.6422 20.4135 5.32088C20.2866 4.99957 20.0967 4.70685 19.8551 4.45989C19.6135 4.21294 19.325 4.01672 19.0065 3.88277C18.6881 3.74881 18.3461 3.67981 18.0006 3.67981C17.6551 3.67981 17.3131 3.74881 16.9946 3.88277C16.6762 4.01672 16.3877 4.21294 16.1461 4.45989C15.9044 4.70685 15.7146 4.99957 15.5876 5.32088C15.4607 5.6422 15.3992 5.98564 15.4067 6.33104V6.34594C15.4067 6.36208 15.4067 6.37821 15.4067 6.39435L8.40163 10.8087C8.10795 10.5739 7.76668 10.4058 7.40151 10.3161C7.03635 10.2265 6.65604 10.2174 6.287 10.2895C5.91796 10.3616 5.56904 10.5131 5.26446 10.7336C4.95989 10.9541 4.70696 11.2383 4.52324 11.5663C4.33953 11.8944 4.22943 12.2586 4.20059 12.6335C4.17175 13.0084 4.22487 13.3851 4.35625 13.7374C4.48763 14.0897 4.69412 14.4092 4.96139 14.6737C5.22867 14.9382 5.55031 15.1413 5.90398 15.269V21.6C5.5378 21.7255 5.20435 21.9314 4.92805 22.2025C4.65176 22.4736 4.43963 22.8031 4.3072 23.1668C4.17478 23.5305 4.12542 23.9193 4.16275 24.3045C4.20007 24.6898 4.32313 25.0619 4.52291 25.3934C4.72269 25.725 4.99413 26.0076 5.31732 26.2206C5.64052 26.4336 6.00729 26.5717 6.39074 26.6245C6.7742 26.6774 7.16462 26.6438 7.53341 26.5262C7.9022 26.4086 8.23999 26.21 8.52204 25.9449L15.408 29.7013C15.4228 30.3794 15.7026 31.0247 16.1874 31.4991C16.6723 31.9734 17.3236 32.239 18.0018 32.239C18.6801 32.239 19.3314 31.9734 19.8162 31.4991C20.3011 31.0247 20.5809 30.3794 20.5957 29.7013L27.4829 25.9449C27.7653 26.2057 28.1023 26.4004 28.4694 26.5149C28.8364 26.6293 29.2244 26.6605 29.605 26.6063C29.9857 26.5521 30.3495 26.4138 30.67 26.2014C30.9905 25.9891 31.2598 25.708 31.4581 25.3787C31.6565 25.0493 31.7791 24.6799 31.8169 24.2973C31.8547 23.9146 31.8068 23.5284 31.6767 23.1666C31.5466 22.8048 31.3376 22.4764 31.0648 22.2055C30.7921 21.9345 30.4624 21.7277 30.0997 21.6ZM18 5.47449C18.17 5.47596 18.3359 5.52773 18.4766 5.62329C18.6172 5.71884 18.7265 5.8539 18.7906 6.01145C18.8546 6.16899 18.8706 6.34198 18.8366 6.5086C18.8025 6.67523 18.7199 6.82804 18.5991 6.94778C18.4783 7.06752 18.3248 7.14883 18.1579 7.18148C17.991 7.21412 17.8181 7.19663 17.6611 7.13121C17.5041 7.06579 17.37 6.95537 17.2757 6.81386C17.1814 6.67235 17.131 6.50608 17.131 6.33601C17.133 6.10684 17.2254 5.88772 17.3881 5.72637C17.5509 5.56501 17.7708 5.47448 18 5.47449ZM6.77046 24.9095C6.60002 24.9098 6.43333 24.8595 6.29149 24.765C6.14965 24.6704 6.03903 24.536 5.97364 24.3786C5.90824 24.2212 5.891 24.0479 5.9241 23.8807C5.95721 23.7135 6.03916 23.5599 6.1596 23.4393C6.28003 23.3187 6.43354 23.2365 6.60069 23.2031C6.76784 23.1698 6.94113 23.1868 7.09862 23.252C7.25611 23.3171 7.39074 23.4276 7.48546 23.5693C7.58018 23.711 7.63073 23.8776 7.63074 24.048C7.63074 24.2763 7.54014 24.4952 7.37884 24.6568C7.21754 24.8183 6.99873 24.9092 6.77046 24.9095ZM6.77046 13.6775C6.60002 13.6778 6.43333 13.6275 6.29149 13.5329C6.14965 13.4384 6.03903 13.304 5.97364 13.1466C5.90824 12.9892 5.891 12.8159 5.9241 12.6487C5.95721 12.4815 6.03916 12.3279 6.1596 12.2073C6.28003 12.0867 6.43354 12.0045 6.60069 11.9711C6.76784 11.9378 6.94113 11.9548 7.09862 12.02C7.25611 12.0851 7.39074 12.1955 7.48546 12.3373C7.58018 12.479 7.63073 12.6456 7.63074 12.816C7.63074 13.0443 7.54014 13.2632 7.37884 13.4248C7.21754 13.5863 6.99873 13.6772 6.77046 13.6775ZM18 30.5255C17.8297 30.5241 17.6637 30.4722 17.5229 30.3764C17.3821 30.2806 17.2728 30.1453 17.2089 29.9874C17.145 29.8296 17.1293 29.6564 17.1638 29.4896C17.1982 29.3228 17.2814 29.17 17.4026 29.0505C17.5239 28.931 17.6779 28.85 17.8451 28.818C18.0124 28.7859 18.1854 28.8041 18.3423 28.8703C18.4992 28.9364 18.6329 29.0476 18.7267 29.1898C18.8204 29.332 18.8699 29.4987 18.8689 29.669C18.8657 29.8973 18.7727 30.1151 18.6101 30.2754C18.4475 30.4357 18.2283 30.5256 18 30.5255ZM28.3667 21.6C27.8621 21.7823 27.4257 22.1152 27.1166 22.5537C26.8075 22.9923 26.6407 23.5152 26.6387 24.0517C26.6408 24.1736 26.6516 24.2952 26.671 24.4155L20.0209 28.0428C19.7796 27.7388 19.4727 27.4932 19.1232 27.3244C18.7737 27.1556 18.3906 27.0679 18.0025 27.0679C17.6143 27.0679 17.2312 27.1556 16.8817 27.3244C16.5322 27.4932 16.2253 27.7388 15.984 28.0428L9.33266 24.418C9.4291 23.8236 9.31164 23.2142 9.00116 22.6983C8.69068 22.1823 8.20729 21.7932 7.63694 21.6V15.2615C8.14137 15.0798 8.57771 14.7473 8.88681 14.3092C9.19592 13.871 9.36283 13.3485 9.36494 12.8123C9.36403 12.6367 9.34574 12.4616 9.31032 12.2897L16.0585 8.04539C16.3005 8.32422 16.5996 8.54781 16.9355 8.70104C17.2714 8.85427 17.6363 8.93357 18.0056 8.93357C18.3748 8.93357 18.7397 8.85427 19.0756 8.70104C19.4115 8.54781 19.7106 8.32422 19.9527 8.04539L26.6983 12.2897C26.6609 12.4639 26.641 12.6415 26.6387 12.8197C26.6408 13.3553 26.8077 13.8773 27.1169 14.3146C27.4261 14.752 27.8625 15.0834 28.3667 15.264V21.6ZM29.2357 24.9071C29.0653 24.9071 28.8987 24.8565 28.7571 24.7619C28.6154 24.6672 28.505 24.5326 28.4397 24.3752C28.3745 24.2178 28.3575 24.0446 28.3907 23.8775C28.424 23.7103 28.506 23.5568 28.6265 23.4364C28.747 23.3159 28.9005 23.2338 29.0676 23.2006C29.2347 23.1673 29.4079 23.1844 29.5654 23.2496C29.7228 23.3148 29.8573 23.4252 29.952 23.5669C30.0467 23.7086 30.0972 23.8751 30.0972 24.0455C30.0975 24.1591 30.0754 24.2716 30.0321 24.3766C29.9888 24.4815 29.9252 24.5769 29.8449 24.6572C29.7646 24.7375 29.6692 24.8011 29.5642 24.8444C29.4593 24.8877 29.3468 24.9099 29.2332 24.9095L29.2357 24.9071ZM29.2357 13.675C29.0653 13.675 28.8987 13.6245 28.7571 13.5299C28.6154 13.4352 28.505 13.3006 28.4397 13.1432C28.3745 12.9858 28.3575 12.8126 28.3907 12.6455C28.424 12.4783 28.506 12.3248 28.6265 12.2043C28.747 12.0839 28.9005 12.0018 29.0676 11.9686C29.2347 11.9353 29.4079 11.9524 29.5654 12.0176C29.7228 12.0828 29.8573 12.1932 29.952 12.3349C30.0467 12.4766 30.0972 12.6431 30.0972 12.8135C30.0975 12.9271 30.0754 13.0396 30.0321 13.1446C29.9888 13.2495 29.9252 13.3449 29.8449 13.4252C29.7646 13.5055 29.6692 13.5691 29.5642 13.6124C29.4593 13.6557 29.3468 13.6779 29.2332 13.6775L29.2357 13.675Z" fill="black"/>
<path d="M25.2062 15.7282C25.2627 15.0838 25.1307 14.4369 24.8263 13.8661C24.5934 13.445 24.274 13.078 23.8891 12.7891C23.5042 12.5003 23.0625 12.2962 22.5931 12.1902C22.3974 11.6583 22.0442 11.1986 21.5807 10.8724C21.1173 10.5462 20.5654 10.3689 19.9986 10.3642C19.6172 10.3371 19.2344 10.3904 18.875 10.5206C18.5155 10.6508 18.1874 10.8551 17.9118 11.1202C17.6363 10.8551 17.3082 10.6508 16.9487 10.5206C16.5893 10.3904 16.2065 10.3371 15.8251 10.3642C15.2593 10.3702 14.7086 10.5481 14.2462 10.8742C13.7837 11.2003 13.4313 11.6593 13.2356 12.1902C12.7657 12.2966 12.3236 12.5012 11.9385 12.7907C11.5533 13.0802 11.2339 13.448 11.0011 13.8698C10.6992 14.4413 10.5698 15.0882 10.6287 15.7319C10.5247 15.8017 10.437 15.8932 10.3717 16C10.2811 16.149 9.50274 17.4897 9.92605 18.8279C9.96863 18.9703 10.0239 19.1087 10.0912 19.2413C10.2116 19.528 10.3795 19.7924 10.5877 20.0233C10.5529 20.4578 10.5269 21.7451 11.3325 22.6563C11.3685 22.6985 11.4095 22.7407 11.4567 22.7804C11.9288 23.2982 12.5484 23.6587 13.2318 23.8133C13.4275 24.3434 13.7795 24.8017 14.2412 25.1275C14.7029 25.4533 15.2526 25.6314 15.8176 25.6381C16.1993 25.6646 16.5824 25.611 16.9421 25.4808C17.3019 25.3507 17.6305 25.1467 17.9069 24.8821C18.1832 25.1467 18.5118 25.3507 18.8716 25.4808C19.2314 25.611 19.6144 25.6646 19.9961 25.6381C20.5634 25.6336 21.1159 25.4563 21.5798 25.1298C22.0438 24.8034 22.3973 24.3432 22.5931 23.8108C23.2768 23.6568 23.8965 23.2962 24.3683 22.778C24.4117 22.7358 24.4527 22.6935 24.4924 22.6538C25.3005 21.7426 25.2757 20.4553 25.2372 20.0209C25.4455 19.7899 25.6133 19.5255 25.7338 19.2388C25.8044 19.1069 25.863 18.969 25.9088 18.8266C26.3358 17.4934 25.5538 16.1477 25.4632 15.9988C25.3981 15.891 25.3104 15.7987 25.2062 15.7282ZM17.1372 22.804C17.1372 23.7202 16.7747 24.0777 15.8512 24.0777C15.5458 24.0742 15.252 23.9604 15.0239 23.7574C14.7957 23.5544 14.6487 23.2758 14.6098 22.9729V22.9406C14.5712 22.7843 14.5529 22.6236 14.5552 22.4626V22.444C14.536 22.0469 14.6563 21.6557 14.8953 21.338C15.0279 21.1862 15.0972 20.9894 15.0889 20.788C15.0791 20.5875 14.9926 20.3983 14.8472 20.2597C14.7019 20.1211 14.5089 20.0436 14.3081 20.0432H14.2721C14.066 20.0513 13.8715 20.1406 13.7309 20.2915C13.7145 20.3096 13.6992 20.3287 13.6849 20.3486C13.367 20.755 13.15 21.2311 13.0518 21.7377C12.8986 21.7026 12.7599 21.6211 12.6546 21.5043C12.4063 21.2324 12.3418 20.7719 12.3318 20.4392C12.469 20.357 12.5808 20.2386 12.655 20.097C12.7292 19.9554 12.7628 19.7961 12.7523 19.6366C12.7418 19.4771 12.6875 19.3235 12.5953 19.1929C12.5032 19.0623 12.3768 18.9596 12.23 18.8962C11.7037 18.669 11.6094 18.3922 11.5833 18.3003C11.4592 17.9204 11.6168 17.4164 11.7521 17.1098C11.8064 17.1218 11.8617 17.1288 11.9172 17.1309C12.0727 17.1307 12.2253 17.0887 12.3591 17.0094C12.4928 16.9301 12.6028 16.8164 12.6777 16.68C12.7525 16.5437 12.7893 16.3898 12.7844 16.2344C12.7795 16.079 12.7329 15.9277 12.6496 15.7964C12.343 15.3123 12.4249 15.0317 12.451 14.9399C12.5354 14.6519 12.7899 14.3962 13.032 14.2124C13.1245 14.7398 13.3458 15.2361 13.6763 15.6574L13.6849 15.6698C13.8166 15.8303 14.0067 15.9319 14.2133 15.9523C14.4199 15.9727 14.6262 15.9101 14.7867 15.7784C14.9472 15.6467 15.0488 15.4567 15.0692 15.2501C15.0895 15.0435 15.027 14.8372 14.8953 14.6767C14.6514 14.3568 14.5275 13.9614 14.5452 13.5595V13.5421C14.5434 13.3748 14.5626 13.208 14.6023 13.0455V13.0133C14.6428 12.7137 14.7895 12.4386 15.0157 12.2381C15.242 12.0375 15.5327 11.925 15.835 11.9208C16.7648 11.9208 17.1273 12.2796 17.1273 13.197L17.1372 22.804ZM24.2565 18.304C24.2267 18.3959 24.1324 18.6764 23.6085 18.8999C23.4619 18.9634 23.3356 19.0662 23.2436 19.1969C23.1515 19.3276 23.0973 19.4812 23.0869 19.6407C23.0766 19.8002 23.1104 19.9595 23.1846 20.101C23.2589 20.2426 23.3708 20.3609 23.508 20.4429C23.4968 20.7756 23.4273 21.2362 23.184 21.508C23.079 21.6251 22.9402 21.7067 22.7867 21.7414C22.689 21.2349 22.4724 20.7588 22.1549 20.3523C22.1462 20.3411 22.1276 20.3175 22.1077 20.2952C22.0382 20.2203 21.9547 20.1598 21.8618 20.1172C21.7689 20.0746 21.6686 20.0507 21.5665 20.0469H21.5305C21.3299 20.0476 21.1372 20.1253 20.9921 20.2639C20.8471 20.4024 20.7607 20.5914 20.7509 20.7918C20.7417 20.993 20.8106 21.1901 20.9433 21.3417C21.1826 21.6593 21.3034 22.0505 21.2847 22.4478V22.4664C21.2857 22.6273 21.2674 22.7878 21.2301 22.9443V22.9766C21.1912 23.2795 21.0441 23.5581 20.816 23.7611C20.5878 23.9642 20.294 24.0779 19.9887 24.0814C19.0651 24.0814 18.7026 23.7239 18.7026 22.8078V13.202C18.7026 12.2846 19.0651 11.9258 19.9936 11.9258C20.2959 11.9299 20.5867 12.0425 20.8129 12.243C21.0392 12.4435 21.1859 12.7186 21.2263 13.0182L21.2325 13.0505C21.2716 13.2131 21.2908 13.3798 21.2896 13.5471V13.5644C21.307 13.9665 21.1827 14.3619 20.9383 14.6817C20.8731 14.7611 20.8242 14.8527 20.7944 14.9511C20.7645 15.0494 20.7544 15.1527 20.7645 15.255C20.7745 15.3573 20.8047 15.4567 20.8532 15.5473C20.9016 15.638 20.9675 15.7182 21.0469 15.7834C21.2074 15.9151 21.4137 15.9776 21.6203 15.9573C21.7226 15.9472 21.8219 15.917 21.9126 15.8686C22.0032 15.8201 22.0835 15.7543 22.1487 15.6748L22.1586 15.6624C22.4885 15.2408 22.7097 14.7446 22.8029 14.2174C23.0449 14.4011 23.2994 14.6568 23.3826 14.9448C23.4099 15.0367 23.4918 15.3173 23.184 15.8014C23.1007 15.9327 23.0541 16.084 23.0492 16.2394C23.0443 16.3948 23.0811 16.5487 23.156 16.685C23.2308 16.8213 23.3408 16.9351 23.4746 17.0144C23.6083 17.0937 23.7609 17.1356 23.9164 17.1359C23.9752 17.1353 24.0338 17.1291 24.0914 17.1173C24.2168 17.4152 24.3757 17.9192 24.2516 18.2991L24.2565 18.304Z" fill="black"/>
</svg>
