<svg width="36" height="36" viewBox="0 0 36 36" fill="none" xmlns="http://www.w3.org/2000/svg">
<path d="M18.0162 19.2179C17.558 19.2148 17.1113 19.3609 16.7435 19.6341C16.3757 19.9072 16.1067 20.2927 15.9773 20.7322C15.8479 21.1717 15.8651 21.6414 16.0262 22.0703C16.1873 22.4992 16.4836 22.864 16.8704 23.1097L16.9275 23.1469V24.3312C16.9225 24.4773 16.9471 24.623 16.9996 24.7594C17.0521 24.8959 17.1315 25.0204 17.2332 25.1255C17.3348 25.2307 17.4566 25.3143 17.5912 25.3714C17.7258 25.4285 17.8705 25.4579 18.0168 25.4579C18.163 25.4579 18.3077 25.4285 18.4424 25.3714C18.577 25.3143 18.6987 25.2307 18.8004 25.1255C18.902 25.0204 18.9815 24.8959 19.034 24.7594C19.0865 24.623 19.111 24.4773 19.1061 24.3312V23.1506L19.1632 23.1146C19.55 22.8689 19.8464 22.504 20.0075 22.075C20.1686 21.646 20.1856 21.1762 20.0561 20.7366C19.9265 20.297 19.6574 19.9115 19.2893 19.6385C18.9213 19.3654 18.4744 19.2195 18.0162 19.2229V19.2179Z" fill="black"/>
<path d="M26.4414 15.26H25.8008V15.1359C25.8008 15.1185 25.8393 13.3682 25.8008 12.4049C25.7636 11.0393 25.2944 9.61796 25.2894 9.60431C24.731 8.12325 23.7381 6.8455 22.4409 5.93859C21.1436 5.03167 19.6026 4.53793 18.0199 4.5221H17.9839C16.9627 4.52096 15.9513 4.72149 15.0078 5.11218C14.0643 5.50287 13.2073 6.07604 12.4858 6.79879C11.6898 7.59314 11.0727 8.54839 10.6759 9.60058L10.6672 9.6192C10.6672 9.62665 10.2141 10.4385 10.1905 12.3217V15.26H9.55865C8.91332 15.2604 8.29445 15.5165 7.83767 15.9724C7.38089 16.4282 7.12347 17.0466 7.12183 17.6919V26.9066C7.12314 27.5522 7.38042 28.1709 7.83723 28.627C8.29405 29.0831 8.91311 29.3394 9.55865 29.3397H26.4414C27.0863 29.3388 27.7044 29.0821 28.1603 28.6259C28.6162 28.1698 28.8726 27.5515 28.8732 26.9066V17.6919C28.8726 17.0471 28.6162 16.4289 28.1602 15.973C27.7043 15.5171 27.0862 15.2607 26.4414 15.26ZM11.993 12.3204C11.993 10.7266 12.6261 9.19808 13.7531 8.07107C14.8801 6.94407 16.4087 6.31093 18.0025 6.31093C19.5963 6.31093 21.1249 6.94407 22.2519 8.07107C23.3789 9.19808 24.012 10.7266 24.012 12.3204V15.26H11.993V12.3204ZM27.0795 26.9017C27.0799 26.9853 27.064 27.0682 27.0324 27.1457C27.0009 27.2231 26.9544 27.2936 26.8956 27.3531C26.8368 27.4126 26.7669 27.4599 26.6898 27.4923C26.6127 27.5248 26.53 27.5417 26.4464 27.5422H9.55865C9.38964 27.5412 9.22792 27.4732 9.109 27.3532C8.99007 27.2331 8.92365 27.0707 8.92431 26.9017V17.6931C8.92431 17.6098 8.94071 17.5273 8.97259 17.4504C9.00447 17.3734 9.0512 17.3035 9.1101 17.2446C9.16901 17.1857 9.23894 17.139 9.3159 17.1071C9.39286 17.0752 9.47535 17.0588 9.55865 17.0588H26.4414C26.6094 17.0591 26.7704 17.1261 26.8891 17.245C27.0078 17.3639 27.0745 17.5251 27.0745 17.6931L27.0795 26.9017Z" fill="black"/>
</svg>
