<svg width="36" height="36" viewBox="0 0 36 36" fill="none" xmlns="http://www.w3.org/2000/svg">
<path d="M31.5051 17.7477C30.9375 17.2007 30.2673 16.7713 29.5332 16.4844C28.7193 16.1557 27.8705 15.9211 27.0033 15.7853C24.4792 13.9266 21.4138 12.9499 18.2797 13.0056C16.5085 12.9755 14.7373 13.0666 12.9785 13.2783C12.1164 13.4184 11.7026 13.4497 10.7579 14.7236C10.2479 15.3583 9.78617 16.0304 9.37647 16.7341L9.34407 16.8104L9.33048 16.8491C9.29838 16.9691 9.27498 17.0913 9.26047 17.2148C9.24479 17.3266 9.22912 17.4573 9.21344 17.613C9.20613 17.6882 9.19881 17.7582 9.19254 17.8219C9.11057 17.9014 9.03511 17.9874 8.96683 18.079C8.65503 18.5061 8.49203 19.0237 8.50286 19.5524C8.48233 20.0081 8.57256 20.4619 8.76584 20.875C8.95913 21.2882 9.24969 21.6483 9.61263 21.9245C9.77833 22.0245 9.95331 22.1081 10.1351 22.1743C10.3008 22.61 10.5925 22.9864 10.973 23.2556C11.3535 23.5248 11.8055 23.6746 12.2715 23.6858C12.7375 23.697 13.1962 23.5691 13.5892 23.3185C13.9822 23.0679 14.2917 22.706 14.4781 22.2788H25.6051C25.7843 22.69 26.0776 23.0413 26.4503 23.2909C26.8231 23.5405 27.2595 23.678 27.708 23.6871C28.1565 23.6963 28.5982 23.5766 28.9808 23.3424C29.3634 23.1081 29.6707 22.7691 29.8665 22.3655C30.4211 22.4011 30.9777 22.3382 31.5103 22.1795C31.8104 22.0596 32.0619 21.843 32.2251 21.5641C32.3268 21.3809 32.3974 21.182 32.4341 20.9757C32.4837 20.6806 32.5054 20.3814 32.4989 20.0822C32.4981 19.6464 32.4097 19.2151 32.239 18.8141C32.0682 18.413 31.8186 18.0504 31.5051 17.7477ZM24.9823 16.0392C23.1036 16.2761 21.2084 16.3568 19.3164 16.2806L19.2045 14.363C21.2319 14.4809 23.2066 15.0538 24.9823 16.0392ZM17.8461 14.3338L17.9558 16.2398C16.6872 16.1928 15.5178 16.1228 14.6526 16.0559L14.5084 14.4477C15.3235 14.3902 16.428 14.3432 17.8461 14.3348V14.3338ZM13.0454 22.0583C12.8789 22.2251 12.6597 22.329 12.4251 22.3523C12.1906 22.3756 11.9552 22.3169 11.7591 22.1861C11.563 22.0553 11.4183 21.8607 11.3497 21.6352C11.281 21.4097 11.2927 21.1674 11.3827 20.9495C11.4727 20.7317 11.6354 20.5518 11.8431 20.4404C12.0509 20.3291 12.2908 20.2932 12.5221 20.3389C12.7533 20.3847 12.9615 20.5092 13.1112 20.6912C13.261 20.8732 13.3429 21.1015 13.3432 21.3372C13.3436 21.4713 13.3175 21.6041 13.2664 21.728C13.2153 21.852 13.1402 21.9646 13.0454 22.0594V22.0583ZM28.4757 22.0583C28.3091 22.2251 28.0899 22.329 27.8554 22.3523C27.6208 22.3756 27.3855 22.3169 27.1894 22.1861C26.9933 22.0553 26.8486 21.8607 26.7799 21.6352C26.7113 21.4097 26.7229 21.1674 26.8129 20.9495C26.9029 20.7317 27.0656 20.5518 27.2734 20.4404C27.4811 20.3291 27.7211 20.2932 27.9523 20.3389C28.1835 20.3847 28.3917 20.5092 28.5415 20.6912C28.6912 20.8732 28.7732 21.1015 28.7735 21.3372C28.7742 21.4713 28.7483 21.6043 28.6972 21.7282C28.646 21.8522 28.5707 21.9648 28.4757 22.0594V22.0583ZM31.1142 20.773C31.1059 20.8243 31.0878 20.8736 31.061 20.9182C31.0338 20.936 31.0043 20.9497 30.9732 20.959C30.6806 21.0225 30.3809 21.0478 30.0818 21.0342C30.0084 20.4772 29.7377 19.965 29.3187 19.5907C28.8998 19.2163 28.3604 19.0046 27.7987 18.9941C27.237 18.9836 26.6902 19.175 26.2575 19.5335C25.8249 19.8919 25.5352 20.3936 25.441 20.9475H14.638C14.5508 20.4327 14.2946 19.9617 13.9097 19.609C13.5249 19.2562 13.0334 19.0418 12.513 18.9997C11.9927 18.9577 11.4731 19.0903 11.0366 19.3766C10.6 19.663 10.2714 20.0866 10.1027 20.5807C10.003 20.4393 9.92974 20.2811 9.88641 20.1136C9.84345 19.9298 9.82415 19.7411 9.82894 19.5524C9.82044 19.4038 9.84403 19.2551 9.89813 19.1165C9.95223 18.9778 10.0356 18.8524 10.1424 18.7488L10.1738 18.7238L10.3995 18.4949C10.4517 18.4073 10.4835 18.3091 10.4925 18.2075V18.1908C10.4925 18.1542 10.503 18.0508 10.5155 17.9212C10.528 17.7916 10.5479 17.5743 10.573 17.3987C10.5803 17.3486 10.5876 17.3036 10.5939 17.2712C10.8918 16.7437 11.2345 16.2428 11.6179 15.7738C11.8468 15.4854 12.06 15.223 12.2345 15.037C12.479 14.7809 12.8094 14.6239 13.1625 14.5961L13.3537 16.7508C13.3681 16.9092 13.4377 17.0575 13.5504 17.1696C13.6632 17.2818 13.8118 17.3506 13.9702 17.3642C14.198 17.3851 17.4187 17.6547 20.6466 17.6547C22.6214 17.7452 24.5986 17.5409 26.5132 17.0486C26.5555 17.0626 26.5988 17.0731 26.6428 17.08H26.6783L26.7535 17.0905C26.8235 17.1009 26.9343 17.1165 27.0754 17.1437C27.4384 17.2118 27.7977 17.2987 28.1517 17.4039C29.0412 17.6356 29.8642 18.0718 30.5552 18.6778C30.747 18.8575 30.9 19.0747 31.0046 19.3159C31.1092 19.5571 31.1632 19.8172 31.1634 20.0801C31.1722 20.3125 31.1557 20.5452 31.1142 20.774V20.773Z" fill="black"/>
<path fill-rule="evenodd" clip-rule="evenodd" d="M3.75 17C3.75 16.5858 4.08579 16.25 4.5 16.25H7.5C7.91421 16.25 8.25 16.5858 8.25 17C8.25 17.4142 7.91421 17.75 7.5 17.75H4.5C4.08579 17.75 3.75 17.4142 3.75 17ZM3.25 19.5C3.25 19.0858 3.58579 18.75 4 18.75H7C7.41421 18.75 7.75 19.0858 7.75 19.5C7.75 19.9142 7.41421 20.25 7 20.25H4C3.58579 20.25 3.25 19.9142 3.25 19.5ZM3.75 22C3.75 21.5858 4.08579 21.25 4.5 21.25H7.5C7.91421 21.25 8.25 21.5858 8.25 22C8.25 22.4142 7.91421 22.75 7.5 22.75H4.5C4.08579 22.75 3.75 22.4142 3.75 22Z" fill="black"/>
</svg>
