<svg width="36" height="36" viewBox="0 0 36 36" fill="none" xmlns="http://www.w3.org/2000/svg">
<path d="M26.7778 6.7655H9.22222C8.57097 6.76649 7.94667 7.02563 7.48617 7.48614C7.02566 7.94664 6.76652 8.57094 6.76553 9.22219V26.7778C6.76652 27.429 7.02566 28.0533 7.48617 28.5138C7.94667 28.9743 8.57097 29.2335 9.22222 29.2345H26.7778C27.4291 29.2335 28.0534 28.9743 28.5139 28.5138C28.9744 28.0533 29.2335 27.429 29.2345 26.7778V9.22219C29.2335 8.57094 28.9744 7.94664 28.5139 7.48614C28.0534 7.02563 27.4291 6.76649 26.7778 6.7655ZM27.5139 9.22219V26.7778C27.5136 26.9729 27.436 27.16 27.298 27.2979C27.16 27.4359 26.9729 27.5136 26.7778 27.5139H9.22222C9.02709 27.5136 8.84004 27.4359 8.70206 27.2979C8.56408 27.16 8.48641 26.9729 8.48609 26.7778V9.22219C8.48641 9.02706 8.56408 8.84001 8.70206 8.70203C8.84004 8.56405 9.02709 8.48638 9.22222 8.48605H26.7778C26.9729 8.48638 27.16 8.56405 27.298 8.70203C27.436 8.84001 27.5136 9.02706 27.5139 9.22219Z" fill="black"/>
<path d="M19.003 11.5449H14.4099C14.2877 11.5453 14.1705 11.594 14.0842 11.6806C13.9979 11.7672 13.9494 11.8845 13.9494 12.0067V23.9761C13.9494 24.0984 13.9979 24.2156 14.0842 24.3022C14.1705 24.3888 14.2877 24.4376 14.4099 24.4379H15.2081C15.3304 24.4376 15.4475 24.3888 15.5339 24.3022C15.6202 24.2156 15.6687 24.0984 15.6687 23.9761V20.4518H19.1979C19.8185 20.4513 20.4322 20.3213 20.9997 20.0701C21.5672 19.819 22.0761 19.4522 22.4938 18.9932C22.9145 18.5334 23.2332 17.9897 23.4287 17.3979C23.6243 16.806 23.6923 16.1795 23.6284 15.5595C23.4112 13.3089 21.3803 11.5449 19.003 11.5449ZM21.9277 16.0015C21.9277 16.7258 21.64 17.4204 21.1278 17.9326C20.6156 18.4448 19.921 18.7325 19.1967 18.7325H15.6674V13.2704H19.1967C19.5556 13.2704 19.9111 13.3412 20.2427 13.4787C20.5743 13.6162 20.8755 13.8177 21.1291 14.0717C21.3828 14.3257 21.5839 14.6272 21.7209 14.9589C21.8579 15.2907 21.9282 15.6462 21.9277 16.0052V16.0015Z" fill="black"/>
</svg>
