<svg width="36" height="36" viewBox="0 0 36 36" fill="none" xmlns="http://www.w3.org/2000/svg">
<path d="M18 5.01367C16.1032 5.01367 14.3069 5.31409 12.9414 5.86029C10.7591 6.73298 10.4276 7.92595 10.4276 8.56526V27.4342C10.4276 29.7631 14.2349 30.9809 18 30.9809C19.8969 30.9809 21.6931 30.6804 23.0587 30.1342C25.241 29.2653 25.5675 28.0686 25.5675 27.4342V8.56526C25.5725 6.23147 21.7602 5.01367 18 5.01367ZM23.8345 27.4342C23.8345 27.9755 21.8483 29.2429 18 29.2429C14.1518 29.2429 12.1655 27.9804 12.1655 27.4342V10.9015C13.6266 11.6973 15.8177 12.1069 18 12.1069C19.8969 12.1069 21.6931 11.8065 23.0587 11.2603C23.3245 11.156 23.5836 11.0353 23.8345 10.8991V27.4342ZM18 10.369C14.1518 10.369 12.1655 9.10153 12.1655 8.56029C12.1655 8.01905 14.1518 6.7516 18 6.7516C21.8483 6.7516 23.8345 8.01905 23.8345 8.56526C23.8345 9.11147 21.8483 10.369 18 10.369Z" fill="black"/>
<path d="M3.02526 18.0002C3.01981 16.1391 3.71772 14.3447 4.97919 12.9763C5.07675 12.8714 5.135 12.7359 5.14405 12.5929C5.1531 12.4499 5.1124 12.3082 5.02884 12.1918C5.01152 12.1665 4.992 12.1429 4.9705 12.121L4.6105 11.7561L4.59312 11.7399C4.47404 11.6293 4.3163 11.5698 4.15382 11.5742C3.99134 11.5786 3.83706 11.6466 3.72416 11.7635C2.15944 13.4631 1.29089 15.6888 1.29089 17.999C1.29089 20.3091 2.15944 22.5349 3.72416 24.2344L3.74278 24.253C3.85993 24.3656 4.01656 24.4278 4.17903 24.4261C4.3415 24.4245 4.49686 24.3593 4.61174 24.2444L4.96553 23.8819C5.07594 23.7664 5.13756 23.6128 5.13756 23.453C5.13756 23.2932 5.07594 23.1396 4.96553 23.0241C3.70935 21.6535 3.01646 19.8594 3.02526 18.0002Z" fill="black"/>
<path d="M7.63325 15.1446C7.72809 15.0388 7.78377 14.9037 7.791 14.7618C7.79823 14.6199 7.75657 14.4799 7.67297 14.365C7.65571 14.3415 7.63706 14.3192 7.61711 14.298L7.25587 13.933C7.24864 13.9245 7.24076 13.9166 7.23228 13.9094C7.11129 13.8007 6.95245 13.7438 6.78993 13.751C6.62742 13.7582 6.47423 13.8289 6.36332 13.9479C5.37161 15.0631 4.82451 16.504 4.82611 17.9964C4.82772 19.4888 5.37791 20.9286 6.37201 22.0417L6.39932 22.069C6.51696 22.1811 6.67387 22.2426 6.83634 22.2402C6.99881 22.2379 7.15389 22.172 7.26828 22.0566L7.62208 21.6953C7.63546 21.6821 7.64752 21.6675 7.65808 21.6519C7.75184 21.5366 7.80115 21.3916 7.79705 21.2431C7.79295 21.0945 7.73571 20.9524 7.63573 20.8425C6.94575 20.0539 6.56524 19.0418 6.56478 17.994C6.56433 16.9462 6.94396 15.9338 7.63325 15.1446Z" fill="black"/>
<path d="M32.2759 11.7635C32.163 11.6466 32.0087 11.5786 31.8462 11.5742C31.6837 11.5698 31.526 11.6293 31.4069 11.7399L31.3908 11.7561L31.0345 12.121C31.013 12.1429 30.9935 12.1665 30.9762 12.1918C30.8926 12.3082 30.8519 12.4499 30.8609 12.5929C30.87 12.7359 30.9282 12.8714 31.0258 12.9763C32.2815 14.3476 32.978 16.1396 32.978 17.999C32.978 19.8583 32.2815 21.6503 31.0258 23.0216C30.9162 23.1379 30.8557 23.2919 30.8569 23.4517C30.858 23.6115 30.9208 23.7647 31.032 23.8794L31.3895 24.2418C31.5044 24.3567 31.6598 24.422 31.8222 24.4236C31.9847 24.4253 32.1413 24.3631 32.2585 24.2505L32.2771 24.2319C33.8418 22.5324 34.7104 20.3066 34.7104 17.9965C34.7104 15.6863 33.8418 13.4606 32.2771 11.761L32.2759 11.7635Z" fill="black"/>
<path d="M29.638 13.947C29.5271 13.828 29.3739 13.7573 29.2114 13.7501C29.0488 13.7429 28.89 13.7998 28.769 13.9086C28.7605 13.9158 28.7526 13.9237 28.7454 13.9321L28.3842 14.2971C28.3642 14.3183 28.3456 14.3407 28.3283 14.3641C28.2447 14.479 28.2031 14.6191 28.2103 14.761C28.2175 14.9028 28.2732 15.0379 28.368 15.1437C29.0577 15.9326 29.4377 16.9449 29.4377 17.9927C29.4377 19.0405 29.0577 20.0528 28.368 20.8417C28.2681 20.9516 28.2108 21.0937 28.2067 21.2422C28.2026 21.3907 28.2519 21.5358 28.3457 21.651C28.3563 21.6667 28.3683 21.6812 28.3817 21.6945L28.7355 22.0557C28.8499 22.1711 29.005 22.2371 29.1674 22.2394C29.3299 22.2417 29.4868 22.1802 29.6045 22.0681L29.6318 22.0408C30.6255 20.9274 31.1753 19.4875 31.1764 17.9951C31.1776 16.5027 30.63 15.062 29.638 13.947Z" fill="black"/>
<path d="M18 8.06302C18.482 8.06302 18.8727 7.89851 18.8727 7.69557C18.8727 7.49264 18.482 7.32812 18 7.32812C17.518 7.32812 17.1273 7.49264 17.1273 7.69557C17.1273 7.89851 17.518 8.06302 18 8.06302Z" fill="black"/>
<path d="M21.0302 8.16211C20.5485 8.16211 20.1612 8.32597 20.1612 8.53452C20.1612 8.74307 20.5522 8.90694 21.0302 8.90694C21.5081 8.90694 21.8991 8.74183 21.8991 8.53452C21.8991 8.32721 21.513 8.16211 21.0302 8.16211Z" fill="black"/>
<path d="M14.9699 8.16211C14.487 8.16211 14.1009 8.32597 14.1009 8.53452C14.1009 8.74307 14.4919 8.90694 14.9699 8.90694C15.4478 8.90694 15.8388 8.74183 15.8388 8.53452C15.8388 8.32721 15.4515 8.16211 14.9699 8.16211Z" fill="black"/>
<path d="M18 8.9502C17.5184 8.9502 17.131 9.11406 17.131 9.32261C17.131 9.53116 17.5221 9.69502 18 9.69502C18.4779 9.69502 18.869 9.52992 18.869 9.32261C18.869 9.1153 18.4817 8.9502 18 8.9502Z" fill="black"/>
</svg>
