<svg width="36" height="36" viewBox="0 0 36 36" fill="none" xmlns="http://www.w3.org/2000/svg">
<path d="M11.8005 11.0061L21.1506 15.7519L20.1575 16.1429C19.9979 16.1955 19.8656 16.3091 19.7895 16.4589C19.7135 16.6087 19.6998 16.7825 19.7516 16.9424L19.903 17.4066C19.9287 17.4859 19.9699 17.5592 20.024 17.6225C20.0781 17.6858 20.1442 17.7378 20.2185 17.7755C20.2928 17.8132 20.3737 17.8359 20.4568 17.8423C20.5398 17.8486 20.6233 17.8385 20.7025 17.8126L23.93 16.6953C24.09 16.6416 24.222 16.5265 24.2972 16.3755C24.3724 16.2244 24.3845 16.0497 24.331 15.8897L23.3379 12.6124C23.3122 12.5332 23.2711 12.4599 23.2169 12.3966C23.1628 12.3333 23.0967 12.2813 23.0224 12.2436C22.9482 12.2059 22.8672 12.1832 22.7841 12.1768C22.7011 12.1704 22.6176 12.1805 22.5385 12.2065L22.0754 12.3579C21.9962 12.3837 21.9229 12.4248 21.8596 12.4789C21.7963 12.5331 21.7443 12.5992 21.7066 12.6734C21.6689 12.7477 21.6462 12.8287 21.6398 12.9117C21.6334 12.9948 21.6435 13.0783 21.6695 13.1574L21.9401 14.1902L12.5925 9.44691C12.4429 9.37115 12.2693 9.35788 12.1098 9.41002C11.9504 9.46216 11.8182 9.57543 11.7422 9.72498L11.5225 10.1557C11.4467 10.3054 11.4334 10.479 11.4856 10.6384C11.5377 10.7979 11.651 10.9301 11.8005 11.0061Z" fill="black"/>
<path d="M29.3251 25.8591H7.90635V8.90804C7.90472 8.7839 7.85434 8.66537 7.76609 8.57805C7.67783 8.49072 7.55878 8.4416 7.43463 8.44128H6.6749C6.55149 8.44288 6.43357 8.49254 6.34618 8.57969C6.25879 8.66685 6.20883 8.78464 6.2069 8.90804V26.7119C6.20723 26.938 6.29719 27.1547 6.45705 27.3146C6.61692 27.4744 6.83365 27.5644 7.05973 27.5647H29.3301C29.4554 27.5644 29.5755 27.5145 29.6642 27.4258C29.7528 27.3372 29.8027 27.2171 29.803 27.0918V26.332C29.8029 26.2696 29.7904 26.2077 29.7662 26.1501C29.7421 26.0925 29.7068 26.0402 29.6624 25.9962C29.618 25.9523 29.5653 25.9175 29.5074 25.894C29.4496 25.8704 29.3876 25.8586 29.3251 25.8591Z" fill="black"/>
<path d="M12.1693 14.7811H11.4095C11.1483 14.7811 10.9366 14.9929 10.9366 15.2541V22.7135C10.9366 22.9747 11.1483 23.1865 11.4095 23.1865H12.1693C12.4305 23.1865 12.6422 22.9747 12.6422 22.7135V15.2541C12.6422 14.9929 12.4305 14.7811 12.1693 14.7811Z" fill="black"/>
<path d="M16.7263 17.1036H15.9666C15.7053 17.1036 15.4936 17.3154 15.4936 17.5766V22.7134C15.4936 22.9746 15.7053 23.1864 15.9666 23.1864H16.7263C16.9875 23.1864 17.1992 22.9746 17.1992 22.7134V17.5766C17.1992 17.3154 16.9875 17.1036 16.7263 17.1036Z" fill="black"/>
<path d="M25.8406 20.9458H25.0809C24.8196 20.9458 24.6079 21.1576 24.6079 21.4188V22.7135C24.6079 22.9747 24.8196 23.1865 25.0809 23.1865H25.8406C26.1018 23.1865 26.3135 22.9747 26.3135 22.7135V21.4188C26.3135 21.1576 26.1018 20.9458 25.8406 20.9458Z" fill="black"/>
<path d="M21.2834 19.6063H20.5237C20.2625 19.6063 20.0508 19.8181 20.0508 20.0793V22.7123C20.0508 22.9735 20.2625 23.1852 20.5237 23.1852H21.2834C21.5447 23.1852 21.7564 22.9735 21.7564 22.7123V20.0793C21.7564 19.8181 21.5447 19.6063 21.2834 19.6063Z" fill="black"/>
</svg>
