<svg width="36" height="36" viewBox="0 0 36 36" fill="none" xmlns="http://www.w3.org/2000/svg">
<path d="M18 5.55155C15.634 5.5449 13.3533 6.43466 11.6168 8.04176L11.5969 8.06162C11.5389 8.12095 11.4931 8.19113 11.4622 8.26816C11.4312 8.3452 11.4158 8.42757 11.4167 8.51057C11.4176 8.59357 11.4349 8.67558 11.4675 8.75191C11.5002 8.82824 11.5475 8.89739 11.6069 8.95541L11.9793 9.32782C12.0966 9.44179 12.2533 9.50606 12.4169 9.50721C12.5804 9.50837 12.7381 9.44633 12.8569 9.33403C14.261 8.04803 16.096 7.33472 18 7.33472C19.904 7.33472 21.7389 8.04803 23.143 9.33403C23.2503 9.43463 23.3893 9.49474 23.5361 9.50403C23.6829 9.51332 23.8283 9.4712 23.9474 9.38493C23.9727 9.36717 23.9964 9.34723 24.0182 9.32534L24.3906 8.95293L24.4068 8.93679C24.5218 8.81487 24.5838 8.65231 24.5791 8.48476C24.5744 8.31721 24.5035 8.15835 24.3819 8.043C22.646 6.43574 20.3657 5.54555 18 5.55155Z" fill="black"/>
<path d="M13.8625 10.7578L13.8339 10.7851C13.7759 10.8447 13.7302 10.9152 13.6995 10.9925C13.6688 11.0697 13.6537 11.1523 13.6549 11.2355C13.6562 11.3186 13.6739 11.4007 13.7069 11.477C13.74 11.5533 13.7878 11.6224 13.8476 11.6802L14.22 12.0426C14.2337 12.0564 14.2487 12.0688 14.2647 12.0799C14.3829 12.175 14.5311 12.225 14.6828 12.2209C14.8345 12.2168 14.9798 12.1589 15.0927 12.0575C15.9003 11.351 16.9369 10.9616 18.0099 10.9616C19.083 10.9616 20.1196 11.351 20.9272 12.0575C21.0359 12.1539 21.1742 12.2103 21.3193 12.2175C21.4644 12.2247 21.6076 12.1823 21.7254 12.0973C21.7495 12.08 21.7723 12.0609 21.7936 12.0402L22.1661 11.6678C22.1748 11.6604 22.1827 11.6521 22.1896 11.6429C22.3022 11.5194 22.3613 11.3563 22.3541 11.1893C22.3469 11.0224 22.2739 10.865 22.1512 10.7516C21.0089 9.73667 19.5337 9.17659 18.0056 9.17774C16.4776 9.17888 15.0032 9.74117 13.8625 10.7578Z" fill="black"/>
<path fill-rule="evenodd" clip-rule="evenodd" d="M7.75 16.25C8.16421 16.25 8.5 16.5858 8.5 17V25.25H13.25C13.6642 25.25 14 25.5858 14 26C14 26.4142 13.6642 26.75 13.25 26.75H7.75C7.33579 26.75 7 26.4142 7 26V17C7 16.5858 7.33579 16.25 7.75 16.25ZM22 17C22 16.5858 22.3358 16.25 22.75 16.25H28.25C28.6642 16.25 29 16.5858 29 17C29 17.4142 28.6642 17.75 28.25 17.75H23.5V20.5H27.75C28.1642 20.5 28.5 20.8358 28.5 21.25C28.5 21.6642 28.1642 22 27.75 22H23.5V24.75H28.25C28.6642 24.75 29 25.0858 29 25.5C29 25.9142 28.6642 26.25 28.25 26.25H22.75C22.3358 26.25 22 25.9142 22 25.5V17ZM12.25 16.25C11.8358 16.25 11.5 16.5858 11.5 17C11.5 17.4142 11.8358 17.75 12.25 17.75H15.5V26C15.5 26.4142 15.8358 26.75 16.25 26.75C16.6642 26.75 17 26.4142 17 26V17.75H20.25C20.6642 17.75 21 17.4142 21 17C21 16.5858 20.6642 16.25 20.25 16.25H12.25Z" fill="black"/>
</svg>
