<svg width="36" height="36" viewBox="0 0 36 36" fill="none" xmlns="http://www.w3.org/2000/svg">
<path d="M18 3.94788C15.2207 3.94788 12.5038 4.77204 10.1929 6.31613C7.88201 7.86023 6.08088 10.0549 5.01728 12.6227C3.95369 15.1904 3.67541 18.0159 4.21762 20.7418C4.75984 23.4677 6.0982 25.9716 8.06347 27.9368C10.0287 29.9021 12.5326 31.2405 15.2585 31.7827C17.9844 32.3249 20.8099 32.0466 23.3777 30.983C25.9454 29.9194 28.1401 28.1183 29.6842 25.8074C31.2283 23.4965 32.0525 20.7796 32.0525 18.0003C32.0482 14.2747 30.5663 10.7029 27.9319 8.06845C25.2975 5.43404 21.7257 3.95215 18 3.94788ZM18 30.3148C15.5645 30.3148 13.1836 29.5925 11.1585 28.2394C9.13336 26.8863 7.55498 24.963 6.62293 22.7128C5.69087 20.4627 5.447 17.9866 5.92216 15.5979C6.39732 13.2091 7.57016 11.0148 9.29237 9.29264C11.0146 7.57042 13.2088 6.39758 15.5976 5.92243C17.9864 5.44727 20.4624 5.69114 22.7126 6.62319C24.9628 7.55524 26.886 9.13362 28.2392 11.1587C29.5923 13.1838 30.3145 15.5647 30.3145 18.0003C30.3109 21.2652 29.0123 24.3953 26.7037 26.7039C24.3951 29.0126 21.2649 30.3112 18 30.3148Z" fill="black"/>
<path d="M20.181 22.6476H19.2115L19.8968 20.6279C19.9117 20.5847 19.9165 20.5386 19.9109 20.4932C19.9053 20.4478 19.8894 20.4043 19.8645 20.366C19.84 20.3277 19.8062 20.2962 19.7662 20.2745C19.7263 20.2528 19.6815 20.2416 19.6361 20.2418H16.905C16.8482 20.2424 16.793 20.2605 16.7468 20.2936C16.7006 20.3267 16.6657 20.3732 16.6468 20.4268L15.5557 23.4396C15.5396 23.4828 15.5337 23.5292 15.5385 23.575C15.5432 23.6209 15.5584 23.665 15.583 23.704C15.607 23.7438 15.6408 23.7767 15.6813 23.7996C15.7217 23.8224 15.7674 23.8344 15.8139 23.8344H16.8268L16.0895 27.0893C16.0743 27.1497 16.0791 27.2133 16.103 27.2708C16.1269 27.3283 16.1688 27.3765 16.2223 27.4083C16.2659 27.4345 16.3155 27.4491 16.3663 27.4505C16.4036 27.4498 16.4404 27.4409 16.474 27.4247C16.5077 27.4084 16.5374 27.385 16.5612 27.3562L20.3772 23.1355C20.4139 23.0937 20.4384 23.0427 20.448 22.988C20.4577 22.9332 20.452 22.8769 20.4318 22.8251C20.4134 22.7733 20.3794 22.7285 20.3345 22.6967C20.2896 22.6649 20.236 22.6478 20.181 22.6476Z" fill="black"/>
<path d="M23.966 10.702H12.0339C11.662 10.7024 11.3054 10.8503 11.0424 11.1132C10.7794 11.3762 10.6315 11.7329 10.6311 12.1048V17.038C10.6315 17.41 10.7794 17.7666 11.0424 18.0296C11.3054 18.2926 11.662 18.4405 12.0339 18.4408H23.966C24.338 18.4405 24.6946 18.2926 24.9576 18.0296C25.2206 17.7666 25.3685 17.41 25.3688 17.038V12.1048C25.3685 11.7329 25.2206 11.3762 24.9576 11.1132C24.6946 10.8503 24.338 10.7024 23.966 10.702ZM23.683 16.7587H12.3169V12.3891H23.683V16.7587Z" fill="black"/>
<path d="M21.482 13.7024H14.5179C14.2217 13.7024 13.9816 13.9425 13.9816 14.2387V14.904C13.9816 15.2002 14.2217 15.4403 14.5179 15.4403H21.482C21.7782 15.4403 22.0183 15.2002 22.0183 14.904V14.2387C22.0183 13.9425 21.7782 13.7024 21.482 13.7024Z" fill="black"/>
</svg>
