<svg width="36" height="36" viewBox="0 0 36 36" fill="none" xmlns="http://www.w3.org/2000/svg">
<path d="M16.9784 32.0934C17.122 32.1631 17.2829 32.1893 17.4413 32.1688C17.5996 32.1483 17.7485 32.0819 17.8697 31.9779L25.8704 25.3105C25.9647 25.232 26.0406 25.1337 26.0927 25.0225C26.1448 24.9114 26.1718 24.7902 26.1718 24.6675C26.1718 24.5447 26.1448 24.4235 26.0927 24.3124C26.0406 24.2013 25.9647 24.1029 25.8704 24.0244L18.6406 18L25.8704 11.9756C25.9647 11.8971 26.0406 11.7988 26.0927 11.6877C26.1448 11.5765 26.1718 11.4553 26.1718 11.3326C26.1718 11.2098 26.1448 11.0886 26.0927 10.9775C26.0406 10.8664 25.9647 10.7681 25.8704 10.6895L17.8759 4.0221C17.7537 3.92008 17.605 3.85503 17.4471 3.83457C17.2893 3.81412 17.1289 3.83911 16.9847 3.90662C16.8406 3.97413 16.7187 4.08135 16.6334 4.21571C16.548 4.35006 16.5028 4.50597 16.5029 4.66513V15.9791L11.2569 10.7404C11.1791 10.6628 11.0868 10.6012 10.9852 10.5591C10.8837 10.5171 10.7748 10.4955 10.6649 10.4956C10.4429 10.4957 10.2301 10.584 10.0732 10.7411C9.99552 10.8188 9.93392 10.9111 9.89191 11.0127C9.8499 11.1143 9.82831 11.2231 9.82837 11.333C9.82849 11.555 9.91678 11.7678 10.0738 11.9247L16.1491 18L10.0738 24.0753C9.91678 24.2322 9.82849 24.445 9.82837 24.667C9.82825 24.889 9.91632 25.1019 10.0732 25.259C10.2301 25.416 10.4429 25.5043 10.6649 25.5044C10.8869 25.5045 11.0998 25.4165 11.2569 25.2596L16.4967 20.021V31.3349C16.4944 31.4945 16.5387 31.6513 16.6243 31.7861C16.7099 31.9208 16.8329 32.0276 16.9784 32.0934ZM18.1701 6.4552L24.0269 11.3363L18.1701 16.2124V6.4552ZM18.1701 19.7913L24.0269 24.6712L18.1701 29.5448V19.7913Z" fill="black"/>
</svg>
