<svg width="36" height="36" viewBox="0 0 36 36" fill="none" xmlns="http://www.w3.org/2000/svg">
<path d="M20.0583 15.9466H19.9341C19.9341 15.9466 19.9428 15.5183 19.9341 15.2787C19.9225 15.0439 19.8808 14.8115 19.81 14.5873C19.6979 14.2839 19.5114 14.0136 19.2675 13.8013C19.0236 13.5889 18.7302 13.4413 18.4143 13.3721C18.0984 13.3029 17.7702 13.3142 17.4598 13.4051C17.1494 13.4959 16.8669 13.6634 16.6383 13.8921C16.4401 14.0885 16.2872 14.3257 16.1901 14.5873C16.1901 14.5873 16.0747 14.7847 16.066 15.2601V15.9466H15.9419C15.7772 15.9466 15.6194 16.012 15.503 16.1284C15.3866 16.2448 15.3212 16.4027 15.3212 16.5673V18.8129C15.3212 18.9776 15.3866 19.1354 15.503 19.2518C15.6194 19.3682 15.7772 19.4336 15.9419 19.4336H20.0583C20.2229 19.4336 20.3807 19.3682 20.4971 19.2518C20.6135 19.1354 20.6789 18.9776 20.6789 18.8129V16.5698C20.6793 16.4881 20.6635 16.4071 20.6324 16.3315C20.6014 16.2559 20.5557 16.1872 20.498 16.1293C20.4404 16.0714 20.3718 16.0254 20.2964 15.9941C20.2209 15.9627 20.14 15.9466 20.0583 15.9466ZM18.3005 17.9154V18.1873C18.2956 18.2625 18.2623 18.333 18.2073 18.3846C18.1523 18.4361 18.0798 18.4648 18.0044 18.4648C17.929 18.4648 17.8565 18.4361 17.8015 18.3846C17.7465 18.333 17.7132 18.2625 17.7083 18.1873V17.9154C17.6092 17.8515 17.5335 17.7572 17.4924 17.6467C17.4513 17.5361 17.4471 17.4152 17.4804 17.3021C17.5138 17.189 17.5828 17.0897 17.6773 17.019C17.7717 16.9484 17.8865 16.9102 18.0044 16.9102C18.1223 16.9102 18.2371 16.9484 18.3315 17.019C18.426 17.0897 18.495 17.189 18.5283 17.3021C18.5617 17.4152 18.5575 17.5361 18.5164 17.6467C18.4753 17.7572 18.3996 17.8515 18.3005 17.9154ZM19.4351 15.9466H16.565V15.2601C16.565 14.8795 16.7162 14.5145 16.9853 14.2454C17.2545 13.9763 17.6195 13.8251 18.0001 13.8251C18.3806 13.8251 18.7457 13.9763 19.0148 14.2454C19.2839 14.5145 19.4351 14.8795 19.4351 15.2601V15.9466Z" fill="black"/>
<path d="M23.1875 4.375H13.0625C11.1641 4.375 9.6875 5.9043 9.6875 7.75V28C9.6875 29.8984 11.1641 31.375 13.0625 31.375H23.1875C25.0332 31.375 26.5625 29.8984 26.5625 28V7.75C26.5625 5.9043 25.0332 4.375 23.1875 4.375ZM24.875 28C24.875 28.9492 24.084 29.6875 23.1875 29.6875H13.0625C12.1133 29.6875 11.375 28.9492 11.375 28V7.75C11.375 6.85352 12.1133 6.0625 13.0625 6.0625H23.1875C24.084 6.0625 24.875 6.85352 24.875 7.75V28ZM19.8125 25.4688H16.4375C15.9629 25.4688 15.5938 25.8906 15.5938 26.3125C15.5938 26.7871 15.9629 27.1562 16.4375 27.1562H19.8125C20.2344 27.1562 20.6562 26.7871 20.6562 26.3125C20.6562 25.8906 20.2344 25.4688 19.8125 25.4688Z" fill="black"/>
</svg>
