<svg width="36" height="36" viewBox="0 0 36 36" fill="none" xmlns="http://www.w3.org/2000/svg">
<path d="M31.6341 25.2288L25.4719 19.4626C25.4479 19.4406 25.4327 19.4106 25.429 19.3782C25.4254 19.3458 25.4335 19.3132 25.452 19.2864L28.4959 14.8075C28.6099 14.6471 28.6738 14.4565 28.6793 14.2598C28.6848 14.0631 28.6318 13.8691 28.5269 13.7026C28.4237 13.5359 28.2761 13.4012 28.1008 13.3136C27.9254 13.2259 27.7291 13.1887 27.5338 13.2061L21.1581 13.6132C20.9961 13.6235 20.8402 13.679 20.7082 13.7733C20.5761 13.8677 20.473 13.9971 20.4108 14.147C20.3485 14.2969 20.3294 14.4613 20.3558 14.6214C20.3821 14.7816 20.4528 14.9312 20.5597 15.0533C20.9871 15.5421 21.2646 16.1436 21.3592 16.786C21.4537 17.4283 21.3612 18.0843 21.0928 18.6756C20.8244 19.2668 20.3914 19.7682 19.8456 20.1198C19.2998 20.4714 18.6642 20.6584 18.0149 20.6584C17.3656 20.6584 16.7301 20.4714 16.1843 20.1198C15.6384 19.7682 15.2054 19.2668 14.937 18.6756C14.6686 18.0843 14.5761 17.4283 14.6707 16.786C14.7652 16.1436 15.0427 15.5421 15.4701 15.0533C15.5775 14.9305 15.6482 14.7801 15.6741 14.6191C15.7 14.4581 15.6801 14.2931 15.6166 14.1429C15.5532 13.9927 15.4487 13.8633 15.3153 13.7697C15.1818 13.676 15.0246 13.6218 14.8618 13.6132L7.11189 13.2061C6.90112 13.187 6.6895 13.232 6.50476 13.3352C6.32002 13.4384 6.17077 13.595 6.07658 13.7846C5.98121 13.9725 5.94809 14.1859 5.98201 14.3939C6.01593 14.6018 6.11513 14.7936 6.26527 14.9415L10.5207 19.4105C10.5421 19.4328 10.555 19.462 10.557 19.4929C10.5591 19.5238 10.5502 19.5544 10.5319 19.5793L7.46692 24.083C7.35403 24.2442 7.29101 24.4349 7.28572 24.6316C7.28042 24.8283 7.33307 25.0222 7.43713 25.1891C7.54193 25.3584 7.69229 25.4948 7.871 25.5826C8.04971 25.6704 8.24955 25.7062 8.44761 25.6857L14.0698 25.2003H14.0822C14.1233 25.1954 14.1647 25.2051 14.1993 25.2279C14.2338 25.2506 14.2592 25.2848 14.2709 25.3244L15.9567 31.9608C15.9567 31.972 15.9629 31.9844 15.9666 31.9956C16.0255 32.1941 16.1418 32.3707 16.3008 32.5033C16.4599 32.6358 16.6546 32.7183 16.8604 32.7404C16.9016 32.7453 16.9431 32.7478 16.9846 32.7479C17.17 32.7472 17.3521 32.6985 17.5131 32.6065C17.6741 32.5145 17.8085 32.3823 17.9032 32.2228L17.9206 32.1917L21.5603 25.343C21.5811 25.3054 21.6135 25.2755 21.6526 25.2576C21.6917 25.2398 21.7355 25.2349 21.7775 25.2437L30.6882 26.9904C30.9143 27.042 31.1512 27.0178 31.3623 26.9216C31.5734 26.8254 31.7469 26.6624 31.8563 26.4578C31.9655 26.2585 32.003 26.0277 31.9626 25.804C31.9221 25.5804 31.8062 25.3773 31.6341 25.2288ZM22.1152 23.5368C21.7092 23.4554 21.2877 23.5065 20.9129 23.6826C20.5382 23.8587 20.2298 24.1505 20.0334 24.515L17.208 29.8294L15.953 24.8912C15.8474 24.4815 15.6083 24.1187 15.2736 23.86C14.9389 23.6013 14.5276 23.4614 14.1046 23.4624C14.0425 23.4624 13.9804 23.4624 13.9171 23.471L9.74361 23.8348L11.962 20.5712C12.2064 20.216 12.3208 19.7874 12.2857 19.3576C12.2507 18.9279 12.0683 18.5234 11.7695 18.2126L8.74554 15.0334L13.3002 15.2693C12.9695 16.048 12.8371 16.8967 12.9148 17.7392C12.9924 18.5817 13.2777 19.3918 13.7451 20.097C14.2125 20.8023 14.8475 21.3806 15.5932 21.7804C16.3389 22.1801 17.172 22.3887 18.0181 22.3876C18.8642 22.3865 19.6968 22.1757 20.4414 21.774C21.186 21.3723 21.8195 20.7922 22.285 20.0858C22.7506 19.3793 23.0338 18.5684 23.1092 17.7257C23.1846 16.883 23.05 16.0348 22.7173 15.2568L26.2477 15.0309L24.0207 18.3069C23.7698 18.6781 23.6594 19.1267 23.7095 19.5719C23.7595 20.0172 23.9667 20.43 24.2938 20.7363L28.656 24.8179L22.1152 23.5368Z" fill="black"/>
<path d="M18.0099 19.4041C18.4959 19.4039 18.9672 19.2371 19.3451 18.9314C19.7229 18.6257 19.9845 18.1997 20.0862 17.7244C20.1879 17.2492 20.1235 16.7534 19.9038 16.3199C19.684 15.8864 19.3223 15.5413 18.8789 15.3423V3.31086C18.8789 3.0804 18.7873 2.85937 18.6243 2.69641C18.4614 2.53345 18.2404 2.44189 18.0099 2.44189C17.7794 2.44189 17.5584 2.53345 17.3954 2.69641C17.2325 2.85937 17.1409 3.0804 17.1409 3.31086V15.3423C16.6975 15.5413 16.3358 15.8864 16.116 16.3199C15.8963 16.7534 15.8319 17.2492 15.9336 17.7244C16.0353 18.1997 16.2969 18.6257 16.6747 18.9314C17.0526 19.2371 17.5239 19.4039 18.0099 19.4041Z" fill="black"/>
</svg>
