<svg width="36" height="36" viewBox="0 0 36 36" fill="none" xmlns="http://www.w3.org/2000/svg">
<path d="M18.1888 6.0083H17.8114C17.4309 6.0083 17.1224 6.31676 17.1224 6.69727V16.1802C17.1224 16.5607 17.4309 16.8691 17.8114 16.8691H18.1888C18.5693 16.8691 18.8777 16.5607 18.8777 16.1802V6.69727C18.8777 6.31676 18.5693 6.0083 18.1888 6.0083Z" fill="black"/>
<path d="M24.3062 8.20802C24.2255 8.15797 24.1355 8.12479 24.0416 8.11049C23.9478 8.0962 23.852 8.10108 23.76 8.12485C23.6699 8.14782 23.5854 8.18896 23.5118 8.24574C23.4381 8.30252 23.3769 8.37375 23.3317 8.45505L23.148 8.78402C23.0618 8.93833 23.0383 9.11987 23.0822 9.29108C23.1261 9.46229 23.2341 9.61008 23.3839 9.70388C25.2188 10.8698 26.6259 12.5997 27.3935 14.6337C28.1611 16.6677 28.2479 18.8959 27.6408 20.9834C27.0337 23.0709 25.7655 24.9051 24.0268 26.2102C22.2881 27.5153 20.1728 28.2208 17.9988 28.2208C15.8248 28.2208 13.7094 27.5153 11.9707 26.2102C10.232 24.9051 8.96383 23.0709 8.35673 20.9834C7.74963 18.8959 7.83642 16.6677 8.60406 14.6337C9.3717 12.5997 10.7787 10.8698 12.6137 9.70388C12.7629 9.60989 12.8705 9.46233 12.9144 9.2915C12.9582 9.12067 12.935 8.93952 12.8495 8.78526L12.6621 8.45009C12.6162 8.36842 12.5541 8.29698 12.4796 8.24016C12.4051 8.18334 12.3198 8.14234 12.2289 8.11968C12.138 8.09701 12.0434 8.09315 11.951 8.10835C11.8586 8.12354 11.7702 8.15746 11.6913 8.20802C9.53271 9.57728 7.87661 11.6099 6.97177 14.0007C6.06692 16.3915 5.96218 19.0113 6.67327 21.4667C7.38436 23.922 8.8729 26.0804 10.9153 27.6176C12.9577 29.1549 15.4438 29.9879 18 29.9917H18.0261C20.5818 29.9855 23.0664 29.15 25.1067 27.6109C27.1469 26.0718 28.6327 23.9122 29.3406 21.4565C30.0486 19.0009 29.9405 16.3818 29.0327 13.9928C28.1249 11.6037 26.4663 9.57383 24.3062 8.20802Z" fill="black"/>
</svg>
