<svg width="36" height="36" viewBox="0 0 36 36" fill="none" xmlns="http://www.w3.org/2000/svg">
<path d="M9.29417 18.6991C7.87078 17.1443 7.0813 15.1128 7.0813 13.0049C7.0813 10.897 7.87078 8.86548 9.29417 7.3107C9.39962 7.20089 9.45851 7.05454 9.45851 6.90229C9.45851 6.75004 9.39962 6.60369 9.29417 6.49387L8.88327 6.08298C8.82961 6.02776 8.76559 5.98366 8.69487 5.9532C8.62415 5.92274 8.54812 5.90652 8.47113 5.90546H8.4612C8.3098 5.90492 8.16433 5.96427 8.05651 6.07056L8.03541 6.09167C6.30154 7.9752 5.33911 10.4417 5.33911 13.0018C5.33911 15.5619 6.30154 18.0284 8.03541 19.912C8.08815 19.968 8.15144 20.0131 8.22165 20.0446C8.29185 20.0761 8.36759 20.0935 8.44451 20.0957C8.52144 20.0979 8.59804 20.0848 8.66992 20.0574C8.74181 20.0299 8.80756 19.9885 8.86341 19.9355L8.87955 19.9194L9.283 19.5097C9.38843 19.4018 9.44838 19.2575 9.45046 19.1067C9.45254 18.9558 9.39659 18.8099 9.29417 18.6991Z" fill="black"/>
<path d="M11.0023 17.4659C11.0573 17.5252 11.124 17.5726 11.1981 17.6051C11.2722 17.6375 11.3522 17.6544 11.4331 17.6546C11.5799 17.6561 11.7218 17.602 11.8303 17.5032L11.8527 17.4821L12.2561 17.0712C12.3595 16.9636 12.4184 16.8209 12.421 16.6716C12.4235 16.5224 12.3695 16.3778 12.2698 16.2668C11.4803 15.3645 11.0451 14.2064 11.0451 13.0075C11.0451 11.8086 11.4803 10.6505 12.2698 9.74826C12.3645 9.64229 12.4185 9.50609 12.4222 9.36398C12.4258 9.22187 12.3788 9.08309 12.2896 8.9724C12.278 8.96003 12.2655 8.94842 12.2524 8.93764L11.8551 8.52799C11.7471 8.41622 11.5991 8.35189 11.4436 8.34909C11.2881 8.3463 11.1379 8.40528 11.0259 8.51309L10.9974 8.54288C9.90492 9.77256 9.30194 11.3605 9.30286 13.0054C9.30377 14.6502 9.90852 16.2375 11.0023 17.4659Z" fill="black"/>
<path d="M27.9646 6.0939C27.9125 6.03785 27.8497 5.99265 27.7801 5.96091C27.7104 5.92916 27.6352 5.9115 27.5587 5.90894H27.54C27.3914 5.90868 27.2482 5.96557 27.1403 6.06783L27.1217 6.08521L26.7195 6.49487C26.6137 6.60323 26.5537 6.74823 26.5521 6.89968C26.5505 7.05113 26.6073 7.19737 26.7108 7.30797C28.1345 8.86262 28.9241 10.8942 28.9241 13.0022C28.9241 15.1102 28.1345 17.1417 26.7108 18.6964C26.6056 18.8075 26.5476 18.955 26.5487 19.1079C26.5499 19.2609 26.6102 19.4074 26.717 19.5169L27.1155 19.9216C27.1692 19.9769 27.2332 20.021 27.304 20.0514C27.3747 20.0819 27.4508 20.0981 27.5278 20.0992C27.6048 20.1002 27.6813 20.086 27.7528 20.0575C27.8244 20.0289 27.8896 19.9866 27.9447 19.9328L27.9646 19.9129C29.6978 18.0295 30.6597 15.5635 30.6597 13.004C30.6597 10.4445 29.6978 7.97853 27.9646 6.09514V6.0939Z" fill="black"/>
<path d="M23.7365 16.262C23.635 16.3742 23.5799 16.5207 23.5825 16.6719C23.585 16.8231 23.6449 16.9677 23.7501 17.0764L24.1461 17.4798C24.2005 17.5366 24.2658 17.5817 24.3382 17.6125C24.4105 17.6432 24.4884 17.6589 24.567 17.6586C24.7203 17.6584 24.8676 17.5988 24.9779 17.4922L25.0039 17.4649C26.0971 16.2359 26.7009 14.6483 26.7009 13.0034C26.7009 11.3586 26.0971 9.77097 25.0039 8.5419C24.9524 8.48515 24.8901 8.43924 24.8206 8.40684C24.7511 8.37445 24.6759 8.35622 24.5992 8.35321H24.5719C24.4265 8.35275 24.2861 8.40678 24.1784 8.50466L24.1524 8.52949L23.7439 8.9379C23.6404 9.04569 23.5815 9.18863 23.5789 9.33805C23.5764 9.48747 23.6305 9.63233 23.7303 9.74356C24.5211 10.6448 24.9577 11.8026 24.9588 13.0016C24.96 14.2007 24.5256 15.3593 23.7365 16.262Z" fill="black"/>
<path d="M20.0259 15.5028L20.0793 15.4581C20.599 15.028 20.9732 14.4478 21.1508 13.797C21.3283 13.1462 21.3005 12.4564 21.0712 11.8219C20.8419 11.1875 20.4222 10.6394 19.8696 10.2525C19.3169 9.86558 18.6583 9.6588 17.9837 9.66041C17.3091 9.66202 16.6514 9.87194 16.1006 10.2615C15.5498 10.651 15.1328 11.2011 14.9065 11.8367C14.6802 12.4722 14.6557 13.1621 14.8363 13.8121C15.017 14.4621 15.3939 15.0404 15.9157 15.468L15.9703 15.5127L9.2098 31.061C9.18299 31.1213 9.16847 31.1863 9.1671 31.2523C9.16573 31.3183 9.17752 31.3839 9.20179 31.4453C9.22606 31.5066 9.26233 31.5626 9.30846 31.6098C9.3546 31.657 9.40968 31.6945 9.47049 31.7201L10.1979 32.0367C10.258 32.0636 10.3229 32.0783 10.3887 32.0799C10.4545 32.0816 10.52 32.0701 10.5813 32.0462C10.6426 32.0223 10.6986 31.9864 10.746 31.9407C10.7933 31.8949 10.8311 31.8402 10.8571 31.7797L12.775 27.3703L17.9789 22.8753L23.2585 27.4461L25.1429 31.7797C25.1687 31.8404 25.2063 31.8954 25.2535 31.9414C25.3008 31.9874 25.3567 32.0235 25.4181 32.0477C25.4794 32.0718 25.545 32.0835 25.6109 32.0821C25.6768 32.0806 25.7418 32.066 25.8021 32.0392L26.5295 31.7226C26.5903 31.697 26.6454 31.6594 26.6915 31.6122C26.7377 31.565 26.7739 31.5091 26.7982 31.4478C26.8225 31.3864 26.8343 31.3208 26.8329 31.2548C26.8315 31.1888 26.817 31.1238 26.7902 31.0635L20.0259 15.5028ZM17.9925 11.4708C18.2851 11.4712 18.5709 11.5584 18.814 11.7213C19.057 11.8842 19.2462 12.1155 19.3579 12.3859C19.4695 12.6564 19.4984 12.9538 19.441 13.2407C19.3837 13.5276 19.2425 13.791 19.0355 13.9977C18.8285 14.2044 18.5648 14.3451 18.2778 14.4019C17.9909 14.4588 17.6935 14.4294 17.4232 14.3173C17.153 14.2053 16.922 14.0156 16.7595 13.7723C16.5971 13.529 16.5103 13.243 16.5103 12.9505C16.511 12.5578 16.6674 12.1814 16.9453 11.904C17.2232 11.6266 17.5999 11.4708 17.9925 11.4708ZM19.6461 19.135L17.9801 20.575L16.344 19.1586L17.6338 16.193L17.7033 16.2029C17.9003 16.2283 18.0997 16.2283 18.2967 16.2029L18.3674 16.193L19.6461 19.135ZM14.3739 23.6897L15.6153 20.8283L16.6481 21.7233L14.3739 23.6897ZM19.3072 21.7246L20.3723 20.8047L21.6559 23.7579L19.3072 21.7246Z" fill="black"/>
</svg>
