<svg width="36" height="36" viewBox="0 0 36 36" fill="none" xmlns="http://www.w3.org/2000/svg">
<path d="M31.9618 21.3406L30.5168 12.178C30.1208 9.93105 28.3593 8.12733 26.0292 7.57244H26.0069C20.7339 6.33539 15.2462 6.33539 9.97324 7.57244C7.64068 8.12237 5.87669 9.93105 5.48317 12.1767L4.03944 21.3393C3.93505 21.9401 3.96388 22.5564 4.1239 23.1448C4.28392 23.7332 4.57123 24.2793 4.96551 24.7444C5.40556 25.2618 5.95382 25.6762 6.57157 25.9585C7.18933 26.2408 7.86152 26.384 8.54069 26.3781C10.7665 26.3781 12.7365 25.0337 13.4417 23.0264L13.7272 22.2157H22.2741L22.5583 23.0264C23.2634 25.0275 25.2335 26.3781 27.4593 26.3781C28.1385 26.384 28.8107 26.2408 29.4284 25.9585C30.0462 25.6762 30.5944 25.2618 31.0345 24.7444C31.4284 24.2793 31.7155 23.7334 31.8757 23.1454C32.0359 22.5573 32.0653 21.9412 31.9618 21.3406ZM29.7087 23.6346C29.431 23.9584 29.0857 24.2173 28.697 24.393C28.3083 24.5686 27.8858 24.6568 27.4593 24.6513C25.9696 24.6513 24.6488 23.7712 24.187 22.459L23.4956 20.4952H12.5044L11.813 22.459C11.3512 23.7712 10.0353 24.6513 8.54069 24.6513C8.11374 24.6566 7.69082 24.5682 7.30175 24.3924C6.91267 24.2165 6.56691 23.9574 6.28882 23.6334C6.05188 23.3587 5.87985 23.0341 5.78551 22.6838C5.69117 22.3335 5.67693 21.9665 5.74386 21.6099L7.18386 12.4784C7.45944 10.9142 8.70951 9.64926 10.368 9.25699C15.3892 8.07689 20.6157 8.07689 25.637 9.25699C27.2954 9.64926 28.543 10.9043 28.8161 12.4511L30.2661 21.6373C30.3279 21.9901 30.3104 22.3523 30.2149 22.6976C30.1193 23.0429 29.9481 23.3625 29.7136 23.6334L29.7087 23.6346Z" fill="black"/>
<path d="M22.0394 17.5468C22.8046 17.5468 23.4248 16.9265 23.4248 16.1614C23.4248 15.3963 22.8046 14.776 22.0394 14.776C21.2743 14.776 20.6541 15.3963 20.6541 16.1614C20.6541 16.9265 21.2743 17.5468 22.0394 17.5468Z" fill="black"/>
<path d="M24.8102 14.7761C25.5753 14.7761 26.1956 14.1559 26.1956 13.3908C26.1956 12.6256 25.5753 12.0054 24.8102 12.0054C24.0451 12.0054 23.4248 12.6256 23.4248 13.3908C23.4248 14.1559 24.0451 14.7761 24.8102 14.7761Z" fill="black"/>
<path d="M15.6153 13.9259H13.7793V12.0837C13.7793 11.9711 13.7346 11.8631 13.6549 11.7835C13.5753 11.7039 13.4673 11.6592 13.3547 11.6592H12.5044C12.3918 11.6595 12.2839 11.7043 12.2041 11.7838C12.1244 11.8633 12.0793 11.9711 12.0786 12.0837V13.9259H10.2314C10.1191 13.9269 10.0117 13.972 9.93231 14.0514C9.8529 14.1308 9.80786 14.2382 9.80688 14.3505V15.2008C9.80754 15.3136 9.85261 15.4215 9.93232 15.5012C10.012 15.5809 10.12 15.626 10.2327 15.6266H12.0724V17.4676C12.0731 17.5803 12.1181 17.6882 12.1978 17.768C12.2775 17.8477 12.3855 17.8927 12.4982 17.8934H13.3485C13.4613 17.8931 13.5692 17.8481 13.6488 17.7682C13.7284 17.6884 13.7731 17.5803 13.7731 17.4676V15.6266H15.6153C15.728 15.6263 15.836 15.5813 15.9156 15.5015C15.9952 15.4217 16.0399 15.3135 16.0399 15.2008V14.3505C16.0395 14.238 15.9947 14.1302 15.9151 14.0506C15.8356 13.9711 15.7278 13.9263 15.6153 13.9259Z" fill="black"/>
</svg>
