<svg width="36" height="36" viewBox="0 0 36 36" fill="none" xmlns="http://www.w3.org/2000/svg">
<path d="M30.4262 17.1235C30.1957 17.1235 29.9747 17.215 29.8118 17.378C29.6488 17.5409 29.5572 17.762 29.5572 17.9924C29.5564 20.5172 28.7285 22.9723 27.2002 24.9819C25.6718 26.9916 23.5271 28.4452 21.0943 29.1204C18.6614 29.7955 16.0744 29.6551 13.7289 28.7205C11.3834 27.786 9.4087 26.1088 8.10684 23.9455C6.80497 21.7822 6.24767 19.252 6.52018 16.7419C6.79269 14.2319 7.88 11.8802 9.61578 10.0467C11.3516 8.21323 13.6402 6.99887 16.1316 6.58944C18.623 6.18001 21.1799 6.59804 23.4112 7.77959L22.1214 9.81918C20.342 8.92161 18.3182 8.62929 16.3575 8.98661C14.3968 9.34394 12.6063 10.3314 11.258 11.799C9.90957 13.2666 9.07699 15.1342 8.88666 17.118C8.69634 19.1019 9.15867 21.0937 10.2034 22.7909C11.2482 24.4881 12.8183 25.7979 14.6753 26.5215C16.5323 27.2451 18.5747 27.3429 20.4923 26.8C22.4099 26.2571 24.098 25.1032 25.3001 23.5136C26.5022 21.9239 27.1526 19.9854 27.1527 17.9924C27.1527 17.762 27.0611 17.5409 26.8982 17.378C26.7352 17.215 26.5142 17.1235 26.2837 17.1235C26.0533 17.1235 25.8322 17.215 25.6693 17.378C25.5063 17.5409 25.4148 17.762 25.4148 17.9924C25.4155 19.6011 24.8936 21.1665 23.9275 22.4527C22.9614 23.739 21.6035 24.6765 20.0583 25.124C18.5131 25.5716 16.8644 25.5049 15.3604 24.934C13.8564 24.3632 12.5787 23.3191 11.7196 21.959C10.8605 20.5989 10.4667 18.9965 10.5974 17.3931C10.728 15.7898 11.3762 14.2723 12.4442 13.0693C13.5122 11.8663 14.9421 11.0429 16.5187 10.7231C18.0953 10.4034 19.7331 10.6046 21.1854 11.2964L19.8857 13.3484C18.8911 12.9447 17.7932 12.8711 16.7536 13.1384C15.714 13.4057 14.7878 13.9998 14.1113 14.8331C13.4348 15.6665 13.0439 16.6951 12.996 17.7674C12.9482 18.8397 13.246 19.8991 13.8455 20.7894C14.4451 21.6797 15.3148 22.3539 16.3264 22.7127C17.338 23.0715 18.4381 23.096 19.4647 22.7824C20.4913 22.4689 21.39 21.834 22.0285 20.9712C22.6671 20.1084 23.0116 19.0633 23.0114 17.9899C23.0114 17.7595 22.9199 17.5385 22.7569 17.3755C22.594 17.2125 22.3729 17.121 22.1425 17.121C21.912 17.121 21.691 17.2125 21.528 17.3755C21.3651 17.5385 21.2735 17.7595 21.2735 17.9899C21.2743 18.6785 21.0581 19.3498 20.6556 19.9085C20.2531 20.4672 19.6849 20.8849 19.0315 21.1022C18.3781 21.3195 17.6729 21.3255 17.016 21.1192C16.359 20.9128 15.7838 20.5048 15.372 19.9529C14.9602 19.4011 14.7327 18.7335 14.7219 18.045C14.7111 17.3565 14.9175 16.6822 15.3118 16.1177C15.7061 15.5532 16.2683 15.1273 16.9184 14.9005C17.5686 14.6737 18.2737 14.6575 18.9335 14.8542L18.0472 16.2619C17.9831 16.3584 17.9389 16.4666 17.9173 16.5803C17.8956 16.6941 17.8969 16.811 17.9211 16.9242C17.9452 17.0374 17.9918 17.1447 18.058 17.2397C18.1242 17.3347 18.2087 17.4155 18.3065 17.4773C18.4044 17.5392 18.5136 17.5809 18.6278 17.6C18.742 17.619 18.8588 17.6151 18.9715 17.5884C19.0841 17.5616 19.1903 17.5127 19.2838 17.4444C19.3772 17.376 19.4561 17.2897 19.5157 17.1905L26.6896 5.8567C26.8066 5.66209 26.8428 5.42943 26.7904 5.2085C26.7379 4.98758 26.6012 4.79595 26.4092 4.6746C26.2173 4.55326 25.9856 4.51185 25.7635 4.55924C25.5414 4.60662 25.3468 4.73904 25.2211 4.92814L24.3521 6.30732C21.7932 4.91804 18.8489 4.40726 15.9715 4.85342C13.0941 5.29959 10.4428 6.67802 8.42469 8.77701C6.40661 10.876 5.1334 13.5795 4.80063 16.4721C4.46786 19.3648 5.09392 22.2868 6.58266 24.7892C8.07139 27.2916 10.3405 29.2361 13.0414 30.324C15.7423 31.4119 18.7256 31.583 21.5332 30.8111C24.3408 30.0392 26.8174 28.3669 28.5825 26.0511C30.3476 23.7354 31.3037 20.9042 31.3039 17.9924C31.3039 17.8776 31.2811 17.7639 31.2369 17.6579C31.1927 17.5519 31.1279 17.4557 31.0463 17.3749C30.9647 17.2941 30.8678 17.2302 30.7614 17.1871C30.655 17.1439 30.541 17.1223 30.4262 17.1235Z" fill="black"/>
</svg>
