<svg width="36" height="36" viewBox="0 0 36 36" fill="none" xmlns="http://www.w3.org/2000/svg">
<path d="M29.4334 18.0393H28.9518C28.8138 18.0391 28.681 18.0918 28.5807 18.1865C28.4804 18.2812 28.4202 18.4108 28.4125 18.5486C28.2907 20.8369 27.4187 23.0215 25.9314 24.7649C24.4441 26.5082 22.4241 27.7133 20.1835 28.1941C17.9429 28.6748 15.6064 28.4044 13.5348 27.4246C11.4632 26.4448 9.7719 24.8102 8.72208 22.7732L8.68957 22.7118H10.292C10.435 22.7115 10.572 22.6546 10.673 22.5535C10.7741 22.4524 10.8311 22.3154 10.8314 22.1724V21.6909C10.8314 21.5476 10.7746 21.4101 10.6736 21.3086C10.5725 21.2071 10.4353 21.1497 10.292 21.1491H6.53936C6.39609 21.1497 6.25889 21.2071 6.1578 21.3086C6.05672 21.4101 6 21.5476 6 21.6909V25.7638C6 25.907 6.05672 26.0445 6.1578 26.146C6.25889 26.2475 6.39609 26.3049 6.53936 26.3055H7.02093C7.16461 26.3055 7.30243 26.2484 7.40403 26.1468C7.50563 26.0452 7.56271 25.9075 7.56271 25.7638V23.935L7.64094 24.0674C8.94666 26.2959 10.9366 28.0436 13.3151 29.0506C15.6935 30.0577 18.3334 30.2703 20.8423 29.657C23.3513 29.0437 25.5954 27.6371 27.241 25.6464C28.8866 23.6557 29.846 21.1871 29.9764 18.6076C29.9794 18.5348 29.9678 18.4621 29.9421 18.394C29.9164 18.3258 29.8772 18.2635 29.8268 18.2109C29.7764 18.1583 29.7159 18.1164 29.6489 18.0877C29.5819 18.059 29.5099 18.0442 29.437 18.0441L29.4334 18.0393Z" fill="black"/>
<path d="M29.4455 9.69464H28.9639C28.8929 9.6948 28.8227 9.70896 28.7571 9.73627C28.6916 9.76358 28.6321 9.80353 28.582 9.85384C28.5319 9.90415 28.4923 9.96382 28.4653 10.0295C28.4382 10.0951 28.4244 10.1654 28.4246 10.2364V12.0652L28.3463 11.9328C27.0406 9.70429 25.0506 7.95664 22.6722 6.94959C20.2938 5.94255 17.6539 5.72987 15.1449 6.34318C12.6359 6.95649 10.3918 8.36302 8.74622 10.3537C7.1006 12.3445 6.14129 14.8131 6.01088 17.3926C6.0067 17.4648 6.01763 17.5371 6.04292 17.6049C6.0682 17.6727 6.10731 17.7345 6.15777 17.7863C6.20807 17.84 6.26885 17.8827 6.33637 17.9119C6.40388 17.9411 6.47668 17.9561 6.55024 17.956H7.03184C7.17 17.9569 7.30313 17.9044 7.40359 17.8095C7.50404 17.7147 7.56408 17.5848 7.5712 17.4468C7.69283 15.1581 8.5647 12.9731 10.0522 11.2294C11.5396 9.48565 13.5598 8.28026 15.8008 7.79938C18.0417 7.31851 20.3786 7.58893 22.4505 8.56885C24.5225 9.54877 26.214 11.1837 27.264 13.221L27.2941 13.2824H25.6074C25.5364 13.2825 25.4661 13.2967 25.4006 13.324C25.3351 13.3513 25.2755 13.3912 25.2255 13.4415C25.1754 13.4919 25.1357 13.5516 25.1087 13.6172C25.0816 13.6829 25.0678 13.7531 25.068 13.8241V14.3057C25.067 14.3772 25.0803 14.4482 25.1069 14.5145C25.1336 14.5809 25.1732 14.6413 25.2233 14.6922C25.2735 14.7432 25.3333 14.7836 25.3992 14.8113C25.4651 14.839 25.5359 14.8534 25.6074 14.8535H29.4431C29.5141 14.8537 29.5844 14.8399 29.6501 14.8128C29.7157 14.7858 29.7754 14.7461 29.8257 14.696C29.876 14.646 29.9159 14.5865 29.9433 14.5209C29.9706 14.4554 29.9847 14.3851 29.9848 14.3141V10.2412C29.9856 10.1698 29.9723 10.099 29.9456 10.0328C29.9188 9.9666 29.8792 9.90635 29.8291 9.85553C29.779 9.80471 29.7192 9.76432 29.6534 9.73671C29.5876 9.7091 29.5169 9.6948 29.4455 9.69464Z" fill="black"/>
<path d="M17.9972 14.1189C17.542 14.1187 17.0968 14.2534 16.7182 14.5061C16.3395 14.7589 16.0442 15.1183 15.8698 15.5388C15.6953 15.9593 15.6495 16.4221 15.7381 16.8687C15.8267 17.3153 16.0457 17.7256 16.3675 18.0477C16.6892 18.3698 17.0993 18.5892 17.5458 18.6783C17.9922 18.7673 18.4551 18.722 18.8758 18.548C19.2965 18.374 19.6562 18.0791 19.9094 17.7007C20.1625 17.3223 20.2977 16.8773 20.298 16.422C20.297 15.8119 20.0544 15.227 19.6232 14.7954C19.192 14.3637 18.6074 14.1205 17.9972 14.1189ZM19.0507 16.422C19.0509 16.6304 18.9893 16.8342 18.8737 17.0076C18.7581 17.181 18.5937 17.3162 18.4012 17.3961C18.2087 17.4761 17.9969 17.4971 17.7924 17.4566C17.588 17.4161 17.4002 17.3158 17.2527 17.1685C17.1053 17.0212 17.0049 16.8335 16.9641 16.6292C16.9234 16.4248 16.9442 16.2129 17.0238 16.0204C17.1035 15.8278 17.2386 15.6632 17.4118 15.5474C17.5851 15.4316 17.7888 15.3698 17.9972 15.3698C18.2763 15.3701 18.5439 15.481 18.7414 15.6783C18.9388 15.8755 19.05 16.1429 19.0507 16.422Z" fill="black"/>
<path d="M17.9972 11.2754C16.6327 11.2773 15.3247 11.8202 14.3599 12.785C13.3951 13.7498 12.8523 15.0578 12.8503 16.4222C12.8503 18.1222 13.3174 18.7892 15.5664 21.9916C16.048 22.6839 16.603 23.4688 17.2519 24.4139C17.3343 24.5344 17.4447 24.6329 17.5738 24.701C17.7028 24.769 17.8465 24.8046 17.9923 24.8046C18.1382 24.8046 18.2819 24.769 18.4109 24.701C18.54 24.6329 18.6504 24.5344 18.7328 24.4139C19.3889 23.4664 19.9367 22.6815 20.4267 21.9892C22.6733 18.7879 23.1428 18.121 23.1428 16.421C23.1405 15.057 22.5977 13.7495 21.6332 12.785C20.6687 11.8205 19.3612 11.2776 17.9972 11.2754ZM21.7462 16.4222C21.7462 17.6743 21.385 18.2004 19.3287 21.1176L19.1397 21.3884C18.7978 21.87 18.4246 22.4118 17.9972 23.0246C17.5156 22.3263 17.0918 21.7256 16.7125 21.1874L16.6656 21.1176C14.6189 18.1992 14.2493 17.6731 14.2493 16.4222C14.2669 15.4397 14.6696 14.5034 15.3706 13.8148C16.0717 13.1262 17.0151 12.7403 17.9977 12.7403C18.9804 12.7403 19.9238 13.1262 20.6249 13.8148C21.3259 14.5034 21.7286 15.4397 21.7462 16.4222Z" fill="black"/>
</svg>
