<svg width="36" height="36" viewBox="0 0 36 36" fill="none" xmlns="http://www.w3.org/2000/svg">
<path d="M31.8116 13.6662L29.3288 8.66098C29.261 8.51386 29.1528 8.38906 29.0167 8.30114C28.8807 8.21322 28.7224 8.1658 28.5604 8.16443C28.5418 8.16443 28.5195 8.16443 17.9975 9.96567C7.47932 8.16567 7.45574 8.16567 7.43836 8.16567C7.27698 8.16902 7.11973 8.21725 6.98423 8.30495C6.84873 8.39266 6.74033 8.51637 6.67119 8.66222L4.18843 13.6687C4.1309 13.7887 4.10011 13.9198 4.09818 14.0529C4.09625 14.186 4.12323 14.3179 4.17726 14.4396C4.22722 14.5546 4.30146 14.6574 4.39488 14.7409C4.4883 14.8245 4.5987 14.8869 4.7185 14.9237L6.84498 15.5643V24.9988C6.83888 25.3488 6.94901 25.691 7.15813 25.9718C7.36725 26.2526 7.66357 26.4561 8.0007 26.5505L17.2862 28.996C17.516 29.0563 17.7525 29.0867 17.9901 29.0866C18.2288 29.0865 18.4666 29.056 18.6977 28.996L27.9931 26.5493C28.3293 26.4537 28.6246 26.2501 28.8333 25.9698C29.042 25.6895 29.1524 25.3482 29.1476 24.9988V15.5643L31.2828 14.9213C31.4022 14.8848 31.5124 14.823 31.6058 14.7401C31.6992 14.6572 31.7736 14.5551 31.824 14.4408C31.8776 14.3184 31.9042 14.1858 31.9021 14.0522C31.8999 13.9185 31.8691 13.7869 31.8116 13.6662ZM27.4668 16.0658V24.8796L18.8442 27.1488V11.9059L21.8048 17.0738C21.8791 17.204 21.9861 17.3126 22.1152 17.3888C22.2443 17.465 22.3911 17.5062 22.541 17.5083H22.5534C22.649 17.5083 22.649 17.5083 24.5247 16.9497L27.4668 16.0658ZM29.8552 13.5235L22.9258 15.6053L20.5138 11.3908L28.0862 10.0004L29.8552 13.5235ZM15.4924 11.3957L13.0817 15.609L6.14857 13.5235L7.91381 10.0004L15.4924 11.3957ZM8.5407 16.0695L10.9949 16.8144C13.3535 17.5232 13.3535 17.5244 13.4528 17.5195H13.4665C13.6168 17.5186 13.7642 17.4778 13.8935 17.4012C14.0229 17.3247 14.1296 17.2151 14.2026 17.0837L17.1584 11.9171V27.1464L8.53698 24.8771L8.5407 16.0695Z" fill="black"/>
</svg>
