<svg width="36" height="36" viewBox="0 0 36 36" fill="none" xmlns="http://www.w3.org/2000/svg">
<path d="M31.1685 14.4345L31.1623 14.4209C31.1429 14.3827 31.1205 14.3462 31.0953 14.3116C29.0814 10.8579 25.7843 8.33981 21.9223 7.30583C18.0603 6.27185 13.9462 6.80574 10.476 8.79121C10.4438 8.80598 10.4127 8.82299 10.3829 8.84211C10.3717 8.84211 10.363 8.85576 10.3518 8.86321C8.10175 10.1838 6.22698 12.0581 4.90592 14.3079C4.88459 14.3377 4.86511 14.3688 4.84757 14.401C4.84757 14.4109 4.83888 14.4209 4.83392 14.4296C3.51833 16.7209 2.82743 19.3176 2.83033 21.9598C2.83033 22.1902 2.92188 22.4113 3.08485 22.5742C3.24781 22.7372 3.46883 22.8287 3.6993 22.8287H14.5576C14.7511 23.5951 15.1947 24.275 15.8183 24.7606C16.4418 25.2463 17.2096 25.5101 18 25.5101C18.7904 25.5101 19.5581 25.2463 20.1817 24.7606C20.8052 24.275 21.2489 23.5951 21.4423 22.8287H32.3007C32.5311 22.8287 32.7522 22.7372 32.9151 22.5742C33.0781 22.4113 33.1696 22.1902 33.1696 21.9598C33.1728 19.3194 32.4827 16.7246 31.1685 14.4345ZM18 23.7722C17.6303 23.7727 17.2693 23.6599 16.9657 23.4491C16.662 23.2383 16.4301 22.9396 16.3013 22.5931C16.1724 22.2466 16.1528 21.8689 16.245 21.5109C16.3372 21.1529 16.5368 20.8317 16.817 20.5905L17.0863 21.8481C17.1281 22.0423 17.2351 22.2164 17.3896 22.3413C17.5441 22.4662 17.7367 22.5344 17.9354 22.5345C17.9972 22.5346 18.0588 22.528 18.1192 22.5147C18.3443 22.4662 18.541 22.3303 18.666 22.1368C18.7909 21.9434 18.834 21.7083 18.7858 21.4831L18.5152 20.2256C18.93 20.3515 19.286 20.6221 19.5185 20.9881C19.751 21.3541 19.8445 21.7913 19.7822 22.2203C19.7199 22.6494 19.5058 23.042 19.1788 23.3267C18.8518 23.6114 18.4336 23.7695 18 23.7722ZM21.4423 21.0908C21.2531 20.3456 20.8275 19.6818 20.2293 19.1989C19.6311 18.7159 18.8925 18.4398 18.1241 18.4119L17.131 13.7791C17.0816 13.5537 16.9447 13.3572 16.7505 13.2328C16.5562 13.1083 16.3204 13.0662 16.0951 13.1156C15.8697 13.1649 15.6732 13.3018 15.5488 13.4961C15.4243 13.6904 15.3822 13.9261 15.4316 14.1515L16.4247 18.7818C15.9662 19.0108 15.5626 19.3359 15.2412 19.735C14.9199 20.1341 14.6884 20.5978 14.5626 21.0945H4.59309C4.70663 19.3172 5.17516 17.5807 5.97102 15.9875L7.97212 17.0514C8.17559 17.1598 8.41382 17.1831 8.6344 17.1159C8.85498 17.0487 9.03985 16.8967 9.14833 16.6932C9.25681 16.4898 9.28003 16.2515 9.21286 16.0309C9.1457 15.8104 8.99366 15.6255 8.79019 15.517L6.84868 14.4842C7.83825 13.0152 9.10597 11.7542 10.5803 10.7725L12.0414 13.0554C12.1652 13.2498 12.3611 13.387 12.5861 13.437C12.8111 13.4869 13.0467 13.4454 13.2412 13.3216C13.4356 13.1978 13.5728 13.0019 13.6228 12.7769C13.6727 12.5519 13.6312 12.3162 13.5074 12.1218L12.0873 9.901C13.6634 9.12458 15.3776 8.66766 17.131 8.55659V10.8767C17.131 11.1072 17.2226 11.3282 17.3855 11.4912C17.5485 11.6541 17.7695 11.7457 18 11.7457C18.2304 11.7457 18.4515 11.6541 18.6144 11.4912C18.7774 11.3282 18.8689 11.1072 18.8689 10.8767V8.55659C20.7329 8.67407 22.5514 9.18157 24.2069 10.0462L22.932 12.1355C22.8693 12.2328 22.8268 12.3416 22.8067 12.4555C22.7867 12.5695 22.7896 12.6863 22.8154 12.7991C22.8411 12.9119 22.8891 13.0185 22.9565 13.1125C23.024 13.2065 23.1095 13.2861 23.2081 13.3466C23.3068 13.4071 23.4165 13.4473 23.5308 13.4649C23.6452 13.4824 23.7619 13.4769 23.8741 13.4488C23.9864 13.4206 24.0918 13.3703 24.1844 13.3008C24.2769 13.2313 24.3546 13.1441 24.413 13.0442L25.6965 10.9562C27.0496 11.9042 28.2172 13.0924 29.1414 14.4618L27.0546 15.5058C26.9505 15.5556 26.8573 15.6256 26.7805 15.7118C26.7037 15.798 26.6449 15.8986 26.6074 16.0077C26.57 16.1169 26.5546 16.2324 26.5623 16.3476C26.57 16.4628 26.6005 16.5752 26.6521 16.6785C26.7037 16.7817 26.7754 16.8736 26.8629 16.9488C26.9504 17.0241 27.0521 17.0811 27.1619 17.1166C27.2717 17.1522 27.3875 17.1655 27.5025 17.1557C27.6175 17.146 27.7294 17.1135 27.8317 17.06L30.0215 15.9652C30.8218 17.5637 31.2929 19.3067 31.4069 21.0908H21.4423Z" fill="black"/>
</svg>
