<svg width="36" height="36" viewBox="0 0 36 36" fill="none" xmlns="http://www.w3.org/2000/svg">
<path d="M11.6216 19.898C11.9207 20.8972 12.4496 21.8125 13.1659 22.5707C13.3258 22.7405 13.5384 22.8512 13.7693 22.8848C14.0001 22.9184 14.2355 22.8729 14.4371 22.7556L15.0106 22.4242C15.2188 22.5635 15.4366 22.688 15.6623 22.7966V23.462C15.6618 23.6957 15.7404 23.9226 15.8853 24.1059C16.0303 24.2892 16.233 24.4179 16.4605 24.4712C17.4729 24.7096 18.5268 24.7096 19.5392 24.4712C19.7664 24.4177 19.9689 24.2888 20.1136 24.1056C20.2583 23.9223 20.3367 23.6955 20.3361 23.462V22.7991C20.5624 22.6907 20.7806 22.5663 20.9891 22.4267L21.5626 22.7581C21.7642 22.8754 21.9996 22.9209 22.2304 22.8873C22.4613 22.8537 22.6739 22.743 22.8338 22.5732C23.5501 21.815 24.079 20.8997 24.3781 19.9005C24.4445 19.6775 24.4336 19.4387 24.347 19.2227C24.2605 19.0068 24.1034 18.8265 23.9014 18.7112L23.3266 18.3723C23.344 18.1215 23.344 17.8697 23.3266 17.6188L23.9014 17.2861C24.1034 17.1708 24.2605 16.9905 24.347 16.7746C24.4336 16.5587 24.4445 16.3198 24.3781 16.0969C24.079 15.0977 23.5501 14.1823 22.8338 13.4242C22.6739 13.2544 22.4613 13.1436 22.2304 13.1101C21.9996 13.0765 21.7642 13.122 21.5626 13.2392L20.9891 13.5707C20.7806 13.4311 20.5624 13.3066 20.3361 13.1983V12.5378C20.337 12.3043 20.2586 12.0774 20.1139 11.8941C19.9691 11.7108 19.7665 11.5819 19.5392 11.5286C18.5268 11.2903 17.4729 11.2903 16.4605 11.5286C16.233 11.5819 16.0303 11.7107 15.8853 11.894C15.7404 12.0772 15.6618 12.3042 15.6623 12.5378V13.2007C15.4366 13.3094 15.2188 13.4338 15.0106 13.5732L14.4371 13.2417C14.2355 13.1245 14.0001 13.0789 13.7693 13.1125C13.5384 13.1461 13.3258 13.2568 13.1659 13.4267C12.4496 14.1848 11.9207 15.1001 11.6216 16.0994C11.5552 16.3223 11.5661 16.5612 11.6527 16.7771C11.7392 16.993 11.8963 17.1733 12.0983 17.2886L12.6731 17.6213C12.6557 17.8722 12.6557 18.1239 12.6731 18.3748L12.0983 18.7063C11.8958 18.8217 11.7383 19.0024 11.6518 19.2188C11.5652 19.4353 11.5546 19.6747 11.6216 19.898ZM14.4445 18.9508C14.2906 18.1154 14.2906 17.8845 14.4445 17.0503L14.5004 16.7474L13.3906 16.1068C13.5596 15.6944 13.7839 15.3069 14.0572 14.9548L15.167 15.5966L15.4016 15.3967C16.0472 14.8443 16.247 14.7276 17.044 14.4458L17.3345 14.3441V13.0617C17.7761 13.0021 18.2236 13.0021 18.6652 13.0617V14.3441L18.9557 14.4458C19.7527 14.7289 19.9488 14.8443 20.5981 15.3967L20.8327 15.5966L21.9425 14.9548C22.2158 15.3069 22.4401 15.6944 22.6091 16.1068L21.4993 16.7474L21.5552 17.0503C21.7091 17.8845 21.7091 18.1154 21.5552 18.9496L21.4993 19.2525L22.6091 19.893C22.4401 20.3054 22.2158 20.693 21.9425 21.045L20.8327 20.4032L20.5993 20.6068C19.9525 21.1605 19.7527 21.2759 18.9557 21.5577L18.6652 21.6595V22.9418C18.2236 23.0014 17.7761 23.0014 17.3345 22.9418V21.6558L17.044 21.554C16.2483 21.2722 16.0509 21.1567 15.4004 20.6031L15.167 20.4032L14.0572 21.045C13.7839 20.693 13.5596 20.3054 13.3906 19.893L14.5004 19.2525L14.4445 18.9508Z" fill="black"/>
<path d="M18.0001 20.3089C18.4568 20.3089 18.9032 20.1734 19.2829 19.9197C19.6626 19.666 19.9586 19.3054 20.1333 18.8835C20.3081 18.4616 20.3538 17.9973 20.2647 17.5494C20.1756 17.1015 19.9557 16.6901 19.6328 16.3672C19.3099 16.0443 18.8985 15.8244 18.4506 15.7353C18.0027 15.6462 17.5384 15.6919 17.1165 15.8667C16.6946 16.0414 16.334 16.3374 16.0803 16.7171C15.8266 17.0968 15.6912 17.5432 15.6912 17.9999C15.6918 18.6121 15.9353 19.199 16.3682 19.6318C16.801 20.0647 17.388 20.3082 18.0001 20.3089ZM18.0001 17.1806C18.1622 17.1806 18.3206 17.2286 18.4553 17.3187C18.5901 17.4087 18.6951 17.5366 18.7571 17.6864C18.8191 17.8361 18.8353 18.0008 18.8037 18.1597C18.7721 18.3187 18.6941 18.4646 18.5795 18.5792C18.4649 18.6938 18.3189 18.7718 18.16 18.8035C18.001 18.8351 17.8363 18.8188 17.6866 18.7568C17.5369 18.6948 17.4089 18.5898 17.3189 18.4551C17.2289 18.3203 17.1808 18.1619 17.1808 17.9999C17.1811 17.7827 17.2676 17.5745 17.4212 17.4209C17.5747 17.2673 17.7829 17.1809 18.0001 17.1806Z" fill="black"/>
<path d="M30.7416 18.046H30.2004C30.0466 18.0455 29.8985 18.1041 29.7866 18.2097C29.6748 18.3153 29.6078 18.4598 29.5996 18.6133C29.4642 21.162 28.4933 23.5951 26.837 25.5369C25.1807 27.4786 22.931 28.821 20.4356 29.3565C17.9402 29.892 15.3379 29.591 13.0307 28.4998C10.7235 27.4086 8.83979 25.5881 7.67059 23.3194L7.63583 23.2511H9.41969C9.57937 23.2511 9.73251 23.1877 9.84542 23.0748C9.95833 22.9619 10.0218 22.8088 10.0218 22.6491V22.1091C10.0218 21.9494 9.95833 21.7963 9.84542 21.6833C9.73251 21.5704 9.57937 21.507 9.41969 21.507H5.24245C5.08277 21.507 4.92963 21.5704 4.81672 21.6833C4.70381 21.7963 4.64038 21.9494 4.64038 22.1091V26.6438C4.64038 26.8035 4.70381 26.9566 4.81672 27.0696C4.92963 27.1825 5.08277 27.2459 5.24245 27.2459H5.78245C5.86151 27.2459 5.93981 27.2303 6.01285 27.2001C6.0859 27.1698 6.15227 27.1255 6.20818 27.0696C6.26408 27.0136 6.30843 26.9473 6.33869 26.8742C6.36895 26.8012 6.38452 26.7229 6.38452 26.6438V24.6067L6.47142 24.7545C7.92603 27.2355 10.1423 29.181 12.791 30.3019C15.4396 31.4228 18.3792 31.6592 21.1729 30.9759C23.9666 30.2927 26.4653 28.7263 28.2977 26.5096C30.1301 24.2928 31.1983 21.5441 31.3437 18.6717C31.3482 18.5911 31.336 18.5104 31.3078 18.4348C31.2796 18.3592 31.236 18.2902 31.1798 18.2322C31.1234 18.1729 31.0554 18.1257 30.98 18.0937C30.9047 18.0616 30.8235 18.0454 30.7416 18.046Z" fill="black"/>
<path d="M30.7577 8.7542H30.2177C30.058 8.7542 29.9048 8.81763 29.7919 8.93054C29.679 9.04345 29.6156 9.19659 29.6156 9.35627V11.3934L29.5287 11.2457C28.0746 8.76375 25.8584 6.81739 23.2096 5.69593C20.5607 4.57448 17.6206 4.33783 14.8265 5.02116C12.0324 5.70449 9.53337 7.27132 7.70105 9.48869C5.86873 11.7061 4.80094 14.4556 4.65643 17.3284C4.65193 17.409 4.66416 17.4897 4.69236 17.5653C4.72057 17.6409 4.76412 17.7099 4.82029 17.7679C4.87655 17.8275 4.94449 17.8749 5.01988 17.9072C5.09527 17.9394 5.1765 17.9558 5.2585 17.9553H5.79974C5.95342 17.9562 6.10154 17.8979 6.2134 17.7925C6.32526 17.6871 6.39228 17.5427 6.40056 17.3892C6.53494 14.8403 7.5051 12.4065 9.16111 10.4641C10.8171 8.52168 13.0668 7.17876 15.5624 6.64288C18.058 6.10699 20.6607 6.40797 22.9681 7.49931C25.2756 8.59065 27.1593 10.4116 28.3283 12.6807L28.363 12.749H26.4861C26.3264 12.749 26.1733 12.8124 26.0604 12.9253C25.9474 13.0382 25.884 13.1914 25.884 13.351V13.891C25.884 14.0507 25.9474 14.2038 26.0604 14.3168C26.1733 14.4297 26.3264 14.4931 26.4861 14.4931H30.7577C30.9175 14.4931 31.0707 14.4297 31.1838 14.3168C31.2969 14.204 31.3606 14.0508 31.361 13.891V9.35627C31.3606 9.19648 31.2969 9.04334 31.1838 8.93047C31.0707 8.8176 30.9175 8.7542 30.7577 8.7542Z" fill="black"/>
</svg>
