<svg width="36" height="36" viewBox="0 0 36 36" fill="none" xmlns="http://www.w3.org/2000/svg">
<path d="M11.4336 18.3728C11.6196 18.6708 12.004 18.7576 12.3016 18.5839L21.2054 13.0721L21.0194 14.1273C20.945 14.4625 21.1558 14.8101 21.4906 14.8846L21.9619 14.9963C22.1231 15.0335 22.2967 15.0087 22.4455 14.9218C22.5943 14.8349 22.6935 14.6983 22.7307 14.5246L23.45 11.1852C23.5244 10.8501 23.3136 10.5025 22.9787 10.428L19.6677 9.57145C19.5065 9.53421 19.3329 9.55903 19.1841 9.64593C19.0353 9.73282 18.9361 9.86938 18.8989 10.0432L18.7873 10.5149C18.7129 10.8501 18.9237 11.1977 19.2585 11.2721L20.2754 11.5825L11.3716 17.0942C11.074 17.2804 10.9871 17.6652 11.1608 17.9632L11.4336 18.3728Z" fill="black"/>
<path d="M29.3284 25.8577H7.92416V8.90055C7.92416 8.63986 7.71333 8.42883 7.45291 8.42883H6.69645C6.43603 8.42883 6.22522 8.63986 6.22522 8.90055V26.7019C6.22522 27.1736 6.60964 27.5584 7.08088 27.5584H29.3284C29.5888 27.5584 29.7996 27.3474 29.7996 27.0867V26.3295C29.7996 26.0688 29.5888 25.8577 29.3284 25.8577Z" fill="black"/>
<path d="M25.0872 23.1763H25.8437C26.1041 23.1763 26.3149 22.9653 26.3149 22.7046V15.2439C26.3149 14.9833 26.1041 14.7722 25.8437 14.7722H25.0872C24.8268 14.7722 24.616 14.9833 24.616 15.2439V22.7046C24.616 22.9653 24.8268 23.1763 25.0872 23.1763Z" fill="black"/>
<path d="M20.5359 17.0941C20.2755 17.0941 20.0647 17.3052 20.0647 17.5658V22.7052C20.0647 22.9659 20.2755 23.1769 20.5359 23.1769H21.2924C21.5528 23.1769 21.7636 22.9659 21.7636 22.7052V17.5658C21.7636 17.3052 21.5528 17.0941 21.2924 17.0941H20.5359Z" fill="black"/>
<path d="M11.4209 23.1761H12.1774C12.4378 23.1761 12.6486 22.9651 12.6486 22.7044V21.4134C12.6486 21.1527 12.4378 20.9417 12.1774 20.9417H11.4209C11.1605 20.9417 10.9497 21.1527 10.9497 21.4134V22.7044C10.9497 22.9651 11.1605 23.1761 11.4209 23.1761Z" fill="black"/>
<path d="M15.985 19.6012C15.7246 19.6012 15.5138 19.8122 15.5138 20.0729V22.7047C15.5138 22.9653 15.7246 23.1764 15.985 23.1764H16.7415C17.0019 23.1764 17.2127 22.9653 17.2127 22.7047V20.0729C17.2127 19.8122 17.0019 19.6012 16.7415 19.6012H15.985Z" fill="black"/>
</svg>
