<svg width="36" height="36" viewBox="0 0 36 36" fill="none" xmlns="http://www.w3.org/2000/svg">
<path fill-rule="evenodd" clip-rule="evenodd" d="M9.29423 18.6992C8.32929 17.6452 7.65568 16.3721 7.32187 15.0046L5.34888 13.447C5.4536 15.8466 6.40232 18.1379 8.03547 19.912C8.08821 19.9681 8.1515 20.0131 8.22171 20.0447C8.29191 20.0762 8.36765 20.0935 8.44457 20.0957C8.5215 20.0979 8.5981 20.0849 8.66998 20.0574C8.74187 20.0299 8.80762 19.9885 8.86347 19.9356L8.87961 19.9195L9.28305 19.5098C9.38849 19.4019 9.44843 19.2576 9.45052 19.1067C9.45259 18.9559 9.39664 18.81 9.29423 18.6992ZM6.34752 8.57924L4.61969 7.21516C4.18621 6.87294 3.55738 6.94692 3.21516 7.3804C2.87294 7.81388 2.94692 8.4427 3.3804 8.78492L31.8804 31.2849C32.3139 31.6271 32.9427 31.5532 33.2849 31.1197C33.6271 30.6862 33.5532 30.0574 33.1197 29.7152L22.5907 21.4028L20.0259 15.5028L20.0793 15.4581C20.599 15.028 20.9732 14.4478 21.1508 13.797C21.3283 13.1462 21.3005 12.4564 21.0712 11.8219C20.8419 11.1875 20.4222 10.6394 19.8696 10.2525C19.3169 9.86558 18.6583 9.6588 17.9837 9.66041C17.3091 9.66202 16.6514 9.87194 16.1006 10.2615C15.5498 10.651 15.1328 11.2011 14.9065 11.8367C14.6802 12.4722 14.6557 13.1621 14.8363 13.8121C15.017 14.4621 15.3939 15.0404 15.9157 15.468L15.9703 15.5127L15.7556 16.0066L11.0924 12.3252C11.2247 11.3748 11.6314 10.4779 12.2698 9.74839C12.3645 9.64241 12.4186 9.50621 12.4222 9.3641C12.4258 9.22199 12.3789 9.08321 12.2897 8.97252C12.278 8.96016 12.2656 8.94855 12.2524 8.93776L11.8552 8.52811C11.7471 8.41634 11.5991 8.35201 11.4436 8.34922C11.2882 8.34642 11.138 8.4054 11.0259 8.51321L10.9974 8.54301C10.3312 9.29288 9.84704 10.176 9.57084 11.124L7.75881 9.69341C8.12938 8.82555 8.64609 8.01873 9.29423 7.31076C9.39968 7.20095 9.45857 7.0546 9.45857 6.90235C9.45857 6.7501 9.39968 6.60375 9.29423 6.49394L8.88333 6.08304C8.82967 6.02782 8.76565 5.98372 8.69493 5.95326C8.62421 5.9228 8.54818 5.90658 8.47119 5.90552H8.46126C8.30986 5.90498 8.16439 5.96433 8.05657 6.07062L8.03547 6.09173C7.34733 6.83927 6.7807 7.67864 6.34752 8.57924ZM27.7801 5.96091C27.8497 5.99265 27.9125 6.03785 27.9646 6.0939V6.09514C29.6978 7.97853 30.6597 10.4445 30.6597 13.004C30.6597 15.5635 29.6978 18.0295 27.9646 19.9129L27.9447 19.9328C27.8896 19.9866 27.8244 20.0289 27.7528 20.0575C27.6813 20.086 27.6048 20.1002 27.5278 20.0992C27.4508 20.0981 27.3747 20.0819 27.304 20.0514C27.2332 20.021 27.1692 19.9769 27.1155 19.9216L26.717 19.5169C26.6102 19.4074 26.5499 19.2609 26.5487 19.1079C26.5476 18.955 26.6056 18.8075 26.7108 18.6964C28.1345 17.1417 28.9241 15.1102 28.9241 13.0022C28.9241 10.8942 28.1345 8.86262 26.7108 7.30797C26.6073 7.19737 26.5505 7.05113 26.5521 6.89968C26.5537 6.74823 26.6137 6.60323 26.7195 6.49487L27.1217 6.08521L27.1403 6.06783C27.2482 5.96557 27.3914 5.90868 27.54 5.90894H27.5587C27.6352 5.9115 27.7104 5.92916 27.7801 5.96091ZM23.5824 16.672C23.5799 16.5208 23.635 16.3742 23.7365 16.2621C24.5256 15.3593 24.96 14.2007 24.9588 13.0017C24.9577 11.8027 24.5211 10.6449 23.7303 9.74362C23.6304 9.63239 23.5764 9.48753 23.5789 9.33811C23.5814 9.18869 23.6404 9.04575 23.7439 8.93796L24.1523 8.52955L24.1784 8.50472C24.286 8.40684 24.4264 8.35282 24.5719 8.35327H24.5992C24.6758 8.35628 24.7511 8.37451 24.8205 8.4069C24.89 8.4393 24.9524 8.48521 25.0039 8.54196C26.097 9.77103 26.7009 11.3586 26.7009 13.0035C26.7009 14.6483 26.097 16.2359 25.0039 17.465L24.9778 17.4923C24.8676 17.5989 24.7203 17.6585 24.5669 17.6587C24.4883 17.6589 24.4105 17.6432 24.3382 17.6125C24.2658 17.5818 24.2005 17.5367 24.1461 17.4799L23.7501 17.0764C23.6449 16.9678 23.585 16.8232 23.5824 16.672ZM19.6084 19.0483L18.3674 16.193L18.2967 16.2029C18.0997 16.2283 17.9003 16.2283 17.7033 16.2029L17.6338 16.193L17.2141 17.1581L19.6084 19.0483ZM9.2098 31.061L13.9247 20.2174L15.3814 21.3674L14.3739 23.6897L16.2587 22.06L17.6506 23.1589L12.775 27.3703L10.8571 31.7797C10.8311 31.8402 10.7933 31.8949 10.746 31.9407C10.6986 31.9864 10.6426 32.0223 10.5813 32.0462C10.52 32.0701 10.4545 32.0816 10.3887 32.0799C10.3229 32.0783 10.258 32.0636 10.1979 32.0367L9.47049 31.7201C9.40968 31.6945 9.3546 31.657 9.30846 31.6098C9.26233 31.5626 9.22606 31.5066 9.20179 31.4453C9.17752 31.3839 9.16572 31.3183 9.1671 31.2523C9.16847 31.1863 9.18299 31.1213 9.2098 31.061ZM25.1429 31.7797L23.3512 27.6594L26.3341 30.0143L26.7902 31.0635C26.817 31.1238 26.8315 31.1888 26.8329 31.2548C26.8343 31.3208 26.8225 31.3864 26.7982 31.4478C26.7739 31.5091 26.7377 31.565 26.6915 31.6122C26.6454 31.6594 26.5903 31.697 26.5295 31.7226L25.8021 32.0392C25.7418 32.066 25.6768 32.0806 25.6109 32.0821C25.545 32.0835 25.4794 32.0718 25.4181 32.0477C25.3567 32.0235 25.3008 31.9874 25.2535 31.9414C25.2063 31.8954 25.1687 31.8404 25.1429 31.7797ZM17.9925 11.4708C18.2851 11.4712 18.5709 11.5584 18.814 11.7213C19.057 11.8842 19.2462 12.1155 19.3579 12.3859C19.4695 12.6564 19.4984 12.9538 19.441 13.2407C19.3837 13.5276 19.2425 13.791 19.0355 13.9977C18.8285 14.2044 18.5648 14.3451 18.2778 14.4019C17.9909 14.4588 17.6935 14.4294 17.4232 14.3173C17.153 14.2053 16.922 14.0156 16.7595 13.7723C16.5971 13.529 16.5103 13.243 16.5103 12.9505C16.511 12.5578 16.6674 12.1814 16.9453 11.904C17.2232 11.6266 17.5999 11.4708 17.9925 11.4708Z" fill="black"/>
</svg>
