<svg width="36" height="36" viewBox="0 0 36 36" fill="none" xmlns="http://www.w3.org/2000/svg">
<path d="M12.1991 15.0741H11.3326C11.1036 15.0741 10.918 15.2597 10.918 15.4887V20.5113C10.918 20.7403 11.1036 20.9259 11.3326 20.9259H12.1991C12.428 20.9259 12.6137 20.7403 12.6137 20.5113V15.4887C12.6137 15.2597 12.428 15.0741 12.1991 15.0741Z" fill="black"/>
<path d="M14.9697 15.0741H14.1032C13.8742 15.0741 13.6886 15.2597 13.6886 15.4887V20.5113C13.6886 20.7403 13.8742 20.9259 14.1032 20.9259H14.9697C15.1987 20.9259 15.3843 20.7403 15.3843 20.5113V15.4887C15.3843 15.2597 15.1987 15.0741 14.9697 15.0741Z" fill="black"/>
<path d="M9.42844 15.0741H8.56196C8.33297 15.0741 8.14734 15.2597 8.14734 15.4887V20.5113C8.14734 20.7403 8.33297 20.9259 8.56196 20.9259H9.42844C9.65743 20.9259 9.84306 20.7403 9.84306 20.5113V15.4887C9.84306 15.2597 9.65743 15.0741 9.42844 15.0741Z" fill="black"/>
<path d="M30.8148 13.6887H30.6236V13.1512C30.6236 12.5586 30.3882 11.9903 29.9692 11.5712C29.5501 11.1522 28.9818 10.9167 28.3892 10.9167H6.22435C5.63173 10.9167 5.06338 11.1522 4.64433 11.5712C4.22529 11.9903 3.98987 12.5586 3.98987 13.1512V22.8489C3.98987 23.4415 4.22529 24.0099 4.64433 24.4289C5.06338 24.848 5.63173 25.0834 6.22435 25.0834H28.3904C28.983 25.0834 29.5514 24.848 29.9704 24.4289C30.3895 24.0099 30.6249 23.4415 30.6249 22.8489V22.3114H30.8161C31.1326 22.3107 31.4359 22.1847 31.6598 21.9609C31.8836 21.7371 32.0096 21.4337 32.0103 21.1172V14.883C32.0096 14.5662 31.8834 14.2627 31.6593 14.0388C31.4352 13.815 31.1315 13.6891 30.8148 13.6887ZM28.9242 20.6157V22.8501C28.9242 22.9207 28.9103 22.9906 28.8833 23.0558C28.8563 23.121 28.8167 23.1803 28.7668 23.2302C28.7168 23.2801 28.6576 23.3197 28.5924 23.3467C28.5272 23.3737 28.4573 23.3877 28.3867 23.3877H6.22435C6.08179 23.3877 5.94507 23.331 5.84427 23.2302C5.74346 23.1294 5.68683 22.9927 5.68683 22.8501V13.1512C5.68683 13.0087 5.74346 12.872 5.84427 12.7711C5.94507 12.6703 6.08179 12.6137 6.22435 12.6137H28.3904C28.533 12.6137 28.6697 12.6703 28.7705 12.7711C28.8713 12.872 28.9279 13.0087 28.9279 13.1512V15.3857H30.3133V20.6169L28.9242 20.6157Z" fill="black"/>
<path d="M17.7405 15.0741H16.874C16.645 15.0741 16.4594 15.2597 16.4594 15.4887V20.5113C16.4594 20.7403 16.645 20.9259 16.874 20.9259H17.7405C17.9694 20.9259 18.1551 20.7403 18.1551 20.5113V15.4887C18.1551 15.2597 17.9694 15.0741 17.7405 15.0741Z" fill="black"/>
<path d="M23.2821 15.0741H22.4156C22.1866 15.0741 22.001 15.2597 22.001 15.4887V20.5113C22.001 20.7403 22.1866 20.9259 22.4156 20.9259H23.2821C23.5111 20.9259 23.6967 20.7403 23.6967 20.5113V15.4887C23.6967 15.2597 23.5111 15.0741 23.2821 15.0741Z" fill="black"/>
<path d="M20.5114 15.0741H19.645C19.416 15.0741 19.2303 15.2597 19.2303 15.4887V20.5113C19.2303 20.7403 19.416 20.9259 19.645 20.9259H20.5114C20.7404 20.9259 20.9261 20.7403 20.9261 20.5113V15.4887C20.9261 15.2597 20.7404 15.0741 20.5114 15.0741Z" fill="black"/>
</svg>
