<svg width="36" height="36" viewBox="0 0 36 36" fill="none" xmlns="http://www.w3.org/2000/svg">
<path d="M18.2643 11.2854C16.8887 11.2893 15.5705 11.8375 14.5978 12.8103C13.625 13.783 13.0768 15.1012 13.0729 16.4768C13.0729 16.7159 13.1678 16.9451 13.3368 17.1141C13.5059 17.2831 13.7351 17.3781 13.9741 17.3781C14.2131 17.3781 14.4424 17.2831 14.6114 17.1141C14.7804 16.9451 14.8754 16.7159 14.8754 16.4768C14.8777 15.5787 15.2354 14.7181 15.8705 14.083C16.5056 13.448 17.3662 13.0902 18.2643 13.0879C18.5034 13.0879 18.7326 12.9929 18.9016 12.8239C19.0706 12.6549 19.1656 12.4257 19.1656 12.1866C19.1656 11.9476 19.0706 11.7184 18.9016 11.5494C18.7326 11.3804 18.5034 11.2854 18.2643 11.2854Z" fill="black"/>
<path d="M23.3057 10.1545C21.8379 8.86787 19.952 8.15924 18.0001 8.16084C16.9464 8.15344 15.9017 8.35525 14.9266 8.75458C13.9515 9.15392 13.0653 9.74283 12.3195 10.4872C10.8045 12.0119 9.95247 14.0729 9.94849 16.2224C9.94617 18.1675 10.6522 20.0469 11.9347 21.5094C13.0519 22.7756 14.1295 24.8611 14.2325 25.5215V28.8733C14.2329 29.0501 14.2856 29.2229 14.3839 29.3698L15.4788 31.0159C15.5604 31.1389 15.671 31.24 15.8009 31.3102C15.9308 31.3803 16.076 31.4174 16.2237 31.4181H19.7479C19.8966 31.4183 20.043 31.3817 20.1741 31.3115C20.3051 31.2413 20.4167 31.1397 20.499 31.0159L21.5939 29.3686C21.6917 29.2214 21.7443 29.0488 21.7453 28.872V25.5265C21.8496 24.8673 22.9333 22.7806 24.0431 21.5144C24.7392 20.7193 25.2719 19.7949 25.6108 18.794C25.9497 17.7931 26.0881 16.7353 26.0181 15.6808C25.9481 14.6264 25.6712 13.5961 25.203 12.6488C24.7348 11.7014 24.0847 10.8555 23.2896 10.1595L23.3057 10.1545ZM16.7202 29.6119L16.0437 28.5939V28.5517H19.9565V28.5915L19.2787 29.6094L16.7202 29.6119ZM19.959 25.6966V26.7542H16.0412V25.6966H19.959ZM22.4417 20.633C21.6494 21.6347 20.9824 22.7294 20.4555 23.8928H15.5397C14.9592 22.6059 14.2044 21.405 13.2965 20.3239C12.3002 19.1871 11.7517 17.7265 11.7535 16.2149C11.7515 14.5517 12.4069 12.9552 13.577 11.7733C14.1576 11.1935 14.8476 10.735 15.6069 10.4243C16.3662 10.1136 17.1797 9.95688 18.0001 9.96332C19.2002 9.96265 20.3751 10.3078 21.3843 10.9574C22.3934 11.6071 23.1939 12.5337 23.6901 13.6265C24.1864 14.7192 24.3572 15.9318 24.1823 17.1191C24.0073 18.3064 23.494 19.4182 22.7037 20.3214L22.433 20.6305L22.4417 20.633Z" fill="black"/>
</svg>
