<svg width="36" height="36" viewBox="0 0 36 36" fill="none" xmlns="http://www.w3.org/2000/svg">
<path d="M23.498 18.2173L17.9503 18.7313L17.9317 18.7151C17.9248 18.7079 17.9173 18.7012 17.9093 18.6953L17.8957 18.6779L16.3588 15.1288C16.0199 14.1983 15.337 13.4332 14.4508 12.9911L14.0511 12.7863L14.4024 12.507C14.8361 12.1685 15.1989 11.7478 15.4698 11.2689C15.7408 10.7901 15.9146 10.2625 15.9815 9.71636C16.0764 8.96025 15.9602 8.19262 15.6459 7.49841C15.3316 6.80421 14.8314 6.2105 14.2005 5.78299C13.5697 5.35548 12.8329 5.11083 12.0716 5.07613C11.3104 5.04142 10.5544 5.218 9.88727 5.58634C9.22015 5.95468 8.66795 6.5004 8.29177 7.16312C7.91559 7.82585 7.73011 8.57973 7.75583 9.34134C7.78156 10.1029 8.0175 10.8426 8.43754 11.4784C8.85758 12.1142 9.44535 12.6215 10.1358 12.9439L10.5517 13.1401L10.2028 13.4306C9.82288 13.741 9.50455 14.12 9.26435 14.5478C9.22338 14.621 9.18366 14.7017 9.14021 14.7961L9.12655 14.8234L6.29 13.582C6.18444 13.5358 6.07082 13.5108 5.95561 13.5085C5.84041 13.5062 5.72587 13.5266 5.61855 13.5686C5.51124 13.6105 5.41323 13.6732 5.33014 13.7531C5.24705 13.8329 5.18049 13.9283 5.13428 14.0339C5.08806 14.1394 5.06309 14.2531 5.06078 14.3683C5.05848 14.4835 5.07889 14.598 5.12085 14.7053C5.16281 14.8126 5.2255 14.9106 5.30533 14.9937C5.38516 15.0768 5.48058 15.1434 5.58614 15.1896L8.78766 16.5849V16.6048C8.79825 17 8.87808 17.3903 9.02352 17.758L11.3598 23.338C11.4997 23.7131 11.7104 24.0579 11.9805 24.3535L11.9991 24.3733L11.9817 24.3944L9.00241 27.9448C8.85426 28.1224 8.78273 28.3516 8.80357 28.582C8.8244 28.8123 8.9359 29.025 9.11352 29.1731C9.29114 29.3213 9.52034 29.3928 9.7507 29.372C9.98106 29.3511 10.1937 29.2396 10.3419 29.062L13.531 25.2646H13.5496C13.8692 25.3309 14.1976 25.3443 14.5216 25.3044L20.3312 24.6353V24.675L19.8012 29.0931C19.7474 29.5249 19.7808 29.9632 19.8994 30.382C20.0179 30.8007 20.2192 31.1915 20.4914 31.5311C20.6887 31.7797 20.9355 31.9847 21.216 32.1332C21.4965 32.2817 21.8048 32.3704 22.1213 32.3939H22.1461C23.1392 32.5528 23.971 32.3864 24.6165 31.8973C25.437 31.2766 25.7536 30.2947 25.8119 29.8118L26.7988 21.5852C26.8528 21.1358 26.8051 20.6801 26.6593 20.2516C26.5134 19.8231 26.2732 19.4329 25.9564 19.1097C25.6395 18.7865 25.2541 18.5387 24.8286 18.3844C24.4031 18.2302 23.9484 18.1735 23.498 18.2186V18.2173ZM9.91483 10.769C9.56612 10.3243 9.37849 9.77442 9.38256 9.20926C9.38662 8.6441 9.58216 8.09701 9.93723 7.65731C10.2923 7.2176 10.786 6.91124 11.3376 6.78825C11.8892 6.66525 12.4662 6.73289 12.9745 6.98011C13.4827 7.22734 13.8921 7.63955 14.1359 8.14945C14.3797 8.65935 14.4434 9.23683 14.3166 9.78761C14.1899 10.3384 13.8802 10.8299 13.4381 11.182C12.996 11.5341 12.4476 11.7259 11.8824 11.7262C11.7824 11.7261 11.6825 11.7199 11.5832 11.7075C11.2567 11.669 10.941 11.566 10.6546 11.4044C10.3682 11.2429 10.1168 11.0261 9.91483 10.7666V10.769ZM10.6423 15.4143C10.6559 15.3845 10.6696 15.3559 10.6857 15.3274C10.8314 15.058 11.0305 14.8212 11.2708 14.6315C11.5112 14.4417 11.7877 14.303 12.0835 14.2238C13.778 13.7695 14.6482 15.1822 14.8146 15.7135L15.6711 17.6848L10.6137 15.4739L10.6423 15.4143ZM13.0592 23.1108L13.0369 23.0748C12.9733 22.9757 12.9224 22.8689 12.8854 22.757L10.6348 17.3906L15.9219 19.6958L13.0592 23.1108ZM25.1677 21.3729L24.1746 29.607C24.1599 29.737 24.1304 29.8649 24.0864 29.9881C23.9791 30.2403 23.8 30.4553 23.5712 30.6063C23.3425 30.7573 23.0744 30.8376 22.8003 30.8372C22.746 30.837 22.6917 30.8337 22.6377 30.8273C22.2708 30.7825 21.9366 30.5943 21.7081 30.3037C21.4797 30.0131 21.3756 29.6439 21.4187 29.2768L22.1983 22.7782L14.9077 23.6173L17.6275 20.3773H17.6412L23.6532 19.8237C23.858 19.8029 24.065 19.8287 24.2584 19.8993C24.4519 19.9698 24.6269 20.0831 24.7704 20.2308C24.9188 20.3789 25.0317 20.5588 25.1005 20.7568C25.1693 20.9549 25.1923 21.1659 25.1677 21.3742V21.3729Z" fill="black"/>
<path d="M24.3051 4.84128C23.535 4.7487 22.7543 4.80876 22.0074 5.01803C21.2606 5.2273 20.5623 5.58167 19.9524 6.06089C19.3426 6.54012 18.8332 7.13481 18.4532 7.81099C18.0733 8.48717 17.8303 9.23158 17.7382 10.0017C17.6458 10.7717 17.7059 11.5524 17.9153 12.2992C18.1246 13.046 18.479 13.7442 18.9582 14.354C19.4374 14.9638 20.032 15.4733 20.7081 15.8532C21.3842 16.2332 22.1285 16.4763 22.8986 16.5686C23.1334 16.5963 23.3697 16.6103 23.6062 16.6108C25.1125 16.612 26.5624 16.0374 27.6591 15.0047C28.7557 13.9721 29.4163 12.5593 29.5056 11.0556C29.5949 9.5519 29.1061 8.07091 28.1394 6.9157C27.1726 5.76049 25.801 5.0184 24.3051 4.84128ZM27.7288 11.1996C27.607 12.2076 27.121 13.1363 26.3621 13.8108C25.6032 14.4853 24.6239 14.859 23.6087 14.8617C23.4427 14.8614 23.2769 14.8515 23.1121 14.8319C22.0584 14.7078 21.092 14.1854 20.4111 13.3717C19.7301 12.558 19.3861 11.5147 19.4496 10.4556C19.5131 9.39651 19.9793 8.40178 20.7525 7.67528C21.5258 6.94879 22.5476 6.54554 23.6087 6.54818C23.7746 6.54825 23.9404 6.5582 24.1052 6.57797C25.1994 6.71002 26.1964 7.27087 26.8774 8.13739C27.5584 9.0039 27.8678 10.1053 27.7375 11.1996H27.7288Z" fill="black"/>
</svg>
