<svg width="36" height="36" viewBox="0 0 36 36" fill="none" xmlns="http://www.w3.org/2000/svg">
<path d="M24.0121 13.845C23.7153 13.8457 23.4267 13.9423 23.1892 14.1203C22.9518 14.2984 22.7783 14.5485 22.6946 14.8332C22.6108 15.1179 22.6213 15.4221 22.7245 15.7004C22.8277 15.9787 23.0181 16.2161 23.2673 16.3774V17.0626C23.2673 17.2602 23.3457 17.4496 23.4854 17.5893C23.6251 17.729 23.8145 17.8075 24.0121 17.8075C24.2096 17.8075 24.3991 17.729 24.5387 17.5893C24.6784 17.4496 24.7569 17.2602 24.7569 17.0626V16.3774C25.0061 16.2161 25.1964 15.9787 25.2996 15.7004C25.4028 15.4221 25.4133 15.1179 25.3296 14.8332C25.2459 14.5485 25.0723 14.2984 24.8349 14.1203C24.5975 13.9423 24.3089 13.8457 24.0121 13.845Z" fill="black"/>
<path d="M29.366 11.1052H29.2195V9.54478C29.2225 8.16126 28.6785 6.83265 27.7061 5.84855C26.7336 4.86446 25.4115 4.30469 24.0281 4.29126H24.0095C22.6538 4.29362 21.3524 4.82389 20.3812 5.76964C19.4099 6.71539 18.8452 8.00224 18.8068 9.35733C16.5713 8.84765 14.2329 9.04092 12.1113 9.91071C9.9898 10.7805 8.18871 12.2844 6.95434 14.2167C5.71997 16.149 5.11257 18.4154 5.2152 20.706C5.31783 22.9966 6.12548 25.1996 7.52771 27.0138C8.92994 28.828 10.8583 30.1647 13.0491 30.8413C15.2399 31.5179 17.5863 31.5013 19.7673 30.7937C21.9483 30.0861 23.8575 28.7222 25.2339 26.8883C26.6103 25.0545 27.3866 22.8402 27.4568 20.5484H29.366C29.844 20.5477 30.3021 20.3574 30.6398 20.0192C30.9776 19.681 31.1672 19.2226 31.1672 18.7447V12.9102C31.1676 12.432 30.978 11.9733 30.6403 11.6348C30.3025 11.2964 29.8442 11.1059 29.366 11.1052ZM20.4591 9.50009C20.4765 8.56949 20.8584 7.68287 21.5227 7.0309C22.187 6.37893 23.0805 6.01367 24.0113 6.01367C24.9421 6.01367 25.8357 6.37893 26.5 7.0309C27.1642 7.68287 27.5461 8.56949 27.5635 9.50009V11.1052H20.4591V9.50009ZM13.1002 15.7653C13.8649 12.5278 15.3049 10.8346 16.334 10.8346C16.7064 10.8346 17.1297 11.0555 17.5568 11.49C17.3397 11.6578 17.1639 11.8729 17.0427 12.1191C16.9216 12.3652 16.8584 12.6358 16.8579 12.9102V15.8001H13.0915L13.1002 15.7653ZM18.6579 20.5546H20.0507C20.0396 21.3213 19.9857 22.0867 19.8893 22.8474V22.8747H12.7861V22.8474C12.566 21.0982 12.566 19.3282 12.7861 17.579V17.5529H16.8579V18.7447C16.8575 19.2225 17.047 19.6809 17.3845 20.0191C17.722 20.3574 18.18 20.5477 18.6579 20.5484V20.5546ZM8.09497 15.7504C9.13915 13.8293 10.8172 12.3298 12.8432 11.5074L12.9301 11.4714L12.8817 11.5521C12.199 12.678 11.6552 14.1379 11.3101 15.7728V15.7964H8.0689L8.09497 15.7504ZM7.33277 22.8412C6.82796 21.1184 6.82796 19.2869 7.33277 17.5641L7.34021 17.5418H11.0259V17.5753C10.8132 19.32 10.8132 21.0841 11.0259 22.8288V22.8636H7.34021L7.33277 22.8412ZM12.8432 28.9029C10.8171 28.0801 9.13901 26.5801 8.09497 24.6586L8.07014 24.6127H11.3039V24.6375C11.6503 26.2749 12.194 27.7335 12.8755 28.8582L12.9239 28.9376L12.8432 28.9029ZM19.5666 24.6511C18.8031 27.8874 17.3619 29.5819 16.339 29.5819C15.3161 29.5819 13.8699 27.8874 13.1052 24.6511L13.0965 24.6127H19.5802L19.5666 24.6511ZM24.573 24.6586C23.5285 26.5802 21.85 28.0801 19.8235 28.9029L19.7366 28.9376L19.785 28.8582C20.469 27.731 21.0128 26.2724 21.3579 24.6375V24.6127H24.5929L24.573 24.6586ZM25.334 22.8412L25.3278 22.8636H21.6409V22.8288C21.7309 22.0701 21.7822 21.3073 21.7948 20.5434H25.7015C25.676 21.3217 25.5526 22.0938 25.334 22.8412ZM29.5112 18.7447C29.5109 18.7832 29.4956 18.8201 29.4684 18.8474C29.4413 18.8748 29.4045 18.8905 29.366 18.8911H18.6579C18.6193 18.8905 18.5826 18.8748 18.5554 18.8474C18.5283 18.8201 18.5129 18.7832 18.5126 18.7447V12.9102C18.513 12.8717 18.5284 12.835 18.5555 12.8078C18.5827 12.7807 18.6194 12.7652 18.6579 12.7649H29.366C29.4043 12.7656 29.4409 12.7811 29.468 12.8082C29.4951 12.8353 29.5106 12.8718 29.5112 12.9102V18.7447Z" fill="black"/>
</svg>
