<svg width="36" height="36" viewBox="0 0 36 36" fill="none" xmlns="http://www.w3.org/2000/svg">
<path d="M28.0014 6.85229H8.24702C7.55257 6.85229 6.98218 7.42333 6.98218 8.1185V27.8936C6.98218 28.5887 7.55257 29.1598 8.24702 29.1598H28.0014C28.6959 29.1598 29.2662 28.5887 29.2662 27.8936V8.13091C29.2662 7.42333 28.6959 6.85229 28.0014 6.85229ZM23.2767 13.3323H23.3511L23.3387 13.3571C23.3263 13.3695 23.3263 13.3943 23.3139 13.4067C23.3139 13.4192 23.3015 13.4316 23.3015 13.444L23.2767 13.5061V13.3323ZM18.3784 18.2481H19.5689L19.5317 18.2729C19.1721 18.5584 18.7877 18.8191 18.4033 19.055L18.3784 19.0674V18.2481ZM12.9717 27.397H8.74304V23.1764H8.75546C9.05308 23.1888 9.36311 23.2012 9.69793 23.2012C10.1568 23.2012 10.628 23.1888 11.1116 23.1515H12.9717V27.397ZM12.9717 21.0784H12.9593C11.62 21.3143 10.4667 21.3764 9.6731 21.3764C9.23907 21.3764 8.91667 21.364 8.75546 21.3515H8.74304V18.2481H12.9717V21.0784ZM12.9717 17.7391H8.74304V13.3323H12.9717V17.7391ZM12.9717 12.8357H8.74304V8.62746H12.9717V12.8357ZM17.87 27.397H13.4677V23.1515H17.87V27.397ZM17.87 22.655H14.3482L14.4722 22.6302C14.8938 22.5309 15.2907 22.4191 15.6751 22.295C16.4191 22.0591 17.1508 21.7736 17.8328 21.4384L17.8576 21.426V22.655H17.87ZM17.87 19.3653C17.0391 19.8247 16.1463 20.2219 15.1914 20.5198C14.6458 20.6936 14.0754 20.8426 13.4801 20.9667H13.4553V18.2233H17.8576V19.3653H17.87ZM17.87 17.7391H13.4677V13.3323H17.87V17.7391ZM17.87 12.8357H13.4677V8.62746H17.87V12.8357ZM22.7807 27.397H18.3784V23.1515H22.7807V27.397ZM22.7807 22.655H18.3784V21.1653H18.3908C19.8417 20.3957 21.1438 19.415 22.2351 18.2605H22.7683V22.655H22.7807ZM22.7807 17.7391H22.6939L22.7187 17.7143C22.7311 17.7019 22.7311 17.7019 22.7435 17.6895L22.7807 17.6398V17.7391ZM22.7807 14.4743C22.0739 15.7157 21.1934 16.8205 20.1641 17.7391H18.3784V13.3323H22.7807V14.4743ZM22.7807 12.8357H18.3784V8.62746H22.7807V12.8357ZM27.5054 27.397H23.2767V23.1515H27.5054V27.397ZM27.5054 22.655H23.2767V18.2481H27.5054V22.655ZM27.5054 17.7391H23.2767V17.0067C24.0952 15.9143 24.7896 14.6854 25.3228 13.3447V13.3323H27.493V17.7391H27.5054ZM27.5054 12.8357H25.5213L25.5337 12.8109C25.6701 12.4509 25.7817 12.1033 25.8809 11.7681C25.9553 11.5323 25.9305 11.284 25.8065 11.073C25.6949 10.8619 25.4965 10.7005 25.2608 10.6385C24.7772 10.4895 24.2688 10.775 24.1324 11.2468C23.9712 11.7805 23.7851 12.3143 23.5743 12.8233V12.8357H23.2767V8.62746H27.5054V12.8357Z" fill="black"/>
</svg>
