<svg width="36" height="36" viewBox="0 0 36 36" fill="none" xmlns="http://www.w3.org/2000/svg">
<path d="M18.6951 20.8702H17.3072C17.2033 20.8708 17.1037 20.9115 17.0292 20.984C16.9546 21.0564 16.9111 21.1549 16.9075 21.2587L16.7908 25.39C16.7895 25.4415 16.7985 25.4926 16.8172 25.5406C16.8359 25.5885 16.8641 25.6321 16.8999 25.669C16.9358 25.7059 16.9786 25.7353 17.026 25.7554C17.0733 25.7755 17.1242 25.7859 17.1757 25.786H18.8267C18.8781 25.7862 18.9291 25.7761 18.9765 25.7562C19.0239 25.7363 19.0669 25.7071 19.1028 25.6702C19.1387 25.6334 19.1668 25.5897 19.1855 25.5418C19.2042 25.4939 19.213 25.4427 19.2115 25.3913L19.0948 21.2575C19.091 21.1538 19.0473 21.0557 18.9728 20.9835C18.8983 20.9114 18.7988 20.8707 18.6951 20.8702Z" fill="black"/>
<path d="M17.6413 9.19357H18.3613C18.413 9.19389 18.4641 9.18371 18.5117 9.16365C18.5593 9.14359 18.6023 9.11407 18.6381 9.07688C18.6745 9.04033 18.7029 8.99663 18.7215 8.94855C18.7401 8.90048 18.7485 8.84906 18.7461 8.79757L18.6915 6.84611C18.6883 6.74192 18.6449 6.64301 18.5704 6.57011C18.4959 6.49722 18.396 6.45599 18.2918 6.45508H17.7108C17.6067 6.45567 17.5069 6.49662 17.4323 6.56932C17.3578 6.64202 17.3143 6.74079 17.3111 6.84487L17.2553 8.79757C17.2529 8.84906 17.2614 8.90048 17.2799 8.94855C17.2985 8.99663 17.3269 9.04033 17.3633 9.07688C17.3992 9.11422 17.4424 9.14383 17.4903 9.1639C17.5381 9.18396 17.5895 9.19406 17.6413 9.19357Z" fill="black"/>
<path d="M17.3594 19.2538H18.643C18.6945 19.2539 18.7455 19.2438 18.7931 19.2238C18.8406 19.2038 18.8836 19.1745 18.9195 19.1375C18.9554 19.1005 18.9835 19.0567 19.0021 19.0087C19.0207 18.9606 19.0294 18.9093 19.0278 18.8578L18.9459 15.9058C18.942 15.802 18.8983 15.7037 18.8239 15.6314C18.7494 15.559 18.65 15.5181 18.5461 15.5172H17.4562C17.3524 15.5181 17.2529 15.559 17.1784 15.6314C17.104 15.7037 17.0603 15.802 17.0565 15.9058L16.9746 18.8578C16.9722 18.9092 16.9807 18.9607 16.9992 19.0087C17.0178 19.0568 17.0462 19.1005 17.0826 19.1371C17.1186 19.174 17.1616 19.2034 17.2092 19.2234C17.2567 19.2435 17.3078 19.2538 17.3594 19.2538Z" fill="black"/>
<path d="M17.5034 13.9035H18.4965C18.5479 13.9037 18.5989 13.8936 18.6463 13.8737C18.6937 13.8538 18.7367 13.8245 18.7726 13.7877C18.8085 13.7509 18.8366 13.7072 18.8553 13.6593C18.874 13.6114 18.8828 13.5602 18.8813 13.5088L18.8168 11.2011C18.8129 11.0971 18.7691 10.9986 18.6944 10.9262C18.6196 10.8538 18.5198 10.8131 18.4158 10.8125H17.5903C17.4865 10.8134 17.387 10.8543 17.3125 10.9266C17.2381 10.999 17.1944 11.0973 17.1906 11.2011L17.126 13.5088C17.1245 13.5596 17.1331 13.6101 17.1514 13.6576C17.1696 13.705 17.1971 13.7483 17.2322 13.7851C17.2673 13.8218 17.3093 13.8512 17.3559 13.8715C17.4025 13.8919 17.4526 13.9027 17.5034 13.9035Z" fill="black"/>
<path d="M13.2033 6.45514H12.5553C12.4516 6.45771 12.3512 6.49275 12.2684 6.55532C12.1855 6.61789 12.1244 6.70484 12.0936 6.80396L6.78169 25.3688C6.76655 25.4177 6.76293 25.4696 6.77111 25.5202C6.77929 25.5708 6.79906 25.6188 6.82887 25.6605C6.86066 25.7005 6.90133 25.7325 6.94765 25.7541C6.99398 25.7756 7.04469 25.7861 7.09576 25.7846H8.8759C8.9791 25.7811 9.07842 25.7444 9.15914 25.68C9.23986 25.6157 9.29768 25.527 9.32404 25.4271L13.5311 6.871C13.5444 6.82134 13.546 6.76925 13.5357 6.71887C13.5253 6.66849 13.5034 6.62123 13.4715 6.58084C13.4397 6.54045 13.3989 6.50805 13.3523 6.48623C13.3058 6.4644 13.2547 6.45376 13.2033 6.45514Z" fill="black"/>
<path d="M29.2183 25.3688L23.9076 6.80642C23.8772 6.70683 23.8163 6.61933 23.7334 6.55629C23.6505 6.49325 23.5499 6.45785 23.4459 6.4551H22.7979C22.7466 6.45393 22.6959 6.46451 22.6494 6.48603C22.6029 6.50755 22.562 6.53944 22.5297 6.57924C22.4978 6.61942 22.4757 6.66647 22.4651 6.71668C22.4546 6.76688 22.4559 6.81886 22.4689 6.86848L26.6772 25.4271C26.7035 25.5269 26.7613 25.6156 26.8421 25.68C26.9228 25.7444 27.0221 25.7811 27.1253 25.7846H28.9042C28.9553 25.7861 29.006 25.7756 29.0523 25.7541C29.0986 25.7325 29.1393 25.7005 29.1711 25.6605C29.2009 25.6188 29.2207 25.5707 29.2288 25.5201C29.237 25.4695 29.2334 25.4177 29.2183 25.3688Z" fill="black"/>
</svg>
