<svg width="36" height="36" viewBox="0 0 36 36" fill="none" xmlns="http://www.w3.org/2000/svg">
<path d="M18 4.86621C15.4024 4.86621 12.8631 5.63649 10.7033 7.07965C8.54343 8.52281 6.86003 10.574 5.86597 12.9739C4.8719 15.3738 4.61181 18.0146 5.11858 20.5623C5.62535 23.11 6.87622 25.4502 8.71302 27.287C10.5498 29.1238 12.89 30.3747 15.4377 30.8814C17.9854 31.3882 20.6262 31.1281 23.0261 30.134C25.426 29.14 27.4772 27.4566 28.9204 25.2967C30.3635 23.1369 31.1338 20.5976 31.1338 18C31.1299 14.5179 29.7449 11.1796 27.2827 8.71736C24.8204 6.25515 21.4821 4.87015 18 4.86621ZM24.3708 18C24.3704 16.8793 24.2978 15.7597 24.1535 14.6483H28.877C29.5495 16.8322 29.5495 19.1678 28.877 21.3517H24.1535C24.2964 20.2402 24.369 19.1207 24.3708 18ZM21.6459 28.7764C22.639 27.3439 23.4099 25.385 23.8742 23.1033H28.157C26.8077 25.7697 24.4719 27.8049 21.6459 28.7764ZM23.8742 12.8967C23.4075 10.6101 22.639 8.65118 21.6459 7.22359C24.4719 8.19514 26.8077 10.2303 28.157 12.8967H23.8742ZM22.6179 18C22.6186 19.1209 22.5443 20.2407 22.3957 21.3517H13.6043C13.3078 19.1271 13.3078 16.8729 13.6043 14.6483H22.3957C22.5443 15.7593 22.6186 16.8791 22.6179 18ZM13.9121 12.8967C14.827 8.77531 16.6593 6.61904 18 6.61904C19.3407 6.61904 21.173 8.77531 22.0879 12.8967H13.9121ZM7.84304 12.8967C9.19231 10.2303 11.5281 8.19514 14.3541 7.22359C13.361 8.65614 12.5901 10.615 12.1258 12.8967H7.84304ZM12.1258 23.1033C12.5913 25.3899 13.361 27.3476 14.3541 28.7764C11.5281 27.8049 9.19231 25.7697 7.84304 23.1033H12.1258ZM22.0879 23.1033C21.173 27.2247 19.3407 29.381 18 29.381C16.6593 29.381 14.827 27.2247 13.9121 23.1033H22.0879ZM11.8465 21.3517H7.12304C6.45052 19.1678 6.45052 16.8322 7.12304 14.6483H11.8465C11.7036 15.7598 11.6311 16.8793 11.6293 18C11.6295 19.1208 11.7021 20.2403 11.8465 21.3517Z" fill="black"/>
</svg>
