<svg width="36" height="36" viewBox="0 0 36 36" fill="none" xmlns="http://www.w3.org/2000/svg">
<path d="M30.3977 8.85987H8.60776C8.276 8.8602 7.95791 8.99214 7.72332 9.22674C7.48872 9.46133 7.35678 9.77942 7.35645 10.1112V10.3595H5.60239C5.4379 10.3596 5.27505 10.3922 5.12315 10.4553C4.97124 10.5184 4.83326 10.6108 4.71706 10.7272C4.60087 10.8436 4.50874 10.9818 4.44594 11.1338C4.38315 11.2859 4.35091 11.4488 4.35107 11.6133V24.7619C4.35173 25.3926 4.60253 25.9971 5.04844 26.4431C5.49435 26.889 6.09895 27.1398 6.72956 27.1404H30.3977C30.5625 27.1411 30.7258 27.1092 30.8783 27.0466C31.0307 26.984 31.1693 26.892 31.2862 26.7758C31.403 26.6595 31.4957 26.5214 31.559 26.3692C31.6224 26.2171 31.6551 26.0539 31.6552 25.8891V10.1112C31.6551 9.94638 31.6224 9.78323 31.559 9.63108C31.4957 9.47894 31.403 9.34078 31.2862 9.22454C31.1693 9.10829 31.0307 9.01625 30.8783 8.95367C30.7258 8.89109 30.5625 8.85922 30.3977 8.85987ZM7.35645 24.7619C7.35645 24.9282 7.29041 25.0877 7.17284 25.2052C7.05527 25.3228 6.89582 25.3888 6.72956 25.3888C6.56329 25.3888 6.40384 25.3228 6.28628 25.2052C6.16871 25.0877 6.10266 24.9282 6.10266 24.7619V12.1135H7.35645V24.7619ZM29.8974 25.3901H9.02363C9.07965 25.1854 9.10804 24.9741 9.10804 24.7619V10.6102H29.8974V25.3901Z" fill="black"/>
<path d="M11.5647 20.6925H18.6033C18.7826 20.6922 18.9545 20.6208 19.0813 20.494C19.2081 20.3672 19.2795 20.1953 19.2799 20.016V12.9773C19.2795 12.798 19.2081 12.6261 19.0813 12.4993C18.9545 12.3725 18.7826 12.3011 18.6033 12.3008H11.5647C11.3853 12.3011 11.2135 12.3725 11.0866 12.4993C10.9598 12.6261 10.8885 12.798 10.8881 12.9773V20.016C10.8881 20.1954 10.9594 20.3675 11.0863 20.4944C11.2132 20.6212 11.3852 20.6925 11.5647 20.6925ZM12.5764 13.9891H17.5916V19.0042H12.5764V13.9891Z" fill="black"/>
<path d="M21.8409 14.0362H27.5227C27.7449 14.0362 27.958 13.9479 28.1152 13.7908C28.2723 13.6336 28.3606 13.4205 28.3606 13.1983C28.3606 12.976 28.2723 12.7629 28.1152 12.6058C27.958 12.4486 27.7449 12.3604 27.5227 12.3604H21.8409C21.6186 12.3604 21.4055 12.4486 21.2484 12.6058C21.0912 12.7629 21.0029 12.976 21.0029 13.1983C21.0029 13.4205 21.0912 13.6336 21.2484 13.7908C21.4055 13.9479 21.6186 14.0362 21.8409 14.0362Z" fill="black"/>
<path d="M21.8409 17.2911H27.5227C27.7449 17.2911 27.958 17.2028 28.1152 17.0457C28.2723 16.8885 28.3606 16.6754 28.3606 16.4532C28.3606 16.2309 28.2723 16.0178 28.1152 15.8607C27.958 15.7035 27.7449 15.6152 27.5227 15.6152H21.8409C21.6186 15.6152 21.4055 15.7035 21.2484 15.8607C21.0912 16.0178 21.0029 16.2309 21.0029 16.4532C21.0029 16.6754 21.0912 16.8885 21.2484 17.0457C21.4055 17.2028 21.6186 17.2911 21.8409 17.2911Z" fill="black"/>
<path d="M21.8409 20.5448H27.5227C27.6327 20.5448 27.7417 20.5231 27.8433 20.481C27.945 20.4389 28.0374 20.3771 28.1152 20.2993C28.193 20.2215 28.2547 20.1292 28.2968 20.0275C28.3389 19.9258 28.3606 19.8169 28.3606 19.7068C28.3606 19.5968 28.3389 19.4878 28.2968 19.3862C28.2547 19.2845 28.193 19.1921 28.1152 19.1143C28.0374 19.0365 27.945 18.9748 27.8433 18.9327C27.7417 18.8906 27.6327 18.8689 27.5227 18.8689H21.8409C21.6186 18.8689 21.4055 18.9572 21.2484 19.1143C21.0912 19.2715 21.0029 19.4846 21.0029 19.7068C21.0029 19.9291 21.0912 20.1422 21.2484 20.2993C21.4055 20.4565 21.6186 20.5448 21.8409 20.5448Z" fill="black"/>
<path d="M11.7099 23.7949H18.3613C18.5835 23.7949 18.7966 23.7066 18.9538 23.5495C19.1109 23.3923 19.1992 23.1792 19.1992 22.9569C19.1992 22.7347 19.1109 22.5216 18.9538 22.3644C18.7966 22.2073 18.5835 22.119 18.3613 22.119H11.7099C11.4877 22.119 11.2746 22.2073 11.1174 22.3644C10.9603 22.5216 10.872 22.7347 10.872 22.9569C10.872 23.1792 10.9603 23.3923 11.1174 23.5495C11.2746 23.7066 11.4877 23.7949 11.7099 23.7949Z" fill="black"/>
<path d="M21.8409 23.7985H27.5227C27.7449 23.7985 27.958 23.7103 28.1152 23.5531C28.2723 23.396 28.3606 23.1828 28.3606 22.9606C28.3606 22.7384 28.2723 22.5252 28.1152 22.3681C27.958 22.211 27.7449 22.1227 27.5227 22.1227H21.8409C21.6186 22.1227 21.4055 22.211 21.2484 22.3681C21.0912 22.5252 21.0029 22.7384 21.0029 22.9606C21.0029 23.1828 21.0912 23.396 21.2484 23.5531C21.4055 23.7103 21.6186 23.7985 21.8409 23.7985Z" fill="black"/>
</svg>
