<svg width="36" height="36" viewBox="0 0 36 36" fill="none" xmlns="http://www.w3.org/2000/svg">
<path d="M10.4003 24.5358L12.1506 24.0889C16.0064 23.1331 21.415 21.4957 21.6745 13.4391C21.6899 12.966 21.6091 12.4947 21.4372 12.0536C21.2652 11.6126 21.0055 11.211 20.6739 10.8732C20.3239 10.5142 19.9053 10.2293 19.4429 10.0352C18.9806 9.84116 18.484 9.74197 17.9826 9.74355C17.4799 9.74499 16.9828 9.84926 16.5219 10.0499C16.061 10.2506 15.646 10.5434 15.3025 10.9104C14.6384 11.6255 14.4584 12.5652 14.3293 13.2554C13.7979 16.0572 11.9868 17.4389 8.79519 17.4761C8.57054 17.4787 8.35611 17.5704 8.199 17.731C8.04189 17.8916 7.95494 18.108 7.95726 18.3327C7.9562 18.5108 8.01247 18.6846 8.11776 18.8283C8.22304 18.9721 8.37176 19.0781 8.54195 19.1309C8.73437 19.1723 8.93216 19.1827 9.12788 19.1619C12.9029 19.0179 15.3348 17.0404 15.9927 13.5757C16.1168 12.9265 16.2348 12.4038 16.5402 12.0749C16.7273 11.8733 16.9545 11.713 17.2072 11.6042C17.4598 11.4954 17.7324 11.4405 18.0075 11.443C18.2783 11.4448 18.546 11.5007 18.795 11.6072C19.0439 11.7138 19.2691 11.869 19.4574 12.0637C19.6296 12.2374 19.7652 12.4439 19.8561 12.671C19.9469 12.8981 19.9912 13.1412 19.9862 13.3858C19.7578 20.4852 15.0604 21.6347 11.2879 22.5571C10.5691 22.7346 9.89009 22.8997 9.30167 23.0983C9.1963 23.1337 9.09896 23.1896 9.01524 23.2627C8.93152 23.3359 8.86307 23.4248 8.81382 23.5245C8.76457 23.6241 8.73549 23.7325 8.72824 23.8435C8.721 23.9544 8.73573 24.0657 8.7716 24.1709C8.80457 24.2769 8.85922 24.3749 8.93209 24.4587C9.00497 24.5425 9.09447 24.6102 9.19491 24.6575C9.33766 24.7185 9.49373 24.7416 9.64802 24.7245C9.76719 24.7109 10.4003 24.5358 10.4003 24.5358Z" fill="black"/>
<path d="M27.1551 20.3276C25.6506 19.8708 24.3 19.2662 24.3248 16.8803C24.3248 16.3502 24.3596 15.9977 24.3918 15.6253C24.4627 14.8918 24.4904 14.1548 24.475 13.4181C24.4254 9.84542 21.518 6.93811 17.9938 6.93811C14.7761 6.93811 12.2598 9.13039 11.5808 12.5243C11.1761 14.544 10.1172 14.6111 9.15512 14.5105C9.04326 14.497 8.92982 14.506 8.82147 14.5369C8.71311 14.5678 8.61201 14.62 8.52409 14.6905C8.43617 14.7609 8.36321 14.8483 8.30947 14.9473C8.25574 15.0463 8.22231 15.1551 8.21116 15.2672C8.2 15.3793 8.21134 15.4926 8.24451 15.6003C8.27768 15.7079 8.33201 15.8079 8.40432 15.8943C8.47663 15.9808 8.56546 16.0519 8.66561 16.1035C8.76576 16.1551 8.8752 16.1863 8.98754 16.1951C11.8886 16.4856 12.9041 14.5378 13.2405 12.8533C13.7619 10.2464 15.5842 8.63259 17.9938 8.63259C20.6007 8.63259 22.7445 10.7889 22.7818 13.4417C22.7967 14.1208 22.7715 14.8002 22.706 15.4763C22.67 15.8649 22.6365 16.2671 22.6316 16.8642C22.598 20.7187 25.447 21.5814 26.6636 21.9464C26.7438 21.9721 26.8276 21.9851 26.9118 21.9849C27.1153 21.9858 27.3124 21.9135 27.4669 21.781C27.6214 21.6486 27.723 21.4649 27.7532 21.2637C27.7833 21.0624 27.74 20.8571 27.6311 20.6852C27.5221 20.5133 27.355 20.3863 27.1601 20.3276H27.1551Z" fill="black"/>
<path d="M27.4543 17.5147C27.3811 17.4638 27.0422 17.1944 27.1229 16.4396C27.2395 15.3497 27.3004 13.5633 27.3041 13.4876V13.4591C27.301 11.2906 26.541 9.19115 25.1553 7.52313C23.7696 5.8551 21.8451 4.72308 19.714 4.32242C17.5828 3.92176 15.3786 4.27758 13.4818 5.32849C11.5849 6.3794 10.1144 8.05947 9.32396 10.0788C9.16302 10.5216 9.02953 10.9739 8.92423 11.4331C8.86465 11.6727 8.80009 11.9446 8.75665 12.0451C8.71589 12.1487 8.69592 12.2592 8.69789 12.3704C8.69985 12.4817 8.7237 12.5914 8.76808 12.6934C8.85771 12.8995 9.02551 13.0615 9.23458 13.1438C9.44364 13.2261 9.67684 13.222 9.88287 13.1323C10.0889 13.0427 10.2509 12.8749 10.3332 12.6658C10.4265 12.3978 10.5045 12.1247 10.5666 11.8478C10.6563 11.4582 10.7678 11.074 10.9005 10.697C11.5433 9.04194 12.7443 7.66356 14.2958 6.8003C15.8473 5.93704 17.6517 5.64318 19.3969 5.96954C21.1422 6.29591 22.7185 7.22198 23.8532 8.58758C24.9879 9.95317 25.6096 11.6724 25.6109 13.4479C25.6109 13.6192 25.5451 15.2814 25.4408 16.2621C25.2384 18.1242 26.4339 19.0279 27.0173 19.1508C27.0761 19.1635 27.136 19.1702 27.1961 19.1707C27.3983 19.1711 27.594 19.0992 27.7478 18.9678C27.9016 18.8365 28.0033 18.6545 28.0345 18.4547C28.0657 18.2548 28.0243 18.0505 27.9179 17.8785C27.8115 17.7065 27.647 17.5784 27.4543 17.5171V17.5147Z" fill="black"/>
<path d="M9.26194 21.9724L9.78332 21.8657C13.073 21.204 18.5773 20.0942 18.8454 13.4243C18.8499 13.3132 18.8325 13.2023 18.7941 13.0979C18.7557 12.9936 18.6972 12.8978 18.6218 12.8161C18.5464 12.7343 18.4556 12.6683 18.3547 12.6216C18.2538 12.5749 18.1446 12.5486 18.0335 12.5441C17.9225 12.5397 17.8116 12.5571 17.7072 12.5955C17.6028 12.6339 17.5071 12.6924 17.4253 12.7678C17.3436 12.8432 17.2775 12.9339 17.2309 13.0349C17.1842 13.1358 17.1579 13.2449 17.1534 13.356C16.9424 18.6939 12.6137 19.5629 9.45684 20.201L8.92553 20.309C8.72099 20.3526 8.53976 20.4702 8.41669 20.6393C8.29362 20.8084 8.23738 21.017 8.25879 21.225C8.28019 21.433 8.37773 21.6258 8.53265 21.7663C8.68757 21.9068 8.88895 21.9851 9.09808 21.9861C9.15302 21.987 9.20791 21.9824 9.26194 21.9724Z" fill="black"/>
<path d="M26.6127 23.0735C25.7544 22.8683 24.9176 22.5814 24.1138 22.2169C23.3519 21.8667 22.6729 21.359 22.1214 20.7273C21.9724 20.5656 21.7662 20.4683 21.5467 20.4559C21.3272 20.4436 21.1114 20.5171 20.9451 20.661C20.7788 20.8048 20.675 21.0078 20.6557 21.2268C20.6364 21.4458 20.703 21.6638 20.8416 21.8346C21.5603 22.6622 22.4496 23.3246 23.4485 23.7761C24.35 24.1825 25.2881 24.5022 26.2503 24.7307C26.3098 24.7435 26.3706 24.7502 26.4315 24.7506C26.6401 24.7503 26.8412 24.6731 26.9963 24.5336C27.1515 24.3942 27.2497 24.2025 27.2721 23.9951C27.2946 23.7877 27.2397 23.5794 27.118 23.41C26.9963 23.2406 26.8164 23.1221 26.6127 23.0772V23.0735Z" fill="black"/>
<path d="M25.7598 25.7785C24.1858 25.4433 23.0983 24.8661 22.1412 24.3571C21.1841 23.8481 20.3747 23.4161 19.4102 23.4161C18.643 23.4161 17.7467 23.7029 16.3911 24.1349C14.3815 24.8006 12.3347 25.3486 10.2612 25.776C10.1523 25.7984 10.0489 25.8421 9.95686 25.9045C9.86483 25.9668 9.78599 26.0467 9.72483 26.1396C9.66368 26.2324 9.62142 26.3364 9.60045 26.4456C9.57949 26.5548 9.58024 26.667 9.60265 26.7759C9.62507 26.8848 9.66871 26.9883 9.73109 27.0803C9.79348 27.1723 9.87337 27.2512 9.96623 27.3123C10.1537 27.4358 10.3827 27.4798 10.6026 27.4345C12.7349 26.9941 14.84 26.4313 16.9075 25.7487C17.6524 25.5104 18.2594 25.3204 18.7336 25.2062C19.1874 25.0837 19.6675 25.1005 20.1115 25.2546C20.5378 25.4258 20.9524 25.6244 21.3529 25.8493C22.3572 26.3843 23.6073 27.0497 25.4135 27.4333C25.4719 27.445 25.5314 27.4512 25.591 27.4519C25.8 27.4515 26.0015 27.3738 26.1567 27.2337C26.3119 27.0937 26.4098 26.9012 26.4315 26.6933C26.4532 26.4854 26.3973 26.2768 26.2744 26.1077C26.1515 25.9385 25.9705 25.8208 25.766 25.7772L25.7598 25.7785Z" fill="black"/>
<path d="M24.1833 28.162C23.5564 27.9931 22.8339 27.6567 22.1363 27.3278C21.4386 26.9988 20.1401 26.1993 19.2575 26.1993C18.5127 26.1993 16.8157 26.8449 15.6575 27.1788C14.3863 27.5512 12.9463 27.9671 11.9036 28.1446C11.6822 28.1828 11.485 28.3074 11.3554 28.4909C11.2259 28.6745 11.1745 28.902 11.2127 29.1234C11.2509 29.3448 11.3755 29.542 11.5591 29.6715C11.7426 29.8011 11.9702 29.8524 12.1916 29.8142C13.3262 29.6193 14.8158 29.1935 16.1292 28.8062C16.9026 28.5815 17.743 28.3022 18.3637 28.1272C18.6511 28.0364 18.9512 27.9924 19.2525 27.9969C19.5544 28.0287 19.8484 28.1127 20.1215 28.2451C20.5225 28.4226 20.9694 28.6573 21.4101 28.8658C22.176 29.2258 22.968 29.5958 23.7389 29.8018C23.8101 29.8214 23.8836 29.8314 23.9574 29.8316C24.1629 29.8317 24.3615 29.7571 24.516 29.6216C24.6706 29.4861 24.7705 29.299 24.7973 29.0952C24.824 28.8914 24.7757 28.6848 24.6614 28.514C24.547 28.3432 24.3745 28.2199 24.1759 28.1669L24.1833 28.162Z" fill="black"/>
<path d="M22.2269 30.3417L21.5082 29.9246C20.7882 29.5037 19.7429 28.9476 19.1756 28.9513C18.9517 28.9565 18.7292 28.9882 18.5127 29.0457C17.8039 29.2182 14.9549 30.179 14.3057 30.2548C14.0826 30.2813 13.8792 30.3953 13.7402 30.5718C13.6013 30.7482 13.5381 30.9727 13.5646 31.1957C13.5911 31.4188 13.7051 31.6222 13.8816 31.7612C14.058 31.9002 14.2825 31.9633 14.5055 31.9368C15.2504 31.8487 18.3327 30.724 19.2228 30.7948C20.1129 30.8655 21.1581 31.7097 21.4101 31.8015C21.5036 31.8355 21.6023 31.8531 21.7018 31.8537C21.8776 31.8533 22.049 31.7982 22.1921 31.6962C22.3352 31.5941 22.4431 31.45 22.5008 31.284C22.5585 31.1179 22.5631 30.938 22.514 30.7692C22.465 30.6003 22.3646 30.451 22.2269 30.3417Z" fill="black"/>
</svg>
