<svg width="36" height="36" viewBox="0 0 36 36" fill="none" xmlns="http://www.w3.org/2000/svg">
<path d="M32.2759 12.8905C32.2689 12.778 32.2188 12.6725 32.136 12.596C32.0532 12.5194 31.9442 12.4778 31.8315 12.4796H30.9873C30.8746 12.4778 30.7656 12.5194 30.6828 12.596C30.6 12.6725 30.5499 12.778 30.5429 12.8905V19.008H23.3379V12.8594C23.3244 12.7524 23.2716 12.6542 23.1896 12.584C23.1077 12.5138 23.0026 12.4766 22.8948 12.4796H22.0506C21.9428 12.4766 21.8377 12.5138 21.7558 12.584C21.6739 12.6542 21.621 12.7524 21.6075 12.8594V19.008H14.4V12.9252C14.3997 12.8068 14.3525 12.6933 14.2688 12.6096C14.185 12.5258 14.0715 12.4787 13.9531 12.4783H13.109C12.9906 12.4787 12.8771 12.5258 12.7933 12.6096C12.7096 12.6933 12.6624 12.8068 12.6621 12.9252V19.008H5.46208V12.9252C5.46176 12.8068 5.41457 12.6933 5.33083 12.6096C5.24709 12.5258 5.13361 12.4787 5.01519 12.4783H4.17105C4.05262 12.4787 3.93915 12.5258 3.85541 12.6096C3.77167 12.6933 3.72448 12.8068 3.72415 12.9252V19.8769C3.72415 20.1074 3.8157 20.3284 3.97867 20.4914C4.14163 20.6544 4.36265 20.7459 4.59312 20.7459H12.6621V26.8287C12.6624 26.9471 12.7096 27.0606 12.7933 27.1443C12.8771 27.2281 12.9906 27.2752 13.109 27.2756H13.9531C14.0715 27.2752 14.185 27.2281 14.2688 27.1443C14.3525 27.0606 14.3997 26.9471 14.4 26.8287V20.7459H21.6V26.8287C21.6003 26.9471 21.6475 27.0606 21.7313 27.1443C21.815 27.2281 21.9285 27.2752 22.0469 27.2756H22.8911C23.0095 27.2752 23.123 27.2281 23.2067 27.1443C23.2904 27.0606 23.3376 26.9471 23.3379 26.8287V20.7459H31.4069C31.6374 20.7459 31.8584 20.6544 32.0214 20.4914C32.1843 20.3284 32.2759 20.1074 32.2759 19.8769V12.8905Z" fill="black"/>
</svg>
