<svg width="36" height="36" viewBox="0 0 36 36" fill="none" xmlns="http://www.w3.org/2000/svg">
<path d="M11.8353 10.5529C12.3028 10.5529 12.6819 10.1738 12.6819 9.70624C12.6819 9.23866 12.3028 8.85962 11.8353 8.85962C11.3677 8.85962 10.9886 9.23866 10.9886 9.70624C10.9886 10.1738 11.3677 10.5529 11.8353 10.5529Z" fill="black"/>
<path d="M21.1494 10.5529C21.6169 10.5529 21.996 10.1738 21.996 9.70624C21.996 9.23866 21.6169 8.85962 21.1494 8.85962C20.6818 8.85962 20.3027 9.23866 20.3027 9.70624C20.3027 10.1738 20.6818 10.5529 21.1494 10.5529Z" fill="black"/>
<path d="M14.8505 10.5529C15.3181 10.5529 15.6971 10.1738 15.6971 9.70624C15.6971 9.23866 15.3181 8.85962 14.8505 8.85962C14.383 8.85962 14.0039 9.23866 14.0039 9.70624C14.0039 10.1738 14.383 10.5529 14.8505 10.5529Z" fill="black"/>
<path d="M24.1646 10.5529C24.6321 10.5529 25.0112 10.1738 25.0112 9.70624C25.0112 9.23866 24.6321 8.85962 24.1646 8.85962C23.697 8.85962 23.3179 9.23866 23.3179 9.70624C23.3179 10.1738 23.697 10.5529 24.1646 10.5529Z" fill="black"/>
<path d="M25.5401 5.84326H10.4598C9.63638 5.84556 8.8474 6.17412 8.26571 6.75697C7.68402 7.33983 7.35704 8.12946 7.35638 8.95292V28.5518C7.35671 28.9764 7.52554 29.3836 7.82578 29.6838C8.12603 29.984 8.53315 30.1529 8.95776 30.1532H27.0471C27.4718 30.1529 27.8789 29.984 28.1791 29.6838C28.4794 29.3836 28.6482 28.9764 28.6485 28.5518V8.95292C28.6479 8.1286 28.3202 7.33822 27.7374 6.75522C27.1547 6.17223 26.3644 5.84425 25.5401 5.84326ZM26.954 28.4624H9.0459V13.5659H26.954V28.4624ZM26.954 11.8751H9.0459V8.95292C9.04623 8.57791 9.19526 8.21833 9.46032 7.95304C9.72538 7.68775 10.0848 7.5384 10.4598 7.53774H25.5401C25.9151 7.5384 26.2746 7.68775 26.5396 7.95304C26.8047 8.21833 26.9537 8.57791 26.954 8.95292V11.8751Z" fill="black"/>
<path d="M11.7659 26.6511H24.2343C24.4426 26.6508 24.6423 26.5679 24.7896 26.4206C24.9369 26.2733 25.0198 26.0736 25.0201 25.8653V16.1676C25.0201 15.9592 24.9373 15.7594 24.7899 15.612C24.6426 15.4646 24.4427 15.3818 24.2343 15.3818H11.7659C11.5575 15.3818 11.3576 15.4646 11.2103 15.612C11.0629 15.7594 10.9801 15.9592 10.9801 16.1676V25.8653C10.9804 26.0736 11.0633 26.2733 11.2106 26.4206C11.3579 26.5679 11.5576 26.6508 11.7659 26.6511ZM12.5517 16.9534H23.4485V25.0758H12.5517V16.9534Z" fill="black"/>
<path d="M21.1282 18.3413H14.8717C14.6495 18.3413 14.4363 18.4296 14.2792 18.5867C14.122 18.7439 14.0338 18.957 14.0338 19.1792C14.0338 19.4015 14.122 19.6146 14.2792 19.7717C14.4363 19.9289 14.6495 20.0172 14.8717 20.0172H21.1282C21.3505 20.0172 21.5636 19.9289 21.7207 19.7717C21.8779 19.6146 21.9662 19.4015 21.9662 19.1792C21.9662 18.957 21.8779 18.7439 21.7207 18.5867C21.5636 18.4296 21.3505 18.3413 21.1282 18.3413Z" fill="black"/>
</svg>
