<svg width="36" height="36" viewBox="0 0 36 36" fill="none" xmlns="http://www.w3.org/2000/svg">
<path d="M19.2601 15.8897C19.2464 15.8897 17.8139 16.0237 16.4211 16.0138C14.8793 16.0051 13.4008 15.8897 13.3387 15.8822C13.2767 15.8748 13.227 15.8822 13.1724 15.8822C12.8971 15.8729 12.6245 15.9388 12.3839 16.0729C12.1432 16.207 11.9438 16.4042 11.8069 16.6432C11.5462 17.1286 11.576 17.8473 12.2302 18.3575L13.2965 19.1917C13.6857 19.4791 14.1466 19.6535 14.6285 19.6957C14.6372 19.6957 15.4342 19.7566 16.431 19.7566C17.5135 19.7566 18.2124 19.6982 18.2186 19.6982C18.7255 19.6489 19.2053 19.4462 19.594 19.1172L20.4903 18.3091C21.0899 17.7691 21.0775 17.059 20.7994 16.5948C20.5611 16.1975 20.0372 15.8115 19.2601 15.8897ZM18.9349 17.532L18.5091 17.9156C18.3826 18.0098 18.2337 18.0693 18.0771 18.0881C18.051 18.0881 17.4328 18.1415 16.4248 18.1415C15.5198 18.1415 14.775 18.0869 14.7427 18.0844C14.5779 18.0673 14.4198 18.0102 14.2822 17.9181L13.7856 17.5295C14.4349 17.5705 15.3994 17.6201 16.4099 17.6251H16.534C17.4527 17.6276 18.334 17.5717 18.9349 17.527V17.532Z" fill="black"/>
<path d="M29.7931 16.6916H27.9397C27.8888 15.3261 27.7758 13.7557 27.6604 13.3684C27.5449 12.9811 27.288 12.6857 26.9428 12.2884C26.6773 11.9912 26.4338 11.6751 26.2142 11.3425C26.6446 11.3852 27.0792 11.3378 27.4903 11.2035C27.8019 11.098 27.9 10.5902 27.89 10.1868C27.8801 9.78333 27.7659 9.35878 27.4853 9.27933C27.2371 9.20982 26.0813 9.12416 25.807 9.29051C25.6911 9.36767 25.6056 9.48261 25.5649 9.61575C25.266 8.82621 24.8945 8.06613 24.4551 7.34527C23.8655 6.37575 23.256 5.67437 22.7371 5.36899C21.8482 4.8414 17.9491 4.78802 16.3129 4.78802C14.6768 4.78802 10.7739 4.8414 9.88382 5.36899C9.36368 5.67437 8.75416 6.37575 8.16451 7.34527C7.72683 8.06631 7.35697 8.82639 7.05968 9.61575C7.01902 9.48261 6.93347 9.36767 6.81761 9.29051C6.54326 9.12416 5.3863 9.20982 5.13927 9.27933C4.85747 9.35878 4.74575 9.80071 4.73458 10.1868C4.7234 10.5729 4.82271 11.098 5.1343 11.2035C5.54542 11.3379 5.98002 11.3852 6.41044 11.3425C6.19073 11.6751 5.94763 11.9916 5.68299 12.2897C5.34285 12.6869 5.07595 12.9997 4.96423 13.3697C4.83264 13.8091 4.69982 15.8326 4.66382 17.3719C4.57568 21.0786 4.96795 21.6857 5.11568 21.9141C5.22592 22.0838 5.35051 22.2437 5.48809 22.392C5.45458 22.8886 5.48809 23.5564 5.80837 23.9648C5.89762 24.078 6.0093 24.1715 6.13641 24.2394C6.26352 24.3074 6.40331 24.3483 6.54699 24.3596C7.12051 24.4043 8.63375 24.4204 9.75471 24.4204C9.90056 24.4199 10.0444 24.3861 10.1752 24.3215C10.306 24.257 10.4203 24.1634 10.5095 24.048C10.6736 23.8182 10.7605 23.5422 10.7577 23.2597C11.5969 23.2597 12.6099 23.2597 13.7681 23.2597C16.6791 23.2597 19.8509 23.2511 21.8606 23.2436C21.8562 23.5301 21.9432 23.8106 22.1089 24.0443C22.1981 24.1597 22.3124 24.2533 22.4432 24.3178C22.574 24.3823 22.7178 24.4162 22.8637 24.4167C23.9809 24.4167 25.4979 24.4006 26.0714 24.3559C26.2159 24.3448 26.3565 24.3037 26.4843 24.2353C26.6121 24.1669 26.7243 24.0727 26.8137 23.9586C27.1402 23.5502 27.1688 22.8786 27.134 22.3858C27.2717 22.2375 27.3963 22.0776 27.5064 21.9079C27.576 21.7999 27.6914 21.6211 27.792 21.1022C27.9161 20.4815 27.9732 19.5406 27.9707 18.3153H28.9713V27.1502H19.4896C19.304 26.561 18.9352 26.0464 18.4369 25.6813C17.9385 25.3162 17.3366 25.1198 16.7188 25.1206H15.1622C15.0552 25.1199 14.9492 25.1403 14.8501 25.1807C14.7511 25.221 14.661 25.2804 14.5849 25.3556C14.5088 25.4307 14.4483 25.5201 14.4067 25.6187C14.3652 25.7172 14.3435 25.823 14.3428 25.93V26.0541H13.0891C12.9778 26.0454 12.8659 26.0597 12.7604 26.0963C12.655 26.1329 12.5582 26.1909 12.4762 26.2667C12.3943 26.3425 12.3289 26.4344 12.2842 26.5367C12.2394 26.6389 12.2163 26.7494 12.2163 26.861C12.2163 26.9726 12.2394 27.083 12.2842 27.1853C12.3289 27.2876 12.3943 27.3795 12.4762 27.4553C12.5582 27.5311 12.655 27.5891 12.7604 27.6257C12.8659 27.6622 12.9778 27.6766 13.0891 27.6679H14.3428V28.2625H13.0891C12.9778 28.2538 12.8659 28.2681 12.7604 28.3047C12.655 28.3413 12.5582 28.3993 12.4762 28.4751C12.3943 28.5509 12.3289 28.6428 12.2842 28.7451C12.2394 28.8473 12.2163 28.9578 12.2163 29.0694C12.2163 29.181 12.2394 29.2914 12.2842 29.3937C12.3289 29.496 12.3943 29.5879 12.4762 29.6637C12.5582 29.7395 12.655 29.7975 12.7604 29.8341C12.8659 29.8707 12.9778 29.885 13.0891 29.8763H14.3428V30.0004C14.3445 30.2163 14.4317 30.4227 14.5852 30.5744C14.7388 30.7262 14.9463 30.8108 15.1622 30.8098H16.7164C17.3342 30.8113 17.9365 30.6154 18.4353 30.2508C18.9341 29.8862 19.3035 29.3718 19.4896 28.7826H29.7931C30.0086 28.7823 30.2152 28.6965 30.3676 28.5441C30.5201 28.3917 30.6058 28.1851 30.6062 27.9695V17.5035C30.6052 17.2882 30.5192 17.0821 30.3668 16.93C30.2145 16.778 30.0083 16.6923 29.7931 16.6916ZM22.4428 10.836C21.5615 10.9502 11.4579 10.8658 10.2674 10.8186C9.73733 10.8 8.9503 10.4922 8.51954 10.3035C8.99002 8.91437 10.0824 7.13051 10.6895 6.76058C11.0333 6.60789 13.0034 6.39561 16.3129 6.39561C19.6435 6.39561 21.6037 6.60789 21.9302 6.75685C22.5 7.09947 23.544 8.77037 24.0467 10.1384C23.4893 10.4065 22.7383 10.7442 22.4428 10.836ZM24.912 21.6224H16.3117H7.71264C7.25333 21.6335 6.69223 21.4535 6.4812 20.9173C6.46258 20.8688 6.4452 20.8254 6.42782 20.7844C6.25402 20.3599 6.20685 20.2457 6.27264 17.4724L7.32782 17.7207L7.73871 17.8213C8.16384 17.9259 8.59944 17.9821 9.0372 17.9888C9.305 17.9937 9.57199 17.9581 9.8292 17.8833C10.1559 17.776 10.4438 17.5747 10.6569 17.3047C10.8699 17.0347 10.9987 16.7079 11.0271 16.3651C11.0693 15.7208 10.7168 15.1597 10.0849 14.8643C9.35002 14.5192 7.54133 13.7942 6.77416 13.4901L6.90699 13.3337C7.32361 12.8764 7.68639 12.3728 7.98823 11.8329C8.60023 12.0898 9.47789 12.3989 10.2041 12.4275C10.286 12.4275 14.9884 12.5044 18.6368 12.5044C21.2126 12.5044 22.5881 12.4697 22.8438 12.3964C23.256 12.2723 24.0852 11.8999 24.5606 11.6802C24.8884 12.3642 25.3477 12.9017 25.7176 13.3337L25.7325 13.3511L25.8393 13.4752C25.2186 13.7235 23.2659 14.5018 22.5024 14.8593C21.8706 15.156 21.518 15.7171 21.5602 16.3602C21.5891 16.7025 21.7181 17.0287 21.9311 17.2983C22.1441 17.5678 22.4318 17.7687 22.7582 17.8759C23.0154 17.9502 23.2824 17.9853 23.5502 17.9802C23.988 17.974 24.4236 17.9177 24.8486 17.8126L25.2595 17.712L26.352 17.4563C26.383 20.2221 26.383 20.2233 26.1682 20.8453L26.1459 20.9086C25.9597 21.4548 25.3862 21.6335 24.912 21.6224ZM9.08313 16.5327C8.87954 16.5327 7.26202 16.133 6.32851 15.8934L6.39058 15.0654C7.47058 15.4999 8.8994 16.0846 9.40216 16.3204H9.41457C9.41085 16.4024 9.38975 16.5352 9.08313 16.5352V16.5327ZM23.6259 16.5327H23.6172C23.4574 16.5122 23.3118 16.4302 23.2113 16.3043C23.7748 16.0436 25.2657 15.4477 26.1633 15.089L26.2191 15.0654L26.2824 15.8946C25.3862 16.138 23.8344 16.529 23.6259 16.5352V16.5327ZM17.9702 27.9671C17.9659 28.2956 17.8315 28.6091 17.5965 28.8388C17.3615 29.0685 17.045 29.1956 16.7164 29.1923H15.9802V26.7443H16.7164C17.045 26.741 17.3615 26.8681 17.5965 27.0978C17.8315 27.3274 17.9659 27.6409 17.9702 27.9695V27.9671Z" fill="black"/>
</svg>
