<svg width="36" height="36" viewBox="0 0 36 36" fill="none" xmlns="http://www.w3.org/2000/svg">
<path d="M28.651 14.5492C27.8565 12.1658 26.342 10.5644 24.3806 10.043C23.3751 9.76993 22.3199 9.80718 21.2647 10.1548C20.5944 10.3658 19.924 10.5148 19.2413 10.5892C19.3158 9.79476 19.6261 9.04994 20.1227 8.41684C20.8178 7.56029 21.7985 7.01408 22.8909 6.90236C23.313 6.8527 23.6109 6.4803 23.5737 6.05823C23.524 5.63617 23.1517 5.33824 22.7296 5.37548C21.2275 5.53686 19.8744 6.28167 18.9309 7.46097C18.7944 7.63477 18.6702 7.80857 18.5585 7.99477C18.2978 7.13822 17.8385 6.36856 17.2054 5.73546C16.0137 4.54375 14.3626 3.98514 12.5378 4.14651L11.8178 4.20858L11.7557 4.92857C11.5944 6.75339 12.1654 8.40443 13.3447 9.59615C13.4564 9.70787 13.5682 9.80718 13.6799 9.90649C13.0344 9.84442 12.4136 9.89407 11.793 10.0554C9.83156 10.5768 8.31709 12.1782 7.5226 14.5616C6.76535 16.8209 6.75294 19.5519 7.46053 22.2457C8.18053 24.9395 9.55844 27.2857 11.3336 28.8747C12.786 30.1657 14.375 30.836 15.9267 30.836C16.3736 30.836 16.833 30.774 17.2675 30.6622L17.3296 30.6498L17.3543 30.6374C17.8509 30.5133 18.3599 30.5133 18.8564 30.6374L18.9061 30.6498C20.8675 31.1712 22.9779 30.5381 24.8524 28.8622C26.6275 27.2733 28.0055 24.9271 28.7255 22.2333C29.4206 19.5271 29.4082 16.8085 28.651 14.5492ZM15.964 6.9396C16.6095 7.58512 16.9944 8.45408 17.0688 9.43476C16.0882 9.36028 15.2192 8.98786 14.5736 8.32994C13.9281 7.68442 13.5433 6.81546 13.4688 5.83478C14.4495 5.92168 15.3185 6.29409 15.964 6.9396ZM27.0248 21.774C26.3917 24.145 25.2 26.1933 23.673 27.5588C22.2579 28.825 20.7309 29.3216 19.3654 28.974L19.3282 28.9616L19.2785 28.9491C18.4716 28.7381 17.6275 28.7381 16.833 28.9616L16.8081 28.974C15.4426 29.334 13.9033 28.825 12.4881 27.5588C10.9612 26.1933 9.76951 24.145 9.1364 21.774C8.50329 19.403 8.51567 17.032 9.16119 15.0954C9.76947 13.283 10.8619 12.0789 12.2274 11.7189C12.5254 11.6444 12.8233 11.6072 13.1213 11.6072C13.5309 11.6072 13.9406 11.6692 14.3626 11.8058C16.7958 12.5878 19.353 12.5878 21.7861 11.8058C22.5309 11.5699 23.251 11.5327 23.9213 11.7189C25.2993 12.0789 26.3792 13.283 26.9875 15.0954C27.6454 17.032 27.6579 19.4154 27.0248 21.774Z" fill="black"/>
</svg>
