<svg width="36" height="36" viewBox="0 0 36 36" fill="none" xmlns="http://www.w3.org/2000/svg">
<path d="M29.3251 25.8591H7.90636V8.90804C7.90473 8.7839 7.85435 8.66537 7.7661 8.57805C7.67784 8.49072 7.55879 8.4416 7.43463 8.44128H6.67491C6.5515 8.44288 6.43358 8.49254 6.34619 8.57969C6.2588 8.66685 6.20884 8.78464 6.20691 8.90804V26.7119C6.20724 26.938 6.29719 27.1547 6.45706 27.3146C6.61692 27.4744 6.83365 27.5644 7.05974 27.5647H29.3301C29.4554 27.5644 29.5755 27.5145 29.6642 27.4258C29.7528 27.3372 29.8027 27.2171 29.8031 27.0918V26.332C29.8029 26.2696 29.7904 26.2077 29.7662 26.1501C29.7421 26.0925 29.7068 26.0402 29.6624 25.9962C29.618 25.9523 29.5653 25.9175 29.5074 25.894C29.4496 25.8704 29.3876 25.8586 29.3251 25.8591Z" fill="black"/>
<path d="M25.8406 16.3005H25.0809C24.8197 16.3005 24.6079 16.5123 24.6079 16.7735V22.7135C24.6079 22.9747 24.8197 23.1865 25.0809 23.1865H25.8406C26.1018 23.1865 26.3136 22.9747 26.3136 22.7135V16.7735C26.3136 16.5123 26.1018 16.3005 25.8406 16.3005Z" fill="black"/>
<path d="M21.2835 19.0699H20.5237C20.2625 19.0699 20.0508 19.2817 20.0508 19.5429V22.7134C20.0508 22.9746 20.2625 23.1864 20.5237 23.1864H21.2835C21.5447 23.1864 21.7564 22.9746 21.7564 22.7134V19.5429C21.7564 19.2817 21.5447 19.0699 21.2835 19.0699Z" fill="black"/>
<path d="M12.1691 20.5883H11.4094C11.1482 20.5883 10.9364 20.8 10.9364 21.0612V22.7135C10.9364 22.9747 11.1482 23.1865 11.4094 23.1865H12.1691C12.4303 23.1865 12.6421 22.9747 12.6421 22.7135V21.0612C12.6421 20.8 12.4303 20.5883 12.1691 20.5883Z" fill="black"/>
<path d="M16.7263 17.2822H15.9666C15.7054 17.2822 15.4937 17.494 15.4937 17.7552V22.712C15.4937 22.9732 15.7054 23.185 15.9666 23.185H16.7263C16.9876 23.185 17.1993 22.9732 17.1993 22.712V17.7552C17.1993 17.494 16.9876 17.2822 16.7263 17.2822Z" fill="black"/>
<path d="M11.3315 17.5495C11.46 17.6757 11.6333 17.7458 11.8134 17.7444C11.9935 17.7431 12.1657 17.6703 12.2923 17.5421L16.4 13.8018L20.5164 15.4578C20.6504 15.5025 20.7935 15.5128 20.9325 15.4879C21.0715 15.4629 21.202 15.4035 21.3121 15.3151L24.6117 12.301L24.603 13.3748C24.6034 13.5607 24.6774 13.7389 24.8088 13.8704C24.9403 14.0018 25.1185 14.0758 25.3044 14.0762H25.6446C25.8305 14.0758 26.0087 14.0018 26.1401 13.8704C26.2716 13.7389 26.3456 13.5607 26.3459 13.3748L26.3571 10.0789C26.3568 9.89312 26.2827 9.71504 26.1512 9.58377C26.0197 9.45251 25.8415 9.37878 25.6557 9.37878L22.3623 9.38996C22.1763 9.38996 21.9979 9.46385 21.8664 9.59539C21.7349 9.72692 21.661 9.90532 21.661 10.0913V10.4277C21.6616 10.6138 21.7359 10.792 21.8676 10.9234C21.9992 11.0548 22.1776 11.1288 22.3636 11.1291L23.4212 11.1204L20.6132 13.7025L16.4323 12.0291C16.2821 11.98 16.1213 11.9737 15.9678 12.011C15.8143 12.0483 15.6742 12.1276 15.5633 12.2402L11.0944 16.3566C10.9681 16.4851 10.898 16.6584 10.8994 16.8385C10.9008 17.0186 10.9736 17.1909 11.1018 17.3174L11.3315 17.5495Z" fill="black"/>
</svg>
