<svg width="36" height="36" viewBox="0 0 36 36" fill="none" xmlns="http://www.w3.org/2000/svg">
<path d="M27.5014 16.732C27.5882 16.3865 27.6324 16.0317 27.633 15.6754C27.6314 14.5335 27.1771 13.4389 26.3697 12.6314C25.5623 11.824 24.4676 11.3697 23.3257 11.3681C22.7341 11.3663 22.1485 11.4875 21.6062 11.7239C20.7942 10.6181 19.6613 9.78938 18.3615 9.35051C17.0617 8.91164 15.6582 8.88393 14.3422 9.27121C13.0261 9.65849 11.8613 10.4419 11.0064 11.5149C10.1515 12.5878 9.64799 13.8981 9.5644 15.2674C8.35979 15.7185 7.35182 16.5784 6.71644 17.6968C6.08107 18.8152 5.85864 20.1213 6.08794 21.387C6.31725 22.6527 6.98375 23.7977 7.97112 24.6221C8.95849 25.4466 10.204 25.8982 11.4903 25.898H12.4948C12.6162 25.8916 12.7306 25.8388 12.8142 25.7505C12.8979 25.6623 12.9444 25.5452 12.9442 25.4236V24.8639C12.9444 24.7422 12.8979 24.6252 12.8142 24.5369C12.7306 24.4487 12.6162 24.3959 12.4948 24.3895H11.4915C10.4824 24.3902 9.51073 24.0074 8.77334 23.3185C8.03594 22.6296 7.58791 21.6862 7.52007 20.6794C7.45222 19.6725 7.7696 18.6775 8.40791 17.896C9.04622 17.1144 9.95775 16.6046 10.9578 16.4699C10.9792 16.4672 10.9998 16.4602 11.0184 16.4495C11.0371 16.4387 11.0535 16.4244 11.0666 16.4073C11.0797 16.3903 11.0893 16.3708 11.0948 16.35C11.1004 16.3292 11.1018 16.3075 11.099 16.2861C11.0752 16.0842 11.0638 15.8811 11.0646 15.6778C11.0643 14.4808 11.48 13.321 12.2405 12.3967C13.0009 11.4724 14.059 10.8412 15.2335 10.6108C16.4081 10.3805 17.6262 10.5655 18.6794 11.1341C19.7326 11.7028 20.5555 12.6197 21.0073 13.7281C21.0178 13.7536 21.0345 13.7761 21.056 13.7935C21.0775 13.8108 21.1029 13.8225 21.1301 13.8274C21.1572 13.8324 21.1852 13.8305 21.2114 13.8218C21.2376 13.8132 21.2612 13.7981 21.2801 13.7779C21.5403 13.4947 21.8568 13.2688 22.2092 13.1147C22.5616 12.9605 22.9423 12.8814 23.3269 12.8826C23.8502 12.8827 24.363 13.0298 24.8068 13.307C25.2507 13.5843 25.6078 13.9805 25.8375 14.4507C26.0672 14.9209 26.1604 15.4462 26.1063 15.9667C26.0522 16.4872 25.853 16.982 25.5316 17.395C25.5137 17.4174 25.5022 17.4441 25.498 17.4724C25.4938 17.5007 25.4972 17.5297 25.5079 17.5563C25.5178 17.5831 25.5349 17.6068 25.5572 17.6247C25.5796 17.6427 25.6064 17.6543 25.6347 17.6583C26.4752 17.793 27.2341 18.2394 27.7603 18.9085C28.2864 19.5777 28.5412 20.4205 28.4739 21.269C28.4066 22.1176 28.0222 22.9097 27.3971 23.4875C26.7721 24.0653 25.9523 24.3865 25.1011 24.3871H23.7716C23.6473 24.3893 23.5288 24.4402 23.4416 24.5289C23.3544 24.6177 23.3056 24.7371 23.3056 24.8615V25.426C23.3056 25.5504 23.3544 25.6698 23.4416 25.7585C23.5288 25.8472 23.6473 25.8982 23.7716 25.9003H25.1011C26.1841 25.9006 27.2367 25.5418 28.0942 24.8802C28.9517 24.2186 29.5657 23.2914 29.8401 22.2437C30.1146 21.196 30.034 20.0869 29.6111 19.0898C29.1881 18.0928 28.4466 17.264 27.5025 16.7332L27.5014 16.732Z" fill="black"/>
<path d="M17.7056 27.0717C17.8204 27.1862 17.9758 27.2505 18.1379 27.2505C18.3 27.2505 18.4554 27.1862 18.5702 27.0717L22.6794 22.9625C22.7939 22.8478 22.8582 22.6923 22.8582 22.5302C22.8582 22.3681 22.7939 22.2127 22.6794 22.098L22.4422 21.8608C22.3853 21.8037 22.3178 21.7585 22.2434 21.7276C22.169 21.6967 22.0893 21.6808 22.0087 21.6808C21.9282 21.6808 21.8484 21.6967 21.7741 21.7276C21.6997 21.7585 21.6321 21.8037 21.5753 21.8608L18.9117 24.5232V16.9843C18.9111 16.8224 18.8463 16.6674 18.7316 16.5531C18.6169 16.4389 18.4617 16.3747 18.2998 16.3747H17.9653C17.8038 16.375 17.6489 16.4394 17.5347 16.5536C17.4204 16.6679 17.3561 16.8227 17.3558 16.9843V24.5232L14.691 21.8596C14.6344 21.8026 14.567 21.7574 14.4928 21.7266C14.4187 21.6957 14.3391 21.6798 14.2588 21.6798C14.1784 21.6798 14.0989 21.6957 14.0247 21.7266C13.9505 21.7574 13.8831 21.8026 13.8265 21.8596L13.5893 22.0968C13.5323 22.1534 13.4871 22.2208 13.4563 22.295C13.4254 22.3691 13.4095 22.4487 13.4095 22.529C13.4095 22.6094 13.4254 22.6889 13.4563 22.7631C13.4871 22.8373 13.5323 22.9047 13.5893 22.9613L17.7056 27.0717Z" fill="black"/>
</svg>
