<svg width="36" height="36" viewBox="0 0 36 36" fill="none" xmlns="http://www.w3.org/2000/svg">
<path d="M28.8298 7.38118C28.7879 7.22456 28.7059 7.08158 28.5918 6.96641C28.4777 6.85123 28.3355 6.76784 28.1793 6.72449C26.7765 6.42407 25.6655 6.42407 24.5917 6.42407C20.7236 6.42407 17.7939 8.18186 15.3769 11.9557H10.9539C10.1954 11.9557 9.30164 12.5081 8.96771 13.1859L6.82757 17.4599C6.75116 17.6257 6.70894 17.8051 6.70343 17.9875C6.70409 18.3034 6.82985 18.6061 7.0532 18.8295C7.27655 19.0528 7.57929 19.1786 7.89515 19.1792H12.3852C12.9096 19.1792 13.4288 19.2825 13.9133 19.4833C14.3977 19.684 14.8379 19.9781 15.2086 20.349C15.5794 20.7198 15.8734 21.1601 16.074 21.6446C16.2745 22.1291 16.3777 22.6484 16.3775 23.1728V27.6665C16.3785 27.9834 16.5052 28.2869 16.7298 28.5103C16.9544 28.7338 17.2586 28.8589 17.5754 28.8583C17.7573 28.8514 17.936 28.8093 18.1018 28.7341L22.3672 26.6002C23.0462 26.2601 23.5974 25.3675 23.5974 24.614V20.181C27.3699 17.7504 29.1277 14.8232 29.1277 10.975C29.1314 9.90738 29.1352 8.80255 28.8298 7.38118ZM12.4696 17.5034C11.9445 17.5034 9.75722 17.4872 8.70453 17.4848L10.476 13.9419C10.5991 13.7959 10.7672 13.695 10.9539 13.6551H14.3801L12.8284 16.7859L12.4696 17.5034ZM21.9041 24.6066C21.8625 24.794 21.7589 24.962 21.6099 25.0832L18.0707 26.8547C18.0707 25.7908 18.0558 23.5998 18.0521 23.0797C19.3345 22.4453 20.7496 21.7427 21.9004 21.1692L21.9041 24.6066ZM27.4345 10.9737C27.4345 13.49 26.5283 15.5445 24.6637 17.2526C23.0065 18.7696 20.8341 19.8297 18.7336 20.8526C18.3985 21.0152 18.067 21.1766 17.7405 21.3392C17.4603 20.5209 16.9965 19.7776 16.3845 19.1662C15.7725 18.5549 15.0287 18.0918 14.2101 17.8125C14.3776 17.4748 14.5452 17.1322 14.7066 16.7883C16.7872 12.5242 18.9372 8.11483 24.5793 8.11483C25.4582 8.11483 26.2899 8.11483 27.2718 8.27621C27.4407 9.26931 27.4345 10.0973 27.4345 10.9737Z" fill="black"/>
<path d="M11.2741 20.252C10.2351 20.252 6.85482 20.7485 6.70337 27.1677H6.6922V28.8609H8.23027L8.38544 28.851C13.0741 28.7182 14.5613 26.7667 15.0305 25.606C15.3081 24.8932 15.37 24.1145 15.2087 23.3668C15.0474 22.6191 14.6699 21.9352 14.1231 21.4002C13.3587 20.6618 12.3369 20.2499 11.2741 20.252ZM13.418 25.076C12.9003 26.3322 11.0705 27.0882 8.38668 27.1615C8.40094 26.2423 8.53022 25.3286 8.77151 24.4416C9.24944 22.7869 10.0911 21.9489 11.2741 21.9489C11.8867 21.9482 12.477 22.1782 12.9276 22.5932C13.4465 23.1158 13.7941 24.1623 13.418 25.076Z" fill="black"/>
<path d="M22.7818 9.68274C22.1741 9.68274 21.5801 9.86293 21.0748 10.2005C20.5696 10.5381 20.1758 11.018 19.9432 11.5794C19.7107 12.1408 19.6498 12.7586 19.7684 13.3545C19.8869 13.9505 20.1796 14.498 20.6092 14.9277C21.0389 15.3574 21.5864 15.65 22.1824 15.7685C22.7784 15.8871 23.3961 15.8262 23.9575 15.5937C24.5189 15.3611 24.9988 14.9673 25.3364 14.4621C25.674 13.9568 25.8542 13.3628 25.8542 12.7552C25.8532 11.9406 25.5292 11.1597 24.9532 10.5837C24.3772 10.0077 23.5963 9.68372 22.7818 9.68274ZM22.7818 14.1517C22.5056 14.1517 22.2355 14.0698 22.0059 13.9163C21.7762 13.7629 21.5972 13.5448 21.4915 13.2896C21.3858 13.0344 21.3582 12.7536 21.412 12.4827C21.4659 12.2118 21.5989 11.963 21.7943 11.7676C21.9896 11.5723 22.2384 11.4393 22.5093 11.3854C22.7802 11.3315 23.061 11.3592 23.3162 11.4649C23.5714 11.5706 23.7895 11.7496 23.943 11.9793C24.0964 12.2089 24.1783 12.4789 24.1783 12.7552C24.178 13.1254 24.0307 13.4805 23.7689 13.7423C23.5071 14.0041 23.1521 14.1514 22.7818 14.1517Z" fill="black"/>
</svg>
