<svg width="36" height="36" viewBox="0 0 36 36" fill="none" xmlns="http://www.w3.org/2000/svg">
<path d="M28.7376 9.01227C28.6507 8.92537 28.5389 8.86328 28.4148 8.86328C28.2907 8.86328 28.1665 8.90052 28.0796 8.98742L27.5335 9.54604C27.3597 9.73225 27.3597 10.0178 27.5335 10.204C29.4823 12.3267 30.5622 15.0826 30.5622 17.9998C30.5622 20.9047 29.4823 23.673 27.5335 25.7957C27.3597 25.9819 27.3597 26.2674 27.5335 26.4536L28.0672 26.9998C28.1541 27.0867 28.2658 27.1364 28.4024 27.1364C28.4024 27.1364 28.4024 27.1364 28.4148 27.1364C28.5389 27.1364 28.6507 27.0867 28.7376 26.9998L28.7499 26.9874C31.0091 24.5543 32.2504 21.364 32.2504 17.9998C32.2504 14.6357 30.9967 11.4454 28.7376 9.01227Z" fill="black"/>
<path d="M15.0949 8.93799C14.7721 8.93799 14.4618 9.06211 14.2259 9.29798L10.117 13.407H5.41215C4.72939 13.407 4.17078 13.9656 4.17078 14.6483V21.3518C4.17078 22.0345 4.72939 22.5932 5.41215 22.5932H10.117L14.2259 26.7021C14.4618 26.938 14.7721 27.0621 15.0949 27.0621C15.7156 27.0621 16.3487 26.6028 16.3487 25.8207V10.1794C16.3363 9.3973 15.7031 8.93799 15.0949 8.93799ZM14.5983 24.6166L10.837 20.8552H5.9087V15.1449H10.837L14.5983 11.3835V24.6166Z" fill="black"/>
<path d="M24.1197 12.2401C24.1073 12.2401 24.1072 12.2525 24.0948 12.2649L23.561 12.8111C23.3872 12.9973 23.3872 13.2828 23.5486 13.469C25.8204 16.0635 25.8204 19.9615 23.5486 22.556C23.3748 22.7422 23.3872 23.0277 23.561 23.214L24.0948 23.7602C24.1817 23.8471 24.2935 23.8967 24.43 23.9091C24.43 23.9091 24.43 23.9091 24.4424 23.9091C24.5666 23.9091 24.6783 23.8595 24.7652 23.7726C24.7776 23.7602 24.7776 23.7602 24.79 23.7478C27.6949 20.4829 27.6949 15.5546 24.79 12.2897C24.6162 12.0787 24.3183 12.0663 24.1197 12.2401Z" fill="black"/>
<path d="M20.6192 15.6163L20.073 16.1626C19.7999 16.3984 19.9241 16.6219 20.0358 16.746C20.0358 16.746 20.073 16.7833 20.1847 17.0067C20.3461 17.3295 20.4206 17.6771 20.4206 18.0371C20.4206 18.3226 20.3709 18.7447 20.1227 19.1543C19.8992 19.5268 19.8992 19.6385 20.1475 19.8619C20.1475 19.8619 20.3833 20.0481 20.6813 20.284C20.9668 20.5199 21.3516 20.284 21.4881 20.0481C21.8481 19.4399 22.0344 18.7447 22.0344 18.0371C22.0344 17.2178 21.7861 16.4357 21.3144 15.7653C21.1902 15.5915 20.9668 15.306 20.6192 15.6163Z" fill="black"/>
</svg>
