<svg width="36" height="36" viewBox="0 0 36 36" fill="none" xmlns="http://www.w3.org/2000/svg">
<path d="M30.6001 9.3104H28.7381V7.73386C28.7381 7.51041 28.6512 7.29937 28.4898 7.13799C28.3284 6.97661 28.1174 6.88971 27.8939 6.88971C27.8691 6.88971 27.8442 6.88971 27.8194 6.88971L26.7767 6.97661C24.1822 7.18764 21.6623 7.80833 19.2664 8.81385L18.2608 9.23592L17.2554 8.81385C14.8595 7.80833 12.3272 7.20005 9.73274 6.97661L8.68994 6.88971C8.46649 6.86489 8.25541 6.93937 8.08162 7.08833C7.90783 7.2373 7.80859 7.43592 7.78376 7.65936C7.78376 7.68419 7.78376 7.70903 7.78376 7.73386V9.3104H5.92171C5.4624 9.3104 5.08997 9.68281 5.08997 10.1421V27.0125C5.08997 27.4718 5.4624 27.8442 5.92171 27.8442H30.5877C31.047 27.8442 31.4194 27.4718 31.4194 27.0125V10.1421C31.4442 9.68281 31.0718 9.3104 30.6001 9.3104ZM10.6761 25.6345C10.7134 25.6345 10.763 25.6469 10.8003 25.6469C10.9865 25.6718 11.185 25.6966 11.3712 25.7338C11.4581 25.7463 11.5326 25.7587 11.6195 25.7711L11.7189 25.7835C11.8927 25.8083 12.0664 25.8456 12.2402 25.8828C12.3395 25.9076 12.4389 25.92 12.5382 25.9449L12.6002 25.9573C12.7616 25.9945 12.9354 26.0318 13.0968 26.069C13.2209 26.0938 13.3327 26.1311 13.4568 26.1559C13.4693 26.1559 13.4816 26.1559 13.4816 26.1683H6.79067V10.9739H7.82098V24.5918C7.82098 25.0263 8.15617 25.3863 8.59065 25.4235L9.67067 25.5104C9.95618 25.5352 10.2541 25.56 10.5396 25.5973C10.5645 25.6221 10.6141 25.6345 10.6761 25.6345ZM9.6086 8.65247C12.0293 8.85109 14.3879 9.42213 16.6223 10.3656L17.4292 10.7007V25.7587L17.2926 25.6966C14.8968 24.6911 12.3644 24.0704 9.78232 23.8594L9.47197 23.8345V8.64006L9.6086 8.65247ZM27.0746 8.64006V23.8221L26.8139 23.8469C24.2195 24.058 21.6995 24.6787 19.2913 25.6718L19.1051 25.7463V10.6883L19.912 10.3532C22.1464 9.42213 24.505 8.83868 26.9257 8.64006H27.0746ZM23.1395 26.1559C23.2637 26.1311 23.3753 26.0938 23.4994 26.069C23.6608 26.0318 23.8222 25.9945 23.996 25.9573L24.0581 25.9449C24.1574 25.92 24.2442 25.9076 24.3436 25.8828C24.5173 25.8456 24.6912 25.8207 24.865 25.7835L25.2001 25.7214C25.3988 25.6966 25.585 25.6594 25.7836 25.6345C25.8333 25.6221 25.8829 25.6221 25.9326 25.6097C25.9823 25.5973 26.0195 25.5973 26.0691 25.5973C26.3546 25.56 26.6525 25.5352 26.9381 25.5104L27.9684 25.4235C28.4029 25.3863 28.7381 25.0263 28.7381 24.5918V10.9739H29.7684V26.1683H23.0898C23.1022 26.1683 23.1147 26.1683 23.1395 26.1559Z" fill="black"/>
</svg>
