<svg width="36" height="36" viewBox="0 0 36 36" fill="none" xmlns="http://www.w3.org/2000/svg">
<path d="M20.9868 18.725C21.1109 18.535 21.1854 18.317 21.2034 18.0908C21.2214 17.8645 21.1824 17.6374 21.0898 17.4302C20.8068 16.7934 20.4877 15.8524 20.1501 14.8568C19.5939 13.2145 19.0179 11.5163 18.4581 10.7206C17.7519 9.71809 16.8152 8.89995 15.7268 8.33502C14.6384 7.7701 13.4303 7.47493 12.204 7.47437H9.84538C5.92635 7.47437 2.62552 10.5269 2.48276 14.2759C2.44314 15.2993 2.6267 16.319 3.0207 17.2644C3.4147 18.2097 4.00971 19.058 4.76442 19.7504V25.7003C4.76634 25.8314 4.81927 25.9566 4.91198 26.0493C5.00469 26.142 5.12988 26.1949 5.26097 26.1968H5.83449C5.96666 26.1965 6.09342 26.1443 6.18746 26.0514C6.2815 25.9586 6.33529 25.8325 6.33725 25.7003V19.0465L5.88538 18.6406C5.28292 18.1021 4.80683 17.4373 4.49116 16.6935C4.17549 15.9497 4.02803 15.1454 4.05931 14.338C4.17104 11.4207 6.76428 9.05216 9.84166 9.05216H12.2003C13.1738 9.05227 14.133 9.28632 14.9971 9.7346C15.8613 10.1829 16.6051 10.8322 17.1658 11.628C17.5941 12.2375 18.1812 13.968 18.6555 15.3633C18.9571 16.2509 19.2439 17.1013 19.5182 17.7666H17.3433V21.4138C17.343 21.6593 17.2453 21.8947 17.0717 22.0683C16.8981 22.2419 16.6628 22.3396 16.4172 22.3399H12.7688V25.7028C12.7708 25.8352 12.8247 25.9614 12.9191 26.0544C13.0134 26.1473 13.1404 26.1993 13.2728 26.1993H13.8439C13.9751 26.1977 14.1004 26.1449 14.1932 26.0521C14.286 25.9593 14.3388 25.834 14.3404 25.7028V23.9189H16.411C17.075 23.9179 17.7115 23.6536 18.1809 23.184C18.6503 22.7144 18.9142 22.0778 18.9149 21.4138V19.3444H19.8397C20.0676 19.3458 20.292 19.2897 20.4925 19.1815C20.693 19.0732 20.8629 18.9162 20.9868 18.725Z" fill="black"/>
<path d="M15.269 14.5527C15.2692 14.3262 15.2023 14.1048 15.0767 13.9164C14.9511 13.7281 14.7724 13.5812 14.5633 13.4943C14.3542 13.4075 14.124 13.3847 13.9019 13.4287C13.6798 13.4727 13.4757 13.5816 13.3155 13.7417C13.1553 13.9017 13.0462 14.1056 13.0019 14.3277C12.9577 14.5497 12.9803 14.7799 13.0669 14.9891C13.1535 15.1983 13.3002 15.3772 13.4884 15.503C13.6766 15.6288 13.898 15.696 14.1244 15.696C14.2747 15.6961 14.4235 15.6667 14.5623 15.6093C14.7012 15.5519 14.8274 15.4677 14.9337 15.3615C15.04 15.2553 15.1243 15.1293 15.1818 14.9905C15.2393 14.8517 15.269 14.7029 15.269 14.5527Z" fill="black"/>
<path d="M20.8216 20.3733C20.7482 20.3731 20.6755 20.3875 20.6077 20.4155C20.5398 20.4435 20.4782 20.4846 20.4263 20.5365C20.3743 20.5884 20.3332 20.6501 20.3052 20.7179C20.2772 20.7858 20.2628 20.8585 20.263 20.9319V22.9057C20.263 23.0539 20.3219 23.1959 20.4266 23.3007C20.5314 23.4055 20.6735 23.4643 20.8216 23.4643C20.9698 23.4643 21.1119 23.4055 21.2166 23.3007C21.3214 23.1959 21.3803 23.0539 21.3803 22.9057V20.9319C21.3803 20.7838 21.3214 20.6417 21.2166 20.5369C21.1119 20.4321 20.9698 20.3733 20.8216 20.3733Z" fill="black"/>
<path d="M22.5844 19.4291C22.4362 19.4291 22.2941 19.4879 22.1894 19.5927C22.0846 19.6975 22.0258 19.8395 22.0258 19.9877V23.8496C22.0258 23.9978 22.0846 24.1399 22.1894 24.2446C22.2941 24.3494 22.4362 24.4082 22.5844 24.4082C22.7325 24.4082 22.8746 24.3494 22.9794 24.2446C23.0841 24.1399 23.143 23.9978 23.143 23.8496V19.9865C23.143 19.9132 23.1285 19.8406 23.1005 19.7729C23.0724 19.7052 23.0312 19.6437 22.9793 19.5919C22.9274 19.5401 22.8658 19.4991 22.7981 19.4712C22.7303 19.4432 22.6577 19.4289 22.5844 19.4291Z" fill="black"/>
<path d="M24.3484 20.8168C24.275 20.8166 24.2023 20.8309 24.1344 20.859C24.0666 20.887 24.005 20.9281 23.953 20.98C23.9011 21.0319 23.86 21.0936 23.832 21.1614C23.804 21.2293 23.7896 21.302 23.7898 21.3754V22.4616C23.7898 22.6098 23.8487 22.7518 23.9534 22.8566C24.0582 22.9614 24.2003 23.0202 24.3484 23.0202C24.4966 23.0202 24.6387 22.9614 24.7434 22.8566C24.8482 22.7518 24.907 22.6098 24.907 22.4616V21.3754C24.907 21.2272 24.8482 21.0852 24.7434 20.9804C24.6387 20.8756 24.4966 20.8168 24.3484 20.8168Z" fill="black"/>
<path d="M26.1112 18.402C25.9631 18.4023 25.8212 18.4613 25.7165 18.566C25.6118 18.6706 25.5529 18.8125 25.5526 18.9606V24.8758C25.5526 25.0239 25.6114 25.166 25.7162 25.2708C25.8209 25.3755 25.963 25.4344 26.1112 25.4344C26.2593 25.4344 26.4014 25.3755 26.5062 25.2708C26.6109 25.166 26.6698 25.0239 26.6698 24.8758V18.9606C26.6698 18.8124 26.6109 18.6704 26.5062 18.5656C26.4014 18.4608 26.2593 18.402 26.1112 18.402Z" fill="black"/>
<path d="M27.8752 19.5492C27.7271 19.5492 27.585 19.608 27.4802 19.7128C27.3754 19.8176 27.3166 19.9597 27.3166 20.1078V23.7289C27.3166 23.8771 27.3754 24.0192 27.4802 24.1239C27.585 24.2287 27.7271 24.2875 27.8752 24.2875C28.0234 24.2875 28.1655 24.2287 28.2702 24.1239C28.375 24.0192 28.4338 23.8771 28.4338 23.7289V20.1103C28.434 20.0368 28.4197 19.9639 28.3917 19.896C28.3637 19.828 28.3226 19.7662 28.2707 19.7141C28.2189 19.6619 28.1572 19.6206 28.0894 19.5923C28.0215 19.564 27.9487 19.5494 27.8752 19.5492Z" fill="black"/>
<path d="M29.638 16.8942C29.4899 16.8945 29.348 16.9535 29.2433 17.0581C29.1386 17.1628 29.0797 17.3047 29.0793 17.4528V26.3845C29.0793 26.5327 29.1382 26.6748 29.243 26.7795C29.3477 26.8843 29.4898 26.9431 29.638 26.9431C29.7861 26.9431 29.9282 26.8843 30.033 26.7795C30.1377 26.6748 30.1966 26.5327 30.1966 26.3845V17.4528C30.1966 17.3046 30.1377 17.1625 30.033 17.0578C29.9282 16.953 29.7861 16.8942 29.638 16.8942Z" fill="black"/>
<path d="M31.4068 20.2133C31.3334 20.2131 31.2607 20.2274 31.1929 20.2554C31.125 20.2835 31.0634 20.3246 31.0115 20.3765C30.9596 20.4284 30.9184 20.4901 30.8904 20.5579C30.8624 20.6258 30.848 20.6985 30.8482 20.7719V23.0647C30.8482 23.2129 30.9071 23.3549 31.0118 23.4597C31.1166 23.5645 31.2587 23.6233 31.4068 23.6233C31.555 23.6233 31.6971 23.5645 31.8019 23.4597C31.9066 23.3549 31.9655 23.2129 31.9655 23.0647V20.7719C31.9655 20.6237 31.9066 20.4816 31.8019 20.3769C31.6971 20.2721 31.555 20.2133 31.4068 20.2133Z" fill="black"/>
<path d="M33.1647 18.402C33.0166 18.4023 32.8747 18.4613 32.7701 18.566C32.6654 18.6706 32.6064 18.8125 32.6061 18.9606V24.8758C32.6061 25.0239 32.6649 25.166 32.7697 25.2708C32.8745 25.3755 33.0165 25.4344 33.1647 25.4344C33.3129 25.4344 33.4549 25.3755 33.5597 25.2708C33.6645 25.166 33.7233 25.0239 33.7233 24.8758V18.9606C33.7233 18.8124 33.6645 18.6704 33.5597 18.5656C33.4549 18.4608 33.3129 18.402 33.1647 18.402Z" fill="black"/>
</svg>
