<svg width="36" height="36" viewBox="0 0 36 36" fill="none" xmlns="http://www.w3.org/2000/svg">
<path d="M19.43 23.5587H21.482C21.8592 23.5584 22.2208 23.4084 22.4875 23.1417C22.7543 22.875 22.9043 22.5133 22.9046 22.1361V20.0841C22.9043 19.7069 22.7543 19.3453 22.4875 19.0785C22.2208 18.8118 21.8592 18.6618 21.482 18.6615H19.43C19.0527 18.6618 18.6911 18.8118 18.4244 19.0785C18.1576 19.3453 18.0077 19.7069 18.0073 20.0841V22.1361C18.0077 22.5133 18.1576 22.875 18.4244 23.1417C18.6911 23.4084 19.0527 23.5584 19.43 23.5587ZM19.6211 20.2753H21.2908V21.9449H19.6211V20.2753Z" fill="black"/>
<path d="M28.4823 18.0232H28.4761L19.0094 10.3862C18.7231 10.157 18.3674 10.0322 18.0007 10.0322C17.6341 10.0322 17.2784 10.157 16.9921 10.3862L11.3898 14.9036V12.9335C11.3898 12.775 11.3269 12.623 11.215 12.5108C11.103 12.3987 10.9512 12.3355 10.7927 12.3352H10.2154C10.057 12.3355 9.90509 12.3987 9.79315 12.5108C9.6812 12.623 9.61834 12.775 9.61834 12.9335V16.3324L7.50799 18.0294C7.39927 18.1229 7.3299 18.254 7.31378 18.3965C7.29767 18.539 7.336 18.6823 7.42109 18.7978L7.94496 19.4383C8.03757 19.5524 8.17166 19.6251 8.31781 19.6405C8.46396 19.6559 8.61023 19.6126 8.72454 19.5203L9.61958 18.7978V28.2136C9.61991 28.4485 9.71343 28.6736 9.87962 28.8396C10.0458 29.0055 10.2711 29.0987 10.5059 29.0987H25.4968C25.7315 29.0984 25.9564 29.0051 26.1223 28.8391C26.2882 28.6732 26.3816 28.4483 26.3819 28.2136V18.7941L27.2819 19.5203C27.3968 19.6085 27.5416 19.6485 27.6855 19.6318C27.8294 19.6151 27.9611 19.543 28.0528 19.4309L28.568 18.7965C28.6586 18.6824 28.7005 18.5371 28.6844 18.3922C28.6684 18.2473 28.5957 18.1147 28.4823 18.0232ZM24.6105 27.3273H11.3898V17.369L18.0001 12.041L24.6067 17.3702L24.6105 27.3273Z" fill="black"/>
<path d="M29.7931 6.71827C28.02 5.1483 25.7178 4.3086 23.3503 4.36834H23.3217C23.1546 4.38103 22.9992 4.45953 22.8899 4.58659C22.7805 4.71366 22.726 4.87892 22.7383 5.04613L22.7755 5.56627C22.7882 5.72969 22.8637 5.88185 22.9861 5.99085C23.1086 6.09985 23.2684 6.15723 23.4322 6.15096C25.3356 6.11491 27.1835 6.79304 28.6118 8.05174C30.0401 9.31043 30.9451 11.0584 31.1486 12.9512C31.1627 13.0976 31.2272 13.2345 31.3312 13.3385C31.4352 13.4425 31.5721 13.507 31.7184 13.521C31.7494 13.5235 31.7806 13.5235 31.8115 13.521L32.3366 13.4925H32.359C32.4419 13.4854 32.5226 13.4619 32.5963 13.4233C32.6701 13.3847 32.7354 13.3319 32.7885 13.2678C32.8951 13.1387 32.9464 12.9727 32.9313 12.806C32.6923 10.453 31.5711 8.27786 29.7931 6.71827Z" fill="black"/>
<path d="M23.2411 7.88162H23.2014C23.1181 7.88788 23.0369 7.91059 22.9624 7.94844C22.8879 7.9863 22.8217 8.03854 22.7676 8.10215C22.7134 8.16576 22.6724 8.23947 22.647 8.31902C22.6215 8.39858 22.6121 8.48239 22.6192 8.56562L22.6564 9.08327C22.6574 9.10214 22.6603 9.12086 22.6651 9.13914C22.6907 9.28885 22.7687 9.42459 22.8851 9.52213C23.0015 9.61968 23.1488 9.67269 23.3007 9.67169C24.3749 9.67447 25.4114 10.0674 26.2175 10.7774C27.0236 11.4873 27.5443 12.4659 27.6828 13.5311C27.6999 13.6754 27.7659 13.8095 27.8698 13.9111C27.9737 14.0127 28.1092 14.0758 28.2538 14.0898C28.2836 14.0916 28.3134 14.0916 28.3432 14.0898L28.8683 14.0612H28.9031C29.0693 14.0431 29.2215 13.9599 29.3267 13.8299C29.4318 13.6999 29.4812 13.5336 29.4642 13.3673C29.2803 11.8488 28.5446 10.4509 27.3972 9.43945C26.2498 8.428 24.7707 7.87357 23.2411 7.88162Z" fill="black"/>
</svg>
