<svg width="36" height="36" viewBox="0 0 36 36" fill="none" xmlns="http://www.w3.org/2000/svg">
<path d="M29.8051 19.5896L31.245 18.0751C31.6919 17.6531 31.9526 17.0945 31.965 16.4738C31.9774 15.8283 31.7168 15.1952 31.245 14.7234L20.9169 4.5566C20.4948 4.13453 19.8865 3.89868 19.241 3.89868C18.5955 3.89868 17.9873 4.13453 17.5652 4.5566L16.1128 6.00901C15.2935 6.82832 15.219 8.16899 15.9266 9.14968L15.9887 9.23658L15.939 9.32347C14.5115 12.0297 13.0715 12.6131 12.0163 13.0228C11.0605 13.3952 9.98047 13.8048 9.65772 15.4683L7.13774 27.5592C7.07568 27.882 7.16258 28.0434 7.21224 28.1178C7.22465 28.1427 7.33637 28.2172 7.42326 28.2916C7.48533 28.3413 7.5474 28.3909 7.60947 28.4406C7.74602 28.5523 7.93223 28.5523 8.08119 28.5399C8.23016 28.5275 9.21084 28.3165 9.58325 28.2296L20.2466 26.0696C21.8231 25.7717 22.27 24.8034 22.7045 23.8599L22.7789 23.711C23.2755 22.482 23.9582 21.1662 26.4782 19.8007L26.5651 19.751L26.652 19.8131C27.1113 20.1607 27.6327 20.3469 28.1168 20.3469C28.7623 20.3096 29.3333 20.0738 29.8051 19.5896ZM25.1996 18.6214C22.5679 20.2227 21.7983 21.8986 21.2769 22.991L21.2396 23.0779C20.7679 24.0213 20.619 24.2696 20.0852 24.4806H20.0728L10.7749 26.4047L15.7156 21.3275L15.7776 21.3524C16.1004 21.4889 16.448 21.551 16.808 21.551C18.2852 21.551 19.5017 20.3469 19.5017 18.8572C19.5017 17.3676 18.2976 16.1634 16.808 16.1634C15.3308 16.1634 14.1142 17.3676 14.1142 18.8572C14.1142 19.2545 14.2011 19.6393 14.3749 20.0117L14.3997 20.0738L9.48394 25.1386L11.4081 15.8034C11.5446 15.0959 11.7929 14.9593 12.7239 14.5745C13.6921 14.1897 15.5045 13.4697 17.1928 10.6145L17.3045 10.4407L25.3858 18.522L25.1996 18.6214ZM15.8645 18.8572C15.8645 18.3483 16.2866 17.9262 16.7956 17.9262C17.3045 17.9262 17.7266 18.3483 17.7266 18.8572C17.7266 19.3662 17.3045 19.7882 16.7956 19.7882C16.2866 19.7882 15.8645 19.3786 15.8645 18.8572ZM28.0547 18.5841C27.8933 18.5717 27.7568 18.5096 27.6699 18.3979L27.6575 18.3855L17.4162 8.06969C17.1431 7.79659 17.1431 7.41176 17.4162 7.13866L18.8686 5.68626C19.0176 5.5373 19.1417 5.48763 19.3404 5.48763C19.539 5.48763 19.6631 5.5373 19.8121 5.68626L30.0658 16.0145C30.1899 16.1386 30.2644 16.3124 30.2644 16.4862C30.2644 16.66 30.1899 16.8214 30.0658 16.9579L28.6133 18.4103C28.4892 18.5345 28.303 18.6089 28.1168 18.6089C28.092 18.5965 28.0671 18.5965 28.0547 18.5841Z" fill="black"/>
</svg>
