<svg width="36" height="36" viewBox="0 0 36 36" fill="none" xmlns="http://www.w3.org/2000/svg">
<path d="M18.1551 4.12085C10.5161 4.12085 4.29083 10.3526 4.29083 17.9995C4.29083 25.6464 10.5161 31.8781 18.1551 31.8781C25.794 31.8781 32.0192 25.6464 32.0192 17.9995C32.0192 10.3526 25.794 4.12085 18.1551 4.12085ZM20.5732 9.88085L22.6441 6.71533C23.2022 6.93878 23.7355 7.19948 24.2439 7.49741L22.1481 10.5264C21.6521 10.2657 21.1189 10.0546 20.5732 9.88085ZM19.0231 9.54569L19.0727 9.57051C19.0603 9.57051 19.0479 9.57051 19.0231 9.57051V9.54569ZM19.0231 9.08637V5.88361C19.668 5.93327 20.3128 6.03258 20.9328 6.16913L19.0231 9.08637ZM18.1551 11.2712C21.8629 11.2712 24.8763 14.2878 24.8763 17.9995C24.8763 21.7112 21.8629 24.7278 18.1551 24.7278C14.4472 24.7278 11.4338 21.7112 11.4338 17.9995C11.4338 14.2878 14.4472 11.2712 18.1551 11.2712ZM25.7444 14.2878L28.1129 11.0974C28.4726 11.6188 28.795 12.165 29.0678 12.736L26.3892 16.1374C26.2528 15.4795 26.0296 14.8588 25.7444 14.2878ZM29.7995 14.6105C30.0351 15.4174 30.1839 16.2616 30.2459 17.1181H27.8277L29.7995 14.6105ZM26.9969 9.69465L24.7523 12.7112C24.4051 12.2767 24.0083 11.8795 23.5866 11.5195L25.6824 8.49051C26.1536 8.86293 26.5876 9.26016 26.9969 9.69465ZM18.1551 30.1402C11.471 30.1402 6.02696 24.6905 6.02696 17.9995C6.02696 11.594 10.9997 6.33051 17.287 5.89602V9.58292C13.0335 10.0174 9.69763 13.6298 9.69763 17.9995C9.69763 22.6671 13.4923 26.4657 18.1551 26.4657C22.5202 26.4657 26.1288 23.1264 26.5628 18.8685H30.2459C29.7995 25.1498 24.5415 30.1402 18.1551 30.1402Z" fill="black"/>
</svg>
