<svg width="36" height="36" viewBox="0 0 36 36" fill="none" xmlns="http://www.w3.org/2000/svg">
<path d="M29.556 10.4128C29.5411 10.4041 29.5286 10.3979 18.3488 5.07487C18.2401 5.0234 18.1214 4.9967 18.0012 4.9967C17.881 4.9967 17.7623 5.0234 17.6536 5.07487C6.47251 10.3967 6.45512 10.4029 6.44395 10.4128C6.32498 10.4852 6.22657 10.5869 6.15811 10.7082C6.08965 10.8294 6.05343 10.9662 6.05292 11.1055V23.8346C6.05303 23.9775 6.09086 24.1178 6.16257 24.2414C6.23428 24.365 6.33734 24.4675 6.46133 24.5385L17.599 30.9018C17.7212 30.9718 17.8597 31.0086 18.0006 31.0086C18.1415 31.0086 18.2799 30.9718 18.4022 30.9018L29.5448 24.5372C29.6688 24.4662 29.7718 24.3637 29.8435 24.2402C29.9153 24.1166 29.9531 23.9762 29.9532 23.8334V11.1055C29.9519 10.9657 29.9147 10.8285 29.8451 10.7072C29.7756 10.5859 29.676 10.4845 29.556 10.4128ZM11.3573 20.7374V25.4695L7.67292 23.3592V18.8033L11.3573 20.7374ZM11.3573 14.374V18.91L7.67292 16.9797V12.4437L11.3573 14.374ZM27.3264 11.1403L23.9424 12.9105L19.8831 10.9764L23.436 9.28563L27.3264 11.1403ZM22.1486 13.8527L18 16.0251L13.8513 13.8527L18 11.8764L22.1486 13.8527ZM14.4521 8.3906L18 6.70356L21.5528 8.39556L18 10.0826L14.4521 8.3906ZM16.1217 10.9789L12.0575 12.9105L8.67471 11.1403L12.564 9.28812L16.1217 10.9789ZM17.1955 17.434V21.97L12.9811 19.7629V15.2219L17.1955 17.434ZM17.1955 23.7986V28.8001L12.9811 26.3918V21.5865L17.1955 23.7986ZM23.03 15.2331V19.7691L18.8155 21.9763V17.4291L23.03 15.2331ZM23.03 21.5976V26.4055L18.8093 28.8001V23.7936L23.03 21.5976ZM28.3332 12.4549V16.9909L24.65 18.9212V14.374L28.3332 12.4549ZM28.3332 18.8194V23.3753L24.65 25.4856V20.7374L28.3332 18.8194Z" fill="black"/>
</svg>
