<svg width="36" height="36" viewBox="0 0 36 36" fill="none" xmlns="http://www.w3.org/2000/svg">
<path d="M22.748 6H12.2942C11.6859 6.0006 11.1027 6.24247 10.6726 6.6726C10.2424 7.10272 10.0005 7.68593 9.99994 8.29421V27.7035C10.0002 28.3121 10.242 28.8957 10.6721 29.3263C11.1022 29.7568 11.6856 29.9991 12.2942 30H22.748C23.3566 29.9991 23.94 29.7568 24.3701 29.3263C24.8002 28.8957 25.042 28.3121 25.0422 27.7035V8.29421C25.0417 7.68593 24.7997 7.10272 24.3696 6.6726C23.9395 6.24247 23.3563 6.0006 22.748 6ZM23.4393 27.7035C23.439 27.8868 23.3661 28.0624 23.2365 28.192C23.1069 28.3216 22.9313 28.3945 22.748 28.3948H12.2942C12.1109 28.3945 11.9353 28.3216 11.8057 28.192C11.6761 28.0624 11.6032 27.8868 11.6029 27.7035V8.29421C11.6032 8.11106 11.6761 7.9355 11.8057 7.8061C11.9354 7.6767 12.111 7.60402 12.2942 7.60402H22.748C22.9312 7.60402 23.1068 7.6767 23.2364 7.8061C23.3661 7.9355 23.439 8.11106 23.4393 8.29421V27.7035Z" fill="black"/>
<path d="M12.7673 24.2143H22.278V8.74707H12.7673V24.2143ZM14.3151 10.3028H20.7302V22.6676H14.3151V10.3028Z" fill="black"/>
</svg>
