<svg width="36" height="36" viewBox="0 0 36 36" fill="none" xmlns="http://www.w3.org/2000/svg">
<path d="M30.2955 27.9557C30.5559 27.9557 30.7791 27.7447 30.7791 27.4716V26.6647C30.7791 26.404 30.5683 26.1805 30.2955 26.1805H29.1546V21.7985C29.1546 21.5378 28.9438 21.3143 28.6709 21.3143H27.53V14.9833H28.6709C28.9314 14.9833 29.1546 14.7723 29.1546 14.4992V13.6923C29.1546 13.4316 28.9438 13.2082 28.6709 13.2082H27.5176L27.4929 12.9102C27.1332 8.51575 23.6982 4.92817 19.3207 4.38196L19.0354 4.34472V3.16541C19.0354 2.90473 18.8246 2.68127 18.5518 2.68127H17.7458C17.4853 2.68127 17.2621 2.89231 17.2621 3.16541V4.35713L16.9769 4.39438C12.6118 4.94059 9.17673 8.52816 8.8047 12.9226L8.77993 13.2206H7.62661C7.3662 13.2206 7.14299 13.4316 7.14299 13.7047V14.5116C7.14299 14.7723 7.35379 14.9957 7.62661 14.9957H8.76752V21.3268H7.62661C7.3662 21.3268 7.14299 21.5378 7.14299 21.8109V26.193H6.00209C5.74167 26.193 5.51846 26.404 5.51846 26.6771V27.484C5.51846 27.7447 5.72927 27.9681 6.00209 27.9681H30.2955V27.9557ZM10.6401 12.8482C11.0741 8.98747 14.3107 6.07024 18.1674 6.07024C22.024 6.07024 25.2607 8.98747 25.6947 12.8482L25.7319 13.2082H10.5904L10.6401 12.8482ZM25.7692 14.9957V21.3268H21.8752V14.9957H25.7692ZM20.1143 14.9957V21.3268H16.2205V14.9957H20.1143ZM10.5532 14.9957H14.4471V21.3268H10.5532V14.9957ZM8.92871 23.0895H27.3936V26.1805H8.92871V23.0895Z" fill="black"/>
</svg>
