<svg width="36" height="36" viewBox="0 0 36 36" fill="none" xmlns="http://www.w3.org/2000/svg">
<path d="M26 8H11C9.3125 8 8 9.35938 8 11V26C8 27.6875 9.3125 29 11 29H26C27.6406 29 29 27.6875 29 26V11C29 9.35938 27.6406 8 26 8ZM27.5 26C27.5 26.8438 26.7969 27.5 26 27.5H11C10.1562 27.5 9.5 26.8438 9.5 26V11C9.5 10.2031 10.1562 9.5 11 9.5H26C26.7969 9.5 27.5 10.2031 27.5 11V26ZM13.25 12.5C12.8281 12.5 12.5 12.875 12.5 13.25V19.25C12.5 19.6719 12.8281 20 13.25 20C13.625 20 14 19.6719 14 19.25V13.25C14 12.875 13.625 12.5 13.25 12.5ZM16.25 12.5C15.8281 12.5 15.5 12.875 15.5 13.25V19.25C15.5 19.6719 15.8281 20 16.25 20C16.625 20 17 19.6719 17 19.25V13.25C17 12.875 16.625 12.5 16.25 12.5ZM19.25 12.5C18.8281 12.5 18.5 12.875 18.5 13.25V19.25C18.5 19.6719 18.8281 20 19.25 20C19.625 20 20 19.6719 20 19.25V13.25C20 12.875 19.625 12.5 19.25 12.5Z" fill="black"/>
</svg>
