<svg width="36" height="36" viewBox="0 0 36 36" fill="none" xmlns="http://www.w3.org/2000/svg">
<path d="M28.8471 19.3657H28.574V17.6625C28.574 17.4979 28.5086 17.34 28.3922 17.2236C28.2758 17.1072 28.1179 17.0418 27.9533 17.0418C27.7887 17.0418 27.6308 17.1072 27.5144 17.2236C27.398 17.34 27.3326 17.4979 27.3326 17.6625V19.3657H27.062C26.9199 19.366 26.7836 19.4226 26.6831 19.5231C26.5826 19.6236 26.526 19.7598 26.5257 19.902V24.8675C26.5264 25.0095 26.5831 25.1455 26.6835 25.246C26.7839 25.3464 26.92 25.4031 27.062 25.4037H27.1166V26.5322C27.1159 27.0617 26.9053 27.5694 26.5309 27.9438C26.1564 28.3182 25.6488 28.5289 25.1192 28.5295H23.9436C24.3323 27.9374 24.5386 27.2442 24.537 26.5359V18.277H24.6003C24.7425 18.2767 24.8787 18.2201 24.9792 18.1196C25.0797 18.0191 25.1363 17.8828 25.1366 17.7407V12.7752C25.1359 12.6332 25.0792 12.4971 24.9788 12.3967C24.8784 12.2963 24.7424 12.2396 24.6003 12.2389H24.3309V10.5382C24.3309 10.3736 24.2656 10.2157 24.1492 10.0993C24.0327 9.98293 23.8749 9.91754 23.7103 9.91754C23.5456 9.91754 23.3878 9.98293 23.2714 10.0993C23.155 10.2157 23.0896 10.3736 23.0896 10.5382V12.2389H22.8165C22.6743 12.2392 22.5381 12.2959 22.4376 12.3964C22.3371 12.4969 22.2805 12.6331 22.2802 12.7752V17.7407C22.2805 17.8828 22.3371 18.0191 22.4376 18.1196C22.5381 18.2201 22.6743 18.2767 22.8165 18.277H22.8785V26.5346C22.8772 27.0636 22.6662 27.5705 22.2918 27.9442C21.9174 28.3179 21.4101 28.528 20.8812 28.5283H16.5388C15.7789 28.5259 15.0413 28.2708 14.4424 27.8031C13.8434 27.3354 13.4171 26.6817 13.2305 25.945H17.9478C18.5432 25.9443 19.114 25.7075 19.535 25.2865C19.956 24.8655 20.1928 24.2947 20.1934 23.6993V8.05795C20.1934 7.463 19.9576 6.8923 19.5376 6.47091C19.1176 6.04951 18.5477 5.81179 17.9527 5.80981H8.05523C7.45974 5.81014 6.88874 6.04684 6.46767 6.46791C6.0466 6.88899 5.8099 7.45999 5.80957 8.05547V23.7031C5.81088 24.2979 6.04802 24.8679 6.46898 25.2882C6.88995 25.7085 7.46039 25.9447 8.05523 25.945H11.5311C11.7329 27.1279 12.3455 28.2018 13.261 28.9777C14.1765 29.7535 15.3363 30.1817 16.5363 30.1868H25.1143C26.0845 30.1858 27.0148 29.7999 27.7009 29.1138C28.387 28.4277 28.7729 27.4975 28.7738 26.5272V25.3988H28.8446C28.9867 25.3985 29.1229 25.3418 29.2234 25.2413C29.3239 25.1408 29.3805 25.0046 29.3809 24.8625V19.897C29.3793 19.7561 29.3224 19.6216 29.2226 19.5222C29.1228 19.4229 28.9879 19.3666 28.8471 19.3657ZM8.05523 24.2865C7.90059 24.2862 7.75237 24.2246 7.64303 24.1153C7.53368 24.0059 7.4721 23.8577 7.47178 23.7031V8.06168C7.4721 7.90704 7.53368 7.75883 7.64303 7.64948C7.75237 7.54013 7.90059 7.47856 8.05523 7.47823H17.9527C18.1074 7.47856 18.2556 7.54013 18.3649 7.64948C18.4743 7.75883 18.5359 7.90704 18.5362 8.06168V23.7031C18.5359 23.8577 18.4743 24.0059 18.3649 24.1153C18.2556 24.2246 18.1074 24.2862 17.9527 24.2865H8.05523Z" fill="black"/>
<path d="M16.0795 9.05213H9.93097C9.72266 9.05245 9.52298 9.13535 9.37569 9.28264C9.22839 9.42993 9.1455 9.62961 9.14517 9.83792V12.3803C9.1455 12.5885 9.22843 12.788 9.37576 12.9351C9.52309 13.0822 9.72278 13.1648 9.93097 13.1648H16.082C16.185 13.1648 16.2871 13.1445 16.3822 13.1051C16.4774 13.0657 16.5639 13.0079 16.6368 12.935C16.7096 12.8622 16.7674 12.7757 16.8068 12.6805C16.8463 12.5853 16.8666 12.4833 16.8666 12.3803V9.83792C16.8666 9.73462 16.8462 9.63234 16.8066 9.53692C16.7671 9.4415 16.7091 9.35482 16.636 9.28184C16.5629 9.20886 16.4761 9.151 16.3806 9.11158C16.2851 9.07217 16.1828 9.05196 16.0795 9.05213ZM15.2937 10.6225V11.5945H10.713V10.6225H15.2937Z" fill="black"/>
<path d="M13.0034 14.8051C12.2398 14.8051 11.4934 15.0315 10.8585 15.4557C10.2236 15.8799 9.72876 16.4829 9.43655 17.1883C9.14434 17.8938 9.06789 18.67 9.21685 19.4189C9.36582 20.1678 9.73351 20.8557 10.2734 21.3957C10.8134 21.9356 11.5013 22.3033 12.2502 22.4523C12.9991 22.6012 13.7753 22.5248 14.4808 22.2326C15.1862 21.9404 15.7892 21.4455 16.2134 20.8106C16.6376 20.1757 16.8641 19.4293 16.8641 18.6657C16.8631 17.6421 16.456 16.6607 15.7322 15.9369C15.0084 15.2131 14.027 14.806 13.0034 14.8051ZM13.0034 16.3742C13.3371 16.3746 13.6667 16.4479 13.9692 16.5889L10.9241 19.6303C10.7611 19.2814 10.6888 18.8971 10.7139 18.5129C10.739 18.1286 10.8607 17.7569 11.0677 17.4322C11.2746 17.1076 11.5602 16.8404 11.8979 16.6554C12.2357 16.4704 12.6146 16.3737 12.9996 16.3742H13.0034ZM13.0034 20.9561C12.6709 20.9548 12.3427 20.8815 12.0413 20.7413L15.0839 17.7C15.2462 18.049 15.318 18.4333 15.2925 18.8173C15.267 19.2014 15.1452 19.5729 14.9382 19.8974C14.7312 20.2219 14.4457 20.489 14.1082 20.6741C13.7707 20.8591 13.392 20.9561 13.0071 20.9561H13.0034Z" fill="black"/>
</svg>
