<svg width="36" height="36" viewBox="0 0 36 36" fill="none" xmlns="http://www.w3.org/2000/svg">
<path d="M16.5983 21.4718H15.3719C15.1175 21.4718 14.9113 21.678 14.9113 21.9324V23.1588C14.9113 23.4132 15.1175 23.6194 15.3719 23.6194H16.5983C16.8527 23.6194 17.0589 23.4132 17.0589 23.1588V21.9324C17.0589 21.678 16.8527 21.4718 16.5983 21.4718Z" fill="black"/>
<path d="M16.5983 15.5867H15.3719C15.1175 15.5867 14.9113 15.7929 14.9113 16.0472V17.2737C14.9113 17.5281 15.1175 17.7343 15.3719 17.7343H16.5983C16.8527 17.7343 17.0589 17.5281 17.0589 17.2737V16.0472C17.0589 15.7929 16.8527 15.5867 16.5983 15.5867Z" fill="black"/>
<path d="M20.5225 15.5867H19.296C19.0416 15.5867 18.8354 15.7929 18.8354 16.0472V17.2737C18.8354 17.5281 19.0416 17.7343 19.296 17.7343H20.5225C20.7768 17.7343 20.983 17.5281 20.983 17.2737V16.0472C20.983 15.7929 20.7768 15.5867 20.5225 15.5867Z" fill="black"/>
<path d="M16.5983 18.5291H15.3719C15.1175 18.5291 14.9113 18.7352 14.9113 18.9896V20.2161C14.9113 20.4704 15.1175 20.6766 15.3719 20.6766H16.5983C16.8527 20.6766 17.0589 20.4704 17.0589 20.2161V18.9896C17.0589 18.7352 16.8527 18.5291 16.5983 18.5291Z" fill="black"/>
<path d="M20.5225 18.5291H19.296C19.0416 18.5291 18.8354 18.7352 18.8354 18.9896V20.2161C18.8354 20.4704 19.0416 20.6766 19.296 20.6766H20.5225C20.7768 20.6766 20.983 20.4704 20.983 20.2161V18.9896C20.983 18.7352 20.7768 18.5291 20.5225 18.5291Z" fill="black"/>
<path d="M20.5225 21.4718H19.296C19.0416 21.4718 18.8354 21.678 18.8354 21.9324V23.1588C18.8354 23.4132 19.0416 23.6194 19.296 23.6194H20.5225C20.7768 23.6194 20.983 23.4132 20.983 23.1588V21.9324C20.983 21.678 20.7768 21.4718 20.5225 21.4718Z" fill="black"/>
<path d="M28.5754 27.3102H27.6493V8.05761C27.649 7.72156 27.5154 7.39937 27.2777 7.16175C27.0401 6.92413 26.7179 6.79049 26.3819 6.79016H20.6318C20.296 6.79082 19.9741 6.9246 19.7368 7.16219C19.4994 7.39977 19.3659 7.72178 19.3656 8.05761V12.5961H12.7987C12.5055 12.5964 12.2243 12.7131 12.017 12.9204C11.8096 13.1278 11.693 13.4089 11.6926 13.7022V17.4424H9.10313C8.87266 17.4424 8.65164 17.534 8.48867 17.6969C8.32571 17.8599 8.23416 18.0809 8.23416 18.3114V27.3102H7.3354C7.14044 27.3121 6.95401 27.3904 6.81614 27.5283C6.67827 27.6661 6.59996 27.8526 6.59802 28.0475V29.0307H29.3153V28.0475C29.3133 27.8521 29.2347 27.6653 29.0963 27.5274C28.9579 27.3895 28.7708 27.3114 28.5754 27.3102ZM11.6926 27.3102H9.97209V19.1791H11.6914L11.6926 27.3102ZM22.4827 27.3102H19.3296V25.216C19.3296 25.0843 19.2773 24.958 19.1842 24.8648C19.0911 24.7717 18.9648 24.7194 18.8331 24.7194H17.2428C17.1112 24.7194 16.9849 24.7717 16.8917 24.8648C16.7986 24.958 16.7463 25.0843 16.7463 25.216V27.3102H13.4132V14.3166H22.4815L22.4827 27.3102ZM25.9126 27.3102H24.207V13.7022C24.2067 13.4091 24.0902 13.1282 23.8831 12.9209C23.676 12.7135 23.3952 12.5967 23.1022 12.5961H21.1035V8.52685H25.9139L25.9126 27.3102Z" fill="black"/>
<path d="M8.62148 6.41942C10.1622 5.30031 12.0688 4.80459 13.9594 5.03156C14.1217 5.05357 14.2863 5.01181 14.4185 4.91505C14.5506 4.81828 14.6402 4.67405 14.6682 4.51266L14.7551 3.99873C14.7695 3.91703 14.7676 3.83329 14.7495 3.75233C14.7314 3.67138 14.6974 3.5948 14.6496 3.527C14.6024 3.45898 14.5421 3.40109 14.4721 3.35675C14.4022 3.31241 14.3241 3.2825 14.2424 3.2688H14.2127C11.8653 2.98767 9.49793 3.59906 7.58022 4.9817C5.6625 6.36434 4.33448 8.41723 3.85955 10.7332C3.84317 10.8152 3.8432 10.8996 3.85966 10.9815C3.87612 11.0634 3.90867 11.1413 3.95543 11.2106C4.00219 11.2799 4.06223 11.3392 4.13207 11.3851C4.20192 11.431 4.28017 11.4626 4.36231 11.478H4.38465L4.90355 11.5575C4.93435 11.5623 4.96547 11.5648 4.99665 11.5649C5.14352 11.5647 5.28575 11.5135 5.39898 11.42C5.51222 11.3264 5.58941 11.1964 5.61734 11.0522C5.99994 9.18491 7.0727 7.53055 8.62148 6.41942Z" fill="black"/>
<path d="M14.0277 6.77393H13.9867C12.4668 6.61749 10.9423 7.02461 9.70263 7.918C8.463 8.81139 7.59456 10.1289 7.26219 11.6203C7.24485 11.7014 7.24394 11.7851 7.25951 11.8666C7.27507 11.948 7.3068 12.0255 7.35281 12.0945C7.39832 12.1641 7.4572 12.224 7.52603 12.2706C7.59486 12.3173 7.67227 12.3498 7.75378 12.3663H7.78605L8.30619 12.4458C8.33593 12.4483 8.36583 12.4483 8.39557 12.4458C8.53995 12.4455 8.67994 12.3962 8.79268 12.306C8.90542 12.2158 8.98424 12.09 9.01626 11.9492C9.25726 10.9037 9.86958 9.9812 10.7395 9.3531C11.6094 8.725 12.6777 8.43402 13.7459 8.53421C13.8971 8.55043 14.0491 8.51258 14.175 8.42735C14.3009 8.34213 14.3925 8.21506 14.4336 8.06869C14.4394 8.05037 14.4439 8.03172 14.4473 8.01283L14.5342 7.50138C14.5618 7.33796 14.5242 7.17024 14.4295 7.03423C14.3348 6.89822 14.1906 6.80476 14.0277 6.77393Z" fill="black"/>
</svg>
