<svg width="36" height="36" viewBox="0 0 36 36" fill="none" xmlns="http://www.w3.org/2000/svg">
<path d="M12.4026 21.5514C11.8919 21.5514 11.3927 21.7028 10.9681 21.9865C10.5435 22.2703 10.2125 22.6735 10.0171 23.1453C9.82168 23.6172 9.77054 24.1363 9.87017 24.6372C9.9698 25.1381 10.2157 25.5981 10.5768 25.9592C10.9379 26.3204 11.398 26.5663 11.8989 26.6659C12.3998 26.7655 12.9189 26.7144 13.3907 26.519C13.8625 26.3235 14.2658 25.9926 14.5495 25.568C14.8333 25.1434 14.9847 24.6441 14.9847 24.1335C14.9837 23.449 14.7114 22.7928 14.2273 22.3087C13.7433 21.8247 13.0871 21.5524 12.4026 21.5514ZM12.4026 25.2383C12.1841 25.2383 11.9705 25.1735 11.7888 25.0521C11.6071 24.9307 11.4655 24.7581 11.3819 24.5563C11.2983 24.3544 11.2764 24.1322 11.319 23.9179C11.3617 23.7036 11.4669 23.5067 11.6214 23.3522C11.7759 23.1977 11.9728 23.0925 12.1871 23.0499C12.4014 23.0072 12.6235 23.0291 12.8254 23.1127C13.0273 23.1963 13.1999 23.338 13.3213 23.5196C13.4427 23.7013 13.5075 23.9149 13.5075 24.1335C13.5071 24.4264 13.3906 24.7072 13.1835 24.9143C12.9764 25.1214 12.6955 25.2379 12.4026 25.2383Z" fill="black"/>
<path d="M15.5597 10.0631C16.2982 10.0105 16.8544 9.36921 16.8018 8.63064C16.7493 7.89206 16.1079 7.33593 15.3694 7.38849C14.6308 7.44104 14.0746 8.08238 14.1272 8.82095C14.1798 9.55953 14.8211 10.1157 15.5597 10.0631Z" fill="black"/>
<path d="M31.1487 13.8078L18.1378 4.84134C17.5277 4.42137 16.8273 4.15098 16.0933 4.05204C15.3592 3.9531 14.6122 4.02841 13.9127 4.27186C13.2131 4.51531 12.5808 4.92006 12.0668 5.45335C11.5527 5.98663 11.1715 6.63347 10.954 7.34148L6.42543 22.3138V22.3311C6.0549 23.5643 6.07439 24.8817 6.48125 26.1034C6.8881 27.325 7.66245 28.3911 8.69836 29.1558C9.73427 29.9205 10.9811 30.3464 12.2684 30.3754C13.5557 30.4044 14.8204 30.0349 15.8897 29.3176L31.1202 19.0738C31.5507 18.7838 31.9039 18.3931 32.149 17.9356C32.3941 17.4781 32.5238 16.9677 32.5267 16.4487C32.5297 15.9296 32.4058 15.4178 32.1658 14.9575C31.9259 14.4973 31.5772 14.1026 31.15 13.8078H31.1487ZM15.4639 5.78975C16.0448 5.78975 16.6127 5.96201 17.0957 6.28474C17.5787 6.60748 17.9551 7.06619 18.1774 7.60287C18.3997 8.13956 18.4579 8.73011 18.3446 9.29986C18.2313 9.8696 17.9515 10.3929 17.5408 10.8037C17.13 11.2145 16.6067 11.4942 16.0369 11.6075C15.4672 11.7209 14.8766 11.6627 14.3399 11.4404C13.8033 11.2181 13.3445 10.8416 13.0218 10.3586C12.6991 9.87562 12.5268 9.30776 12.5268 8.72686C12.5275 7.94809 12.8371 7.20141 13.3878 6.65074C13.9385 6.10006 14.6852 5.79041 15.4639 5.78975ZM12.4027 28.6013C11.5188 28.6013 10.6548 28.3392 9.91985 27.8482C9.18493 27.3571 8.61214 26.6592 8.27389 25.8426C7.93564 25.026 7.84714 24.1274 8.01958 23.2605C8.19202 22.3936 8.61764 21.5973 9.24264 20.9723C9.86764 20.3473 10.6639 19.9217 11.5308 19.7493C12.3977 19.5768 13.2963 19.6653 14.1129 20.0036C14.9295 20.3418 15.6274 20.9146 16.1185 21.6495C16.6095 22.3845 16.8716 23.2485 16.8716 24.1324C16.8716 25.3176 16.4008 26.4543 15.5627 27.2924C14.7246 28.1305 13.5879 28.6013 12.4027 28.6013ZM27.7548 19.1917L18.5177 25.4048C18.7603 24.2354 18.6626 23.021 18.2363 21.9054C17.8099 20.7898 17.0728 19.8198 16.1122 19.1103C15.1515 18.4007 14.0077 17.9813 12.8161 17.9018C11.6244 17.8223 10.435 18.086 9.38861 18.6616L11.5834 11.4045C12.1553 12.2304 12.976 12.8521 13.9259 13.1792C14.8758 13.5062 15.9053 13.5214 16.8645 13.2226C17.8236 12.9238 18.6623 12.3266 19.2585 11.5179C19.8546 10.7093 20.177 9.73147 20.1787 8.72686C20.1787 8.61886 20.1787 8.50961 20.1675 8.40161L27.7858 13.6551C27.2927 13.9331 26.882 14.3367 26.5955 14.8249C26.309 15.3131 26.1569 15.8685 26.1547 16.4346C26.1537 16.9946 26.3012 17.5449 26.5824 18.0293C26.8635 18.5136 27.268 18.9147 27.7548 19.1917ZM29.3401 17.8361C29.0618 17.8361 28.7898 17.7536 28.5585 17.599C28.3272 17.4444 28.1469 17.2246 28.0405 16.9676C27.9341 16.7105 27.9063 16.4276 27.9607 16.1548C28.0151 15.8819 28.1491 15.6313 28.346 15.4346C28.5428 15.238 28.7935 15.1041 29.0664 15.05C29.3393 14.9959 29.6222 15.0239 29.8791 15.1306C30.1361 15.2372 30.3557 15.4177 30.5101 15.6491C30.6645 15.8806 30.7468 16.1526 30.7465 16.4309C30.7459 16.8036 30.5974 17.1608 30.3338 17.4242C30.0701 17.6877 29.7128 17.8358 29.3401 17.8361Z" fill="black"/>
</svg>
