<svg width="36" height="36" viewBox="0 0 36 36" fill="none" xmlns="http://www.w3.org/2000/svg">
<g clip-path="url(#clip0_248_78040)">
<path d="M27.9546 14.4541H10.0373C9.49715 14.4547 8.9793 14.6695 8.59738 15.0514C8.21547 15.4333 8.00065 15.9512 8.00006 16.4913V27.9637C8.00095 28.5036 8.21591 29.0212 8.59779 29.4028C8.97968 29.7845 9.49734 29.9992 10.0373 29.9998H27.9546C28.4946 29.9992 29.0122 29.7845 29.3941 29.4028C29.776 29.0212 29.9909 28.5036 29.9918 27.9637V16.4879C29.9903 15.9484 29.7751 15.4314 29.3933 15.0502C29.0115 14.669 28.4942 14.4547 27.9546 14.4541ZM28.4603 27.9637C28.4585 28.0973 28.4047 28.2249 28.3103 28.3194C28.2158 28.4138 28.0882 28.4676 27.9546 28.4694H10.0373C9.90378 28.4674 9.77632 28.4135 9.68193 28.3191C9.58753 28.2247 9.53359 28.0972 9.53157 27.9637V16.4879C9.53359 16.3544 9.58753 16.227 9.68193 16.1326C9.77632 16.0382 9.90378 15.9843 10.0373 15.9823H27.9546C28.0882 15.984 28.2158 16.0378 28.3103 16.1323C28.4047 16.2267 28.4585 16.3544 28.4603 16.4879V27.9637Z" fill="black"/>
<path d="M24.2985 8.54915C24.1944 8.44966 24.056 8.39413 23.912 8.39413C23.768 8.39413 23.6296 8.44966 23.5255 8.54915C22.2889 9.68286 20.6723 10.3118 18.9947 10.3118C17.3171 10.3118 15.7004 9.68286 14.4639 8.54915C14.3692 8.46095 14.2469 8.40828 14.1178 8.40012C13.9887 8.39196 13.8607 8.42882 13.7557 8.5044C13.7337 8.52011 13.7128 8.5373 13.6931 8.55587L13.3642 8.88141L13.3496 8.89596C13.2499 9.00327 13.1963 9.14542 13.2003 9.29185C13.2043 9.43828 13.2655 9.57731 13.3709 9.67906C14.9032 11.0892 16.9095 11.8718 18.9919 11.8718C21.0743 11.8718 23.0806 11.0892 24.6129 9.67906L24.6308 9.66228C24.7322 9.5567 24.7882 9.41554 24.7868 9.26913C24.7853 9.12271 24.7265 8.98271 24.623 8.87917L24.2985 8.54915Z" fill="black"/>
<path d="M22.6386 7.28311L22.6654 7.25962C22.7661 7.15331 22.8212 7.01174 22.8186 6.86532C22.8161 6.7189 22.7563 6.57931 22.652 6.47651L22.3265 6.15656C22.3145 6.1443 22.301 6.13376 22.2862 6.12524C22.1823 6.04074 22.0516 5.9963 21.9177 5.99999C21.7839 6.00369 21.6558 6.05527 21.5568 6.14537C20.8459 6.76739 19.9334 7.11024 18.9888 7.11024C18.0442 7.11024 17.1316 6.76739 16.4207 6.14537C16.3252 6.05979 16.2032 6.00964 16.0751 6.00333C15.9469 5.99701 15.8206 6.03492 15.7171 6.11069C15.6969 6.12561 15.6772 6.14202 15.6578 6.15992L15.3222 6.48546L15.3009 6.50672C15.2029 6.61576 15.1516 6.7589 15.1581 6.90536C15.1646 7.05182 15.2283 7.18987 15.3356 7.28982C16.3411 8.18616 17.6414 8.68092 18.9884 8.67969C20.3354 8.67845 21.6348 8.1813 22.6386 7.28311Z" fill="black"/>
<path d="M27.0909 26.8604V17.311H11.0071V26.8604H27.0909ZM12.6192 25.3065V18.8649H25.4845V25.3065H12.6192Z" fill="black"/>
</g>
<defs>
<clipPath id="clip0_248_78040">
<rect width="36" height="36" fill="white"/>
</clipPath>
</defs>
</svg>
