<svg width="36" height="36" viewBox="0 0 36 36" fill="none" xmlns="http://www.w3.org/2000/svg">
<path d="M18 9.62323C16.3427 9.62323 14.7227 10.1147 13.3447 11.0354C11.9667 11.9561 10.8927 13.2648 10.2585 14.7959C9.6243 16.327 9.45836 18.0118 9.78168 19.6373C10.105 21.2627 10.903 22.7558 12.0749 23.9276C13.2468 25.0995 14.7398 25.8975 16.3653 26.2209C17.9907 26.5442 19.6755 26.3782 21.2066 25.744C22.7377 25.1098 24.0464 24.0358 24.9671 22.6578C25.8879 21.2799 26.3793 19.6598 26.3793 18.0025C26.3793 15.7802 25.4965 13.6489 23.925 12.0775C22.3536 10.506 20.2223 9.62323 18 9.62323ZM18 11.2966C19.1263 11.3041 20.2321 11.5989 21.2127 12.1532L19.2451 14.8606C18.4467 14.5362 17.5532 14.5362 16.7549 14.8606L14.791 12.1556C15.7703 11.6013 16.8747 11.3057 18 11.2966ZM11.2965 18.0001C11.2982 17.0853 11.488 16.1807 11.8543 15.3424C12.2205 14.5042 12.7554 13.7503 13.4255 13.1276L15.4055 15.8587C14.9022 16.459 14.625 17.2167 14.6222 18.0001C14.6222 18.0721 14.6383 18.1391 14.6433 18.2111L11.4281 19.2551C11.3445 18.8419 11.3005 18.4216 11.2965 18.0001ZM17.162 24.6179C16.0468 24.4778 14.9849 24.0586 14.0746 23.3992C13.1644 22.7398 12.4351 21.8614 11.9545 20.8453L15.1498 19.8063C15.6112 20.5301 16.3306 21.0515 17.162 21.2649V24.6179ZM16.3278 18.0001C16.3278 17.6686 16.4261 17.3446 16.6103 17.069C16.7944 16.7934 17.0562 16.5786 17.3624 16.4518C17.6686 16.3249 18.0056 16.2917 18.3307 16.3564C18.6557 16.4211 18.9543 16.5807 19.1887 16.8151C19.4231 17.0494 19.5827 17.348 19.6474 17.6731C19.712 17.9982 19.6788 18.3352 19.552 18.6414C19.4252 18.9476 19.2104 19.2093 18.9348 19.3935C18.6592 19.5776 18.3352 19.6759 18.0037 19.6759C17.5592 19.6759 17.133 19.4994 16.8187 19.1851C16.5044 18.8708 16.3278 18.4445 16.3278 18.0001ZM18.8416 24.6191V21.2674C19.674 21.0551 20.394 20.5335 20.8552 19.8088L24.0517 20.8478C23.5706 21.864 22.841 22.7425 21.9303 23.4019C21.0196 24.0614 19.9573 24.4804 18.8416 24.6203V24.6191ZM21.3641 18.2123C21.3641 18.1403 21.3865 18.0733 21.3865 18.0013C21.3834 17.2156 21.1044 16.4559 20.5982 15.855L22.5844 13.1239C23.4155 13.889 24.0356 14.8553 24.385 15.9295C24.7344 17.0038 24.8013 18.15 24.5793 19.2576L21.3641 18.2123Z" fill="black"/>
<path d="M22.0468 2.1551C21.828 2.12572 21.6054 2.14155 21.3929 2.20163C21.1805 2.26172 20.9826 2.36476 20.8115 2.5044C20.6405 2.64403 20.4999 2.81729 20.3985 3.01344C20.2971 3.20959 20.237 3.42446 20.222 3.64476L20.1711 4.77441C19.4534 4.6558 18.7273 4.59519 17.9999 4.59317C15.3483 4.59317 12.7562 5.37947 10.5514 6.85264C8.34669 8.32581 6.6283 10.4197 5.61356 12.8695C4.59883 15.3193 4.33333 18.0149 4.85063 20.6156C5.36794 23.2163 6.64482 25.6052 8.51981 27.4802C10.3948 29.3552 12.7837 30.632 15.3844 31.1494C17.985 31.6667 20.6807 31.4012 23.1305 30.3864C25.5803 29.3717 27.6742 27.6533 29.1473 25.4485C30.6205 23.2438 31.4068 20.6517 31.4068 18.0001C31.4068 17.9566 31.4068 17.9144 31.4068 17.8759L32.6271 18.0001H32.6532H32.7674C33.1926 18.0001 33.6006 17.8323 33.9028 17.5331C34.205 17.234 34.3769 16.8276 34.3812 16.4024C34.4244 12.9298 33.1929 9.56188 30.9198 6.93625C28.6467 4.31063 25.4898 2.60956 22.0468 2.1551ZM29.4206 20.715C29.3998 20.7317 29.3752 20.7429 29.349 20.7477C29.3227 20.7524 29.2957 20.7506 29.2704 20.7423L28.8136 20.5933C28.7685 20.5789 28.7195 20.5829 28.6773 20.6045C28.6352 20.6262 28.6034 20.6637 28.5889 20.7088L28.1581 22.0308C28.1436 22.0759 28.1474 22.125 28.1688 22.1673C28.1902 22.2096 28.2274 22.2417 28.2723 22.2568L28.7316 22.4057C28.7563 22.4134 28.7788 22.4271 28.797 22.4455C28.8152 22.4639 28.8285 22.4864 28.8359 22.5112C28.6049 23.0639 28.3318 23.598 28.0191 24.1089C27.9947 24.118 27.9683 24.1208 27.9425 24.1171C27.9167 24.1134 27.8923 24.1033 27.8714 24.0878L27.4828 23.806C27.4446 23.7788 27.3972 23.7676 27.3509 23.7748C27.3045 23.7819 27.2627 23.807 27.2345 23.8445L26.4165 24.9704C26.3894 25.0088 26.3784 25.0562 26.3858 25.1026C26.3932 25.149 26.4185 25.1907 26.4562 25.2187L26.8398 25.498C26.8622 25.5135 26.8801 25.5346 26.8916 25.5593C26.9032 25.5839 26.908 25.6112 26.9056 25.6383C26.5174 26.0898 26.0958 26.5114 25.6443 26.8995C25.6176 26.901 25.5909 26.8956 25.5667 26.8839C25.5426 26.8721 25.5219 26.8545 25.5065 26.8325L25.2285 26.4501C25.2005 26.4124 25.1588 26.3872 25.1124 26.3797C25.066 26.3723 25.0186 26.3833 24.9802 26.4104L23.8543 27.2285C23.8166 27.2565 23.7913 27.2981 23.7839 27.3445C23.7764 27.3909 23.7875 27.4384 23.8145 27.4768L24.0963 27.8653C24.1115 27.8859 24.1214 27.9099 24.1253 27.9352C24.1292 27.9605 24.1269 27.9863 24.1187 28.0106C23.6075 28.3239 23.073 28.5974 22.5198 28.8286C22.4951 28.8214 22.4726 28.808 22.4543 28.7898C22.4361 28.7716 22.4228 28.7491 22.4155 28.7243L22.2665 28.2663C22.2518 28.2211 22.2197 28.1836 22.1774 28.162C22.135 28.1404 22.0859 28.1363 22.0406 28.1508L20.7185 28.5816C20.6736 28.5966 20.6363 28.6287 20.6147 28.671C20.5931 28.7132 20.5889 28.7622 20.6031 28.8075L20.7521 29.2631C20.7604 29.2884 20.7622 29.3154 20.7575 29.3417C20.7527 29.3679 20.7414 29.3925 20.7247 29.4133C20.1435 29.5515 19.5525 29.6449 18.957 29.6926C18.9345 29.6783 18.9161 29.6585 18.9035 29.635C18.8908 29.6115 18.8845 29.5852 18.885 29.5586V29.0794C18.885 29.032 18.8662 28.9865 18.8327 28.953C18.7991 28.9195 18.7537 28.9006 18.7063 28.9006H17.3085C17.2849 28.9005 17.2616 28.905 17.2399 28.9139C17.2181 28.9228 17.1983 28.936 17.1817 28.9526C17.1651 28.9692 17.1519 28.989 17.143 29.0108C17.1341 29.0325 17.1295 29.0559 17.1297 29.0794V29.5586C17.1302 29.5852 17.1239 29.6115 17.1113 29.635C17.0987 29.6585 17.0802 29.6783 17.0577 29.6926C16.4628 29.6474 15.8722 29.5565 15.2912 29.4208C15.2745 29.4 15.2633 29.3753 15.2585 29.3491C15.2538 29.3229 15.2556 29.2959 15.2639 29.2706L15.4129 28.815C15.427 28.7697 15.4229 28.7207 15.4013 28.6784C15.3797 28.6362 15.3424 28.6041 15.2974 28.589L13.9754 28.1583C13.9301 28.1441 13.8811 28.1483 13.8388 28.1699C13.7966 28.1915 13.7645 28.2287 13.7494 28.2737L13.5992 28.733C13.5917 28.7575 13.5782 28.7797 13.56 28.7976C13.5418 28.8156 13.5195 28.8288 13.495 28.8361C12.9414 28.6048 12.4064 28.3313 11.8948 28.018C11.8863 27.9936 11.8838 27.9675 11.8877 27.942C11.8916 27.9164 11.9017 27.8922 11.9172 27.8715L12.199 27.483C12.226 27.4446 12.237 27.3971 12.2296 27.3507C12.2222 27.3044 12.1969 27.2627 12.1592 27.2347L11.0333 26.4166C11.0144 26.4029 10.993 26.393 10.9703 26.3876C10.9475 26.3822 10.924 26.3813 10.9009 26.385C10.8779 26.3886 10.8557 26.3968 10.8359 26.4091C10.816 26.4214 10.7987 26.4374 10.785 26.4563L10.507 26.8387C10.4918 26.8611 10.4709 26.879 10.4464 26.8906C10.422 26.9021 10.3949 26.9069 10.3679 26.9045C9.91585 26.517 9.4942 26.0953 9.10668 25.6432C9.10486 25.6164 9.10995 25.5895 9.12147 25.5652C9.13299 25.5408 9.15054 25.5198 9.17247 25.5042L9.55854 25.2199C9.59632 25.1919 9.62155 25.1502 9.62875 25.1037C9.63596 25.0572 9.62456 25.0098 9.59702 24.9717L8.77895 23.8457C8.75094 23.808 8.70929 23.7828 8.6629 23.7753C8.61651 23.7679 8.56906 23.7789 8.53068 23.806L8.13716 24.0828C8.11668 24.0983 8.0927 24.1084 8.06735 24.1123C8.04201 24.1162 8.01609 24.1137 7.99192 24.1052C7.67966 23.5955 7.407 23.0626 7.17633 22.5112C7.18347 22.486 7.19672 22.463 7.21491 22.4442C7.23311 22.4253 7.25567 22.4113 7.28061 22.4032L7.73992 22.2543C7.76223 22.2471 7.78289 22.2356 7.80072 22.2204C7.81856 22.2052 7.8332 22.1866 7.84382 22.1657C7.85444 22.1448 7.86082 22.122 7.86258 22.0987C7.86435 22.0753 7.86148 22.0518 7.85413 22.0296L7.42337 20.71C7.41619 20.6877 7.40468 20.667 7.38948 20.6492C7.37428 20.6314 7.3557 20.6167 7.33481 20.6061C7.31392 20.5955 7.29114 20.5891 7.26777 20.5873C7.24441 20.5856 7.22093 20.5884 7.19868 20.5958L6.74185 20.7435C6.71634 20.7526 6.68887 20.7548 6.66226 20.7498C6.63565 20.7447 6.61085 20.7327 6.5904 20.715C6.45224 20.1346 6.35886 19.5444 6.31109 18.9497C6.32513 18.9269 6.34489 18.9081 6.3684 18.8953C6.39191 18.8825 6.41837 18.876 6.44516 18.8765H6.92433C6.94785 18.8766 6.97117 18.8721 6.99294 18.8632C7.0147 18.8543 7.03447 18.8411 7.0511 18.8245C7.06773 18.8079 7.0809 18.7881 7.08982 18.7663C7.09875 18.7446 7.10326 18.7212 7.10309 18.6977V17.3061C7.10212 17.2594 7.08286 17.2149 7.04944 17.1821C7.01602 17.1494 6.9711 17.1311 6.92433 17.1311H6.44516C6.41851 17.1316 6.39218 17.1253 6.36869 17.1127C6.34521 17.1001 6.32537 17.0816 6.31109 17.0591C6.35886 16.4644 6.45224 15.8743 6.5904 15.2939C6.61114 15.2771 6.63589 15.2659 6.66222 15.2616C6.68856 15.2572 6.71557 15.2598 6.74061 15.269L7.19992 15.4106C7.24503 15.4251 7.29406 15.4213 7.33635 15.3999C7.37865 15.3785 7.41081 15.3413 7.42585 15.2963L7.85537 13.9743C7.86991 13.9292 7.86608 13.8801 7.84469 13.8378C7.82331 13.7955 7.78611 13.7634 7.74116 13.7483L7.28433 13.5981C7.25912 13.5906 7.23628 13.5768 7.21801 13.5578C7.19974 13.5389 7.18667 13.5156 7.18006 13.4901C7.41096 12.938 7.68361 12.4044 7.99564 11.8937C8.02027 11.8845 8.04679 11.8817 8.07281 11.8854C8.09882 11.889 8.1235 11.8992 8.14461 11.9148L8.5344 12.1966C8.5533 12.2103 8.57472 12.2202 8.59744 12.2256C8.62015 12.2311 8.64372 12.232 8.66679 12.2283C8.68985 12.2246 8.71196 12.2164 8.73185 12.2041C8.75173 12.1919 8.76901 12.1758 8.78268 12.1569L9.60199 11.031C9.62908 10.9926 9.64008 10.9451 9.63266 10.8987C9.62524 10.8524 9.59997 10.8107 9.56226 10.7827L9.17371 10.5034C9.15157 10.4882 9.13375 10.4675 9.122 10.4433C9.11025 10.4192 9.10497 10.3924 9.10668 10.3656C9.49484 9.91411 9.91645 9.49251 10.3679 9.10434C10.3946 9.10238 10.4214 9.10741 10.4455 9.11895C10.4697 9.13049 10.4905 9.14813 10.5057 9.17014L10.7838 9.55869C10.8116 9.59667 10.8533 9.62214 10.8998 9.62958C10.9462 9.63702 10.9938 9.62582 11.0321 9.59841L12.1654 8.77414C12.2034 8.74632 12.2289 8.70465 12.2363 8.65816C12.2438 8.61168 12.2326 8.56414 12.2052 8.52586L11.9172 8.13607C11.9015 8.1157 11.8912 8.09177 11.8871 8.06642C11.8829 8.04107 11.8852 8.0151 11.8936 7.99083C12.4041 7.67815 12.9378 7.40508 13.49 7.174C13.515 7.18121 13.5379 7.19451 13.5565 7.21271C13.5751 7.2309 13.5889 7.25343 13.5967 7.27828L13.747 7.73883C13.7541 7.76113 13.7656 7.7818 13.7808 7.79963C13.796 7.81746 13.8146 7.83211 13.8355 7.84273C13.8564 7.85335 13.8792 7.85972 13.9025 7.86149C13.9259 7.86326 13.9494 7.86039 13.9716 7.85303L15.295 7.42228C15.3399 7.40724 15.3771 7.37508 15.3985 7.33278C15.4199 7.29048 15.4237 7.24145 15.4092 7.19634L15.2689 6.74076C15.2598 6.71504 15.2577 6.68739 15.2627 6.66058C15.2677 6.63378 15.2797 6.60877 15.2974 6.58807C15.8779 6.45032 16.468 6.35735 17.0627 6.31C17.0853 6.32422 17.104 6.34401 17.1168 6.36748C17.1296 6.39096 17.1362 6.41732 17.1359 6.44407V6.92324C17.1359 6.97065 17.1548 7.01612 17.1883 7.04964C17.2218 7.08317 17.2673 7.102 17.3147 7.102H18.7063C18.7536 7.10167 18.7989 7.08274 18.8323 7.04928C18.8658 7.01583 18.8847 6.97055 18.885 6.92324V6.44407C18.8845 6.41742 18.8908 6.39108 18.9035 6.3676C18.9161 6.34412 18.9345 6.32428 18.957 6.31C19.3443 6.34103 19.7254 6.39317 20.1016 6.46021L20.0879 6.77055C20.064 7.17021 20.1887 7.5646 20.438 7.87787C20.6874 8.19113 21.0437 8.40115 21.4385 8.46752C24.9144 9.01 28.0042 12.574 28.0427 16.0983C28.0467 16.3883 28.1289 16.6719 28.2805 16.9192C28.4321 17.1665 28.6476 17.3683 28.9042 17.5035V18.7039C28.9042 18.7513 28.923 18.7968 28.9565 18.8303C28.9901 18.8639 29.0355 18.8827 29.083 18.8827H29.5621C29.5888 18.8822 29.6151 18.8885 29.6386 18.9011C29.6621 18.9137 29.6819 18.9322 29.6962 18.9547C29.6494 19.5476 29.5573 20.1361 29.4206 20.715ZM29.7806 15.9605C29.6701 11.6591 26.0639 7.49303 21.8234 6.77428L21.9475 3.90172C24.921 4.32418 27.6415 5.80704 29.608 8.07709C31.5744 10.3471 32.6541 13.2514 32.6482 16.2547L29.7806 15.9605Z" fill="black"/>
</svg>
