<svg width="36" height="36" viewBox="0 0 36 36" fill="none" xmlns="http://www.w3.org/2000/svg">
<path d="M29.3654 25.8577H7.97394V8.90055C7.97394 8.63986 7.76312 8.42883 7.5027 8.42883H6.74626C6.48585 8.42883 6.27502 8.63986 6.27502 8.90055V26.7019C6.27502 27.1736 6.65944 27.5584 7.13067 27.5584H29.3778C29.6383 27.5584 29.8491 27.3474 29.8491 27.0867V26.3295C29.8367 26.0688 29.6258 25.8577 29.3654 25.8577Z" fill="black"/>
<path d="M11.4585 14.1514C11.1982 14.1514 10.9874 14.3624 10.9874 14.6231V22.7045C10.9874 22.9651 11.1982 23.1762 11.4585 23.1762H12.2149C12.4753 23.1762 12.6861 22.9651 12.6861 22.7045V14.6231C12.6861 14.3624 12.4753 14.1514 12.2149 14.1514H11.4585Z" fill="black"/>
<path d="M16.022 17.1931C15.7616 17.1931 15.5508 17.4042 15.5508 17.6648V22.7172C15.5508 22.9779 15.7616 23.189 16.022 23.189H16.7783C17.0387 23.189 17.2495 22.9779 17.2495 22.7172V17.6648C17.2495 17.4042 17.0387 17.1931 16.7783 17.1931H16.022Z" fill="black"/>
<path d="M25.1242 19.0677C24.8638 19.0677 24.653 19.2788 24.653 19.5395V22.7174C24.653 22.9781 24.8638 23.1891 25.1242 23.1891H25.8807C26.1411 23.1891 26.3519 22.9781 26.3519 22.7174V19.5395C26.3519 19.2788 26.1411 19.0677 25.8807 19.0677H25.1242Z" fill="black"/>
<path d="M20.5732 15.9393C20.3128 15.9393 20.102 16.1504 20.102 16.411V22.7048C20.102 22.9655 20.3128 23.1765 20.5732 23.1765H21.3295C21.5899 23.1765 21.8007 22.9655 21.8007 22.7048V16.411C21.8007 16.1504 21.5899 15.9393 21.3295 15.9393H20.5732Z" fill="black"/>
<path d="M15.6994 14.8716C15.9226 15.1075 16.2575 15.1819 16.5675 15.0826L20.9202 13.2206L25.0622 15.9764L24.0081 15.964C23.6236 15.964 23.3012 16.2743 23.3012 16.6592V16.9944C23.3012 17.3792 23.6112 17.6895 23.9957 17.6895L27.2819 17.7019C27.6663 17.7019 27.9888 17.3916 27.9888 17.0068L27.9764 13.7171C27.9764 13.3323 27.6663 13.0219 27.2819 13.0219H26.9471C26.5627 13.0219 26.2527 13.3323 26.2527 13.7171L26.265 14.7971L21.6271 11.6068C21.4039 11.433 21.1062 11.3709 20.8334 11.4702L16.5427 13.3074L12.3512 10.1916C12.0907 9.93089 11.6567 9.91848 11.3963 10.1792L11.1607 10.415C10.8878 10.6757 10.8878 11.1102 11.1483 11.3709L15.6994 14.8716Z" fill="black"/>
</svg>
