<svg width="36" height="36" viewBox="0 0 36 36" fill="none" xmlns="http://www.w3.org/2000/svg">
<path d="M27.2818 13.2842H8.90387C8.66448 13.2842 8.43487 13.3791 8.2654 13.5482C8.09593 13.7173 8.00044 13.9467 7.99988 14.1861V25.4726C8.00016 25.7123 8.09549 25.9421 8.26496 26.1115C8.43443 26.281 8.6642 26.3763 8.90387 26.3766H17.4029V28.6126H11.4572C11.3555 28.6126 11.258 28.653 11.1861 28.7249C11.1143 28.7968 11.0739 28.8943 11.0739 28.9959V29.6156C11.0739 29.7174 11.1142 29.815 11.1861 29.8871C11.2579 29.9591 11.3554 29.9997 11.4572 30H24.7285C24.8303 29.9997 24.9277 29.9591 24.9996 29.8871C25.0714 29.815 25.1118 29.7174 25.1118 29.6156V28.9959C25.1118 28.9456 25.1019 28.8958 25.0826 28.8493C25.0634 28.8028 25.0351 28.7605 24.9995 28.7249C24.9639 28.6893 24.9217 28.6611 24.8752 28.6418C24.8287 28.6225 24.7788 28.6126 24.7285 28.6126H18.7828V26.3766H27.2818C27.5215 26.3763 27.7512 26.281 27.9207 26.1115C28.0902 25.9421 28.1855 25.7123 28.1858 25.4726V14.1861C28.1852 13.9467 28.0897 13.7173 27.9203 13.5482C27.7508 13.3791 27.5212 13.2842 27.2818 13.2842ZM26.8048 24.9967H9.37875V14.662H26.8037L26.8048 24.9967Z" fill="black"/>
<path d="M12.9265 9.16269C13.0255 9.25739 13.1573 9.31024 13.2943 9.31024C13.4314 9.31024 13.5632 9.25739 13.6622 9.16269C14.8391 8.08366 16.3778 7.48505 17.9745 7.48505C19.5712 7.48505 21.1099 8.08366 22.2869 9.16269C22.3769 9.24664 22.4934 9.29677 22.6162 9.30453C22.7391 9.3123 22.8609 9.27722 22.9609 9.20528C22.9818 9.19033 23.0018 9.17397 23.0205 9.1563L23.3335 8.84645L23.3474 8.83261C23.4423 8.73047 23.4933 8.59518 23.4895 8.45581C23.4857 8.31644 23.4274 8.18412 23.3271 8.08727C21.8687 6.74517 19.9592 6.00024 17.9772 6.00024C15.9952 6.00024 14.0857 6.74517 12.6273 8.08727L12.6102 8.10324C12.5137 8.20373 12.4604 8.33808 12.4618 8.47744C12.4632 8.61679 12.5191 8.75004 12.6177 8.84858L12.9265 9.16269Z" fill="black"/>
<path d="M14.5066 10.3668L14.4811 10.3892C14.3852 10.4904 14.3328 10.6251 14.3352 10.7645C14.3376 10.9038 14.3946 11.0367 14.4938 11.1345L14.8037 11.4391C14.815 11.4507 14.8279 11.4608 14.842 11.4689C14.9409 11.5493 15.0653 11.5916 15.1927 11.5881C15.3201 11.5846 15.442 11.5355 15.5362 11.4497C16.2129 10.8577 17.0814 10.5314 17.9804 10.5314C18.8795 10.5314 19.748 10.8577 20.4246 11.4497C20.5155 11.5312 20.6317 11.5789 20.7536 11.5849C20.8756 11.5909 20.9958 11.5548 21.0943 11.4827C21.1135 11.4685 21.1323 11.4529 21.1508 11.4359L21.4702 11.126L21.4904 11.1058C21.5837 11.002 21.6325 10.8658 21.6263 10.7264C21.6202 10.587 21.5595 10.4556 21.4574 10.3604C20.5004 9.50732 19.2628 9.03642 17.9808 9.0376C16.6988 9.03878 15.462 9.51195 14.5066 10.3668Z" fill="black"/>
</svg>
