<svg width="36" height="36" viewBox="0 0 36 36" fill="none" xmlns="http://www.w3.org/2000/svg">
<path d="M13.6377 19.5606C14.1287 19.5606 14.6087 19.415 15.017 19.1422C15.4253 18.8694 15.7435 18.4816 15.9314 18.028C16.1193 17.5743 16.1685 17.0751 16.0727 16.5935C15.9769 16.1119 15.7405 15.6695 15.3932 15.3223C15.046 14.9751 14.6036 14.7386 14.122 14.6428C13.6404 14.547 13.1412 14.5962 12.6876 14.7841C12.2339 14.972 11.8461 15.2902 11.5733 15.6985C11.3005 16.1068 11.1549 16.5868 11.1549 17.0779C11.1549 17.7363 11.4165 18.3678 11.8821 18.8334C12.3477 19.299 12.9792 19.5606 13.6377 19.5606ZM13.4527 16.8482C13.4751 16.8252 13.5011 16.8059 13.5297 16.7911L14.7065 15.9296C14.7698 15.8824 14.8604 15.9743 14.8145 16.0363L13.9455 17.2132C13.9303 17.2414 13.9111 17.2674 13.8884 17.2901C13.829 17.3443 13.7509 17.3735 13.6704 17.3717C13.59 17.3698 13.5134 17.337 13.4565 17.2801C13.3996 17.2232 13.3668 17.1466 13.3649 17.0662C13.3631 16.9857 13.3923 16.9077 13.4465 16.8482H13.4527Z" fill="black"/>
<path d="M29.1376 7.69653H6.86228C6.20441 7.6985 5.57405 7.9607 5.10887 8.42589C4.64369 8.89107 4.38148 9.52143 4.37952 10.1793V25.8207C4.38148 26.4785 4.64369 27.1089 5.10887 27.5741C5.57405 28.0393 6.20441 28.3015 6.86228 28.3034H29.1376C29.7955 28.3015 30.4258 28.0393 30.891 27.5741C31.3562 27.1089 31.6184 26.4785 31.6203 25.8207V10.1855C31.62 9.52656 31.3585 8.89461 30.8932 8.42809C30.4278 7.96156 29.7965 7.6985 29.1376 7.69653ZM29.9656 25.8207C29.9653 26.0402 29.8779 26.2506 29.7227 26.4058C29.5675 26.561 29.3571 26.6483 29.1376 26.6487H6.86228C6.64278 26.6483 6.43236 26.561 6.27715 26.4058C6.12194 26.2506 6.0346 26.0402 6.03428 25.8207V10.1855C6.0346 9.966 6.12194 9.75559 6.27715 9.60038C6.43236 9.44517 6.64278 9.35783 6.86228 9.3575H29.1376C29.3571 9.35783 29.5675 9.44517 29.7227 9.60038C29.8779 9.75559 29.9653 9.966 29.9656 10.1855V25.8207Z" fill="black"/>
<path d="M27.6827 11.0133H8.31722C8.15261 11.0133 7.99473 11.0787 7.87833 11.1951C7.76193 11.3115 7.69653 11.4694 7.69653 11.634V22.5581C7.69653 22.7228 7.76193 22.8806 7.87833 22.997C7.99473 23.1134 8.15261 23.1788 8.31722 23.1788H27.6827C27.8474 23.1788 28.0052 23.1134 28.1216 22.997C28.238 22.8806 28.3034 22.7228 28.3034 22.5581V11.634C28.3034 11.4694 28.238 11.3115 28.1216 11.1951C28.0052 11.0787 27.8474 11.0133 27.6827 11.0133ZM26.6462 21.5191H9.35005V12.6718H26.6499L26.6462 21.5191Z" fill="black"/>
<path d="M19.4897 24.0901H16.5104C16.2964 24.0901 16.0911 24.1751 15.9398 24.3264C15.7885 24.4778 15.7035 24.683 15.7035 24.897C15.7035 25.111 15.7885 25.3162 15.9398 25.4676C16.0911 25.6189 16.2964 25.7039 16.5104 25.7039H19.4897C19.7037 25.7039 19.9089 25.6189 20.0603 25.4676C20.2116 25.3162 20.2966 25.111 20.2966 24.897C20.2966 24.683 20.2116 24.4778 20.0603 24.3264C19.9089 24.1751 19.7037 24.0901 19.4897 24.0901Z" fill="black"/>
<path d="M19.7801 17.3671H18.1788C18.08 17.3671 18 17.4471 18 17.5458V19.6574C18 19.7561 18.08 19.8362 18.1788 19.8362H19.7801C19.8789 19.8362 19.9589 19.7561 19.9589 19.6574V17.5458C19.9589 17.4471 19.8789 17.3671 19.7801 17.3671Z" fill="black"/>
<path d="M22.3049 14.5568H20.7035C20.6048 14.5568 20.5248 14.6368 20.5248 14.7355V19.6588C20.5248 19.7576 20.6048 19.8376 20.7035 19.8376H22.3049C22.4036 19.8376 22.4837 19.7576 22.4837 19.6588V14.7355C22.4837 14.6368 22.4036 14.5568 22.3049 14.5568Z" fill="black"/>
<path d="M24.8314 15.7744H23.23C23.1313 15.7744 23.0513 15.8544 23.0513 15.9532V19.6575C23.0513 19.7562 23.1313 19.8362 23.23 19.8362H24.8314C24.9302 19.8362 25.0102 19.7562 25.0102 19.6575V15.9532C25.0102 15.8544 24.9302 15.7744 24.8314 15.7744Z" fill="black"/>
</svg>
