<svg width="36" height="36" viewBox="0 0 36 36" fill="none" xmlns="http://www.w3.org/2000/svg">
<path d="M11.1067 21.2052H12.7043C12.9054 21.2041 13.106 21.2244 13.3027 21.2661C13.4797 21.3023 13.6482 21.3718 13.7992 21.4709C13.943 21.568 14.0593 21.7005 14.1369 21.8557C14.2263 22.0439 14.2689 22.2509 14.261 22.459C14.2693 22.7255 14.1895 22.9873 14.0338 23.2039C13.8704 23.4126 13.6323 23.5496 13.3697 23.5862L14.4199 25.3303H13.3287L12.4598 23.6793H12.0166V25.3303H11.1067V21.2052ZM12.0166 22.9146H12.5529C12.6348 22.9146 12.7217 22.9146 12.8123 22.9059C12.8974 22.9015 12.9812 22.8834 13.0606 22.8526C13.1415 22.824 13.2107 22.7694 13.2572 22.6972C13.3037 22.6251 13.3249 22.5396 13.3176 22.4541C13.3214 22.3667 13.299 22.2802 13.253 22.2058C13.2119 22.1451 13.1559 22.0959 13.0904 22.063C13.0181 22.0292 12.9411 22.0065 12.862 21.996C12.7797 21.9849 12.6967 21.9791 12.6137 21.9786H12.0166V22.9146Z" fill="black"/>
<path d="M14.9797 21.2051H17.7517V22.0455H15.8896V22.8847H17.6101V23.7251H15.8896V25.3389H14.9784L14.9797 21.2051Z" fill="black"/>
<path d="M18.4519 21.2051H19.3655V25.3351H18.4556L18.4519 21.2051Z" fill="black"/>
<path d="M20.2481 21.2051H21.6137C21.931 21.2038 22.2474 21.2409 22.5559 21.3156C22.8379 21.3819 23.1038 21.5038 23.3379 21.6744C23.5628 21.8439 23.7437 22.0648 23.8655 22.3186C24.0034 22.6206 24.0701 22.9501 24.0604 23.2819C24.0665 23.5872 24.002 23.8897 23.8717 24.1658C23.7502 24.4142 23.5761 24.6332 23.3615 24.8076C23.1398 24.9839 22.8872 25.1173 22.6167 25.2011C22.3316 25.2912 22.0343 25.3364 21.7353 25.3352H20.2457L20.2481 21.2051ZM21.1593 24.496H21.631C21.8286 24.4971 22.0256 24.4754 22.2182 24.4315C22.3876 24.3931 22.5473 24.3204 22.6874 24.2179C22.8219 24.1153 22.929 23.9809 22.999 23.8269C23.08 23.6403 23.119 23.4381 23.1132 23.2348C23.1174 23.0524 23.0782 22.8716 22.999 22.7072C22.9275 22.561 22.823 22.4335 22.6937 22.3348C22.558 22.2333 22.4042 22.1587 22.2406 22.115C22.063 22.0662 21.8797 22.042 21.6956 22.043H21.1593V24.496Z" fill="black"/>
<path d="M26.6264 26.4054C26.6257 26.7887 26.4731 27.1562 26.202 27.4273C25.931 27.6983 25.5635 27.8509 25.1801 27.8516H9.76221C9.37907 27.8506 9.01192 27.6979 8.74112 27.4268C8.47031 27.1558 8.3179 26.7885 8.31725 26.4054V10.9949C8.3179 10.6117 8.47031 10.2445 8.74112 9.97343C9.01192 9.70239 9.37907 9.54966 9.76221 9.54868H18.1912V7.82068H9.76221C8.91936 7.82002 8.11071 8.15396 7.51391 8.74913C6.9171 9.3443 6.58096 10.152 6.57932 10.9949V26.4054C6.57997 27.248 6.915 28.0559 7.51084 28.6518C8.10667 29.2476 8.91461 29.5826 9.75725 29.5833H25.1752C26.0178 29.5826 26.8258 29.2476 27.4216 28.6518C28.0174 28.0559 28.3525 27.248 28.3531 26.4054V16.0672H26.6264V26.4054Z" fill="black"/>
<path d="M31.4876 12.1655C31.1418 9.82611 29.9302 7.7019 28.0926 6.2135C26.2549 4.72511 23.9254 3.98109 21.5652 4.12878H21.5367C21.4529 4.13796 21.3718 4.16382 21.2981 4.20483C21.2245 4.24585 21.1598 4.30118 21.1078 4.36758C21.0559 4.43398 21.0177 4.51011 20.9957 4.59147C20.9736 4.67283 20.968 4.75779 20.9793 4.84133L21.0376 5.35899C21.0576 5.52242 21.1405 5.67165 21.2686 5.77501C21.3968 5.87837 21.5602 5.92774 21.7241 5.91265C23.6245 5.79795 25.4989 6.39903 26.9781 7.59748C28.4573 8.79594 29.4341 10.5049 29.7161 12.3877C29.7361 12.5333 29.8061 12.6675 29.9141 12.7671C30.0222 12.8668 30.1615 12.9257 30.3083 12.9339C30.3393 12.9357 30.3704 12.9357 30.4014 12.9339L30.9252 12.8817H30.9476C31.0303 12.8706 31.1099 12.8432 31.182 12.8011C31.254 12.759 31.3169 12.703 31.3672 12.6364C31.4174 12.5697 31.4539 12.4938 31.4746 12.413C31.4952 12.3322 31.4997 12.248 31.4876 12.1655Z" fill="black"/>
<path d="M21.08 8.93805C21.1121 9.08639 21.1959 9.21849 21.3164 9.3108C21.4369 9.4031 21.5863 9.44962 21.7379 9.44205C22.8101 9.39967 23.8612 9.74795 24.6959 10.4222C25.5306 11.0964 26.0922 12.0507 26.2764 13.1078C26.3002 13.2513 26.3722 13.3824 26.4805 13.4795C26.5888 13.5765 26.727 13.6337 26.8722 13.6416C26.902 13.6435 26.9318 13.6435 26.9616 13.6416L27.4842 13.5895H27.519C27.6843 13.5644 27.8329 13.4747 27.9323 13.3403C28.0316 13.2058 28.0736 13.0374 28.049 12.872C27.8013 11.3627 27.0073 9.99724 25.8182 9.0354C24.6291 8.07356 23.1278 7.58251 21.6001 7.65571H21.5604C21.3937 7.6762 21.242 7.76193 21.1385 7.8941C21.0349 8.02627 20.988 8.1941 21.008 8.36081L21.0675 8.87598C21.0702 8.89694 21.0744 8.91768 21.08 8.93805Z" fill="black"/>
<path d="M21.6372 16.8195C22.1773 16.8195 22.7053 16.6593 23.1545 16.3592C23.6036 16.0591 23.9536 15.6326 24.1603 15.1336C24.367 14.6345 24.4211 14.0854 24.3157 13.5557C24.2104 13.0259 23.9502 12.5393 23.5683 12.1573C23.1864 11.7754 22.6997 11.5153 22.17 11.4099C21.6402 11.3045 21.0911 11.3586 20.5921 11.5653C20.093 11.772 19.6665 12.1221 19.3664 12.5712C19.0663 13.0203 18.9062 13.5483 18.9062 14.0885C18.9062 14.8128 19.1939 15.5074 19.7061 16.0196C20.2182 16.5318 20.9129 16.8195 21.6372 16.8195ZM21.6372 13.0891C21.8336 13.0891 22.0256 13.1474 22.1889 13.2565C22.3522 13.3656 22.4795 13.5207 22.5547 13.7022C22.6299 13.8837 22.6495 14.0833 22.6112 14.276C22.5729 14.4686 22.4783 14.6456 22.3394 14.7845C22.2005 14.9234 22.0236 15.0179 21.8309 15.0563C21.6383 15.0946 21.4386 15.0749 21.2571 14.9998C21.0757 14.9246 20.9206 14.7973 20.8114 14.634C20.7023 14.4707 20.6441 14.2787 20.6441 14.0822C20.6441 13.9518 20.6698 13.8227 20.7197 13.7022C20.7696 13.5817 20.8427 13.4722 20.935 13.38C21.0272 13.2878 21.1367 13.2146 21.2571 13.1647C21.3776 13.1148 21.5068 13.0891 21.6372 13.0891Z" fill="black"/>
</svg>
