<svg width="36" height="36" viewBox="0 0 36 36" fill="none" xmlns="http://www.w3.org/2000/svg">
<path d="M20.6987 14.5405H20.3511C20.2558 14.5405 20.1786 14.6178 20.1786 14.7131V21.2924C20.1786 21.3877 20.2558 21.465 20.3511 21.465H20.6987C20.794 21.465 20.8713 21.3877 20.8713 21.2924V14.7131C20.8713 14.6178 20.794 14.5405 20.6987 14.5405Z" fill="black"/>
<path d="M19.3135 14.5405H18.9659C18.8707 14.5405 18.7934 14.6178 18.7934 14.7131V21.2924C18.7934 21.3877 18.8707 21.465 18.9659 21.465H19.3135C19.4088 21.465 19.4861 21.3877 19.4861 21.2924V14.7131C19.4861 14.6178 19.4088 14.5405 19.3135 14.5405Z" fill="black"/>
<path d="M17.9294 14.5405H16.8891C16.7938 14.5405 16.7166 14.6178 16.7166 14.7131V21.2924C16.7166 21.3877 16.7938 21.465 16.8891 21.465H17.9294C18.0247 21.465 18.1019 21.3877 18.1019 21.2924V14.7131C18.1019 14.6178 18.0247 14.5405 17.9294 14.5405Z" fill="black"/>
<path d="M23.4682 14.5405H22.4279C22.3326 14.5405 22.2554 14.6178 22.2554 14.7131V21.2924C22.2554 21.3877 22.3326 21.465 22.4279 21.465H23.4682C23.5635 21.465 23.6408 21.3877 23.6408 21.2924V14.7131C23.6408 14.6178 23.5635 14.5405 23.4682 14.5405Z" fill="black"/>
<path d="M26.2377 14.5405H25.1974C25.1021 14.5405 25.0248 14.6178 25.0248 14.7131V21.2924C25.0248 21.3877 25.1021 21.465 25.1974 21.465H26.2377C26.333 21.465 26.4102 21.3877 26.4102 21.2924V14.7131C26.4102 14.6178 26.333 14.5405 26.2377 14.5405Z" fill="black"/>
<path d="M27.7088 8.14319H8.29116C7.51645 8.14417 6.77375 8.45236 6.22594 9.00017C5.67813 9.54798 5.36994 10.2907 5.36896 11.0654V24.9341C5.36994 25.7088 5.67813 26.4515 6.22594 26.9993C6.77375 27.5471 7.51645 27.8553 8.29116 27.8563H27.7088C28.4835 27.8553 29.2262 27.5471 29.774 26.9993C30.3219 26.4515 30.63 25.7088 30.631 24.9341V11.0654C30.63 10.2907 30.3219 9.54798 29.774 9.00017C29.2262 8.45236 28.4835 8.14417 27.7088 8.14319ZM28.9502 24.9341C28.9502 25.2633 28.8194 25.5791 28.5866 25.8119C28.3538 26.0447 28.0381 26.1755 27.7088 26.1755H8.29116C7.96193 26.1755 7.64618 26.0447 7.41338 25.8119C7.18057 25.5791 7.04979 25.2633 7.04979 24.9341V11.0654C7.04979 10.7362 7.18057 10.4204 7.41338 10.1876C7.64618 9.9548 7.96193 9.82402 8.29116 9.82402H27.7088C28.0381 9.82402 28.3538 9.9548 28.5866 10.1876C28.8194 10.4204 28.9502 10.7362 28.9502 11.0654V24.9341Z" fill="black"/>
<path d="M12.8111 17.2873C12.7465 17.2674 12.687 17.2475 12.6112 17.2289C11.7745 16.9968 11.5747 16.8714 11.5747 16.5586C11.5747 16.3314 11.715 16.0893 12.142 16.0893C12.5901 16.0893 12.7428 16.3028 12.8111 16.5052C12.8226 16.5369 12.8321 16.5692 12.8396 16.602C12.8396 16.6206 12.8595 16.6566 12.8968 16.6566H14.3343C14.3542 16.6547 14.3725 16.6451 14.3853 16.6297C14.3981 16.6144 14.4043 16.5946 14.4025 16.5747C14.3144 15.8113 13.8241 15.2228 12.8111 15.0453V14.2335C12.8111 14.0361 12.7776 14.0026 12.5802 14.0026H11.7845C11.5871 14.0026 11.5536 14.0361 11.5536 14.2335V15.0404C10.5754 15.2204 9.93979 15.8597 9.93979 16.7671C9.93979 17.5405 10.2737 18.1177 11.5536 18.546C11.6777 18.587 11.8143 18.6279 11.9595 18.6701C12.4561 18.8042 12.7043 18.9184 12.8111 19.091C12.8627 19.1756 12.8878 19.2738 12.8831 19.3728C12.8853 19.4668 12.8603 19.5595 12.8111 19.6397C12.7242 19.7775 12.5467 19.8743 12.2289 19.8743C12.1014 19.8818 11.9739 19.8593 11.8566 19.8086C11.7393 19.758 11.6356 19.6805 11.5536 19.5826C11.4883 19.4989 11.4402 19.4031 11.4121 19.3008C11.4077 19.2854 11.3987 19.2718 11.3862 19.2617C11.3738 19.2517 11.3585 19.2459 11.3425 19.2449C11.3053 19.2449 9.91372 19.2449 9.85289 19.2449C9.79206 19.2449 9.81317 19.2747 9.81441 19.2896C9.89137 20.1126 10.4587 20.7544 11.5523 20.9332V21.7736C11.5523 21.971 11.5859 22.0045 11.7832 22.0045H12.579C12.7763 22.0045 12.8099 21.971 12.8099 21.7736V20.9406C13.8613 20.7842 14.5478 20.2033 14.5478 19.1617C14.5552 18.3052 14.1841 17.7006 12.8111 17.2873Z" fill="black"/>
</svg>
