<svg width="36" height="36" viewBox="0 0 36 36" fill="none" xmlns="http://www.w3.org/2000/svg">
<path d="M24.3857 3.66605C22.6457 2.06364 20.3667 1.17413 18.0013 1.17413C15.6358 1.17413 13.3569 2.06364 11.6169 3.66605L11.597 3.68591C11.539 3.74524 11.4932 3.81542 11.4622 3.89246C11.4313 3.96949 11.4159 4.05186 11.4168 4.13487C11.4177 4.21787 11.435 4.29988 11.4676 4.3762C11.5002 4.45253 11.5476 4.52168 11.6069 4.5797L11.9794 4.95212C12.0974 5.06524 12.2547 5.1284 12.4182 5.1284C12.5817 5.1284 12.7389 5.06524 12.857 4.95212C14.2611 3.66612 16.096 2.9528 18 2.9528C19.9041 2.9528 21.739 3.66612 23.1431 4.95212C23.2504 5.05272 23.3894 5.11283 23.5361 5.12212C23.6829 5.1314 23.8284 5.08929 23.9475 5.00301C23.9728 4.98526 23.9965 4.96532 24.0183 4.94343L24.3907 4.57101L24.4068 4.55488C24.5218 4.43296 24.5838 4.2704 24.5792 4.10285C24.5745 3.9353 24.5036 3.77643 24.382 3.66108L24.3857 3.66605Z" fill="black"/>
<path d="M14.2622 7.69661C14.3804 7.79176 14.5286 7.84175 14.6803 7.83766C14.832 7.83357 14.9773 7.77565 15.0902 7.67426C15.897 6.96685 16.9332 6.57631 18.0062 6.57517C19.0793 6.57403 20.1163 6.96237 20.9247 7.66805C21.0334 7.76438 21.1717 7.82079 21.3168 7.82801C21.4619 7.83524 21.6051 7.79283 21.7229 7.70778C21.747 7.69048 21.7698 7.67139 21.7911 7.65067L22.1636 7.27826C22.1723 7.2709 22.1802 7.26257 22.1871 7.25343C22.2997 7.12987 22.3588 6.96682 22.3516 6.79985C22.3444 6.63288 22.2714 6.47553 22.1487 6.36212C21.0059 5.3477 19.5304 4.78827 18.0024 4.7901C16.4744 4.79194 15.0003 5.35489 13.86 6.37205L13.8314 6.39936C13.7734 6.45896 13.7277 6.52942 13.697 6.6067C13.6663 6.68398 13.6511 6.76656 13.6524 6.84972C13.6537 6.93287 13.6714 7.01495 13.7044 7.09126C13.7375 7.16757 13.7853 7.2366 13.8451 7.2944L14.2175 7.65688C14.2311 7.67148 14.2461 7.68478 14.2622 7.69661Z" fill="black"/>
<path d="M20.0321 10.4276H15.9679C15.2278 10.4285 14.5184 10.723 13.9953 11.2464C13.4721 11.7698 13.1779 12.4794 13.1772 13.2194V29.0594C13.1779 29.7994 13.4721 30.509 13.9953 31.0324C14.5184 31.5558 15.2278 31.8503 15.9679 31.8513H20.0321C20.7722 31.8503 21.4816 31.5558 22.0048 31.0324C22.5279 30.509 22.8221 29.7994 22.8228 29.0594V13.2144C22.8208 12.4753 22.526 11.767 22.003 11.2447C21.48 10.7223 20.7713 10.4285 20.0321 10.4276ZM21.0848 29.0644C21.0845 29.3436 20.9735 29.6113 20.7762 29.8088C20.5789 30.0064 20.3114 30.1177 20.0321 30.1183H15.9679C15.6887 30.1177 15.4211 30.0064 15.2238 29.8088C15.0265 29.6113 14.9155 29.3436 14.9152 29.0644V13.2144C14.9168 12.9361 15.0284 12.6697 15.2255 12.4732C15.4227 12.2767 15.6895 12.1661 15.9679 12.1655H20.0321C20.3114 12.1661 20.5789 12.2774 20.7762 12.475C20.9735 12.6725 21.0845 12.9402 21.0848 13.2194V29.0644Z" fill="black"/>
<path d="M18 28.3468C18.7898 28.3468 19.4301 27.7066 19.4301 26.9168C19.4301 26.127 18.7898 25.4867 18 25.4867C17.2102 25.4867 16.5699 26.127 16.5699 26.9168C16.5699 27.7066 17.2102 28.3468 18 28.3468Z" fill="black"/>
<path d="M19.2761 16.535H16.7238C16.4907 16.535 16.3018 16.7239 16.3018 16.957V17.9005C16.3018 18.1336 16.4907 18.3226 16.7238 18.3226H19.2761C19.5092 18.3226 19.6982 18.1336 19.6982 17.9005V16.957C19.6982 16.7239 19.5092 16.535 19.2761 16.535Z" fill="black"/>
<path d="M19.2761 19.5789H16.7238C16.4907 19.5789 16.3018 19.7678 16.3018 20.0009V20.9444C16.3018 21.1775 16.4907 21.3664 16.7238 21.3664H19.2761C19.5092 21.3664 19.6982 21.1775 19.6982 20.9444V20.0009C19.6982 19.7678 19.5092 19.5789 19.2761 19.5789Z" fill="black"/>
<path d="M19.2761 13.4911H16.7238C16.4907 13.4911 16.3018 13.6801 16.3018 13.9132V14.8566C16.3018 15.0897 16.4907 15.2787 16.7238 15.2787H19.2761C19.5092 15.2787 19.6982 15.0897 19.6982 14.8566V13.9132C19.6982 13.6801 19.5092 13.4911 19.2761 13.4911Z" fill="black"/>
</svg>
