<svg width="36" height="36" viewBox="0 0 36 36" fill="none" xmlns="http://www.w3.org/2000/svg">
<path d="M26.27 10.6423L22.4118 6.78412C21.9742 6.3478 21.3823 6.10159 20.7644 6.09888H11.3759C10.7566 6.10183 10.1636 6.34993 9.72673 6.78891C9.28984 7.22789 9.04458 7.82203 9.04459 8.44136V27.5685C9.04524 28.187 9.2912 28.7799 9.7285 29.2172C10.1658 29.6545 10.7587 29.9004 11.3771 29.9011H24.6227C25.2411 29.9004 25.834 29.6545 26.2713 29.2172C26.7086 28.7799 26.9545 28.187 26.9552 27.5685V12.2896C26.9513 11.672 26.7053 11.0805 26.27 10.6423ZM21.0673 7.90508C21.1128 7.93227 21.1545 7.96523 21.1915 8.00315L25.0497 11.8626C25.0881 11.8995 25.1214 11.9412 25.149 11.9867H21.0673V7.90508ZM25.2347 27.5685C25.2347 27.7308 25.1702 27.8865 25.0554 28.0013C24.9406 28.1161 24.785 28.1805 24.6227 28.1805H11.3771C11.2148 28.1805 11.0592 28.1161 10.9444 28.0013C10.8296 27.8865 10.7651 27.7308 10.7651 27.5685V8.44136C10.7642 8.36031 10.7792 8.27986 10.8095 8.20468C10.8398 8.1295 10.8847 8.06107 10.9417 8.00335C10.9986 7.94563 11.0664 7.89977 11.1411 7.86841C11.2159 7.83705 11.2961 7.82083 11.3771 7.82067H19.348V12.4808C19.3484 12.8063 19.4778 13.1184 19.708 13.3486C19.9382 13.5788 20.2502 13.7082 20.5758 13.7085H25.2347V27.5685Z" fill="black"/>
<path d="M21.8633 16.1381H14.1369C13.7633 16.1381 13.4604 16.441 13.4604 16.8146V17.1821C13.4604 17.5557 13.7633 17.8586 14.1369 17.8586H21.8633C22.237 17.8586 22.5399 17.5557 22.5399 17.1821V16.8146C22.5399 16.441 22.237 16.1381 21.8633 16.1381Z" fill="black"/>
<path d="M21.8633 19.4387H14.1369C13.7633 19.4387 13.4604 19.7416 13.4604 20.1153V20.4827C13.4604 20.8564 13.7633 21.1593 14.1369 21.1593H21.8633C22.237 21.1593 22.5399 20.8564 22.5399 20.4827V20.1153C22.5399 19.7416 22.237 19.4387 21.8633 19.4387Z" fill="black"/>
<path d="M21.8633 22.741H14.1369C13.7633 22.741 13.4604 23.0439 13.4604 23.4175V23.785C13.4604 24.1586 13.7633 24.4615 14.1369 24.4615H21.8633C22.237 24.4615 22.5399 24.1586 22.5399 23.785V23.4175C22.5399 23.0439 22.237 22.741 21.8633 22.741Z" fill="black"/>
</svg>
