<svg width="36" height="36" viewBox="0 0 36 36" fill="none" xmlns="http://www.w3.org/2000/svg">
<path d="M21.6138 11.3152H14.3865C14.1344 11.3155 13.8927 11.4158 13.7145 11.5941C13.5362 11.7723 13.4359 12.014 13.4356 12.2661V21.6385H12.939C12.8481 21.6385 12.758 21.6564 12.6739 21.6912C12.5899 21.726 12.5135 21.7771 12.4492 21.8414C12.3849 21.9057 12.3339 21.9821 12.2991 22.0661C12.2643 22.1502 12.2463 22.2402 12.2463 22.3312V23.2002H23.744V22.3312C23.744 22.2402 23.7261 22.1502 23.6913 22.0661C23.6565 21.9821 23.6054 21.9057 23.5411 21.8414C23.4768 21.7771 23.4004 21.726 23.3164 21.6912C23.2324 21.6564 23.1423 21.6385 23.0513 21.6385H22.5548V12.2661C22.5545 12.0157 22.4555 11.7755 22.2794 11.5975C22.1033 11.4196 21.8642 11.3181 21.6138 11.3152ZM21.0068 21.6385H18.7723C18.7907 21.6028 18.8005 21.5633 18.8008 21.5231V20.0421C18.8008 19.9736 18.7736 19.9079 18.7252 19.8595C18.6768 19.8111 18.6111 19.7839 18.5426 19.7839H17.4341C17.3656 19.7839 17.2999 19.8111 17.2515 19.8595C17.2031 19.9079 17.1759 19.9736 17.1759 20.0421V21.5231C17.1756 21.5633 17.1854 21.603 17.2044 21.6385H14.9935V12.8719H21.0068V21.6385Z" fill="black"/>
<path d="M17.3022 15.7333H16.4419C16.2993 15.7333 16.1837 15.8489 16.1837 15.9915V16.8517C16.1837 16.9944 16.2993 17.11 16.4419 17.11H17.3022C17.4448 17.11 17.5604 16.9944 17.5604 16.8517V15.9915C17.5604 15.8489 17.4448 15.7333 17.3022 15.7333Z" fill="black"/>
<path d="M19.5579 15.7333H18.6976C18.555 15.7333 18.4394 15.8489 18.4394 15.9915V16.8517C18.4394 16.9944 18.555 17.11 18.6976 17.11H19.5579C19.7005 17.11 19.8161 16.9944 19.8161 16.8517V15.9915C19.8161 15.8489 19.7005 15.7333 19.5579 15.7333Z" fill="black"/>
<path d="M17.3022 17.6735H16.4419C16.2993 17.6735 16.1837 17.7891 16.1837 17.9317V18.7919C16.1837 18.9346 16.2993 19.0502 16.4419 19.0502H17.3022C17.4448 19.0502 17.5604 18.9346 17.5604 18.7919V17.9317C17.5604 17.7891 17.4448 17.6735 17.3022 17.6735Z" fill="black"/>
<path d="M19.5579 17.6735H18.6976C18.555 17.6735 18.4394 17.7891 18.4394 17.9317V18.7919C18.4394 18.9346 18.555 19.0502 18.6976 19.0502H19.5579C19.7005 19.0502 19.8161 18.9346 19.8161 18.7919V17.9317C19.8161 17.7891 19.7005 17.6735 19.5579 17.6735Z" fill="black"/>
<path d="M17.3022 13.793H16.4419C16.2993 13.793 16.1837 13.9086 16.1837 14.0512V14.9115C16.1837 15.0541 16.2993 15.1697 16.4419 15.1697H17.3022C17.4448 15.1697 17.5604 15.0541 17.5604 14.9115V14.0512C17.5604 13.9086 17.4448 13.793 17.3022 13.793Z" fill="black"/>
<path d="M19.5579 13.793H18.6976C18.555 13.793 18.4394 13.9086 18.4394 14.0512V14.9115C18.4394 15.0541 18.555 15.1697 18.6976 15.1697H19.5579C19.7005 15.1697 19.8161 15.0541 19.8161 14.9115V14.0512C19.8161 13.9086 19.7005 13.793 19.5579 13.793Z" fill="black"/>
<path d="M30.7417 18.046H30.2004C30.0466 18.0455 29.8985 18.1041 29.7867 18.2097C29.6749 18.3153 29.6079 18.4598 29.5996 18.6133C29.4642 21.162 28.4934 23.5951 26.8371 25.5369C25.1807 27.4786 22.9311 28.821 20.4357 29.3565C17.9403 29.892 15.338 29.591 13.0308 28.4998C10.7235 27.4086 8.83985 25.5881 7.67065 23.3194L7.63589 23.2511H9.41975C9.57943 23.2511 9.73257 23.1877 9.84548 23.0748C9.95839 22.9619 10.0218 22.8088 10.0218 22.6491V22.1091C10.0218 21.9494 9.95839 21.7963 9.84548 21.6833C9.73257 21.5704 9.57943 21.507 9.41975 21.507H5.24251C5.08283 21.507 4.92969 21.5704 4.81678 21.6833C4.70387 21.7963 4.64044 21.9494 4.64044 22.1091V26.6438C4.64044 26.8035 4.70387 26.9566 4.81678 27.0696C4.92969 27.1825 5.08283 27.2459 5.24251 27.2459H5.78251C5.86158 27.2459 5.93987 27.2303 6.01291 27.2001C6.08596 27.1698 6.15233 27.1255 6.20824 27.0696C6.26414 27.0136 6.30849 26.9473 6.33875 26.8742C6.36901 26.8012 6.38458 26.7229 6.38458 26.6438V24.6067L6.47148 24.7545C7.92609 27.2355 10.1424 29.181 12.791 30.3019C15.4396 31.4228 18.3792 31.6592 21.1729 30.9759C23.9666 30.2927 26.4653 28.7263 28.2977 26.5096C30.1301 24.2928 31.1984 21.5441 31.3437 18.6717C31.3482 18.5911 31.336 18.5104 31.3078 18.4348C31.2796 18.3592 31.2361 18.2902 31.1799 18.2322C31.1235 18.1729 31.0555 18.1257 30.9801 18.0937C30.9047 18.0616 30.8236 18.0454 30.7417 18.046Z" fill="black"/>
<path d="M30.7576 8.75408H30.2176C30.0579 8.75408 29.9048 8.81751 29.7919 8.93042C29.679 9.04333 29.6155 9.19647 29.6155 9.35615V11.3933L29.5286 11.2455C28.0746 8.76363 25.8584 6.81726 23.2095 5.69581C20.5606 4.57436 17.6206 4.33771 14.8264 5.02104C12.0323 5.70437 9.53331 7.2712 7.70099 9.48857C5.86867 11.7059 4.80088 14.4554 4.65637 17.3283C4.65187 17.4089 4.6641 17.4895 4.6923 17.5652C4.72051 17.6408 4.76406 17.7098 4.82023 17.7677C4.87648 17.8274 4.94443 17.8748 5.01982 17.9071C5.09521 17.9393 5.17644 17.9557 5.25843 17.9552H5.79968C5.95336 17.956 6.10148 17.8977 6.21334 17.7923C6.3252 17.687 6.39222 17.5426 6.4005 17.3891C6.53488 14.8401 7.50504 12.4064 9.16104 10.464C10.817 8.52156 13.0667 7.17864 15.5623 6.64275C18.058 6.10687 20.6606 6.40785 22.968 7.49919C25.2755 8.59053 27.1593 10.4115 28.3282 12.6806L28.363 12.7488H26.486C26.3263 12.7488 26.1732 12.8123 26.0603 12.9252C25.9474 13.0381 25.8839 13.1912 25.8839 13.3509V13.8909C25.8839 14.0506 25.9474 14.2037 26.0603 14.3166C26.1732 14.4295 26.3263 14.493 26.486 14.493H30.7576C30.9174 14.493 31.0707 14.4296 31.1838 14.3167C31.2969 14.2038 31.3606 14.0507 31.3609 13.8909V9.35615C31.3606 9.19636 31.2969 9.04322 31.1838 8.93035C31.0707 8.81747 30.9174 8.75408 30.7576 8.75408Z" fill="black"/>
</svg>
