<svg width="36" height="36" viewBox="0 0 36 36" fill="none" xmlns="http://www.w3.org/2000/svg">
<path d="M26.9154 10.8C27.8874 9.20607 28.4051 7.31049 28.4051 5.27463C28.4057 4.97087 28.3162 4.67376 28.1478 4.42094C27.9794 4.16813 27.7397 3.97098 27.4592 3.85449L23.164 2.06691C22.7854 1.9117 22.3609 1.9117 21.9822 2.06691L17.6932 3.85449C17.4117 3.96999 17.171 4.16679 17.0018 4.41974C16.8327 4.6727 16.7428 4.97033 16.7436 5.27463C16.7445 5.86574 16.791 6.4559 16.8826 7.03987C14.0925 7.29053 11.4702 8.48136 9.44536 10.4173C7.42052 12.3532 6.1132 14.9194 5.73758 17.6955C5.36195 20.4715 5.94029 23.2929 7.37784 25.6973C8.8154 28.1017 11.0269 29.9466 13.6501 30.9297C16.2733 31.9129 19.1526 31.9759 21.8164 31.1086C24.4801 30.2413 26.7703 28.495 28.3118 26.1559C29.8533 23.8168 30.5546 21.0235 30.3009 18.2336C30.0472 15.4437 28.8536 12.8227 26.9154 10.8ZM22.5706 3.60001L26.7516 5.33794C26.7268 9.00373 24.5978 11.8303 22.5731 12.6621C20.5509 11.839 18.417 9.00994 18.3897 5.33794L22.5706 3.60001ZM17.2823 8.72194C17.5515 9.54757 17.9271 10.3346 18.3996 11.0632C19.3418 12.5143 20.6142 13.6279 21.9822 14.1989C22.3608 14.3545 22.7854 14.3545 23.164 14.1989C23.6494 13.9966 24.7666 13.4317 25.8814 12.1916C27.6461 14.1295 28.6301 16.6526 28.6434 19.2737H23.5203C23.3224 18.3766 22.8248 17.5737 22.1095 16.9973C21.3941 16.421 20.5037 16.1056 19.5851 16.1032H16.4146C15.496 16.1056 14.6056 16.421 13.8902 16.9973C13.1749 17.5737 12.6773 18.3766 12.4795 19.2737H7.35876C7.37934 16.5885 8.41301 14.0102 10.253 12.0545C12.0929 10.0987 14.6035 8.90985 17.2823 8.72566V8.72194ZM17.1446 29.9334C14.7664 29.7386 12.5227 28.7504 10.7736 27.1275C9.02438 25.5047 7.87118 23.3411 7.49904 20.9843H12.8879L17.1446 25.241V29.9334ZM17.7652 23.4434L14.4135 20.0917C14.3106 19.9873 14.2404 19.8551 14.2115 19.7113C14.1826 19.5675 14.1963 19.4184 14.2509 19.2823C14.4229 18.8495 14.7203 18.478 15.1049 18.2155C15.4896 17.9529 15.9439 17.8113 16.4097 17.8088H19.5801C20.0459 17.8113 20.5002 17.9529 20.8849 18.2155C21.2695 18.478 21.5669 18.8495 21.7389 19.2823C21.7936 19.4184 21.8074 19.5675 21.7785 19.7113C21.7496 19.8551 21.6793 19.9874 21.5763 20.0917L18.232 23.436C18.171 23.4978 18.0883 23.5335 18.0015 23.5356C17.9147 23.5377 17.8304 23.506 17.7665 23.4472L17.7652 23.4434ZM25.2408 27.113C23.4894 28.7442 21.2394 29.7378 18.8539 29.9334V25.241L23.1106 20.9843H28.4994C28.1273 23.3343 26.9809 25.4926 25.2421 27.1167L25.2408 27.113Z" fill="black"/>
<path d="M22.1997 10.0341C22.2877 10.0343 22.375 10.0171 22.4564 9.98346C22.5378 9.94979 22.6117 9.90033 22.6739 9.83793L25.1306 7.2C25.2562 7.0739 25.3267 6.90316 25.3267 6.72517C25.3267 6.54718 25.2562 6.37645 25.1306 6.25034L24.8661 5.98469C24.7399 5.85938 24.5692 5.78906 24.3913 5.78906C24.2134 5.78906 24.0428 5.85938 23.9165 5.98469L22.1997 7.88276L21.6882 7.37131C21.5621 7.2457 21.3914 7.17517 21.2134 7.17517C21.0354 7.17517 20.8647 7.2457 20.7386 7.37131L20.4729 7.63696C20.4106 7.69922 20.3612 7.77314 20.3274 7.85451C20.2937 7.93588 20.2764 8.02309 20.2764 8.11117C20.2764 8.19925 20.2937 8.28647 20.3274 8.36783C20.3612 8.4492 20.4106 8.52312 20.4729 8.58538L21.7242 9.83793C21.7865 9.90048 21.8606 9.95003 21.9423 9.9837C22.0239 10.0174 22.1114 10.0345 22.1997 10.0341Z" fill="black"/>
</svg>
