<svg width="36" height="36" viewBox="0 0 36 36" fill="none" xmlns="http://www.w3.org/2000/svg">
<path d="M27.7203 9.93084L28.9741 8.55289C29.9424 7.48531 29.8431 5.8467 28.7631 4.90325C27.6831 3.9598 26.0197 4.04669 25.0514 5.11428C24.8776 5.30048 24.0458 6.21911 22.9286 7.44808C21.5879 7.05084 20.1355 6.83981 18.6334 6.83981C11.5823 6.83981 5.83473 11.5074 5.83473 17.2426C5.83473 19.5267 6.74092 21.6991 8.45403 23.5364C7.7092 25.4729 6.19473 27.0991 6.1699 27.124C5.82231 27.484 5.73543 28.0177 5.93405 28.4895C6.13267 28.9488 6.59196 29.2467 7.08851 29.2467C10.1175 29.2467 12.5258 28.0053 14.0154 26.9502C15.5175 27.4219 17.0568 27.6578 18.621 27.6578C25.6721 27.6578 31.4197 22.9902 31.4197 17.255C31.4197 14.3998 30.0045 11.8177 27.7203 9.93084ZM26.3796 6.14463C26.7272 5.83428 27.2734 5.83428 27.6334 6.14463C27.9934 6.45497 28.0431 6.98877 27.7824 7.36119L27.41 7.77085L26.0196 6.54186L26.3796 6.14463ZM26.4169 8.87566L17.8513 18.3102L16.4486 17.0812L25.0141 7.64671L26.4169 8.87566ZM18.621 25.9446C17.2182 25.9446 15.8279 25.7336 14.4996 25.3115L13.7175 25.0632L13.0472 25.535C11.9796 26.2922 10.2665 27.2357 8.11887 27.4839C8.73956 26.6895 9.54645 25.4853 10.0678 24.1198L10.4402 23.1515L9.73267 22.3943C8.30507 20.8798 7.54785 19.1046 7.54785 17.2426C7.54785 12.4508 12.5134 8.55289 18.6334 8.55289C19.6762 8.55289 20.6817 8.66463 21.6376 8.87566C18.7824 12.0164 15.1948 15.9764 15.1948 15.9764C15.1203 16.0508 15.0706 16.1377 15.0334 16.2371L13.2954 20.7805C13.1713 21.1032 13.2582 21.4633 13.5189 21.6867C13.6554 21.8108 13.8293 21.8729 14.003 21.8977C14.0155 21.8977 14.0279 21.8977 14.0403 21.8977C14.1892 21.9101 14.3258 21.8729 14.4624 21.8108L18.8568 19.6012C19.0058 19.5267 19.0803 19.4398 19.1299 19.3778L26.5659 11.1846C28.5024 12.7488 29.6941 14.8839 29.6941 17.2302C29.7066 22.0467 24.7286 25.9446 18.621 25.9446Z" fill="black"/>
</svg>
