<svg width="36" height="36" viewBox="0 0 36 36" fill="none" xmlns="http://www.w3.org/2000/svg">
<path d="M17.9999 5.32324C14.5132 5.32718 11.1705 6.71402 8.705 9.17949C6.23953 11.645 4.8527 14.9877 4.84875 18.4744V21.1037C4.84914 21.2605 4.89118 21.4144 4.97058 21.5496C5.04997 21.6849 5.16387 21.7966 5.30062 21.8733L6.48489 22.5325V22.5648C6.48686 24.0994 7.09736 25.5706 8.1825 26.6557C9.26763 27.7409 10.7388 28.3514 12.2734 28.3533H13.4999C13.8421 28.353 14.1702 28.2168 14.412 27.9748C14.6539 27.7327 14.7897 27.4045 14.7897 27.0623V18.0648C14.7891 17.723 14.6529 17.3955 14.4111 17.1539C14.1694 16.9124 13.8417 16.7765 13.4999 16.7762H12.2734C11.0658 16.7742 9.88788 17.1507 8.90526 17.8528C7.92264 18.5548 7.18473 19.5472 6.79524 20.6903L6.60903 20.5873V18.4769C6.60903 15.4559 7.80914 12.5585 9.94535 10.4223C12.0816 8.28611 14.9789 7.086 17.9999 7.086C21.021 7.086 23.9183 8.28611 26.0545 10.4223C28.1907 12.5585 29.3908 15.4559 29.3908 18.4769V20.5873L29.2046 20.6903C28.8151 19.5472 28.0772 18.5548 27.0946 17.8528C26.112 17.1507 24.9341 16.7742 23.7264 16.7762H22.4999C22.1582 16.7765 21.8305 16.9124 21.5887 17.1539C21.3469 17.3955 21.2108 17.723 21.2101 18.0648V27.0623C21.2105 27.4043 21.3465 27.7321 21.5883 27.974C21.8301 28.2158 22.158 28.3518 22.4999 28.3521H23.7264C25.261 28.3501 26.7322 27.7396 27.8174 26.6545C28.9025 25.5693 29.513 24.0981 29.515 22.5635V22.5313L30.6992 21.8721C30.836 21.7953 30.9499 21.6836 31.0293 21.5484C31.1087 21.4131 31.1507 21.2592 31.1511 21.1024V18.4744C31.1475 14.9876 29.7608 11.6447 27.2952 9.17913C24.8297 6.71358 21.4867 5.32686 17.9999 5.32324ZM8.24517 22.5648C8.24648 21.4968 8.67131 20.473 9.42647 19.7178C10.1816 18.9626 11.2055 18.5378 12.2734 18.5365H13.0344V26.5931H12.2734C11.2055 26.5917 10.1816 26.1669 9.42647 25.4117C8.67131 24.6566 8.24648 23.6327 8.24517 22.5648ZM27.7547 22.5648C27.7534 23.6327 27.3285 24.6566 26.5734 25.4117C25.8182 26.1669 24.7944 26.5917 23.7264 26.5931H22.9654V18.5365H23.7214C24.7903 18.5365 25.8154 18.9607 26.5716 19.716C27.3279 20.4714 27.7534 21.496 27.7547 22.5648Z" fill="black"/>
</svg>
