<svg width="36" height="36" viewBox="0 0 36 36" fill="none" xmlns="http://www.w3.org/2000/svg">
<path d="M20.8043 18.1998H19.5207L20.4046 15.799C20.4245 15.7468 20.4312 15.6906 20.4243 15.6351C20.4174 15.5797 20.397 15.5269 20.3649 15.4812C20.3359 15.4386 20.2971 15.4038 20.2516 15.3795C20.2062 15.3553 20.1556 15.3425 20.1042 15.3422H16.5973C16.5324 15.3431 16.4694 15.3635 16.4163 15.4007C16.3632 15.4379 16.3224 15.4901 16.2993 15.5507L14.8966 19.1172C14.8752 19.1697 14.8672 19.2266 14.8733 19.2829C14.8794 19.3393 14.8993 19.3932 14.9313 19.44C14.9602 19.4834 14.9993 19.519 15.0452 19.5437C15.0911 19.5684 15.1424 19.5814 15.1945 19.5815H16.5327L15.5831 23.4471C15.5625 23.5196 15.5676 23.597 15.5975 23.6662C15.6273 23.7354 15.6801 23.7922 15.7469 23.827C15.8059 23.8625 15.8754 23.8763 15.9435 23.8659C16.0115 23.8554 16.0738 23.8215 16.1193 23.7699L21.0278 18.7708C21.075 18.7227 21.1068 18.6615 21.1192 18.5952C21.1315 18.5289 21.1239 18.4604 21.0973 18.3984C21.0741 18.3397 21.0337 18.2894 20.9814 18.2539C20.9292 18.2185 20.8674 18.1996 20.8043 18.1998Z" fill="black"/>
<path d="M28.1792 10.7814H7.82062C7.20811 10.783 6.6212 11.0273 6.18844 11.4608C5.75567 11.8942 5.51231 12.4815 5.51166 13.0941V26.1285C5.51362 26.7402 5.75756 27.3262 6.19018 27.7586C6.62281 28.191 7.20897 28.4346 7.82062 28.4363H28.1792C28.7924 28.4356 29.3803 28.1917 29.8138 27.7582C30.2474 27.3246 30.4913 26.7367 30.4919 26.1236V13.0891C30.49 12.4768 30.2455 11.8902 29.8121 11.4577C29.3787 11.0252 28.7915 10.782 28.1792 10.7814ZM28.754 26.1236C28.7521 26.2754 28.6909 26.4205 28.5835 26.5279C28.4762 26.6352 28.3311 26.6964 28.1792 26.6983H7.82062C7.66879 26.6964 7.52371 26.6352 7.41634 26.5279C7.30897 26.4205 7.24779 26.2754 7.24586 26.1236V13.0891C7.24907 12.9381 7.31081 12.7943 7.41805 12.688C7.52528 12.5817 7.66963 12.5212 7.82062 12.5193H28.1792C28.3311 12.5212 28.4762 12.5824 28.5835 12.6898C28.6909 12.7972 28.7521 12.9422 28.754 13.0941V26.1236Z" fill="black"/>
<path d="M11.978 4.94189C12.0961 5.05501 12.2533 5.11817 12.4168 5.11817C12.5804 5.11817 12.7376 5.05501 12.8557 4.94189C14.2598 3.65589 16.0947 2.94257 17.9987 2.94257C19.9027 2.94257 21.7376 3.65589 23.1417 4.94189C23.249 5.04249 23.388 5.1026 23.5348 5.11188C23.6816 5.12117 23.827 5.07906 23.9461 4.99278C23.9714 4.97503 23.9951 4.95509 24.0169 4.9332L24.3893 4.56078L24.4055 4.54464C24.5205 4.42272 24.5825 4.26017 24.5778 4.09262C24.5731 3.92507 24.5022 3.7662 24.3806 3.65085C22.6406 2.04844 20.3617 1.15894 17.9962 1.15894C15.6308 1.15894 13.3518 2.04844 11.6118 3.65085L11.5919 3.67071C11.5339 3.73004 11.4881 3.80023 11.4572 3.87726C11.4262 3.95429 11.4108 4.03666 11.4117 4.11967C11.4126 4.20267 11.4299 4.28468 11.4625 4.36101C11.4952 4.43733 11.5425 4.50648 11.6019 4.56451L11.978 4.94189Z" fill="black"/>
<path d="M13.8625 6.37824L13.8339 6.40555C13.7759 6.46514 13.7302 6.5356 13.6995 6.61288C13.6688 6.69017 13.6537 6.77275 13.6549 6.8559C13.6562 6.93906 13.6739 7.02114 13.7069 7.09745C13.74 7.17376 13.7878 7.24279 13.8476 7.30059L14.22 7.66307C14.2337 7.6768 14.2487 7.68927 14.2647 7.70031C14.3829 7.79546 14.5311 7.84546 14.6828 7.84136C14.8345 7.83727 14.9798 7.77935 15.0927 7.67796C15.8995 6.97056 16.9357 6.58002 18.0087 6.57888C19.0818 6.57773 20.1188 6.96607 20.9272 7.67176C21.0359 7.76808 21.1742 7.8245 21.3193 7.83172C21.4644 7.83894 21.6076 7.79653 21.7254 7.71148C21.7495 7.69418 21.7723 7.67509 21.7936 7.65438L22.1661 7.28196C22.1748 7.2746 22.1827 7.26627 22.1896 7.25714C22.3022 7.13357 22.3613 6.97052 22.3541 6.80355C22.3469 6.63658 22.2739 6.47923 22.1512 6.36583C21.0081 5.35174 19.5325 4.79276 18.0045 4.79505C16.4764 4.79734 15.0024 5.36074 13.8625 6.37824Z" fill="black"/>
</svg>
