<svg width="36" height="36" viewBox="0 0 36 36" fill="none" xmlns="http://www.w3.org/2000/svg">
<path d="M31.1461 20.0719C31.1052 18.3277 30.9562 16.0423 30.8085 15.5495C30.6843 15.1448 30.3877 14.7948 30.009 14.3516C29.6657 13.9701 29.357 13.5589 29.0867 13.1226C29.6171 13.2005 30.1584 13.1546 30.6682 12.9885C30.9599 12.8892 31.0779 12.3778 31.0654 11.9135C31.0555 11.5225 30.9413 11.0446 30.6657 10.9601C30.3603 10.8745 29.1003 10.7975 28.8248 10.9601C28.615 11.0843 28.543 11.3934 28.5206 11.5448C28.1748 10.5617 27.7276 9.61733 27.1861 8.7269C26.5245 7.63821 25.8405 6.85117 25.2632 6.51104C24.2701 5.92635 19.8546 5.86304 18.0037 5.86304C16.1528 5.86304 11.7384 5.92635 10.7441 6.51104C10.1631 6.85117 9.4791 7.63821 8.81372 8.7269C8.27227 9.61733 7.82503 10.5617 7.47924 11.5448C7.45565 11.3921 7.3849 11.0868 7.1751 10.9601C6.89952 10.8 5.63952 10.8745 5.33786 10.9601C5.05979 11.0383 4.94807 11.5225 4.93814 11.9135C4.92572 12.3778 5.04366 12.8892 5.33538 12.9885C5.84516 13.1546 6.38644 13.2005 6.9169 13.1226C6.64657 13.5589 6.33791 13.9701 5.99455 14.3516C5.62214 14.7948 5.31676 15.1448 5.1951 15.5495C5.04738 16.0461 4.89841 18.3277 4.85745 20.0719C4.75814 24.2565 5.19386 24.9294 5.354 25.1826C5.48166 25.3819 5.62752 25.5689 5.78972 25.7412C5.74752 26.3011 5.77359 27.0559 6.13359 27.5052C6.22733 27.6253 6.34507 27.7245 6.4793 27.7965C6.61352 27.8686 6.76129 27.9118 6.91317 27.9236C7.56241 27.9745 9.27179 27.9918 10.5492 27.9918C10.7018 27.9921 10.8525 27.9578 10.9899 27.8913C11.1273 27.8249 11.2479 27.7281 11.3424 27.6083C11.5332 27.3377 11.6292 27.0117 11.6155 26.681C12.5776 26.681 13.7544 26.681 15.1125 26.681C18.4779 26.681 22.1014 26.671 24.3843 26.6611C24.3843 27.0633 24.4799 27.3799 24.6574 27.6033C24.752 27.7231 24.8725 27.8199 25.0099 27.8864C25.1473 27.9528 25.2981 27.9872 25.4507 27.9869C26.7219 27.9869 28.4374 27.9695 29.0867 27.9186C29.2386 27.9069 29.3863 27.8636 29.5206 27.7916C29.6548 27.7196 29.7725 27.6203 29.8663 27.5003C30.2263 27.0509 30.2523 26.2961 30.2101 25.7363C30.3723 25.5639 30.5182 25.3769 30.6459 25.1776C30.8097 24.9294 31.2454 24.2565 31.1461 20.0719ZM11.5758 7.95104C11.9631 7.77476 14.2075 7.52773 17.9999 7.52773C21.7923 7.52773 24.043 7.776 24.4228 7.94979C25.1031 8.35945 26.3184 10.3084 26.887 11.9036C26.347 12.1593 25.3626 12.6099 24.9728 12.7316C23.9697 12.8557 12.4845 12.7639 11.1314 12.7105C10.497 12.6857 9.56476 12.3194 9.04834 12.0898C9.57097 10.5021 10.8632 8.38055 11.5758 7.95104ZM10.2512 18.8565C10.2512 18.9608 10.2388 19.2029 9.78945 19.2029C9.48655 19.2029 6.86103 18.5313 6.57428 18.4581L6.65869 17.3408C7.68903 17.7542 9.54986 18.5102 10.1867 18.8094C10.2093 18.8192 10.231 18.8313 10.2512 18.8454V18.8565ZM6.51717 20.1103V20.0868L7.82062 20.3872L8.28862 20.5014C8.76449 20.619 9.25215 20.6823 9.74228 20.6901C10.0361 20.695 10.3291 20.6556 10.6112 20.5734C10.9675 20.4576 11.2815 20.2391 11.5139 19.9453C11.7462 19.6516 11.8865 19.2956 11.9172 18.9223C11.9631 18.2272 11.5808 17.6189 10.8955 17.2974C10.0179 16.8865 7.76848 15.989 7.03483 15.6972L7.25828 15.4328C7.65428 14.9698 8.14462 14.395 8.51083 13.675C9.22338 13.9779 10.2363 14.3417 11.0681 14.3739C11.1624 14.3739 16.5165 14.4608 20.6428 14.4608C23.5191 14.4608 25.1192 14.4211 25.3973 14.3367C25.874 14.2001 26.8497 13.7557 27.4083 13.4938C27.7808 14.2945 28.3146 14.9226 28.7466 15.4279C28.8123 15.5048 28.8868 15.5917 28.9576 15.6761C28.2128 15.9691 25.9522 16.8728 25.0671 17.2899C24.3806 17.6114 23.9995 18.2197 24.0454 18.9149C24.0756 19.2878 24.2153 19.6435 24.447 19.9372C24.6787 20.231 24.992 20.4497 25.3477 20.5659C25.6318 20.6488 25.9269 20.6882 26.2228 20.6826C26.713 20.6748 27.2006 20.6115 27.6765 20.4939L28.1445 20.3797L29.4839 20.0644C29.4839 20.0768 29.4839 20.0892 29.4839 20.1004V20.1575C29.5212 23.3243 29.5212 23.3243 29.2717 24.0443L29.2468 24.1175C29.0209 24.773 28.3344 24.9865 27.7659 24.9765H8.23648C7.69028 24.9902 7.01497 24.7742 6.76048 24.1237C6.73938 24.0691 6.71828 24.0207 6.69966 23.9747C6.49483 23.4807 6.44021 23.3479 6.51717 20.1103ZM26.3085 19.2079C26.023 19.2178 25.7585 18.9236 25.7114 18.8354C25.7303 18.823 25.7502 18.8122 25.771 18.8032C26.3917 18.5139 28.1209 17.82 29.1562 17.4054L29.325 17.3383L29.4094 18.4556C29.1301 18.5325 26.6114 19.1942 26.3085 19.2029V19.2079Z" fill="black"/>
<path d="M13.4069 21.1144L14.6185 22.0616C15.0474 22.3786 15.5557 22.5706 16.0871 22.6165C16.1243 22.6165 17.0181 22.686 18.1279 22.686C19.337 22.686 20.1141 22.6214 20.1501 22.6189C20.7084 22.5655 21.2369 22.3424 21.6646 21.9796L22.6825 21.0635C23.328 20.4813 23.3156 19.7179 23.0177 19.2188C22.7694 18.8017 22.1984 18.3834 21.3555 18.4641C21.3393 18.4641 19.7305 18.6167 18.1279 18.6068C16.3515 18.5969 14.6384 18.4591 14.621 18.4579C13.752 18.3871 13.1897 18.8303 12.9538 19.271C12.6695 19.7923 12.7031 20.5632 13.4069 21.1144ZM18.1242 21.0213C17.0727 21.0213 16.2162 20.958 16.2075 20.9567C16.0044 20.9353 15.8097 20.8645 15.6402 20.7507L14.8655 20.1449C15.4527 20.1858 16.7549 20.2628 18.1093 20.269C19.3904 20.269 20.6454 20.1896 21.2127 20.1449L20.5498 20.7407C20.3929 20.86 20.2068 20.935 20.0111 20.958C19.9862 20.963 19.2737 21.0213 18.1242 21.0213Z" fill="black"/>
</svg>
