<svg width="36" height="36" viewBox="0 0 36 36" fill="none" xmlns="http://www.w3.org/2000/svg">
<path d="M12.4721 15.129C13.5264 15.129 14.557 14.8164 15.4336 14.2306C16.3102 13.6449 16.9934 12.8124 17.3969 11.8384C17.8003 10.8644 17.9059 9.79259 17.7002 8.75858C17.4945 7.72456 16.9868 6.77476 16.2414 6.02928C15.4959 5.2838 14.5461 4.77612 13.5121 4.57044C12.4781 4.36477 11.4063 4.47033 10.4323 4.87378C9.45824 5.27723 8.62573 5.96045 8.04001 6.83704C7.45429 7.71364 7.14166 8.74423 7.14166 9.7985C7.14363 11.2116 7.70587 12.5663 8.7051 13.5655C9.70433 14.5648 11.059 15.127 12.4721 15.129ZM12.4721 6.16374C13.1914 6.1635 13.8945 6.37657 14.4927 6.776C15.0908 7.17544 15.557 7.74329 15.8324 8.40773C16.1077 9.07218 16.1798 9.80336 16.0396 10.5088C15.8993 11.2142 15.553 11.8622 15.0444 12.3708C14.5358 12.8794 13.8879 13.2257 13.1824 13.3659C12.477 13.5062 11.7458 13.4341 11.0814 13.1587C10.4169 12.8834 9.84908 12.4171 9.44965 11.819C9.05021 11.2209 8.83714 10.5177 8.83739 9.7985C8.8387 8.83491 9.22207 7.91116 9.90343 7.22979C10.5848 6.54843 11.5086 6.16506 12.4721 6.16374Z" fill="black"/>
<path d="M23.8084 21.3346C23.4775 21.3349 23.1555 21.4423 22.8907 21.6407C22.6258 21.8391 22.4322 22.1179 22.3389 22.4354C22.2456 22.7529 22.2576 23.0921 22.373 23.4023C22.4883 23.7124 22.701 23.9769 22.9792 24.1563V24.9172C22.9792 25.1375 23.0667 25.3487 23.2224 25.5045C23.3781 25.6602 23.5894 25.7477 23.8096 25.7477C24.0299 25.7477 24.2411 25.6602 24.3969 25.5045C24.5526 25.3487 24.6401 25.1375 24.6401 24.9172V24.1563C24.9184 23.9768 25.1312 23.7121 25.2465 23.4017C25.3619 23.0913 25.3736 22.7519 25.28 22.4342C25.1864 22.1166 24.9924 21.8378 24.7271 21.6396C24.4619 21.4414 24.1395 21.3344 23.8084 21.3346Z" fill="black"/>
<path d="M29.5783 18.4395H29.4207C29.4207 18.067 29.4381 17.2589 29.4207 16.7437C29.3835 16.063 29.2583 15.39 29.0483 14.7414C28.6463 13.6758 27.9317 12.7566 26.9982 12.1043C26.0647 11.4519 24.9559 11.0968 23.8171 11.0855C23.0782 11.0816 22.3459 11.2243 21.6625 11.5053C20.9791 11.7864 20.3583 12.2002 19.836 12.7229C19.2645 13.2916 18.8213 13.976 18.5363 14.7302C18.4891 14.8184 18.2719 15.2814 18.2023 16.2199C17.5673 15.9816 16.8944 15.8601 16.2161 15.8611C15.6196 15.8643 15.027 15.9576 14.4583 16.1379C13.1626 16.5255 11.7817 16.5255 10.4859 16.1379C9.91765 15.9606 9.32592 15.8698 8.73062 15.8686C6.92317 15.8686 5.28083 16.704 4.33738 18.103C3.72754 19.0064 3.40278 20.0719 3.4051 21.1618V23.2535C3.40707 23.8736 3.6547 24.4677 4.09375 24.9055C4.5328 25.3434 5.12749 25.5895 5.74759 25.5898H16.0808V26.6897C16.0818 27.2035 16.2865 27.696 16.6499 28.0592C17.0134 28.4225 17.506 28.6268 18.0199 28.6275H29.5783C30.0917 28.6265 30.5838 28.4219 30.9466 28.0587C31.3094 27.6954 31.5133 27.2031 31.5137 26.6897V20.376C31.5133 19.8627 31.3094 19.3705 30.9465 19.0075C30.5837 18.6444 30.0916 18.4401 29.5783 18.4395ZM19.9577 16.7015C19.9577 15.6825 20.3624 14.7053 21.083 13.9848C21.8035 13.2642 22.7807 12.8595 23.7997 12.8595C24.8187 12.8595 25.7959 13.2642 26.5165 13.9848C27.237 14.7053 27.6418 15.6825 27.6418 16.7015V18.4395H19.9577V16.7015ZM5.74759 23.9015C5.57616 23.9012 5.41184 23.833 5.29062 23.7117C5.1694 23.5905 5.10115 23.4262 5.10083 23.2548V21.1556C5.09966 20.4039 5.32315 19.669 5.74262 19.0453C6.36952 18.113 7.48055 17.5556 8.72193 17.5556C9.19708 17.5635 9.66848 17.6413 10.121 17.7865C10.882 18.0139 11.673 18.1252 12.4672 18.1167C13.2615 18.1251 14.0525 18.0134 14.8134 17.7853C15.2644 17.6413 15.7341 17.5639 16.2074 17.5556C16.9002 17.5504 17.5813 17.7341 18.1775 18.0869V18.4382H18.0149C17.5012 18.4385 17.0085 18.6426 16.645 19.0056C16.2815 19.3687 16.0768 19.861 16.0759 20.3748V23.8928L5.74759 23.9015ZM29.741 26.6872C29.7415 26.7089 29.7376 26.7305 29.7297 26.7507C29.7218 26.771 29.7099 26.7894 29.6947 26.805C29.6796 26.8206 29.6615 26.8331 29.6415 26.8416C29.6216 26.8501 29.6001 26.8546 29.5783 26.8548H18.0186C17.9968 26.8548 17.9752 26.8504 17.955 26.842C17.9349 26.8335 17.9167 26.8211 17.9014 26.8055C17.8862 26.7899 17.8742 26.7713 17.8661 26.751C17.8581 26.7307 17.8543 26.709 17.8548 26.6872V20.3773C17.8551 20.334 17.8725 20.2926 17.9032 20.2622C17.9339 20.2317 17.9754 20.2146 18.0186 20.2146H29.5783C29.6215 20.2146 29.6628 20.2318 29.6933 20.2623C29.7238 20.2928 29.741 20.3341 29.741 20.3773V26.6872Z" fill="black"/>
</svg>
