<svg width="36" height="36" viewBox="0 0 36 36" fill="none" xmlns="http://www.w3.org/2000/svg">
<path d="M28.0329 5.58618H13.0345C12.4033 5.58684 11.798 5.8379 11.3517 6.28428C10.9053 6.73065 10.6542 7.33588 10.6536 7.96715V22.9655C10.6542 23.5968 10.9053 24.202 11.3517 24.6484C11.798 25.0947 12.4033 25.3458 13.0345 25.3465H28.0329C28.6641 25.3458 29.2694 25.0947 29.7157 24.6484C30.1621 24.202 30.4132 23.5968 30.4138 22.9655V7.96715C30.4132 7.33588 30.1621 6.73065 29.7157 6.28428C29.2694 5.8379 28.6641 5.58684 28.0329 5.58618ZM28.6536 22.9655C28.6536 23.1301 28.5882 23.288 28.4718 23.4044C28.3554 23.5208 28.1975 23.5862 28.0329 23.5862H13.5783L22.7098 14.4534L22.6962 18.0732C22.6965 18.2452 22.7651 18.41 22.8868 18.5315C23.0085 18.653 23.1735 18.7212 23.3454 18.7212H23.7762C23.948 18.7212 24.1129 18.6529 24.2344 18.5314C24.3559 18.4099 24.4242 18.2451 24.4242 18.0732L24.4391 12.2114C24.4388 12.0394 24.3702 11.8746 24.2485 11.7531C24.1268 11.6317 23.9618 11.5634 23.7898 11.5634L17.9305 11.5771C17.7586 11.5774 17.5937 11.646 17.4722 11.7677C17.3508 11.8894 17.2825 12.0543 17.2825 12.2263V12.6571C17.2825 12.8289 17.3508 12.9938 17.4723 13.1153C17.5938 13.2368 17.7587 13.3051 17.9305 13.3051L21.5504 13.2914L12.4138 22.423V7.96715C12.4138 7.80253 12.4792 7.64466 12.5956 7.52825C12.712 7.41185 12.8699 7.34646 13.0345 7.34646H28.0329C28.1975 7.34646 28.3554 7.41185 28.4718 7.52825C28.5882 7.64466 28.6536 7.80253 28.6536 7.96715V22.9655Z" fill="black"/>
<path d="M23.5862 28.033C23.5862 28.1976 23.5208 28.3555 23.4044 28.4719C23.288 28.5883 23.1301 28.6537 22.9655 28.6537H7.96715C7.80253 28.6537 7.64466 28.5883 7.52825 28.4719C7.41185 28.3555 7.34646 28.1976 7.34646 28.033V13.0347C7.34646 12.87 7.41185 12.7122 7.52825 12.5958C7.64466 12.4794 7.80253 12.414 7.96715 12.414H9.53749V10.6537H7.96715C7.33588 10.6543 6.73065 10.9054 6.28428 11.3518C5.8379 11.7982 5.58684 12.4034 5.58618 13.0347V28.033C5.58684 28.6643 5.8379 29.2695 6.28428 29.7159C6.73065 30.1622 7.33588 30.4133 7.96715 30.414H22.9655C23.5967 30.413 24.2017 30.1618 24.648 29.7155C25.0943 29.2692 25.3455 28.6642 25.3465 28.033V26.5235H23.5862C23.5862 26.7184 23.5862 28.033 23.5862 28.033Z" fill="black"/>
</svg>
