<svg width="36" height="36" viewBox="0 0 36 36" fill="none" xmlns="http://www.w3.org/2000/svg">
<path d="M28.7429 15.8463C28.8408 15.4558 28.8904 15.0547 28.8907 14.6521C28.8894 13.3611 28.376 12.1234 27.4633 11.2104C26.5506 10.2974 25.3129 9.7838 24.022 9.78215C23.3523 9.7802 22.6897 9.91847 22.0767 10.1881C21.1591 8.93753 19.8783 8.00018 18.4088 7.50368C16.9393 7.00717 15.3525 6.97563 13.8644 7.41336C12.3764 7.85108 11.0594 8.73679 10.0928 9.9499C9.12614 11.163 8.5569 12.6445 8.46253 14.1928C7.1008 14.7031 5.96148 15.6754 5.24338 16.9399C4.52529 18.2045 4.274 19.6811 4.53337 21.112C4.79275 22.5429 5.54631 23.8373 6.66257 24.7693C7.77884 25.7014 9.18693 26.2119 10.6412 26.2118H26.0343C27.259 26.2122 28.4493 25.8067 29.419 25.0585C30.3887 24.3104 31.083 23.2619 31.3933 22.0771C31.7036 20.8924 31.6124 19.6382 31.134 18.5107C30.6555 17.3833 29.8168 16.4463 28.7492 15.8463H28.7429ZM10.198 15.3398C10.1703 15.1116 10.1571 14.8819 10.1583 14.6521C10.1558 13.2978 10.6246 11.9847 11.4842 10.9382C12.3438 9.89164 13.5408 9.17675 14.8698 8.91608C16.1988 8.65542 17.5771 8.86522 18.7684 9.50952C19.9596 10.1538 20.8896 11.1925 21.3989 12.4474C21.4105 12.4766 21.4293 12.5023 21.4536 12.5221C21.478 12.5419 21.507 12.5551 21.538 12.5604C21.5687 12.5661 21.6004 12.564 21.6302 12.5542C21.6599 12.5444 21.6867 12.5273 21.708 12.5045C22.0023 12.1844 22.36 11.9291 22.7584 11.7549C23.1568 11.5807 23.5872 11.4914 24.022 11.4928C24.6136 11.4932 25.1931 11.6597 25.6948 11.9733C26.1964 12.2868 26.6 12.7349 26.8595 13.2665C27.1191 13.7981 27.2243 14.3918 27.1631 14.9802C27.1019 15.5686 26.8768 16.1281 26.5134 16.5948C26.4937 16.6205 26.4809 16.6509 26.4764 16.6829C26.4719 16.715 26.4758 16.7477 26.4876 16.7778C26.4995 16.808 26.519 16.8345 26.5442 16.8549C26.5694 16.8752 26.5994 16.8887 26.6314 16.894C27.5829 17.0448 28.4425 17.5489 29.0387 18.3057C29.6349 19.0625 29.9237 20.0162 29.8475 20.9766C29.7714 21.937 29.3358 22.8333 28.6278 23.4866C27.9198 24.14 26.9914 24.5023 26.028 24.5012H10.6412C9.49979 24.503 8.40047 24.0706 7.56611 23.2918C6.73175 22.513 6.2248 21.446 6.14806 20.3072C6.07132 19.1685 6.43053 18.0431 7.15286 17.1594C7.87519 16.2757 8.90656 15.6997 10.0378 15.5484C10.0867 15.5419 10.131 15.5163 10.161 15.4772C10.191 15.4381 10.2043 15.3887 10.198 15.3398Z" fill="black"/>
</svg>
