<svg width="36" height="36" viewBox="0 0 36 36" fill="none" xmlns="http://www.w3.org/2000/svg">
<path d="M23.7137 5.11523H12.5561C11.2101 5.11523 10.1002 6.22407 10.1002 7.59521V28.52C10.1002 29.8792 11.1983 30.9999 12.5561 30.9999H23.7137C25.0597 30.9999 26.1696 29.8911 26.1696 28.52V7.59521C26.1696 6.23599 25.0597 5.11523 23.7137 5.11523ZM24.4576 28.52C24.4576 28.9254 24.127 29.2592 23.7255 29.2592H12.5679C12.1664 29.2592 11.8358 28.9254 11.8358 28.52V7.59521C11.8358 7.18983 12.1664 6.85598 12.5679 6.85598H23.7137C24.1152 6.85598 24.4458 7.18983 24.4458 7.59521V28.52H24.4576Z" fill="black"/>
<path d="M13.064 24.7526H23.218V8.08435H13.064V24.7526ZM14.717 9.75356H21.5651V23.0834H14.717V9.75356Z" fill="black"/>
<path d="M18.1411 25.6466C17.3854 25.6466 16.7833 26.2547 16.7833 27.0177C16.7833 27.7808 17.3854 28.3889 18.1411 28.3889C18.8967 28.3889 19.4989 27.7808 19.4989 27.0177C19.4989 26.2547 18.8849 25.6466 18.1411 25.6466Z" fill="black"/>
<path d="M32.6752 11.9231C32.569 11.8038 32.4155 11.7323 32.2502 11.7323C32.0849 11.7323 31.9432 11.7919 31.8251 11.8992L31.8133 11.9111L31.4591 12.2688C31.4355 12.2927 31.4237 12.3165 31.4001 12.3404C31.2348 12.5788 31.2466 12.9007 31.4473 13.1154C32.6752 14.4627 33.3482 16.2153 33.3482 18.0515C33.3482 19.8995 32.6752 21.6522 31.4473 22.9876C31.223 23.226 31.223 23.5956 31.4473 23.8341L31.7897 24.1918C32.0258 24.4302 32.4037 24.4302 32.6398 24.2037C32.6398 24.2037 32.6516 24.1918 32.6634 24.1799C34.1865 22.5106 35.0366 20.3407 35.0366 18.0515C35.0485 15.7623 34.1983 13.5923 32.6752 11.9231Z" fill="black"/>
<path d="M30.1015 14.0695C29.8772 13.8191 29.4994 13.8072 29.2514 14.0337C29.2396 14.0456 29.2396 14.0456 29.2278 14.0576L28.8736 14.4153C28.85 14.4391 28.8382 14.4629 28.8146 14.4868C28.6493 14.7133 28.6611 15.0472 28.85 15.2499C30.2432 16.8475 30.2314 19.256 28.8382 20.8536C28.6375 21.0802 28.6256 21.414 28.8146 21.6525C28.8264 21.6644 28.8382 21.6763 28.85 21.7002L29.1924 22.0579C29.4167 22.2963 29.8064 22.3082 30.0425 22.0698C30.0543 22.0579 30.0543 22.0579 30.0661 22.0459C32.0969 19.7687 32.0969 16.3468 30.1015 14.0695Z" fill="black"/>
<path d="M19.3923 18.2545C19.3333 18.2426 19.2624 18.2307 19.1916 18.2307L17.2906 15.4049C17.2434 15.3453 17.1844 15.3095 17.1253 15.2976L16.0391 15.0949C15.9683 15.083 15.8974 15.0949 15.8502 15.1307C15.7912 15.1665 15.7557 15.2261 15.7439 15.2976L15.5196 16.5138C15.5078 16.5853 15.5196 16.6568 15.555 16.7164C15.5904 16.7761 15.6495 16.8118 15.7203 16.8238L15.8738 16.8476L15.8502 16.9907C15.8384 17.0622 15.8502 17.1337 15.8856 17.1934C15.921 17.253 15.9801 17.2887 16.0509 17.3007L16.1926 17.3245L17.5268 19.3037C17.4796 19.411 17.4559 19.5064 17.4441 19.6137C17.2788 20.5318 17.881 21.426 18.8019 21.5929C19.7111 21.7598 20.5966 21.1518 20.7619 20.2218C20.9036 19.3156 20.3014 18.4333 19.3923 18.2545ZM20.2306 20.1502C20.1716 20.4602 20.0063 20.7225 19.7465 20.9014C19.4867 21.0802 19.1798 21.1399 18.8728 21.0802C18.5658 21.0206 18.306 20.8537 18.1289 20.5914C17.9518 20.3291 17.8928 20.0191 17.9518 19.7091C17.9755 19.5541 18.0345 19.4229 18.1171 19.3037L18.1407 19.268L16.7593 17.2053L16.8184 16.9072L16.4169 16.8357L16.4878 16.4303L16.0863 16.3588L16.2162 15.6672L16.9364 15.7984L18.9436 18.7791H18.979C19.0735 18.7672 19.1798 18.7672 19.3214 18.791C19.9354 18.8983 20.3487 19.5064 20.2306 20.1502Z" fill="black"/>
<path d="M19.5104 19.5541L18.5777 20.186C18.4832 20.2457 18.4714 20.4007 18.5541 20.508C18.6367 20.6272 18.7666 20.663 18.8611 20.6033L19.7938 19.9714C19.8883 19.9118 19.9001 19.7568 19.8174 19.6495C19.7466 19.5303 19.6049 19.4826 19.5104 19.5541Z" fill="black"/>
<path d="M20.5023 12.2213C20.5967 12.2213 20.6676 12.1498 20.6676 12.0544C20.6794 11.9709 20.5967 11.8875 20.5023 11.8875C20.4078 11.8875 20.337 11.959 20.337 12.0544C20.3488 12.1498 20.4196 12.2213 20.5023 12.2213Z" fill="black"/>
<path d="M20.1718 11.6013C20.2631 11.6013 20.3371 11.5266 20.3371 11.4344C20.3371 11.3422 20.2631 11.2675 20.1718 11.2675C20.0805 11.2675 20.0065 11.3422 20.0065 11.4344C20.0065 11.5266 20.0805 11.6013 20.1718 11.6013Z" fill="black"/>
<path d="M19.5932 11.16C19.6758 11.16 19.7585 11.0885 19.7585 10.9931C19.7585 10.8977 19.6876 10.8262 19.5932 10.8262C19.4987 10.8262 19.4279 10.8977 19.4279 10.9931C19.4397 11.1004 19.5105 11.16 19.5932 11.16Z" fill="black"/>
<path d="M18.7313 12.0668L18.5778 11.876C18.507 11.7925 18.3771 11.7806 18.2945 11.8521C18.2118 11.9237 18.2 12.0548 18.2709 12.1383L18.4243 12.3171C18.3653 12.4125 18.3417 12.5198 18.3417 12.6271C18.3417 12.961 18.6133 13.2233 18.932 13.2233C19.1918 13.2233 19.4043 13.0564 19.487 12.8298H19.7231C19.8294 12.8298 19.9238 12.7345 19.9238 12.6271C19.9238 12.5198 19.8294 12.4245 19.7231 12.4245H19.487C19.4043 12.1979 19.1918 12.031 18.932 12.031C18.8612 12.031 18.7904 12.0429 18.7313 12.0668ZM19.121 12.6271C19.121 12.7345 19.0265 12.8298 18.9202 12.8298C18.814 12.8298 18.7195 12.7464 18.7195 12.6271C18.7195 12.5079 18.8022 12.4245 18.9202 12.4245C19.0383 12.4245 19.121 12.5198 19.121 12.6271Z" fill="black"/>
<path d="M20.703 12.5911H20.337C20.2898 12.5911 20.2544 12.6269 20.2544 12.6626C20.2544 12.6626 20.2544 12.6865 20.2544 12.6984C20.2307 13.4376 19.6168 14.0219 18.8847 14.0219C18.8729 14.0219 18.8729 14.0219 18.8611 14.0219C18.1055 14.0099 17.5033 13.378 17.5151 12.6149C17.5151 12.2453 17.6686 11.8996 17.9284 11.6373C18.1881 11.3869 18.5305 11.2438 18.8966 11.2438H18.9084C18.9556 11.2438 18.991 11.208 18.991 11.1603V10.7907C18.991 10.743 18.9556 10.7192 18.9202 10.7073H18.9084H18.8966C18.4007 10.7073 17.9284 10.898 17.5742 11.2438C17.2081 11.6015 17.0074 12.0784 16.9956 12.5911C16.9838 13.6522 17.8221 14.5226 18.8729 14.5345C18.8847 14.5345 18.8966 14.5345 18.8966 14.5345C19.9238 14.5345 20.7739 13.6999 20.7975 12.6626C20.7975 12.6507 20.7975 12.6269 20.7975 12.6269C20.7857 12.6269 20.7503 12.5911 20.703 12.5911Z" fill="black"/>
</svg>
