<svg width="36" height="36" viewBox="0 0 36 36" fill="none" xmlns="http://www.w3.org/2000/svg">
<path d="M31.5311 17.9998C31.1388 17.1185 30.7019 15.8274 30.2388 14.4619C29.4816 12.2274 28.6995 9.92095 27.9497 8.85585C27.0025 7.51138 25.7462 6.41414 24.2864 5.65652C22.8267 4.8989 21.2063 4.50306 19.5617 4.50233H16.3341C13.8234 4.49872 11.4017 5.43284 9.54379 7.12164C8.62281 7.94243 7.87631 8.94006 7.34871 10.0552C6.8211 11.1703 6.52316 12.3802 6.47261 13.6128C6.41938 14.998 6.67133 16.378 7.21064 17.6551C7.74994 18.9321 8.56341 20.075 9.59344 21.0027V29.2306C9.59377 29.3589 9.64488 29.4819 9.73561 29.5726C9.82633 29.6633 9.94928 29.7144 10.0776 29.7147H10.8596C10.9879 29.7144 11.1109 29.6633 11.2016 29.5726C11.2923 29.4819 11.3435 29.3589 11.3438 29.2306V20.2194L10.7926 19.7229C9.94486 18.9662 9.27471 18.0316 8.83007 16.9859C8.38543 15.9402 8.17727 14.8091 8.22048 13.6736C8.37689 9.57709 12.0166 6.24771 16.3341 6.24771H19.5617C20.9248 6.24884 22.2678 6.57732 23.4775 7.20552C24.6872 7.83372 25.7284 8.74327 26.5134 9.85764C27.118 10.7154 27.9249 13.0976 28.5766 15.0181C29.031 16.36 29.4617 17.625 29.8701 18.5746H26.8002V23.3626C26.7999 23.5561 26.7614 23.7477 26.6871 23.9263C26.6127 24.105 26.5039 24.2672 26.3669 24.4038C26.2298 24.5404 26.0672 24.6487 25.8883 24.7224C25.7094 24.7962 25.5177 24.834 25.3242 24.8336H20.5436V29.2281C20.544 29.3564 20.5951 29.4794 20.6858 29.5701C20.7765 29.6608 20.8995 29.7119 21.0278 29.7123H21.8099C21.9382 29.7119 22.0611 29.6608 22.1518 29.5701C22.2426 29.4794 22.2937 29.3564 22.294 29.2281V26.584H25.3242C26.1802 26.584 27.0012 26.2439 27.6065 25.6386C28.2117 25.0334 28.5518 24.2124 28.5518 23.3564V20.3274H30.0203C30.2957 20.3263 30.5664 20.2567 30.8081 20.1248C31.0498 19.9929 31.2548 19.8029 31.4047 19.5719C31.5546 19.341 31.6447 19.0763 31.6667 18.8019C31.6888 18.5274 31.6422 18.2518 31.5311 17.9998Z" fill="black"/>
<path d="M21.2722 18.699C21.4665 18.8129 21.6937 18.8573 21.9166 18.825C22.1394 18.7928 22.3447 18.6857 22.4987 18.5215C23.1126 17.872 23.5654 17.0875 23.8208 16.2312C23.8854 16.016 23.8751 15.7853 23.7917 15.5768C23.7083 15.3682 23.5566 15.1941 23.3615 15.0829L22.9518 14.847C22.9605 14.6862 22.9605 14.525 22.9518 14.3641L23.3615 14.127C23.5566 14.0158 23.7083 13.8417 23.7917 13.6331C23.8751 13.4245 23.8854 13.1939 23.8208 12.9787C23.5652 12.1228 23.1124 11.3388 22.4987 10.6896C22.3448 10.5252 22.1396 10.4179 21.9168 10.3854C21.6939 10.353 21.4666 10.3972 21.2722 10.5109L20.8638 10.7467C20.7291 10.6586 20.5894 10.5782 20.4455 10.5059V10.0329C20.4462 9.80786 20.3704 9.58922 20.2306 9.41284C20.0907 9.23647 19.8951 9.11283 19.6758 9.06218C18.8089 8.85736 17.9061 8.85736 17.0391 9.06218C16.8194 9.11292 16.6235 9.23693 16.4836 9.41381C16.3437 9.5907 16.2682 9.80992 16.2695 10.0354V10.5084C16.1256 10.5807 15.9859 10.6611 15.8511 10.7492L15.4427 10.5134C15.2483 10.3997 15.021 10.3554 14.7982 10.3879C14.5753 10.4204 14.3701 10.5277 14.2162 10.6921C13.6026 11.3412 13.1497 12.1253 12.8942 12.9812C12.8296 13.1964 12.8398 13.427 12.9233 13.6356C13.0067 13.8441 13.1583 14.0182 13.3535 14.1295L13.7631 14.3666C13.7544 14.5274 13.7544 14.6886 13.7631 14.8495L13.3535 15.0854C13.1583 15.1966 13.0067 15.3707 12.9233 15.5793C12.8398 15.7878 12.8296 16.0185 12.8942 16.2336C13.1492 17.0898 13.6021 17.8739 14.2162 18.5227C14.3701 18.6872 14.5753 18.7945 14.7982 18.8269C15.021 18.8594 15.2483 18.8152 15.4427 18.7015L15.8511 18.4656C15.986 18.5558 16.1257 18.6387 16.2695 18.7139V19.1869C16.2682 19.4124 16.3437 19.6316 16.4836 19.8085C16.6235 19.9854 16.8194 20.1094 17.0391 20.1601C17.9062 20.3637 18.8087 20.3637 19.6758 20.1601C19.8956 20.1094 20.0915 19.9854 20.2313 19.8085C20.3712 19.6316 20.4467 19.4124 20.4455 19.1869V18.7139C20.5893 18.6387 20.7289 18.5558 20.8638 18.4656L21.2722 18.699ZM20.4455 16.683C19.9154 17.1361 19.7652 17.2218 19.1122 17.4527L18.7808 17.5706V18.6208C18.4994 18.6506 18.2156 18.6506 17.9342 18.6208V17.5731L17.6027 17.4552C16.9498 17.2255 16.7995 17.1386 16.2695 16.6843L16.0026 16.4571L15.0939 16.9809C14.9268 16.7521 14.7845 16.5062 14.6693 16.2473L15.578 15.7234L15.5135 15.3783C15.3893 14.6943 15.3893 14.5218 15.5135 13.8365L15.578 13.4927L14.6693 12.9676C14.7847 12.7088 14.927 12.4629 15.0939 12.2339L16.0026 12.759L16.2695 12.5306C16.7995 12.0775 16.9485 11.9906 17.6027 11.7597L17.9342 11.643V10.5916C18.2156 10.5618 18.4994 10.5618 18.7808 10.5916V11.6405L19.1122 11.7572C19.7664 11.9881 19.9154 12.075 20.4455 12.5281L20.7124 12.7565L21.6211 12.2314C21.7879 12.4604 21.9302 12.7063 22.0456 12.9651L21.1369 13.4902L21.2015 13.834C21.3256 14.5193 21.3256 14.6918 21.2015 15.3758L21.1369 15.7209L22.0456 16.2448C21.9305 16.5037 21.7882 16.7496 21.6211 16.9785L20.7124 16.4546L20.4455 16.683Z" fill="black"/>
<path d="M18.3935 13.0406H18.3215C17.4775 13.0406 16.7933 13.7248 16.7933 14.5688V14.6408C16.7933 15.4848 17.4775 16.1689 18.3215 16.1689H18.3935C19.2374 16.1689 19.9216 15.4848 19.9216 14.6408V14.5688C19.9216 13.7248 19.2374 13.0406 18.3935 13.0406Z" fill="black"/>
</svg>
