<svg width="36" height="36" viewBox="0 0 36 36" fill="none" xmlns="http://www.w3.org/2000/svg">
<path d="M8.57277 14.9868H6.00012V13.2292H13.1322V14.9868H10.5596V22.2463H8.57277V14.9868Z" fill="black"/>
<path d="M18.5987 15.4326C18.4374 15.2288 18.2166 15.0802 17.9364 14.9868C17.6647 14.8849 17.4058 14.834 17.1596 14.834C17.0152 14.834 16.8666 14.851 16.7138 14.8849C16.561 14.9189 16.4166 14.9741 16.2808 15.0505C16.1449 15.1184 16.0345 15.2118 15.9496 15.3307C15.8647 15.4495 15.8223 15.5939 15.8223 15.7637C15.8223 16.0354 15.9242 16.2434 16.1279 16.3877C16.3317 16.5321 16.5864 16.6552 16.8921 16.7571C17.2063 16.859 17.5416 16.9609 17.8982 17.0628C18.2548 17.1646 18.586 17.309 18.8916 17.4958C19.2058 17.6826 19.4648 17.933 19.6685 18.2472C19.8723 18.5613 19.9742 18.9816 19.9742 19.508C19.9742 20.009 19.8808 20.4463 19.694 20.8198C19.5072 21.1934 19.2525 21.5033 18.9298 21.7496C18.6157 21.9958 18.2464 22.1783 17.8218 22.2972C17.4058 22.4161 16.9643 22.4755 16.4973 22.4755C15.9114 22.4755 15.368 22.3864 14.8671 22.2081C14.3661 22.0297 13.8992 21.7411 13.4661 21.342L14.8798 19.7882C15.0836 20.0599 15.3383 20.2722 15.644 20.425C15.9581 20.5694 16.2808 20.6415 16.6119 20.6415C16.7732 20.6415 16.9346 20.6246 17.0959 20.5906C17.2657 20.5481 17.4143 20.4887 17.5416 20.4123C17.6775 20.3359 17.7836 20.2382 17.86 20.1194C17.9449 20.0005 17.9874 19.8604 17.9874 19.6991C17.9874 19.4274 17.8813 19.2151 17.669 19.0623C17.4652 18.901 17.2063 18.7651 16.8921 18.6547C16.5779 18.5444 16.2383 18.434 15.8732 18.3236C15.5081 18.2132 15.1685 18.0646 14.8544 17.8778C14.5402 17.6911 14.277 17.4448 14.0647 17.1392C13.861 16.8335 13.7591 16.4302 13.7591 15.9293C13.7591 15.4453 13.8525 15.0208 14.0393 14.6557C14.2345 14.2906 14.4893 13.9849 14.8034 13.7387C15.1261 13.4925 15.4954 13.3099 15.9114 13.191C16.3275 13.0637 16.7562 13 17.1978 13C17.7072 13 18.1997 13.0722 18.6751 13.2165C19.1506 13.3609 19.5794 13.6028 19.9615 13.9425L18.5987 15.4326Z" fill="black"/>
<path d="M21.4543 13.2292H24.1543L27.9879 19.4953H28.0133V13.2292H30.0001V22.2463H27.402L23.4666 15.8274H23.4411V22.2463H21.4543V13.2292Z" fill="black"/>
</svg>
