<svg width="36" height="36" viewBox="0 0 36 36" fill="none" xmlns="http://www.w3.org/2000/svg">
<path d="M31.6887 17.0788C31.6113 16.8774 31.4946 16.6933 31.3454 16.5373C31.1962 16.3814 31.0176 16.2565 30.8198 16.1702L29.242 15.4762C29.5242 15.0212 29.6282 14.4779 29.534 13.9509C29.4398 13.4238 29.1541 12.9502 28.7318 12.6211C28.5756 12.4984 28.403 12.3981 28.2191 12.3231L12.8583 5.57374C12.3671 5.38223 11.8237 5.37242 11.3259 5.54607C10.8282 5.71973 10.4088 6.06544 10.1434 6.52092L6.27771 13.2827C6.13524 13.5329 6.04349 13.8087 6.00769 14.0944C5.97189 14.3801 5.99275 14.67 6.06907 14.9477C6.14539 15.2253 6.27568 15.4851 6.45249 15.7124C6.6293 15.9396 6.84916 16.1297 7.0995 16.272C7.19826 16.3282 7.30118 16.3767 7.40736 16.4172L14.3132 19.2724L12.6224 23.7823H7.77357V21.5019C7.77324 21.3591 7.71637 21.2223 7.61541 21.1213C7.51444 21.0203 7.3776 20.9635 7.23481 20.9631H6.52846C6.38546 20.9631 6.2483 21.0198 6.14706 21.1208C6.04583 21.2218 5.98879 21.3589 5.98846 21.5019V27.8615C5.98879 28.0045 6.04583 28.1415 6.14706 28.2425C6.2483 28.3435 6.38546 28.4002 6.52846 28.4002H7.23481C7.3776 28.3999 7.51444 28.343 7.61541 28.2421C7.71637 28.1411 7.77324 28.0043 7.77357 27.8615V25.5724H13.2418C13.4234 25.5714 13.6003 25.5155 13.7494 25.412C13.8986 25.3085 14.0129 25.1623 14.0773 24.9926L15.9629 19.9626L18.9547 21.204C19.2667 21.3192 19.6011 21.3611 19.932 21.3265C20.2628 21.2918 20.5813 21.1815 20.8627 21.0041L21.5678 20.5634L27.7039 23.2622C27.8981 23.3505 28.1081 23.3988 28.3213 23.4044C28.5346 23.4099 28.7468 23.3725 28.9453 23.2944C29.3538 23.1373 29.6836 22.8249 29.8627 22.4255L31.659 18.3289C31.7465 18.1329 31.7942 17.9215 31.7993 17.7069C31.8044 17.4923 31.7668 17.2788 31.6887 17.0788ZM29.9508 17.7765L28.2551 21.5491L23.4001 19.4151L27.6716 16.7449L29.9508 17.7765ZM19.9155 19.4896C19.8683 19.5204 19.815 19.5405 19.7592 19.5484C19.7035 19.5564 19.6466 19.552 19.5927 19.5355L8.06902 14.7637L8.03674 14.7513C7.9834 14.7334 7.93481 14.7037 7.8946 14.6643C7.8544 14.625 7.82363 14.577 7.8046 14.5241C7.78487 14.4656 7.777 14.4037 7.78148 14.3421C7.78596 14.2805 7.80268 14.2204 7.83067 14.1653L11.6926 7.40726C11.6926 7.40726 11.8863 7.11057 12.1668 7.21981L27.5252 13.9729C27.5747 13.9925 27.6198 14.0216 27.658 14.0587C27.6961 14.0959 27.7266 14.1402 27.7475 14.1891C27.7684 14.2381 27.7793 14.2907 27.7797 14.344C27.7802 14.3972 27.77 14.45 27.7498 14.4993C27.7189 14.5792 27.6627 14.6467 27.5897 14.6917L19.9192 19.4896H19.9155Z" fill="black"/>
</svg>
