<svg width="36" height="36" viewBox="0 0 36 36" fill="none" xmlns="http://www.w3.org/2000/svg">
<path d="M17.9999 11.509C18.8232 11.5095 19.6282 11.2657 20.3129 10.8086C20.9976 10.3514 21.5314 9.70142 21.8465 8.94083C22.1617 8.18024 22.2442 7.34325 22.0835 6.53578C21.9228 5.7283 21.5262 4.98664 20.9439 4.40465C20.3615 3.82266 19.6196 3.4265 18.8121 3.2663C18.0045 3.1061 17.1676 3.18907 16.4072 3.5047C15.6468 3.82034 14.9971 4.35445 14.5403 5.03944C14.0836 5.72444 13.8403 6.52953 13.8413 7.35284C13.8426 8.45514 14.2813 9.51188 15.0609 10.2911C15.8406 11.0703 16.8976 11.5083 17.9999 11.509ZM17.9999 4.92967C18.4793 4.92917 18.948 5.07087 19.3468 5.33684C19.7457 5.6028 20.0566 5.98108 20.2404 6.42381C20.4242 6.86654 20.4725 7.35384 20.3793 7.82405C20.2861 8.29426 20.0555 8.72626 19.7167 9.0654C19.3779 9.40453 18.9462 9.63557 18.4761 9.72927C18.0059 9.82297 17.5186 9.77513 17.0757 9.59179C16.6328 9.40846 16.2542 9.09788 15.9878 8.69934C15.7214 8.3008 15.5792 7.8322 15.5792 7.35284C15.5789 6.71016 15.8336 6.09362 16.2875 5.63859C16.7414 5.18357 17.3573 4.92726 17.9999 4.92594V4.92967Z" fill="black"/>
<path d="M22.5323 26.1285H21.744V13.6613C21.744 13.4309 21.6524 13.2098 21.4895 13.0469C21.3265 12.8839 21.1055 12.7924 20.875 12.7924H13.495C13.2646 12.7924 13.0435 12.8839 12.8806 13.0469C12.7176 13.2098 12.6261 13.4309 12.6261 13.6613V18.0707C12.6261 18.3012 12.7176 18.5222 12.8806 18.6852C13.0435 18.8481 13.2646 18.9397 13.495 18.9397H14.256V26.1285H13.4677C13.2373 26.1285 13.0162 26.22 12.8533 26.383C12.6903 26.546 12.5988 26.767 12.5988 26.9975V31.4068C12.5988 31.6373 12.6903 31.8583 12.8533 32.0213C13.0162 32.1842 13.2373 32.2758 13.4677 32.2758H22.5298C22.7602 32.2758 22.9813 32.1842 23.1442 32.0213C23.3072 31.8583 23.3987 31.6373 23.3987 31.4068V26.9975C23.3987 26.7674 23.3075 26.5468 23.1451 26.3839C22.9827 26.221 22.7623 26.1291 22.5323 26.1285ZM21.6633 30.5379H14.3392V27.8664H15.1274C15.3579 27.8664 15.5789 27.7749 15.7419 27.6119C15.9049 27.4489 15.9964 27.2279 15.9964 26.9975V18.0707C15.9964 17.8402 15.9049 17.6192 15.7419 17.4562C15.5789 17.2933 15.3579 17.2017 15.1274 17.2017H14.3665V14.5303H20.0085V26.9975C20.0085 27.2279 20.1001 27.4489 20.2631 27.6119C20.426 27.7749 20.647 27.8664 20.8775 27.8664H21.6658L21.6633 30.5379Z" fill="black"/>
</svg>
