<svg width="36" height="36" viewBox="0 0 36 36" fill="none" xmlns="http://www.w3.org/2000/svg">
<path d="M33.5954 18.6208C33.0703 18.087 32.3541 17.6277 31.4727 17.2553C30.6178 16.91 29.7266 16.6622 28.8161 16.5167C27.905 15.8016 24.6687 13.587 19.5815 13.5858C17.1347 13.5858 15.1461 13.6875 13.9829 13.8738L13.9047 13.8862C13.0357 14.0264 12.5528 14.1034 11.5461 15.4515L11.3077 15.7731C10.7727 16.4893 10.3506 17.0554 10.0763 17.5967L10.0378 17.6873L10.0216 17.7357C9.98591 17.8685 9.95978 18.0038 9.94343 18.1404C9.92605 18.2645 9.90992 18.3973 9.89378 18.5649C9.89378 18.622 9.88136 18.6779 9.8764 18.7313C9.79978 18.8092 9.72844 18.8921 9.66288 18.9795C9.31499 19.454 9.13306 20.0299 9.14523 20.6182C9.14523 21.1656 9.26936 22.5138 10.3866 23.2375C10.55 23.3378 10.722 23.4234 10.9005 23.4932C11.0933 23.9604 11.4173 24.3618 11.8332 24.649C12.2491 24.9362 12.7393 25.0968 13.2445 25.1115C13.7497 25.1262 14.2484 24.9944 14.6803 24.7319C15.1123 24.4694 15.459 24.0875 15.6786 23.6322H27.1862C27.3963 24.0678 27.723 24.4367 28.13 24.698C28.5371 24.9592 29.0085 25.1026 29.492 25.1122C29.9756 25.1219 30.4523 24.9974 30.8694 24.7526C31.2865 24.5078 31.6277 24.1522 31.855 23.7253C32.3255 23.7315 33.1026 23.7092 33.5507 23.5155C33.8965 23.377 34.1861 23.1272 34.3738 22.8055C34.4876 22.5976 34.5664 22.3723 34.6072 22.1389C34.6595 21.8197 34.6827 21.4964 34.6767 21.1731C34.6755 20.6971 34.5792 20.2261 34.3936 19.7878C34.2079 19.3496 33.9365 18.9528 33.5954 18.6208ZM26.1583 16.8481C24.8847 17.0132 23.0549 17.0778 20.8142 17.0368L20.7149 15.3299C22.6129 15.4647 24.4642 15.9806 26.1583 16.8469V16.8481ZM18.9844 15.2902L19.0825 16.9859C17.6822 16.9313 16.5314 16.8543 15.907 16.8084L15.7829 15.3982C16.6978 15.3336 17.7741 15.2976 18.9844 15.2889V15.2902ZM13.9717 23.1518C13.8211 23.3035 13.6225 23.3983 13.4098 23.42C13.1972 23.4416 12.9836 23.3888 12.8055 23.2706C12.6274 23.1524 12.4958 22.976 12.4332 22.7716C12.3706 22.5672 12.3808 22.3474 12.4621 22.1497C12.5435 21.952 12.6909 21.7887 12.8792 21.6875C13.0675 21.5863 13.2851 21.5536 13.4949 21.595C13.7046 21.6363 13.8935 21.7491 14.0294 21.9142C14.1652 22.0793 14.2396 22.2863 14.2398 22.5001C14.2403 22.621 14.2168 22.7409 14.1708 22.8527C14.1247 22.9645 14.0571 23.0662 13.9717 23.1518ZM30.1965 23.1518C30.0678 23.2809 29.9037 23.3688 29.725 23.4046C29.5462 23.4403 29.3609 23.4222 29.1924 23.3526C29.024 23.2829 28.88 23.1649 28.7787 23.0133C28.6774 22.8618 28.6233 22.6836 28.6233 22.5013C28.6233 22.3191 28.6774 22.1409 28.7787 21.9894C28.88 21.8378 29.024 21.7198 29.1924 21.6501C29.3609 21.5805 29.5462 21.5624 29.725 21.5981C29.9037 21.6338 30.0678 21.7218 30.1965 21.8509C30.2823 21.9358 30.3503 22.0369 30.3965 22.1484C30.4428 22.2598 30.4664 22.3794 30.4659 22.5001C30.4662 22.6211 30.4425 22.741 30.3963 22.8528C30.35 22.9647 30.2822 23.0663 30.1965 23.1518ZM32.9276 21.8732C32.9215 21.8992 32.9141 21.9249 32.9052 21.9502L32.873 21.9626C32.6251 22.0186 32.3709 22.0415 32.117 22.0309C32.0085 21.4357 31.6972 20.8964 31.2361 20.5048C30.775 20.1132 30.1924 19.8933 29.5875 19.8826C28.9826 19.872 28.3927 20.0711 27.918 20.4462C27.4434 20.8213 27.1133 21.3493 26.9838 21.9402H15.8772C15.761 21.4087 15.4822 20.9265 15.0795 20.5607C14.6767 20.1948 14.17 19.9635 13.6298 19.8988C13.0895 19.8341 12.5426 19.9393 12.0648 20.1996C11.5871 20.46 11.2023 20.8627 10.9638 21.3518C10.9393 21.2924 10.9185 21.2314 10.9018 21.1693C10.8606 20.9891 10.8426 20.8042 10.8484 20.6194C10.839 20.4848 10.8589 20.3497 10.9067 20.2235C10.9545 20.0973 11.029 19.9829 11.1252 19.8882L11.1488 19.8696L11.2357 19.7964V19.7864L11.407 19.6139L11.4256 19.5915C11.4923 19.4778 11.5326 19.3505 11.5436 19.2191V19.2018C11.5436 19.1633 11.5547 19.0565 11.5684 18.9187C11.5821 18.7809 11.6019 18.5587 11.628 18.3725C11.628 18.3328 11.6392 18.298 11.6441 18.2682C11.9508 17.7292 12.3021 17.2167 12.6943 16.7364C12.9165 16.4571 13.1499 16.1678 13.3336 15.9717C13.5271 15.7632 13.7843 15.6248 14.0648 15.5782L14.251 17.6885C14.2685 17.8908 14.357 18.0804 14.5008 18.2238C14.6446 18.3671 14.8345 18.455 15.0368 18.4718C15.1833 18.4855 18.6368 18.7784 22.0692 18.7784C25.02 18.7784 27.0968 18.5662 28.2451 18.1478C28.2817 18.1583 28.3191 18.1662 28.3568 18.1714H28.3953L28.4698 18.1826C28.543 18.1938 28.656 18.2111 28.8012 18.2384C29.1779 18.3089 29.5508 18.3984 29.9185 18.5066C30.5392 18.6915 31.6974 19.1049 32.3826 19.8063C32.5699 19.9813 32.7194 20.1926 32.8221 20.4274C32.9248 20.6622 32.9784 20.9156 32.9797 21.1718C32.9876 21.4067 32.9714 21.6417 32.9313 21.8732H32.9276Z" fill="black"/>
<path d="M2.99293 20.7619C2.98824 18.8564 3.70289 17.0192 4.99403 15.6177C5.09461 15.5104 5.15479 15.3715 5.1643 15.2248C5.17382 15.0781 5.13206 14.9326 5.04617 14.8133C5.02761 14.7883 5.00728 14.7646 4.98534 14.7425L4.61293 14.3701L4.59679 14.354C4.53643 14.2967 4.4653 14.2519 4.38752 14.2223C4.30975 14.1927 4.22687 14.1788 4.14369 14.1814C4.06077 14.1832 3.97905 14.2016 3.90336 14.2355C3.82767 14.2694 3.75954 14.3181 3.703 14.3788C2.10112 16.1191 1.21198 18.3979 1.21198 20.7632C1.21198 23.1285 2.10112 25.4073 3.703 27.1476C3.703 27.1476 3.71914 27.1637 3.72286 27.1675C3.78219 27.2255 3.85237 27.2713 3.92941 27.3022C4.00644 27.3332 4.08881 27.3486 4.17182 27.3477C4.25482 27.3468 4.33683 27.3295 4.41315 27.2969C4.48948 27.2642 4.55863 27.2169 4.61665 27.1575L4.98907 26.7851C5.10248 26.6672 5.16583 26.5099 5.16583 26.3463C5.16583 26.1827 5.10248 26.0254 4.98907 25.9075C3.69944 24.5049 2.98658 22.6673 2.99293 20.7619Z" fill="black"/>
<path d="M7.71262 17.8372C7.80957 17.7288 7.86641 17.5904 7.87364 17.4451C7.88087 17.2999 7.83805 17.1565 7.75235 17.039C7.73536 17.0146 7.71625 16.9918 7.69524 16.9707L7.32283 16.5983L7.29676 16.5735C7.17339 16.4609 7.01038 16.4018 6.84351 16.4093C6.67664 16.4167 6.51954 16.4901 6.40669 16.6132C5.39209 17.7558 4.83245 19.2312 4.83405 20.7592C4.83565 22.2872 5.39839 23.7615 6.41538 24.9019L6.44269 24.9304C6.50228 24.9884 6.57274 25.0341 6.65002 25.0648C6.7273 25.0955 6.80989 25.1107 6.89304 25.1094C6.97619 25.1082 7.05828 25.0905 7.13459 25.0574C7.2109 25.0244 7.27993 24.9766 7.33772 24.9168L7.70145 24.5444C7.71514 24.5309 7.72722 24.5159 7.73745 24.4997C7.83269 24.3813 7.88274 24.2329 7.87864 24.081C7.87455 23.9291 7.81658 23.7836 7.7151 23.6704C7.0083 22.8633 6.61847 21.8271 6.61801 20.7543C6.61756 19.6815 7.00651 18.6449 7.71262 17.8372Z" fill="black"/>
<path d="M16.3676 11.5696H23.4063C23.8013 11.5696 24.1802 11.4127 24.4596 11.1333C24.739 10.854 24.8959 10.4751 24.8959 10.08V3.04385C24.8959 2.64877 24.739 2.26987 24.4596 1.99051C24.1802 1.71114 23.8013 1.5542 23.4063 1.5542H16.3676C15.9726 1.5542 15.5937 1.71114 15.3143 1.99051C15.0349 2.26987 14.878 2.64877 14.878 3.04385V10.0825C14.8786 10.4771 15.0359 10.8554 15.3152 11.1342C15.5945 11.413 15.973 11.5696 16.3676 11.5696ZM16.575 3.2524H23.1989V9.87516H16.575V3.2524Z" fill="black"/>
<path d="M20.1761 4.27057H18.7448C18.6296 4.27057 18.5191 4.31634 18.4376 4.39783C18.3561 4.47931 18.3104 4.58982 18.3104 4.70505V8.42174C18.3104 8.53697 18.3561 8.64749 18.4376 8.72897C18.5191 8.81045 18.6296 8.85622 18.7448 8.85622H18.9931C19.1084 8.85622 19.2189 8.81045 19.3003 8.72897C19.3818 8.64749 19.4276 8.53697 19.4276 8.42174V7.61733H20.2345C20.4683 7.61725 20.6995 7.56823 20.9132 7.4734C21.1269 7.37858 21.3183 7.24006 21.4753 7.06676C21.6322 6.89346 21.7511 6.68922 21.8243 6.46719C21.8975 6.24516 21.9235 6.01026 21.9004 5.7776C21.8197 4.93222 21.0625 4.27057 20.1761 4.27057ZM20.2357 6.50505H19.4313V5.38781H20.2345C20.3826 5.38781 20.5247 5.44666 20.6295 5.55143C20.7343 5.65619 20.7931 5.79828 20.7931 5.94643C20.7931 6.09459 20.7343 6.23667 20.6295 6.34144C20.5247 6.4462 20.3826 6.50505 20.2345 6.50505H20.2357Z" fill="black"/>
</svg>
