<svg width="36" height="36" viewBox="0 0 36 36" fill="none" xmlns="http://www.w3.org/2000/svg">
<path d="M19.3974 12.9999C16.7888 13.0963 10.3188 13.83 10.3188 19.2932C10.3188 25.1579 17.7262 25.3988 20.1472 21.6068C20.8958 22.4984 21.7065 23.3359 22.5732 24.1131L25.6163 21.114C25.6163 21.114 23.8859 19.7615 23.8859 18.2865V10.4082C23.8859 9.05577 22.574 6 17.8716 6C13.1692 6 10.657 8.94588 10.657 11.5866L14.5935 11.9509C15.4659 9.29668 17.4963 9.29668 17.4963 9.29668C19.6763 9.29668 19.3974 10.8951 19.3974 12.9999ZM19.3974 17.6491C19.3974 21.9339 14.8877 21.2915 14.8877 18.5705C14.8877 16.0422 17.5927 15.5333 19.3974 15.475V17.6491ZM26.6839 26.4064C25.4402 27.5922 23.9739 28.5199 22.3697 29.1358C20.7654 29.7517 19.0551 30.0436 17.3374 29.9947C11.7406 29.9947 7.45581 26.1655 6.14305 24.5848C5.77873 24.1723 6.19631 23.9796 6.43722 24.1402C10.3628 26.5239 16.4963 30.4495 26.3863 25.7632C26.7887 25.5654 27.0989 25.8705 26.6839 26.4064ZM28.8157 26.5239C28.5685 27.1565 28.1803 27.7243 27.6805 28.1841C27.3863 28.425 27.1733 28.3286 27.3322 27.9804C27.4911 27.6321 28.366 25.4901 28.0085 25.0345C27.6509 24.5789 26.0271 24.8046 25.4379 24.8654C24.8487 24.9263 24.7414 24.9728 24.6881 24.8494C24.5647 24.5442 25.8504 24.0193 26.6966 23.9119C27.5427 23.8046 28.8944 23.8688 29.1606 24.2171C29.2816 25.0041 29.1601 25.8093 28.8124 26.5256L28.8157 26.5239Z" fill="black"/>
</svg>
