<svg width="36" height="36" viewBox="0 0 36 36" fill="none" xmlns="http://www.w3.org/2000/svg">
<path d="M13.1425 24.2391C13.2172 24.3784 13.3187 24.5016 13.4411 24.6016C13.5636 24.7016 13.7045 24.7764 13.8559 24.8219C14.0073 24.8673 14.1662 24.8824 14.3235 24.8663C14.4808 24.8503 14.6333 24.8033 14.7724 24.7282L25.3986 19.0178C25.5374 18.9431 25.6602 18.8418 25.7598 18.7196C25.8595 18.5974 25.9341 18.4568 25.9794 18.3058C26.0247 18.1548 26.0398 17.9963 26.0239 17.8395C26.0079 17.6826 25.9612 17.5304 25.8865 17.3916L22.8575 11.7607C22.7826 11.6215 22.6811 11.4985 22.5586 11.3986C22.4362 11.2987 22.2953 11.2239 22.1439 11.1784C21.9925 11.133 21.8337 11.1179 21.6765 11.1339C21.5192 11.1498 21.3667 11.1967 21.2276 11.2716L10.6014 16.982C10.4625 17.0567 10.3398 17.1581 10.2401 17.2802C10.1405 17.4024 10.0659 17.543 10.0206 17.694C9.97528 17.845 9.96017 18.0035 9.97611 18.1603C9.99205 18.3172 10.0387 18.4694 10.1135 18.6082L13.1425 24.2391ZM11.8403 18.2482L21.6 12.9959L24.1597 17.7516L14.4 23.0039L11.8403 18.2482Z" fill="black"/>
<path d="M33.6724 16.8244L31.2455 12.312L29.8589 13.0568C29.563 13.215 29.2165 13.2491 28.8955 13.1518C28.5744 13.0545 28.3052 12.8337 28.147 12.5379C27.9888 12.2426 27.954 11.8967 28.0504 11.5758C28.1467 11.255 28.3662 10.9853 28.6609 10.826L30.0488 10.0812L27.6219 5.57376C27.3347 5.04048 26.8476 4.64301 26.2676 4.46867C25.6875 4.29433 25.062 4.35738 24.5284 4.64396L3.25737 16.082C2.72409 16.3692 2.32662 16.8563 2.15228 17.4364C1.97794 18.0164 2.04099 18.642 2.32757 19.1755L4.75447 23.688L6.14109 22.9431C6.43691 22.785 6.78344 22.7508 7.10447 22.8481C7.4255 22.9454 7.69473 23.1662 7.85295 23.462C8.01116 23.7573 8.04591 24.1033 7.94959 24.4241C7.85326 24.745 7.63371 25.0146 7.33902 25.1739L5.95116 25.9187L8.37805 30.4262C8.51964 30.6908 8.7121 30.9249 8.94439 31.115C9.17667 31.305 9.44422 31.4473 9.73165 31.5337C10.0191 31.6201 10.3208 31.6489 10.6193 31.6184C10.9179 31.5879 11.2075 31.4987 11.4716 31.356L32.7426 19.9179C33.0069 19.7759 33.2406 19.5833 33.4304 19.351C33.6202 19.1186 33.7623 18.8512 33.8487 18.5638C33.935 18.2765 33.9639 17.975 33.9336 17.6766C33.9034 17.3781 33.8146 17.0885 33.6724 16.8244ZM9.60577 24.9169C9.77038 24.3632 9.77134 23.7736 9.60853 23.2193C9.44572 22.665 9.12609 22.1696 8.68816 21.7928C8.25022 21.416 7.71267 21.1739 7.14027 21.0956C6.56788 21.0173 5.98506 21.1063 5.46205 21.3517L3.84826 18.36C3.77905 18.2303 3.76397 18.0786 3.8063 17.9378C3.84864 17.7971 3.94495 17.6789 4.07419 17.6089L25.3477 6.16714C25.4116 6.13218 25.4819 6.11043 25.5544 6.10318C25.6269 6.09593 25.7002 6.10332 25.7698 6.12493C25.8396 6.14573 25.9046 6.18013 25.961 6.22615C26.0175 6.27217 26.0643 6.32889 26.0987 6.39307L27.7125 9.38479C27.0713 9.78898 26.6073 10.4213 26.414 11.1542C26.2207 11.8871 26.3126 12.6661 26.6711 13.3339C27.0295 14.0017 27.628 14.5087 28.3456 14.7527C29.0632 14.9966 29.8467 14.9593 30.5379 14.6482L32.1517 17.64C32.2209 17.7696 32.236 17.9214 32.1936 18.0621C32.1513 18.2028 32.055 18.3211 31.9258 18.391L10.6523 29.8328C10.5883 29.8677 10.518 29.8895 10.4455 29.8967C10.373 29.904 10.2998 29.8966 10.2302 29.875C10.0896 29.833 9.97127 29.7371 9.90122 29.6081L8.28743 26.6151C8.92292 26.2329 9.393 25.6273 9.60577 24.9169Z" fill="black"/>
</svg>
