<svg width="36" height="36" viewBox="0 0 36 36" fill="none" xmlns="http://www.w3.org/2000/svg">
<path d="M31.3846 27.391L29.9421 24.0665C29.8244 23.826 29.6264 23.6341 29.3822 23.5241L28.4313 23.1517C29.1924 22.5764 29.7982 21.8207 30.194 20.9527C30.5898 20.0847 30.7633 19.1318 30.6986 18.18C30.6339 17.2282 30.3332 16.3075 29.8236 15.501C29.3139 14.6946 28.6115 14.0277 27.7796 13.5608L27.7585 13.5483V13.526C27.8604 13.1201 27.9121 12.7031 27.9124 12.2846C27.9111 10.9453 27.3785 9.6611 26.4316 8.71391C25.4846 7.76672 24.2006 7.23385 22.8612 7.2322C22.1707 7.23162 21.4876 7.37451 20.8552 7.65179L20.8328 7.66172L20.8179 7.64186C19.8651 6.33986 18.5338 5.36355 17.0056 4.84616C15.4774 4.32876 13.8268 4.29549 12.279 4.75086C10.7312 5.20624 9.36163 6.1281 8.35711 7.39064C7.3526 8.65317 6.76211 10.1949 6.6662 11.8054V11.8253L6.64634 11.8328C5.23303 12.363 4.05056 13.3723 3.30495 14.6848C2.55935 15.9973 2.29789 17.5299 2.56613 19.0153C2.83436 20.5008 3.61529 21.8451 4.77284 22.814C5.93039 23.7828 7.39118 24.3148 8.90069 24.3173H9.02482L9.06455 24.3719C9.8627 25.4751 11.0132 26.2731 12.326 26.6342C13.6389 26.9953 15.0356 26.8979 16.2857 26.3581H16.2943C16.5973 26.2189 16.8898 26.0579 17.1695 25.8765C17.2438 25.8358 17.3254 25.8104 17.4096 25.8019C17.4939 25.7933 17.579 25.8018 17.6599 25.8268L18.7659 26.2638C19.0194 26.3498 19.2949 26.3454 19.5455 26.2514L20.4046 25.879C20.454 25.8577 20.5098 25.8569 20.5598 25.8767C20.6098 25.8965 20.6499 25.9352 20.6714 25.9845L21.2177 27.2457C21.2719 27.3703 21.3733 27.4682 21.4997 27.518C21.6261 27.5678 21.7671 27.5654 21.8917 27.5114L23.153 26.9652C23.1773 26.9545 23.2035 26.9488 23.2301 26.9483C23.2567 26.9479 23.2831 26.9527 23.3078 26.9625C23.3325 26.9723 23.355 26.9869 23.374 27.0055C23.3931 27.0241 23.4082 27.0462 23.4186 27.0707L23.9661 28.3307C24.0201 28.4555 24.1214 28.5537 24.2478 28.6037C24.3742 28.6538 24.5154 28.6516 24.6401 28.5976L25.9014 28.0514C25.9505 28.0301 26.0059 28.0292 26.0557 28.0487C26.1055 28.0682 26.1455 28.1067 26.167 28.1557L26.7132 29.4169C26.7683 29.5411 26.8699 29.6387 26.9963 29.6886C27.1226 29.7385 27.2635 29.7368 27.3886 29.6838L31.1127 28.07C31.237 28.0155 31.3347 27.914 31.3845 27.7877C31.4343 27.6614 31.4321 27.5206 31.3783 27.3959L31.3846 27.391ZM4.176 17.8758C4.17816 16.7322 4.59419 15.628 5.34721 14.7672C6.10023 13.9065 7.13935 13.3474 8.27255 13.1933C8.31522 13.1874 8.35387 13.165 8.38012 13.1308C8.40637 13.0967 8.41812 13.0536 8.41282 13.0108C8.38266 12.7716 8.3669 12.5307 8.36565 12.2896C8.36613 10.8703 8.85956 9.49533 9.76158 8.39962C10.6636 7.3039 11.9182 6.55551 13.3109 6.28239C14.7036 6.00927 16.148 6.22838 17.397 6.90227C18.6461 7.57615 19.6223 8.66295 20.1588 9.97689C20.1692 10.0022 20.1859 10.0244 20.2071 10.0416C20.2284 10.0588 20.2537 10.0704 20.2806 10.0753C20.3075 10.0803 20.3352 10.0784 20.3612 10.0699C20.3872 10.0613 20.4106 10.0465 20.4294 10.0265C20.7393 9.68914 21.1162 9.42014 21.536 9.23673C21.9558 9.05333 22.4093 8.95957 22.8674 8.96145C23.4909 8.96142 24.1018 9.13652 24.6306 9.46678C25.1594 9.79704 25.5848 10.2692 25.8583 10.8294C26.1318 11.3897 26.2425 12.0155 26.1777 12.6356C26.1129 13.2556 25.8752 13.845 25.4917 14.3366C25.4746 14.3592 25.4635 14.3857 25.4596 14.4138C25.4557 14.4418 25.4591 14.4704 25.4694 14.4968C25.4797 14.5228 25.4965 14.5457 25.5182 14.5633C25.54 14.5809 25.5659 14.5926 25.5935 14.5973C26.4709 14.7374 27.2773 15.1637 27.8871 15.8097C28.497 16.4558 28.8761 17.2855 28.9653 18.1695C29.0546 19.0534 28.849 19.9421 28.3806 20.6971C27.9122 21.452 27.2072 22.0309 26.3756 22.3435L20.0297 19.8347C19.9534 19.7976 19.8854 19.7455 19.8297 19.6815C19.774 19.6175 19.7318 19.5429 19.7057 19.4623C19.6254 19.1359 19.5208 18.816 19.3928 18.5052C18.7606 17.0528 17.5782 15.9104 16.1049 15.3286C14.6315 14.7468 12.9876 14.7731 11.5337 15.4017H11.5212C10.1923 15.9831 9.11971 17.0274 8.50316 18.3404C7.88661 19.6535 7.76804 21.1457 8.16951 22.5397C7.05815 22.3638 6.04579 21.7978 5.31396 20.9431C4.58213 20.0884 4.17869 19.001 4.176 17.8758ZM29.1401 26.9006C29.1199 26.9501 29.0812 26.9898 29.0321 27.0111L28.039 27.4394C27.9898 27.4607 27.9341 27.4617 27.8841 27.4421C27.8342 27.4226 27.7939 27.3841 27.7721 27.3351L27.2321 26.0689C27.1779 25.944 27.0763 25.8458 26.9497 25.7958C26.8231 25.7457 26.6818 25.748 26.5568 25.802L25.2968 26.3494C25.2474 26.3703 25.1917 26.371 25.1418 26.3512C25.0919 26.3315 25.0517 26.293 25.0299 26.2439L24.4837 24.9827C24.4292 24.8584 24.3278 24.7606 24.2015 24.7109C24.0752 24.6611 23.9343 24.6633 23.8097 24.717L22.5472 25.2632C22.4981 25.2845 22.4426 25.2854 22.3928 25.2659C22.3431 25.2464 22.303 25.2079 22.2815 25.159L21.7341 23.8977C21.7076 23.8358 21.669 23.7797 21.6206 23.7328C21.5722 23.686 21.515 23.6492 21.4523 23.6246C21.3258 23.5751 21.1849 23.5774 21.06 23.6308L19.3978 24.3521C19.2233 24.4145 19.033 24.4175 18.8566 24.3608L17.491 23.8232C17.2874 23.7438 16.9858 23.7326 16.8294 23.8704C16.7375 23.9499 16.5364 24.11 16.3812 24.2254C16.1263 24.4131 15.8536 24.5753 15.5669 24.7096C14.5517 25.1511 13.4027 25.1712 12.3727 24.7656C11.3426 24.3599 10.5159 23.5617 10.0744 22.5465C9.63291 21.5313 9.61277 20.3823 10.0184 19.3522C10.4241 18.3222 11.2223 17.4955 12.2375 17.054H12.2462C13.262 16.6147 14.4106 16.5965 15.4398 17.0034C16.469 17.4102 17.2947 18.2089 17.7356 19.2239C17.8526 19.5177 17.9411 19.822 18 20.1326C18.0335 20.3238 18.072 20.577 18.0832 20.6987C18.1043 20.9072 18.3314 21.1046 18.535 21.1853L28.1396 24.9802C28.307 25.058 28.444 25.1889 28.5294 25.3526L29.1314 26.7405C29.1544 26.7887 29.1575 26.8439 29.1401 26.8944V26.9006Z" fill="black"/>
<path d="M12.1282 19.1892C11.8852 19.2953 11.6791 19.4711 11.5359 19.6943C11.3928 19.9175 11.3191 20.1781 11.3241 20.4432C11.3291 20.7083 11.4126 20.966 11.564 21.1836C11.7154 21.4013 11.928 21.5692 12.1748 21.666C12.4216 21.7629 12.6916 21.7844 12.9507 21.7278C13.2097 21.6712 13.4461 21.5391 13.6301 21.3481C13.814 21.1571 13.9372 20.9159 13.9841 20.655C14.031 20.394 13.9994 20.125 13.8934 19.8819C13.823 19.7205 13.7215 19.5746 13.5947 19.4524C13.4678 19.3302 13.3182 19.2342 13.1543 19.1699C12.9904 19.1056 12.8154 19.0742 12.6393 19.0775C12.4632 19.0808 12.2896 19.1188 12.1282 19.1892Z" fill="black"/>
</svg>
