<svg width="36" height="36" viewBox="0 0 36 36" fill="none" xmlns="http://www.w3.org/2000/svg">
<path d="M30.5701 21.4869L21.7153 6.1497C21.3432 5.48974 20.8021 4.94077 20.1476 4.55919C19.4931 4.17761 18.7488 3.97719 17.9912 3.97852C17.237 3.977 16.4961 4.17628 15.8444 4.55589C15.1927 4.9355 14.6539 5.48175 14.2832 6.13852L5.46195 21.4187C4.65132 22.8202 4.63395 24.4638 5.41353 25.8144C6.17077 27.1265 7.5636 27.9098 9.13767 27.9098H26.8733C27.6265 27.9144 28.3675 27.7193 29.0207 27.3442C29.6739 26.9691 30.2161 26.4276 30.5918 25.7748C30.9676 25.1219 31.1635 24.3812 31.1597 23.6279C31.1559 22.8747 30.9524 22.1359 30.5701 21.4869ZM29.0482 24.9045C28.8268 25.2849 28.5083 25.5997 28.1252 25.8165C27.7422 26.0333 27.3084 26.1444 26.8683 26.1384H9.13891C8.18802 26.1384 7.38733 25.6952 6.94167 24.9231C6.48484 24.1323 6.5047 23.1529 6.99505 22.305L15.8175 7.02363C16.0332 6.63664 16.348 6.31402 16.7295 6.08888C17.1111 5.86375 17.5457 5.7442 17.9887 5.74252C18.4363 5.74443 18.8753 5.86535 19.2608 6.09287C19.6463 6.32039 19.9643 6.64634 20.1822 7.03728L29.0357 22.372C29.2622 22.7551 29.3827 23.1915 29.3849 23.6366C29.3871 24.0816 29.2709 24.5192 29.0482 24.9045Z" fill="black"/>
<path d="M20.5772 16.73H19.4314L20.2408 14.3429C20.2589 14.292 20.265 14.2376 20.2585 14.1839C20.2521 14.1303 20.2332 14.0789 20.2035 14.0338C20.175 13.9876 20.1352 13.9496 20.0878 13.9233C20.0404 13.897 19.9871 13.8833 19.9329 13.8835H16.7115C16.6445 13.8842 16.5793 13.9055 16.5249 13.9446C16.4704 13.9837 16.4294 14.0387 16.4074 14.102L15.1176 17.6623C15.0984 17.7134 15.0913 17.7682 15.0969 17.8225C15.1025 17.8768 15.1207 17.9291 15.1499 17.9751C15.1785 18.0218 15.2187 18.0604 15.2665 18.0871C15.3143 18.1138 15.3682 18.1279 15.423 18.1278H16.6197L15.7507 21.9761C15.7341 22.0469 15.7404 22.1211 15.7687 22.1881C15.7971 22.255 15.846 22.3112 15.9084 22.3485C15.9594 22.3803 16.0183 22.3975 16.0784 22.3982C16.1225 22.3972 16.1658 22.3868 16.2055 22.3675C16.2451 22.3482 16.2801 22.3206 16.3081 22.2865L20.818 17.306C20.8627 17.2563 20.8925 17.195 20.904 17.1291C20.9154 17.0632 20.908 16.9955 20.8826 16.9336C20.859 16.8723 20.8169 16.8197 20.7622 16.7833C20.7075 16.7468 20.6429 16.7282 20.5772 16.73Z" fill="black"/>
</svg>
