<svg width="36" height="36" viewBox="0 0 36 36" fill="none" xmlns="http://www.w3.org/2000/svg">
<path d="M18 9.53113C16.8215 9.53113 15.6695 9.8806 14.6896 10.5353C13.7097 11.1901 12.946 12.1207 12.495 13.2095C12.044 14.2983 11.926 15.4964 12.1559 16.6522C12.3858 17.8081 12.9533 18.8698 13.7866 19.7031C14.62 20.5365 15.6817 21.104 16.8375 21.3339C17.9934 21.5638 19.1915 21.4458 20.2803 20.9948C21.3691 20.5438 22.2997 19.7801 22.9544 18.8002C23.6092 17.8203 23.9586 16.6683 23.9586 15.4898C23.9563 13.9101 23.3278 12.3959 22.2108 11.2789C21.0939 10.1619 19.5796 9.53343 18 9.53113ZM15.8772 11.8488C15.5815 12.7478 15.4062 13.682 15.3559 14.627H13.8662C13.9889 14.0492 14.2312 13.5035 14.5776 13.025C14.9239 12.5465 15.3667 12.1458 15.8772 11.8488ZM13.8699 16.3562H15.3596C15.41 17.3017 15.5854 18.2362 15.881 19.1357C15.3703 18.8385 14.9274 18.4377 14.5811 17.959C14.2347 17.4802 13.9925 16.9343 13.8699 16.3562ZM18 19.5938C17.671 19.1642 17.203 18.0358 17.0801 16.3562H18.9199C18.797 18.0358 18.329 19.1642 18 19.5938ZM17.0789 14.6282C17.203 12.9486 17.671 11.8202 18 11.3907C18.329 11.8202 18.797 12.9486 18.9199 14.6282H17.0789ZM20.1228 19.1369C20.4185 18.2375 20.5938 17.3029 20.6441 16.3575H22.1338C22.0111 16.9353 21.7688 17.481 21.4224 17.9595C21.0761 18.438 20.6333 18.8387 20.1228 19.1357V19.1369ZM20.6441 14.6282C20.5936 13.6832 20.4183 12.7491 20.1228 11.85C20.6327 12.1474 21.0747 12.5483 21.4204 13.0267C21.7661 13.5052 22.0078 14.0507 22.1301 14.6282H20.6441Z" fill="black"/>
<path d="M24.9343 5.3689H11.0656C10.2909 5.36988 9.54816 5.67807 9.00035 6.22588C8.45255 6.77369 8.14436 7.51639 8.14337 8.2911V27.7088C8.14436 28.4835 8.45255 29.2262 9.00035 29.774C9.54816 30.3218 10.2909 30.63 11.0656 30.631H24.9343C25.709 30.63 26.4517 30.3218 26.9995 29.774C27.5473 29.2262 27.8555 28.4835 27.8565 27.7088V8.2911C27.8555 7.51639 27.5473 6.77369 26.9995 6.22588C26.4517 5.67807 25.709 5.36988 24.9343 5.3689ZM26.1756 27.7137C26.1756 28.043 26.0449 28.3587 25.8121 28.5915C25.5793 28.8243 25.2635 28.9551 24.9343 28.9551H11.0656C10.7363 28.9551 10.4206 28.8243 10.1878 28.5915C9.95499 28.3587 9.8242 28.043 9.8242 27.7137V8.2911C9.8242 7.96187 9.95499 7.64612 10.1878 7.41332C10.4206 7.18051 10.7363 7.04972 11.0656 7.04972H24.9343C25.2635 7.04972 25.5793 7.18051 25.8121 7.41332C26.0449 7.64612 26.1756 7.96187 26.1756 8.2911V27.7137Z" fill="black"/>
<path d="M22.5037 24.033H13.4963C13.2658 24.033 13.0448 24.1245 12.8818 24.2875C12.7189 24.4504 12.6273 24.6715 12.6273 24.9019C12.6273 25.1324 12.7189 25.3534 12.8818 25.5164C13.0448 25.6793 13.2658 25.7709 13.4963 25.7709H22.5037C22.7342 25.7709 22.9552 25.6793 23.1182 25.5164C23.2811 25.3534 23.3727 25.1324 23.3727 24.9019C23.3727 24.6715 23.2811 24.4504 23.1182 24.2875C22.9552 24.1245 22.7342 24.033 22.5037 24.033Z" fill="black"/>
</svg>
