<svg width="36" height="36" viewBox="0 0 36 36" fill="none" xmlns="http://www.w3.org/2000/svg">
<path d="M18 20.5922C17.2075 20.5924 16.4329 20.8276 15.7741 21.2681C15.1153 21.7086 14.6019 22.3345 14.2988 23.0667C13.9957 23.799 13.9165 24.6046 14.0712 25.3819C14.226 26.1591 14.6077 26.873 15.1682 27.4333C15.7287 27.9936 16.4427 28.3751 17.22 28.5296C17.9972 28.6841 18.8029 28.6047 19.535 28.3014C20.2672 27.998 20.8929 27.4844 21.3332 26.8255C21.7735 26.1665 22.0084 25.3918 22.0084 24.5993C22.0071 23.5368 21.5843 22.5181 20.8329 21.7668C20.0814 21.0156 19.0626 20.5931 18 20.5922ZM18 26.7842C17.5679 26.7842 17.1455 26.656 16.7862 26.416C16.4269 26.1759 16.1469 25.8347 15.9815 25.4354C15.8161 25.0362 15.7729 24.5969 15.8572 24.1731C15.9415 23.7493 16.1496 23.36 16.4551 23.0544C16.7607 22.7489 17.15 22.5408 17.5738 22.4565C17.9976 22.3722 18.4369 22.4155 18.8361 22.5808C19.2353 22.7462 19.5766 23.0262 19.8166 23.3855C20.0567 23.7448 20.1848 24.1672 20.1848 24.5993C20.1839 25.1785 19.9534 25.7336 19.5438 26.1432C19.1343 26.5527 18.5792 26.7832 18 26.7842Z" fill="black"/>
<path d="M30.1532 12.6773L30.1358 12.6599C26.8263 9.61757 22.4948 7.9292 17.9994 7.9292C13.5041 7.9292 9.17261 9.61757 5.86309 12.6599L5.84695 12.6748C5.77854 12.7457 5.73875 12.8394 5.73523 12.9379C5.7334 12.9898 5.7419 13.0416 5.76023 13.0902C5.77855 13.1388 5.80634 13.1832 5.84199 13.221L6.59923 13.9658C6.67408 14.0374 6.77369 14.0774 6.8773 14.0774C6.9809 14.0774 7.08051 14.0374 7.15537 13.9658C10.1151 11.2532 13.9841 9.74839 17.9988 9.74839C22.0136 9.74839 25.8826 11.2532 28.8423 13.9658C28.9177 14.0383 29.0182 14.0788 29.1228 14.0788C29.2275 14.0788 29.328 14.0383 29.4034 13.9658L30.1482 13.2359C30.1867 13.2001 30.2176 13.1569 30.2389 13.1089C30.2602 13.0609 30.2716 13.0091 30.2724 12.9566C30.272 12.9044 30.2613 12.8529 30.2408 12.805C30.2203 12.757 30.1906 12.7136 30.1532 12.6773Z" fill="black"/>
<path d="M25.6854 17.3609C23.5686 15.4782 20.8342 14.4381 18.0012 14.4381C15.1683 14.4381 12.4339 15.4782 10.3171 17.3609C10.2405 17.4317 10.195 17.5299 10.1906 17.6341C10.1862 17.7383 10.2232 17.8401 10.2935 17.9171L10.3084 17.9332L11.0532 18.6631C11.1279 18.7339 11.2266 18.7738 11.3295 18.775C11.4323 18.7761 11.5319 18.7384 11.6081 18.6694C13.3774 17.1196 15.6493 16.2653 18.0012 16.2653C20.3532 16.2653 22.6251 17.1196 24.3944 18.6694C24.4706 18.7412 24.5714 18.7812 24.6762 18.7812C24.7809 18.7812 24.8817 18.7412 24.9579 18.6694L25.6966 17.9382C25.7341 17.9022 25.7642 17.8591 25.785 17.8114C25.8059 17.7637 25.8171 17.7123 25.818 17.6603C25.8189 17.6083 25.8095 17.5566 25.7904 17.5082C25.7713 17.4598 25.7428 17.4157 25.7065 17.3783L25.6854 17.3609Z" fill="black"/>
</svg>
