<svg width="36" height="36" viewBox="0 0 36 36" fill="none" xmlns="http://www.w3.org/2000/svg">
<path d="M14.7154 21.2452H13.7769C13.6905 21.2452 13.6205 21.3153 13.6205 21.4017V27.3454C13.6205 27.4318 13.6905 27.5018 13.7769 27.5018H14.7154C14.8018 27.5018 14.8718 27.4318 14.8718 27.3454V21.4017C14.8718 21.3153 14.8018 21.2452 14.7154 21.2452Z" fill="black"/>
<path d="M15.9667 21.2452H15.6538C15.5675 21.2452 15.4974 21.3153 15.4974 21.4017V27.3454C15.4974 27.4318 15.5675 27.5018 15.6538 27.5018H15.9667C16.0531 27.5018 16.1231 27.4318 16.1231 27.3454V21.4017C16.1231 21.3153 16.0531 21.2452 15.9667 21.2452Z" fill="black"/>
<path d="M17.2179 21.2452H16.9051C16.8187 21.2452 16.7487 21.3153 16.7487 21.4017V27.3454C16.7487 27.4318 16.8187 27.5018 16.9051 27.5018H17.2179C17.3043 27.5018 17.3743 27.4318 17.3743 27.3454V21.4017C17.3743 21.3153 17.3043 21.2452 17.2179 21.2452Z" fill="black"/>
<path d="M19.7205 21.2452H18.782C18.6956 21.2452 18.6256 21.3153 18.6256 21.4017V27.3454C18.6256 27.4318 18.6956 27.5018 18.782 27.5018H19.7205C19.8069 27.5018 19.8769 27.4318 19.8769 27.3454V21.4017C19.8769 21.3153 19.8069 21.2452 19.7205 21.2452Z" fill="black"/>
<path d="M22.2233 21.2452H21.2848C21.1984 21.2452 21.1284 21.3153 21.1284 21.4017V27.3454C21.1284 27.4318 21.1984 27.5018 21.2848 27.5018H22.2233C22.3096 27.5018 22.3797 27.4318 22.3797 27.3454V21.4017C22.3797 21.3153 22.3096 21.2452 22.2233 21.2452Z" fill="black"/>
<path d="M25.4122 10.3133L18.8689 6.20678V3.14802C18.8689 2.91755 18.7774 2.69653 18.6144 2.53357C18.4514 2.3706 18.2304 2.27905 17.9999 2.27905C17.7695 2.27905 17.5485 2.3706 17.3855 2.53357C17.2225 2.69653 17.131 2.91755 17.131 3.14802V6.20678L10.5877 10.3145C10.4194 10.4245 10.2805 10.5739 10.1832 10.7498C10.0858 10.9257 10.0329 11.1227 10.0291 11.3237V30.1654C10.0294 30.4432 10.1399 30.7095 10.3363 30.9059C10.5327 31.1023 10.799 31.2128 11.0768 31.2131H24.9231C25.2009 31.2128 25.4672 31.1023 25.6636 30.9059C25.86 30.7095 25.9705 30.4432 25.9708 30.1654V11.3237C25.9665 11.1227 25.9135 10.9256 25.8162 10.7496C25.7188 10.5736 25.5802 10.4238 25.4122 10.3133ZM24.2329 29.4802H11.767V11.6254L17.131 8.26002V10.6819C16.852 10.8684 16.6403 11.1396 16.5272 11.4555C16.4142 11.7715 16.4057 12.1154 16.5032 12.4365C16.6006 12.7576 16.7987 13.0389 17.0682 13.2388C17.3377 13.4387 17.6644 13.5466 17.9999 13.5466C18.3355 13.5466 18.6622 13.4387 18.9317 13.2388C19.2012 13.0389 19.3993 12.7576 19.4967 12.4365C19.5941 12.1154 19.5857 11.7715 19.4726 11.4555C19.3596 11.1396 19.1479 10.8684 18.8689 10.6819V8.26002L24.2329 11.6254V29.4802Z" fill="black"/>
</svg>
