<svg width="36" height="36" viewBox="0 0 36 36" fill="none" xmlns="http://www.w3.org/2000/svg">
<path d="M23.7923 9.03829H22.4007V5.31416C22.4007 5.08369 22.3092 4.86267 22.1462 4.6997C21.9833 4.53674 21.7622 4.44519 21.5318 4.44519C21.3013 4.44519 21.0803 4.53674 20.9173 4.6997C20.7544 4.86267 20.6628 5.08369 20.6628 5.31416V9.03829H17.8759V5.31416C17.8759 5.08369 17.7844 4.86267 17.6214 4.6997C17.4584 4.53674 17.2374 4.44519 17.0069 4.44519C16.7765 4.44519 16.5555 4.53674 16.3925 4.6997C16.2295 4.86267 16.138 5.08369 16.138 5.31416V9.03829H14.7389C14.5055 9.04189 14.283 9.13783 14.1201 9.30511C13.9573 9.4724 13.8673 9.69739 13.87 9.93085V13.3893C13.87 15.9217 15.624 18.1761 18.0423 18.7484L18.396 18.8328V27.222C18.4035 27.5582 18.3437 27.8925 18.2202 28.2053C18.0967 28.5181 17.912 28.8031 17.6768 29.0435C17.4417 29.2839 17.1609 29.475 16.8509 29.6054C16.5409 29.7358 16.208 29.803 15.8717 29.803C15.5354 29.803 15.2025 29.7358 14.8925 29.6054C14.5825 29.475 14.3017 29.2839 14.0666 29.0435C13.8315 28.8031 13.6467 28.5181 13.5232 28.2053C13.3997 27.8925 13.3399 27.5582 13.3474 27.222V23.7635C13.3474 20.9444 11.1923 18.5373 8.44143 18.2828C8.41288 18.2828 8.34957 18.2828 8.29371 18.2828C8.25398 18.2828 8.16957 18.2828 8.15467 18.2903C7.93943 18.326 7.74466 18.4391 7.60708 18.6085C7.4695 18.7778 7.39861 18.9916 7.40777 19.2096C7.41693 19.4276 7.50551 19.6347 7.65681 19.7919C7.8081 19.9491 8.01168 20.0455 8.22915 20.063H8.2515C8.3024 20.063 8.40171 20.0754 8.43398 20.0804C9.31953 20.2077 10.1291 20.6512 10.7132 21.3288C11.2973 22.0065 11.6165 22.8726 11.6119 23.7673V27.2257C11.6119 29.6241 13.5261 31.5706 15.8785 31.5706C18.2309 31.5706 20.1439 29.6191 20.1439 27.2257V18.8328L20.4989 18.7484C22.9159 18.1773 24.6712 15.923 24.6712 13.3893V9.93085C24.6724 9.81446 24.6505 9.699 24.6069 9.59108C24.5633 9.48317 24.4988 9.38492 24.4172 9.30199C24.3355 9.21906 24.2383 9.15308 24.1311 9.10782C24.0238 9.06257 23.9087 9.03894 23.7923 9.03829ZM22.9234 13.3893C22.9234 15.4388 21.2835 17.1135 19.2675 17.1135C17.2515 17.1135 15.6116 15.4451 15.6116 13.3955V10.8222H22.9234V13.3893Z" fill="black"/>
</svg>
