<svg width="36" height="36" viewBox="0 0 36 36" fill="none" xmlns="http://www.w3.org/2000/svg">
<path d="M28.3915 9.4517L18.9372 5.5128C18.6405 5.38896 18.3221 5.3252 18.0006 5.3252C17.679 5.3252 17.3607 5.38896 17.064 5.5128L7.61706 9.45045C7.17094 9.63329 6.78943 9.94492 6.52123 10.3456C6.25302 10.7462 6.1103 11.2177 6.11127 11.6998C6.11127 16.1936 7.31789 20.4267 9.60079 23.9423C11.5733 26.9812 14.2237 29.3076 17.0627 30.4906C17.6632 30.7352 18.3355 30.7352 18.9359 30.4906C23.0027 28.7998 29.8874 22.9306 29.8874 11.6998C29.8886 11.2191 29.7471 10.7489 29.4808 10.3486C29.2145 9.94843 28.8354 9.63626 28.3915 9.4517ZM28.1594 12.0238C28.1122 15.2241 27.1986 18.7571 25.6506 21.7153C23.8543 25.1477 21.3678 27.6081 18.458 28.8284L18 29.0196L17.5444 28.8284C14.6346 27.6094 12.1456 25.1502 10.3444 21.7165C8.79389 18.7583 7.87775 15.2254 7.82934 12.0238L7.82065 11.2256L18 6.98632L28.1793 11.2256L28.1594 12.0238Z" fill="black"/>
<path d="M14.3068 16.8433C14.2354 16.7719 14.1385 16.7318 14.0375 16.7318C13.9364 16.7318 13.8395 16.7719 13.7681 16.8433L13.0158 17.5956C12.9448 17.667 12.9049 17.7636 12.9049 17.8644C12.9049 17.9651 12.9448 18.0617 13.0158 18.1331L16.5612 21.6797C16.5964 21.7153 16.6383 21.7434 16.6846 21.7624C16.7309 21.7814 16.7805 21.7908 16.8306 21.7902C16.9255 21.7918 17.0173 21.7561 17.0863 21.6909L24.0541 14.2178C24.1253 14.1462 24.1652 14.0493 24.1652 13.9484C24.1652 13.8475 24.1253 13.7507 24.0541 13.679L23.3031 12.9342C23.2344 12.866 23.1424 12.8264 23.0456 12.8234C22.9488 12.8204 22.8545 12.8543 22.7817 12.9181L16.8827 19.4229L14.3068 16.8433Z" fill="black"/>
</svg>
