<svg width="36" height="36" viewBox="0 0 36 36" fill="none" xmlns="http://www.w3.org/2000/svg">
<path d="M18.6357 15.671C18.5055 15.5418 18.3295 15.4692 18.146 15.4692C17.9625 15.4692 17.7865 15.5418 17.6563 15.671L13.011 20.3175C12.8812 20.4474 12.8082 20.6235 12.8082 20.8072C12.8082 20.9909 12.8812 21.167 13.011 21.2969L13.2804 21.5663C13.4103 21.6958 13.5861 21.7685 13.7695 21.7685C13.9529 21.7685 14.1288 21.6958 14.2586 21.5663L17.2702 18.5547V27.0756C17.2705 27.2588 17.3435 27.4345 17.4731 27.5641C17.6027 27.6937 17.7784 27.7667 17.9616 27.767H18.3403C18.5236 27.7667 18.6992 27.6937 18.8288 27.5641C18.9584 27.4345 19.0314 27.2588 19.0317 27.0756V18.5547L22.0421 21.5663C22.1723 21.6956 22.3483 21.7681 22.5318 21.7681C22.7153 21.7681 22.8913 21.6956 23.0215 21.5663L23.2909 21.2969C23.4207 21.167 23.4937 20.9909 23.4937 20.8072C23.4937 20.6235 23.4207 20.4474 23.2909 20.3175L18.6357 15.671Z" fill="black"/>
<path d="M28.7429 14.9783C28.8408 14.5877 28.8904 14.1867 28.8907 13.7841C28.8894 12.4931 28.376 11.2554 27.4633 10.3424C26.5506 9.42945 25.313 8.9158 24.022 8.91415C23.3525 8.9125 22.69 9.05033 22.0767 9.31884C21.159 8.06824 19.8781 7.13088 18.4085 6.63442C16.9389 6.13795 15.352 6.10652 13.8639 6.54439C12.3758 6.98227 11.0588 7.86816 10.0923 9.08145C9.12574 10.2947 8.55667 11.7764 8.46253 13.3248C7.1008 13.8351 5.96148 14.8074 5.24338 16.0719C4.52529 17.3365 4.274 18.8131 4.53337 20.244C4.79275 21.6749 5.54631 22.9693 6.66257 23.9013C7.77884 24.8334 9.18693 25.3439 10.6412 25.3438H11.777C11.9139 25.3368 12.0429 25.2775 12.1374 25.1782C12.2319 25.0789 12.2846 24.9471 12.2847 24.81V24.1695C12.2846 24.0324 12.2319 23.9006 12.1374 23.8013C12.0429 23.7019 11.9139 23.6427 11.777 23.6357H10.6412C9.50108 23.6351 8.40377 23.2015 7.57117 22.4227C6.73856 21.6439 6.23278 20.578 6.15614 19.4405C6.0795 18.303 6.43771 17.1789 7.15831 16.2954C7.87892 15.4119 8.90815 14.8351 10.0378 14.6816C10.0865 14.6751 10.1305 14.6497 10.1605 14.6109C10.1905 14.5721 10.204 14.523 10.198 14.4743C10.171 14.2461 10.1577 14.0164 10.1583 13.7866C10.1558 12.4322 10.6246 11.1192 11.4842 10.0727C12.3438 9.02613 13.5408 8.31123 14.8698 8.05057C16.1988 7.7899 17.5771 7.9997 18.7684 8.644C19.9596 9.2883 20.8896 10.327 21.3989 11.5819C21.4108 11.6109 21.4298 11.6364 21.4541 11.6561C21.4784 11.6758 21.5074 11.689 21.5382 11.6946C21.569 11.7002 21.6007 11.6979 21.6304 11.6879C21.6601 11.678 21.6868 11.6607 21.7081 11.6377C22.0024 11.3178 22.3601 11.0627 22.7585 10.8887C23.1569 10.7147 23.5872 10.6257 24.022 10.6273C24.6136 10.6277 25.1931 10.7942 25.6948 11.1078C26.1964 11.4213 26.6 11.8694 26.8595 12.401C27.1191 12.9325 27.2243 13.5263 27.1631 14.1147C27.1019 14.7031 26.8768 15.2625 26.5134 15.7293C26.4936 15.7549 26.4808 15.7852 26.4763 15.8172C26.4717 15.8492 26.4756 15.8818 26.4875 15.9119C26.4994 15.942 26.5189 15.9684 26.5441 15.9886C26.5694 16.0089 26.5994 16.0222 26.6314 16.0273C27.5815 16.1798 28.4394 16.6846 29.0342 17.4412C29.6289 18.1977 29.917 19.1505 29.8409 20.1099C29.7648 21.0692 29.3302 21.9647 28.6237 22.6181C27.9171 23.2715 26.9904 23.6348 26.0281 23.6357H24.5247C24.3839 23.6376 24.2496 23.695 24.1508 23.7954C24.052 23.8958 23.9968 24.0311 23.9972 24.1719V24.81C23.9968 24.9509 24.052 25.0861 24.1508 25.1865C24.2496 25.2869 24.3839 25.3443 24.5247 25.3463H26.0281C27.2528 25.3467 28.4431 24.9411 29.4128 24.193C30.3825 23.4449 31.0768 22.3964 31.3871 21.2116C31.6974 20.0268 31.6062 18.7726 31.1278 17.6452C30.6493 16.5178 29.8106 15.5808 28.7429 14.9808V14.9783Z" fill="black"/>
</svg>
