<svg width="36" height="36" viewBox="0 0 36 36" fill="none" xmlns="http://www.w3.org/2000/svg">
<path d="M17.9999 4.59308C15.3483 4.59308 12.7562 5.37938 10.5514 6.85255C8.34669 8.32572 6.6283 10.4196 5.61356 12.8694C4.59883 15.3192 4.33333 18.0148 4.85063 20.6155C5.36794 23.2162 6.64482 25.6051 8.51981 27.4801C10.3948 29.3551 12.7837 30.632 15.3844 31.1493C17.985 31.6666 20.6807 31.4011 23.1305 30.3863C25.5803 29.3716 27.6742 27.6532 29.1473 25.4484C30.6205 23.2437 31.4068 20.6516 31.4068 18C31.4068 14.4442 29.9943 11.0341 27.48 8.51987C24.9657 6.00559 21.5556 4.59308 17.9999 4.59308ZM29.4132 20.7124C29.3927 20.7296 29.368 20.7412 29.3417 20.746C29.3153 20.7508 29.2882 20.7486 29.263 20.7397L28.8074 20.592C28.7851 20.5846 28.7616 20.5817 28.7383 20.5835C28.7149 20.5853 28.6921 20.5917 28.6712 20.6023C28.6503 20.6129 28.6318 20.6275 28.6166 20.6454C28.6014 20.6632 28.5898 20.6839 28.5827 20.7062L28.1519 22.0295C28.1446 22.0517 28.1417 22.0752 28.1435 22.0986C28.1452 22.122 28.1516 22.1447 28.1622 22.1656C28.1728 22.1865 28.1875 22.2051 28.2053 22.2203C28.2232 22.2355 28.2438 22.247 28.2661 22.2542L28.7254 22.4031C28.75 22.4109 28.7722 22.4246 28.7902 22.443C28.8081 22.4614 28.8213 22.484 28.8285 22.5087C28.5977 23.0618 28.3246 23.5964 28.0116 24.1076C27.9873 24.1161 27.9612 24.1186 27.9356 24.1147C27.9101 24.1108 27.8859 24.1007 27.8652 24.0852L27.4754 23.8034C27.4371 23.776 27.3895 23.7648 27.3431 23.7723C27.2966 23.7797 27.2549 23.8052 27.2271 23.8431L26.409 24.9691C26.3816 25.0074 26.3704 25.0549 26.3779 25.1014C26.3853 25.1479 26.4108 25.1895 26.4487 25.2174L26.8323 25.4954C26.8545 25.5111 26.8723 25.5322 26.8838 25.5568C26.8954 25.5814 26.9003 25.6086 26.8981 25.6357C26.51 26.0872 26.0884 26.5088 25.6369 26.8969C25.6102 26.8988 25.5835 26.8937 25.5593 26.8822C25.5352 26.8706 25.5144 26.8531 25.4991 26.8311L25.221 26.4476C25.193 26.4099 25.1514 26.3846 25.105 26.3772C25.0586 26.3697 25.0111 26.3807 24.9727 26.4078L23.8468 27.2259C23.8091 27.2539 23.7838 27.2956 23.7764 27.342C23.769 27.3883 23.78 27.4358 23.8071 27.4742L24.0889 27.8627C24.104 27.8831 24.114 27.9069 24.1179 27.932C24.1217 27.9571 24.1195 27.9827 24.1112 28.0067C23.6003 28.3205 23.0657 28.594 22.5123 28.8248C22.4878 28.8176 22.4655 28.8043 22.4473 28.7864C22.4291 28.7684 22.4156 28.7462 22.4081 28.7218L22.2591 28.2625C22.2441 28.2175 22.2119 28.1803 22.1696 28.1589C22.1273 28.1375 22.0783 28.1337 22.0332 28.1483L20.7099 28.579C20.665 28.5938 20.6278 28.6257 20.6064 28.6678C20.585 28.7099 20.5811 28.7588 20.5956 28.8037L20.7434 29.2593C20.7522 29.2845 20.7544 29.3115 20.7499 29.3378C20.7453 29.3641 20.7341 29.3888 20.7173 29.4095C20.1356 29.5477 19.5443 29.641 18.9483 29.6888C18.9262 29.6742 18.9081 29.6543 18.8958 29.6308C18.8834 29.6074 18.8772 29.5812 18.8776 29.5547V29.0756C18.8772 29.0283 18.8583 28.983 18.8249 28.9495C18.7914 28.9161 18.7461 28.8971 18.6988 28.8968H17.3035C17.2562 28.8971 17.2109 28.9161 17.1775 28.9495C17.144 28.983 17.1251 29.0283 17.1247 29.0756V29.5547C17.1252 29.5812 17.1189 29.6074 17.1065 29.6308C17.0942 29.6543 17.0761 29.6742 17.054 29.6888C16.4589 29.6411 15.8683 29.5478 15.2875 29.4095C15.2703 29.389 15.2587 29.3644 15.2539 29.338C15.2491 29.3117 15.2513 29.2845 15.2602 29.2593L15.4079 28.8037C15.4153 28.7815 15.4181 28.758 15.4164 28.7346C15.4146 28.7112 15.4082 28.6885 15.3976 28.6676C15.387 28.6467 15.3723 28.6281 15.3545 28.6129C15.3367 28.5977 15.316 28.5862 15.2937 28.579L13.9716 28.1483C13.9265 28.1337 13.8775 28.1375 13.8352 28.1589C13.7929 28.1803 13.7608 28.2175 13.7457 28.2625L13.5955 28.7218C13.5878 28.7463 13.5744 28.7686 13.5562 28.7867C13.538 28.8049 13.5157 28.8184 13.4912 28.826C12.9376 28.5944 12.4027 28.3205 11.8911 28.0067C11.8822 27.9826 11.8796 27.9566 11.8835 27.9312C11.8874 27.9058 11.8977 27.8818 11.9134 27.8615L12.1952 27.4717C12.2223 27.4333 12.2333 27.3859 12.2259 27.3395C12.2185 27.2931 12.1932 27.2514 12.1555 27.2234L11.0296 26.4054C10.9913 26.378 10.9438 26.3668 10.8973 26.3742C10.8508 26.3816 10.8091 26.4071 10.7813 26.4451L10.5032 26.8274C10.4877 26.8496 10.4668 26.8674 10.4425 26.8791C10.4181 26.8909 10.3912 26.8961 10.3642 26.8945C9.91197 26.5067 9.48954 26.0855 9.10047 25.6345C9.09864 25.6076 9.10386 25.5808 9.11562 25.5566C9.12739 25.5325 9.14527 25.5118 9.16751 25.4967L9.54985 25.2174C9.58783 25.1895 9.6133 25.1479 9.62074 25.1014C9.62818 25.0549 9.61698 25.0074 9.58957 24.9691L8.77151 23.8431C8.74349 23.8054 8.70184 23.7802 8.65545 23.7728C8.60907 23.7653 8.56161 23.7763 8.52323 23.8034L8.13344 24.0827C8.11287 24.0985 8.08867 24.1088 8.06306 24.1127C8.03746 24.1166 8.01128 24.114 7.98695 24.1051C7.67485 23.5955 7.40259 23.0626 7.17261 22.5111C7.1794 22.4859 7.19256 22.4629 7.21082 22.4442C7.22907 22.4255 7.25182 22.4118 7.27689 22.4044L7.7362 22.2554C7.78114 22.2404 7.81835 22.2082 7.83973 22.1659C7.86111 22.1236 7.86495 22.0746 7.8504 22.0295L7.41964 20.7062C7.40487 20.6613 7.37295 20.6241 7.33085 20.6027C7.28875 20.5813 7.2399 20.5775 7.19495 20.592L6.73813 20.7409C6.71253 20.7494 6.6852 20.7513 6.65871 20.7463C6.63221 20.7413 6.60743 20.7296 6.58668 20.7124C6.44861 20.1316 6.35523 19.541 6.30737 18.9459C6.32165 18.9234 6.34149 18.905 6.36497 18.8923C6.38845 18.8797 6.41479 18.8734 6.44144 18.8739H6.92061C6.96792 18.8736 7.0132 18.8546 7.04665 18.8212C7.08011 18.7877 7.09904 18.7425 7.09937 18.6951V17.3036C7.09745 17.2573 7.07782 17.2136 7.04453 17.1815C7.01125 17.1494 6.96687 17.1313 6.92061 17.131H6.44144C6.41479 17.1315 6.38845 17.1252 6.36497 17.1126C6.34149 17.1 6.32165 17.0815 6.30737 17.059C6.35514 16.4643 6.44851 15.8742 6.58668 15.2938C6.60718 15.2765 6.63182 15.265 6.65816 15.2602C6.6845 15.2554 6.71164 15.2576 6.73689 15.2665L7.19247 15.4142C7.21472 15.4215 7.2382 15.4244 7.26157 15.4226C7.28493 15.4209 7.30772 15.4145 7.3286 15.4039C7.34949 15.3933 7.36807 15.3786 7.38327 15.3608C7.39847 15.3429 7.40999 15.3223 7.41716 15.3L7.84792 13.9779C7.86246 13.9328 7.85863 13.8838 7.83725 13.8415C7.81586 13.7992 7.77866 13.767 7.73371 13.752L7.27689 13.603C7.25163 13.595 7.22877 13.5808 7.21035 13.5617C7.19194 13.5426 7.17854 13.5193 7.17137 13.4938C7.40295 12.9418 7.67601 12.4081 7.9882 11.8974C8.01288 11.8881 8.03951 11.8853 8.06557 11.8892C8.09163 11.8931 8.11627 11.9036 8.13716 11.9197L8.52571 12.2015C8.5642 12.2283 8.61156 12.2391 8.65786 12.2317C8.70415 12.2243 8.74578 12.1992 8.77399 12.1618L9.59206 11.0346C9.60579 11.0157 9.61565 10.9943 9.62108 10.9716C9.62652 10.9488 9.62742 10.9253 9.62373 10.9022C9.62004 10.8791 9.61183 10.857 9.59958 10.8372C9.58733 10.8173 9.57127 10.8 9.55233 10.7863L9.16626 10.5083C9.14435 10.4929 9.12677 10.4722 9.11525 10.448C9.10372 10.4239 9.09863 10.3971 9.10047 10.3705C9.48882 9.91602 9.91128 9.49189 10.3642 9.10177C10.3909 9.09993 10.4176 9.10501 10.4417 9.11654C10.4659 9.12807 10.4866 9.14565 10.502 9.16756L10.7801 9.55115C10.8081 9.58886 10.8497 9.61412 10.8961 9.62154C10.9425 9.62897 10.9899 9.61796 11.0283 9.59087L12.1543 8.7728C12.192 8.74479 12.2172 8.70314 12.2247 8.65675C12.2321 8.61036 12.2211 8.56291 12.194 8.52453L11.9172 8.13349C11.9019 8.11292 11.8919 8.08894 11.888 8.06363C11.8841 8.03833 11.8865 8.01245 11.8948 7.98825C12.4055 7.67622 12.9391 7.40357 13.4912 7.17266C13.5165 7.17946 13.5395 7.19261 13.5582 7.21087C13.5769 7.22913 13.5906 7.25188 13.598 7.27694L13.747 7.73625C13.762 7.7812 13.7942 7.8184 13.8364 7.83978C13.8787 7.86117 13.9278 7.865 13.9729 7.85046L15.2962 7.4197C15.3411 7.40466 15.3783 7.3725 15.3997 7.3302C15.4211 7.2879 15.4249 7.23888 15.4104 7.19377L15.2614 6.73818C15.253 6.71259 15.2511 6.68526 15.2561 6.65876C15.2611 6.63227 15.2728 6.60748 15.29 6.58673C15.8708 6.44866 16.4614 6.35529 17.0565 6.30742C17.079 6.32171 17.0974 6.34154 17.11 6.36503C17.1226 6.38851 17.129 6.41484 17.1285 6.44149V6.92066C17.1288 6.96797 17.1477 7.01325 17.1812 7.04671C17.2146 7.08016 17.2599 7.0991 17.3072 7.09942H18.7001C18.7474 7.0991 18.7926 7.08016 18.8261 7.04671C18.8596 7.01325 18.8785 6.96797 18.8788 6.92066V6.44149C18.8783 6.41484 18.8846 6.38851 18.8973 6.36503C18.9099 6.34154 18.9283 6.32171 18.9508 6.30742C19.5455 6.35519 20.1357 6.44857 20.7161 6.58673C20.7333 6.60723 20.7449 6.63187 20.7496 6.65821C20.7544 6.68455 20.7523 6.71169 20.7434 6.73694L20.5956 7.19253C20.5883 7.21477 20.5854 7.23826 20.5872 7.26162C20.589 7.28499 20.5953 7.30777 20.6059 7.32866C20.6166 7.34955 20.6312 7.36813 20.649 7.38333C20.6669 7.39852 20.6875 7.41004 20.7099 7.41722L22.0319 7.84798C22.077 7.86252 22.1261 7.85868 22.1684 7.8373C22.2107 7.81592 22.2428 7.77872 22.2579 7.73377L22.4068 7.27694C22.4149 7.25169 22.4291 7.22882 22.4481 7.21041C22.4672 7.19199 22.4905 7.1786 22.5161 7.17142C23.0681 7.403 23.6017 7.67606 24.1125 7.98825C24.1217 8.01294 24.1245 8.03956 24.1206 8.06563C24.1167 8.09169 24.1062 8.11633 24.0901 8.13722L23.8083 8.52577C23.7816 8.56425 23.7707 8.61162 23.7781 8.65791C23.7855 8.70421 23.8106 8.74583 23.8481 8.77404L24.974 9.59211C25.0124 9.6192 25.0598 9.63021 25.1062 9.62279C25.1526 9.61536 25.1942 9.5901 25.2223 9.55239L25.5003 9.1688C25.5163 9.14631 25.5379 9.12839 25.5629 9.11685C25.588 9.1053 25.6156 9.10053 25.6431 9.10301C26.0927 9.49198 26.5126 9.91398 26.8994 10.3655C26.9013 10.3927 26.8961 10.4199 26.8843 10.4445C26.8726 10.4691 26.8547 10.4902 26.8323 10.5058L26.45 10.7838C26.4123 10.8119 26.387 10.8535 26.3796 10.8999C26.3722 10.9463 26.3832 10.9937 26.4103 11.0321L27.2283 12.1655C27.2561 12.2035 27.2978 12.2289 27.3443 12.2364C27.3908 12.2438 27.4383 12.2326 27.4766 12.2052L27.8664 11.9172C27.8874 11.9018 27.9118 11.8917 27.9375 11.8878C27.9632 11.8839 27.9895 11.8863 28.0141 11.8949C28.3262 12.4048 28.5985 12.9381 28.8285 13.49C28.8212 13.5146 28.808 13.5369 28.79 13.5551C28.7721 13.5733 28.7499 13.5868 28.7254 13.5943L28.2661 13.7433C28.2212 13.7583 28.184 13.7905 28.1626 13.8328C28.1412 13.8751 28.1374 13.9241 28.1519 13.9692L28.5827 15.2925C28.5974 15.3374 28.6294 15.3746 28.6715 15.396C28.7136 15.4174 28.7624 15.4212 28.8074 15.4067L29.263 15.259C29.2881 15.2502 29.3152 15.2479 29.3414 15.2525C29.3677 15.2571 29.3924 15.2683 29.4132 15.2851C29.5513 15.8667 29.6447 16.4581 29.6925 17.054C29.6779 17.0762 29.6579 17.0942 29.6345 17.1066C29.6111 17.119 29.5849 17.1252 29.5584 17.1248H29.0792C29.0319 17.1251 28.9866 17.1441 28.9532 17.1775C28.9197 17.211 28.9008 17.2563 28.9005 17.3036V18.6964C28.9008 18.7437 28.9197 18.789 28.9532 18.8224C28.9866 18.8559 29.0319 18.8748 29.0792 18.8751H29.5584C29.5849 18.8747 29.6111 18.881 29.6345 18.8934C29.6579 18.9057 29.6779 18.9238 29.6925 18.9459C29.6448 19.541 29.5514 20.1316 29.4132 20.7124Z" fill="black"/>
<path d="M18 9.13635C16.247 9.13635 14.5333 9.65619 13.0757 10.6301C11.6181 11.604 10.4821 12.9883 9.81123 14.6079C9.14038 16.2275 8.96485 18.0096 9.30685 19.729C9.64885 21.4483 10.493 23.0276 11.7326 24.2672C12.9722 25.5068 14.5515 26.3509 16.2708 26.6929C17.9902 27.0349 19.7723 26.8594 21.3919 26.1886C23.0115 25.5177 24.3957 24.3817 25.3697 22.9241C26.3436 21.4665 26.8634 19.7528 26.8634 17.9998C26.8608 15.6499 25.9261 13.3969 24.2645 11.7353C22.6028 10.0737 20.3499 9.13898 18 9.13635ZM19.1495 10.9773L18.1167 13.4601C18.1106 13.4756 18.1014 13.4897 18.0897 13.5016C18.078 13.5135 18.064 13.5229 18.0486 13.5293C18.0332 13.5356 18.0167 13.5389 18 13.5387C17.9833 13.5385 17.9669 13.535 17.9516 13.5284C17.9362 13.5221 17.9223 13.5129 17.9105 13.5011C17.8988 13.4894 17.8895 13.4754 17.8833 13.4601L16.8505 10.9773C17.6115 10.8495 18.3885 10.8495 19.1495 10.9773ZM11.6801 14.7412L13.7123 16.4791C13.725 16.4899 13.7354 16.5032 13.7428 16.5181C13.7503 16.5331 13.7547 16.5493 13.7557 16.566C13.7573 16.5827 13.7555 16.5996 13.7504 16.6156C13.7452 16.6316 13.7369 16.6464 13.7259 16.6591C13.7036 16.6843 13.6725 16.6998 13.639 16.7026L10.9663 16.9186C11.0848 16.1589 11.3258 15.4235 11.6801 14.7412ZM15.4216 21.7463L14.801 24.3532C14.115 24.0028 13.4893 23.5452 12.9476 22.9976L15.2317 21.6048C15.2458 21.596 15.2616 21.5902 15.278 21.5876C15.2944 21.5851 15.3112 21.5858 15.3273 21.5899C15.3437 21.5934 15.3592 21.6001 15.373 21.6098C15.3867 21.6194 15.3983 21.6318 15.4071 21.646C15.4159 21.6603 15.4218 21.6762 15.4243 21.6928C15.4268 21.7094 15.4259 21.7263 15.4216 21.7426V21.7463ZM21.1965 24.3532L20.5759 21.7463C20.5716 21.73 20.5707 21.7131 20.5732 21.6965C20.5757 21.68 20.5816 21.664 20.5904 21.6498C20.5992 21.6355 20.6108 21.6232 20.6245 21.6135C20.6383 21.6039 20.6538 21.5971 20.6702 21.5936H20.7C20.7232 21.5935 20.746 21.6 20.7658 21.6122L23.0499 23.0063C22.5084 23.5528 21.8827 24.0088 21.1965 24.3569V24.3532ZM24.1287 21.6122L21.6757 20.1226C21.3605 19.9296 20.9952 19.8343 20.6259 19.8489C20.2566 19.8635 19.8999 19.9872 19.6008 20.2044C19.3018 20.4216 19.0739 20.7225 18.9458 21.0692C18.8177 21.4159 18.7953 21.7928 18.8814 22.1522L19.5455 24.9515C18.5279 25.1843 17.4708 25.1843 16.4532 24.9515L17.1174 22.1572C17.2021 21.798 17.1789 21.4217 17.0504 21.0757C16.922 20.7297 16.6942 20.4294 16.3956 20.2125C16.097 19.9956 15.7409 19.8719 15.3721 19.8567C15.0034 19.8416 14.6384 19.9358 14.323 20.1275L11.8725 21.6172C11.3428 20.7187 11.0188 19.7139 10.9241 18.6751L13.7793 18.4442C14.1473 18.4141 14.4981 18.2758 14.7876 18.0467C15.0771 17.8176 15.2923 17.5079 15.4062 17.1567C15.5201 16.8055 15.5275 16.4285 15.4275 16.0731C15.3276 15.7177 15.1247 15.3998 14.8444 15.1595L12.667 13.2975C13.358 12.517 14.2113 11.8971 15.1672 11.4813L16.2695 14.1292C16.4114 14.4704 16.6512 14.762 16.9586 14.9671C17.266 15.1722 17.6273 15.2817 17.9969 15.2817C18.3665 15.2817 18.7277 15.1722 19.0352 14.9671C19.3426 14.762 19.5824 14.4704 19.7243 14.1292L20.8279 11.4813C21.7831 11.8976 22.6359 12.5174 23.3267 13.2975L21.1531 15.1595C20.8727 15.4 20.6698 15.7181 20.57 16.0737C20.4701 16.4293 20.4777 16.8065 20.5919 17.1578C20.7061 17.509 20.9217 17.8187 21.2115 18.0476C21.5014 18.2765 21.8525 18.4145 22.2207 18.4442L25.0759 18.6751C24.9806 19.7132 24.6572 20.7174 24.1287 21.6159V21.6122ZM25.0336 16.9186L22.361 16.7026C22.3444 16.7012 22.3283 16.6966 22.3136 16.6889C22.2989 16.6812 22.2859 16.6707 22.2753 16.6579C22.2644 16.6453 22.2562 16.6307 22.2511 16.615C22.246 16.5992 22.2441 16.5825 22.2455 16.566C22.2465 16.5497 22.2508 16.5337 22.258 16.519C22.2653 16.5043 22.2754 16.4911 22.2877 16.4804L24.3199 14.7424C24.674 15.4257 24.915 16.1619 25.0336 16.9223V16.9186Z" fill="black"/>
<path d="M17.9999 16.386C17.6792 16.386 17.3657 16.4812 17.0992 16.6595C16.8327 16.8377 16.625 17.0911 16.5026 17.3875C16.3802 17.6839 16.3485 18.0099 16.4115 18.3243C16.4745 18.6388 16.6294 18.9274 16.8566 19.1537C17.0838 19.38 17.373 19.5338 17.6876 19.5956C18.0023 19.6574 18.3282 19.6245 18.6241 19.5009C18.92 19.3773 19.1726 19.1687 19.3499 18.9015C19.5271 18.6343 19.6211 18.3205 19.6199 17.9998C19.6199 17.7873 19.5779 17.577 19.4964 17.3808C19.4149 17.1846 19.2955 17.0064 19.145 16.8565C18.9945 16.7065 18.8159 16.5878 18.6193 16.5071C18.4228 16.4263 18.2123 16.3852 17.9999 16.386Z" fill="black"/>
</svg>
