<svg width="36" height="36" viewBox="0 0 36 36" fill="none" xmlns="http://www.w3.org/2000/svg">
<path fill-rule="evenodd" clip-rule="evenodd" d="M7.25 13C7.25 12.5858 7.58579 12.25 8 12.25H28C28.4142 12.25 28.75 12.5858 28.75 13C28.75 13.4142 28.4142 13.75 28 13.75H8C7.58579 13.75 7.25 13.4142 7.25 13Z" fill="black"/>
<path fill-rule="evenodd" clip-rule="evenodd" d="M28.5303 18.4697C28.8232 18.7626 28.8232 19.2374 28.5303 19.5303L26.7877 21.273C24.1162 23.9444 19.8254 24.0705 17.0017 21.5606C14.7716 19.5782 11.3828 19.6778 9.27299 21.7877L8.53033 22.5303C8.23744 22.8232 7.76256 22.8232 7.46967 22.5303C7.17678 22.2374 7.17678 21.7626 7.46967 21.4697L8.21233 20.727C10.8838 18.0556 15.1746 17.9295 17.9983 20.4394C20.2284 22.4218 23.6172 22.3222 25.727 20.2123L27.4697 18.4697C27.7626 18.1768 28.2374 18.1768 28.5303 18.4697Z" fill="black"/>
</svg>
