<svg width="36" height="36" viewBox="0 0 36 36" fill="none" xmlns="http://www.w3.org/2000/svg">
<path d="M15.6761 28.7642C16.4659 28.7642 17.1062 28.1239 17.1062 27.3341C17.1062 26.5443 16.4659 25.9041 15.6761 25.9041C14.8863 25.9041 14.246 26.5443 14.246 27.3341C14.246 28.1239 14.8863 28.7642 15.6761 28.7642Z" fill="black"/>
<path d="M23.1519 9.00752C23.3322 9.00752 23.5084 8.95405 23.6582 8.85388C23.8081 8.7537 23.9249 8.61132 23.9938 8.44475C24.0627 8.27819 24.0807 8.09492 24.0455 7.91813C24.0102 7.74135 23.9233 7.579 23.7957 7.45162C23.6682 7.32424 23.5057 7.23756 23.3289 7.20254C23.1521 7.16752 22.9688 7.18574 22.8023 7.2549C22.6359 7.32405 22.4937 7.44103 22.3937 7.59104C22.2937 7.74104 22.2405 7.91733 22.2407 8.09759C22.2411 8.33904 22.3372 8.57048 22.508 8.74109C22.6789 8.9117 22.9104 9.00752 23.1519 9.00752Z" fill="black"/>
<path d="M24.0677 9.69507H22.0244V10.9166H22.475V13.3869H22.017V14.6084H24.5196H24.5258V13.3869H24.0677V9.69507Z" fill="black"/>
<path d="M32.3341 11.0952C32.3341 6.65607 28.2674 3.0449 23.2721 3.0449C21.421 3.03667 19.6055 3.55318 18.0359 4.53455H9.80682C9.12525 4.53652 8.47216 4.80814 7.99021 5.29008C7.50827 5.77203 7.23665 6.42512 7.23468 7.10669V28.8929C7.23566 29.5751 7.50685 30.2292 7.9889 30.7119C8.47095 31.1947 9.12461 31.4668 9.80682 31.4688H21.5379C22.2207 31.4678 22.8753 31.1961 23.3582 30.7132C23.841 30.2304 24.1127 29.5758 24.1137 28.8929V19.117C28.7192 18.7322 32.3341 15.2824 32.3341 11.0952ZM21.5416 29.6688H9.80682C9.60105 29.6688 9.4037 29.587 9.2582 29.4415C9.1127 29.296 9.03096 29.0987 9.03096 28.8929V7.10669C9.03096 6.90092 9.1127 6.70357 9.2582 6.55807C9.4037 6.41257 9.60105 6.33083 9.80682 6.33083H15.9653C15.6316 6.73098 15.338 7.16299 15.0889 7.62062H10.3381V24.9751H21.014V18.8998C21.4435 18.9967 21.8789 19.0655 22.3174 19.1059V28.8929C22.3174 29.0987 22.2357 29.296 22.0902 29.4415C21.9447 29.587 21.7474 29.6688 21.5416 29.6688ZM14.6556 17.7428C14.706 17.9561 14.8204 18.1488 14.9835 18.295C15.1466 18.4413 15.3506 18.534 15.5681 18.5609C16.2632 18.6552 17.5456 18.7061 18.8118 18.114C18.9645 18.191 19.1196 18.263 19.2761 18.3312V23.2372H12.0761V9.35855H14.4185C14.2759 9.92687 14.2033 10.5105 14.2025 11.0965C14.2111 12.7975 14.8002 14.4446 15.8722 15.7653C15.6906 16.0876 15.4354 16.3624 15.1274 16.5672L15.1137 16.5759C14.9269 16.7 14.7828 16.8785 14.7009 17.0872C14.619 17.296 14.6032 17.5248 14.6556 17.7428ZM23.2683 17.4126C21.8587 17.4219 20.4709 17.0643 19.2413 16.3748C19.1082 16.3003 18.9579 16.262 18.8053 16.264C18.6528 16.2659 18.5035 16.308 18.3723 16.386C18.0341 16.5868 17.6637 16.7275 17.2774 16.8019C17.4555 16.5244 17.602 16.2279 17.7144 15.918C17.7697 15.7677 17.7824 15.605 17.7511 15.4479C17.7198 15.2909 17.6456 15.1455 17.5369 15.0279C16.4966 13.9032 15.9467 12.5452 15.9467 11.1027C15.9467 7.61814 19.2339 4.78407 23.2708 4.78407C27.3078 4.78407 30.595 7.61566 30.595 11.0965C30.595 14.5773 27.3103 17.4126 23.2683 17.4126Z" fill="black"/>
</svg>
