<svg width="36" height="36" viewBox="0 0 36 36" fill="none" xmlns="http://www.w3.org/2000/svg">
<path d="M29.7311 7.84924H6.269C5.80807 7.84924 5.36602 8.03235 5.0401 8.35827C4.71417 8.6842 4.53107 9.12625 4.53107 9.58717V26.3458C4.53107 26.8067 4.71417 27.2488 5.0401 27.5747C5.36602 27.9006 5.80807 28.0837 6.269 28.0837H7.07589L8.33341 29.7596H10.9093L12.1655 28.0837H23.8345L25.092 29.7596H27.6679L28.9242 28.0837H29.7311C30.192 28.0837 30.634 27.9006 30.96 27.5747C31.2859 27.2488 31.469 26.8067 31.469 26.3458V9.58717C31.469 9.12625 31.2859 8.6842 30.96 8.35827C30.634 8.03235 30.192 7.84924 29.7311 7.84924ZM29.669 26.2837H6.33107V9.64924H29.669V26.2837Z" fill="black"/>
<path d="M9.62071 24.7034H26.3793C26.8318 24.7027 27.2656 24.5227 27.5856 24.2027C27.9055 23.8828 28.0856 23.449 28.0862 22.9965V12.9413C28.0862 12.4884 27.9065 12.054 27.5864 11.7335C27.2664 11.413 26.8323 11.2326 26.3793 11.2319H9.62071C9.16822 11.2326 8.73445 11.4126 8.41448 11.7326C8.09452 12.0526 7.91448 12.4863 7.91382 12.9388V22.994C7.91382 23.4469 8.09357 23.8814 8.41361 24.2019C8.73364 24.5224 9.16779 24.7027 9.62071 24.7034ZM9.65175 12.9723H26.3483V22.9655H9.65175V12.9723Z" fill="black"/>
<path d="M20.5586 17.5566C20.4682 17.5566 20.3799 17.5834 20.3048 17.6336C20.2296 17.6838 20.1711 17.7552 20.1365 17.8386C20.1019 17.9221 20.0929 18.014 20.1105 18.1026C20.1282 18.1912 20.1717 18.2726 20.2355 18.3365C20.2994 18.4004 20.3808 18.4439 20.4695 18.4615C20.5581 18.4791 20.6499 18.4701 20.7334 18.4355C20.8169 18.4009 20.8882 18.3424 20.9384 18.2673C20.9886 18.1921 21.0154 18.1038 21.0154 18.0135C21.0154 17.8923 20.9673 17.7761 20.8816 17.6904C20.7959 17.6048 20.6797 17.5566 20.5586 17.5566Z" fill="black"/>
<path d="M22.1365 17.5566C22.0461 17.5566 21.9578 17.5834 21.8827 17.6336C21.8075 17.6838 21.749 17.7552 21.7144 17.8386C21.6798 17.9221 21.6708 18.014 21.6884 18.1026C21.706 18.1912 21.7495 18.2726 21.8134 18.3365C21.8773 18.4004 21.9587 18.4439 22.0473 18.4615C22.1359 18.4791 22.2278 18.4701 22.3113 18.4355C22.3947 18.4009 22.4661 18.3424 22.5163 18.2673C22.5665 18.1921 22.5933 18.1038 22.5933 18.0135C22.5933 17.8923 22.5452 17.7761 22.4595 17.6904C22.3738 17.6048 22.2576 17.5566 22.1365 17.5566Z" fill="black"/>
<path d="M23.7102 17.5566C23.6199 17.5566 23.5316 17.5834 23.4564 17.6336C23.3813 17.6838 23.3228 17.7552 23.2882 17.8386C23.2536 17.9221 23.2446 18.014 23.2622 18.1026C23.2798 18.1912 23.3233 18.2726 23.3872 18.3365C23.4511 18.4004 23.5325 18.4439 23.6211 18.4615C23.7097 18.4791 23.8016 18.4701 23.8851 18.4355C23.9685 18.4009 24.0399 18.3424 24.0901 18.2673C24.1403 18.1921 24.1671 18.1038 24.1671 18.0135C24.1671 17.8923 24.1189 17.7761 24.0333 17.6904C23.9476 17.6048 23.8314 17.5566 23.7102 17.5566Z" fill="black"/>
<path d="M20.5586 19.1345C20.4682 19.1345 20.3799 19.1613 20.3048 19.2115C20.2296 19.2617 20.1711 19.3331 20.1365 19.4165C20.1019 19.5 20.0929 19.5918 20.1105 19.6805C20.1282 19.7691 20.1717 19.8505 20.2355 19.9144C20.2994 19.9782 20.3808 20.0218 20.4695 20.0394C20.5581 20.057 20.6499 20.048 20.7334 20.0134C20.8169 19.9788 20.8882 19.9203 20.9384 19.8451C20.9886 19.77 21.0154 19.6817 21.0154 19.5913C21.0154 19.4702 20.9673 19.354 20.8816 19.2683C20.7959 19.1827 20.6797 19.1345 20.5586 19.1345Z" fill="black"/>
<path d="M22.1365 19.1345C22.0461 19.1345 21.9578 19.1613 21.8827 19.2115C21.8075 19.2617 21.749 19.3331 21.7144 19.4165C21.6798 19.5 21.6708 19.5918 21.6884 19.6805C21.706 19.7691 21.7495 19.8505 21.8134 19.9144C21.8773 19.9782 21.9587 20.0218 22.0473 20.0394C22.1359 20.057 22.2278 20.048 22.3113 20.0134C22.3947 19.9788 22.4661 19.9203 22.5163 19.8451C22.5665 19.77 22.5933 19.6817 22.5933 19.5913C22.5933 19.4702 22.5452 19.354 22.4595 19.2683C22.3738 19.1827 22.2576 19.1345 22.1365 19.1345Z" fill="black"/>
<path d="M23.7102 19.1345C23.6199 19.1345 23.5316 19.1613 23.4564 19.2115C23.3813 19.2617 23.3228 19.3331 23.2882 19.4165C23.2536 19.5 23.2446 19.5918 23.2622 19.6805C23.2798 19.7691 23.3233 19.8505 23.3872 19.9144C23.4511 19.9782 23.5325 20.0218 23.6211 20.0394C23.7097 20.057 23.8016 20.048 23.8851 20.0134C23.9685 19.9788 24.0399 19.9203 24.0901 19.8451C24.1403 19.77 24.1671 19.6817 24.1671 19.5913C24.1671 19.4702 24.1189 19.354 24.0333 19.2683C23.9476 19.1827 23.8314 19.1345 23.7102 19.1345Z" fill="black"/>
<path d="M20.5586 20.7123C20.4682 20.7123 20.3799 20.7391 20.3048 20.7893C20.2296 20.8395 20.1711 20.9108 20.1365 20.9943C20.1019 21.0778 20.0929 21.1696 20.1105 21.2582C20.1282 21.3468 20.1717 21.4282 20.2355 21.4921C20.2994 21.556 20.3808 21.5995 20.4695 21.6171C20.5581 21.6348 20.6499 21.6257 20.7334 21.5911C20.8169 21.5566 20.8882 21.498 20.9384 21.4229C20.9886 21.3478 21.0154 21.2594 21.0154 21.1691C21.0154 21.0479 20.9673 20.9317 20.8816 20.8461C20.7959 20.7604 20.6797 20.7123 20.5586 20.7123Z" fill="black"/>
<path d="M22.1365 20.7123C22.0461 20.7123 21.9578 20.7391 21.8827 20.7893C21.8075 20.8395 21.749 20.9108 21.7144 20.9943C21.6798 21.0778 21.6708 21.1696 21.6884 21.2582C21.706 21.3468 21.7495 21.4282 21.8134 21.4921C21.8773 21.556 21.9587 21.5995 22.0473 21.6171C22.1359 21.6348 22.2278 21.6257 22.3113 21.5911C22.3947 21.5566 22.4661 21.498 22.5163 21.4229C22.5665 21.3478 22.5933 21.2594 22.5933 21.1691C22.5933 21.0479 22.5452 20.9317 22.4595 20.8461C22.3738 20.7604 22.2576 20.7123 22.1365 20.7123Z" fill="black"/>
<path d="M23.7102 20.7123C23.6199 20.7123 23.5316 20.7391 23.4564 20.7893C23.3813 20.8395 23.3228 20.9108 23.2882 20.9943C23.2536 21.0778 23.2446 21.1696 23.2622 21.2582C23.2798 21.3468 23.3233 21.4282 23.3872 21.4921C23.4511 21.556 23.5325 21.5995 23.6211 21.6171C23.7097 21.6348 23.8016 21.6257 23.8851 21.5911C23.9685 21.5566 24.0399 21.498 24.0901 21.4229C24.1403 21.3478 24.1671 21.2594 24.1671 21.1691C24.1671 21.0479 24.1189 20.9317 24.0333 20.8461C23.9476 20.7604 23.8314 20.7123 23.7102 20.7123Z" fill="black"/>
<path d="M14.4607 14.8492C13.8375 14.8492 13.2284 15.034 12.7103 15.3802C12.1922 15.7264 11.7883 16.2185 11.5499 16.7942C11.3114 17.3699 11.249 18.0034 11.3706 18.6145C11.4922 19.2257 11.7922 19.7871 12.2329 20.2277C12.6735 20.6683 13.2349 20.9684 13.846 21.0899C14.4572 21.2115 15.0907 21.1491 15.6664 20.9107C16.2421 20.6722 16.7341 20.2684 17.0803 19.7503C17.4265 19.2321 17.6113 18.623 17.6113 17.9999C17.6103 17.1646 17.2781 16.3638 16.6874 15.7731C16.0968 15.1825 15.296 14.8502 14.4607 14.8492ZM14.4607 19.4113C14.1812 19.4113 13.908 19.3284 13.6757 19.1731C13.4434 19.0179 13.2623 18.7972 13.1554 18.5389C13.0485 18.2807 13.0206 17.9966 13.0752 17.7226C13.1298 17.4485 13.2645 17.1968 13.4622 16.9993C13.6599 16.8017 13.9117 16.6673 14.1858 16.6129C14.46 16.5586 14.744 16.5867 15.0022 16.6938C15.2603 16.8009 15.4808 16.9822 15.6359 17.2147C15.791 17.4472 15.8736 17.7204 15.8734 17.9999C15.873 18.3743 15.7241 18.7333 15.4592 18.998C15.1943 19.2626 14.8351 19.4113 14.4607 19.4113Z" fill="black"/>
<path d="M14.4607 17.1064C14.284 17.1064 14.1112 17.1589 13.9642 17.2571C13.8172 17.3553 13.7026 17.4949 13.635 17.6582C13.5673 17.8215 13.5496 18.0012 13.5841 18.1746C13.6186 18.348 13.7037 18.5072 13.8287 18.6322C13.9537 18.7572 14.113 18.8424 14.2864 18.8769C14.4598 18.9113 14.6395 18.8936 14.8028 18.826C14.9661 18.7583 15.1057 18.6438 15.2039 18.4968C15.3021 18.3498 15.3545 18.177 15.3545 18.0002C15.3545 17.7632 15.2604 17.5358 15.0928 17.3682C14.9251 17.2006 14.6978 17.1064 14.4607 17.1064Z" fill="black"/>
<path d="M24.4476 14.4H19.8247C19.6273 14.4 19.4672 14.5601 19.4672 14.7575V16.4011C19.4672 16.5986 19.6273 16.7586 19.8247 16.7586H24.4476C24.6451 16.7586 24.8052 16.5986 24.8052 16.4011V14.7575C24.8052 14.5601 24.6451 14.4 24.4476 14.4Z" fill="black"/>
</svg>
