<svg width="36" height="36" viewBox="0 0 36 36" fill="none" xmlns="http://www.w3.org/2000/svg">
<path d="M25.6432 21.4324C25.6308 21.4324 24.4316 21.5479 23.2126 21.5392C21.883 21.5317 20.5821 21.4275 20.5684 21.4275C19.8236 21.3666 19.3332 21.7552 19.1259 22.1413C18.8777 22.6043 18.905 23.2883 19.5232 23.7724L20.4418 24.4899C20.7958 24.7522 21.2157 24.9112 21.6546 24.9493C21.6832 24.9493 22.3709 25.0026 23.215 25.0026C24.1448 25.0026 24.7382 24.953 24.763 24.9505C25.2261 24.9061 25.6645 24.7212 26.0193 24.4204L26.7902 23.7253C27.0244 23.5326 27.1822 23.2628 27.2352 22.9643C27.2882 22.6657 27.233 22.358 27.0795 22.0966C26.861 21.7242 26.3681 21.3629 25.6432 21.4324ZM23.0524 23.6433C20.957 23.6433 20.4977 22.7495 20.4977 22.7495C21.2425 22.8178 22.032 22.8848 23.035 22.8948C23.9193 22.895 24.8029 22.8457 25.6817 22.7471C25.6817 22.7471 25.2757 23.6446 23.0524 23.6433Z" fill="black"/>
<path d="M33.269 22.8315C33.2405 21.6497 33.1325 19.7839 33.0046 19.3556C32.9016 19.013 32.6632 18.7349 32.3616 18.3811C32.2138 18.2073 32.0401 18.0087 31.8824 17.784C32.1872 17.7885 32.4905 17.7419 32.7799 17.6462C33.1114 17.5333 33.2181 17.0578 33.2069 16.6531C33.2069 16.4694 33.1561 15.8649 32.7687 15.7556C32.5652 15.6985 31.5671 15.6079 31.2505 15.7668V9.25327C31.2499 8.88034 31.1013 8.52292 30.8373 8.25946C30.5734 7.99599 30.2157 7.84802 29.8428 7.84802H4.54849C4.176 7.84868 3.81895 7.99694 3.55556 8.26033C3.29217 8.52373 3.14391 8.88077 3.14325 9.25327V19.1707C3.14391 19.5431 3.29217 19.9002 3.55556 20.1636C3.81895 20.427 4.176 20.5752 4.54849 20.5759H13.0817C13.0408 21.1084 13.0085 21.7267 12.9874 22.2803H10.8348C10.6186 22.2806 10.4114 22.3667 10.2585 22.5196C10.1056 22.6724 10.0196 22.8797 10.0192 23.0959V31.6614C10.0196 31.8776 10.1056 32.0849 10.2585 32.2378C10.4114 32.3906 10.6186 32.4767 10.8348 32.477H19.8969C20.0784 33.0025 20.4193 33.4583 20.8721 33.781C21.325 34.1036 21.8671 34.277 22.4231 34.277H23.801C23.9931 34.2778 24.1794 34.2109 24.3272 34.0881C24.4749 33.9653 24.5748 33.7944 24.6092 33.6054C24.6166 33.5595 24.6203 33.5434 24.6203 33.5434H25.6395C25.7487 33.5476 25.8577 33.5298 25.9598 33.491C26.062 33.4521 26.1552 33.3931 26.234 33.3173C26.3128 33.2415 26.3754 33.1507 26.4182 33.0501C26.461 32.9496 26.4831 32.8414 26.4831 32.7321C26.4831 32.6228 26.461 32.5147 26.4182 32.4141C26.3754 32.3136 26.3128 32.2227 26.234 32.1469C26.1552 32.0712 26.062 32.0121 25.9598 31.9733C25.8577 31.9344 25.7487 31.9166 25.6395 31.9209H24.6203V31.4069H25.6395C25.7487 31.4112 25.8577 31.3934 25.9598 31.3545C26.062 31.3157 26.1552 31.2566 26.234 31.1809C26.3128 31.1051 26.3754 31.0143 26.4182 30.9137C26.461 30.8131 26.4831 30.705 26.4831 30.5957C26.4831 30.4864 26.461 30.3782 26.4182 30.2777C26.3754 30.1771 26.3128 30.0863 26.234 30.0105C26.1552 29.9348 26.062 29.8757 25.9598 29.8368C25.8577 29.798 25.7487 29.7802 25.6395 29.7845H24.6203C24.6203 29.7845 24.6203 29.7522 24.6042 29.7C24.5654 29.516 24.4643 29.3509 24.318 29.2327C24.1717 29.1144 23.9891 29.0502 23.801 29.0508H22.4231C21.8671 29.051 21.3251 29.2244 20.8723 29.5471C20.4195 29.8697 20.0786 30.3254 19.8969 30.8508H11.6492V23.9102H12.9601C12.975 26.1845 13.2518 26.6127 13.3797 26.8089C13.4676 26.9465 13.5664 27.0768 13.6751 27.1987C13.6503 27.6443 13.6888 28.2178 13.9817 28.584C14.0688 28.695 14.178 28.7868 14.3024 28.8534C14.4267 28.9201 14.5635 28.9603 14.7042 28.9714C15.2008 29.0086 16.5054 29.0222 17.4725 29.0222C17.6159 29.0223 17.7574 28.9897 17.8864 28.9272C18.0154 28.8646 18.1285 28.7736 18.2173 28.661C18.3545 28.4772 18.4363 28.2579 18.4532 28.0291C19.1483 28.0291 19.9801 28.0291 20.9285 28.0291C23.3951 28.0291 26.0467 28.0217 27.7772 28.0155C27.793 28.2477 27.8753 28.4705 28.0143 28.6573C28.103 28.7699 28.2162 28.8609 28.3452 28.9235C28.4742 28.986 28.6157 29.0185 28.7591 29.0185C29.7261 29.0185 31.0308 29.0049 31.5286 28.9676C31.6692 28.9562 31.8059 28.916 31.9302 28.8493C32.0545 28.7827 32.1638 28.6911 32.2511 28.5803C32.5428 28.2141 32.5813 27.6406 32.5565 27.1949C32.6652 27.0731 32.764 26.9428 32.8519 26.8051C33.0021 26.5842 33.3423 26.0591 33.269 22.8315ZM22.4281 30.6621H22.9867V32.6483H22.4281C22.1647 32.6483 21.9121 32.5437 21.7258 32.3574C21.5396 32.1712 21.435 31.9186 21.435 31.6552C21.435 31.3918 21.5396 31.1392 21.7258 30.953C21.9121 30.7667 22.1647 30.6621 22.4281 30.6621ZM31.5311 20.8552L31.5634 21.6547C30.5703 21.9153 29.489 22.2642 29.3165 22.1736L29.1923 21.7763C29.7348 21.5367 30.8409 21.1283 31.5311 20.8552ZM13.8774 18.3799C13.7372 18.5438 13.6118 18.6915 13.505 18.838H4.88118V9.58595H29.5101V13.1202C29.2853 12.8385 29.0161 12.5954 28.7132 12.4002C27.9485 11.9495 24.8798 11.8825 23.1183 11.8825C21.3568 11.8825 18.2881 11.9495 17.5234 12.4002C17.0591 12.6733 16.5191 13.2915 16.0014 14.1381C15.6654 14.693 15.3748 15.2742 15.1325 15.876C15.0964 15.8361 15.0546 15.8018 15.0083 15.7742C14.7191 15.5992 13.6751 15.6935 13.4666 15.7519C13.0792 15.8611 13.0333 16.4657 13.0283 16.6494C13.0172 17.0566 13.1239 17.532 13.4554 17.6425C13.7449 17.7374 14.0482 17.784 14.3529 17.7803C14.199 18 14.0277 18.2061 13.8774 18.3799ZM29.5101 16.2857V16.601C29.1166 16.7835 28.6014 17.0131 28.3631 17.0901C27.5115 17.1844 18.9385 17.1124 17.9206 17.0715C17.5271 17.0566 16.9536 16.8468 16.5675 16.6867C16.9983 15.4887 17.897 14.0946 18.3365 13.8166C18.5773 13.7198 20.0744 13.5162 23.1183 13.5162C26.1621 13.5162 27.6617 13.7198 27.8988 13.8166C28.2849 14.0586 29.0359 15.1709 29.5101 16.2857ZM17.007 21.7664L16.8828 22.1624C16.7115 22.253 15.6303 21.9042 14.6359 21.6435L14.6694 20.844C15.3634 21.1209 16.4707 21.5293 17.007 21.7664ZM31.4802 25.7872L31.4603 25.8431C31.3225 26.2453 30.8843 26.3781 30.5194 26.3682H15.7147C15.3659 26.3769 14.9314 26.244 14.7737 25.8406L14.7278 25.7251C14.5888 25.3875 14.549 25.2894 14.6037 23.0773L15.3634 23.256C15.4602 23.2784 15.6191 23.3169 15.7159 23.3417C16.0914 23.4344 16.4762 23.4839 16.863 23.4894C17.106 23.4937 17.3483 23.4615 17.5817 23.3938C17.8865 23.2937 18.1551 23.1059 18.3538 22.854C18.5525 22.6021 18.6725 22.2972 18.699 21.9774C18.7399 21.3704 18.4097 20.8428 17.8188 20.5647C17.2279 20.2867 15.8103 19.7181 15.1226 19.4475C15.4605 19.0735 15.7592 18.6659 16.0139 18.2309C16.5514 18.4494 17.2614 18.6865 17.861 18.7101C17.9318 18.7101 21.9836 18.7771 25.1231 18.7771C28.09 18.7771 28.6287 18.72 28.7765 18.6791C29.2508 18.5145 29.7146 18.3213 30.1656 18.1006C30.4286 18.5804 30.7478 19.0271 31.1165 19.4313C30.425 19.7069 28.9974 20.2817 28.3991 20.5622C27.8007 20.8428 27.4767 21.3667 27.5177 21.9737C27.5438 22.2935 27.6638 22.5986 27.8625 22.8506C28.0613 23.1025 28.33 23.2902 28.635 23.3901C28.8678 23.4589 29.1098 23.4916 29.3525 23.4869C29.7396 23.4811 30.1249 23.4311 30.5007 23.338L30.8521 23.2523L31.6416 23.0673C31.6552 25.272 31.6552 25.2845 31.4827 25.7872H31.4802Z" fill="black"/>
<path d="M6.70966 14.0549C6.77999 14.0878 6.86036 14.0921 6.9338 14.0669C7.00723 14.0416 7.06797 13.9888 7.10318 13.9196L6.56442 13.6639C6.53328 13.7352 6.53101 13.8158 6.5581 13.8887C6.5852 13.9616 6.63953 14.0212 6.70966 14.0549Z" fill="black"/>
<path d="M7.33779 14.3516C7.4075 14.3842 7.48716 14.3886 7.56006 14.3639C7.63295 14.3391 7.69344 14.2871 7.72882 14.2187L7.19131 13.963C7.16069 14.0341 7.15885 14.1144 7.18616 14.1868C7.21348 14.2593 7.26783 14.3183 7.33779 14.3516Z" fill="black"/>
<path d="M7.9659 14.6484C8.03444 14.6813 8.113 14.6868 8.18547 14.6638C8.25795 14.6407 8.31885 14.5908 8.3557 14.5242L7.82066 14.261C7.79001 14.3318 7.78802 14.4118 7.81511 14.484C7.8422 14.5563 7.89626 14.6152 7.9659 14.6484Z" fill="black"/>
<path d="M9.22088 15.2416C9.28933 15.2739 9.36749 15.2791 9.43959 15.256C9.51169 15.233 9.57238 15.1835 9.60943 15.1175L9.07315 14.8618C9.0449 14.932 9.04446 15.0103 9.07189 15.0809C9.09933 15.1515 9.1526 15.2089 9.22088 15.2416Z" fill="black"/>
<path d="M8.59412 14.9448C8.66253 14.9774 8.74078 14.9827 8.81297 14.9597C8.88515 14.9366 8.94584 14.8869 8.98267 14.8207L8.44143 14.56C8.41203 14.6314 8.41152 14.7115 8.44001 14.7833C8.46849 14.8551 8.52375 14.913 8.59412 14.9448Z" fill="black"/>
<path d="M13.5907 14.0549C13.6611 14.0215 13.7156 13.9619 13.7427 13.8889C13.7698 13.8159 13.7674 13.7351 13.7359 13.6639L13.1984 13.9196C13.2334 13.9887 13.2939 14.0415 13.3671 14.0668C13.4404 14.092 13.5206 14.0878 13.5907 14.0549Z" fill="black"/>
<path d="M13.1089 13.963L12.5714 14.2187C12.6075 14.2864 12.6682 14.3376 12.741 14.3616C12.8138 14.3856 12.8931 14.3806 12.9624 14.3477C13.0316 14.3148 13.0855 14.2564 13.1128 14.1847C13.1401 14.1131 13.1387 14.0337 13.1089 13.963Z" fill="black"/>
<path d="M11.9446 14.5243C11.9816 14.5904 12.0424 14.6399 12.1146 14.6628C12.1868 14.6857 12.265 14.6802 12.3333 14.6474C12.4016 14.6147 12.4549 14.5572 12.4823 14.4866C12.5097 14.416 12.5092 14.3376 12.4809 14.2673L11.9446 14.5243Z" fill="black"/>
<path d="M10.6908 15.1151C10.7282 15.1802 10.7888 15.2288 10.8605 15.2512C10.9321 15.2735 11.0096 15.268 11.0774 15.2357C11.1452 15.2033 11.1982 15.1466 11.226 15.0769C11.2537 15.0071 11.2541 14.9294 11.2271 14.8594L10.6908 15.1151Z" fill="black"/>
<path d="M11.3176 14.8157C11.355 14.8808 11.4156 14.9294 11.4872 14.9518C11.5589 14.9741 11.6364 14.9686 11.7042 14.9363C11.7719 14.904 11.825 14.8472 11.8528 14.7775C11.8805 14.7077 11.8809 14.63 11.8538 14.56L11.3176 14.8157Z" fill="black"/>
<path fill-rule="evenodd" clip-rule="evenodd" d="M13.7052 13.0477C13.7193 13.0694 13.7277 13.0943 13.7297 13.1201L13.7322 13.4416C13.7302 13.4675 13.7218 13.4924 13.7077 13.5141C13.6936 13.5358 13.6743 13.5535 13.6515 13.5658L10.6722 14.9685C10.6184 14.992 10.5607 15.005 10.5021 15.007H9.8156C9.75701 15.0049 9.69934 14.9918 9.64553 14.9685L6.66622 13.5658C6.64326 13.5536 6.62373 13.5359 6.60941 13.5142C6.5951 13.4925 6.58646 13.4675 6.58429 13.4416V13.1164C6.58646 13.0905 6.5951 13.0656 6.60941 13.0439C6.62373 13.0222 6.64326 13.0044 6.66622 12.9923L9.64553 11.5895C9.69934 11.5662 9.75701 11.5532 9.8156 11.551H10.5058C10.5644 11.553 10.6221 11.5661 10.6759 11.5895L13.649 12.996C13.6718 13.0082 13.6911 13.026 13.7052 13.0477ZM8.77782 12.7288H8.42651V13.779H8.66237V12.9696L8.92803 13.779H9.10555L9.3861 12.9696V13.779H9.62444V12.7288H9.27438L9.0261 13.4177L8.77782 12.7288ZM10.5976 13.0036C10.5747 12.976 10.5458 12.954 10.5132 12.939C10.4767 12.9236 10.4374 12.9159 10.3978 12.9167C10.355 12.916 10.3125 12.9249 10.2736 12.9428C10.2365 12.9589 10.2034 12.983 10.1768 13.0135C10.1486 13.0451 10.1267 13.0818 10.1123 13.1215C10.0825 13.2097 10.0825 13.3052 10.1123 13.3934C10.1271 13.4323 10.1485 13.4685 10.1756 13.5001C10.202 13.5305 10.2346 13.5549 10.2712 13.5716C10.3078 13.5883 10.3476 13.5969 10.3878 13.597C10.431 13.5973 10.4737 13.5871 10.512 13.5672C10.5486 13.5469 10.5798 13.5179 10.6026 13.4828L10.8 13.628C10.7569 13.6886 10.6981 13.7362 10.6299 13.7658C10.5634 13.7952 10.4916 13.8104 10.4189 13.8105C10.341 13.8116 10.2637 13.7985 10.1905 13.772C10.1236 13.7478 10.0623 13.7102 10.0105 13.6615C9.95682 13.6129 9.91445 13.5532 9.88633 13.4865C9.82834 13.3389 9.82834 13.1748 9.88633 13.0272C9.91445 12.9605 9.95682 12.9007 10.0105 12.8521C10.0623 12.8034 10.1236 12.7658 10.1905 12.7417C10.2637 12.7151 10.341 12.7021 10.4189 12.7032C10.4501 12.7033 10.4812 12.7058 10.512 12.7106C10.5444 12.717 10.5764 12.7257 10.6076 12.7367C10.6391 12.7494 10.6691 12.7656 10.6969 12.7851C10.7262 12.8054 10.7525 12.8296 10.7752 12.8571L10.5976 13.0036ZM11.8626 13.5493C11.8826 13.494 11.8923 13.4355 11.8911 13.3768L11.8936 12.7288H11.6615V13.3681C11.662 13.399 11.6565 13.4298 11.6453 13.4587C11.6361 13.4855 11.6213 13.51 11.6019 13.5307C11.5834 13.5516 11.5605 13.5682 11.5348 13.5791C11.5079 13.5905 11.479 13.5964 11.4498 13.5964C11.4206 13.5964 11.3917 13.5905 11.3648 13.5791C11.3385 13.5686 11.3151 13.552 11.2965 13.5307C11.2762 13.5103 11.2605 13.4857 11.2506 13.4587C11.2394 13.4298 11.2339 13.399 11.2344 13.3681V12.7288H11.0023V13.3768C11.0017 13.4355 11.0114 13.4939 11.0308 13.5493C11.048 13.6011 11.0769 13.6482 11.1152 13.6871C11.1546 13.7269 11.202 13.7578 11.2543 13.7777C11.3162 13.8008 11.3819 13.8118 11.4479 13.81C11.5131 13.8117 11.5781 13.8007 11.6391 13.7777C11.6918 13.7578 11.7396 13.7269 11.7794 13.6871C11.8168 13.6478 11.8452 13.6008 11.8626 13.5493Z" fill="black"/>
</svg>
