<svg width="36" height="36" viewBox="0 0 36 36" fill="none" xmlns="http://www.w3.org/2000/svg">
<path d="M29.3778 25.8702H7.98605V8.91301C7.98605 8.65232 7.77522 8.44128 7.5148 8.44128H6.75835C6.49793 8.44128 6.28711 8.65232 6.28711 8.91301V26.7144C6.28711 27.1861 6.67153 27.5709 7.14277 27.5709H29.3778C29.6383 27.5709 29.8491 27.3599 29.8491 27.0992V26.3419C29.8491 26.0812 29.6383 25.8702 29.3778 25.8702Z" fill="black"/>
<path d="M25.1362 23.201H25.8926C26.153 23.201 26.3638 22.99 26.3638 22.7293V13.0341C26.3638 12.7734 26.153 12.5624 25.8926 12.5624H25.1362C24.8758 12.5624 24.665 12.7734 24.665 13.0341V22.7293C24.665 22.99 24.8758 23.201 25.1362 23.201Z" fill="black"/>
<path d="M20.5857 23.2016H21.342C21.6024 23.2016 21.8132 22.9906 21.8132 22.7299V15.3561C21.8132 15.0954 21.6024 14.8844 21.342 14.8844H20.5857C20.3253 14.8844 20.1145 15.0954 20.1145 15.3561V22.7299C20.1145 22.9906 20.3253 23.2016 20.5857 23.2016Z" fill="black"/>
<path d="M11.4826 23.2016H12.239C12.4994 23.2016 12.7102 22.9905 12.7102 22.7299V17.3174C12.7102 17.0567 12.4994 16.8457 12.239 16.8457H11.4826C11.2222 16.8457 11.0114 17.0567 11.0114 17.3174V22.7299C10.999 22.9905 11.2222 23.2016 11.4826 23.2016Z" fill="black"/>
<path d="M16.0341 23.2012H16.7906C17.051 23.2012 17.2618 22.9901 17.2618 22.7294V20.0977C17.2618 19.837 17.051 19.626 16.7906 19.626H16.0341C15.7737 19.626 15.5629 19.837 15.5629 20.0977V22.7294C15.5629 22.9901 15.7737 23.2012 16.0341 23.2012Z" fill="black"/>
</svg>
