<svg width="36" height="36" viewBox="0 0 36 36" fill="none" xmlns="http://www.w3.org/2000/svg">
<path d="M28.4275 15.1885V11.8132C28.4273 11.6995 28.4046 11.587 28.3608 11.4821C28.317 11.3772 28.2528 11.2821 28.1721 11.2021C28.0913 11.1222 27.9955 11.059 27.8902 11.0162C27.7849 10.9734 27.6721 10.9519 27.5585 10.9529H21.6719V6.75204C21.6712 6.07654 21.4027 5.42888 20.9251 4.95111C20.4476 4.47334 19.8001 4.20448 19.1246 4.20349H10.1258C9.4503 4.20448 8.80277 4.47334 8.32523 4.95111C7.8477 5.42888 7.57915 6.07654 7.57849 6.75204V29.2483C7.57915 29.9238 7.8477 30.5715 8.32523 31.0493C8.80277 31.527 9.4503 31.7959 10.1258 31.7969H19.1246C19.8001 31.7959 20.4476 31.527 20.9251 31.0493C21.4027 30.5715 21.6712 29.9238 21.6719 29.2483V16.0487H27.5585C27.6721 16.0497 27.7849 16.0282 27.8902 15.9854C27.9955 15.9427 28.0913 15.8795 28.1721 15.7995C28.2528 15.7195 28.317 15.6244 28.3608 15.5195C28.4046 15.4146 28.4273 15.3021 28.4275 15.1885ZM19.9513 29.2483C19.9513 29.4676 19.8642 29.6779 19.7092 29.8329C19.5541 29.988 19.3438 30.0751 19.1246 30.0751H10.1258C9.90653 30.0751 9.69624 29.988 9.5412 29.8329C9.38615 29.6779 9.29904 29.4676 9.29904 29.2483V6.75204C9.29904 6.53277 9.38615 6.32248 9.5412 6.16744C9.69624 6.01239 9.90653 5.92529 10.1258 5.92529H19.1246C19.3438 5.92529 19.5541 6.01239 19.7092 6.16744C19.8642 6.32248 19.9513 6.53277 19.9513 6.75204V10.9529H17.255C16.9163 10.5958 16.5081 10.3118 16.0555 10.1184C15.6029 9.92496 15.1155 9.8262 14.6233 9.82819C14.1353 9.81921 13.6505 9.90758 13.197 10.0881C12.7436 10.2687 12.3307 10.5377 11.9824 10.8797C11.6341 11.2216 11.3575 11.6295 11.1687 12.0795C10.9798 12.5296 10.8826 13.0127 10.8826 13.5008C10.8826 13.9889 10.9798 14.472 11.1687 14.9221C11.3575 15.3721 11.6341 15.78 11.9824 16.1219C12.3307 16.4639 12.7436 16.733 13.197 16.9135C13.6505 17.094 14.1353 17.1824 14.6233 17.1734C15.1155 17.1754 15.6029 17.0767 16.0555 16.8832C16.5081 16.6898 16.9163 16.4058 17.255 16.0487H19.9488L19.9513 29.2483ZM26.7007 14.3282H16.8628C16.7299 14.3288 16.5989 14.3599 16.4798 14.4191C16.3608 14.4783 16.257 14.564 16.1763 14.6696C15.9969 14.9121 15.7632 15.1092 15.494 15.2452C15.2248 15.3812 14.9274 15.4524 14.6258 15.4529C14.3653 15.4594 14.1061 15.4138 13.8636 15.3187C13.621 15.2235 13.3999 15.0808 13.2133 14.8989C13.0268 14.717 12.8785 14.4995 12.7773 14.2594C12.676 14.0193 12.6239 13.7614 12.6239 13.5008C12.6239 13.2402 12.676 12.9823 12.7773 12.7422C12.8785 12.5021 13.0268 12.2847 13.2133 12.1028C13.3999 11.9208 13.621 11.7781 13.8636 11.6829C14.1061 11.5878 14.3653 11.5422 14.6258 11.5487C14.9274 11.5493 15.2248 11.6204 15.494 11.7564C15.7632 11.8924 15.9969 12.0896 16.1763 12.332C16.257 12.4377 16.3608 12.5234 16.4798 12.5825C16.5989 12.6417 16.7299 12.6728 16.8628 12.6734H26.7007V14.3282Z" fill="black"/>
<path d="M10.9527 20.8115C10.9527 21.0396 11.0433 21.2584 11.2047 21.4198C11.366 21.5811 11.5848 21.6717 11.813 21.6717H17.4377C17.6658 21.6717 17.8846 21.5811 18.046 21.4198C18.2073 21.2584 18.2979 21.0396 18.2979 20.8115C18.2979 20.5833 18.2073 20.3645 18.046 20.2031C17.8846 20.0418 17.6658 19.9512 17.4377 19.9512H11.813C11.5849 19.9515 11.3663 20.0422 11.205 20.2035C11.0438 20.3648 10.953 20.5834 10.9527 20.8115Z" fill="black"/>
<path d="M17.4377 24.4551H11.813C11.5848 24.4551 11.366 24.5457 11.2047 24.707C11.0433 24.8684 10.9527 25.0872 10.9527 25.3154C10.9527 25.5435 11.0433 25.7623 11.2047 25.9237C11.366 26.085 11.5848 26.1756 11.813 26.1756H17.4377C17.6658 26.1756 17.8846 26.085 18.046 25.9237C18.2073 25.7623 18.2979 25.5435 18.2979 25.3154C18.2979 25.0872 18.2073 24.8684 18.046 24.707C17.8846 24.5457 17.6658 24.4551 17.4377 24.4551Z" fill="black"/>
<path d="M33.3359 18.6347C33.2869 18.4789 33.1786 18.3486 33.0342 18.2722C32.9623 18.2342 32.8836 18.2109 32.8026 18.2036C32.7216 18.1964 32.64 18.2053 32.5625 18.23L32.5414 18.2362L32.0573 18.4063C32.0284 18.4159 32.0005 18.4284 31.9741 18.4435C31.8477 18.5111 31.7486 18.6204 31.6936 18.7527C31.6386 18.8851 31.6311 19.0324 31.6724 19.1697C32.1972 20.9536 32.0345 22.8695 31.2164 24.5394C30.3984 26.2093 28.9843 27.512 27.2531 28.1908C27.1037 28.2469 26.9816 28.3585 26.9122 28.5023C26.8429 28.6461 26.8316 28.8111 26.8807 28.963L27.0421 29.4459C27.094 29.6009 27.205 29.7292 27.351 29.8029C27.497 29.8766 27.6661 29.8897 27.8217 29.8394L27.8478 29.8307C30.0006 28.9929 31.7598 27.3765 32.7764 25.3021C33.793 23.2277 33.9927 20.8469 33.3359 18.6322V18.6347Z" fill="black"/>
<path d="M30.0043 19.4325C29.9573 19.2766 29.851 19.1453 29.7082 19.0671C29.5654 18.9888 29.3975 18.9698 29.2408 19.0142L29.2073 19.0241L28.7232 19.1942C28.6958 19.2042 28.6692 19.2162 28.6437 19.2302C28.5183 19.2964 28.4193 19.4036 28.3633 19.534C28.3073 19.6643 28.2976 19.8099 28.3358 19.9465C28.6068 20.9588 28.5013 22.0351 28.0387 22.9755C27.5762 23.9159 26.7881 24.6565 25.8208 25.0597C25.6835 25.1151 25.5705 25.2177 25.5022 25.3491C25.4339 25.4804 25.4149 25.6318 25.4484 25.776C25.451 25.7946 25.4556 25.8129 25.462 25.8306L25.6209 26.311C25.6721 26.4665 25.7826 26.5955 25.9284 26.6698C26.0741 26.7442 26.2434 26.7581 26.3993 26.7083L26.4353 26.6959C27.8175 26.1337 28.9449 25.0831 29.6029 23.7438C30.261 22.4046 30.4038 20.8702 30.0043 19.4325Z" fill="black"/>
</svg>
