<svg width="36" height="36" viewBox="0 0 36 36" fill="none" xmlns="http://www.w3.org/2000/svg">
<path d="M18 6H10C8.3125 6 7 7.35938 7 9V27C7 28.6875 8.3125 30 10 30H18C19.6406 30 21 28.6875 21 27V9C21 7.35938 19.6406 6 18 6ZM19.5 27C19.5 27.8438 18.7969 28.5 18 28.5H10C9.15625 28.5 8.5 27.8438 8.5 27V9C8.5 8.20312 9.15625 7.5 10 7.5H18C18.7969 7.5 19.5 8.20312 19.5 9V27Z" fill="black"/>
<path d="M24.5 9H22.5C20.8125 9 19.5 10.3594 19.5 12V24C19.5 25.6875 20.8125 27 22.5 27H24.5C26.1406 27 27.5 25.6875 27.5 24V12C27.5 10.3594 26.1406 9 24.5 9ZM26 24C26 24.8438 25.2969 25.5 24.5 25.5H22.5C21.6562 25.5 21 24.8438 21 24V12C21 11.2031 21.6562 10.5 22.5 10.5H24.5C25.2969 10.5 26 11.2031 26 12V24Z" fill="black"/>
</svg>
