<svg width="36" height="36" viewBox="0 0 36 36" fill="none" xmlns="http://www.w3.org/2000/svg">
<path d="M24.9024 5.40009H22.2831V4.66767C22.2831 3.32699 21.2031 2.23458 19.85 2.22217C19.2045 2.22217 18.5962 2.47044 18.1369 2.92975C17.6776 3.38906 17.4169 3.99734 17.4169 4.64285V5.38768H11.0611C9.72038 5.38768 8.64038 6.48009 8.64038 7.80836V27.9311C8.64038 29.2718 9.72038 30.3517 11.0611 30.3517H17.5783H18.3852H24.9024C26.2431 30.3517 27.3231 29.2718 27.3231 27.9311V7.80836C27.3231 6.4925 26.2307 5.40009 24.9024 5.40009ZM19.1424 4.65526C19.1424 4.46906 19.2169 4.28285 19.3535 4.1463C19.49 4.00975 19.6638 3.93526 19.85 3.93526C20.2472 3.93526 20.5576 4.25802 20.5576 4.65526V5.38768H19.13L19.1424 4.65526ZM25.5727 27.9435C25.5727 28.3159 25.2748 28.6138 24.9024 28.6138H18.3852H17.5783H11.0611C10.6886 28.6138 10.3907 28.3159 10.3907 27.9435V7.82077C10.3907 7.44836 10.6886 7.15043 11.0611 7.15043H17.4169L17.4045 12.6249C17.4045 14.2883 18.6583 15.6539 20.3341 15.6539C21.141 15.6539 21.8114 15.3435 22.37 14.7725C22.941 14.2014 23.2638 13.4442 23.2638 12.6373C23.2638 11.7684 23.2638 11.1849 23.2762 10.5766C23.2762 10.0677 23.2762 10.167 23.2886 9.43456C23.2886 9.26077 23.2265 9.09939 23.1024 8.97526C22.9783 8.85112 22.8169 8.78905 22.6431 8.78905H22.221C22.0472 8.78905 21.8858 8.85112 21.7617 8.97526C21.6376 9.09939 21.5755 9.26077 21.5631 9.43456C21.5631 10.1918 21.5631 10.1049 21.5507 10.6263C21.5507 11.2097 21.5507 11.7808 21.5383 12.6249C21.5383 12.9725 21.4017 13.2952 21.1534 13.5435C20.9052 13.7918 20.6693 13.9283 20.3217 13.9283C19.6017 13.9283 19.1052 13.3449 19.1176 12.6249L19.13 7.13801H24.89C25.2624 7.13801 25.5603 7.43595 25.5603 7.80836V27.9435H25.5727Z" fill="black"/>
<path d="M22.3948 19.0679H14.09C13.7176 19.0679 13.4941 19.2789 13.4941 19.6637V20.2348C13.4941 20.6072 13.7052 20.8307 14.09 20.8307H22.3948C22.7672 20.8307 22.9906 20.6196 22.9906 20.2348V19.6637C22.9906 19.2913 22.7672 19.0679 22.3948 19.0679Z" fill="black"/>
<path d="M22.3948 22.5437H14.09C13.7176 22.5437 13.4941 22.7547 13.4941 23.1396V23.7106C13.4941 24.083 13.7052 24.3065 14.09 24.3065H22.3948C22.7672 24.3065 22.9906 24.0954 22.9906 23.7106V23.1396C22.9906 22.7547 22.7672 22.5437 22.3948 22.5437Z" fill="black"/>
</svg>
