<svg width="36" height="36" viewBox="0 0 36 36" fill="none" xmlns="http://www.w3.org/2000/svg">
<g clip-path="url(#clip0_248_77989)">
<path d="M23.5529 5H12.4471C11.0941 5 10 6.11429 10 7.49217V28.5198C10 29.8857 11.0941 31 12.4471 31H23.5647C24.9059 31 26.0118 29.8857 26.0118 28.5078V7.49217C26 6.11429 24.9059 5 23.5529 5ZM24.2941 28.5078C24.2941 28.9152 23.9647 29.2507 23.5647 29.2507H12.4471C12.0471 29.2507 11.7176 28.9152 11.7176 28.5078V7.49217C11.7176 7.08479 12.0471 6.74931 12.4471 6.74931H23.5647C23.9647 6.74931 24.2941 7.08479 24.2941 7.49217V28.5078Z" fill="black"/>
<path d="M12.9412 24.7338H23.0588V7.98352H12.9412V24.7338ZM14.5882 9.66094H21.4118V23.0563H14.5882V9.66094Z" fill="black"/>
<path d="M18 28.3878C18.7472 28.3878 19.3529 27.7709 19.3529 27.01C19.3529 26.249 18.7472 25.6321 18 25.6321C17.2528 25.6321 16.647 26.249 16.647 27.01C16.647 27.7709 17.2528 28.3878 18 28.3878Z" fill="black"/>
<path d="M20.7882 22.026C20.7882 22.1099 20.7177 22.1698 20.6471 22.1698H20.3412C20.2588 22.1698 20.2 22.0979 20.2 22.026C20.2 21.9421 20.2588 21.8822 20.3412 21.8822H20.6471C20.7294 21.8822 20.7882 21.9541 20.7882 22.026Z" fill="black"/>
<path d="M20.7882 21.3546C20.7882 21.4385 20.7177 21.4984 20.6471 21.4984H20.3412C20.2588 21.4984 20.2 21.4265 20.2 21.3546C20.2 21.2707 20.2588 21.2108 20.3412 21.2108H20.6471C20.7294 21.2108 20.7882 21.2707 20.7882 21.3546Z" fill="black"/>
<path d="M20.7882 20.6837C20.7882 20.7676 20.7177 20.8275 20.6471 20.8275H20.3412C20.2588 20.8275 20.2 20.7556 20.2 20.6837C20.2 20.5998 20.2588 20.5399 20.3412 20.5399H20.6471C20.7294 20.5399 20.7882 20.5998 20.7882 20.6837Z" fill="black"/>
<path d="M20.7882 20.0126C20.7882 20.0965 20.7177 20.1564 20.6471 20.1564H20.3412C20.2588 20.1564 20.2 20.0845 20.2 20.0126C20.2 19.9288 20.2588 19.8689 20.3412 19.8689H20.6471C20.7294 19.8569 20.7882 19.9288 20.7882 20.0126Z" fill="black"/>
<path d="M20.7882 18.9224C20.7882 19.0063 20.7177 19.0662 20.6471 19.0662H20.3412C20.2588 19.0662 20.2 18.9943 20.2 18.9224C20.2 18.8386 20.2588 18.7787 20.3412 18.7787H20.6471C20.7294 18.7667 20.7882 18.8386 20.7882 18.9224Z" fill="black"/>
<path d="M20.7882 18.2515C20.7882 18.3354 20.7177 18.3953 20.6471 18.3953H20.3412C20.2588 18.3953 20.2 18.3234 20.2 18.2515C20.2 18.1677 20.2588 18.1078 20.3412 18.1078H20.6471C20.7294 18.0958 20.7882 18.1677 20.7882 18.2515Z" fill="black"/>
<path d="M20.7882 17.5686C20.7882 17.6525 20.7177 17.7124 20.6471 17.7124H20.3412C20.2588 17.7124 20.2 17.6405 20.2 17.5686C20.2 17.4967 20.2588 17.4248 20.3412 17.4248H20.6471C20.7294 17.4248 20.7882 17.4847 20.7882 17.5686Z" fill="black"/>
<path d="M20.7882 16.8977C20.7882 16.9816 20.7177 17.0415 20.6471 17.0415H20.3412C20.2588 17.0415 20.2 16.9696 20.2 16.8977C20.2 16.8138 20.2588 16.7539 20.3412 16.7539H20.6471C20.7294 16.7539 20.7882 16.8138 20.7882 16.8977Z" fill="black"/>
<path d="M20.7882 15.8075C20.7882 15.8913 20.7177 15.9513 20.6471 15.9513H20.3412C20.2588 15.9513 20.2 15.8794 20.2 15.8075C20.2 15.7356 20.2588 15.6637 20.3412 15.6637H20.6471C20.7294 15.6637 20.7882 15.7356 20.7882 15.8075Z" fill="black"/>
<path d="M20.7882 15.1366C20.7882 15.2204 20.7177 15.2804 20.6471 15.2804H20.3412C20.2588 15.2804 20.2 15.2085 20.2 15.1366C20.2 15.0527 20.2588 14.9928 20.3412 14.9928H20.6471C20.7294 14.9928 20.7882 15.0527 20.7882 15.1366Z" fill="black"/>
<path d="M20.7882 14.4655C20.7882 14.5494 20.7177 14.6093 20.6471 14.6093H20.3412C20.2588 14.6093 20.2 14.5374 20.2 14.4655C20.2 14.3817 20.2588 14.3217 20.3412 14.3217H20.6471C20.7294 14.3098 20.7882 14.3817 20.7882 14.4655Z" fill="black"/>
<path d="M20.7882 13.7825C20.7882 13.8663 20.7177 13.9262 20.6471 13.9262H20.3412C20.2588 13.9262 20.2 13.8543 20.2 13.7825C20.2 13.6986 20.2588 13.6387 20.3412 13.6387H20.6471C20.7294 13.6387 20.7882 13.7106 20.7882 13.7825Z" fill="black"/>
<path d="M20.7882 12.6683C20.7882 12.7522 20.7177 12.8121 20.6471 12.8121H20.3412C20.2588 12.8121 20.2 12.7402 20.2 12.6683C20.2 12.5844 20.2588 12.5245 20.3412 12.5245H20.6471C20.7294 12.5125 20.7882 12.5844 20.7882 12.6683Z" fill="black"/>
<path d="M20.7882 11.9852C20.7882 12.0691 20.7177 12.129 20.6471 12.129H20.3412C20.2588 12.129 20.2 12.0571 20.2 11.9852C20.2 11.9133 20.2588 11.8414 20.3412 11.8414H20.6471C20.7294 11.8414 20.7882 11.9133 20.7882 11.9852Z" fill="black"/>
<path d="M20.7882 11.3143C20.7882 11.3982 20.7177 11.4581 20.6471 11.4581H20.3412C20.2588 11.4581 20.2 11.3862 20.2 11.3143C20.2 11.2304 20.2588 11.1705 20.3412 11.1705H20.6471C20.7294 11.1705 20.7882 11.2304 20.7882 11.3143Z" fill="black"/>
<path d="M20.7882 10.6433C20.7882 10.7271 20.7177 10.787 20.6471 10.787H20.3412C20.2588 10.787 20.2 10.7151 20.2 10.6433C20.2 10.5594 20.2588 10.4995 20.3412 10.4995H20.6471C20.7294 10.4875 20.7882 10.5594 20.7882 10.6433Z" fill="black"/>
<path d="M18.4471 17.6763H16.0235C15.5765 17.6763 15.2 18.0477 15.2 18.515V21.3426C15.2 21.7979 15.5647 22.1813 16.0235 22.1813H18.4471C18.8941 22.1813 19.2706 21.8099 19.2706 21.3426V18.515C19.2706 18.0597 18.8941 17.6763 18.4471 17.6763ZM17.9882 17.868C17.9882 17.9279 17.9882 17.9998 17.9882 18.0956H17.3294C17.3294 17.9998 17.3294 17.9279 17.3294 17.868H17.9882ZM17.3294 18.2753H17.9882C17.9882 18.6348 17.9882 19.0422 17.9882 19.0422C17.9882 19.0661 17.9647 19.0781 17.953 19.0781H17.3765C17.353 19.0781 17.3412 19.0541 17.3412 19.0422C17.3294 19.0422 17.3294 18.6348 17.3294 18.2753ZM16.4824 17.868H17.1412V18.0956H16.4824C16.4824 17.9998 16.4824 17.9279 16.4824 17.868ZM17.1412 18.2753V19.0422C17.1412 19.0661 17.1177 19.0781 17.1059 19.0781H16.5294C16.5177 19.0781 16.5059 19.0781 16.5059 19.0661C16.5059 19.0541 16.5059 19.0422 16.5059 19.0422H16.4941C16.4941 19.0302 16.4941 18.6228 16.4941 18.2753H17.1412ZM15.7177 17.9518C15.8118 17.8919 15.9177 17.868 16.0353 17.868H16.3059C16.3059 17.9159 16.3059 17.9878 16.3059 18.0956C16.3059 18.0956 15.7294 18.0956 15.7177 18.1076V17.9518ZM15.7177 18.2993C15.7177 18.2873 15.7177 18.2753 15.7412 18.2753H16.3059C16.3059 18.4551 16.3059 18.7067 16.3059 19.0422C16.3059 19.0661 16.3059 19.0901 16.3177 19.1141C16.3294 19.2219 16.353 19.2938 16.3647 19.3177C16.3882 19.3657 16.4471 19.5094 16.4118 19.6053C16.4 19.6412 16.3765 19.6652 16.3294 19.6892C16.1294 19.773 16 19.5334 15.9882 19.5214C15.9059 19.4016 15.8 19.3537 15.7177 19.3417V18.2993ZM15.5294 21.75C15.4471 21.6422 15.3882 21.4984 15.3882 21.3426V20.0247H15.5294V21.75ZM15.5294 19.833H15.3882V18.515C15.3882 18.3592 15.4353 18.2274 15.5294 18.1076V19.833ZM16.0235 21.9896C15.9059 21.9896 15.8 21.9537 15.7059 21.9058V21.774C15.7177 21.774 16.2941 21.774 16.2941 21.774C16.2941 21.8818 16.2941 21.9537 16.2941 22.0016H16.0235V21.9896ZM16.3412 20.5279C16.3412 20.5399 16.2824 20.6597 16.3059 20.8154C16.3059 21.1509 16.3059 21.4025 16.3059 21.5823H15.7412C15.7177 21.5823 15.7177 21.5703 15.7177 21.5583V20.4919C15.7882 20.48 15.8941 20.432 15.9765 20.3122C15.9765 20.3002 16.1177 20.0726 16.3177 20.1445C16.3647 20.1565 16.3882 20.1924 16.4 20.2283C16.4235 20.3242 16.3647 20.468 16.3412 20.5279ZM17.1412 21.9896H16.4824C16.4824 21.9297 16.4824 21.8578 16.4824 21.774H17.1412V21.9896ZM17.1412 21.5823H16.4824C16.4824 21.2228 16.4824 20.8154 16.4824 20.8154C16.4824 20.7915 16.5059 20.7795 16.5177 20.7795H17.0941C17.1177 20.7795 17.1294 20.8035 17.1294 20.8154L17.1412 21.5823ZM17.9882 21.5823H17.3294C17.3294 21.2348 17.3294 20.8154 17.3294 20.8154C17.3294 20.7915 17.353 20.7795 17.3647 20.7795H17.9412C17.9647 20.7795 17.9765 20.7915 17.9765 20.8154C17.9882 20.8154 17.9882 21.2348 17.9882 21.5823ZM17.3294 21.9896C17.3294 21.9297 17.3294 21.8578 17.3294 21.774H17.9882C17.9882 21.8578 17.9882 21.9417 17.9882 21.9896H17.3294ZM18.7765 21.8938C18.6824 21.9537 18.5647 21.9896 18.4471 21.9896H18.1647C18.1647 21.9417 18.1647 21.8698 18.1647 21.762C18.1647 21.762 18.7647 21.762 18.7765 21.762V21.8938ZM18.7765 21.5703C18.7765 21.5823 18.7765 21.5942 18.753 21.5942H18.1647C18.1647 21.4145 18.1647 21.1629 18.1647 20.8274V20.8154C18.1765 20.6717 18.1294 20.5518 18.1177 20.5399C18.0941 20.4919 18.0353 20.3482 18.0706 20.2523C18.0824 20.2164 18.1059 20.1924 18.153 20.1684C18.353 20.0846 18.4824 20.3242 18.4941 20.3362C18.5765 20.468 18.6941 20.5039 18.7647 20.5159V21.5703H18.7765ZM18.7765 20.3122C18.7412 20.3002 18.6941 20.2763 18.6588 20.2164C18.5882 20.0846 18.3647 19.8569 18.0941 19.9767C18 20.0127 17.9412 20.0726 17.9059 20.1684C17.8471 20.3362 17.9294 20.5279 17.953 20.5878H17.3765C17.3294 20.5878 17.2824 20.5998 17.2471 20.6357C17.2118 20.6118 17.1647 20.5878 17.1177 20.5878H16.5412C16.5412 20.5878 16.5412 20.5878 16.5294 20.5878C16.553 20.5399 16.6 20.42 16.6 20.3002C16.6 20.2523 16.5882 20.2044 16.5765 20.1684C16.5412 20.0846 16.4824 20.0127 16.3882 19.9767C16.1059 19.8569 15.8941 20.0846 15.8235 20.2164C15.7882 20.2643 15.753 20.2883 15.7177 20.3002V19.5334C15.753 19.5454 15.7882 19.5694 15.8235 19.6173C15.8941 19.7491 16.1177 19.9767 16.3882 19.8569C16.4824 19.821 16.5412 19.7611 16.5765 19.6652C16.5882 19.6173 16.6 19.5813 16.6 19.5334C16.6 19.4256 16.5647 19.3177 16.5412 19.2698H17.1059C17.153 19.2698 17.2 19.2578 17.2353 19.2219C17.2706 19.2459 17.3177 19.2698 17.3647 19.2698H17.9412C17.9059 19.3417 17.8471 19.5214 17.9059 19.6772C17.9412 19.7611 18 19.833 18.0941 19.8689C18.3765 19.9887 18.5882 19.7611 18.6588 19.6293C18.6941 19.5694 18.7412 19.5454 18.7765 19.5334V20.3122ZM18.7765 19.3417C18.6941 19.3537 18.5882 19.4016 18.4941 19.5334C18.4941 19.5454 18.353 19.773 18.153 19.7012C18.1059 19.6892 18.0824 19.6532 18.0706 19.6173C18.0353 19.5214 18.0941 19.3777 18.1177 19.3177C18.1177 19.3058 18.1647 19.1859 18.1647 19.0541C18.1647 18.7187 18.1647 18.4671 18.1647 18.2873H18.7412C18.7647 18.2873 18.7647 18.2993 18.7647 18.3113V19.3417H18.7765ZM18.7765 18.0956C18.7647 18.0956 18.1647 18.0836 18.1647 18.0836C18.1647 17.9758 18.1647 17.9039 18.1647 17.856H18.4471C18.5647 17.856 18.6824 17.8919 18.7765 17.9518V18.0956ZM19.0824 21.3426C19.0824 21.4864 19.0353 21.6182 18.9529 21.726V20.0247H19.0824V21.3426ZM19.0824 19.833H18.9529V18.1316C19.0353 18.2394 19.0824 18.3712 19.0824 18.515V19.833Z" fill="black"/>
<path d="M18.6354 10.6194V15.424C18.6354 15.4959 18.5766 15.5438 18.5177 15.5438H15.953C15.8824 15.5438 15.8354 15.4839 15.8354 15.424V10.6194C15.8354 10.5475 15.8942 10.4996 15.953 10.4996H18.5177C18.5883 10.4876 18.6354 10.5475 18.6354 10.6194Z" fill="black"/>
</g>
<defs>
<clipPath id="clip0_248_77989">
<rect width="16" height="26" fill="white" transform="translate(10 5)"/>
</clipPath>
</defs>
</svg>
