<svg width="36" height="36" viewBox="0 0 36 36" fill="none" xmlns="http://www.w3.org/2000/svg">
<path d="M31.3461 19.9127C31.3461 19.7079 31.3461 19.554 31.3461 19.4323C31.3472 19.3661 31.3414 19.2999 31.3288 19.2349C31.311 19.0962 31.2512 18.9663 31.1575 18.8625L31.1512 18.8563C31.1512 18.8489 31.1388 18.8426 31.1326 18.8352L31.0929 18.793C30.9746 18.666 30.8341 18.5617 30.6783 18.4851L30.5877 18.4404L12.0514 14.0596H11.9856C11.0483 13.9889 10.4773 14.2756 10.2377 14.437L3.79994 17.8508L3.77387 17.8632C3.67428 17.9166 3.57921 17.9781 3.48959 18.0469C3.21525 18.2418 2.78945 18.6788 2.78945 19.5055V22.2689C2.78216 22.4485 2.81043 22.6279 2.87263 22.7966C2.93484 22.9653 3.02976 23.1201 3.15194 23.252C3.41469 23.5255 3.75026 23.7181 4.11897 23.8069C4.51621 23.9174 14.0426 26.7614 22.8253 29.3857L22.9954 29.4366C23.2068 29.4952 23.4253 29.524 23.6446 29.5222C23.9998 29.5235 24.3512 29.4486 24.675 29.3025C24.8903 29.2048 25.0909 29.0773 25.2708 28.9239L30.8695 24.121L30.9241 24.0689C31.3238 23.6555 31.3424 22.6239 31.3424 22.6164C31.3424 22.609 31.3424 21.8182 31.3424 21.0175L31.3461 19.9127ZM4.52118 22.3955L4.33621 22.3694L4.52366 22.3769L4.52118 22.3955ZM4.28159 22.3111H4.52987C4.53048 22.3197 4.53048 22.3284 4.52987 22.3371L4.28159 22.3111ZM22.9507 27.6117C18.3042 26.2239 5.08601 22.2738 4.57828 22.1348L4.52242 22.1174V20.2889L22.9457 25.3785L22.9507 27.6117ZM23.6248 23.7635L5.73897 18.8203L11.0769 15.9651H11.139L11.2283 15.8671C11.4108 15.7931 11.6084 15.7642 11.8043 15.7826L28.6201 19.7737L23.6248 23.7635ZM29.6045 22.6127C29.6026 22.7274 29.5876 22.8415 29.5598 22.9529L24.6886 27.1313V25.1389L29.6082 21.21C29.607 21.6966 29.6057 22.2031 29.6045 22.614V22.6127Z" fill="black"/>
<path d="M23.1591 9.93121C22.5884 9.70914 21.9528 9.72289 21.3922 9.96942C20.8316 10.216 20.3919 10.6751 20.1699 11.2458C19.9478 11.8166 19.9615 12.4521 20.2081 13.0127C20.4546 13.5733 20.9137 14.013 21.4845 14.2351C21.6607 14.3033 21.8445 14.3499 22.0319 14.3741C22.5911 14.4452 23.1571 14.3093 23.623 13.992C24.089 13.6747 24.4227 13.1978 24.5614 12.6514C24.7 12.105 24.6339 11.5267 24.3756 11.0256C24.1173 10.5245 23.6846 10.1353 23.1591 9.93121ZM23.0896 12.3854C23.0339 12.5285 22.9392 12.653 22.8162 12.7449C22.6932 12.8367 22.5468 12.8922 22.3938 12.9049C22.2409 12.9176 22.0874 12.8871 21.9509 12.8168C21.8144 12.7465 21.7004 12.6393 21.6219 12.5074C21.5434 12.3755 21.5035 12.2241 21.5069 12.0707C21.5102 11.9172 21.5566 11.7677 21.6407 11.6393C21.7249 11.5109 21.8434 11.4087 21.9828 11.3444C22.1222 11.2801 22.2769 11.2563 22.4292 11.2756C22.4959 11.2834 22.5614 11.2996 22.624 11.324C22.7244 11.363 22.8161 11.4214 22.8939 11.4959C22.9716 11.5704 23.0339 11.6595 23.0772 11.7581C23.1204 11.8567 23.1438 11.9628 23.1459 12.0705C23.148 12.1782 23.1289 12.2852 23.0896 12.3854Z" fill="black"/>
<path d="M18.8181 4.48646C18.8863 4.63524 19.0094 4.75191 19.1616 4.81206C19.3139 4.87221 19.4835 4.87119 19.635 4.80921C21.4102 4.1216 23.3786 4.12368 25.1524 4.81504C26.9261 5.5064 28.3767 6.83693 29.2184 8.54452C29.2819 8.67714 29.3897 8.78349 29.5231 8.84533C29.6565 8.90717 29.8073 8.92064 29.9496 8.88342C29.9797 8.87571 30.0091 8.86575 30.0377 8.85362L30.5206 8.64631C30.5276 8.64376 30.5342 8.64043 30.5405 8.63638C30.6162 8.60156 30.6841 8.55185 30.7402 8.49022C30.7963 8.42858 30.8394 8.35628 30.867 8.27763C30.9229 8.11971 30.914 7.94607 30.8421 7.79473C29.8021 5.67049 28.0015 4.01489 25.7976 3.15647C23.5937 2.29804 21.1476 2.29954 18.9447 3.16066L18.9187 3.17059C18.843 3.20479 18.7748 3.25356 18.718 3.31413C18.6612 3.3747 18.6169 3.44587 18.5876 3.52358C18.5583 3.60129 18.5446 3.684 18.5473 3.767C18.55 3.85 18.5691 3.93165 18.6034 4.00728L18.8181 4.48646Z" fill="black"/>
<path d="M26.1658 10.2759C26.2319 10.4053 26.3401 10.5082 26.4727 10.5675C26.6052 10.6269 26.754 10.6392 26.8945 10.6024C26.9234 10.5953 26.9517 10.5858 26.9789 10.5738L27.4618 10.3665L27.4941 10.3516C27.6441 10.2774 27.7586 10.1467 27.8123 9.98825C27.8661 9.82976 27.8548 9.65642 27.7809 9.50626C27.084 8.14638 25.912 7.08985 24.4873 6.53738C23.0627 5.98492 21.4847 5.97502 20.0533 6.50956L20.0173 6.52446C19.9415 6.55887 19.8733 6.60791 19.8165 6.66876C19.7598 6.72962 19.7156 6.80108 19.6865 6.87905C19.6575 6.95703 19.6441 7.03997 19.6472 7.12313C19.6502 7.20629 19.6697 7.28802 19.7045 7.36363L19.918 7.83536C19.9258 7.85296 19.935 7.86997 19.9453 7.88626C20.0215 8.01878 20.1426 8.11973 20.2866 8.17094C20.4307 8.22214 20.5883 8.22024 20.7311 8.16557C21.739 7.80026 22.8451 7.8128 23.8445 8.20086C24.8438 8.58891 25.6686 9.32616 26.1658 10.2759Z" fill="black"/>
</svg>
