<svg width="36" height="36" viewBox="0 0 36 36" fill="none" xmlns="http://www.w3.org/2000/svg">
<path d="M29.0924 9.45865H22.6811V8.60211C22.6811 7.22418 21.5651 6.10693 20.1886 6.10693H16.2327C14.8562 6.10693 13.7401 7.22418 13.7401 8.60211V9.45865H7.32886C6.16317 9.45865 5.2207 10.4021 5.2207 11.569V24.9759C5.2207 26.1428 6.16317 27.0862 7.32886 27.0862H29.0924C30.2581 27.0862 31.2006 26.1428 31.2006 24.9759V11.569C31.2006 10.4021 30.2581 9.45865 29.0924 9.45865ZM15.4391 8.60211C15.4391 8.16763 15.7986 7.80762 16.2327 7.80762H20.1886C20.6226 7.80762 20.9822 8.16763 20.9822 8.60211V9.45865H15.4391V8.60211ZM29.5016 24.6655C29.5016 25.0628 29.1792 25.3855 28.7824 25.3855H7.65123C7.2544 25.3855 6.932 25.0628 6.932 24.6655V17.8752H15.2654V19.1786C15.2654 19.6504 15.6499 20.0352 16.1211 20.0352H20.3126C20.7839 20.0352 21.1682 19.6504 21.1682 19.1786V17.8752H29.5016V24.6655ZM29.5016 16.1621H6.932V11.8793C6.932 11.4821 7.2544 11.1593 7.65123 11.1593H28.7824C29.1792 11.1593 29.5016 11.4821 29.5016 11.8793V16.1621Z" fill="black"/>
</svg>
