<svg width="36" height="36" viewBox="0 0 36 36" fill="none" xmlns="http://www.w3.org/2000/svg">
<path d="M31.9903 11.0857L25.4606 4.65532C25.1378 4.33257 24.6785 4.14636 24.182 4.14636C23.6978 4.14636 23.2261 4.33257 22.9034 4.65532L21.9847 5.57395C21.3888 6.16981 21.3019 7.12566 21.7613 7.84566C20.9295 9.37255 20.0978 9.69531 19.5019 9.94359C18.8564 10.1919 18.0495 10.5022 17.8261 11.7064L17.2426 14.5243H8.255C7.89499 14.5243 7.55981 14.7477 7.43567 15.0953L3.8729 24.7532C3.77358 25.0139 3.81083 25.3118 3.97221 25.5477C4.13359 25.7836 4.40669 25.9201 4.6798 25.9201H26.9627C27.2482 25.9201 27.5089 25.7836 27.6703 25.5477C27.8316 25.3118 27.8689 25.0139 27.7696 24.7532L25.4854 18.5712C26.1558 18.2484 26.4041 17.7022 26.6275 17.2056L26.6772 17.0939C26.9627 16.3863 27.3599 15.6291 28.7751 14.8346C29.0854 15.0457 29.4454 15.1574 29.7682 15.1574C30.2523 15.1574 30.6868 14.9712 31.0468 14.6112L31.953 13.6553C32.3006 13.3326 32.4868 12.8981 32.4992 12.4388C32.5365 11.9298 32.3379 11.4332 31.9903 11.0857ZM25.7213 24.1698H5.93358L8.85084 16.2498H16.8702L16.2247 19.3408C16.1626 19.6636 16.2619 19.8622 16.3364 19.9491C16.3612 19.9863 16.3985 20.0112 16.5226 20.1105C16.5599 20.1353 16.5971 20.1725 16.6344 20.1974C16.7461 20.2843 16.8826 20.3339 17.0564 20.3339C17.0937 20.3339 17.1185 20.3339 17.1557 20.3339C17.2799 20.3215 17.9378 20.1725 18.1364 20.1353L23.7971 18.9932L25.7213 24.1698ZM25.1751 16.3987L25.1502 16.4484C24.8647 17.0194 24.8151 17.0939 24.604 17.1808L19.7254 18.1863L22.0095 15.8401C22.2082 15.9022 22.4068 15.9394 22.6178 15.9394C23.7227 15.9394 24.6289 15.0332 24.6289 13.9284C24.6289 12.8236 23.7227 11.9174 22.6178 11.9174C21.513 11.9174 20.6068 12.8236 20.6068 13.9284C20.6068 14.1643 20.644 14.4001 20.7309 14.6236L18.4964 16.9201L19.5019 12.0539C19.564 11.7684 19.5764 11.7436 20.1475 11.5077C20.7681 11.2594 21.8978 10.8001 22.9902 9.09946L27.5461 13.6553C25.9944 14.6608 25.5102 15.7036 25.1751 16.3987ZM22.084 13.916C22.084 13.6181 22.3199 13.3822 22.6178 13.3822C22.9158 13.3822 23.1516 13.6181 23.1516 13.916C23.1516 14.2139 22.9158 14.4498 22.6178 14.4498C22.3199 14.4498 22.084 14.2139 22.084 13.916ZM30.7862 12.4884L29.8675 13.407C29.8427 13.4319 29.8054 13.4443 29.7682 13.4443C29.7558 13.4443 29.7434 13.4443 29.7434 13.4319L29.731 13.4194L23.2385 6.87739C23.1889 6.82774 23.1889 6.76566 23.2385 6.71601L24.1571 5.79738C24.1944 5.76014 24.1944 5.76015 24.2316 5.76015C24.2689 5.76015 24.2689 5.76014 24.3061 5.79738L30.7862 12.327C30.811 12.3519 30.8234 12.3767 30.8234 12.4015C30.8234 12.4263 30.811 12.4636 30.7862 12.4884Z" fill="black"/>
<path d="M16.8208 21.4763C16.7835 21.3894 16.6842 21.3025 16.5849 21.3025H8.59068C8.49137 21.3025 8.37965 21.377 8.34241 21.4639L7.80863 22.7921C7.77139 22.879 7.82103 22.9535 7.92034 22.9535H16.8953C16.9946 22.9535 17.0442 22.879 17.0194 22.7797L16.8208 21.4763Z" fill="black"/>
</svg>
