<svg width="36" height="36" viewBox="0 0 36 36" fill="none" xmlns="http://www.w3.org/2000/svg">
<path d="M29.0029 20.7866C28.4354 20.2392 27.7648 19.81 27.0301 19.5238C26.2161 19.1949 25.3671 18.9603 24.4998 18.8246C21.9756 16.9665 18.9106 15.9897 15.7767 16.0446C14.0056 16.0139 12.2345 16.1052 10.4758 16.3177C9.61495 16.4573 9.20093 16.4895 8.25683 17.7631C7.74699 18.3976 7.28497 19.0691 6.87457 19.772L6.84234 19.8499L6.82759 19.8881C6.79646 20.0083 6.77401 20.1305 6.76047 20.2538C6.74436 20.3652 6.7296 20.4961 6.71349 20.6517C6.70611 20.7269 6.69877 20.7973 6.69273 20.8618C6.61015 20.9408 6.53447 21.0268 6.46658 21.1188C6.15357 21.5463 5.99059 22.0652 6.00293 22.595C5.98215 23.0506 6.07226 23.5045 6.26557 23.9177C6.45888 24.3308 6.74962 24.6909 7.11276 24.9669C7.27752 25.067 7.45172 25.1506 7.6328 25.2166C7.79964 25.6511 8.09185 26.0263 8.47234 26.2945C8.85282 26.5626 9.30438 26.7117 9.76974 26.7227C10.2351 26.7337 10.6933 26.6061 11.086 26.3563C11.4787 26.1064 11.7883 25.7454 11.9755 25.3192H23.1068C23.2868 25.7298 23.5806 26.0802 23.9534 26.3292C24.3262 26.5781 24.7624 26.7152 25.2106 26.7241C25.6588 26.7331 26.1002 26.6136 26.4827 26.3797C26.8651 26.1459 27.1727 25.8075 27.369 25.4044C27.9234 25.4409 28.4799 25.3782 29.0123 25.2192C29.3119 25.099 29.563 24.8825 29.7262 24.6039C29.8277 24.4206 29.8973 24.2214 29.9322 24.0148C29.9819 23.7198 30.0044 23.4208 29.9993 23.1217C29.998 22.6856 29.9091 22.2542 29.7379 21.8531C29.5668 21.452 29.3168 21.0893 29.0029 20.7866ZM22.4787 19.0782C20.6 19.315 18.7048 19.3956 16.8128 19.3191L16.7014 17.4007C18.7286 17.5196 20.7031 18.0929 22.4787 19.0782ZM15.3426 17.3732L15.4527 19.2795C14.1838 19.2326 13.0142 19.1621 12.1479 19.0957L12.0057 17.4853C12.8196 17.4276 13.9241 17.3819 15.3426 17.3732ZM10.5402 25.0971C10.4462 25.1925 10.3341 25.2682 10.2105 25.3197C10.0869 25.3712 9.95417 25.3975 9.82024 25.3971C9.58406 25.3977 9.35498 25.3164 9.17205 25.167C8.98911 25.0176 8.86367 24.8094 8.81705 24.5779C8.77044 24.3464 8.80553 24.1059 8.91641 23.8973C9.02728 23.6888 9.20705 23.5252 9.42507 23.4344C9.64308 23.3435 9.88587 23.3311 10.112 23.3993C10.3381 23.4674 10.5336 23.6119 10.6652 23.808C10.7967 24.0042 10.8562 24.2398 10.8334 24.4749C10.8106 24.71 10.707 24.9299 10.5402 25.0971ZM25.9733 25.0971C25.8068 25.2637 25.5877 25.3674 25.3534 25.3905C25.119 25.4137 24.8839 25.3549 24.6881 25.2241C24.4922 25.0934 24.3478 24.8987 24.2794 24.6734C24.2109 24.4481 24.2227 24.206 24.3127 23.9884C24.4028 23.7708 24.5655 23.5911 24.7731 23.48C24.9808 23.3689 25.2205 23.3333 25.4515 23.3791C25.6825 23.425 25.8904 23.5495 26.0399 23.7315C26.1894 23.9135 26.2711 24.1416 26.2712 24.3771C26.2718 24.511 26.2457 24.6436 26.1944 24.7672C26.1432 24.8908 26.0678 25.003 25.9726 25.0971H25.9733ZM28.6124 23.8135C28.6046 23.8653 28.5861 23.9149 28.558 23.9591C28.5314 23.9779 28.5016 23.9917 28.4701 24C28.178 24.0635 27.8789 24.0881 27.5804 24.0732C27.505 23.5174 27.2334 23.007 26.8144 22.6342C26.3955 22.2614 25.8569 22.0507 25.2962 22.0404C24.7355 22.0301 24.1896 22.2209 23.7573 22.5781C23.3249 22.9353 23.0347 23.4354 22.939 23.988H12.1359C12.0477 23.474 11.7909 23.0041 11.4061 22.6522C11.0213 22.3003 10.5304 22.0865 10.0107 22.0444C9.49094 22.0023 8.97198 22.1344 8.53561 22.4199C8.09924 22.7053 7.77028 23.1279 7.60057 23.6209C7.50002 23.479 7.42635 23.3198 7.38318 23.1512C7.34165 22.9672 7.32294 22.7788 7.32749 22.5903C7.31861 22.442 7.34194 22.2935 7.39592 22.1551C7.4499 22.0166 7.53324 21.8916 7.64018 21.7884L7.67101 21.7622L7.89717 21.5348C7.94928 21.447 7.98093 21.3486 7.98977 21.2469V21.2308C7.98977 21.1939 8.00183 21.0912 8.01458 20.9624C8.02465 20.8436 8.04681 20.6155 8.07163 20.4363C8.07632 20.3935 8.08327 20.351 8.09244 20.3089C8.38952 19.7807 8.73188 19.2794 9.11569 18.8105C9.34451 18.5226 9.55788 18.2596 9.731 18.0724C9.97623 17.8159 10.3073 17.6585 10.661 17.6302L10.8523 19.7861C10.8664 19.9447 10.936 20.0931 11.0488 20.2054C11.1615 20.3177 11.3103 20.3867 11.4689 20.4001C11.6964 20.4209 14.9132 20.6907 18.1454 20.6907C20.4557 20.6907 22.7753 20.5524 24.0126 20.0867C24.0544 20.102 24.0979 20.1124 24.1421 20.1176L24.1757 20.1223L24.2522 20.1344C24.3226 20.1445 24.4314 20.1606 24.5723 20.1874C24.9359 20.2552 25.2959 20.3419 25.6506 20.4471C26.5407 20.679 27.3644 21.1156 28.0561 21.722C28.2476 21.902 28.4003 22.1192 28.5049 22.3604C28.6094 22.6016 28.6636 22.8615 28.664 23.1244C28.6701 23.3552 28.6528 23.5861 28.6124 23.8135Z" fill="black"/>
<path fill-rule="evenodd" clip-rule="evenodd" d="M21.1231 9.22546C20.6861 8.78841 19.9009 9.01298 19.8256 9.67304C19.7521 10.3183 19.6558 11.5598 19.909 12.4599C20.2155 13.5497 21.0778 14.4263 22.0556 14.8563C23.0371 15.2879 24.2384 15.3059 25.1492 14.5007C25.2623 14.4006 25.3672 14.2866 25.457 14.1568C25.5354 14.0436 25.6086 13.9257 25.6758 13.8039C25.9182 14.0301 26.1311 14.2915 26.3062 14.5834L26.6507 15.1575C26.7968 15.4011 27.1128 15.4801 27.3565 15.334C27.6001 15.1878 27.6791 14.8718 27.5329 14.6282L27.1884 14.0541C26.8899 13.5566 26.5061 13.1279 26.062 12.7824C26.2338 11.9653 26.0871 11.1028 25.3978 10.4136C24.8878 9.90355 24.121 9.85349 23.5442 9.89591C22.5839 9.96653 21.6898 9.79217 21.1231 9.22546ZM25.0978 12.2049C25.1003 11.8008 24.9608 11.4316 24.6703 11.1411C24.4995 10.9703 24.1447 10.8834 23.6197 10.922C22.6975 10.9898 21.6382 10.8759 20.801 10.2922C20.7566 10.9069 20.7513 11.6546 20.8994 12.1814C21.1116 12.9357 21.7338 13.5909 22.4697 13.9144C23.2018 14.2363 23.9433 14.1935 24.4677 13.7299C24.5266 13.6778 24.574 13.6247 24.6111 13.5711C24.6931 13.4527 24.7649 13.3334 24.8265 13.2141C24.3349 12.9688 23.786 12.8351 23.2184 12.8351H22.4619C22.1778 12.8351 21.9475 12.6048 21.9475 12.3207C21.9475 12.0366 22.1778 11.8063 22.4619 11.8063H23.2184C23.8765 11.8063 24.5152 11.946 25.0978 12.2049Z" fill="black"/>
</svg>
