<svg width="36" height="36" viewBox="0 0 36 36" fill="none" xmlns="http://www.w3.org/2000/svg">
<path d="M22.3448 19.2314L21.1034 18.8813C21.0569 18.8694 21.0076 18.8756 20.9654 18.8987C20.9233 18.9217 20.8914 18.9599 20.8763 19.0054C20.8763 19.0054 20.8763 19.0054 20.8403 19.0961C20.6117 19.6649 20.2162 20.1512 19.7057 20.4907C19.1953 20.8302 18.5939 21.0071 17.9809 20.9979C17.3679 20.9888 16.7721 20.7941 16.272 20.4395C15.7719 20.0849 15.391 19.5871 15.1796 19.0116L15.1585 18.9545C15.1374 18.89 15.043 18.859 14.9487 18.8838L13.7073 19.2165C13.6129 19.2425 13.5496 19.3133 13.5683 19.3754L13.5869 19.43C13.893 20.3572 14.4814 21.1654 15.2697 21.7414C16.058 22.3175 17.0068 22.6326 17.9831 22.6426C18.9594 22.6526 19.9144 22.357 20.7144 21.7972C21.5143 21.2373 22.1191 20.4413 22.4441 19.5206L22.4727 19.4424C22.479 19.4201 22.4806 19.3968 22.4775 19.3739C22.4744 19.351 22.4666 19.3289 22.4546 19.3091C22.4426 19.2893 22.4267 19.2722 22.4078 19.2588C22.3889 19.2455 22.3675 19.2361 22.3448 19.2314Z" fill="black"/>
<path d="M31.2381 21.7325L30.9352 21.648C30.8954 21.6325 30.8512 21.6329 30.8117 21.649C30.7722 21.6652 30.7404 21.696 30.7229 21.7349L30.7031 21.802C29.8741 24.54 28.1813 26.9363 25.8777 28.6325C23.5741 30.3288 20.7833 31.234 17.9226 31.2127C15.0619 31.1915 12.2849 30.245 10.0067 28.5147C7.72854 26.7845 6.07151 24.3633 5.28333 21.6133L5.26968 21.5673C5.25478 21.5165 5.1654 21.4953 5.07105 21.5202L4.76816 21.6009C4.67381 21.6269 4.60926 21.6952 4.6254 21.7548L4.64154 21.8082C5.47234 24.698 7.21642 27.2412 9.61289 29.0573C12.0094 30.8734 14.9294 31.8649 17.9362 31.8833C20.9431 31.9018 23.8751 30.9462 26.2936 29.1596C28.7122 27.3731 30.4873 24.8515 31.3535 21.972L31.3734 21.9087C31.3933 21.838 31.3324 21.7598 31.2381 21.7325Z" fill="black"/>
<path d="M7.24719 21.0561C7.23105 20.9953 7.13919 20.968 7.0436 20.9928L6.57932 21.1169C6.48374 21.143 6.42043 21.2137 6.43781 21.2758L6.45395 21.3317C7.17584 23.8262 8.68482 26.0205 10.7558 27.5873C12.8268 29.154 15.3488 30.0093 17.9456 30.0255C20.5424 30.0417 23.0749 29.2179 25.1653 27.6771C27.2557 26.1363 28.7919 23.961 29.5448 21.4757L29.5647 21.4086C29.5708 21.3669 29.5603 21.3244 29.5355 21.2903C29.5107 21.2562 29.4735 21.2332 29.4319 21.2262L28.9688 21.102C28.926 21.088 28.8794 21.0912 28.8389 21.1109C28.7984 21.1306 28.7671 21.1652 28.7516 21.2075L28.728 21.2845C28.0159 23.5855 26.5814 25.5958 24.6372 27.0177C22.693 28.4396 20.3424 29.1973 17.9338 29.1786C15.5253 29.16 13.1867 28.3659 11.2648 26.9141C9.34286 25.4622 7.93973 23.4299 7.26332 21.1182L7.24719 21.0561Z" fill="black"/>
<path d="M8.24147 20.8552C8.24147 20.8552 8.24147 20.8552 8.26878 20.9446C8.90735 23.0331 10.1995 24.8615 11.9552 26.1606C13.7108 27.4596 15.8371 28.1608 18.0211 28.1608C20.205 28.1608 22.3313 27.4596 24.0869 26.1606C25.8426 24.8615 27.1348 23.0331 27.7733 20.9446L27.792 20.8875C27.8106 20.823 27.7473 20.7497 27.6529 20.7224L26.9801 20.5337C26.9574 20.5273 26.9337 20.5254 26.9103 20.5282C26.8869 20.531 26.8643 20.5383 26.8438 20.5499C26.8233 20.5614 26.8052 20.5769 26.7907 20.5954C26.7762 20.6139 26.7654 20.6352 26.7591 20.6579L26.7331 20.7398C26.1415 22.5995 24.9704 24.2211 23.391 25.3675C21.8117 26.5139 19.907 27.1248 17.9555 27.1109C16.004 27.097 14.1081 26.4591 12.5452 25.2904C10.9823 24.1217 9.83439 22.4836 9.26933 20.6156L9.24947 20.5511C9.23203 20.5127 9.20059 20.4825 9.16159 20.4666C9.12258 20.4507 9.07897 20.4503 9.03967 20.4654L8.36436 20.6467C8.32096 20.6589 8.28395 20.6874 8.26105 20.7263C8.23816 20.7651 8.23114 20.8113 8.24147 20.8552Z" fill="black"/>
<path d="M11.2308 20.012C11.2124 19.9742 11.1805 19.9448 11.1413 19.9296C11.1022 19.9144 11.0588 19.9146 11.0197 19.9301L10.1657 20.1585C10.1447 20.162 10.1246 20.1695 10.1066 20.1808C10.0886 20.192 10.0729 20.2067 10.0606 20.224C10.0482 20.2413 10.0394 20.2609 10.0347 20.2816C10.0299 20.3023 10.0293 20.3237 10.0329 20.3447L10.054 20.413C10.5762 22.1103 11.6269 23.5965 13.0529 24.655C14.4789 25.7134 16.2056 26.2888 17.9815 26.2972C19.7574 26.3057 21.4895 25.7468 22.9255 24.7019C24.3615 23.6571 25.4263 22.181 25.9647 20.4887L25.9883 20.4155C25.9972 20.3732 25.9892 20.3291 25.966 20.2927C25.9428 20.2562 25.9062 20.2304 25.8641 20.2206L25.0076 19.9859C24.9667 19.9707 24.9215 19.9719 24.8815 19.9892C24.8414 20.0066 24.8097 20.0388 24.7928 20.079L24.7705 20.1498C24.3072 21.5825 23.3999 22.8305 22.1802 23.7134C20.9604 24.5962 19.4913 25.0679 17.9856 25.0603C16.4799 25.0527 15.0157 24.5661 13.8048 23.6711C12.594 22.776 11.6995 21.5188 11.2506 20.0815L11.2308 20.012Z" fill="black"/>
<path d="M11.8167 19.8314L11.8328 19.8848C12.2402 21.1956 13.0534 22.3432 14.1551 23.1621C15.2568 23.981 16.5901 24.4289 17.9628 24.4412C19.3354 24.4534 20.6765 24.0295 21.7927 23.2305C22.9089 22.4314 23.7425 21.2986 24.1734 19.9952L24.1994 19.9195C24.2095 19.8764 24.2021 19.831 24.1788 19.7934C24.1556 19.7557 24.1183 19.7287 24.0753 19.7184L23.0288 19.4242C22.984 19.4112 22.9359 19.4159 22.8946 19.4374C22.8532 19.4589 22.8217 19.4955 22.8066 19.5397L22.778 19.6203C22.4311 20.6152 21.7808 21.4762 20.9187 22.0821C20.0567 22.6879 19.0263 23.008 17.9727 22.9973C16.9191 22.9866 15.8954 22.6457 15.0458 22.0225C14.1962 21.3993 13.5635 20.5253 13.2368 19.5235L13.2182 19.4677C13.1983 19.4043 13.1065 19.3733 13.0109 19.3994L11.9607 19.6799C11.8638 19.7048 11.7993 19.773 11.8167 19.8314Z" fill="black"/>
<path d="M22.469 16.5597L22.4405 16.4815C22.1155 15.5608 21.5107 14.7648 20.7107 14.205C19.9108 13.6451 18.9558 13.3495 17.9794 13.3595C17.0031 13.3695 16.0543 13.6846 15.266 14.2607C14.4777 14.8367 13.8893 15.645 13.5832 16.5721L13.5646 16.6267C13.546 16.6888 13.6093 16.7596 13.7036 16.7856L14.945 17.1183C15.0394 17.1431 15.1337 17.1121 15.1548 17.0476L15.1759 16.9905C15.3874 16.415 15.7683 15.9172 16.2684 15.5626C16.7684 15.208 17.3643 15.0133 17.9773 15.0042C18.5902 14.995 19.1916 15.1719 19.7021 15.5114C20.2125 15.8509 20.6081 16.3372 20.8366 16.906C20.8714 16.9905 20.8726 16.9967 20.8726 16.9967C20.8877 17.0423 20.9196 17.0804 20.9618 17.1034C21.0039 17.1265 21.0532 17.1327 21.0998 17.1208L22.3411 16.7707C22.3638 16.766 22.3852 16.7566 22.4041 16.7433C22.423 16.7299 22.4389 16.7128 22.4509 16.693C22.4629 16.6732 22.4707 16.6512 22.4738 16.6282C22.4769 16.6053 22.4753 16.582 22.469 16.5597Z" fill="black"/>
<path d="M4.76816 14.3999L5.07105 14.4806C5.1654 14.5054 5.25478 14.4806 5.26968 14.4334L5.28333 14.3874C6.07151 11.6374 7.72854 9.21627 10.0067 7.48599C12.2849 5.75572 15.0619 4.80922 17.9226 4.78799C20.7833 4.76675 23.5741 5.67192 25.8777 7.36818C28.1813 9.06445 29.8741 11.4607 30.7031 14.1988L30.7229 14.2658C30.7404 14.3048 30.7722 14.3355 30.8117 14.3517C30.8512 14.3679 30.8954 14.3682 30.9352 14.3527L31.2381 14.2683C31.3324 14.241 31.3933 14.1628 31.3734 14.0932L31.3535 14.0299C30.4875 11.1505 28.7124 8.6288 26.294 6.84211C23.8755 5.05542 20.9435 4.09975 17.9367 4.11806C14.9299 4.13636 12.0098 5.12766 9.61323 6.94366C7.21668 8.75967 5.47248 11.3028 4.64154 14.1926L4.6254 14.2459C4.60926 14.3043 4.67381 14.3726 4.76816 14.3999Z" fill="black"/>
<path d="M29.5647 14.5922L29.5448 14.5239C28.7916 12.039 27.2555 9.86419 25.1653 8.32368C23.0752 6.78316 20.5431 5.95952 17.9467 5.97557C15.3502 5.99163 12.8285 6.84652 10.7576 8.41276C8.68671 9.979 7.17754 12.1727 6.45517 14.6667L6.43903 14.7225C6.42165 14.7846 6.48496 14.8554 6.58055 14.8814L7.04482 15.0056C7.14041 15.0304 7.23227 15.0056 7.24841 14.9423L7.26454 14.8876C7.94095 12.5759 9.34407 10.5435 11.266 9.09171C13.188 7.63988 15.5265 6.8458 17.9351 6.82713C20.3437 6.80847 22.6942 7.56621 24.6384 8.98808C26.5826 10.4099 28.0171 12.4203 28.7292 14.7213L28.7528 14.7983C28.7683 14.8406 28.7996 14.8752 28.8401 14.8949C28.8806 14.9146 28.9272 14.9178 28.97 14.9038L29.4331 14.7796C29.4541 14.776 29.4741 14.7683 29.4921 14.7569C29.5101 14.7456 29.5257 14.7307 29.5379 14.7133C29.5501 14.6959 29.5588 14.6762 29.5634 14.6554C29.568 14.6346 29.5684 14.6131 29.5647 14.5922Z" fill="black"/>
<path d="M26.7592 15.3444C26.7655 15.3671 26.7762 15.3883 26.7908 15.4068C26.8053 15.4253 26.8233 15.4408 26.8439 15.4524C26.8644 15.4639 26.887 15.4713 26.9104 15.474C26.9338 15.4768 26.9575 15.4749 26.9802 15.4685L27.653 15.2798C27.7473 15.2525 27.8106 15.1793 27.792 15.1147L27.7734 15.0576C27.1348 12.9691 25.8426 11.1407 24.087 9.84163C22.3314 8.54257 20.2051 7.84143 18.0211 7.84143C15.8371 7.84143 13.7109 8.54257 11.9552 9.84163C10.1996 11.1407 8.90742 12.9691 8.26885 15.0576C8.24154 15.1445 8.24154 15.147 8.24154 15.147C8.23516 15.1694 8.23333 15.1929 8.23614 15.216C8.23896 15.2391 8.24636 15.2615 8.25792 15.2817C8.26949 15.3019 8.28498 15.3197 8.30348 15.3338C8.32198 15.348 8.34313 15.3583 8.36568 15.3642L9.04099 15.5455C9.08028 15.5606 9.1239 15.5602 9.1629 15.5443C9.2019 15.5284 9.23334 15.4982 9.25078 15.4598L9.27064 15.3953C9.8357 13.5273 10.9836 11.8892 12.5465 10.7205C14.1094 9.55179 16.0053 8.91385 17.9568 8.89997C19.9083 8.8861 21.813 9.49703 23.3923 10.6434C24.9717 11.7898 26.1428 13.4114 26.7344 15.2711L26.7592 15.3444Z" fill="black"/>
<path d="M25.9883 15.5842L25.9647 15.511C25.426 13.8192 24.3611 12.3435 22.9253 11.2991C21.4894 10.2547 19.7576 9.69599 17.9821 9.70444C16.2066 9.71289 14.4802 10.288 13.0543 11.3461C11.6285 12.4042 10.5778 13.8898 10.0552 15.5867L10.0341 15.655C10.0305 15.6759 10.0311 15.6974 10.0359 15.7181C10.0407 15.7388 10.0495 15.7584 10.0618 15.7757C10.0741 15.793 10.0898 15.8077 10.1078 15.8189C10.1259 15.8302 10.1459 15.8377 10.1669 15.8412L11.021 16.0696C11.06 16.0851 11.1034 16.0853 11.1426 16.0701C11.1817 16.0549 11.2137 16.0254 11.232 15.9877L11.2519 15.9231C11.7007 14.4858 12.5953 13.2287 13.8061 12.3336C15.0169 11.4385 16.4811 10.952 17.9868 10.9444C19.4925 10.9368 20.9616 11.4085 22.1814 12.2913C23.4012 13.1741 24.3084 14.4222 24.7717 15.8549L24.7941 15.9256C24.8109 15.9659 24.8426 15.9981 24.8827 16.0154C24.9227 16.0328 24.9679 16.034 25.0088 16.0187L25.8604 15.7791C25.9032 15.7702 25.9406 15.7446 25.9646 15.7081C25.9886 15.6716 25.9971 15.627 25.9883 15.5842Z" fill="black"/>
<path d="M22.8041 16.461C22.8192 16.5051 22.8507 16.5417 22.8921 16.5633C22.9334 16.5848 22.9815 16.5895 23.0263 16.5764L24.0728 16.2822C24.1159 16.2719 24.1531 16.245 24.1763 16.2073C24.1996 16.1696 24.207 16.1242 24.1969 16.0811L24.1709 16.0054C23.74 14.702 22.9064 13.5692 21.7902 12.7701C20.674 11.9711 19.3329 11.5472 17.9603 11.5595C16.5876 11.5718 15.2543 12.0196 14.1526 12.8385C13.0509 13.6574 12.2377 14.805 11.8303 16.1159L11.8142 16.1693C11.7968 16.2276 11.8613 16.2934 11.9557 16.3207L13.0059 16.6013C13.1015 16.6273 13.1933 16.6013 13.2132 16.533L13.2318 16.4771C13.5585 15.4754 14.1912 14.6014 15.0408 13.9782C15.8904 13.355 16.9141 13.014 17.9677 13.0033C19.0213 12.9926 20.0517 13.3127 20.9138 13.9186C21.7758 14.5244 22.4261 15.3854 22.7731 16.3803L22.8041 16.461Z" fill="black"/>
</svg>
