<svg width="36" height="36" viewBox="0 0 36 36" fill="none" xmlns="http://www.w3.org/2000/svg">
<path d="M24.9902 8.49842H24.9654V5.76739C24.965 5.31183 24.7839 4.87502 24.4618 4.55289C24.1397 4.23076 23.7029 4.04965 23.2473 4.04932H12.7527C12.2988 4.04963 11.8635 4.22939 11.5417 4.54937C11.2198 4.86936 11.0376 5.30362 11.0346 5.75745V8.48849H11.0098C10.0302 8.69105 9.15013 9.2244 8.51723 9.99902C7.88433 10.7736 7.53714 11.7424 7.53394 12.7427V23.2373C7.53714 24.2376 7.88433 25.2064 8.51723 25.981C9.15013 26.7556 10.0302 27.289 11.0098 27.4915H11.0346V30.2226C11.035 30.6781 11.2161 31.1149 11.5382 31.4371C11.8603 31.7592 12.2971 31.9403 12.7527 31.9406H23.2473C23.7029 31.9403 24.1397 31.7592 24.4618 31.4371C24.7839 31.1149 24.965 30.6781 24.9654 30.2226V27.4915H24.9902C25.9698 27.289 26.8499 26.7556 27.4828 25.981C28.1157 25.2064 28.4628 24.2376 28.466 23.2373V12.7526C28.4628 11.7523 28.1157 10.7836 27.4828 10.009C26.8499 9.23433 25.9698 8.70098 24.9902 8.49842ZM12.7217 5.72642H23.2734V8.41152H12.7217V5.72642ZM23.2734 30.2735H12.7217V27.5884H23.2734V30.2735ZM26.7716 23.2472C26.7696 23.9505 26.4893 24.6245 25.992 25.1218C25.4947 25.6191 24.8208 25.8994 24.1175 25.9013H11.8788C11.1752 25.8997 10.501 25.6196 10.0034 25.1222C9.50584 24.6249 9.22542 23.9508 9.22345 23.2472V12.7526C9.22542 12.0493 9.50567 11.3754 10.003 10.8781C10.5003 10.3808 11.1742 10.1005 11.8775 10.0986H24.1212C24.8247 10.1002 25.499 10.3803 25.9966 10.8777C26.4941 11.375 26.7746 12.0491 26.7765 12.7526L26.7716 23.2472Z" fill="black"/>
<path d="M22.8277 19.8883L20.6777 18.9659C20.6193 18.9433 20.5577 18.9303 20.4952 18.9274C20.3589 18.9349 20.231 18.9955 20.1389 19.0963L19.1868 20.2607C17.6912 19.5559 16.4877 18.3524 15.7829 16.8568L16.9473 15.9047C17.0481 15.8126 17.1087 15.6847 17.1162 15.5484C17.1133 15.4859 17.1003 15.4242 17.0777 15.3659L16.1553 13.2158C16.1165 13.1357 16.0568 13.0675 15.9826 13.0184C15.9083 12.9692 15.8222 12.941 15.7333 12.9365C15.6982 12.9376 15.6633 12.9417 15.629 12.9489L13.6328 13.407C13.5331 13.4335 13.4445 13.4914 13.3802 13.5721C13.3158 13.6528 13.279 13.752 13.2753 13.8551C13.2753 16.2182 14.214 18.4844 15.8848 20.1555C17.5555 21.8265 19.8217 22.7654 22.1847 22.7658C22.288 22.7621 22.3874 22.7254 22.4683 22.6611C22.5492 22.5967 22.6073 22.5081 22.6341 22.4083L23.0897 20.4134C23.0969 20.3795 23.1011 20.345 23.1021 20.3103C23.0981 20.2219 23.0706 20.1362 23.0224 20.0619C22.9741 19.9877 22.9069 19.9278 22.8277 19.8883Z" fill="black"/>
</svg>
