<svg width="36" height="36" viewBox="0 0 36 36" fill="none" xmlns="http://www.w3.org/2000/svg">
<path d="M20.25 10.5H15.75C14.4844 10.5 13.5 11.4844 13.5 12.7031V23.2031C13.5 24.4219 14.4844 25.4531 15.75 25.4531H20.25C21.4688 25.4531 22.5 24.4219 22.5 23.2031V12.7031C22.5 11.5312 21.4688 10.5 20.25 10.5ZM21 23.25C21 23.6719 20.625 24 20.25 24H15.75C15.3281 24 15 23.6719 15 23.25V18.75H21V23.25ZM21 17.25H15V12.75C15 12.375 15.3281 12 15.75 12H20.25C20.625 12 21 12.375 21 12.75V17.25ZM24 6H12C10.3125 6 9 7.35938 9 9V27C9 28.6875 10.3125 30 12 30H24C25.6406 30 27 28.6875 27 27V9C27 7.35938 25.6406 6 24 6ZM25.5 27C25.5 27.8438 24.7969 28.5 24 28.5H18.75H18.2278C18 28.5 18.375 28.5 18 28.5C17.5781 28.5 17.5 28.5 17.25 28.5H12C11.1562 28.5 10.5 27.8438 10.5 27V9C10.5 8.20312 11.1562 7.5 12 7.5H17.25C17.5 7.5 17.5781 7.5 18 7.5C18.375 7.5 18 7.5 18.75 7.5H24C24.7969 7.5 25.5 8.20312 25.5 9V27Z" fill="black"/>
<path d="M18.75 22L17.25 22C16.875 22 16.5 21.625 16.5 21.25C16.5 20.8281 16.875 20.5 17.25 20.5L18.75 20.5C19.1719 20.5 19.5 20.8281 19.5 21.25C19.5 21.625 19.1719 22 18.75 22Z" fill="black"/>
</svg>
