<svg width="36" height="36" viewBox="0 0 36 36" fill="none" xmlns="http://www.w3.org/2000/svg">
<path d="M23.5178 16.5436C22.6632 16.1962 21.772 15.9463 20.8613 15.7988C19.9501 15.0838 16.7138 12.8692 11.6267 12.8679C9.17991 12.8679 7.19122 12.9697 6.02805 13.1559L5.94984 13.1683C5.08087 13.3086 4.59798 13.3856 3.59122 14.7337L3.35163 15.0614C2.81784 15.7777 2.39577 16.3438 2.12143 16.885L2.08294 16.9756L2.06681 17.0241C2.03108 17.1569 2.00494 17.2922 1.9886 17.4287C1.97122 17.5529 1.95508 17.6857 1.93894 17.8533C1.93274 17.9104 1.92653 17.9663 1.92156 18.0196C1.84494 18.0976 1.77361 18.1805 1.70805 18.2679C1.36015 18.7424 1.17823 19.3183 1.19039 19.9065C1.19039 20.454 1.31453 21.8021 2.42556 22.5259C2.58894 22.6262 2.76093 22.7118 2.9395 22.7816C3.13229 23.2488 3.45621 23.6502 3.87214 23.9374C4.28808 24.2246 4.77824 24.3852 5.28346 24.3999C5.78868 24.4146 6.28736 24.2827 6.71929 24.0202C7.15121 23.7577 7.49793 23.3758 7.71756 22.9206H19.2276C19.4378 23.3562 19.7645 23.7251 20.1715 23.9863C20.5785 24.2476 21.0499 24.391 21.5335 24.4006C22.017 24.4103 22.4938 24.2858 22.9109 24.041C23.328 23.7962 23.6691 23.4406 23.8965 23.0137C24.3669 23.0137 25.144 22.9976 25.5922 22.8039C25.9379 22.6654 26.2275 22.4155 26.4152 22.0939C26.529 21.8859 26.6078 21.6607 26.6486 21.4272C26.7009 21.1081 26.7242 20.7848 26.7181 20.4614C26.7176 19.9843 26.6216 19.5121 26.4356 19.0727C26.2497 18.6333 25.9777 18.2356 25.6356 17.903C25.1155 17.3704 24.4005 16.9123 23.5178 16.5436ZM18.2035 16.1377C16.9298 16.3028 15.1 16.3674 12.8656 16.3264L12.7663 14.6195C14.6622 14.7555 16.5113 15.2719 18.2035 16.1377ZM11.0296 14.5736L11.1276 16.2693C9.72736 16.2147 8.5766 16.1377 7.95218 16.0918L7.82805 14.6816C8.74294 14.6183 9.81922 14.5823 11.0296 14.5736ZM6.01687 22.4365C5.86626 22.5882 5.66769 22.683 5.45501 22.7046C5.24233 22.7263 5.02873 22.6735 4.85062 22.5553C4.67252 22.437 4.54094 22.2607 4.47834 22.0563C4.41573 21.8519 4.42597 21.6321 4.50731 21.4344C4.58864 21.2367 4.73605 21.0733 4.92437 20.9722C5.1127 20.871 5.33028 20.8383 5.54003 20.8796C5.74977 20.921 5.93867 21.0338 6.07453 21.1988C6.21038 21.3639 6.28477 21.571 6.28501 21.7847C6.28542 21.9057 6.26194 22.0255 6.21593 22.1373C6.16991 22.2492 6.10227 22.3508 6.01687 22.4365ZM22.2417 22.4365C22.113 22.5655 21.9489 22.6535 21.7701 22.6892C21.5914 22.725 21.4061 22.7069 21.2376 22.6372C21.0692 22.5676 20.9252 22.4495 20.8238 22.298C20.7225 22.1464 20.6684 21.9683 20.6684 21.786C20.6684 21.6037 20.7225 21.4255 20.8238 21.274C20.9252 21.1225 21.0692 21.0044 21.2376 20.9348C21.4061 20.8651 21.5914 20.847 21.7701 20.8828C21.9489 20.9185 22.113 21.0065 22.2417 21.1355C22.3275 21.2204 22.3955 21.3216 22.4417 21.433C22.488 21.5445 22.5115 21.6641 22.5111 21.7847C22.5113 21.9058 22.4876 22.0256 22.4414 22.1375C22.3952 22.2493 22.3273 22.3509 22.2417 22.4365ZM24.9727 21.1579C24.9667 21.1839 24.9592 21.2096 24.9504 21.2348L24.9181 21.2472C24.6702 21.3031 24.416 21.3261 24.1621 21.3155C24.0536 20.7203 23.7424 20.1811 23.2812 19.7894C22.8201 19.3978 22.2376 19.178 21.6327 19.1673C21.0278 19.1566 20.4379 19.3557 19.9632 19.7309C19.4885 20.106 19.1584 20.6339 19.029 21.2249H7.92239C7.80553 20.6936 7.52618 20.2119 7.12311 19.8467C6.72005 19.4814 6.21326 19.2507 5.6731 19.1866C5.13295 19.1224 4.58623 19.228 4.10883 19.4887C3.63143 19.7495 3.24704 20.1523 3.00901 20.6414C2.98442 20.582 2.96369 20.5211 2.94694 20.459C2.90575 20.2787 2.88781 20.0939 2.89356 19.909C2.88419 19.7744 2.90408 19.6393 2.95186 19.5131C2.99965 19.3869 3.0742 19.2725 3.17039 19.1779L3.19398 19.1592L3.28087 19.086V19.0761L3.45591 18.8973L3.47453 18.875C3.54116 18.7612 3.58146 18.6339 3.59246 18.5025V18.4963C3.59246 18.4579 3.60363 18.3511 3.61729 18.2133C3.63094 18.0755 3.65081 17.8533 3.67687 17.6671C3.67687 17.6274 3.68805 17.5926 3.69301 17.5628C3.99964 17.0237 4.35094 16.5113 4.74322 16.031C4.96543 15.7516 5.19881 15.4624 5.38253 15.2663C5.57598 15.0578 5.83314 14.9194 6.1137 14.8727L6.29991 16.9831C6.32059 17.1823 6.41015 17.3681 6.55315 17.5084C6.69615 17.6487 6.88361 17.7347 7.08322 17.7515C7.2297 17.7652 10.6832 18.0581 14.1156 18.0581C17.0664 18.0581 19.1432 17.8459 20.2915 17.4275C20.3281 17.438 20.3655 17.4458 20.4032 17.4511H20.4417L20.5162 17.4623C20.5894 17.4734 20.7024 17.4908 20.8476 17.5181C21.2243 17.5886 21.5972 17.6781 21.9649 17.7863C22.5856 17.9712 23.7438 18.3846 24.429 19.086C24.6163 19.261 24.7658 19.4723 24.8685 19.7071C24.9712 19.9419 25.0248 20.1952 25.0261 20.4515C25.034 20.688 25.0173 20.9247 24.9765 21.1579H24.9727Z" fill="black"/>
<path d="M5.92617 8.24171C6.04432 8.3552 6.20179 8.41858 6.36562 8.41858C6.52945 8.41858 6.68692 8.3552 6.80507 8.24171C8.20956 6.95651 10.0443 6.24372 11.9481 6.24372C13.8519 6.24372 15.6867 6.95651 17.0911 8.24171C17.1981 8.3424 17.3368 8.40269 17.4834 8.4122C17.6299 8.42172 17.7753 8.37987 17.8943 8.29385C17.9191 8.27523 17.9427 8.25537 17.9663 8.23426L18.3387 7.86185C18.3447 7.85711 18.3501 7.85169 18.3549 7.84571C18.4128 7.78573 18.458 7.7147 18.4879 7.63685C18.5177 7.559 18.5316 7.47593 18.5287 7.39261C18.5235 7.22544 18.4526 7.06705 18.3313 6.95192C16.5909 5.34969 14.3118 4.46033 11.9462 4.46033C9.58067 4.46033 7.30155 5.34969 5.56121 6.95192L5.54134 6.97054C5.48329 7.02987 5.43749 7.10005 5.40657 7.17709C5.37564 7.25412 5.3602 7.33649 5.36112 7.41949C5.36205 7.5025 5.37931 7.5845 5.41194 7.66083C5.44457 7.73716 5.49191 7.80631 5.55128 7.86433L5.92617 8.24171Z" fill="black"/>
<path d="M7.81077 9.68251L7.78221 9.70982C7.6656 9.8307 7.60158 9.99283 7.60414 10.1608C7.6067 10.3287 7.67563 10.4888 7.79587 10.6061L8.16828 10.9686C8.18187 10.982 8.19639 10.9944 8.21173 11.0058C8.33039 11.1007 8.47884 11.1503 8.63067 11.146C8.78251 11.1417 8.9279 11.0837 9.04097 10.9822C9.84782 10.2748 10.884 9.88428 11.957 9.88314C13.0301 9.882 14.0671 10.2703 14.8754 10.976C14.9839 11.073 15.1223 11.1298 15.2675 11.137C15.4128 11.1443 15.5561 11.1015 15.6737 11.0158C15.6979 10.9985 15.7207 10.9794 15.7419 10.9586L16.1143 10.5862L16.1392 10.5614C16.2518 10.4378 16.3109 10.2746 16.3035 10.1075C16.2961 9.94047 16.2227 9.78316 16.0994 9.67009C14.9564 8.656 13.4808 8.09702 11.9527 8.09931C10.4247 8.1016 8.95075 8.665 7.81077 9.68251Z" fill="black"/>
<path d="M32.1653 13.6551C32.0499 13.5335 31.8911 13.4626 31.7235 13.4579C31.556 13.4533 31.3934 13.5153 31.2715 13.6303C31.2658 13.6354 31.2604 13.6407 31.2554 13.6464L30.8829 14.0188C30.8618 14.0413 30.8419 14.0649 30.8234 14.0896C30.7375 14.209 30.6957 14.3544 30.7052 14.5012C30.7147 14.6479 30.7749 14.7868 30.8755 14.894C32.1607 16.2985 32.8735 18.1333 32.8735 20.0371C32.8735 21.9408 32.1607 23.7756 30.8755 25.1801C30.7621 25.298 30.6987 25.4553 30.6987 25.6189C30.6987 25.7825 30.7621 25.9398 30.8755 26.0578L31.2417 26.4302C31.2997 26.4895 31.3689 26.5369 31.4452 26.5695C31.5215 26.6021 31.6035 26.6194 31.6865 26.6203C31.7695 26.6212 31.8519 26.6058 31.9289 26.5749C32.006 26.544 32.0762 26.4982 32.1355 26.4401L32.1541 26.4202C33.7563 24.6801 34.6456 22.4012 34.6456 20.0358C34.6456 17.6704 33.7563 15.3915 32.1541 13.6514L32.1653 13.6551Z" fill="black"/>
<path d="M29.4616 15.8896C29.3482 15.7668 29.1909 15.6939 29.0239 15.6867C28.8569 15.6795 28.6939 15.7386 28.5703 15.8511L28.5455 15.8747L28.1731 16.2471C28.1524 16.2684 28.1333 16.2912 28.116 16.3154C28.0303 16.4329 27.9875 16.5762 27.9947 16.7215C28.0019 16.8668 28.0587 17.0052 28.1557 17.1136C28.8614 17.9219 29.2497 18.9589 29.2486 20.032C29.2474 21.105 28.8569 22.1412 28.1495 22.9481C28.0479 23.0609 27.9898 23.2062 27.9857 23.3579C27.9816 23.5097 28.0318 23.658 28.1271 23.7761C28.1374 23.7923 28.1495 23.8073 28.1631 23.8208L28.5269 24.1932C28.5847 24.2528 28.6536 24.3004 28.7298 24.3334C28.806 24.3663 28.8879 24.3839 28.9709 24.3852C29.0539 24.3865 29.1364 24.3714 29.2136 24.3408C29.2907 24.3102 29.3611 24.2646 29.4207 24.2068L29.448 24.1783C30.4657 23.0384 31.0293 21.5646 31.0318 20.0365C31.0343 18.5085 30.4756 17.0328 29.4616 15.8896Z" fill="black"/>
</svg>
