<svg width="36" height="36" viewBox="0 0 36 36" fill="none" xmlns="http://www.w3.org/2000/svg">
<path d="M22.4453 13.7483C21.8372 13.7485 21.2428 13.9291 20.7373 14.2671C20.2318 14.6051 19.8379 15.0854 19.6053 15.6473C19.3728 16.2092 19.3121 16.8274 19.4309 17.4238C19.5497 18.0202 19.8426 18.568 20.2727 18.9979C20.7028 19.4278 21.2507 19.7205 21.8471 19.8391C22.4435 19.9576 23.0617 19.8967 23.6235 19.6639C24.1853 19.4311 24.6655 19.037 25.0033 18.5314C25.3411 18.0257 25.5214 17.4313 25.5214 16.8232C25.5204 16.0078 25.196 15.226 24.6193 14.6496C24.0426 14.0731 23.2607 13.7489 22.4453 13.7483ZM22.4453 18.1937C22.1752 18.1937 21.9112 18.1136 21.6867 17.9635C21.4621 17.8135 21.2871 17.6002 21.1837 17.3507C21.0804 17.1012 21.0533 16.8266 21.106 16.5618C21.1587 16.2969 21.2888 16.0536 21.4797 15.8626C21.6707 15.6716 21.914 15.5416 22.1789 15.4889C22.4438 15.4362 22.7183 15.4632 22.9679 15.5666C23.2174 15.6699 23.4306 15.845 23.5807 16.0695C23.7307 16.2941 23.8108 16.5581 23.8108 16.8282C23.8089 17.1897 23.6644 17.5359 23.4087 17.7916C23.153 18.0472 22.8068 18.1917 22.4453 18.1937Z" fill="black"/>
<path d="M29.8552 15.2294H28.4897V13.8639C28.4884 12.6557 28.0078 11.4973 27.1535 10.643C26.2991 9.78863 25.1408 9.30808 23.9326 9.30677H18.8529V5.71049C18.8529 5.48431 18.763 5.26739 18.6031 5.10745C18.4431 4.94752 18.2262 4.85767 18 4.85767C17.7738 4.85767 17.5569 4.94752 17.397 5.10745C17.2371 5.26739 17.1472 5.48431 17.1472 5.71049V9.30305H12.0724C10.8642 9.30436 9.70587 9.7849 8.85153 10.6392C7.9972 11.4936 7.51665 12.6519 7.51534 13.8601V15.2257H6.14982C5.7274 15.2263 5.32249 15.3945 5.02391 15.6933C4.72533 15.9921 4.55746 16.3972 4.55713 16.8196V22.7472C4.55647 23.1694 4.72322 23.5746 5.02083 23.8741C5.31845 24.1736 5.72265 24.3429 6.14486 24.3448H7.51037C7.54109 25.5333 8.03438 26.6628 8.88526 27.493C9.73613 28.3233 10.8774 28.7887 12.0662 28.7902H23.9214C25.1102 28.7887 26.2515 28.3233 27.1024 27.493C27.9533 26.6628 28.4465 25.5333 28.4773 24.3448H29.8552C30.2776 24.3442 30.6825 24.176 30.9811 23.8772C31.2797 23.5784 31.4476 23.1733 31.4479 22.7509V16.8233C31.4476 16.4009 31.2797 15.9959 30.9811 15.697C30.6825 15.3982 30.2776 15.23 29.8552 15.2294ZM7.51037 22.6392H6.25658V16.9288H7.51534L7.51037 22.6392ZM26.7741 24.2331C26.7712 24.9894 26.4694 25.714 25.9346 26.2488C25.3998 26.7836 24.6753 27.0853 23.9189 27.0883H12.0724C11.3161 27.0853 10.5916 26.7836 10.0568 26.2488C9.52197 25.714 9.22021 24.9894 9.21727 24.2331V13.8601C9.21727 13.1029 9.51808 12.3767 10.0535 11.8412C10.589 11.3058 11.3152 11.005 12.0724 11.005H23.9276C24.6849 11.005 25.4111 11.3058 25.9465 11.8412C26.482 12.3767 26.7828 13.1029 26.7828 13.8601L26.7741 24.2331ZM29.7385 22.6392H28.4847V16.9288H29.7435L29.7385 22.6392Z" fill="black"/>
<path d="M14.7898 22.6389H12.3182C12.1208 22.6389 11.9607 22.799 11.9607 22.9964V23.9871C11.9607 24.1845 12.1208 24.3446 12.3182 24.3446H14.7898C14.9873 24.3446 15.1473 24.1845 15.1473 23.9871V22.9964C15.1473 22.799 14.9873 22.6389 14.7898 22.6389Z" fill="black"/>
<path d="M23.6806 22.6389H21.209C21.0115 22.6389 20.8515 22.799 20.8515 22.9964V23.9871C20.8515 24.1845 21.0115 24.3446 21.209 24.3446H23.6806C23.878 24.3446 24.0381 24.1845 24.0381 23.9871V22.9964C24.0381 22.799 23.878 22.6389 23.6806 22.6389Z" fill="black"/>
<path d="M19.2353 22.6389H16.7637C16.5663 22.6389 16.4062 22.799 16.4062 22.9964V23.9871C16.4062 24.1845 16.5663 24.3446 16.7637 24.3446H19.2353C19.4328 24.3446 19.5928 24.1845 19.5928 23.9871V22.9964C19.5928 22.799 19.4328 22.6389 19.2353 22.6389Z" fill="black"/>
<path d="M13.5547 13.7483C12.9467 13.7493 12.3527 13.9304 11.8477 14.2689C11.3427 14.6074 10.9494 15.088 10.7174 15.6499C10.4854 16.2119 10.4252 16.83 10.5444 17.4261C10.6636 18.0223 10.9569 18.5697 11.3871 18.9992C11.8173 19.4288 12.3653 19.7211 12.9616 19.8394C13.5579 19.9576 14.1759 19.8964 14.7375 19.6636C15.2991 19.4307 15.779 19.0366 16.1167 18.531C16.4543 18.0254 16.6346 17.4311 16.6346 16.8232C16.6336 16.0071 16.3086 15.2248 15.7311 14.6482C15.1536 14.0717 14.3708 13.748 13.5547 13.7483ZM14.5242 17.7915C14.3974 17.9189 14.2467 18.02 14.0808 18.089C13.9148 18.158 13.7369 18.1936 13.5572 18.1937C13.2415 18.1933 12.9356 18.0835 12.6917 17.883C12.4479 17.6825 12.281 17.4038 12.2195 17.0941C12.158 16.7844 12.2057 16.463 12.3545 16.1846C12.5033 15.9061 12.744 15.6878 13.0356 15.5669C13.3272 15.4459 13.6517 15.4297 13.954 15.521C14.2562 15.6124 14.5174 15.8056 14.6932 16.0679C14.8689 16.3301 14.9484 16.6452 14.9181 16.9594C14.8877 17.2737 14.7494 17.5677 14.5267 17.7915H14.5242Z" fill="black"/>
</svg>
