<svg width="36" height="36" viewBox="0 0 36 36" fill="none" xmlns="http://www.w3.org/2000/svg">
<path d="M15.3027 20.8921V20.8051C15.3027 20.3334 15.3027 20.3334 13.6534 17.0686C13.145 16.0755 12.5001 14.7721 11.6445 13.059C11.3096 12.401 10.6648 12.0038 9.93318 12.0038C9.18913 12.0038 8.54432 12.401 8.2219 13.059C7.41585 14.6852 6.78334 15.939 6.28731 16.9196C4.5636 20.3583 4.56367 20.3583 4.56367 20.8051V20.9169C4.61328 22.7169 7.0066 24.1693 9.93318 24.1693C12.8598 24.1693 15.2531 22.6796 15.3027 20.8921ZM6.6718 20.0727C6.95702 19.5017 7.3786 18.6576 7.86223 17.7017L7.87458 17.6645C8.37061 16.6714 8.9907 15.4424 9.78434 13.841L9.80917 13.779H9.82152L9.9207 13.5555L10.0695 13.841C10.9252 15.5541 11.5824 16.8576 12.0908 17.8631C12.5745 18.8314 12.9465 19.5514 13.1946 20.0727L13.3062 20.2962H6.5725L6.6718 20.0727Z" fill="black"/>
<path d="M31.8951 20.7927C31.8951 20.3209 31.8951 20.3209 30.2458 17.0437C29.7374 16.0506 29.0925 14.7472 28.2368 13.0341C27.902 12.3761 27.2572 11.9789 26.5255 11.9789C25.7815 11.9789 25.1367 12.3761 24.8142 13.0341C24.0082 14.6478 23.3757 15.9016 22.8796 16.8823C21.1559 20.3209 21.156 20.3209 21.156 20.7678V20.8795C21.2056 22.6671 23.5989 24.1196 26.5255 24.1196C29.4645 24.1196 31.858 22.6671 31.9076 20.8671L31.8951 20.7927ZM23.1525 20.2961L23.2641 20.0727C23.537 19.5016 23.9709 18.6575 24.4546 17.7016L24.467 17.6644C24.9631 16.6713 25.583 15.4423 26.3767 13.8409L26.4015 13.7789H26.4139L26.5132 13.5554L26.6619 13.8409C27.5052 15.5168 28.15 16.8078 28.646 17.8009L28.6833 17.863C29.1546 18.794 29.5265 19.5389 29.7869 20.0727L29.8986 20.2961H23.1525Z" fill="black"/>
<path d="M27.2202 26.5159H19.11V12.9228L19.2215 12.8856C20.3748 12.5256 21.2306 11.5697 21.4662 10.4152L21.491 10.2911H27.2202C27.5178 10.2911 27.7535 10.0552 27.7535 9.75727V9.0621C27.7535 8.76417 27.5178 8.5283 27.2202 8.5283H21.2925L21.2553 8.44141C20.7345 7.23727 19.5439 6.4552 18.2294 6.4552C16.9149 6.4552 15.7369 7.23727 15.2037 8.44141L15.1665 8.5283H9.23868C8.94106 8.5283 8.70546 8.76417 8.70546 9.0621V9.75727C8.70546 10.0552 8.94106 10.2911 9.23868 10.2911H14.968L14.9928 10.4152C15.2284 11.5821 16.0841 12.5256 17.2374 12.8856L17.349 12.9228V26.5159H9.23868C8.94106 26.5159 8.70546 26.7518 8.70546 27.0497V27.7449C8.70546 28.0428 8.94106 28.2787 9.23868 28.2787H27.2202C27.5178 28.2787 27.7535 28.0428 27.7535 27.7449V27.0497C27.7535 26.7642 27.5054 26.5159 27.2202 26.5159ZM16.6918 9.75727C16.6918 8.91313 17.3862 8.21796 18.2294 8.21796C19.0727 8.21796 19.7672 8.91313 19.7672 9.75727C19.7672 10.6014 19.0727 11.2966 18.2294 11.2966C17.3862 11.2966 16.6918 10.6014 16.6918 9.75727Z" fill="black"/>
</svg>
