<svg width="36" height="36" viewBox="0 0 36 36" fill="none" xmlns="http://www.w3.org/2000/svg">
<path d="M24.2466 17.0402L14.7327 11.2553C14.5429 11.1494 14.3293 11.0934 14.112 11.0927C13.8818 11.0937 13.6561 11.1558 13.4578 11.2727C13.2648 11.3851 13.1049 11.5465 12.9942 11.7405C12.8834 11.9344 12.8258 12.1542 12.8272 12.3775V23.622C12.8284 23.8449 12.8876 24.0637 12.999 24.2568C13.1104 24.4499 13.2701 24.6108 13.4624 24.7235C13.6548 24.8362 13.8732 24.8969 14.0961 24.8997C14.319 24.9024 14.5388 24.8471 14.7339 24.7392L24.2479 19.2771C24.4474 19.1656 24.6136 19.0029 24.7293 18.8057C24.845 18.6086 24.9059 18.3841 24.9059 18.1555C24.9059 17.927 24.845 17.7025 24.7293 17.5053C24.6136 17.3082 24.4474 17.1455 24.2479 17.034L24.2466 17.0402ZM22.3051 18.4355L15.0343 22.6077C14.9832 22.6378 14.9249 22.6537 14.8655 22.6537C14.7752 22.6537 14.6885 22.6179 14.6246 22.5541C14.5606 22.4904 14.5245 22.4039 14.5241 22.3135V13.7232C14.5238 13.6624 14.5398 13.6026 14.5707 13.5501C14.6015 13.4977 14.6459 13.4546 14.6992 13.4253C14.7517 13.396 14.8111 13.3815 14.8712 13.3833C14.9313 13.385 14.9898 13.403 15.0406 13.4352L22.3113 17.8508C22.3623 17.882 22.4042 17.926 22.4328 17.9786C22.4613 18.0311 22.4755 18.0902 22.4739 18.15C22.4732 18.2082 22.4573 18.2652 22.4277 18.3153C22.398 18.3654 22.3558 18.4068 22.3051 18.4355Z" fill="black"/>
<path d="M18.0001 4.60913C15.3515 4.60891 12.7624 5.39415 10.5601 6.86553C8.35775 8.33691 6.64126 10.4283 5.62765 12.8753C4.61405 15.3223 4.34887 18.0149 4.86564 20.6126C5.38242 23.2103 6.65794 25.5964 8.53089 27.4692C11.0495 29.9459 14.4446 31.3272 17.9769 31.3124C21.5092 31.2976 24.8926 29.8879 27.3903 27.3901C29.8881 24.8924 31.2978 21.509 31.3126 17.9767C31.3274 14.4443 29.9461 11.0492 27.4694 8.53065C26.2288 7.28315 24.7531 6.29418 23.1277 5.62104C21.5023 4.94789 19.7594 4.60395 18.0001 4.60913ZM26.2801 26.2551C24.3697 28.1709 21.854 29.3649 19.1618 29.6334C16.4696 29.902 13.7676 29.2285 11.5164 27.7277C9.2652 26.227 7.60418 23.9919 6.8165 21.4036C6.02882 18.8152 6.16324 16.0338 7.19684 13.5334C8.23044 11.0331 10.0992 8.9686 12.4847 7.69194C14.8701 6.41528 17.6244 6.00546 20.2782 6.53236C22.932 7.05926 25.3208 8.49024 27.0376 10.5814C28.7543 12.6725 29.6927 15.2943 29.6927 17.9999C29.6975 19.5331 29.3984 21.0521 28.8126 22.469C28.2269 23.886 27.3662 25.1728 26.2801 26.2551Z" fill="black"/>
</svg>
