<svg width="36" height="36" viewBox="0 0 36 36" fill="none" xmlns="http://www.w3.org/2000/svg">
<path d="M29.3251 25.8591H7.90636V8.90804C7.90473 8.7839 7.85435 8.66537 7.7661 8.57805C7.67784 8.49072 7.55879 8.4416 7.43463 8.44128H6.67491C6.5515 8.44288 6.43358 8.49254 6.34619 8.57969C6.2588 8.66685 6.20884 8.78464 6.20691 8.90804V26.7119C6.20724 26.938 6.29719 27.1547 6.45706 27.3146C6.61692 27.4744 6.83365 27.5644 7.05974 27.5647H29.3301C29.4554 27.5644 29.5755 27.5145 29.6642 27.4258C29.7528 27.3372 29.8027 27.2171 29.8031 27.0918V26.332C29.8029 26.2696 29.7904 26.2077 29.7662 26.1501C29.7421 26.0925 29.7068 26.0402 29.6624 25.9962C29.618 25.9523 29.5653 25.9175 29.5074 25.894C29.4496 25.8704 29.3876 25.8586 29.3251 25.8591Z" fill="black"/>
<path d="M25.8406 10.8486H25.0809C24.8197 10.8486 24.6079 11.0604 24.6079 11.3216V22.7137C24.6079 22.9749 24.8197 23.1867 25.0809 23.1867H25.8406C26.1018 23.1867 26.3136 22.9749 26.3136 22.7137V11.3216C26.3136 11.0604 26.1018 10.8486 25.8406 10.8486Z" fill="black"/>
<path d="M21.2835 15.4053H20.5237C20.2625 15.4053 20.0508 15.617 20.0508 15.8782V22.7133C20.0508 22.9745 20.2625 23.1862 20.5237 23.1862H21.2835C21.5447 23.1862 21.7564 22.9745 21.7564 22.7133V15.8782C21.7564 15.617 21.5447 15.4053 21.2835 15.4053Z" fill="black"/>
<path d="M12.1692 18.4431H11.4095C11.1483 18.4431 10.9365 18.6549 10.9365 18.9161V22.7135C10.9365 22.9747 11.1483 23.1864 11.4095 23.1864H12.1692C12.4304 23.1864 12.6422 22.9747 12.6422 22.7135V18.9161C12.6422 18.6549 12.4304 18.4431 12.1692 18.4431Z" fill="black"/>
<path d="M16.7263 12.3663H15.9666C15.7054 12.3663 15.4937 12.5781 15.4937 12.8393V22.7132C15.4937 22.9744 15.7054 23.1862 15.9666 23.1862H16.7263C16.9876 23.1862 17.1993 22.9744 17.1993 22.7132V12.8393C17.1993 12.5781 16.9876 12.3663 16.7263 12.3663Z" fill="black"/>
</svg>
