<svg width="36" height="36" viewBox="0 0 36 36" fill="none" xmlns="http://www.w3.org/2000/svg">
<path d="M29.3902 25.8703H7.99855V8.91314C7.99855 8.65245 7.78773 8.44141 7.52731 8.44141H6.77084C6.51041 8.44141 6.29962 8.65245 6.29962 8.91314V26.7145C6.29962 27.1862 6.68404 27.571 7.15528 27.571H29.4026C29.6631 27.571 29.8739 27.36 29.8739 27.0993V26.3421C29.8615 26.0814 29.6507 25.8703 29.3902 25.8703Z" fill="black"/>
<path d="M25.1495 23.2013H25.9059C26.1664 23.2013 26.3771 22.9902 26.3771 22.7295V15.2688C26.3771 15.0082 26.1664 14.7971 25.9059 14.7971H25.1495C24.8891 14.7971 24.6783 15.0082 24.6783 15.2688V22.7295C24.6783 22.9902 24.8891 23.2013 25.1495 23.2013Z" fill="black"/>
<path d="M20.5978 23.201H21.3543C21.6147 23.201 21.8255 22.9899 21.8255 22.7293V19.5513C21.8255 19.2906 21.6147 19.0796 21.3543 19.0796H20.5978C20.3374 19.0796 20.1266 19.2906 20.1266 19.5513V22.7168C20.1266 22.9899 20.3374 23.201 20.5978 23.201Z" fill="black"/>
<path d="M11.4958 23.2017H12.2523C12.5128 23.2017 12.7235 22.9907 12.7235 22.73V17.3176C12.7235 17.0569 12.5128 16.8458 12.2523 16.8458H11.4958C11.2354 16.8458 11.0246 17.0569 11.0246 17.3176V22.73C11.0122 22.9907 11.2354 23.2017 11.4958 23.2017Z" fill="black"/>
<path d="M16.047 23.2016H16.8034C17.0638 23.2016 17.2746 22.9906 17.2746 22.7299V13.1216C17.2746 12.8609 17.0638 12.6499 16.8034 12.6499H16.047C15.7866 12.6499 15.5757 12.8609 15.5757 13.1216V22.7299C15.5757 22.9906 15.7866 23.2016 16.047 23.2016Z" fill="black"/>
</svg>
