<svg width="36" height="36" viewBox="0 0 36 36" fill="none" xmlns="http://www.w3.org/2000/svg">
<path d="M24.9106 4.8916H13.6565C12.2989 4.8916 11.1794 6.01002 11.1794 7.393V28.4986C11.1794 29.8696 12.287 31 13.6565 31H24.9106C26.2682 31 27.3877 29.8816 27.3877 28.4986V7.393C27.3877 6.02204 26.2682 4.8916 24.9106 4.8916ZM25.6609 28.4986C25.6609 28.9075 25.3274 29.2442 24.9225 29.2442H13.6565C13.2516 29.2442 12.9182 28.9075 12.9182 28.4986V7.393C12.9182 6.98412 13.2516 6.64739 13.6565 6.64739H24.9106C25.3155 6.64739 25.649 6.98412 25.649 7.393V28.4986H25.6609Z" fill="black"/>
<path d="M14.1687 24.6987H24.4105V7.88635H14.1687V24.6987ZM15.836 9.56999H22.7432V23.015H15.836V9.56999Z" fill="black"/>
<path d="M19.2894 28.3661C20.0458 28.3661 20.659 27.7469 20.659 26.9831C20.659 26.2193 20.0458 25.6001 19.2894 25.6001C18.533 25.6001 17.9199 26.2193 17.9199 26.9831C17.9199 27.7469 18.533 28.3661 19.2894 28.3661Z" fill="black"/>
<path d="M18.5749 17.6632C18.4082 18.5892 19.0155 19.4912 19.9444 19.6596C20.8614 19.8279 21.7546 19.2146 21.9213 18.2766C22.0881 17.3506 21.4807 16.4486 20.5518 16.2803C20.4922 16.2682 20.4208 16.2562 20.3493 16.2562L18.432 13.4061C18.3843 13.3459 18.3248 13.3098 18.2653 13.2978L17.1696 13.0934C17.0982 13.0814 17.0267 13.0934 16.9791 13.1295C16.9195 13.1655 16.8838 13.2257 16.8719 13.2978L16.6456 14.5245C16.6337 14.5966 16.6456 14.6688 16.6813 14.7289C16.7171 14.789 16.7766 14.8251 16.8481 14.8371L17.0029 14.8612L16.9791 15.0055C16.9672 15.0777 16.9791 15.1498 17.0148 15.2099C17.0505 15.2701 17.1101 15.3062 17.1815 15.3182L17.3244 15.3422L18.6702 17.3385C18.6225 17.4468 18.5868 17.555 18.5749 17.6632ZM20.0873 16.7974H20.1231C20.2183 16.7853 20.3255 16.7853 20.4684 16.8094C21.0996 16.9297 21.5164 17.555 21.3973 18.1924C21.3378 18.5051 21.1711 18.7696 20.9091 18.95C20.6471 19.1304 20.3374 19.1905 20.0278 19.1304C19.7182 19.0703 19.4562 18.9019 19.2775 18.6373C19.0989 18.3728 19.0393 18.0601 19.0989 17.7474C19.1227 17.5911 19.1823 17.4588 19.2656 17.3385L19.2894 17.3025L17.8961 15.222L17.9556 14.9213L17.5507 14.8492L17.6222 14.4403L17.2173 14.3681L17.3483 13.6706L18.0747 13.8029" fill="black"/>
<path d="M20.016 18.6492L20.9568 18.0119C21.0521 17.9517 21.064 17.7954 20.9806 17.6871C20.8973 17.5669 20.7663 17.5308 20.671 17.5909L19.7302 18.2283C19.6349 18.2885 19.623 18.4448 19.7063 18.553C19.7897 18.6733 19.9207 18.7214 20.016 18.6492Z" fill="black"/>
</svg>
