<svg width="36" height="36" viewBox="0 0 36 36" fill="none" xmlns="http://www.w3.org/2000/svg">
<path d="M18.1093 8.7182C16.5488 8.6965 15.0163 9.13457 13.703 9.9778C12.3897 10.821 11.3535 12.0321 10.7238 13.4602C10.094 14.8882 9.89845 16.47 10.1615 18.0084C10.4245 19.5468 11.1344 20.9738 12.2028 22.1115C12.9664 22.9195 13.3919 23.989 13.3921 25.1007V27.7225C13.3929 28.3029 13.5873 28.8664 13.9446 29.3238C14.302 29.7812 14.8017 30.1062 15.3646 30.2475C15.3857 30.9324 15.6725 31.5823 16.1645 32.0594C16.6564 32.5364 17.3148 32.8033 18.0001 32.8033C18.6854 32.8033 19.3437 32.5364 19.8357 32.0594C20.3276 31.5823 20.6145 30.9324 20.6355 30.2475C21.1985 30.1062 21.6982 29.7812 22.0555 29.3238C22.4128 28.8664 22.6073 28.3029 22.6081 27.7225V25.1007C22.6065 23.9932 23.0289 22.9272 23.7886 22.1214C24.8483 20.9983 25.558 19.591 25.8311 18.0713C26.1042 16.5516 25.929 14.9852 25.3267 13.5635C24.7244 12.1417 23.7212 10.9261 22.4396 10.065C21.1579 9.20392 19.6532 8.73465 18.1093 8.71448V8.7182ZM18.0001 31.1003C17.7818 31.1001 17.5707 31.0218 17.4052 30.8795C17.2396 30.7371 17.1305 30.5402 17.0976 30.3244H18.9026C18.8696 30.5402 18.7605 30.7371 18.595 30.8795C18.4294 31.0218 18.2184 31.1001 18.0001 31.1003ZM20.885 27.7225C20.885 27.8379 20.8623 27.9522 20.8181 28.0588C20.774 28.1655 20.7092 28.2624 20.6276 28.344C20.546 28.4256 20.4491 28.4903 20.3425 28.5345C20.2359 28.5787 20.1216 28.6014 20.0061 28.6014H15.994C15.7609 28.6014 15.5374 28.5088 15.3725 28.344C15.2077 28.1791 15.1151 27.9556 15.1151 27.7225V25.9622H20.885V27.7225ZM15.7954 17.8932H15.269C15.1667 17.8925 15.0668 17.8614 14.9821 17.8039C14.8974 17.7464 14.8316 17.6651 14.7931 17.5702C14.7546 17.4754 14.7451 17.3712 14.7658 17.271C14.7865 17.1707 14.8365 17.0788 14.9094 17.0069C14.9823 16.9351 15.0749 16.8864 15.1754 16.8672C15.276 16.8479 15.38 16.8589 15.4743 16.8988C15.5686 16.9386 15.649 17.0056 15.7053 17.0911C15.7615 17.1766 15.7912 17.2769 15.7904 17.3793L15.7954 17.8932ZM17.5172 24.2392V19.6138H18.4917V24.2367L17.5172 24.2392ZM22.5398 20.9396C21.68 21.8475 21.1246 23.0009 20.9508 24.2392H20.2097V19.6138H20.7311C21.1744 19.6131 21.6075 19.4809 21.9756 19.2339C22.3437 18.987 22.6303 18.6364 22.7992 18.2266C22.968 17.8167 23.0115 17.366 22.9241 16.9314C22.8367 16.4968 22.6224 16.0979 22.3083 15.7852C21.9941 15.4724 21.5943 15.2599 21.1593 15.1744C20.7244 15.089 20.2739 15.1345 19.8647 15.3051C19.4556 15.4758 19.1063 15.7639 18.861 16.1332C18.6158 16.5024 18.4855 16.936 18.4867 17.3793V17.897H17.5122V17.3793C17.5122 16.9377 17.3814 16.5061 17.1362 16.1388C16.8911 15.7715 16.5426 15.4851 16.1348 15.3158C15.727 15.1464 15.2782 15.1016 14.845 15.1871C14.4118 15.2727 14.0136 15.4846 13.7008 15.7962C13.3879 16.1079 13.1744 16.5052 13.0873 16.9381C13.0001 17.371 13.0431 17.82 13.2109 18.2284C13.3787 18.6369 13.6637 18.9864 14.03 19.233C14.3963 19.4796 14.8275 19.6121 15.269 19.6138H15.7867V24.2367H15.0506C14.8733 22.9958 14.3156 21.8403 13.4541 20.9297C12.6222 20.0433 12.0678 18.9328 11.8592 17.7352C11.6507 16.5375 11.7971 15.305 12.2805 14.1896C12.7639 13.0742 13.5632 12.1246 14.5797 11.4578C15.5962 10.7911 16.7856 10.4363 18.0012 10.4373C19.2169 10.4383 20.4057 10.795 21.4211 11.4634C22.4366 12.1318 23.2342 13.0828 23.7158 14.199C24.1973 15.3152 24.3418 16.5479 24.1313 17.7452C23.9208 18.9425 23.3645 20.0521 22.5311 20.9371L22.5398 20.9396ZM20.2097 17.8932V17.3793C20.2095 17.2766 20.2397 17.1761 20.2967 17.0906C20.3536 17.005 20.4346 16.9383 20.5295 16.8989C20.6244 16.8595 20.7288 16.8491 20.8296 16.8691C20.9303 16.8891 21.0229 16.9385 21.0955 17.0112C21.1682 17.0838 21.2176 17.1764 21.2376 17.2771C21.2576 17.3779 21.2472 17.4824 21.2078 17.5772C21.1684 17.6721 21.1017 17.7531 21.0161 17.81C20.9306 17.867 20.8301 17.8972 20.7274 17.897L20.2097 17.8932Z" fill="black"/>
<path d="M8.70575 20.6728C8.56579 20.6739 8.42789 20.7066 8.3023 20.7684L5.44713 22.1984C5.34124 22.2513 5.24682 22.3246 5.16927 22.414C5.09172 22.5034 5.03257 22.6072 4.99521 22.7195C4.95785 22.8319 4.94301 22.9504 4.95154 23.0685C4.96007 23.1865 4.99181 23.3018 5.04493 23.4075C5.12029 23.5569 5.23563 23.6824 5.37809 23.77C5.52055 23.8577 5.68455 23.9041 5.85182 23.9041C5.99148 23.9037 6.12915 23.871 6.25403 23.8085L9.1092 22.3784C9.29116 22.2879 9.43719 22.1385 9.52356 21.9545C9.60994 21.7706 9.63159 21.5628 9.58501 21.365C9.53843 21.1671 9.42634 20.9909 9.26695 20.8648C9.10757 20.7386 8.91023 20.6701 8.70699 20.6703L8.70575 20.6728Z" fill="black"/>
<path d="M5.44102 9.51029L8.29619 10.9404C8.42118 11.0024 8.55884 11.0347 8.6984 11.0347C8.90129 11.0346 9.09822 10.966 9.2573 10.8401C9.41639 10.7142 9.52832 10.5382 9.57499 10.3408C9.62167 10.1433 9.60034 9.93588 9.51448 9.75205C9.42861 9.56822 9.28322 9.41874 9.10184 9.3278L6.24667 7.89773C6.03267 7.79073 5.78493 7.77312 5.55794 7.84879C5.33096 7.92445 5.14333 8.08718 5.03633 8.30118C4.92933 8.51518 4.91172 8.76293 4.98738 8.98991C5.06304 9.2169 5.22577 9.40453 5.43978 9.51153L5.44102 9.51029Z" fill="black"/>
<path d="M8.17579 15.8536C8.17546 15.6147 8.08041 15.3857 7.91146 15.2167C7.74252 15.0478 7.51347 14.9527 7.27455 14.9524H4.41938C4.18036 14.9524 3.95113 15.0473 3.78211 15.2164C3.61309 15.3854 3.51814 15.6146 3.51814 15.8536C3.51814 16.0927 3.61309 16.3219 3.78211 16.4909C3.95113 16.6599 4.18036 16.7549 4.41938 16.7549H7.27455C7.51347 16.7545 7.74252 16.6595 7.91146 16.4905C8.08041 16.3216 8.17546 16.0926 8.17579 15.8536Z" fill="black"/>
<path d="M27.2956 11.0346C27.4355 11.0345 27.5735 11.0022 27.699 10.9403L30.5542 9.51018C30.6601 9.4572 30.7546 9.38387 30.8323 9.29437C30.9099 9.20487 30.9691 9.10096 31.0066 8.98857C31.044 8.87618 31.059 8.75751 31.0506 8.63933C31.0422 8.52116 31.0106 8.4058 30.9576 8.29984C30.9047 8.19387 30.8313 8.09938 30.7418 8.02176C30.6523 7.94414 30.5484 7.88491 30.436 7.84744C30.3236 7.80998 30.205 7.79502 30.0868 7.80342C29.9686 7.81182 29.8532 7.84341 29.7473 7.89639L26.8921 9.32646C26.7107 9.4174 26.5653 9.56688 26.4795 9.75071C26.3936 9.93454 26.3723 10.142 26.419 10.3394C26.4656 10.5369 26.5776 10.7128 26.7366 10.8387C26.8957 10.9647 27.0927 11.0333 27.2956 11.0334V11.0346Z" fill="black"/>
<path d="M31.5858 14.9524H28.7306C28.4915 14.9524 28.2623 15.0473 28.0933 15.2164C27.9243 15.3854 27.8293 15.6146 27.8293 15.8536C27.8293 16.0927 27.9243 16.3219 28.0933 16.4909C28.2623 16.6599 28.4915 16.7549 28.7306 16.7549H31.5858C31.8248 16.7549 32.054 16.6599 32.223 16.4909C32.3921 16.3219 32.487 16.0927 32.487 15.8536C32.487 15.6146 32.3921 15.3854 32.223 15.2164C32.054 15.0473 31.8248 14.9524 31.5858 14.9524Z" fill="black"/>
<path d="M30.5589 22.1985L27.7038 20.7685C27.4898 20.6615 27.242 20.6439 27.015 20.7195C26.7881 20.7952 26.6004 20.9579 26.4934 21.1719C26.3864 21.3859 26.3688 21.6337 26.4445 21.8606C26.5201 22.0876 26.6829 22.2753 26.8969 22.3823L29.752 23.8123C29.8769 23.8748 30.0146 23.9075 30.1543 23.9079C30.2518 23.9082 30.3487 23.8923 30.441 23.8607C30.6101 23.8043 30.7586 23.6991 30.8679 23.5583C30.9771 23.4175 31.0421 23.2474 31.0548 23.0696C31.0674 22.8919 31.027 22.7143 30.9388 22.5595C30.8505 22.4047 30.7183 22.2795 30.5589 22.1998V22.1985Z" fill="black"/>
</svg>
