<svg width="36" height="36" viewBox="0 0 36 36" fill="none" xmlns="http://www.w3.org/2000/svg">
<path d="M31.0978 18.5745C30.8406 16.5075 29.8391 14.605 28.2805 13.2231C26.722 11.8412 24.7133 11.0746 22.6304 11.0667C21.7604 11.0632 20.8927 11.1535 20.0421 11.336L20.4915 6.86707C20.5151 6.63242 20.4893 6.39542 20.4158 6.17135C20.3422 5.94728 20.2225 5.7411 20.0644 5.5661C19.9024 5.38799 19.705 5.24564 19.4849 5.14817C19.2647 5.0507 19.0266 5.00024 18.7858 5.00003C18.7132 4.99956 18.6406 5.00412 18.5686 5.01369C16.5009 5.27034 14.5977 6.27185 13.2152 7.8307C11.8328 9.38955 11.0659 11.3988 11.0582 13.4824C11.0566 14.3536 11.1482 15.2226 11.3313 16.0744L6.86238 15.6238L6.69107 15.6151C6.45271 15.6163 6.2173 15.6679 6.00019 15.7663C5.78308 15.8646 5.58916 16.0077 5.43107 16.1861C5.26881 16.3712 5.14772 16.5886 5.07581 16.824C5.00391 17.0595 4.98282 17.3075 5.01396 17.5516C5.27118 19.6188 6.27293 21.5215 7.83172 22.9034C9.39051 24.2854 11.3995 25.0519 13.4827 25.0595C14.3524 25.0622 15.2199 24.9702 16.0697 24.7851L15.6203 29.2541C15.5967 29.4888 15.6225 29.7257 15.696 29.9498C15.7696 30.1739 15.8892 30.3801 16.0473 30.5551C16.2099 30.7331 16.4078 30.8754 16.6283 30.9729C16.8489 31.0703 17.0873 31.1208 17.3284 31.1211C17.4007 31.1215 17.4728 31.1169 17.5444 31.1075C19.6119 30.8505 21.5148 29.8489 22.897 28.2901C24.2792 26.7313 25.0459 24.7221 25.0535 22.6388C25.0557 21.7676 24.9645 20.8986 24.7817 20.0468L29.2507 20.4962L29.4207 20.5049C29.6602 20.5043 29.8967 20.4529 30.1148 20.354C30.3329 20.2551 30.5275 20.1111 30.6857 19.9313C30.8463 19.7471 30.9661 19.5309 31.0371 19.2971C31.1082 19.0632 31.1288 18.817 31.0978 18.5745ZM22.1264 17.9079L22.6329 19.302C23.0096 20.3715 23.1965 21.4987 23.1853 22.6326C23.1853 25.9123 20.7472 28.7402 17.4886 29.2764L18.2086 22.1298L16.8145 22.6376C15.7445 23.0142 14.617 23.2011 13.4827 23.19C10.2042 23.19 7.37507 20.7519 6.83755 17.4933L13.9842 18.2133L13.4789 16.8192C13.1025 15.7496 12.9156 14.6225 12.9265 13.4886C12.9346 11.8917 13.5125 10.3501 14.5562 9.1414C15.5999 7.93271 17.0408 7.13632 18.6195 6.89562L17.9044 13.9913L19.2973 13.4849C20.3671 13.1072 21.4947 12.9198 22.6291 12.9312C25.9089 12.9312 28.7367 15.3693 29.273 18.6279L22.1264 17.9079Z" fill="black"/>
<path d="M17.9999 20.0109C19.1106 20.0109 20.011 19.1105 20.011 17.9998C20.011 16.8891 19.1106 15.9888 17.9999 15.9888C16.8893 15.9888 15.9889 16.8891 15.9889 17.9998C15.9889 19.1105 16.8893 20.0109 17.9999 20.0109Z" fill="black"/>
</svg>
