<svg width="36" height="36" viewBox="0 0 36 36" fill="none" xmlns="http://www.w3.org/2000/svg">
<path d="M31.2087 22.06L25.7093 17.9883L31.2087 13.9166C31.5935 13.6311 31.6804 13.0849 31.3949 12.7001L27.0872 6.8904C26.8017 6.50557 26.2555 6.41867 25.8706 6.70419L22.6678 9.07522V5.0904C22.6678 4.60626 22.283 4.22144 21.7989 4.22144H14.5614C14.0773 4.22144 13.6924 4.60626 13.6924 5.0904V9.07522L10.4896 6.70419C10.1048 6.41867 9.55856 6.50557 9.27303 6.8904L4.96539 12.7001C4.82884 12.8863 4.76673 13.1221 4.80398 13.3456C4.84122 13.569 4.96539 13.78 5.15161 13.9166L10.651 17.9883L5.15161 22.06C4.96539 22.1966 4.84122 22.4076 4.80398 22.6311C4.76673 22.8545 4.82884 23.0904 4.96539 23.2766L9.27303 29.0862C9.55856 29.4711 10.1048 29.558 10.4896 29.2724L13.6924 26.9014V30.8862C13.6924 31.3704 14.0773 31.7552 14.5614 31.7552H21.7989C22.283 31.7552 22.6678 31.3704 22.6678 30.8862V26.9014L25.8706 29.2724C26.2555 29.558 26.8017 29.4711 27.0872 29.0862L31.3949 23.2766C31.5315 23.0904 31.5935 22.8545 31.5563 22.6311C31.519 22.4076 31.3949 22.1966 31.2087 22.06ZM26.2059 27.3607L22.3078 24.4807C22.0471 24.2821 21.6871 24.2573 21.4016 24.4062C21.1037 24.5552 20.9299 24.8531 20.9299 25.1883V30.0297H15.4304V25.1883C15.4304 24.8656 15.2442 24.5552 14.9463 24.4062C14.6483 24.2573 14.3008 24.2945 14.0401 24.4807L10.1544 27.3607L6.87715 22.9414L12.6125 18.6959C12.8359 18.5345 12.96 18.2738 12.96 18.0007C12.96 17.7276 12.8235 17.4669 12.6125 17.3056L6.87715 13.06L10.1544 8.64074L14.0401 11.5207C14.3008 11.7194 14.6608 11.7442 14.9463 11.5952C15.2442 11.4463 15.4304 11.1483 15.4304 10.8131V5.97178H20.9299V10.8131C20.9299 11.1359 21.1161 11.4463 21.4016 11.5952C21.6995 11.7442 22.0471 11.7069 22.3078 11.5207L26.2059 8.64074L29.4707 13.06L23.7354 17.3056C23.512 17.4669 23.3878 17.7276 23.3878 18.0007C23.3878 18.2738 23.5244 18.5345 23.7354 18.6959L29.4707 22.9414L26.2059 27.3607Z" fill="black"/>
<path d="M17.4039 15.2449V15.1953C16.9943 15.0339 16.5598 14.8229 16.3612 14.4381C16.0881 13.8546 16.7212 13.3332 17.0687 13.0477L17.0812 13.0353H17.1061C17.1681 13.0477 17.2425 13.0477 17.317 13.0477C17.3418 13.0477 17.3667 13.0477 17.3916 13.0477C17.4288 13.0477 17.4536 13.0353 17.4909 13.0353C17.5033 13.0353 17.5033 13.0353 17.5157 13.0229H17.5281C17.6894 12.9732 18.0495 12.6753 18.2854 12.4643C18.335 12.427 18.3723 12.3898 18.4095 12.3526C18.4219 12.3401 18.4342 12.3401 18.4342 12.3277C18.4715 12.3029 18.4963 12.2781 18.5212 12.2532C18.5336 12.2408 18.5336 12.2408 18.546 12.2408C18.757 12.0546 18.8564 11.8312 18.8812 11.7319C18.8812 11.7195 18.8812 11.707 18.8812 11.6946C18.8688 11.6326 18.8439 11.5457 18.6701 11.4836C18.6577 11.4836 18.6329 11.4712 18.5832 11.4712C18.5212 11.4712 18.4468 11.4836 18.3474 11.4836C18.273 11.496 18.1984 11.5084 18.1115 11.5208C18.0991 11.5208 18.0867 11.5333 18.0743 11.5333C17.8385 11.5829 17.5777 11.645 17.3667 11.7195C17.2798 11.7567 17.2053 11.7815 17.1557 11.8188C16.9819 11.9057 16.8081 12.1291 16.7212 12.3526V12.365L16.7088 12.3774C16.6467 12.427 16.6095 12.4643 16.5598 12.5015C16.1005 12.8863 15.815 13.2712 15.6784 13.6436C15.5171 14.016 15.5047 14.3387 15.6288 14.6243C15.7405 14.8974 15.9888 15.1332 16.3612 15.3442C16.6839 15.5304 17.0687 15.6794 17.4411 15.8284L17.4039 15.2449Z" fill="black"/>
<path d="M18.1241 27.944L18.1366 27.9316C18.1366 27.9192 18.1489 27.9192 18.1489 27.9068C18.211 27.8447 18.2979 27.7826 18.3228 27.7578C18.3476 27.7454 18.36 27.7205 18.3848 27.6957L18.4097 27.6709L18.4221 27.2116L18.4344 26.9633L18.4718 25.8088L18.4593 25.8212C18.4469 25.8337 18.4345 25.8461 18.4221 25.8585L18.4097 25.8709C18.3973 25.8833 18.3724 25.8957 18.36 25.9081C18.2979 25.9578 18.2358 26.0075 18.1861 26.0571H18.1738C18.1614 26.0695 18.1613 26.0695 18.1489 26.0819L18.1366 26.0943C18.1241 26.1068 18.1241 26.1068 18.1117 26.1192L18.0993 26.1316C18.0869 26.144 18.0869 26.144 18.0745 26.144L18.062 26.1564C18.0496 26.1688 18.0497 26.1688 18.0373 26.1688L18.0248 26.1812C18.0248 26.1937 18.0124 26.1937 18.0124 26.1937L17.9999 26.2061L17.9876 26.2185C17.9751 26.2185 17.9752 26.2309 17.9752 26.2309C17.9628 26.2309 17.9627 26.2433 17.9627 26.2433C17.9627 26.2557 17.9503 26.2557 17.9503 26.2557L17.9378 26.2681C17.9254 26.2681 17.9255 26.2805 17.9255 26.2805L17.9131 26.293C17.9131 26.3054 17.9006 26.3054 17.9006 26.3054C17.9006 26.3178 17.8883 26.3178 17.8883 26.3178C17.8883 26.3302 17.8758 26.3302 17.8758 26.3302L17.8634 26.3426L17.9131 27.9936C17.9131 28.0185 17.9503 28.0433 18.0248 28.0681C18.0248 28.0557 18.0248 28.0557 18.0373 28.0433V28.0309C18.0373 28.0309 18.0372 28.0185 18.0496 28.0185C18.0496 28.0061 18.062 28.0061 18.062 27.9936C18.062 27.9936 18.0621 27.9812 18.0745 27.9812L18.0868 27.9688C18.0993 27.9564 18.1116 27.944 18.1241 27.9316C18.1116 27.9564 18.1241 27.9564 18.1241 27.944Z" fill="black"/>
<path d="M18.9435 11.7437C18.9435 11.7561 18.9435 11.7561 18.9435 11.7561C18.9435 11.7685 18.9434 11.7809 18.931 11.7933V11.8057V11.8181C18.931 11.8181 18.931 11.8181 18.931 11.8306V11.843C18.931 11.843 18.931 11.843 18.931 11.8554V11.8678V11.8802C18.931 11.8802 18.931 11.8802 18.931 11.8926V11.905V11.9174V11.9299L18.9186 11.9423C18.9186 11.9423 18.9186 11.9423 18.9186 11.9547C18.9186 11.9671 18.9062 11.9671 18.9062 11.9671C18.9062 11.9795 18.8938 11.9795 18.8938 11.9919C18.8938 12.0043 18.8814 12.0043 18.8814 12.0043C18.8814 12.0043 18.8814 12.0044 18.8814 12.0168L18.8689 12.0292C18.8689 12.0292 18.8689 12.0292 18.8689 12.0416C18.8689 12.054 18.8565 12.054 18.8565 12.054C18.8565 12.054 18.8565 12.054 18.8565 12.0664C18.8565 12.0664 18.8566 12.0788 18.8442 12.0788C18.8442 12.0788 18.8441 12.0788 18.8317 12.0912C18.8317 12.0912 18.8317 12.1037 18.8193 12.1037C18.8193 12.1037 18.8193 12.1037 18.8068 12.1161L18.7945 12.1285C18.7945 12.1285 18.7945 12.1409 18.7821 12.1409L18.7696 12.1533L18.7573 12.1657C18.7573 12.1781 18.7448 12.1781 18.7448 12.1905C18.7448 12.203 18.7324 12.203 18.7324 12.203C18.7324 12.203 18.7325 12.2154 18.72 12.2154L18.7076 12.2278L18.6952 12.2402L18.6827 12.2526L18.6703 12.265L18.658 12.2775C18.658 12.2775 18.6579 12.2899 18.6455 12.2899L18.6331 12.3023C18.6331 12.3023 18.6206 12.3023 18.6206 12.3147L18.6083 12.3271L18.5959 12.3395L18.5834 12.3519L18.5711 12.3643C18.5586 12.3768 18.5586 12.3768 18.5462 12.3892L18.5338 12.4016C18.509 12.414 18.4841 12.4388 18.4593 12.4637C18.4469 12.4761 18.4469 12.4761 18.4344 12.4885C18.2358 12.6623 18.0125 12.8609 17.8262 12.9974C17.8138 13.0099 17.8014 13.0223 17.789 13.0223C17.7766 13.0347 17.7642 13.0347 17.7642 13.0471C17.7518 13.0595 17.7393 13.0595 17.7145 13.0719C17.64 13.1216 17.5656 13.1588 17.5159 13.1712C17.5035 13.1712 17.5035 13.1712 17.4911 13.1836C17.4911 13.1836 17.4911 13.1836 17.4787 13.1836C17.4663 13.1836 17.4663 13.1836 17.4538 13.1836C17.4538 13.1836 17.4538 13.1836 17.4414 13.1836C17.4289 13.1836 17.429 13.1836 17.4166 13.1836L17.5034 15.9271V16.014L17.6028 19.1423L17.6152 19.1298L17.6773 19.0678L17.7021 19.043C17.7269 19.0305 17.7394 19.0057 17.7642 18.9933L17.789 18.9685C17.8139 18.9436 17.8386 18.9188 17.8635 18.894C17.9379 18.8195 18.0125 18.7574 18.0745 18.683C18.2855 18.4719 18.4841 18.2609 18.6455 17.9878C18.6579 17.9754 18.6579 17.963 18.6703 17.9381C18.6703 17.9257 18.6703 17.9257 18.6827 17.9257C18.6827 17.9133 18.6952 17.9009 18.6952 17.8885C18.6952 17.8761 18.6951 17.8761 18.7076 17.8761L18.72 17.8512C18.72 17.8388 18.7324 17.8388 18.7324 17.8264C18.7324 17.814 18.7448 17.814 18.7448 17.8016L18.9435 11.7685C18.9435 11.7685 18.9435 11.7685 18.9435 11.7809V11.7437Z" fill="black"/>
<path d="M17.3793 11.6196C17.3917 11.6196 17.4041 11.6072 17.4041 11.6072L17.429 11.5948C17.4414 11.5948 17.4414 11.5948 17.4414 11.5948C17.4538 11.5948 17.4538 11.5948 17.4662 11.5824C17.4786 11.5824 17.4787 11.5824 17.4787 11.5824C17.4911 11.5824 17.491 11.5824 17.5034 11.57C17.5034 11.57 17.5159 11.57 17.5159 11.5576C17.5283 11.5576 17.5283 11.5576 17.5408 11.5451C17.5532 11.5451 17.5531 11.5451 17.5531 11.5451C17.5655 11.5451 17.5656 11.5452 17.578 11.5327C17.5904 11.5327 17.5903 11.5327 17.5903 11.5327C17.6027 11.5327 17.6028 11.5327 17.6152 11.5203C17.6276 11.5203 17.6275 11.5203 17.6275 11.5079L17.6524 11.4955H17.6649L17.6896 11.4831C17.702 11.4831 17.7021 11.4831 17.7021 11.4831C17.7145 11.4831 17.7145 11.4707 17.7269 11.4707H17.7393C17.7517 11.4707 17.7641 11.4583 17.7765 11.4583C17.7765 11.4583 17.7766 11.4583 17.789 11.4583C17.8014 11.4583 17.8138 11.4582 17.8386 11.4458C17.851 11.4458 17.8634 11.4458 17.8758 11.4334H17.8883C17.9007 11.4334 17.9131 11.4334 17.9131 11.4334H17.9255C17.9379 11.4334 17.9379 11.4334 17.9503 11.4334H17.9627C17.9751 11.4334 17.9751 11.4334 17.9876 11.4334H17.9999C18.0123 11.4334 18.0124 11.4334 18.0248 11.4334C18.0372 11.4334 18.0373 11.4334 18.0373 11.4334C18.0497 11.4334 18.0496 11.4334 18.062 11.4334C18.0744 11.4334 18.0745 11.4334 18.0745 11.4334C18.0869 11.4334 18.0869 11.4334 18.0993 11.4334C18.1117 11.4334 18.1117 11.4334 18.1117 11.4334C18.1241 11.4334 18.1241 11.4334 18.1365 11.4334C18.1489 11.4334 18.1489 11.4334 18.1489 11.4334C18.1613 11.4334 18.1613 11.4334 18.1737 11.4334C18.1862 11.4334 18.1861 11.4334 18.1861 11.4334C18.1985 11.4334 18.1985 11.4334 18.211 11.4334H18.2234C18.2358 11.4334 18.2358 11.4334 18.2482 11.4334C18.2606 11.4334 18.2607 11.4334 18.2607 11.4334C18.2731 11.4334 18.2731 11.4334 18.2855 11.4334H18.2979C18.3103 11.4334 18.3102 11.4334 18.3102 11.4334H18.3227C18.3351 11.4334 18.3351 11.4334 18.3351 11.4334H18.3476C18.36 11.4334 18.3599 11.4334 18.3599 11.4334H18.3723C18.3847 11.4334 18.3848 11.4334 18.3848 11.4334H18.3971C18.4096 11.4334 18.4096 11.4334 18.4096 11.4334H18.422H18.4344H18.4468C18.4592 11.4334 18.4593 11.4334 18.4717 11.4334C18.5213 11.4334 18.5586 11.4334 18.5958 11.4458C18.7696 11.5079 18.8564 11.5948 18.8688 11.7314L18.9185 10.3782C18.9309 10.0927 18.8564 9.86922 18.7074 9.72025C18.5585 9.57128 18.3351 9.48438 18.062 9.48438C17.8013 9.48438 17.6027 9.54644 17.4662 9.69541C17.3173 9.84438 17.2552 10.0678 17.2677 10.3782L17.3793 11.6196Z" fill="black"/>
<path d="M18.5457 27.0869V27.1614V27.2483C18.6325 27.2731 18.7194 27.298 18.7194 27.3725C18.7194 27.5215 18.6326 27.6332 18.5333 27.7201L18.5208 27.7325C18.5084 27.7449 18.4961 27.7573 18.4836 27.7698C18.4588 27.7946 18.4464 27.807 18.4216 27.8318C18.4216 27.8318 18.4217 27.8318 18.4092 27.8318C18.4092 27.8318 18.4092 27.8318 18.3968 27.8318C18.3968 27.8318 18.3844 27.8318 18.3844 27.8443C18.3472 27.8691 18.2975 27.9063 18.2479 27.956C18.1486 28.0429 18.1238 28.0926 18.1238 28.105C18.1238 28.105 18.1363 28.105 18.1611 28.105H18.1735C18.1859 28.105 18.1859 28.105 18.1983 28.105C18.2727 28.0926 18.3596 28.0553 18.4464 27.9932C18.6698 27.8318 18.893 27.5339 18.8682 27.3228V27.3104C18.8558 27.2235 18.7566 27.149 18.5457 27.0869Z" fill="black"/>
<path d="M17.8384 25.7717C17.8508 25.7593 17.8757 25.7345 17.8881 25.7221L17.9005 25.7097L17.9502 25.66C17.9626 25.6476 17.9874 25.6228 18.0123 25.6104L18.0246 25.5979C18.037 25.5855 18.0619 25.5731 18.0743 25.5607C18.0867 25.5483 18.0868 25.5483 18.0992 25.5359C18.0992 25.5359 18.1115 25.5359 18.1115 25.5235C18.124 25.5235 18.124 25.511 18.1364 25.511L18.1488 25.4986C18.1612 25.4862 18.1612 25.4862 18.1612 25.4862C18.1612 25.4862 18.1736 25.4862 18.1736 25.4738L18.186 25.4614L18.1985 25.449C18.2109 25.449 18.2108 25.4366 18.2108 25.4366L18.2233 25.4242L18.2357 25.4117L18.248 25.3993C18.2604 25.3993 18.2605 25.3869 18.2605 25.3869C18.2605 25.3869 18.2729 25.3869 18.2729 25.3745L18.2854 25.3621L18.2977 25.3497C18.3102 25.3497 18.3101 25.3372 18.3101 25.3372L18.3226 25.3248L18.335 25.3124L18.3474 25.3L18.3598 25.2876L18.3722 25.2752L18.3847 25.2628L18.397 25.2504L18.4095 25.2379L18.4219 25.2255L18.4342 25.2131L18.4467 25.2007L18.4591 25.1883L18.4716 25.1759C18.4716 25.1759 18.4715 25.1635 18.4839 25.1635L18.5212 23.8476V23.8228L18.6825 18.969C18.6577 18.9938 18.6453 19.0062 18.6204 19.0311L18.6081 19.0435C18.5957 19.0559 18.5708 19.0807 18.546 19.0931L18.5336 19.1055C18.5088 19.1304 18.4964 19.1428 18.4716 19.1676C18.4592 19.1676 18.4591 19.18 18.4591 19.18L18.397 19.2297C18.3474 19.2669 18.3102 19.3166 18.2605 19.3538C18.2481 19.3662 18.2481 19.3662 18.2357 19.3786C18.2233 19.3911 18.2232 19.3911 18.2108 19.4035C18.2108 19.4035 18.2109 19.4035 18.1985 19.4035L18.1736 19.4283C18.1736 19.4283 18.1612 19.4283 18.1612 19.4407C18.1488 19.4407 18.1488 19.4531 18.1364 19.4531C18.1364 19.4531 18.1363 19.4655 18.1239 19.4655C18.1115 19.478 18.1116 19.478 18.0992 19.478L18.0867 19.4904L18.0743 19.5028L18.0618 19.5152L18.0495 19.5276C18.0495 19.5276 18.0371 19.5276 18.0371 19.54C18.0247 19.54 18.0246 19.5524 18.0246 19.5524L18.0123 19.5648L17.9998 19.5773L17.9874 19.5897L17.975 19.6021L17.9626 19.6145L17.9502 19.6269L17.9377 19.6393L17.9253 19.6518L17.913 19.6642L17.9005 19.6766L17.8881 19.689L17.8756 19.7014L17.8633 19.7138L17.8509 19.7262L17.8384 19.7386L17.8261 19.7511L17.8136 19.7635L17.8012 19.7759L17.7888 19.7883L17.7764 19.8007L17.764 19.8131L17.7515 19.8255L17.7391 19.838L17.7268 19.8504L17.7143 19.8628C17.7143 19.8628 17.7143 19.8752 17.7019 19.8752L17.6894 19.8876L17.6771 19.9L17.6647 19.9124L17.6522 19.9248L17.6399 19.9373C17.6399 19.9497 17.6274 19.9497 17.6274 19.9497L17.615 19.9621L17.6026 19.9745C17.6026 19.9745 17.6026 19.9869 17.5902 19.9869L17.5778 19.9993C17.5778 19.9993 17.5777 20.0117 17.5653 20.0117C17.5653 20.0117 17.5653 20.0118 17.5653 20.0242L17.615 21.5262L17.6399 22.209L17.8384 25.7717Z" fill="black"/>
<path d="M18.9064 15.7664L18.8815 16.5236C19.1671 16.8339 19.0181 17.3801 18.8443 17.7774V17.7898C18.8195 17.8519 18.7821 17.9263 18.7449 17.9884C18.6208 18.187 18.4719 18.3732 18.3229 18.5346C18.1987 18.6712 18.0746 18.7829 17.9505 18.907C17.8387 19.0188 17.727 19.1305 17.6152 19.2422C17.5408 19.3167 17.4787 19.3912 17.4167 19.4532C16.9946 19.8877 16.8456 20.3843 16.9573 20.9801C17.0442 21.4022 17.2552 21.8615 17.6276 22.3829L17.6029 21.576C17.5036 21.3898 17.4166 21.2284 17.3793 21.067C17.2924 20.6946 17.3545 20.347 17.5532 20.0118L17.5655 19.9994C17.7642 19.6891 18.0622 19.416 18.3601 19.1429C18.4842 19.0312 18.6084 18.9194 18.7325 18.8077C18.9808 18.5594 19.1422 18.3608 19.2415 18.1498C19.4649 17.7898 19.5891 17.2808 19.5767 16.8091C19.6015 16.3622 19.403 16.0395 18.9064 15.7664Z" fill="black"/>
<path d="M18.6576 23.6235L18.6451 23.8222C18.8064 24.1449 18.8685 24.4428 18.8312 24.7408C18.794 24.9022 18.7196 25.0511 18.6079 25.1877L18.5955 25.2001C18.4962 25.3242 18.3845 25.4235 18.2604 25.5352C18.2232 25.5725 18.186 25.5973 18.1363 25.6346C18.0246 25.7214 17.9129 25.8208 17.8136 25.9201C17.6895 26.0442 17.6027 26.1683 17.5407 26.3049C17.4538 26.4539 17.4413 26.6525 17.5033 26.8263C17.553 26.9628 17.6523 27.0621 17.7764 27.1242L17.764 26.9256V26.8883C17.6151 26.7766 17.615 26.6028 17.7515 26.3794L17.764 26.367C17.764 26.367 17.764 26.367 17.764 26.3546C17.7764 26.3421 17.7889 26.3297 17.7889 26.3173C17.9378 26.1435 18.1238 25.9945 18.31 25.8456C18.3721 25.7959 18.4341 25.7463 18.4962 25.6966C18.8436 25.3987 19.0795 25.1256 19.1043 24.6911C19.216 24.1325 18.9554 23.5987 18.6576 23.1394V23.6235Z" fill="black"/>
</svg>
