<svg width="36" height="36" viewBox="0 0 36 36" fill="none" xmlns="http://www.w3.org/2000/svg">
<path d="M22.2914 15.7209H13.7097C13.443 15.7209 13.2268 15.9371 13.2268 16.2038V16.9846C13.2268 17.2513 13.443 17.4675 13.7097 17.4675H22.2914C22.5581 17.4675 22.7743 17.2513 22.7743 16.9846V16.2038C22.7743 15.9371 22.5581 15.7209 22.2914 15.7209Z" fill="black"/>
<path d="M22.2914 12.6013H13.7097C13.443 12.6013 13.2268 12.8175 13.2268 13.0842V13.865C13.2268 14.1317 13.443 14.3479 13.7097 14.3479H22.2914C22.5581 14.3479 22.7743 14.1317 22.7743 13.865V13.0842C22.7743 12.8175 22.5581 12.6013 22.2914 12.6013Z" fill="black"/>
<path d="M22.2914 18.8416H13.7097C13.443 18.8416 13.2268 19.0578 13.2268 19.3245V20.1053C13.2268 20.372 13.443 20.5882 13.7097 20.5882H22.2914C22.5581 20.5882 22.7743 20.372 22.7743 20.1053V19.3245C22.7743 19.0578 22.5581 18.8416 22.2914 18.8416Z" fill="black"/>
<path d="M25.8008 9.48048H24.331V8.79399C24.331 8.56353 24.2395 8.3425 24.0765 8.17954C23.9136 8.01658 23.6925 7.92503 23.4621 7.92503H21.9004C21.67 7.92503 21.4489 8.01658 21.286 8.17954C21.123 8.3425 21.0315 8.56353 21.0315 8.79399V9.48048H19.6535V8.79399C19.6519 8.56403 19.5598 8.34395 19.3972 8.18134C19.2346 8.01873 19.0145 7.92665 18.7846 7.92503H17.2204C16.9905 7.92665 16.7704 8.01873 16.6078 8.18134C16.4451 8.34395 16.3531 8.56403 16.3515 8.79399V9.48048H13.4131V5.28337C13.4128 5.15519 13.3616 5.03236 13.2709 4.94184C13.1801 4.85131 13.0572 4.80048 12.929 4.80048H12.1494C12.0217 4.80113 11.8996 4.8523 11.8095 4.94279C11.7195 5.03328 11.669 5.15573 11.669 5.28337V9.48048H10.1992C9.76134 9.48276 9.34209 9.6577 9.03249 9.9673C8.72288 10.2769 8.54794 10.6962 8.54566 11.134V19.8485C8.54516 20.0658 8.58781 20.2811 8.67113 20.4818C8.75445 20.6826 8.87678 20.8647 9.03104 21.0179L10.1061 22.0966V27.519C10.1067 28.1641 10.3633 28.7825 10.8194 29.2387C11.2756 29.6949 11.8941 29.9514 12.5392 29.9521H23.4633C24.1084 29.9514 24.7269 29.6949 25.1831 29.2387C25.6392 28.7825 25.8958 28.1641 25.8964 27.519V22.0966L26.9715 21.0216C27.1257 20.8685 27.248 20.6863 27.3314 20.4855C27.4147 20.2848 27.4573 20.0695 27.4568 19.8522V11.134C27.4545 10.6957 27.2793 10.2761 26.9691 9.96643C26.659 9.65676 26.2391 9.48211 25.8008 9.48048ZM10.2923 19.81V11.2271H25.7077V19.81L24.1473 21.3704V27.5152C24.1473 27.6974 24.075 27.8722 23.9463 28.0011C23.8176 28.13 23.643 28.2026 23.4608 28.203H12.5379C12.3558 28.2026 12.1811 28.13 12.0524 28.0011C11.9237 27.8722 11.8515 27.6974 11.8515 27.5152V21.3704L10.2923 19.81Z" fill="black"/>
</svg>
