<svg width="36" height="36" viewBox="0 0 36 36" fill="none" xmlns="http://www.w3.org/2000/svg">
<path d="M27.9059 12.4011H25.7707V7.21214C25.7707 5.49904 24.6411 4.36938 22.928 4.36938H12.7362C11.0231 4.36938 9.89349 5.49904 9.89349 7.21214V9.58317H8.00659C6.75279 9.58317 5.73486 10.6011 5.73486 11.8549V27.4094C5.73486 28.6631 6.75279 29.6811 8.00659 29.6811H27.8935C29.1473 29.6811 30.1652 28.6631 30.1652 27.4094V14.6852C30.1901 13.419 29.1597 12.4011 27.9059 12.4011ZM11.619 18.0618H11.6438V7.21214C11.6438 6.4549 11.9914 6.10731 12.7487 6.10731H22.9404C23.6976 6.10731 24.0452 6.4549 24.0452 7.21214V12.488V15.2563C23.3004 15.3556 22.6673 15.8149 22.3321 16.4976L21.699 17.7638C21.5997 17.9501 21.4135 18.0742 21.2025 18.0742L11.619 18.0618ZM7.4728 11.8549C7.4728 11.5445 7.72107 11.3087 8.019 11.3087H9.89349V18.0742H7.46038V11.8549H7.4728ZM28.4645 27.4094C28.4645 27.7197 28.2163 27.9555 27.9183 27.9555H8.019C7.70865 27.9555 7.4728 27.7073 7.4728 27.4094V19.7873H21.2025C22.0714 19.7873 22.8535 19.3032 23.2383 18.5335L23.8714 17.2673C23.9707 17.0811 24.157 16.957 24.368 16.957H27.9183C28.2287 16.957 28.4645 17.2052 28.4645 17.5032V27.4094ZM28.4645 15.2935C28.2783 15.2438 28.1045 15.2314 27.9183 15.2314H25.7832V14.1266H27.9183C28.2287 14.1266 28.4645 14.3749 28.4645 14.6728V15.2935Z" fill="black"/>
<path d="M14.3251 10.9485H21.3761C21.7486 10.9485 21.972 10.7375 21.972 10.3527V9.78166C21.972 9.40925 21.761 9.18579 21.3761 9.18579H14.3251C13.9527 9.18579 13.7292 9.39683 13.7292 9.78166V10.3527C13.7417 10.7375 13.9527 10.9485 14.3251 10.9485Z" fill="black"/>
<path d="M21.972 13.5678V12.9967C21.972 12.6243 21.761 12.4009 21.3761 12.4009H14.3251C13.9527 12.4009 13.7292 12.6119 13.7292 12.9967V13.5678C13.7292 13.9402 13.9403 14.1637 14.3251 14.1637H21.3761C21.761 14.1512 21.972 13.9402 21.972 13.5678Z" fill="black"/>
</svg>
