<svg width="36" height="36" viewBox="0 0 36 36" fill="none" xmlns="http://www.w3.org/2000/svg">
<path d="M16.7586 21.9242C16.3713 21.9239 15.9944 22.049 15.6842 22.2808C15.3739 22.5127 15.1471 22.8387 15.0377 23.2102C14.9283 23.5817 14.9421 23.9786 15.0771 24.3416C15.2121 24.7046 15.461 25.0141 15.7866 25.2238V26.1151C15.7866 26.3729 15.889 26.6201 16.0713 26.8024C16.2536 26.9847 16.5008 27.0871 16.7586 27.0871C17.0164 27.0871 17.2636 26.9847 17.4459 26.8024C17.6282 26.6201 17.7306 26.3729 17.7306 26.1151V25.2238C18.0562 25.0141 18.3051 24.7046 18.4401 24.3416C18.5751 23.9786 18.5889 23.5817 18.4795 23.2102C18.37 22.8387 18.1432 22.5127 17.833 22.2808C17.5228 22.049 17.1459 21.9239 16.7586 21.9242Z" fill="black"/>
<path d="M15.6973 12.9763C15.2906 13.5821 15.1406 14.3244 15.2802 15.0407C15.4198 15.7569 15.8377 16.3886 16.4422 16.7972L16.5303 16.8581C17.1361 17.2655 17.8789 17.416 18.5955 17.2763C19.3121 17.1367 19.944 16.7184 20.3525 16.1132L21.831 13.921C21.9627 13.7261 22.0116 13.4868 21.9669 13.2559C21.9222 13.0249 21.7876 12.8212 21.5926 12.6895C21.4961 12.6243 21.3877 12.5787 21.2736 12.5554C21.1595 12.5321 21.0419 12.5315 20.9276 12.5536C20.6966 12.5983 20.4929 12.733 20.3612 12.9279L18.8827 15.1201C18.8108 15.2276 18.7183 15.3197 18.6105 15.3912C18.5028 15.4628 18.382 15.5122 18.255 15.5368C18.1281 15.5614 17.9975 15.5606 17.8709 15.5345C17.7443 15.5083 17.624 15.4574 17.5172 15.3846L17.4291 15.325C17.2131 15.1788 17.064 14.9529 17.0144 14.6969C16.9648 14.4409 17.0189 14.1757 17.1646 13.9594L19.7877 10.0826C19.932 9.86864 20.1552 9.72048 20.4084 9.67048C20.4711 9.65916 20.5346 9.65335 20.5983 9.6531C20.7924 9.65258 20.9821 9.71007 21.1433 9.81821L21.2314 9.87779C21.3282 9.94399 21.4371 9.99032 21.5519 10.0141C21.6668 10.0379 21.7851 10.0387 21.9003 10.0164C22.0154 9.99412 22.1249 9.94922 22.2226 9.8843C22.3202 9.81938 22.404 9.73573 22.4691 9.63821C22.6005 9.44309 22.649 9.2038 22.6041 8.9729C22.5592 8.742 22.4244 8.53837 22.2295 8.40676L22.1413 8.34841C21.6885 8.04146 21.154 7.87755 20.607 7.87793C20.4274 7.87811 20.2482 7.89557 20.072 7.93007C19.7169 7.99806 19.3788 8.13561 19.0771 8.33481C18.7754 8.53402 18.5161 8.79093 18.3142 9.09076L17.5867 10.1695L16.7525 11.4109L16.4645 11.8379L15.6973 12.9763Z" fill="black"/>
<path d="M27.119 5.04245C27.0518 4.68971 26.9152 4.35382 26.7173 4.05422C26.5193 3.75463 26.2639 3.49727 25.9658 3.29707L25.8764 3.23624C25.2738 2.83235 24.5356 2.68395 23.8237 2.82358C23.1119 2.96321 22.4844 3.37947 22.079 3.98107L20.6204 6.13735C20.5353 6.26436 20.4852 6.41159 20.4752 6.56416C20.4651 6.71673 20.4956 6.86925 20.5633 7.00631C20.63 7.14199 20.7305 7.25826 20.8551 7.34397C21.0466 7.47129 21.2807 7.51806 21.5065 7.47415C21.7323 7.43024 21.9317 7.29919 22.0617 7.10935L23.5203 4.94686C23.5931 4.83788 23.6868 4.74439 23.796 4.67179C23.9051 4.59919 24.0276 4.54892 24.1562 4.52388C24.2849 4.49883 24.4173 4.49951 24.5457 4.52588C24.6741 4.55224 24.796 4.60377 24.9044 4.67749L24.9938 4.73707C25.1028 4.80991 25.1963 4.90361 25.2689 5.01276C25.3415 5.12191 25.3917 5.24436 25.4168 5.37303C25.4418 5.50171 25.4412 5.63407 25.4148 5.76248C25.3884 5.89089 25.3369 6.01281 25.2632 6.12121L23.4533 8.80383L23.0126 9.45679L22.6402 10.0067C22.5108 10.1964 22.3204 10.336 22.1006 10.4022C21.8807 10.4684 21.6448 10.4572 21.4323 10.3705C21.37 10.3452 21.3105 10.3136 21.2548 10.2761C21.0982 10.1751 20.9132 10.1271 20.7273 10.1392C20.5413 10.1513 20.3641 10.2229 20.2219 10.3433C20.0797 10.4638 19.9801 10.6268 19.9376 10.8083C19.8951 10.9898 19.9121 11.1801 19.9861 11.3511C20.051 11.4994 20.157 11.626 20.2915 11.7161C20.3386 11.7484 20.3871 11.7745 20.4355 11.803C20.5458 11.8694 20.6607 11.9279 20.7793 11.978C20.9158 12.0331 21.0566 12.0771 21.2002 12.1096C21.287 12.1295 21.3752 12.1456 21.4621 12.1568C21.579 12.1725 21.6967 12.1808 21.8146 12.1816C21.9745 12.1819 22.134 12.1677 22.2913 12.1394C22.6525 12.0761 22.9973 11.9407 23.3051 11.7413C23.6128 11.5419 23.8773 11.2826 24.0826 10.9787L26.7032 7.09321C26.9045 6.7958 27.0449 6.46144 27.1163 6.10944C27.1877 5.75745 27.1886 5.3948 27.119 5.04245Z" fill="black"/>
<path d="M23.5116 18.7171H23.1392V18.6538C23.1392 18.3286 23.164 17.2151 23.1392 16.5571C23.0978 15.7815 22.9559 15.0146 22.7171 14.2755C22.7047 14.2419 22.691 14.2097 22.6774 14.1762C22.6403 14.258 22.5963 14.3365 22.5458 14.4108L21.405 16.104C21.4161 16.2356 21.4236 16.3684 21.4236 16.5037V18.7208H12.0748V16.5C12.076 15.5211 12.3839 14.5672 12.9553 13.7723C13.5266 12.9774 14.3327 12.3815 15.2601 12.0683L16.5772 10.1156C14.9462 10.1554 13.3932 10.8223 12.2411 11.9777C11.5892 12.6268 11.0842 13.4082 10.7601 14.2693C10.7179 14.3475 10.3778 15.0141 10.3592 16.5037V18.7208H9.98676C9.43352 18.7208 8.90287 18.9403 8.5112 19.331C8.11953 19.7218 7.89884 20.2519 7.89752 20.8051V28.1789C7.89884 28.7323 8.11949 29.2625 8.51112 29.6535C8.90276 30.0444 9.43341 30.2641 9.98676 30.2644H23.5116C24.0643 30.2635 24.5941 30.0434 24.9848 29.6524C25.3755 29.2615 25.5952 28.7316 25.5959 28.1789V20.8014C25.5952 20.2488 25.3754 19.7191 24.9847 19.3283C24.5939 18.9376 24.0642 18.7178 23.5116 18.7171ZM23.884 28.1777C23.884 28.2765 23.8448 28.3712 23.7749 28.441C23.7051 28.5109 23.6104 28.5501 23.5116 28.5501H9.98056C9.88179 28.5501 9.78706 28.5109 9.71722 28.441C9.64738 28.3712 9.60814 28.2765 9.60814 28.1777V20.8026C9.60814 20.7039 9.64738 20.6091 9.71722 20.5393C9.78706 20.4695 9.88179 20.4302 9.98056 20.4302H23.5116C23.6104 20.4302 23.7051 20.4695 23.7749 20.5393C23.8448 20.6091 23.884 20.7039 23.884 20.8026V28.1777Z" fill="black"/>
</svg>
