<svg width="36" height="36" viewBox="0 0 36 36" fill="none" xmlns="http://www.w3.org/2000/svg">
<path d="M29.2133 25.3305H27.6504L19.8049 5.61618C19.7346 5.43698 19.6117 5.28324 19.4524 5.17513C19.2931 5.06702 19.1049 5.00959 18.9124 5.01038H17.0875C16.8951 5.00993 16.707 5.06749 16.5478 5.17556C16.3886 5.28363 16.2656 5.43718 16.195 5.61618L8.34946 25.3305H6.78656C6.64751 25.3305 6.51414 25.3857 6.41569 25.4839C6.31725 25.5821 6.26179 25.7153 6.26146 25.8544V26.5322C6.26097 26.6015 6.27418 26.6703 6.30033 26.7345C6.32649 26.7987 6.36507 26.8571 6.41386 26.9063C6.46265 26.9556 6.5207 26.9947 6.58466 27.0215C6.64861 27.0482 6.71723 27.0621 6.78656 27.0623H29.2133C29.3525 27.0619 29.4859 27.0065 29.5843 26.9081C29.6827 26.8097 29.7381 26.6763 29.7384 26.5371V25.8594C29.7389 25.7901 29.7257 25.7214 29.6995 25.6573C29.6734 25.5931 29.6348 25.5348 29.5859 25.4856C29.5371 25.4365 29.4791 25.3975 29.4151 25.3709C29.3512 25.3442 29.2826 25.3305 29.2133 25.3305ZM15.5991 11.7834L17.6077 6.73714H18.3922L20.4008 11.7834H15.5991ZM12.9103 18.5563L14.9188 13.5114H21.0935L23.102 18.5563H12.9103ZM25.797 25.3305H10.209L12.2164 20.2843H23.7835L25.797 25.3305Z" fill="black"/>
</svg>
