<svg width="36" height="36" viewBox="0 0 36 36" fill="none" xmlns="http://www.w3.org/2000/svg">
<path d="M22.9122 14.2673C23.142 14.2673 23.3666 14.1992 23.5577 14.0715C23.7488 13.9438 23.8977 13.7624 23.9857 13.5501C24.0736 13.3377 24.0966 13.1041 24.0518 12.8787C24.0069 12.6533 23.8963 12.4463 23.7338 12.2838C23.5713 12.1213 23.3642 12.0106 23.1389 11.9658C22.9135 11.921 22.6798 11.944 22.4675 12.0319C22.2552 12.1199 22.0737 12.2688 21.9461 12.4599C21.8184 12.651 21.7502 12.8756 21.7502 13.1054C21.7506 13.4135 21.8731 13.7088 22.0909 13.9267C22.3088 14.1445 22.6041 14.267 22.9122 14.2673Z" fill="black"/>
<path d="M28.5616 12.92C28.9201 12.8943 29.2742 12.8264 29.6168 12.7177C29.978 12.6072 29.978 12.4259 29.6168 12.3155C29.2741 12.2073 28.92 12.1394 28.5616 12.1131H27.5946V11.3534H28.5616C28.9201 11.3277 29.2742 11.2598 29.6168 11.1511C29.978 11.0406 29.978 10.8593 29.6168 10.7488C29.2741 10.6407 28.92 10.5728 28.5616 10.5465H27.5946V9.59933C27.5946 9.4425 27.5637 9.28721 27.5037 9.14232C27.4436 8.99744 27.3557 8.86579 27.2448 8.7549C27.1339 8.644 27.0022 8.55604 26.8574 8.49602C26.7125 8.43601 26.5572 8.40512 26.4004 8.40512H25.4482V7.43809C25.4218 7.07972 25.3539 6.72563 25.2459 6.38292C25.1354 6.02292 24.9541 6.02292 24.8437 6.38292C24.735 6.72548 24.6671 7.07964 24.6413 7.43809V8.40512H23.8816V7.43809C23.8552 7.07972 23.7873 6.72563 23.6793 6.38292C23.5688 6.02292 23.3875 6.02292 23.277 6.38292C23.1684 6.72548 23.1005 7.07964 23.0747 7.43809V8.40512H22.3199V7.43809C22.2941 7.07964 22.2262 6.72548 22.1176 6.38292C22.0071 6.02292 21.8259 6.02292 21.7154 6.38292C21.6068 6.72548 21.5388 7.07964 21.513 7.43809V8.40512H20.7533V7.43809C20.7275 7.07964 20.6596 6.72548 20.551 6.38292C20.4405 6.02292 20.2593 6.02292 20.1488 6.38292C20.0401 6.72548 19.9722 7.07964 19.9464 7.43809V8.40512H19.1867V7.43809C19.1609 7.07964 19.093 6.72548 18.9844 6.38292C18.8739 6.02292 18.6926 6.02292 18.5821 6.38292C18.4735 6.72548 18.4056 7.07964 18.3798 7.43809V8.40512H17.6201V7.43809C17.5943 7.07964 17.5264 6.72548 17.4177 6.38292C17.3073 6.02292 17.126 6.02292 17.0155 6.38292C16.9069 6.72548 16.839 7.07964 16.8132 7.43809V8.40512H16.0535V7.43809C16.0277 7.07964 15.9597 6.72548 15.8511 6.38292C15.7406 6.02292 15.5594 6.02292 15.4489 6.38292C15.3403 6.72548 15.2724 7.07964 15.2466 7.43809V8.40512H14.4868V7.43809C14.461 7.07964 14.3931 6.72548 14.2845 6.38292C14.174 6.02292 13.9928 6.02292 13.8823 6.38292C13.7737 6.72548 13.7057 7.07964 13.6799 7.43809V8.40512H12.9202V7.43809C12.8944 7.07964 12.8265 6.72548 12.7179 6.38292C12.6074 6.02292 12.4261 6.02292 12.3157 6.38292C12.2076 6.72563 12.1397 7.07972 12.1133 7.43809V8.40512H11.3536V7.43809C11.3278 7.07964 11.2599 6.72548 11.1513 6.38292C11.0408 6.02292 10.8595 6.02292 10.749 6.38292C10.6427 6.72583 10.5765 7.07992 10.5517 7.43809V8.40512H9.59953C9.2828 8.40512 8.97905 8.53094 8.7551 8.7549C8.53114 8.97885 8.40532 9.28261 8.40532 9.59933V10.5515H7.43829C7.07991 10.5778 6.7258 10.6457 6.38311 10.7538C6.02187 10.8643 6.02187 11.0455 6.38311 11.156C6.72565 11.2648 7.07982 11.3327 7.43829 11.3584H8.40532V12.1181H7.43829C7.07991 12.1444 6.7258 12.2123 6.38311 12.3204C6.02187 12.4309 6.02187 12.6122 6.38311 12.7226C6.72565 12.8314 7.07982 12.8993 7.43829 12.925H8.40532V13.6847H7.43829C7.07982 13.7104 6.72565 13.7783 6.38311 13.8871C6.02187 13.9975 6.02187 14.1788 6.38311 14.2893C6.72565 14.398 7.07982 14.4659 7.43829 14.4916H8.40532V15.2513H7.43829C7.07982 15.277 6.72565 15.3449 6.38311 15.4537C6.02187 15.5642 6.02187 15.7454 6.38311 15.8559C6.72565 15.9646 7.07982 16.0325 7.43829 16.0582H8.40532V16.8179H7.43829C7.07982 16.8436 6.72565 16.9116 6.38311 17.0203C6.02187 17.1308 6.02187 17.312 6.38311 17.4225C6.72565 17.5312 7.07982 17.5992 7.43829 17.6248H8.40532V18.3846H7.43829C7.07982 18.4103 6.72565 18.4782 6.38311 18.5869C6.02187 18.6974 6.02187 18.8786 6.38311 18.9891C6.72565 19.0979 7.07982 19.1658 7.43829 19.1915H8.40532V19.9512H7.43829C7.07982 19.9769 6.72565 20.0448 6.38311 20.1535C6.02187 20.264 6.02187 20.4453 6.38311 20.5557C6.72565 20.6645 7.07982 20.7324 7.43829 20.7581H8.40532V21.5178H7.43829C7.07982 21.5435 6.72565 21.6114 6.38311 21.7202C6.02187 21.8306 6.02187 22.0119 6.38311 22.1224C6.72565 22.2311 7.07982 22.299 7.43829 22.3247H8.40532V23.0844H7.43829C7.07982 23.1101 6.72565 23.178 6.38311 23.2868C6.02187 23.3973 6.02187 23.5785 6.38311 23.689C6.72567 23.7974 7.07986 23.8649 7.43829 23.8901H8.40532V24.6511H7.43829C7.07982 24.6767 6.72565 24.7447 6.38311 24.8534C6.02187 24.9639 6.02187 25.1451 6.38311 25.2556C6.72583 25.3634 7.07994 25.4309 7.43829 25.4567H8.40532V26.4051C8.40532 26.7218 8.53114 27.0256 8.7551 27.2495C8.97905 27.4735 9.2828 27.5993 9.59953 27.5993H10.5517V28.5664C10.578 28.9247 10.6459 29.2788 10.754 29.6215C10.8645 29.9828 11.0457 29.9828 11.1562 29.6215C11.265 29.279 11.3329 28.9248 11.3586 28.5664V27.5993H12.1183V28.5664C12.1446 28.9247 12.2125 29.2788 12.3206 29.6215C12.4311 29.9828 12.6124 29.9828 12.7228 29.6215C12.8316 29.279 12.8995 28.9248 12.9252 28.5664V27.5993H13.6849V28.5664C13.7106 28.9248 13.7785 29.279 13.8873 29.6215C13.9977 29.9828 14.179 29.9828 14.2895 29.6215C14.3982 29.279 14.4661 28.9248 14.4918 28.5664V27.5993H15.2515V28.5664C15.2772 28.9248 15.3451 29.279 15.4539 29.6215C15.5644 29.9828 15.7456 29.9828 15.8561 29.6215C15.9648 29.279 16.0327 28.9248 16.0584 28.5664V27.5993H16.8181V28.5664C16.8438 28.9248 16.9118 29.279 17.0205 29.6215C17.131 29.9828 17.3122 29.9828 17.4227 29.6215C17.5314 29.279 17.5994 28.9248 17.625 28.5664V27.5993H18.3848V28.5664C18.4105 28.9248 18.4784 29.279 18.5871 29.6215C18.6976 29.9828 18.8788 29.9828 18.9893 29.6215C19.0981 29.279 19.166 28.9248 19.1917 28.5664V27.5993H19.9514V28.5664C19.9771 28.9248 20.045 29.279 20.1537 29.6215C20.2642 29.9828 20.4455 29.9828 20.5559 29.6215C20.6647 29.279 20.7326 28.9248 20.7583 28.5664V27.5993H21.518V28.5664C21.5437 28.9248 21.6116 29.279 21.7204 29.6215C21.8308 29.9828 22.0121 29.9828 22.1226 29.6215C22.2313 29.279 22.2992 28.9248 22.3249 28.5664V27.5993H23.0846V28.5664C23.1103 28.9248 23.1782 29.279 23.287 29.6215C23.3975 29.9828 23.5787 29.9828 23.6892 29.6215C23.7973 29.2788 23.8652 28.9247 23.8915 28.5664V27.5993H24.6513V28.5664C24.6769 28.9248 24.7449 29.279 24.8536 29.6215C24.9641 29.9828 25.1453 29.9828 25.2558 29.6215C25.3639 29.2788 25.4318 28.9247 25.4581 28.5664V27.5993H26.4053C26.722 27.5993 27.0258 27.4735 27.2498 27.2495C27.4737 27.0256 27.5995 26.7218 27.5995 26.4051V25.448H28.5666C28.9249 25.4222 29.279 25.3547 29.6217 25.2469C29.983 25.1364 29.983 24.9552 29.6217 24.8447C29.2792 24.736 28.925 24.668 28.5666 24.6424H27.5995V23.8814H28.5666C28.925 23.8562 29.2792 23.7887 29.6217 23.6803C29.983 23.5698 29.983 23.3886 29.6217 23.2781C29.2792 23.1693 28.925 23.1014 28.5666 23.0757H27.5995V22.3197H28.5666C28.925 22.2941 29.2792 22.2261 29.6217 22.1174C29.983 22.0069 29.983 21.8257 29.6217 21.7152C29.2792 21.6064 28.925 21.5385 28.5666 21.5128H27.5995V20.7531H28.5666C28.925 20.7274 29.2792 20.6595 29.6217 20.5508C29.983 20.4403 29.983 20.2591 29.6217 20.1486C29.2792 20.0398 28.925 19.9719 28.5666 19.9462H27.5995V19.1865H28.5666C28.925 19.1608 29.2792 19.0929 29.6217 18.9842C29.983 18.8737 29.983 18.6924 29.6217 18.5819C29.2792 18.4732 28.925 18.4053 28.5666 18.3796H27.5995V17.6199H28.5666C28.925 17.5942 29.2792 17.5263 29.6217 17.4175C29.983 17.3071 29.983 17.1258 29.6217 17.0153C29.2792 16.9066 28.925 16.8387 28.5666 16.813H27.5995V16.0533H28.5666C28.925 16.0276 29.2792 15.9597 29.6217 15.8509C29.983 15.7404 29.983 15.5592 29.6217 15.4487C29.2792 15.34 28.925 15.272 28.5666 15.2464H27.5995V14.4866H28.5666C28.925 14.461 29.2792 14.393 29.6217 14.2843C29.983 14.1738 29.983 13.9926 29.6217 13.8821C29.2792 13.7733 28.925 13.7054 28.5666 13.6797H27.5995V12.92H28.5616ZM25.8616 25.8614H10.1383V10.1381H25.8616V25.8614Z" fill="black"/>
</svg>
