<svg width="36" height="36" viewBox="0 0 36 36" fill="none" xmlns="http://www.w3.org/2000/svg">
<path d="M11.4207 18.3785C11.5089 18.5208 11.6499 18.6223 11.8128 18.6607C11.9758 18.6991 12.1473 18.6713 12.2897 18.5833L21.209 13.0691L21.0253 14.1206C20.9869 14.2842 21.015 14.4564 21.1034 14.5993C21.1919 14.7422 21.3334 14.8441 21.497 14.8828L21.9712 14.9958C22.135 15.0342 22.3073 15.0061 22.4504 14.9177C22.5935 14.8292 22.6957 14.6877 22.7346 14.524L23.4621 11.1847C23.5005 11.0211 23.4723 10.8489 23.3839 10.706C23.2955 10.5631 23.1539 10.4612 22.9904 10.4225L19.6734 9.56596C19.5098 9.52758 19.3376 9.5557 19.1947 9.64414C19.0518 9.73259 18.9498 9.87412 18.9112 10.0377L18.7995 10.5131C18.7611 10.6768 18.7892 10.8489 18.8777 10.9918C18.9661 11.1347 19.1076 11.2367 19.2712 11.2753L20.2928 11.5807L11.3711 17.0962C11.2293 17.1848 11.1283 17.3258 11.0899 17.4885C11.0515 17.6512 11.079 17.8225 11.1662 17.9651L11.4207 18.3785Z" fill="black"/>
<path d="M29.3251 25.8591H7.90634V8.90804C7.90471 8.7839 7.85434 8.66537 7.76608 8.57805C7.67783 8.49072 7.55877 8.4416 7.43462 8.44128H6.67489C6.55148 8.44288 6.43356 8.49254 6.34617 8.57969C6.25879 8.66685 6.20882 8.78464 6.20689 8.90804V26.7119C6.20722 26.938 6.29718 27.1547 6.45704 27.3146C6.61691 27.4744 6.83364 27.5644 7.05972 27.5647H29.3301C29.4554 27.5644 29.5755 27.5145 29.6641 27.4258C29.7528 27.3372 29.8027 27.2171 29.803 27.0918V26.332C29.8029 26.2696 29.7904 26.2077 29.7662 26.1501C29.7421 26.0925 29.7068 26.0402 29.6624 25.9962C29.618 25.9523 29.5653 25.9175 29.5074 25.894C29.4496 25.8704 29.3876 25.8586 29.3251 25.8591Z" fill="black"/>
<path d="M25.8406 14.781H25.0808C24.8196 14.781 24.6079 14.9928 24.6079 15.254V22.7134C24.6079 22.9746 24.8196 23.1864 25.0808 23.1864H25.8406C26.1018 23.1864 26.3135 22.9746 26.3135 22.7134V15.254C26.3135 14.9928 26.1018 14.781 25.8406 14.781Z" fill="black"/>
<path d="M21.2834 17.1036H20.5237C20.2625 17.1036 20.0508 17.3154 20.0508 17.5766V22.7134C20.0508 22.9746 20.2625 23.1864 20.5237 23.1864H21.2834C21.5447 23.1864 21.7564 22.9746 21.7564 22.7134V17.5766C21.7564 17.3154 21.5447 17.1036 21.2834 17.1036Z" fill="black"/>
<path d="M12.1693 20.9458H11.4095C11.1483 20.9458 10.9366 21.1576 10.9366 21.4188V22.7135C10.9366 22.9747 11.1483 23.1865 11.4095 23.1865H12.1693C12.4305 23.1865 12.6422 22.9747 12.6422 22.7135V21.4188C12.6422 21.1576 12.4305 20.9458 12.1693 20.9458Z" fill="black"/>
<path d="M16.7263 19.6063H15.9666C15.7053 19.6063 15.4936 19.8181 15.4936 20.0793V22.7123C15.4936 22.9735 15.7053 23.1852 15.9666 23.1852H16.7263C16.9875 23.1852 17.1992 22.9735 17.1992 22.7123V20.0793C17.1992 19.8181 16.9875 19.6063 16.7263 19.6063Z" fill="black"/>
</svg>
