<svg width="36" height="36" viewBox="0 0 36 36" fill="none" xmlns="http://www.w3.org/2000/svg">
<path d="M22.9582 11.9969H13.0421C12.765 11.9973 12.4993 12.1075 12.3033 12.3035C12.1074 12.4994 11.9972 12.7651 11.9968 13.0422V22.9583C11.9968 23.2355 12.1069 23.5014 12.303 23.6974C12.499 23.8934 12.7649 24.0036 13.0421 24.0036H22.9582C23.2353 24.0032 23.501 23.893 23.6969 23.6971C23.8929 23.5011 24.0031 23.2354 24.0034 22.9583V13.0422C24.0031 12.7651 23.8929 12.4994 23.6969 12.3035C23.501 12.1075 23.2353 11.9973 22.9582 11.9969ZM22.2978 22.3004H13.7025V13.7026H22.2978V22.3004Z" fill="black"/>
<path d="M18 8.82617C17.819 8.8265 17.6455 8.89854 17.5175 9.02651C17.3896 9.15448 17.3175 9.32795 17.3172 9.50893V10.6535C17.3172 10.8346 17.3891 11.0082 17.5172 11.1363C17.6452 11.2643 17.8189 11.3362 18 11.3362C18.181 11.3362 18.3547 11.2643 18.4827 11.1363C18.6108 11.0082 18.6827 10.8346 18.6827 10.6535V9.50893C18.6824 9.32795 18.6104 9.15448 18.4824 9.02651C18.3544 8.89854 18.1809 8.8265 18 8.82617Z" fill="black"/>
<path d="M19.8037 8.82617C19.6227 8.8265 19.4493 8.89854 19.3213 9.02651C19.1933 9.15448 19.1213 9.32795 19.121 9.50893V10.6535C19.121 10.8346 19.1929 11.0082 19.3209 11.1363C19.449 11.2643 19.6226 11.3362 19.8037 11.3362C19.9848 11.3362 20.1585 11.2643 20.2865 11.1363C20.4145 11.0082 20.4865 10.8346 20.4865 10.6535V9.50893C20.4861 9.32795 20.4141 9.15448 20.2861 9.02651C20.1582 8.89854 19.9847 8.8265 19.8037 8.82617Z" fill="black"/>
<path d="M16.1963 8.82617C16.0153 8.8265 15.8419 8.89854 15.7139 9.02651C15.5859 9.15448 15.5139 9.32795 15.5135 9.50893V10.6535C15.5135 10.8346 15.5855 11.0082 15.7135 11.1363C15.8416 11.2643 16.0152 11.3362 16.1963 11.3362C16.3774 11.3362 16.551 11.2643 16.6791 11.1363C16.8071 11.0082 16.8791 10.8346 16.8791 10.6535V9.50893C16.8787 9.32795 16.8067 9.15448 16.6787 9.02651C16.5508 8.89854 16.3773 8.8265 16.1963 8.82617Z" fill="black"/>
<path d="M18 24.6635C17.8189 24.6635 17.6452 24.7354 17.5172 24.8634C17.3891 24.9915 17.3172 25.1651 17.3172 25.3462V26.4908C17.3172 26.6718 17.3891 26.8455 17.5172 26.9735C17.6452 27.1016 17.8189 27.1735 18 27.1735C18.181 27.1735 18.3547 27.1016 18.4827 26.9735C18.6108 26.8455 18.6827 26.6718 18.6827 26.4908V25.3462C18.6827 25.1651 18.6108 24.9915 18.4827 24.8634C18.3547 24.7354 18.181 24.6635 18 24.6635Z" fill="black"/>
<path d="M19.8037 24.6635C19.6226 24.6635 19.449 24.7354 19.3209 24.8634C19.1929 24.9915 19.121 25.1651 19.121 25.3462V26.4908C19.121 26.6718 19.1929 26.8455 19.3209 26.9735C19.449 27.1016 19.6226 27.1735 19.8037 27.1735C19.9848 27.1735 20.1585 27.1016 20.2865 26.9735C20.4145 26.8455 20.4865 26.6718 20.4865 26.4908V25.3462C20.4865 25.1651 20.4145 24.9915 20.2865 24.8634C20.1585 24.7354 19.9848 24.6635 19.8037 24.6635Z" fill="black"/>
<path d="M16.1963 24.6635C16.0152 24.6635 15.8416 24.7354 15.7135 24.8634C15.5855 24.9915 15.5135 25.1651 15.5135 25.3462V26.4908C15.5135 26.6718 15.5855 26.8455 15.7135 26.9735C15.8416 27.1016 16.0152 27.1735 16.1963 27.1735C16.3774 27.1735 16.551 27.1016 16.6791 26.9735C16.8071 26.8455 16.8791 26.6718 16.8791 26.4908V25.3462C16.8791 25.1651 16.8071 24.9915 16.6791 24.8634C16.551 24.7354 16.3774 24.6635 16.1963 24.6635Z" fill="black"/>
<path d="M10.6534 17.3173H9.50881C9.32773 17.3173 9.15407 17.3892 9.02603 17.5172C8.89798 17.6453 8.82605 17.8189 8.82605 18C8.82605 18.1811 8.89798 18.3548 9.02603 18.4828C9.15407 18.6108 9.32773 18.6828 9.50881 18.6828H10.6534C10.8344 18.6828 11.0081 18.6108 11.1361 18.4828C11.2642 18.3548 11.3361 18.1811 11.3361 18C11.3361 17.8189 11.2642 17.6453 11.1361 17.5172C11.0081 17.3892 10.8344 17.3173 10.6534 17.3173Z" fill="black"/>
<path d="M10.6534 15.5172H9.50881C9.32773 15.5172 9.15407 15.5891 9.02603 15.7172C8.89798 15.8452 8.82605 16.0189 8.82605 16.2C8.82605 16.3811 8.89798 16.5547 9.02603 16.6828C9.15407 16.8108 9.32773 16.8827 9.50881 16.8827H10.6534C10.8344 16.8827 11.0081 16.8108 11.1361 16.6828C11.2642 16.5547 11.3361 16.3811 11.3361 16.2C11.3361 16.0189 11.2642 15.8452 11.1361 15.7172C11.0081 15.5891 10.8344 15.5172 10.6534 15.5172Z" fill="black"/>
<path d="M10.6534 19.1172H9.50881C9.32773 19.1172 9.15407 19.1891 9.02603 19.3172C8.89798 19.4452 8.82605 19.6189 8.82605 19.7999C8.82605 19.981 8.89798 20.1547 9.02603 20.2827C9.15407 20.4108 9.32773 20.4827 9.50881 20.4827H10.6534C10.8344 20.4827 11.0081 20.4108 11.1361 20.2827C11.2642 20.1547 11.3361 19.981 11.3361 19.7999C11.3361 19.6189 11.2642 19.4452 11.1361 19.3172C11.0081 19.1891 10.8344 19.1172 10.6534 19.1172Z" fill="black"/>
<path d="M26.4911 17.3173H25.3466C25.1655 17.3173 24.9918 17.3892 24.8638 17.5172C24.7358 17.6453 24.6638 17.8189 24.6638 18C24.6638 18.1811 24.7358 18.3548 24.8638 18.4828C24.9918 18.6108 25.1655 18.6828 25.3466 18.6828H26.4911C26.6722 18.6828 26.8459 18.6108 26.9739 18.4828C27.102 18.3548 27.1739 18.1811 27.1739 18C27.1739 17.8189 27.102 17.6453 26.9739 17.5172C26.8459 17.3892 26.6722 17.3173 26.4911 17.3173Z" fill="black"/>
<path d="M25.3466 16.8827H26.4911C26.6722 16.8827 26.8459 16.8108 26.9739 16.6828C27.102 16.5547 27.1739 16.3811 27.1739 16.2C27.1739 16.0189 27.102 15.8452 26.9739 15.7172C26.8459 15.5891 26.6722 15.5172 26.4911 15.5172H25.3466C25.1655 15.5172 24.9918 15.5891 24.8638 15.7172C24.7358 15.8452 24.6638 16.0189 24.6638 16.2C24.6638 16.3811 24.7358 16.5547 24.8638 16.6828C24.9918 16.8108 25.1655 16.8827 25.3466 16.8827Z" fill="black"/>
<path d="M26.4911 19.1172H25.3466C25.1655 19.1172 24.9918 19.1891 24.8638 19.3172C24.7358 19.4452 24.6638 19.6189 24.6638 19.7999C24.6638 19.981 24.7358 20.1547 24.8638 20.2827C24.9918 20.4108 25.1655 20.4827 25.3466 20.4827H26.4911C26.6722 20.4827 26.8459 20.4108 26.9739 20.2827C27.102 20.1547 27.1739 19.981 27.1739 19.7999C27.1739 19.6189 27.102 19.4452 26.9739 19.3172C26.8459 19.1891 26.6722 19.1172 26.4911 19.1172Z" fill="black"/>
<path d="M33.9778 17.4699L31.911 15.393C31.7697 15.2519 31.5781 15.1726 31.3784 15.1726C31.1787 15.1726 30.9872 15.2519 30.8459 15.393L30.6944 15.5432C30.5536 15.6847 30.4745 15.8762 30.4745 16.0758C30.4745 16.2754 30.5536 16.4669 30.6944 16.6084L31.2232 17.1372H29.2631C29.0636 17.1372 28.8722 17.2164 28.7312 17.3575C28.5901 17.4986 28.5108 17.6899 28.5108 17.8895V18.1005C28.5108 18.3 28.5901 18.4914 28.7312 18.6324C28.8722 18.7735 29.0636 18.8528 29.2631 18.8528H31.2232L30.6944 19.3816C30.5536 19.523 30.4745 19.7145 30.4745 19.9141C30.4745 20.1138 30.5536 20.3052 30.6944 20.4467L30.8459 20.5969C30.9157 20.6669 30.9987 20.7225 31.0901 20.7604C31.1815 20.7983 31.2795 20.8179 31.3784 20.8179C31.4773 20.8179 31.5753 20.7983 31.6667 20.7604C31.7581 20.7225 31.8411 20.6669 31.911 20.5969L33.9778 18.53C34.0479 18.4601 34.1035 18.3771 34.1414 18.2857C34.1793 18.1944 34.1988 18.0964 34.1988 17.9975C34.1988 17.8985 34.1793 17.8006 34.1414 17.7092C34.1035 17.6178 34.0479 17.5348 33.9778 17.4649V17.4699Z" fill="black"/>
<path d="M6.7371 17.1421H4.77696L5.30579 16.6133C5.44664 16.4719 5.52571 16.2804 5.52571 16.0808C5.52571 15.8812 5.44664 15.6897 5.30579 15.5482L5.15434 15.393C5.01305 15.2519 4.8215 15.1726 4.62179 15.1726C4.42207 15.1726 4.23053 15.2519 4.08924 15.393L2.02234 17.4699C1.9523 17.5397 1.89673 17.6228 1.85882 17.7141C1.82091 17.8055 1.80139 17.9035 1.80139 18.0024C1.80139 18.1014 1.82091 18.1993 1.85882 18.2907C1.89673 18.3821 1.9523 18.4651 2.02234 18.535L4.08924 20.6068C4.23069 20.7477 4.42217 20.8268 4.62179 20.8268C4.8214 20.8268 5.01289 20.7477 5.15434 20.6068L5.30579 20.4554C5.44664 20.3139 5.52571 20.1225 5.52571 19.9228C5.52571 19.7232 5.44664 19.5317 5.30579 19.3903L4.77696 18.8627H6.7371C6.93673 18.8624 7.12807 18.7828 7.26911 18.6416C7.41016 18.5003 7.48938 18.3088 7.48938 18.1092V17.8981C7.4897 17.7991 7.47049 17.7009 7.43285 17.6093C7.39521 17.5177 7.33987 17.4344 7.26999 17.3642C7.20012 17.2939 7.11709 17.2382 7.02565 17.2001C6.93421 17.162 6.83616 17.1423 6.7371 17.1421Z" fill="black"/>
<path d="M20.4516 30.6944C20.3102 30.5536 20.1187 30.4745 19.9191 30.4745C19.7195 30.4745 19.528 30.5536 19.3865 30.6944L18.8577 31.2233V29.2631C18.8577 29.0636 18.7784 28.8723 18.6374 28.7312C18.4963 28.5901 18.3049 28.5109 18.1054 28.5109H17.8944C17.6949 28.5109 17.5035 28.5901 17.3624 28.7312C17.2214 28.8723 17.1421 29.0636 17.1421 29.2631V31.2233L16.6133 30.6944C16.4718 30.5536 16.2803 30.4745 16.0807 30.4745C15.8811 30.4745 15.6896 30.5536 15.5482 30.6944L15.393 30.8459C15.323 30.9158 15.2674 30.9988 15.2295 31.0902C15.1916 31.1815 15.1721 31.2795 15.1721 31.3784C15.1721 31.4774 15.1916 31.5753 15.2295 31.6667C15.2674 31.7581 15.323 31.8411 15.393 31.911L17.4599 33.9779C17.5298 34.0479 17.6128 34.1035 17.7042 34.1414C17.7956 34.1793 17.8935 34.1988 17.9925 34.1988C18.0914 34.1988 18.1894 34.1793 18.2807 34.1414C18.3721 34.1035 18.4551 34.0479 18.525 33.9779L20.6068 31.911C20.7479 31.7697 20.8272 31.5782 20.8272 31.3784C20.8272 31.1787 20.7479 30.9872 20.6068 30.8459L20.4516 30.6944Z" fill="black"/>
<path d="M15.5482 5.30591C15.6896 5.44676 15.8811 5.52583 16.0807 5.52583C16.2803 5.52583 16.4718 5.44676 16.6133 5.30591L17.1421 4.77708V6.73722C17.1421 6.93674 17.2214 7.12808 17.3624 7.26916C17.5035 7.41024 17.6949 7.4895 17.8944 7.4895H18.1054C18.3048 7.48917 18.496 7.40981 18.637 7.2688C18.778 7.12779 18.8574 6.93664 18.8577 6.73722V4.77708L19.3865 5.30591C19.528 5.44676 19.7195 5.52583 19.9191 5.52583C20.1187 5.52583 20.3102 5.44676 20.4516 5.30591L20.6068 5.15446C20.7479 5.01317 20.8272 4.82163 20.8272 4.62191C20.8272 4.4222 20.7479 4.23065 20.6068 4.08936L18.53 2.02246C18.4601 1.95242 18.3771 1.89686 18.2857 1.85894C18.1943 1.82103 18.0964 1.80151 17.9974 1.80151C17.8985 1.80151 17.8005 1.82103 17.7091 1.85894C17.6177 1.89686 17.5347 1.95242 17.4649 2.02246L15.393 4.08936C15.323 4.15924 15.2674 4.24224 15.2295 4.33363C15.1916 4.42501 15.1721 4.52298 15.1721 4.62191C15.1721 4.72085 15.1916 4.81881 15.2295 4.91019C15.2674 5.00158 15.323 5.08459 15.393 5.15446L15.5482 5.30591Z" fill="black"/>
</svg>
