<svg width="36" height="36" viewBox="0 0 36 36" fill="none" xmlns="http://www.w3.org/2000/svg">
<path d="M18.1424 4.12085C10.5034 4.12085 4.27814 10.3526 4.27814 17.9995C4.27814 25.6464 10.5034 31.8781 18.1424 31.8781C25.7814 31.8781 32.0067 25.6464 32.0067 17.9995C32.0067 10.3526 25.7814 4.12085 18.1424 4.12085ZM24.0081 17.1305L28.088 11.0602C28.46 11.594 28.7948 12.1526 29.0677 12.7484L26.0914 17.1305H24.0081ZM29.8241 14.7347C30.035 15.5043 30.1837 16.2988 30.2333 17.1305H28.1996L29.8241 14.7347ZM26.9347 9.64499L21.9123 17.1181H19.6925L25.6698 8.4781C26.1162 8.85052 26.5503 9.23533 26.9347 9.64499ZM19.0105 8.97466V5.88361C19.6553 5.93327 20.2878 6.02016 20.9079 6.16913L19.0105 8.97466ZM22.6316 6.71533C23.1896 6.93878 23.7229 7.19947 24.2437 7.50982L19.0105 15.0698V12.0905L22.6316 6.71533ZM18.1424 30.1402C11.4583 30.1402 6.01427 24.6905 6.01427 17.9995C6.01427 11.594 10.987 6.33051 17.2743 5.89602V18.8685H26.9595L27.0091 18.8933L27.0339 18.8685H30.2582C29.7869 25.1498 24.5289 30.1402 18.1424 30.1402Z" fill="black"/>
</svg>
