<svg width="36" height="36" viewBox="0 0 36 36" fill="none" xmlns="http://www.w3.org/2000/svg">
<path fill-rule="evenodd" clip-rule="evenodd" d="M30 18C30 18.4219 29.625 18.75 29.25 18.75H27V21.75H29.25C29.625 21.75 30 22.125 30 22.5C30 22.9219 29.625 23.25 29.25 23.25H27V24C27 25.6875 25.6406 27 24 27H23.25V29.25C23.25 29.6719 22.875 30 22.5 30C22.0781 30 21.75 29.6719 21.75 29.25V27H18.75V29.25C18.75 29.6719 18.375 30 18 30C17.5781 30 17.25 29.6719 17.25 29.25V27H14.25V29.25C14.25 29.6719 13.875 30 13.5 30C13.0781 30 12.75 29.6719 12.75 29.25V27H12C10.3125 27 9 25.6875 9 24V23.25H6.75C6.32812 23.25 6 22.9219 6 22.5C6 22.125 6.32812 21.75 6.75 21.75H9V18.75H6.75C6.32812 18.75 6 18.4219 6 18C6 17.625 6.32812 17.25 6.75 17.25H9V14.25H6.75C6.32812 14.25 6 13.9219 6 13.5C6 13.125 6.32812 12.75 6.75 12.75H9V12C9 10.3594 10.3125 9 12 9H12.75V6.75C12.75 6.375 13.0781 6 13.5 6C13.875 6 14.25 6.375 14.25 6.75V9H17.25V6.75C17.25 6.375 17.5781 6 18 6C18.375 6 18.75 6.375 18.75 6.75V9H21.75V6.75C21.75 6.375 22.0781 6 22.5 6C22.875 6 23.25 6.375 23.25 6.75V9H24C25.6406 9 27 10.3594 27 12V12.75H29.25C29.625 12.75 30 13.125 30 13.5C30 13.9219 29.625 14.25 29.25 14.25H27V17.25H29.25C29.625 17.25 30 17.625 30 18ZM24 25.5C24.7969 25.5 25.5 24.8438 25.5 24V12C25.5 11.2031 24.7969 10.5 24 10.5H12C11.1562 10.5 10.5 11.2031 10.5 12V20.3766L13.2828 17.351C13.4219 17.1986 13.6107 17.1006 13.8154 17.0747C14.0201 17.0488 14.2274 17.0965 14.4001 17.2094L17.2304 19.0541L20.8304 15.5783H19.2328C19.0906 15.5779 18.9544 15.5213 18.8539 15.4208C18.7534 15.3203 18.6968 15.1841 18.6965 15.042V14.3766C18.6968 14.2345 18.7534 14.0983 18.8539 13.9978C18.9544 13.8973 19.0906 13.8407 19.2328 13.8403H22.9495C23.1799 13.8403 23.401 13.9319 23.5639 14.0948C23.7269 14.2578 23.8184 14.4788 23.8184 14.7093V18.3329C23.8181 18.475 23.7615 18.6112 23.661 18.7117C23.5605 18.8122 23.4243 18.8688 23.2822 18.8692H22.6168C22.4746 18.8688 22.3384 18.8122 22.2379 18.7117C22.1374 18.6112 22.0808 18.475 22.0805 18.3329V16.7874L17.9355 20.7784C17.7942 20.9146 17.6108 20.999 17.4154 21.0177C17.2199 21.0364 17.0239 20.9884 16.8593 20.8814L14.0649 19.0678L10.5 22.9449V24C10.5 24.8438 11.1562 25.5 12 25.5H24Z" fill="black"/>
</svg>
