<svg width="36" height="36" viewBox="0 0 36 36" fill="none" xmlns="http://www.w3.org/2000/svg">
<path d="M18 4.59308C15.3484 4.59308 12.7563 5.37938 10.5516 6.85255C8.34682 8.32572 6.62842 10.4196 5.61368 12.8694C4.59895 15.3192 4.33345 18.0148 4.85076 20.6155C5.36806 23.2162 6.64495 25.6051 8.51993 27.4801C10.3949 29.3551 12.7838 30.632 15.3845 31.1493C17.9852 31.6666 20.6808 31.4011 23.1306 30.3863C25.5804 29.3716 27.6743 27.6532 29.1475 25.4484C30.6206 23.2437 31.4069 20.6516 31.4069 18C31.4069 14.4442 29.9944 11.0341 27.4802 8.51987C24.9659 6.00559 21.5558 4.59308 18 4.59308ZM18 6.32356C21.0958 6.32685 24.0638 7.55809 26.2529 9.74713C28.4419 11.9362 29.6732 14.9042 29.6765 18H23.9661C23.7654 17.0242 23.2344 16.1474 22.4626 15.5174C21.6909 14.8874 20.7255 14.5428 19.7293 14.5415H16.2696C15.2733 14.5428 14.308 14.8874 13.5362 15.5174C12.7645 16.1474 12.2335 17.0242 12.0327 18H6.32239C6.32567 14.904 7.55709 11.9358 9.7464 9.7467C11.9357 7.55762 14.9041 6.32652 18 6.32356ZM17.6947 22.5248L14.045 18.8764C13.9236 18.753 13.8407 18.5969 13.8065 18.4271C13.7723 18.2574 13.7884 18.0813 13.8526 17.9205C14.0439 17.435 14.3766 17.0181 14.8075 16.7238C15.2384 16.4294 15.7477 16.2712 16.2696 16.2695H19.7305C20.2524 16.2712 20.7617 16.4294 21.1926 16.7238C21.6235 17.0181 21.9562 17.435 22.1475 17.9205C22.2117 18.0813 22.2277 18.2574 22.1936 18.4271C22.1594 18.5969 22.0765 18.753 21.9551 18.8764L18.3054 22.5248C18.2244 22.6058 18.1146 22.6512 18 22.6512C17.8855 22.6512 17.7757 22.6058 17.6947 22.5248ZM6.46639 19.7292H12.4511L17.1311 24.4117V29.6329C14.4943 29.4337 12.0031 28.3456 10.0651 26.5465C8.12716 24.7474 6.85708 22.344 6.46266 19.7292H6.46639ZM18.869 29.6329V24.4117L23.5527 19.7292H29.5374C29.143 22.344 27.8729 24.7474 25.9349 26.5465C23.997 28.3456 21.5058 29.4337 18.869 29.6329Z" fill="black"/>
</svg>
