<svg width="36" height="36" viewBox="0 0 36 36" fill="none" xmlns="http://www.w3.org/2000/svg">
<path d="M24.4765 4.99534H23.9241V4.39947C23.9237 4.17821 23.8358 3.96609 23.6794 3.80952C23.5231 3.65295 23.3111 3.56468 23.0898 3.56403H19.3881C19.1666 3.56435 18.9543 3.65248 18.7977 3.80909C18.6411 3.96569 18.5529 4.178 18.5526 4.39947V4.99534H17.4478V4.39947C17.4475 4.178 17.3593 3.96569 17.2027 3.80909C17.0461 3.65248 16.8338 3.56435 16.6123 3.56403H12.9105C12.6891 3.56435 12.4768 3.65248 12.3202 3.80909C12.1636 3.96569 12.0754 4.178 12.0751 4.39947V4.99534H11.5239C11.1799 4.99599 10.8501 5.13305 10.6069 5.37645C10.3638 5.61986 10.227 5.94975 10.2267 6.29382V14.7551C10.227 15.099 10.3638 15.4288 10.607 15.672C10.8502 15.9152 11.18 16.052 11.5239 16.0523H24.4765C24.8204 16.052 25.1502 15.9152 25.3934 15.672C25.6366 15.4288 25.7734 15.099 25.7737 14.7551V6.29382C25.7734 5.94975 25.6366 5.61986 25.3935 5.37645C25.1503 5.13305 24.8205 4.99599 24.4765 4.99534ZM24.1041 6.66623V14.3826H11.8963V6.66623H24.1041Z" fill="black"/>
<path d="M24.4765 20.1277H23.9241V19.5318C23.9237 19.3103 23.8356 19.098 23.679 18.9414C23.5224 18.7848 23.3101 18.6967 23.0886 18.6964H19.3881C19.1666 18.6967 18.9543 18.7848 18.7977 18.9414C18.6411 19.098 18.5529 19.3103 18.5526 19.5318V20.1277H17.4478V19.5318C17.4475 19.3103 17.3593 19.098 17.2027 18.9414C17.0461 18.7848 16.8338 18.6967 16.6123 18.6964H12.9105C12.6891 18.6967 12.4768 18.7848 12.3202 18.9414C12.1636 19.098 12.0754 19.3103 12.0751 19.5318V20.1277H11.5239C11.18 20.128 10.8502 20.2648 10.607 20.508C10.3638 20.7512 10.227 21.081 10.2267 21.4249V29.8874C10.227 30.2313 10.3638 30.5611 10.607 30.8043C10.8502 31.0475 11.18 31.1843 11.5239 31.1846H24.4765C24.8204 31.1843 25.1502 31.0475 25.3934 30.8043C25.6366 30.5611 25.7734 30.2313 25.7737 29.8874V21.4249C25.7734 21.081 25.6366 20.7512 25.3934 20.508C25.1502 20.2648 24.8204 20.128 24.4765 20.1277ZM24.1041 21.7973V29.515H11.8963V21.7973H24.1041Z" fill="black"/>
<path d="M14.5687 8.3385H15.5953V12.0502H17.5033V12.9974H14.5687V8.3385Z" fill="black"/>
<path d="M17.3258 8.3385H18.4965L19.6485 11.3923H19.6609L20.8327 8.3385H21.9314L20.0097 12.9974H19.1879L17.3258 8.3385Z" fill="black"/>
<path d="M13.4963 23.4485H14.5242V25.1865H16.5178V23.4485H17.5445V28.1074H16.5178V26.0939H14.5242V28.1074H13.4976L13.4963 23.4485Z" fill="black"/>
<path d="M18.3589 23.4485H19.5295L20.6815 26.5011H20.6939L21.8658 23.4485H22.9657L21.044 28.1074H20.2222L18.3589 23.4485Z" fill="black"/>
</svg>
