<svg width="36" height="36" viewBox="0 0 36 36" fill="none" xmlns="http://www.w3.org/2000/svg">
<path d="M31.978 10.7256C31.9531 10.2663 31.7545 9.83184 31.4318 9.49667C31.109 9.1615 30.6869 8.9753 30.2152 8.9753C29.7559 8.96289 29.3214 9.13667 28.9863 9.45943L28.8 9.64563L27.5835 8.4415V7.57254C27.5835 6.24427 26.5035 5.15186 25.1628 5.15186H18.6456H17.8387H11.3214C9.98076 5.15186 8.90076 6.24427 8.90076 7.57254V27.6952C8.90076 29.0359 9.98076 30.1159 11.3214 30.1159H17.8387H18.6456H25.1628C26.5035 30.1159 27.5835 29.0359 27.5835 27.6952V16.4732L31.0842 12.9601L31.0966 12.9477C31.2828 12.7367 31.3325 12.4387 31.2331 12.178L31.4814 11.9298C31.7918 11.607 31.9656 11.1849 31.978 10.738V10.7256ZM25.8456 27.6952C25.8456 28.0677 25.5476 28.3656 25.1752 28.3656H18.658H17.8511H11.3339C10.9614 28.3656 10.6635 28.0677 10.6635 27.6952V7.57254C10.6635 7.20013 10.9614 6.90219 11.3339 6.90219H17.8511H18.658H25.1752C25.5476 6.90219 25.8456 7.20013 25.8456 7.57254V9.12426L22.4194 12.5629C22.2828 12.6994 22.2083 12.8856 22.2083 13.0843C22.2083 13.2829 22.2828 13.4567 22.4194 13.6056C22.5559 13.7422 22.7421 13.8167 22.9407 13.8167C23.1394 13.8167 23.3132 13.7422 23.4621 13.6056L27.0621 9.98081L27.5835 10.4898C26.5159 11.5574 18.2111 19.9118 17.789 20.3215C17.789 20.3215 17.6649 20.4456 17.578 20.6442L16.5973 23.5863C16.5104 23.8594 16.5725 24.1449 16.7711 24.3435C16.9076 24.4801 17.0939 24.5546 17.2925 24.5546C17.367 24.5546 17.4539 24.5422 17.5283 24.5173L20.458 23.5118C20.607 23.4622 20.7435 23.338 20.7932 23.2884L25.858 18.1987V27.6952H25.8456ZM25.4235 16.5849L24.7035 17.3173L23.7849 16.3987L24.5049 15.6663L25.4235 16.5849ZM23.6732 18.3477L20.2345 21.8111L19.3159 20.8925L22.7545 17.4291L23.6732 18.3477ZM26.4538 15.5422L25.5352 14.6236L28.6138 11.5201L29.5325 12.4387L26.4538 15.5422Z" fill="black"/>
</svg>
