<svg width="36" height="36" viewBox="0 0 36 36" fill="none" xmlns="http://www.w3.org/2000/svg">
<path fill-rule="evenodd" clip-rule="evenodd" d="M4.625 10.5C4.625 9.74061 5.24061 9.125 6 9.125H9C9.75939 9.125 10.375 9.74061 10.375 10.5V24.5C10.375 25.2594 9.75939 25.875 9 25.875H6C5.24061 25.875 4.625 25.2594 4.625 24.5V10.5ZM6.375 10.875V24.125H8.625V10.875H6.375ZM25.625 10.5C25.625 9.74061 26.2406 9.125 27 9.125H30C30.7594 9.125 31.375 9.74061 31.375 10.5V24.5C31.375 25.2594 30.7594 25.875 30 25.875H27C26.2406 25.875 25.625 25.2594 25.625 24.5V10.5ZM27.375 10.875V24.125H29.625V10.875H27.375ZM17.1499 22.875H13.375V24.125H17.1499V22.875ZM18.8999 24.125H22.625V22.875H18.8999V24.125ZM11.625 11.5C11.625 10.7406 12.2406 10.125 13 10.125H23C23.7594 10.125 24.375 10.7406 24.375 11.5V18.5C24.375 19.2594 23.7594 19.875 23 19.875H13C12.2406 19.875 11.625 19.2594 11.625 18.5V11.5ZM13.375 11.875V18.125H22.625V11.875H13.375ZM13 21.125C12.2406 21.125 11.625 21.7406 11.625 22.5V24.5C11.625 25.2594 12.2406 25.875 13 25.875H23C23.7594 25.875 24.375 25.2594 24.375 24.5V22.5C24.375 21.7406 23.7594 21.125 23 21.125H13ZM6.625 11.995C6.625 11.5117 7.01675 11.12 7.5 11.12C7.98325 11.12 8.375 11.5117 8.375 11.995C8.375 12.4782 7.98325 12.87 7.5 12.87C7.01675 12.87 6.625 12.4782 6.625 11.995ZM28.5049 11.12C28.0216 11.12 27.6299 11.5117 27.6299 11.995C27.6299 12.4782 28.0216 12.87 28.5049 12.87C28.9881 12.87 29.3799 12.4782 29.3799 11.995C29.3799 11.5117 28.9881 11.12 28.5049 11.12ZM6.62988 14.125C6.62988 13.6418 7.02163 13.25 7.50488 13.25C7.98813 13.25 8.37988 13.6418 8.37988 14.125C8.37988 14.6082 7.98813 15 7.50488 15C7.02163 15 6.62988 14.6082 6.62988 14.125ZM28.5049 13.25C28.0216 13.25 27.6299 13.6418 27.6299 14.125C27.6299 14.6082 28.0216 15 28.5049 15C28.9881 15 29.3799 14.6082 29.3799 14.125C29.3799 13.6418 28.9881 13.25 28.5049 13.25Z" fill="black"/>
</svg>
