<svg width="36" height="36" viewBox="0 0 36 36" fill="none" xmlns="http://www.w3.org/2000/svg">
<path d="M18 1.17205C15.634 1.1654 13.3533 2.05515 11.6169 3.66225L11.597 3.68212C11.539 3.74144 11.4932 3.81163 11.4622 3.88866C11.4313 3.9657 11.4159 4.04807 11.4168 4.13107C11.4177 4.21407 11.435 4.29608 11.4676 4.37241C11.5002 4.44874 11.5476 4.51789 11.6069 4.57591L11.9794 4.94832C12.0974 5.06145 12.2547 5.1246 12.4182 5.1246C12.5817 5.1246 12.7389 5.06145 12.857 4.94832C14.2611 3.66232 16.096 2.94901 18 2.94901C19.9041 2.94901 21.739 3.66232 23.1431 4.94832C23.2504 5.04893 23.3894 5.10903 23.5361 5.11832C23.6829 5.12761 23.8284 5.0855 23.9475 4.99922C23.9728 4.98146 23.9965 4.96152 24.0183 4.93963L24.3907 4.56722L24.4068 4.55108C24.5218 4.42916 24.5838 4.2666 24.5792 4.09905C24.5745 3.9315 24.5036 3.77264 24.382 3.65729C22.6451 2.05229 20.365 1.16436 18 1.17205Z" fill="black"/>
<path d="M14.2622 7.69661C14.3804 7.79176 14.5286 7.84175 14.6803 7.83766C14.832 7.83357 14.9773 7.77565 15.0902 7.67426C15.897 6.96685 16.9332 6.57631 18.0062 6.57517C19.0793 6.57403 20.1163 6.96237 20.9247 7.66805C21.0334 7.76438 21.1717 7.82079 21.3168 7.82801C21.4619 7.83524 21.6051 7.79283 21.7229 7.70778C21.747 7.69048 21.7698 7.67139 21.7911 7.65067L22.1636 7.27826C22.1723 7.2709 22.1802 7.26257 22.1871 7.25343C22.2997 7.12987 22.3588 6.96682 22.3516 6.79985C22.3444 6.63288 22.2714 6.47553 22.1487 6.36212C21.0059 5.3477 19.5304 4.78827 18.0024 4.7901C16.4744 4.79194 15.0003 5.35489 13.86 6.37205L13.8314 6.39936C13.7734 6.45896 13.7277 6.52942 13.697 6.6067C13.6663 6.68398 13.6511 6.76656 13.6524 6.84972C13.6537 6.93287 13.6714 7.01495 13.7044 7.09126C13.7375 7.16757 13.7853 7.2366 13.8451 7.2944L14.2175 7.65688C14.2311 7.67148 14.2461 7.68478 14.2622 7.69661Z" fill="black"/>
<path d="M20.0321 10.4276H15.9679C15.2278 10.4285 14.5184 10.723 13.9953 11.2464C13.4721 11.7698 13.1779 12.4794 13.1772 13.2194V29.0594C13.1779 29.7994 13.4721 30.509 13.9953 31.0324C14.5184 31.5558 15.2278 31.8503 15.9679 31.8513H20.0321C20.7722 31.8503 21.4816 31.5558 22.0048 31.0324C22.5279 30.509 22.8221 29.7994 22.8228 29.0594V13.2144C22.8208 12.4753 22.526 11.767 22.003 11.2447C21.48 10.7223 20.7713 10.4285 20.0321 10.4276ZM21.0848 29.0644C21.0845 29.3436 20.9735 29.6113 20.7762 29.8088C20.5789 30.0064 20.3114 30.1177 20.0321 30.1183H15.9679C15.6887 30.1177 15.4211 30.0064 15.2238 29.8088C15.0265 29.6113 14.9155 29.3436 14.9152 29.0644V13.2144C14.9168 12.9361 15.0284 12.6697 15.2255 12.4732C15.4227 12.2767 15.6895 12.1661 15.9679 12.1655H20.0321C20.3114 12.1661 20.5789 12.2774 20.7762 12.475C20.9735 12.6725 21.0845 12.9402 21.0848 13.2194V29.0644Z" fill="black"/>
<path d="M18 28.3468C18.7898 28.3468 19.4301 27.7066 19.4301 26.9168C19.4301 26.127 18.7898 25.4867 18 25.4867C17.2102 25.4867 16.5699 26.127 16.5699 26.9168C16.5699 27.7066 17.2102 28.3468 18 28.3468Z" fill="black"/>
<path d="M5.38882 20.0058C5.38318 18.1003 6.09746 16.2629 7.38868 14.8615C7.48926 14.7543 7.54944 14.6154 7.55895 14.4687C7.56846 14.322 7.52671 14.1765 7.44082 14.0571C7.42231 14.0324 7.40242 14.0088 7.38123 13.9864L7.00882 13.614L6.99268 13.5978C6.87076 13.4828 6.7082 13.4208 6.54065 13.4255C6.3731 13.4301 6.21424 13.501 6.09889 13.6226C4.49675 15.3628 3.60742 17.6417 3.60742 20.0071C3.60742 22.3724 4.49675 24.6513 6.09889 26.3915L6.11751 26.4113C6.17684 26.4694 6.24702 26.5152 6.32406 26.5461C6.40109 26.577 6.48346 26.5925 6.56646 26.5916C6.64947 26.5906 6.73148 26.5734 6.8078 26.5407C6.88413 26.5081 6.95328 26.4608 7.0113 26.4014L7.38372 26.029C7.49713 25.9111 7.56048 25.7538 7.56048 25.5902C7.56048 25.4265 7.49713 25.2693 7.38372 25.1513C6.0938 23.749 5.38127 21.9112 5.38882 20.0058Z" fill="black"/>
<path d="M10.1073 17.0815C10.2043 16.9731 10.2611 16.8347 10.2683 16.6894C10.2756 16.5441 10.2327 16.4008 10.147 16.2833C10.1297 16.2591 10.1106 16.2363 10.0899 16.215L9.71751 15.8426L9.69269 15.8178C9.56896 15.7054 9.40582 15.6465 9.23884 15.6539C9.07187 15.6614 8.91461 15.7346 8.80137 15.8575C7.78797 17.0004 7.22941 18.4755 7.2317 20.003C7.23398 21.5304 7.79696 23.0039 8.81379 24.1437L8.8411 24.1722C8.90069 24.2303 8.97115 24.2759 9.04843 24.3066C9.12571 24.3374 9.2083 24.3525 9.29145 24.3512C9.3746 24.35 9.45669 24.3323 9.533 24.2992C9.6093 24.2662 9.67834 24.2184 9.73613 24.1586L10.0999 23.7862C10.1135 23.7727 10.1256 23.7577 10.1359 23.7415C10.2313 23.6232 10.2815 23.4747 10.2774 23.3228C10.2733 23.1708 10.2152 23.0252 10.1135 22.9123C9.40687 22.1058 9.01679 21.0703 9.01564 19.998C9.0145 18.9258 9.40238 17.8895 10.1073 17.0815Z" fill="black"/>
<path d="M29.901 13.623L29.8824 13.6031C29.8231 13.5451 29.7529 13.4993 29.6759 13.4683C29.5988 13.4374 29.5165 13.422 29.4335 13.4229C29.3505 13.4238 29.2685 13.4411 29.1921 13.4737C29.1158 13.5063 29.0466 13.5537 28.9886 13.613L28.6162 13.9855C28.5027 14.1036 28.4393 14.2611 28.4393 14.4249C28.4393 14.5887 28.5027 14.7462 28.6162 14.8644C29.9014 16.2688 30.6142 18.1036 30.6142 20.0074C30.6142 21.9112 29.9014 23.7459 28.6162 25.1504C28.5156 25.2577 28.4554 25.3966 28.4459 25.5433C28.4364 25.69 28.4782 25.8355 28.5641 25.9548C28.5826 25.9795 28.6025 26.0032 28.6237 26.0256L28.9961 26.398L29.0122 26.4142C29.1341 26.5292 29.2967 26.5912 29.4642 26.5865C29.6318 26.5819 29.7907 26.5109 29.906 26.3893C31.5082 24.6492 32.3975 22.3703 32.3975 20.0049C32.3975 17.6395 31.5082 15.3606 29.906 13.6205L29.901 13.623Z" fill="black"/>
<path d="M27.1863 15.8683L27.159 15.8397C27.0994 15.7817 27.0289 15.736 26.9517 15.7053C26.8744 15.6746 26.7918 15.6594 26.7086 15.6607C26.6255 15.662 26.5434 15.6797 26.4671 15.7127C26.3908 15.7458 26.3218 15.7936 26.264 15.8534L25.9002 16.2258C25.8868 16.2391 25.8748 16.2536 25.8642 16.2692C25.7687 16.3875 25.7185 16.536 25.7226 16.688C25.7267 16.8399 25.7849 16.9855 25.8866 17.0985C26.594 17.9053 26.9845 18.9415 26.9857 20.0146C26.9868 21.0876 26.5985 22.1246 25.8928 22.933C25.7958 23.0414 25.739 23.1798 25.7318 23.325C25.7245 23.4703 25.7673 23.6137 25.8531 23.7312C25.8704 23.7553 25.8894 23.7781 25.9102 23.7994L26.2826 24.1719L26.3074 24.1954C26.431 24.308 26.594 24.3671 26.761 24.3599C26.928 24.3527 27.0853 24.2797 27.1987 24.157C28.2128 23.0139 28.7718 21.5383 28.7695 20.0103C28.7672 18.4822 28.2038 17.0082 27.1863 15.8683Z" fill="black"/>
</svg>
