<svg width="36" height="36" viewBox="0 0 36 36" fill="none" xmlns="http://www.w3.org/2000/svg">
<path d="M10.4388 14.2758H11.9732L13.0321 17.2799H13.0457L14.1121 14.2758H15.6414V18.88H14.6272V15.3483H14.6136L13.4069 18.8788H12.6336L11.4692 15.3483H11.4567V18.8788H10.4388V14.2758Z" fill="black"/>
<path d="M19.9117 15.4715C19.8117 15.3499 19.684 15.2541 19.5393 15.1921C19.3801 15.1243 19.2083 15.0909 19.0353 15.0941C18.8558 15.092 18.678 15.1284 18.5138 15.2008C18.3496 15.2731 18.2027 15.3798 18.0832 15.5137C17.9607 15.6516 17.8659 15.8117 17.8038 15.9854C17.6681 16.3693 17.6681 16.7882 17.8038 17.1721C17.8663 17.3437 17.9597 17.5023 18.0794 17.6401C18.194 17.771 18.3349 17.8763 18.4928 17.9492C18.6527 18.0232 18.8269 18.0609 19.003 18.0597C19.1947 18.0655 19.3847 18.0228 19.5554 17.9356C19.7155 17.8486 19.8519 17.7237 19.9527 17.5719L20.798 18.2025C20.6101 18.4687 20.3524 18.6779 20.0532 18.807C19.7627 18.9354 19.4485 19.0018 19.1309 19.0019C18.7924 19.0054 18.4561 18.9482 18.1378 18.8331C17.8454 18.7265 17.5777 18.5618 17.3507 18.349C17.1268 18.1332 16.9509 17.8726 16.8343 17.5843C16.5877 16.9396 16.5877 16.2266 16.8343 15.5819C16.9506 15.2938 17.1266 15.0336 17.3507 14.8185C17.5773 14.6048 17.8451 14.4397 18.1378 14.3331C18.4562 14.2186 18.7925 14.1615 19.1309 14.1643C19.267 14.165 19.4027 14.1771 19.5368 14.2003C19.6789 14.2245 19.8182 14.2628 19.9527 14.3145C20.092 14.3669 20.2242 14.4366 20.3462 14.5218C20.4739 14.6109 20.5877 14.7184 20.6838 14.8408L19.9117 15.4715Z" fill="black"/>
<path d="M25.5625 17.1036C25.5648 17.3601 25.5228 17.615 25.4384 17.8571C25.359 18.0812 25.2319 18.2853 25.0659 18.4555C24.8944 18.6305 24.6869 18.7661 24.4577 18.8527C23.9127 19.0431 23.3193 19.0431 22.7744 18.8527C22.5452 18.7661 22.3376 18.6305 22.1661 18.4555C22.0001 18.2853 21.873 18.0812 21.7937 17.8571C21.7092 17.615 21.6672 17.3601 21.6695 17.1036V14.2758H22.6837V17.0651C22.6822 17.2006 22.7054 17.3352 22.752 17.4624C22.7943 17.5791 22.8593 17.6862 22.9432 17.7777C23.0262 17.8669 23.1268 17.9379 23.2386 17.9862C23.3564 18.0363 23.4831 18.0616 23.611 18.0607C23.739 18.0624 23.866 18.0371 23.9835 17.9862C24.0944 17.9376 24.1941 17.8666 24.2764 17.7777C24.3603 17.6862 24.4253 17.5791 24.4676 17.4624C24.5142 17.3352 24.5374 17.2006 24.5359 17.0651V14.2758H25.5513L25.5625 17.1036Z" fill="black"/>
<path d="M33.9555 14.713L20.2593 8.25784C20.1428 8.2033 20.0156 8.17531 19.8869 8.17591H16.1106C15.982 8.17531 15.8548 8.2033 15.7382 8.25784L2.04209 14.713C1.89322 14.7836 1.76749 14.8951 1.67958 15.0345C1.59166 15.1738 1.54517 15.3353 1.54553 15.5001V17.7035C1.54541 17.8681 1.59201 18.0293 1.67991 18.1684C1.76781 18.3075 1.89341 18.4188 2.04209 18.4893L2.43436 18.6743C2.36451 18.8222 2.32448 18.9825 2.31655 19.1459C2.30863 19.3093 2.33297 19.4726 2.38819 19.6266C2.4997 19.9377 2.7302 20.1917 3.02898 20.3327C3.32776 20.4738 3.67035 20.4904 3.98137 20.3789C4.13538 20.3237 4.277 20.2387 4.39815 20.1287C4.5193 20.0188 4.61761 19.8861 4.68747 19.7381L5.05988 19.9144C4.9193 20.2128 4.90303 20.5549 5.01466 20.8654C5.12629 21.1758 5.35667 21.4292 5.65512 21.5698C5.95357 21.7104 6.29565 21.7266 6.60609 21.615C6.91653 21.5034 7.16992 21.273 7.3105 20.9745L7.68291 21.1508C7.54282 21.4489 7.5269 21.7905 7.63865 22.1004C7.75039 22.4102 7.98065 22.663 8.27878 22.8031C8.5769 22.9432 8.91846 22.9591 9.22832 22.8474C9.53818 22.7356 9.79096 22.5053 9.93105 22.2072L10.3035 22.3847C10.1629 22.683 10.1466 23.0249 10.2581 23.3353C10.3696 23.6456 10.5998 23.8989 10.8981 24.0395C11.1964 24.1801 11.5383 24.1964 11.8486 24.0849C12.1589 23.9734 12.4123 23.7432 12.5528 23.4449L12.9253 23.6212C12.8556 23.7688 12.8158 23.9286 12.808 24.0917C12.8002 24.2547 12.8245 24.4176 12.8797 24.5712C12.9348 24.7248 13.0197 24.8661 13.1294 24.9869C13.2392 25.1077 13.3716 25.2057 13.5193 25.2753C13.6669 25.3449 13.8268 25.3848 13.9898 25.3926C14.1528 25.4004 14.3157 25.376 14.4693 25.3209C14.623 25.2657 14.7642 25.1808 14.885 25.0711C15.0058 24.9614 15.1038 24.8289 15.1734 24.6813L15.732 24.9432C15.8485 24.9982 15.9757 25.0266 16.1044 25.0264H19.8832C20.012 25.0266 20.1392 24.9982 20.2556 24.9432L20.813 24.6813C20.9536 24.9796 21.2069 25.2098 21.5172 25.3213C21.8275 25.4328 22.1695 25.4165 22.4677 25.2759C22.766 25.1353 22.9963 24.882 23.1078 24.5717C23.2193 24.2614 23.2029 23.9194 23.0624 23.6212L23.4348 23.4449C23.5754 23.7448 23.8293 23.9766 24.1408 24.0893C24.4523 24.202 24.7958 24.1863 25.0957 24.0457C25.3957 23.9051 25.6275 23.6511 25.7402 23.3397C25.8528 23.0282 25.8372 22.6847 25.6966 22.3847L26.069 22.2085C26.1386 22.3562 26.2366 22.4887 26.3574 22.5985C26.4783 22.7083 26.6196 22.7933 26.7732 22.8485C26.9269 22.9037 27.0899 22.9281 27.253 22.9203C27.4161 22.9125 27.576 22.8727 27.7237 22.8031C27.8714 22.7335 28.004 22.6355 28.1138 22.5146C28.2236 22.3938 28.3085 22.2525 28.3638 22.0989C28.419 21.9452 28.4434 21.7822 28.4356 21.6191C28.4278 21.456 28.388 21.296 28.3184 21.1483L28.6908 20.9721C28.8315 21.2705 29.0851 21.5008 29.3956 21.6123C29.7062 21.7238 30.0483 21.7074 30.3468 21.5667C30.6452 21.4259 30.8755 21.1724 30.9871 20.8618C31.0986 20.5513 31.0821 20.2091 30.9414 19.9107L31.3138 19.7356C31.4546 20.0341 31.7081 20.2644 32.0187 20.3759C32.3292 20.4874 32.6714 20.471 32.9698 20.3303C33.2683 20.1895 33.4986 19.936 33.6101 19.6254C33.7216 19.3148 33.7052 18.9727 33.5644 18.6743L33.9567 18.4893C34.1054 18.4188 34.231 18.3075 34.3189 18.1684C34.4068 18.0293 34.4534 17.8681 34.4533 17.7035V15.5001C34.4535 15.3352 34.4068 15.1736 34.3187 15.0342C34.2305 14.8949 34.1046 14.7835 33.9555 14.713ZM19.6945 23.2885H16.3055L3.28471 17.1523V16.0512L16.3055 9.91509H19.6945L32.7153 16.0512V17.1523L19.6945 23.2885Z" fill="black"/>
</svg>
