<svg width="36" height="36" viewBox="0 0 36 36" fill="none" xmlns="http://www.w3.org/2000/svg">
<path d="M28.4852 9.53316H22.6567V8.60212C22.6567 7.22418 21.5407 6.10693 20.1642 6.10693H16.2082C14.8317 6.10693 13.7157 7.22418 13.7157 8.60212V9.53316H7.88718C6.39906 9.53316 5.19614 10.7373 5.19614 12.227V24.2311C5.19614 25.7208 6.39906 26.9249 7.88718 26.9249H28.4852C29.9733 26.9249 31.1763 25.7208 31.1763 24.2311V12.227C31.1763 10.7497 29.9733 9.53316 28.4852 9.53316ZM15.4145 8.60212C15.4145 8.16764 15.7742 7.80763 16.2082 7.80763H20.1642C20.5982 7.80763 20.9578 8.16764 20.9578 8.60212V9.53316H15.4145V8.60212ZM8.7676 25.2367H7.88718C7.62676 25.2367 7.37872 25.1373 7.1803 24.9511C6.99428 24.7649 6.88263 24.5167 6.88263 24.2436V12.227C6.88263 11.6807 7.32906 11.2338 7.87471 11.2338H8.75525V25.2367H8.7676ZM26.0174 25.2367H10.4666V11.2338H26.0174V25.2367ZM29.4773 24.2436C29.4773 24.7898 29.0309 25.2367 28.4852 25.2367H27.7163V11.2338H28.4852C29.0309 11.2338 29.4773 11.6807 29.4773 12.227V24.2436Z" fill="black"/>
</svg>
