<svg width="36" height="36" viewBox="0 0 36 36" fill="none" xmlns="http://www.w3.org/2000/svg">
<path d="M23.1875 4.375H13.0625C11.1641 4.375 9.6875 5.9043 9.6875 7.75V28C9.6875 29.8984 11.1641 31.375 13.0625 31.375H23.1875C25.0332 31.375 26.5625 29.8984 26.5625 28V7.75C26.5625 5.9043 25.0332 4.375 23.1875 4.375ZM24.875 28C24.875 28.9492 24.084 29.6875 23.1875 29.6875H13.0625C12.1133 29.6875 11.375 28.9492 11.375 28V7.75C11.375 6.85352 12.1133 6.0625 13.0625 6.0625H23.1875C24.084 6.0625 24.875 6.85352 24.875 7.75V28ZM19.8125 25.4688H16.4375C15.9629 25.4688 15.5938 25.8906 15.5938 26.3125C15.5938 26.7871 15.9629 27.1562 16.4375 27.1562H19.8125C20.2344 27.1562 20.6562 26.7871 20.6562 26.3125C20.6562 25.8906 20.2344 25.4688 19.8125 25.4688Z" fill="black"/>
<path d="M19.7875 12.9103C19.7455 12.9105 19.7037 12.9167 19.6634 12.9289L18.3153 13.3274C18.2246 13.3559 18.1454 13.4125 18.0892 13.4891C18.0329 13.5657 18.0025 13.6582 18.0024 13.7532V17.9379C17.7867 17.8637 17.5602 17.8259 17.3321 17.8262C16.4631 17.8262 15.7679 18.3227 15.7679 18.9434C15.7679 19.5641 16.4681 20.0606 17.3321 20.0606C18.1961 20.0606 18.8962 19.5641 18.8962 18.9434V14.9747L19.9154 14.6755C20.0083 14.6484 20.0898 14.5918 20.1478 14.5144C20.2058 14.4369 20.237 14.3428 20.2369 14.246V13.3522C20.2356 13.2341 20.1876 13.1214 20.1034 13.0385C20.0192 12.9557 19.9056 12.9096 19.7875 12.9103Z" fill="black"/>
</svg>
