<svg width="36" height="36" viewBox="0 0 36 36" fill="none" xmlns="http://www.w3.org/2000/svg">
<path d="M15.269 25.7783H20.7497C21.7353 25.7783 22.3982 25.1092 22.3995 24.126C22.3995 22.6761 22.3995 20.6501 22.3995 19.2002C22.3995 18.1972 21.7453 17.5479 20.736 17.5467C19.1992 17.5467 16.7934 17.5467 15.2578 17.5467C14.2511 17.5467 13.5981 18.1984 13.5944 19.2039C13.5944 20.6477 13.5944 22.6649 13.5944 24.1099C13.5981 25.1216 14.256 25.777 15.269 25.7783ZM15.3037 19.2561C16.8232 19.2561 19.1657 19.2561 20.6913 19.2561C20.6913 20.6787 20.6913 22.6413 20.6913 24.0701H15.3062C15.3037 22.645 15.3037 20.6812 15.3062 19.2561H15.3037Z" fill="black"/>
<path d="M12.5677 22.6201H10.7391C10.4841 22.6201 10.2773 22.8269 10.2773 23.0819V24.034C10.2773 24.2891 10.4841 24.4958 10.7391 24.4958H12.5677C12.8227 24.4958 13.0295 24.2891 13.0295 24.034V23.0819C13.0295 22.8269 12.8227 22.6201 12.5677 22.6201Z" fill="black"/>
<path d="M25.2646 22.6201H23.436C23.181 22.6201 22.9742 22.8269 22.9742 23.0819V24.034C22.9742 24.2891 23.181 24.4958 23.436 24.4958H25.2646C25.5196 24.4958 25.7264 24.2891 25.7264 24.034V23.0819C25.7264 22.8269 25.5196 22.6201 25.2646 22.6201Z" fill="black"/>
<path d="M28.9415 25.9138C28.9415 25.2583 28.5815 24.7965 27.9869 24.665V21.9153C27.9869 20.9284 27.5214 20.1699 26.6859 19.7789C26.5255 19.7051 26.3567 19.6513 26.1831 19.6188V17.5568C26.1831 16.4917 26.1831 14.8593 26.1831 13.1214L26.8659 13.3336V13.9643C26.8652 14.0868 26.913 14.2046 26.9988 14.292C27.0846 14.3794 27.2015 14.4294 27.324 14.431H28.1085C28.1692 14.4318 28.2295 14.4205 28.2858 14.3977C28.3421 14.3749 28.3932 14.3411 28.4363 14.2982C28.4797 14.2558 28.5144 14.2053 28.5382 14.1495C28.5621 14.0936 28.5747 14.0337 28.5753 13.973L28.6014 10.9837C28.6014 10.8614 28.5537 10.7438 28.4685 10.656C28.4261 10.6127 28.3755 10.5782 28.3197 10.5546C28.2639 10.5309 28.2039 10.5186 28.1433 10.5182L27.3575 10.5108C27.2358 10.5111 27.119 10.5593 27.0326 10.645C26.9462 10.7308 26.897 10.8471 26.8957 10.9688V11.5423L26.1968 11.3251C26.1968 9.61572 26.1968 5.66813 26.2043 5.05613C26.2105 4.9598 26.1972 4.86319 26.1652 4.77211C26.1332 4.68103 26.0831 4.59735 26.018 4.52606C25.9746 4.47889 24.9778 3.76013 24.7767 3.76013C24.506 3.76013 24.4849 4.20827 24.4849 4.34606C24.4849 5.43475 24.4849 6.54082 24.4849 7.61089V7.62455L18 6.90082L11.5262 7.63075V7.6171C11.5262 6.54827 11.5262 5.44344 11.5262 4.35599C11.5262 4.26165 11.5125 3.94758 11.3449 3.84951C11.3018 3.82844 11.2538 3.8194 11.2059 3.82333C11.1581 3.82726 11.1122 3.84403 11.0731 3.87186C10.7689 4.04441 10.0465 4.47765 10.0042 4.51986C9.93484 4.59194 9.88139 4.67783 9.84738 4.77194C9.81337 4.86605 9.79957 4.96626 9.80687 5.06606C9.80687 5.99958 9.80687 6.92813 9.80687 7.86661C9.80687 7.86661 9.80687 9.75227 9.80687 10.6734V11.3239L9.10052 11.5448V10.9725C9.09921 10.85 9.04934 10.7329 8.96184 10.647C8.87434 10.5611 8.75635 10.5135 8.63376 10.5145L7.84921 10.5207C7.78851 10.5213 7.72853 10.5339 7.67271 10.5577C7.61689 10.5816 7.56634 10.6163 7.52397 10.6597C7.4811 10.7027 7.44727 10.7539 7.42446 10.8102C7.40165 10.8664 7.39032 10.9267 7.39114 10.9874L7.41721 13.9767C7.41916 14.0989 7.46907 14.2154 7.55616 14.301C7.64325 14.3867 7.76054 14.4348 7.88273 14.4348L8.66852 14.4273C8.79079 14.4257 8.90748 14.3759 8.99324 14.2887C9.07901 14.2015 9.12693 14.0841 9.12659 13.9618V13.3299L9.82921 13.1114V19.6014C8.96521 19.7776 8.35818 20.3586 8.10618 21.2276C8.04173 21.4642 8.01081 21.7086 8.01431 21.9538C8.01431 22.7756 8.01431 23.5961 8.01431 24.4179V24.6662C7.41969 24.7978 7.06342 25.2621 7.05969 25.9175C7.05969 26.5183 7.05969 27.1279 7.05969 27.7287C7.05969 28.517 7.55624 29.0098 8.34576 29.0148H8.58659H8.94287C8.93641 29.3571 9.03505 29.6932 9.22549 29.9777C9.41593 30.2623 9.68903 30.4816 10.008 30.6062C10.1124 30.6506 10.2247 30.6734 10.3382 30.6732H12.5727C12.6852 30.6732 12.7966 30.6509 12.9004 30.6074C13.2202 30.4829 13.4939 30.263 13.6847 29.9777C13.8754 29.6924 13.9739 29.3554 13.9667 29.0123H16.5252C18.36 29.0123 20.1943 29.0123 22.0282 29.0123C22.0206 29.3548 22.1182 29.6915 22.308 29.9768C22.4979 30.2621 22.7707 30.4822 23.0896 30.6074C23.1939 30.6509 23.3057 30.6732 23.4186 30.6732H25.6531C25.7664 30.6732 25.8786 30.6509 25.9833 30.6074C26.3051 30.4852 26.5813 30.2666 26.7744 29.9816C26.9674 29.6966 27.0679 29.3589 27.062 29.0148H27.468H27.6579C28.4487 29.0148 28.9415 28.5182 28.9465 27.7274C28.9456 27.1183 28.944 26.5138 28.9415 25.9138ZM24.4812 14.9574L18 14.2262L11.5237 14.9574V9.35255L18 8.62013L24.4862 9.35255L24.4812 14.9574ZM9.72245 25.4781V24.4142C9.72245 23.5949 9.72245 22.7768 9.72245 21.96C9.72001 21.8746 9.72751 21.7892 9.7448 21.7055C9.82424 21.4324 9.95583 21.2611 10.3655 21.2549C11.1463 21.2437 11.5249 20.8577 11.5249 20.0743V16.7052L18 15.9455L24.4936 16.7077C24.4837 17.0243 24.4787 17.3036 24.4787 17.5581V20.1314C24.4787 20.3859 24.4787 21.1605 25.4718 21.2487L25.5438 21.2561C25.6871 21.261 25.8292 21.2831 25.9671 21.3219C26.1273 21.3964 26.2837 21.5044 26.2849 21.9141C26.2849 22.6514 26.2849 23.3888 26.2849 24.1262V25.4768C26.2853 25.7034 26.3755 25.9207 26.5359 26.0808C26.6963 26.2409 26.9136 26.3309 27.1403 26.3309H27.242V27.1999H8.76535C8.76535 26.9119 8.76535 26.6222 8.76535 26.3309H8.8659C9.09243 26.3309 9.30973 26.2412 9.47026 26.0813C9.63079 25.9215 9.72147 25.7046 9.72245 25.4781Z" fill="black"/>
</svg>
