<svg width="36" height="36" viewBox="0 0 36 36" fill="none" xmlns="http://www.w3.org/2000/svg">
<path d="M28.0967 9.90897L19.1447 6.1787C18.864 6.06076 18.5625 6 18.258 6C17.9535 6 17.652 6.06076 17.3713 6.1787L8.42664 9.90571C8.00432 10.0789 7.64317 10.3739 7.38928 10.7532C7.13539 11.1325 7.00027 11.5789 7.00118 12.0353C6.95679 16.1371 8.10463 20.1636 10.3052 23.6255C11.9926 26.3475 14.4517 28.506 17.3696 29.826C17.938 30.058 18.5747 30.058 19.1431 29.826C22.9948 28.2221 29.5132 22.6686 29.5132 12.0369C29.5144 11.5818 29.3804 11.1366 29.1282 10.7578C28.876 10.3789 28.517 10.0835 28.0967 9.90897ZM27.8775 12.3442C27.7895 15.5428 26.9769 18.6796 25.5009 21.5187C24.0875 24.4904 21.6784 26.8736 18.6916 28.2547L18.2596 28.4348L17.8277 28.2547C14.8399 26.874 12.4292 24.4916 11.0134 21.5203C9.53713 18.6807 8.7235 15.5434 8.63365 12.3442L8.62141 11.5879L18.2547 7.57399L27.8881 11.5879L27.8775 12.3442Z" fill="black"/>
<path d="M18.739 11.2636C18.7392 11.1347 18.6977 11.0091 18.6207 10.9057C18.5436 10.8023 18.4352 10.7266 18.3116 10.69C18.1879 10.6533 18.0558 10.6576 17.9348 10.7022C17.8138 10.7469 17.7106 10.8294 17.6404 10.9376C15.2696 14.6051 18.3405 16.6035 18.3405 17.8293C18.3405 18.0932 18.2356 18.3463 18.049 18.5329C17.8624 18.7196 17.6093 18.8244 17.3454 18.8244C17.0814 18.8244 16.8283 18.7196 16.6417 18.5329C16.4551 18.3463 16.3502 18.0932 16.3502 17.8293V15.1976C16.35 15.0886 16.32 14.9817 16.2633 14.8885C16.2066 14.7953 16.1255 14.7194 16.0288 14.669C15.9321 14.6186 15.8234 14.5957 15.7145 14.6027C15.6057 14.6096 15.5009 14.6463 15.4114 14.7086C14.7373 15.178 14.1956 15.8132 13.8387 16.553C13.4817 17.2928 13.3216 18.1122 13.3737 18.9319C13.4258 19.7516 13.6885 20.5441 14.1362 21.2327C14.584 21.9213 15.2018 22.4828 15.9299 22.863C16.658 23.2432 17.4718 23.4292 18.2928 23.4031C19.1138 23.3769 19.9142 23.1395 20.6166 22.7138C21.3191 22.288 21.8999 21.6884 22.3029 20.9727C22.706 20.2569 22.9177 19.4494 22.9175 18.628C22.9175 14.39 18.7382 13.8301 18.7382 11.2645L18.739 11.2636ZM18.1424 22.2099C17.1914 22.2099 16.2792 21.8321 15.6067 21.1596C14.9342 20.4871 14.5564 19.575 14.5564 18.6239C14.5583 17.8546 14.7663 17.0998 15.1587 16.4381V17.8309C15.1587 18.4115 15.3893 18.9683 15.7999 19.3788C16.2104 19.7894 16.7672 20.02 17.3478 20.02C17.9284 20.02 18.4852 19.7894 18.8957 19.3788C19.3063 18.9683 19.5369 18.4115 19.5369 17.8309C19.5369 16.2319 17.3478 14.8456 17.9444 12.6565C18.9395 14.8456 21.726 15.6858 21.726 18.6272C21.7251 19.5773 21.3473 20.4882 20.6754 21.1599C20.0035 21.8316 19.0925 22.2093 18.1424 22.2099Z" fill="black"/>
</svg>
