<svg width="36" height="36" viewBox="0 0 36 36" fill="none" xmlns="http://www.w3.org/2000/svg">
<path d="M24.716 20.3091C24.6043 20.1849 24.4553 20.1229 24.2815 20.1104C24.1077 20.098 23.9588 20.1601 23.8346 20.2842L23.4995 20.6318C23.2636 20.8677 23.2636 21.2525 23.487 21.4884C24.6291 22.7298 25.2622 24.356 25.2622 26.0566C25.2622 27.7573 24.6291 29.3835 23.487 30.6249C23.2636 30.8732 23.2636 31.2456 23.4995 31.4815L23.8222 31.8166C23.9339 31.9284 24.0953 32.0029 24.2443 32.0029H24.2567C24.4181 32.0029 24.567 31.9408 24.6912 31.8166L24.7036 31.8042C26.156 30.2401 26.9505 28.2042 26.9505 26.0566C26.9505 23.9215 26.1684 21.898 24.7408 20.3339L24.716 20.3091Z" fill="black"/>
<path d="M16.076 20.16C15.7905 20.16 15.5174 20.2718 15.3064 20.4828L12.8733 22.9159H10.1298C9.52155 22.9159 9.03741 23.4124 9.03741 24.0083V28.1297C9.03741 28.738 9.52155 29.2221 10.1298 29.2221H12.8857L15.3188 31.6552C15.5298 31.8662 15.8029 31.978 16.0884 31.978C16.6222 31.978 17.1809 31.5683 17.1809 30.8856V21.2649C17.1809 20.5697 16.6222 20.16 16.076 20.16ZM15.4553 29.3462L13.6057 27.4966H10.7629V24.6414H13.5933L15.4429 22.7918V29.3462H15.4553Z" fill="black"/>
<path d="M22.2951 22.3199C22.1834 22.1957 22.0344 22.1213 21.8606 22.1213C21.6993 22.1088 21.5379 22.1709 21.4137 22.2826C21.4013 22.295 21.4013 22.295 21.3889 22.3075L21.0537 22.6426C20.8303 22.8785 20.8179 23.2509 21.0413 23.4868C22.3324 24.9516 22.3324 27.1737 21.0413 28.6385C20.8179 28.8744 20.8303 29.2592 21.0537 29.4951L21.3765 29.8302C21.4882 29.9544 21.6496 30.0164 21.8234 30.0164C21.9848 30.0164 22.1337 29.9544 22.2579 29.8426C22.2703 29.8302 22.2703 29.8302 22.2827 29.8054C24.1944 27.6702 24.1944 24.4551 22.2951 22.3199Z" fill="black"/>
<path d="M19.7255 24.1818C19.6138 24.1694 19.44 24.1818 19.2662 24.3432L18.931 24.6783C18.6827 24.9018 18.6579 25.2246 18.8689 25.4852C18.8689 25.4852 18.8814 25.5101 18.9186 25.5846C18.9931 25.7335 19.0303 25.8949 19.0303 26.0687C19.0303 26.2052 19.0055 26.3915 18.8938 26.5901C18.7324 26.8508 18.6331 27.1363 18.9683 27.4466L18.9807 27.459C18.9807 27.459 19.1296 27.5708 19.3034 27.7197C19.4152 27.8066 19.5393 27.8563 19.6758 27.8563C19.7131 27.8563 19.7503 27.8563 19.7876 27.8439C19.9862 27.8066 20.1848 27.6701 20.2965 27.4839C20.5448 27.0618 20.6814 26.5777 20.6814 26.0811C20.6814 25.5101 20.5076 24.9639 20.1724 24.4921C20.1227 24.4177 19.9862 24.219 19.7255 24.1818Z" fill="black"/>
<path d="M28.7877 16.4108H7.21248C6.96421 16.4108 6.75317 16.6219 6.75317 16.8701V17.615C6.75317 17.8632 6.96421 18.0743 7.21248 18.0743H28.8001C29.0483 18.0743 29.2594 17.8632 29.2594 17.615V16.8701C29.247 16.6219 29.0483 16.4108 28.7877 16.4108Z" fill="black"/>
<path d="M15.0207 11.6192H17.7766L20.2097 14.0523C20.4207 14.2633 20.6938 14.3751 20.9793 14.3751C21.5131 14.3751 22.0717 13.9654 22.0717 13.2826V3.64954C22.0717 2.96678 21.5131 2.55713 20.9793 2.55713C20.6938 2.55713 20.4207 2.66885 20.2097 2.87989L17.7766 5.31299H15.0207C14.4124 5.31299 13.9283 5.79713 13.9283 6.4054V10.5268C13.9283 11.1226 14.4248 11.6192 15.0207 11.6192ZM15.6538 7.03851H18.4966L20.3462 5.18885V11.7433L18.4966 9.89368H15.6662V7.03851H15.6538Z" fill="black"/>
</svg>
