<svg width="36" height="36" viewBox="0 0 36 36" fill="none" xmlns="http://www.w3.org/2000/svg">
<path d="M14.6643 10.8421C15.1325 10.8421 15.5121 10.4625 15.5121 9.99423C15.5121 9.52596 15.1325 9.14636 14.6643 9.14636C14.196 9.14636 13.8164 9.52596 13.8164 9.99423C13.8164 10.4625 14.196 10.8421 14.6643 10.8421Z" fill="black"/>
<path d="M12.4945 9.99422C12.4945 9.82648 12.4448 9.6625 12.3516 9.52305C12.2583 9.38359 12.1259 9.27492 11.9709 9.21078C11.8159 9.14665 11.6453 9.12993 11.4808 9.16275C11.3163 9.19556 11.1652 9.27644 11.0467 9.39513C10.9282 9.51383 10.8475 9.66502 10.815 9.82958C10.7824 9.99413 10.7994 10.1646 10.8637 10.3195C10.9281 10.4745 11.037 10.6068 11.1765 10.6998C11.3161 10.7928 11.4802 10.8423 11.6479 10.8421C11.8726 10.8418 12.0879 10.7523 12.2467 10.5933C12.4054 10.4343 12.4945 10.2189 12.4945 9.99422Z" fill="black"/>
<path d="M25.5413 5.84094H10.4586C9.63628 5.84356 8.84842 6.17137 8.26698 6.75282C7.68554 7.33426 7.35773 8.12211 7.35511 8.94439V28.5582C7.35411 28.9827 7.52146 29.3903 7.82048 29.6916C8.11949 29.993 8.52577 30.1635 8.95028 30.1658H27.0496C27.4741 30.1651 27.881 29.9962 28.1812 29.696C28.4814 29.3959 28.6503 28.9889 28.651 28.5644V8.9506C28.65 8.12617 28.322 7.33579 27.7391 6.75283C27.1561 6.16987 26.3657 5.84193 25.5413 5.84094ZM26.9565 28.4651H9.04338V8.9506C9.04371 8.57537 9.19292 8.21561 9.45824 7.95028C9.72357 7.68496 10.0833 7.53576 10.4586 7.53543H25.5413C25.9165 7.53576 26.2763 7.68496 26.5416 7.95028C26.807 8.21561 26.9562 8.57537 26.9565 8.9506V28.4651Z" fill="black"/>
<path d="M18 12.3394C16.6392 12.3391 15.3089 12.7424 14.1774 13.4983C13.0458 14.2541 12.1638 15.3286 11.6429 16.5858C11.1221 17.8429 10.9857 19.2263 11.2512 20.5609C11.5166 21.8956 12.1718 23.1216 13.134 24.0838C14.0963 25.046 15.3222 25.7013 16.6569 25.9667C17.9915 26.2321 19.3749 26.0958 20.6321 25.5749C21.8892 25.054 22.9637 24.172 23.7195 23.0405C24.4754 21.9089 24.8787 20.5786 24.8785 19.2178C24.8762 17.3943 24.1507 15.646 22.8613 14.3566C21.5718 13.0671 19.8236 12.3417 18 12.3394ZM18 24.5533C16.9442 24.5533 15.9122 24.2402 15.0344 23.6537C14.1566 23.0672 13.4724 22.2335 13.0684 21.2581C12.6644 20.2827 12.5587 19.2094 12.7646 18.174C12.9706 17.1385 13.479 16.1874 14.2255 15.4409C14.972 14.6943 15.9232 14.186 16.9586 13.98C17.9941 13.774 19.0673 13.8797 20.0427 14.2838C21.0181 14.6878 21.8518 15.3719 22.4383 16.2498C23.0249 17.1276 23.3379 18.1596 23.3379 19.2154C23.3379 20.6311 22.7755 21.9888 21.7745 22.9899C20.7734 23.9909 19.4157 24.5533 18 24.5533Z" fill="black"/>
<path d="M21.3058 20.1529C20.6955 20.1512 20.1066 19.928 19.6486 19.5248C19.1942 19.9283 18.6077 20.1511 18 20.1511C17.3924 20.1511 16.8058 19.9283 16.3515 19.5248C15.8934 19.928 15.3045 20.1512 14.6942 20.1529C14.4445 20.1527 14.1965 20.1107 13.9606 20.0288C14.0975 21.0027 14.5817 21.8943 15.3239 22.5395C16.0662 23.1847 17.0165 23.5401 18 23.5401C18.9835 23.5401 19.9339 23.1847 20.6761 22.5395C21.4184 21.8943 21.9025 21.0027 22.0395 20.0288C21.8036 20.111 21.5556 20.153 21.3058 20.1529Z" fill="black"/>
</svg>
