<svg width="36" height="36" viewBox="0 0 36 36" fill="none" xmlns="http://www.w3.org/2000/svg">
<path d="M15 6H7C5.3125 6 4 7.35938 4 9V27C4 28.6875 5.3125 30 7 30H15C16.6406 30 18 28.6875 18 27V9C18 7.35938 16.6406 6 15 6ZM16.5 27C16.5 27.8438 15.7969 28.5 15 28.5H7C6.15625 28.5 5.5 27.8438 5.5 27V9C5.5 8.20312 6.15625 7.5 7 7.5H15C15.7969 7.5 16.5 8.20312 16.5 9V27Z" fill="black"/>
<path d="M29 9H27C25.3125 9 24 10.3594 24 12V24C24 25.6875 25.3125 27 27 27H29C30.6406 27 32 25.6875 32 24V12C32 10.3594 30.6406 9 29 9ZM30.5 24C30.5 24.8438 29.7969 25.5 29 25.5H27C26.1562 25.5 25.5 24.8438 25.5 24V12C25.5 11.2031 26.1562 10.5 27 10.5H29C29.7969 10.5 30.5 11.2031 30.5 12V24Z" fill="black"/>
</svg>
