<svg width="36" height="36" viewBox="0 0 36 36" fill="none" xmlns="http://www.w3.org/2000/svg">
<path d="M19.3072 32.0078H16.6829C15.5545 32.0078 15.0505 31.5038 15.0505 30.3754V28.5915C13.4454 28.2415 12.1593 27.6481 11.2208 26.8226C10.1036 25.8431 9.47048 24.5409 9.32276 22.9519C9.30447 22.8105 9.31758 22.6667 9.36116 22.5309C9.40474 22.3951 9.47773 22.2705 9.57491 22.1661C9.6721 22.0617 9.79111 21.98 9.92346 21.9268C10.0558 21.8736 10.1983 21.8502 10.3407 21.8583C10.4177 21.8583 11.124 21.8583 14.9735 21.8583H15.2218C15.463 21.8606 15.697 21.941 15.8887 22.0873C16.0805 22.2336 16.2197 22.4381 16.2857 22.6701C16.3487 22.9 16.4558 23.1154 16.601 23.3045C16.7843 23.5366 17.0198 23.722 17.2884 23.8459C17.557 23.9697 17.851 24.0283 18.1465 24.017C18.381 24.0278 18.6142 23.976 18.8221 23.867C19.03 23.7579 19.2051 23.5955 19.3295 23.3964C19.4 23.1774 19.4357 22.9486 19.435 22.7186C19.4491 22.5589 19.4145 22.3988 19.3357 22.2593C19.0614 21.831 17.8883 21.4722 17.0292 21.2401C16.5488 21.1159 16.0821 20.9695 15.6426 20.8242C11.4828 19.4376 9.70758 17.4377 9.70758 14.1332C9.70758 10.9155 11.8688 8.2056 15.0455 7.32298V5.44601C15.0455 4.31636 15.5495 3.8136 16.6779 3.8136H19.3022C20.4306 3.8136 20.9346 4.31636 20.9346 5.44601V7.32422C24.1386 8.06905 25.8555 9.78215 26.1745 12.5566C26.1904 12.7127 26.174 12.8704 26.1264 13.0199C26.0788 13.1694 26.0009 13.3075 25.8977 13.4256C25.7992 13.5407 25.6772 13.6335 25.54 13.6977C25.4028 13.7619 25.2534 13.7961 25.1019 13.798C24.9902 13.798 23.5142 13.798 20.592 13.798H20.3437C20.1031 13.7957 19.8704 13.7118 19.6837 13.56C19.497 13.4083 19.3673 13.1976 19.3159 12.9626C19.2923 12.8695 19.2687 12.7875 19.2426 12.7143C19.1185 12.3344 18.8876 11.9297 17.8572 11.9297C16.8977 11.9297 16.6866 12.543 16.6866 12.7801C16.6866 13.8501 18.5338 14.518 19.6349 14.8296C19.8435 14.8855 20.0681 14.9537 20.3164 15.0245C24.7854 16.3726 26.6897 18.4706 26.6773 22.0383C26.6599 25.4757 24.5781 27.8442 20.9346 28.6275V30.3816C20.9396 31.5038 20.4356 32.0078 19.3072 32.0078ZM16.7884 30.2699H19.2017V27.8951C19.2019 27.6863 19.2773 27.4846 19.4141 27.3269C19.5509 27.1691 19.7399 27.0659 19.9465 27.0361C22.2182 26.6984 24.9306 25.5551 24.948 22.0246C24.9567 19.6834 24.1014 17.9728 19.8236 16.6867C19.5927 16.6172 19.3829 16.5626 19.1855 16.503C16.3775 15.7234 14.9574 14.4708 14.9574 12.7788C14.9574 11.5238 15.9766 10.1906 17.8659 10.1906C19.373 10.1906 20.4083 10.8373 20.8651 12.0626C22.6602 12.0626 23.7203 12.0626 24.3335 12.0626C24.0046 10.7765 23.0437 9.43456 19.9204 8.8896C19.7192 8.85428 19.5368 8.74918 19.4054 8.59276C19.2739 8.43634 19.2018 8.23861 19.2017 8.03429V5.55153H16.7884V8.01815C16.7883 8.22118 16.7171 8.41777 16.5872 8.57378C16.4572 8.72979 16.2768 8.83538 16.0771 8.87222C13.3076 9.37994 11.448 11.4953 11.448 14.1369C11.448 17.0194 13.2641 18.2024 16.195 19.1781C16.6022 19.3147 17.0367 19.445 17.4848 19.5655C19.121 20.0086 20.2457 20.4568 20.8018 21.327C21.06 21.7455 21.1895 22.2307 21.1742 22.7223C21.1742 22.8278 21.163 23.7601 20.8018 24.3274C20.521 24.7748 20.1288 25.1416 19.6635 25.3917C19.1982 25.6417 18.6758 25.7665 18.1477 25.7537C17.5889 25.7648 17.0352 25.6463 16.5299 25.4075C16.0246 25.1686 15.5815 24.8159 15.2355 24.377C15.0483 24.1382 14.8934 23.8756 14.7749 23.5962H11.1823C11.4703 24.7296 12.4349 26.4216 16.0597 27.0137C16.263 27.047 16.4479 27.1514 16.5813 27.3082C16.7148 27.4651 16.7882 27.6643 16.7884 27.8703V30.2699Z" fill="black"/>
</svg>
