<svg width="36" height="36" viewBox="0 0 36 36" fill="none" xmlns="http://www.w3.org/2000/svg">
<path d="M24.8661 18.6868C24.845 17.7548 25.0849 16.8355 25.5584 16.0324C26.032 15.2294 26.7205 14.5747 27.5463 14.1421C27.0263 13.4193 26.3458 12.8269 25.5581 12.4115C24.7705 11.9961 23.8973 11.7691 23.0071 11.7482C21.1049 11.5981 19.0249 12.853 18.2635 12.853C17.4597 12.853 15.6154 11.797 14.1689 11.797C11.1784 11.8448 8 14.1817 8 18.9364C8.01373 20.4199 8.27449 21.8908 8.77158 23.2887C9.45753 25.2554 11.9334 30.0791 14.517 29.999C15.8677 29.9668 16.8188 29.0396 18.5793 29.0396C20.2836 29.0396 21.1684 29.999 22.6738 29.999C25.2786 29.9613 27.5187 25.5795 28.1724 23.6045C27.1937 23.2055 26.3562 22.5237 25.7671 21.6462C25.1779 20.7687 24.8639 19.7355 24.8651 18.6786L24.8661 18.6868ZM21.8322 9.88551C22.3065 9.36379 22.6663 8.74849 22.8883 8.07928C23.1103 7.41006 23.1897 6.70176 23.1213 6C21.7178 6.15 20.4204 6.81693 19.4816 7.87094C19.0008 8.38471 18.6308 8.99195 18.3948 9.65486C18.1588 10.3178 18.0617 11.0222 18.1097 11.7242C18.8322 11.7391 19.5477 11.5797 20.1956 11.2597C20.8435 10.9396 21.4049 10.4683 21.8322 9.88551Z" fill="black"/>
</svg>
