<svg width="36" height="36" viewBox="0 0 36 36" fill="none" xmlns="http://www.w3.org/2000/svg">
<path d="M22.0109 11.459H13.9891C13.1634 11.46 12.3717 11.7884 11.7879 12.3723C11.204 12.9562 10.8755 13.7479 10.8745 14.5736V27.3486C10.8755 28.1744 11.204 28.966 11.7879 29.5499C12.3717 30.1338 13.1634 30.4623 13.9891 30.4633H22.0109C22.8367 30.4623 23.6283 30.1338 24.2122 29.5499C24.7961 28.966 25.1246 28.1744 25.1256 27.3486V14.5736C25.1246 13.7479 24.7961 12.9562 24.2122 12.3723C23.6283 11.7884 22.8367 11.46 22.0109 11.459ZM23.3876 27.3486C23.3873 27.7137 23.2422 28.0636 22.984 28.3217C22.7259 28.5799 22.376 28.725 22.0109 28.7253H13.9891C13.6241 28.725 13.2741 28.5799 13.016 28.3217C12.7579 28.0636 12.6128 27.7137 12.6124 27.3486V14.5736C12.6128 14.2086 12.7579 13.8586 13.016 13.6005C13.2741 13.3424 13.6241 13.1972 13.9891 13.1969H22.0109C22.376 13.1972 22.7259 13.3424 22.984 13.6005C23.2422 13.8586 23.3873 14.2086 23.3876 14.5736V27.3486Z" fill="black"/>
<path d="M19.9862 18.8815C19.7872 18.9976 19.6425 19.188 19.5839 19.4108C19.5252 19.6335 19.5574 19.8705 19.6734 20.0695C19.8454 20.3643 19.9366 20.6993 19.9378 21.0407C19.939 21.382 19.8501 21.7176 19.6801 22.0136C19.5101 22.3096 19.265 22.5556 18.9696 22.7266C18.6742 22.8976 18.3389 22.9876 17.9975 22.9876C17.6562 22.9876 17.3209 22.8976 17.0255 22.7266C16.73 22.5556 16.485 22.3096 16.315 22.0136C16.145 21.7176 16.0561 21.382 16.0573 21.0407C16.0584 20.6993 16.1496 20.3643 16.3217 20.0695C16.4379 19.8705 16.4703 19.6335 16.4117 19.4106C16.3532 19.1876 16.2085 18.9971 16.0095 18.8809C15.8104 18.7647 15.5734 18.7323 15.3505 18.7908C15.1276 18.8494 14.9371 18.9941 14.8208 19.1931C14.4951 19.752 14.3225 20.387 14.3206 21.0339C14.3186 21.6809 14.4873 22.3169 14.8096 22.8778C15.1319 23.4387 15.5965 23.9046 16.1564 24.2287C16.7164 24.5527 17.3518 24.7233 17.9988 24.7233C18.6457 24.7233 19.2812 24.5527 19.8411 24.2287C20.401 23.9046 20.8656 23.4387 21.1879 22.8778C21.5102 22.3169 21.6789 21.6809 21.677 21.0339C21.675 20.387 21.5024 19.752 21.1767 19.1931C21.1191 19.0944 21.0426 19.008 20.9515 18.9388C20.8605 18.8697 20.7567 18.8192 20.6461 18.7903C20.5355 18.7613 20.4203 18.7545 20.3071 18.7702C20.1938 18.7858 20.0848 18.8237 19.9862 18.8815Z" fill="black"/>
<path d="M17.9999 21.0326C18.2304 21.0326 18.4514 20.9411 18.6144 20.7781C18.7774 20.6151 18.8689 20.3941 18.8689 20.1637V18.067C18.8689 17.8365 18.7774 17.6155 18.6144 17.4525C18.4514 17.2896 18.2304 17.198 17.9999 17.198C17.7695 17.198 17.5485 17.2896 17.3855 17.4525C17.2225 17.6155 17.131 17.8365 17.131 18.067V20.1637C17.131 20.3941 17.2225 20.6151 17.3855 20.7781C17.5485 20.9411 17.7695 21.0326 17.9999 21.0326Z" fill="black"/>
<path d="M11.9781 4.94164C12.0962 5.05477 12.2534 5.11792 12.4169 5.11792C12.5804 5.11792 12.7376 5.05477 12.8557 4.94164C14.2598 3.65564 16.0947 2.94233 17.9988 2.94233C19.9028 2.94233 21.7377 3.65564 23.1418 4.94164C23.2491 5.04225 23.3881 5.10235 23.5349 5.11164C23.6816 5.12093 23.8271 5.07882 23.9462 4.99254C23.9715 4.97478 23.9952 4.95484 24.017 4.93295L24.3894 4.56054L24.4055 4.5444C24.5205 4.42248 24.5825 4.25992 24.5779 4.09237C24.5732 3.92482 24.5023 3.76596 24.3807 3.65061C22.6407 2.0482 20.3617 1.15869 17.9963 1.15869C15.6308 1.15869 13.3519 2.0482 11.6119 3.65061L11.592 3.67047C11.5339 3.7298 11.4881 3.79998 11.4572 3.87702C11.4263 3.95405 11.4109 4.03642 11.4118 4.11943C11.4127 4.20243 11.43 4.28444 11.4626 4.36076C11.4952 4.43709 11.5426 4.50624 11.6019 4.56426L11.9781 4.94164Z" fill="black"/>
<path d="M13.8625 6.37824L13.834 6.40555C13.776 6.46514 13.7303 6.5356 13.6996 6.61288C13.6689 6.69017 13.6537 6.77275 13.655 6.8559C13.6562 6.93906 13.6739 7.02114 13.707 7.09745C13.74 7.17376 13.7878 7.24279 13.8476 7.30059L14.22 7.66307C14.2338 7.6768 14.2487 7.68927 14.2647 7.70031C14.3829 7.79546 14.5312 7.84546 14.6828 7.84136C14.8345 7.83727 14.9798 7.77935 15.0927 7.67796C15.8996 6.97056 16.9358 6.58002 18.0088 6.57888C19.0819 6.57773 20.1189 6.96607 20.9272 7.67176C21.036 7.76808 21.1743 7.8245 21.3194 7.83172C21.4644 7.83894 21.6077 7.79653 21.7254 7.71148C21.7496 7.69418 21.7724 7.67509 21.7937 7.65438L22.1661 7.28196C22.1749 7.2746 22.1828 7.26627 22.1897 7.25714C22.3022 7.13357 22.3613 6.97052 22.3541 6.80355C22.3469 6.63658 22.274 6.47923 22.1512 6.36583C21.0082 5.35174 19.5325 4.79276 18.0045 4.79505C16.4765 4.79734 15.0025 5.36074 13.8625 6.37824Z" fill="black"/>
</svg>
