<svg width="36" height="36" viewBox="0 0 36 36" fill="none" xmlns="http://www.w3.org/2000/svg">
<path d="M30.3081 26.2424H29.5392V24.2686C29.5392 23.5734 28.9687 23.0024 28.2743 23.0024H26.3026V14.0893V13.9404C26.3026 13.6921 26.1041 13.4934 25.8561 13.4934H25.0377C24.7897 13.4934 24.5913 13.6921 24.5913 13.9404V14.7473V14.7597V23.0024H21.4414V14.7473V14.7348V13.9279C21.4414 13.6797 21.243 13.481 20.995 13.481H20.1765C19.9285 13.481 19.7301 13.6797 19.7301 13.9279V14.0769V22.99H16.5927V14.7597C16.5927 14.7472 16.5927 14.7348 16.5927 14.7224V13.9155C16.5927 13.6672 16.3942 13.4686 16.1462 13.4686H15.3278C15.0797 13.4686 14.8813 13.6672 14.8813 13.9155V14.0645V22.9776H11.7438V14.7224V14.0769V13.9279C11.7438 13.6797 11.5455 13.481 11.2975 13.481H10.479C10.231 13.481 10.0325 13.6797 10.0325 13.9279V14.0769V14.7224V22.9776H8.06079C7.36634 22.9776 6.79587 23.5486 6.79587 24.2438V26.2176H6.0394C5.56816 26.2176 5.18375 26.6024 5.18375 27.0741V27.4838C5.18375 27.732 5.38217 27.9307 5.63019 27.9307H30.7173C30.9653 27.9307 31.1638 27.732 31.1638 27.4838V27.0741C31.1638 26.6272 30.7793 26.2424 30.3081 26.2424ZM27.8403 26.2424H8.51959V24.7155H27.8403V26.2424Z" fill="black"/>
<path d="M30.754 9.55811L18.5887 3.43807C18.3282 3.31394 18.0306 3.31394 17.7826 3.43807L5.61721 9.55811C5.36919 9.65742 5.19559 9.9057 5.19559 10.1664V10.6133C5.19559 10.9733 5.49319 11.2712 5.85282 11.2712H6.82013V11.8299C6.82013 12.1899 7.11773 12.4878 7.47736 12.4878H28.9187C29.2783 12.4878 29.5759 12.1899 29.5759 11.8299V11.2712H30.5433C30.9029 11.2712 31.2005 10.9733 31.2005 10.6133V10.1664C31.1633 9.89329 31.002 9.64501 30.754 9.55811ZM27.8397 10.7623H8.51903V10.154L8.8167 9.98019L18.1794 5.23809L27.5917 9.9926L27.8397 10.154V10.7623Z" fill="black"/>
</svg>
