<svg width="36" height="36" viewBox="0 0 36 36" fill="none" xmlns="http://www.w3.org/2000/svg">
<path d="M29.4517 8.33118H12.9104C12.519 8.33183 12.1438 8.48751 11.867 8.76414C11.5901 9.04076 11.4341 9.4158 11.4331 9.80718V12.4414C10.43 12.4813 9.4771 12.891 8.758 13.5916C8.03889 14.2921 7.60441 15.234 7.53824 16.2357C7.47207 17.2375 7.77889 18.2283 8.39961 19.0173C9.02032 19.8064 9.91104 20.3378 10.9002 20.5094C11.8894 20.681 12.907 20.4804 13.7572 19.9465C14.6074 19.4126 15.2299 18.5829 15.5049 17.6174C15.7799 16.6519 15.688 15.6187 15.2468 14.7169C14.8056 13.8152 14.0463 13.1085 13.1152 12.7331V10.0132H29.2531V22.617H17.537C17.532 22.6088 17.5266 22.6009 17.5208 22.5934C16.8282 21.563 15.6215 20.9473 14.2933 20.9473C13.8598 20.9491 13.429 21.0148 13.0146 21.1422C12.1174 21.4112 11.161 21.4112 10.2637 21.1422C9.8484 21.0135 9.41621 20.9474 8.9814 20.9461C7.65436 20.9461 6.44774 21.5668 5.75381 22.5921C5.30745 23.255 5.06966 24.0362 5.07105 24.8353V26.325C5.07171 26.8008 5.26104 27.257 5.59753 27.5935C5.93402 27.93 6.39021 28.1193 6.86609 28.12H16.4098C16.6461 28.1197 16.88 28.0728 17.0981 27.982C17.3162 27.8912 17.5143 27.7583 17.681 27.5909C17.8477 27.4235 17.9798 27.2248 18.0697 27.0064C18.1596 26.7879 18.2055 26.5538 18.2048 26.3175V24.8279C18.2041 24.6479 18.19 24.4682 18.1626 24.2903H29.4517C29.8433 24.2897 30.2187 24.1338 30.4956 23.8569C30.7725 23.5801 30.9283 23.2047 30.929 22.8131V9.80718C30.928 9.4158 30.772 9.04076 30.4951 8.76414C30.2183 8.48751 29.8431 8.33183 29.4517 8.33118ZM13.9779 16.4597C13.9779 16.9225 13.8407 17.375 13.5836 17.7598C13.3265 18.1446 12.961 18.4445 12.5334 18.6216C12.1058 18.7987 11.6354 18.8451 11.1814 18.7548C10.7275 18.6645 10.3106 18.4416 9.98332 18.1144C9.65606 17.7871 9.4332 17.3702 9.34291 16.9162C9.25262 16.4623 9.29896 15.9918 9.47607 15.5642C9.65318 15.1367 9.9531 14.7712 10.3379 14.5141C10.7227 14.257 11.1751 14.1197 11.6379 14.1197C12.2583 14.1207 12.8529 14.3676 13.2915 14.8062C13.7301 15.2448 13.977 15.8394 13.9779 16.4597ZM16.5228 26.3175C16.5228 26.3475 16.5109 26.3762 16.4897 26.3974C16.4685 26.4186 16.4398 26.4305 16.4098 26.4305H6.86609C6.83613 26.4305 6.80739 26.4186 6.78621 26.3974C6.76502 26.3762 6.75312 26.3475 6.75312 26.3175V24.8279C6.7518 24.3636 6.88974 23.9095 7.14912 23.5244C7.53022 22.9583 8.21546 22.6219 8.9814 22.6219C9.29002 22.6282 9.5961 22.6792 9.89009 22.7734C10.4566 22.945 11.0461 23.0287 11.6379 23.0217C12.2298 23.0287 12.8193 22.945 13.3858 22.7734C13.6794 22.6793 13.985 22.6283 14.2933 22.6219C15.0604 22.6219 15.7457 22.9583 16.1268 23.5244C16.3862 23.9095 16.5241 24.3636 16.5228 24.8279V26.3175Z" fill="black"/>
<path d="M18.3389 16.6719L20.7211 18.6768C20.7939 18.7606 20.8832 18.8285 20.9833 18.8763C21.0835 18.9242 21.1924 18.9509 21.3033 18.9548H21.3344C21.5484 18.9547 21.7537 18.8699 21.9054 18.719L25.7773 15.4815L25.7698 16.9128C25.7695 17.0916 25.8399 17.2632 25.9658 17.3902C26.0916 17.5172 26.2626 17.5893 26.4414 17.5906H26.7691C26.9481 17.5902 27.1197 17.519 27.2463 17.3924C27.3728 17.2658 27.4441 17.0943 27.4444 16.9153L27.4556 13.3413C27.4553 13.1623 27.384 12.9907 27.2574 12.8642C27.1309 12.7376 26.9593 12.6663 26.7803 12.666L23.2088 12.6772C23.0296 12.6772 22.8577 12.7483 22.7309 12.8749C22.604 13.0015 22.5326 13.1733 22.5323 13.3525V13.6802C22.5326 13.8598 22.6042 14.0318 22.7313 14.1587C22.8583 14.2855 23.0305 14.3568 23.2101 14.3568L24.6265 14.3481L21.3753 16.955L18.9931 14.9464C18.9198 14.862 18.8298 14.7936 18.7289 14.7455C18.6279 14.6975 18.5181 14.6708 18.4063 14.6672C18.2945 14.6636 18.1832 14.6831 18.0793 14.7245C17.9754 14.766 17.8813 14.8284 17.8026 14.9079L16.7264 15.731C16.7617 15.9723 16.7796 16.2158 16.7797 16.4597C16.7796 16.9604 16.7064 17.4585 16.5625 17.9382L18.3389 16.6719Z" fill="black"/>
</svg>
