<svg width="36" height="36" viewBox="0 0 36 36" fill="none" xmlns="http://www.w3.org/2000/svg">
<path d="M9.2533 7.78841C9.37144 7.90191 9.52892 7.96529 9.69274 7.96529C9.85657 7.96529 10.014 7.90191 10.1322 7.78841C11.5367 6.50321 13.3715 5.79042 15.2752 5.79042C17.179 5.79042 19.0138 6.50321 20.4183 7.78841C20.5252 7.88911 20.6639 7.94939 20.8105 7.95891C20.9571 7.96842 21.1024 7.92657 21.2214 7.84055C21.2463 7.82193 21.2698 7.80207 21.2934 7.78097L21.6658 7.40855L21.6807 7.39241C21.7387 7.33243 21.7839 7.2614 21.8138 7.18355C21.8436 7.1057 21.8575 7.02264 21.8545 6.93931C21.8497 6.77207 21.7787 6.61359 21.6572 6.49862C19.9168 4.89639 17.6377 4.00702 15.2721 4.00702C12.9066 4.00702 10.6274 4.89639 8.88709 6.49862L8.86723 6.51724C8.75058 6.63737 8.68617 6.79875 8.68803 6.96618C8.68989 7.13362 8.75787 7.29352 8.87716 7.41103L9.2533 7.78841Z" fill="black"/>
<path d="M11.1377 9.22456L11.1103 9.25187C11.0523 9.31146 11.0067 9.38192 10.976 9.4592C10.9452 9.53648 10.9301 9.61907 10.9313 9.70222C10.9326 9.78537 10.9503 9.86746 10.9833 9.94377C11.0164 10.0201 11.0642 10.0891 11.124 10.1469L11.4964 10.5106C11.5097 10.524 11.5242 10.5361 11.5399 10.5466C11.6582 10.6421 11.8066 10.6923 11.9586 10.6882C12.1106 10.6841 12.2561 10.626 12.3691 10.5243C13.1767 9.81773 14.2133 9.4283 15.2863 9.4283C16.3594 9.4283 17.396 9.81773 18.2036 10.5243C18.312 10.6212 18.4504 10.6781 18.5956 10.6853C18.7409 10.6925 18.8843 10.6497 19.0018 10.564C19.0257 10.5464 19.0485 10.5273 19.07 10.5069L19.4425 10.1345L19.466 10.1097C19.5787 9.98608 19.6378 9.82287 19.6304 9.6558C19.6229 9.48872 19.5496 9.33142 19.4263 9.21835C18.2841 8.20341 16.8088 7.64333 15.2808 7.64447C13.7528 7.64562 12.2784 8.20791 11.1377 9.22456Z" fill="black"/>
<path d="M32.6595 19.532C32.0388 18.8989 31.1835 18.3539 30.1283 17.912C29.0837 17.4899 27.9941 17.1891 26.8809 17.0157C25.9076 16.2423 21.9539 13.4517 15.6899 13.4492C12.8061 13.4492 10.3395 13.5734 8.88711 13.798C7.78352 13.978 7.25097 14.0203 6.03939 15.6527C5.26477 16.6967 4.63787 17.5036 4.2667 18.231L4.22449 18.3303L4.20711 18.38C4.16612 18.534 4.13625 18.6909 4.11773 18.8492C4.09787 18.992 4.07801 19.1608 4.05691 19.3594C4.04698 19.455 4.03829 19.5456 4.03084 19.6276C3.92578 19.7302 3.82906 19.841 3.7416 19.959C3.34056 20.5061 3.13113 21.1702 3.14573 21.8484C3.14573 22.4852 3.28849 24.0568 4.5696 24.891C4.78144 25.0189 5.00509 25.1262 5.23746 25.2113C5.45008 25.7702 5.82442 26.2531 6.31269 26.5984C6.80097 26.9436 7.38104 27.1355 7.97888 27.1497C8.57672 27.1638 9.16521 26.9994 9.66924 26.6776C10.1733 26.3558 10.57 25.8911 10.8088 25.3429H25.0846C25.315 25.8692 25.6913 26.3186 26.169 26.6379C26.6467 26.9572 27.2059 27.1331 27.7803 27.1447C28.3548 27.1563 28.9206 27.0032 29.4108 26.7035C29.901 26.4038 30.2952 25.97 30.5467 25.4534C31.109 25.467 32.1059 25.4534 32.657 25.215C33.0417 25.0611 33.3641 24.7833 33.5732 24.4255C33.703 24.1902 33.792 23.9346 33.8363 23.6695C33.8994 23.2914 33.9273 22.9082 33.9195 22.5249C33.9195 21.9673 33.808 21.4152 33.5917 20.9013C33.3753 20.3873 33.0584 19.9217 32.6595 19.532ZM24.2901 17.3409C22.4392 17.6513 19.6797 17.7059 17.0194 17.65L16.8828 15.1909C19.4818 15.3437 22.0132 16.0785 24.2901 17.3409ZM15.135 15.1549L15.2765 17.6004C13.6466 17.5396 12.1482 17.4477 11.0372 17.3645L10.8535 15.3001C11.8975 15.2244 13.3151 15.1648 15.135 15.1549ZM8.97401 25.0636C8.76014 25.2778 8.47859 25.4113 8.17733 25.4413C7.87608 25.4712 7.57376 25.3957 7.32191 25.2278C7.07005 25.0598 6.88424 24.8096 6.79615 24.52C6.70805 24.2304 6.72312 23.9191 6.83878 23.6394C6.95445 23.3596 7.16355 23.1286 7.43046 22.9857C7.69736 22.8428 8.00555 22.7969 8.30251 22.8558C8.59946 22.9147 8.8668 23.0748 9.05897 23.3087C9.25113 23.5427 9.35623 23.836 9.35635 24.1387C9.35703 24.3105 9.32358 24.4807 9.25795 24.6395C9.19231 24.7983 9.0958 24.9424 8.97401 25.0636ZM28.7715 25.0636C28.5578 25.2766 28.2769 25.4089 27.9766 25.4381C27.6763 25.4673 27.3752 25.3915 27.1245 25.2236C26.8737 25.0557 26.689 24.8062 26.6016 24.5174C26.5142 24.2286 26.5297 23.9184 26.6453 23.6397C26.7609 23.361 26.9695 23.131 27.2356 22.9888C27.5017 22.8466 27.8089 22.8011 28.1048 22.8599C28.4008 22.9188 28.6672 23.0783 28.8586 23.3115C29.0501 23.5447 29.1549 23.837 29.1551 24.1387C29.1556 24.3106 29.122 24.4809 29.0561 24.6396C28.9903 24.7984 28.8935 24.9425 28.7715 25.0636ZM32.158 23.415C32.1475 23.4815 32.1239 23.5452 32.0885 23.6025C32.0539 23.6259 32.0158 23.6435 31.9755 23.6546C31.7707 23.7303 31.2766 23.7527 30.8322 23.7502C30.7426 23.0314 30.3969 22.3691 29.8585 21.8846C29.32 21.4001 28.625 21.1261 27.9008 21.1126C27.1766 21.0992 26.4718 21.3473 25.9158 21.8115C25.3598 22.2757 24.9897 22.9248 24.8736 23.6397H11.0186C10.9068 22.9791 10.578 22.3747 10.0842 21.922C9.59031 21.4692 8.9596 21.1941 8.29182 21.1401C7.62404 21.0862 6.95733 21.2564 6.39716 21.6239C5.837 21.9914 5.41536 22.5352 5.19897 23.1692C5.07084 22.9875 4.97702 22.7839 4.92215 22.5684C4.86683 22.333 4.84221 22.0914 4.84891 21.8496C4.84891 21.4027 4.98794 21.0539 5.25111 20.8193L5.2896 20.787L5.58628 20.4928C5.654 20.3795 5.69438 20.252 5.70422 20.1204V20.0993C5.70422 20.0534 5.71911 19.9205 5.73525 19.7529C5.75139 19.5854 5.77746 19.3085 5.80973 19.0776C5.81718 19.0131 5.82711 18.9535 5.83456 18.915C6.21699 18.2376 6.65681 17.5943 7.14918 16.9921C7.44339 16.6197 7.71525 16.2858 7.9387 16.0474C8.25335 15.7192 8.67724 15.5174 9.13042 15.4801L9.3787 18.2447C9.39662 18.4482 9.48572 18.639 9.63034 18.7834C9.77496 18.9278 9.96585 19.0166 10.1695 19.0342C10.4612 19.059 14.5875 19.4066 18.735 19.4066C21.7006 19.4066 24.675 19.2278 26.2627 18.6283C26.3161 18.6476 26.3714 18.6609 26.4278 18.668H26.4725L26.5705 18.6816C26.6599 18.6953 26.8002 18.7164 26.9814 18.7499C27.4474 18.837 27.9086 18.948 28.3631 19.0826C29.1439 19.3123 30.5839 19.8274 31.4492 20.7163C31.9805 21.26 32.2275 21.8335 32.23 22.515C32.2372 22.8167 32.213 23.1183 32.158 23.415Z" fill="black"/>
</svg>
