<svg width="36" height="36" viewBox="0 0 36 36" fill="none" xmlns="http://www.w3.org/2000/svg">
<path d="M9.29417 18.6989C7.87078 17.1442 7.0813 15.1127 7.0813 13.0047C7.0813 10.8968 7.87078 8.8653 9.29417 7.31052C9.39962 7.2007 9.45851 7.05435 9.45851 6.90211C9.45851 6.74986 9.39962 6.60351 9.29417 6.49369L8.88327 6.08279C8.82961 6.02758 8.76559 5.98348 8.69487 5.95302C8.62415 5.92256 8.54812 5.90634 8.47113 5.90528H8.4612C8.3098 5.90474 8.16433 5.96409 8.05651 6.07038L8.03541 6.09148C6.30154 7.97502 5.33911 10.4415 5.33911 13.0016C5.33911 15.5617 6.30154 18.0282 8.03541 19.9118C8.08815 19.9678 8.15144 20.0129 8.22165 20.0444C8.29185 20.0759 8.36759 20.0933 8.44451 20.0955C8.52144 20.0977 8.59804 20.0847 8.66992 20.0572C8.74181 20.0297 8.80756 19.9883 8.86341 19.9354L8.87955 19.9192L9.283 19.5096C9.38843 19.4016 9.44838 19.2573 9.45046 19.1065C9.45254 18.9556 9.39659 18.8097 9.29417 18.6989Z" fill="black"/>
<path d="M11.0023 17.4661C11.0573 17.5254 11.124 17.5727 11.1981 17.6052C11.2722 17.6377 11.3522 17.6545 11.4331 17.6547C11.5799 17.6563 11.7218 17.6021 11.8303 17.5033L11.8527 17.4822L12.2561 17.0713C12.3595 16.9637 12.4184 16.821 12.421 16.6718C12.4235 16.5225 12.3695 16.3779 12.2698 16.2669C11.4803 15.3646 11.0451 14.2065 11.0451 13.0076C11.0451 11.8088 11.4803 10.6506 12.2698 9.74839C12.3645 9.64241 12.4185 9.50621 12.4222 9.3641C12.4258 9.22199 12.3788 9.08321 12.2896 8.97252C12.278 8.96016 12.2655 8.94855 12.2524 8.93777L11.8551 8.52811C11.7471 8.41634 11.5991 8.35201 11.4436 8.34922C11.2881 8.34642 11.1379 8.4054 11.0259 8.51321L10.9974 8.54301C9.90492 9.77268 9.30194 11.3606 9.30286 13.0055C9.30377 14.6503 9.90852 16.2376 11.0023 17.4661Z" fill="black"/>
<path d="M27.7801 5.96066C27.8497 5.9924 27.9125 6.0376 27.9646 6.09366V6.0949C29.6978 7.97829 30.6597 10.4443 30.6597 13.0038C30.6597 15.5633 29.6978 18.0293 27.9646 19.9127L27.9447 19.9326C27.8896 19.9863 27.8244 20.0287 27.7528 20.0572C27.6813 20.0858 27.6048 20.0999 27.5278 20.0989C27.4508 20.0979 27.3747 20.0817 27.304 20.0512C27.2332 20.0207 27.1692 19.9766 27.1155 19.9214L26.717 19.5167C26.6102 19.4072 26.5499 19.2606 26.5487 19.1077C26.5476 18.9547 26.6056 18.8072 26.7108 18.6961C28.1345 17.1415 28.9241 15.1099 28.9241 13.0019C28.9241 10.8939 28.1345 8.86237 26.7108 7.30773C26.6073 7.19713 26.5505 7.05088 26.5521 6.89943C26.5537 6.74798 26.6137 6.60299 26.7195 6.49462L27.1217 6.08497L27.1403 6.06759C27.2482 5.96532 27.3914 5.90844 27.54 5.90869H27.5587C27.6352 5.91126 27.7104 5.92892 27.7801 5.96066Z" fill="black"/>
<path d="M23.7365 16.2619C23.635 16.374 23.5799 16.5205 23.5825 16.6717C23.585 16.8229 23.6449 16.9675 23.7501 17.0762L24.1461 17.4796C24.2005 17.5364 24.2658 17.5815 24.3382 17.6123C24.4105 17.643 24.4884 17.6587 24.567 17.6584C24.7203 17.6583 24.8676 17.5986 24.9779 17.4921L25.0039 17.4648C26.0971 16.2357 26.7009 14.6481 26.7009 13.0032C26.7009 11.3584 26.0971 9.77079 25.0039 8.54172C24.9524 8.48497 24.8901 8.43906 24.8206 8.40666C24.7511 8.37426 24.6759 8.35603 24.5992 8.35303H24.5719C24.4265 8.35257 24.2861 8.4066 24.1784 8.50448L24.1524 8.52931L23.7439 8.93772C23.6404 9.0455 23.5815 9.18844 23.5789 9.33787C23.5764 9.48729 23.6305 9.63215 23.7303 9.74337C24.5211 10.6446 24.9577 11.8024 24.9588 13.0014C24.96 14.2005 24.5256 15.3591 23.7365 16.2619Z" fill="black"/>
<path fill-rule="evenodd" clip-rule="evenodd" d="M20.0793 15.4578L20.0259 15.5025L26.7902 31.0632C26.817 31.1235 26.8315 31.1886 26.8329 31.2546C26.8343 31.3205 26.8225 31.3861 26.7982 31.4475C26.7739 31.5089 26.7377 31.5648 26.6915 31.612C26.6454 31.6592 26.5903 31.6967 26.5295 31.7224L25.8021 32.0389C25.7418 32.0658 25.6768 32.0804 25.6109 32.0818C25.545 32.0833 25.4794 32.0716 25.4181 32.0474C25.3567 32.0233 25.3008 31.9871 25.2535 31.9411C25.2063 31.8951 25.1687 31.8402 25.1429 31.7795L21.8272 24.1549H14.1728L10.8571 31.7795C10.8311 31.84 10.7933 31.8947 10.746 31.9404C10.6986 31.9862 10.6426 32.022 10.5813 32.0459C10.52 32.0699 10.4545 32.0813 10.3887 32.0797C10.3229 32.0781 10.258 32.0634 10.1979 32.0365L9.47049 31.7199C9.40968 31.6942 9.3546 31.6567 9.30846 31.6095C9.26233 31.5623 9.22606 31.5064 9.20179 31.445C9.17752 31.3837 9.16573 31.3181 9.1671 31.2521C9.16847 31.1861 9.18299 31.121 9.2098 31.0607L15.9703 15.5124L15.9157 15.4678C15.3939 15.0401 15.017 14.4618 14.8363 13.8118C14.6557 13.1618 14.6802 12.4719 14.9065 11.8364C15.1328 11.2009 15.5498 10.6508 16.1006 10.2612C16.6514 9.87169 17.3091 9.66177 17.9837 9.66017C18.6583 9.65856 19.3169 9.86533 19.8696 10.2522C20.4222 10.6391 20.8419 11.1873 21.0712 11.8217C21.3005 12.4561 21.3283 13.1459 21.1508 13.7968C20.9732 14.4476 20.599 15.0277 20.0793 15.4578ZM18.814 11.7211C18.5709 11.5582 18.2851 11.471 17.9925 11.4705C17.5999 11.4705 17.2232 11.6263 16.9453 11.9038C16.6674 12.1812 16.511 12.5576 16.5103 12.9502C16.5103 13.2428 16.5971 13.5288 16.7595 13.7721C16.922 14.0154 17.153 14.205 17.4232 14.3171C17.6935 14.4292 17.9909 14.4586 18.2778 14.4017C18.5648 14.3448 18.8285 14.2041 19.0355 13.9974C19.2425 13.7907 19.3837 13.5273 19.441 13.2404C19.4984 12.9536 19.4695 12.6561 19.3579 12.3857C19.2462 12.1153 19.057 11.884 18.814 11.7211ZM17.6338 16.1927L14.9537 22.3562L21.0476 22.3574L18.3674 16.1927L18.2967 16.2027C18.0997 16.2281 17.9003 16.2281 17.7033 16.2027L17.6338 16.1927Z" fill="black"/>
</svg>
