<svg width="36" height="36" viewBox="0 0 36 36" fill="none" xmlns="http://www.w3.org/2000/svg">
<path d="M30.3148 27.1115C30.3272 27.1115 30.3521 27.1115 30.3645 27.1115H30.3768L30.3892 27.1239C30.5258 27.4095 30.8485 27.5584 31.1589 27.4715L31.8293 27.2977C32.1769 27.1984 32.3879 26.8384 32.301 26.4908L27.2361 7.29913C27.1368 6.95155 26.7768 6.74051 26.4292 6.8274L25.7588 7.0012C25.4485 7.08809 25.2499 7.37361 25.2748 7.68396V7.69637L25.2623 7.70878C24.7657 8.03154 22.5809 8.61499 21.9105 8.61499C21.8981 8.61499 21.8733 8.61499 21.8609 8.61499H21.8484L21.8361 8.60258C21.6995 8.31706 21.3767 8.16809 21.0664 8.25499L20.607 8.37913V8.25499C20.607 7.51016 19.9988 6.88947 19.2415 6.88947H7.83318C7.08835 6.88947 6.46765 7.49775 6.46765 8.25499V27.6329C6.46765 28.3777 7.07593 28.9984 7.83318 28.9984H19.2415C19.9864 28.9984 20.607 28.3901 20.607 27.6329V11.8177L24.9891 28.4274C25.0885 28.775 25.4485 28.986 25.796 28.8991L26.4664 28.7253C26.7768 28.6384 26.9755 28.3529 26.9506 28.0426V28.0301L26.963 28.0177C27.4596 27.7074 29.6444 27.1115 30.3148 27.1115ZM12.6373 27.2357H8.23033V24.8398H12.6373V27.2357ZM12.6373 23.0522H8.23033V12.8605H12.6373V23.0522ZM12.6373 11.0853H8.23033V8.68947H12.6373V11.0853ZM18.8195 27.2357H14.4126V24.8398H18.8195V27.2357ZM18.8195 23.0522H14.4126V12.8605H18.8195V23.0522ZM18.8195 11.0853H14.4126V8.68947H18.8195V11.0853ZM26.5534 26.3543L26.5162 26.3667L26.5037 26.3295L22.2829 10.2784H22.3201C23.065 10.204 24.9768 9.68257 25.6595 9.38464L25.6968 9.37223L25.7092 9.40948L29.93 25.4605H29.8926C29.1478 25.535 27.2361 26.0564 26.5534 26.3543Z" fill="black"/>
</svg>
