<svg width="36" height="36" viewBox="0 0 36 36" fill="none" xmlns="http://www.w3.org/2000/svg">
<path fill-rule="evenodd" clip-rule="evenodd" d="M28.423 17.3079C28.8414 17.3087 29.2423 17.4753 29.5379 17.7713C29.8336 18.0673 29.9997 18.4685 30 18.8869V23.6239C30.0005 23.8314 29.9602 24.0371 29.8812 24.229C29.8022 24.421 29.6862 24.5955 29.5397 24.7426C29.3933 24.8897 29.2193 25.0065 29.0276 25.0863C28.836 25.1662 28.6306 25.2075 28.423 25.2079H27.458C27.3805 25.9028 27.0496 26.5447 26.5285 27.011C26.0074 27.4772 25.3327 27.735 24.6335 27.735C23.9343 27.735 23.2596 27.4772 22.7385 27.011C22.2174 26.5447 21.8865 25.9028 21.809 25.2079H14.193C14.1155 25.9028 13.7846 26.5447 13.2635 27.011C12.7424 27.4772 12.0677 27.735 11.3685 27.735C10.6693 27.735 9.99461 27.4772 9.47351 27.011C8.95241 26.5447 8.62148 25.9028 8.54401 25.2079H7.57901C7.37126 25.2077 7.16559 25.1666 6.97375 25.0869C6.78191 25.0072 6.60767 24.8905 6.46101 24.7433C6.31434 24.5962 6.19813 24.4216 6.11903 24.2295C6.03993 24.0374 5.99948 23.8316 6.00001 23.6239V18.8869C6.00027 18.4682 6.16671 18.0667 6.46278 17.7706C6.75884 17.4746 7.16031 17.3081 7.57901 17.3079H28.423ZM11.369 23.6239C11.1192 23.6239 10.8751 23.6979 10.6674 23.8366C10.4597 23.9754 10.2979 24.1726 10.2022 24.4033C10.1066 24.634 10.0815 24.8879 10.1302 25.1329C10.1789 25.3779 10.299 25.6029 10.4756 25.7796C10.6521 25.9563 10.8771 26.0766 11.122 26.1255C11.3669 26.1743 11.6208 26.1494 11.8516 26.054C12.0824 25.9586 12.2798 25.7968 12.4187 25.5893C12.5576 25.3817 12.6318 25.1376 12.632 24.8879C12.632 24.5528 12.499 24.2314 12.2621 23.9944C12.0253 23.7574 11.7041 23.6241 11.369 23.6239ZM24.633 23.6239C24.3834 23.6247 24.1397 23.6994 23.9325 23.8386C23.7254 23.9778 23.5641 24.1753 23.4691 24.4061C23.3741 24.6369 23.3496 24.8906 23.3987 25.1353C23.4478 25.38 23.5683 25.6047 23.745 25.781C23.9217 25.9573 24.1466 26.0772 24.3915 26.1258C24.6363 26.1743 24.89 26.1492 25.1206 26.0536C25.3511 25.9581 25.5482 25.7963 25.6869 25.5889C25.8257 25.3814 25.8998 25.1374 25.9 24.8879C25.9 24.7216 25.8672 24.557 25.8035 24.4035C25.7398 24.2499 25.6464 24.1104 25.5287 23.993C25.411 23.8756 25.2713 23.7826 25.1176 23.7192C24.9639 23.6559 24.7992 23.6235 24.633 23.6239ZM28.423 18.8869H7.57901V23.6239H8.82201C9.05712 23.1494 9.42011 22.7501 9.87005 22.4709C10.32 22.1917 10.839 22.0437 11.3685 22.0437C11.898 22.0437 12.417 22.1917 12.867 22.4709C13.3169 22.7501 13.6799 23.1494 13.915 23.6239H22.086C22.3211 23.1494 22.6841 22.7501 23.134 22.4709C23.584 22.1917 24.103 22.0437 24.6325 22.0437C25.162 22.0437 25.681 22.1917 26.131 22.4709C26.5809 22.7501 26.9439 23.1494 27.179 23.6239H28.422L28.423 18.8869Z" fill="black"/>
<path d="M12.757 11.279C12.8598 11.3775 12.9966 11.4325 13.139 11.4325C13.2814 11.4325 13.4182 11.3775 13.521 11.279C14.7426 10.1602 16.339 9.53961 17.9955 9.53961C19.652 9.53961 21.2484 10.1602 22.47 11.279C22.5633 11.3666 22.6843 11.419 22.8121 11.427C22.9399 11.4351 23.0665 11.3983 23.17 11.323C23.1918 11.3074 23.2125 11.2903 23.232 11.272L23.557 10.951L23.572 10.936C23.6217 10.8836 23.6606 10.822 23.6865 10.7545C23.7123 10.6871 23.7246 10.6153 23.7227 10.5431C23.7207 10.4709 23.7046 10.3999 23.6751 10.334C23.6456 10.268 23.6035 10.2086 23.551 10.159C22.0371 8.76469 20.0542 7.99072 17.996 7.99072C15.9378 7.99072 13.9549 8.76469 12.441 10.159L12.423 10.175C12.3208 10.2793 12.2642 10.4201 12.2657 10.5661C12.2672 10.7122 12.3267 10.8517 12.431 10.954L12.757 11.279Z" fill="black"/>
<path d="M14.399 12.5291L14.373 12.5521C14.2714 12.6571 14.2158 12.7982 14.2182 12.9442C14.2207 13.0903 14.281 13.2295 14.386 13.3311L14.707 13.6471C14.7185 13.6591 14.7317 13.6696 14.746 13.6781C14.8489 13.7612 14.978 13.8048 15.1102 13.8011C15.2424 13.7975 15.3689 13.7467 15.467 13.6581C16.1695 13.0435 17.0711 12.7048 18.0045 12.7048C18.9379 12.7048 19.8395 13.0435 20.542 13.6581C20.637 13.7434 20.7585 13.7933 20.886 13.7995C21.0135 13.8057 21.1392 13.7678 21.242 13.6921C21.2625 13.6768 21.2822 13.6604 21.301 13.6431L21.627 13.3221L21.648 13.3011C21.7456 13.1935 21.7969 13.0517 21.7905 12.9066C21.7841 12.7614 21.7207 12.6247 21.614 12.5261C20.6207 11.6409 19.3364 11.152 18.0059 11.1526C16.6754 11.1531 15.3916 11.6431 14.399 12.5291Z" fill="black"/>
</svg>
