<svg width="36" height="36" viewBox="0 0 36 36" fill="none" xmlns="http://www.w3.org/2000/svg">
<path fill-rule="evenodd" clip-rule="evenodd" d="M13.0126 12.8865C13.0126 12.5546 13.0126 12.2228 13.0955 11.8909H15.0039C15.0039 12.2228 15.0039 12.5546 15.0039 12.8865C15.0039 13.2184 15.0039 13.4673 15.0039 13.8822H13.0955C13.0955 13.5503 13.0126 13.2184 13.0126 12.8865ZM15.9165 8.2402C15.5846 8.90396 15.4187 9.65069 15.2528 10.4804H13.6763C14.1742 9.48475 14.9209 8.65505 15.9165 8.2402ZM16.4973 11.8909H20.065C20.065 12.2228 20.148 12.5546 20.148 12.8865C20.148 13.2184 20.148 13.5503 20.065 13.8822H16.4973C16.4973 13.5503 16.4144 13.2184 16.4144 12.8865C16.4973 12.5546 16.4973 12.3057 16.4973 11.8909ZM18.3227 7.57643C18.7375 7.57643 19.4842 8.57208 19.8991 10.3974H16.7462C17.1611 8.57208 17.9078 7.57643 18.3227 7.57643ZM21.3926 15.3756H22.969C22.4712 16.2883 21.7244 17.118 20.7288 17.6158C20.9777 16.9521 21.2266 16.2053 21.3926 15.3756ZM22.969 10.3974H21.3926C21.2266 9.56772 20.9777 8.82099 20.7288 8.15723C21.6415 8.65505 22.4712 9.48475 22.969 10.3974ZM23.4668 11.8909C23.5498 12.2228 23.5498 12.5546 23.5498 12.8865C23.5498 13.2184 23.5498 13.5503 23.4668 13.8822H21.5585C21.5585 13.5503 21.5585 13.2184 21.5585 12.8865C21.5585 12.5546 21.5585 12.3057 21.5585 11.8909H23.4668ZM18.3227 18.1137C17.9078 18.1137 17.1611 17.118 16.7462 15.2927H19.8991C19.4842 17.201 18.7375 18.1137 18.3227 18.1137ZM13.6763 15.3756H15.2528C15.4187 16.2053 15.6676 16.9521 15.9165 17.6158C14.9209 17.035 14.1742 16.2883 13.6763 15.3756ZM18.3227 19.6071C22.0563 19.6071 25.1262 16.5372 25.1262 12.8036C25.1262 9.0699 22.0563 6 18.3227 6C14.589 6 11.5191 9.0699 11.5191 12.8036C11.5191 16.5372 14.589 19.6071 18.3227 19.6071Z" fill="black"/>
<path fill-rule="evenodd" clip-rule="evenodd" d="M28.4451 23.5068C27.9472 22.5941 26.7856 22.1793 25.79 22.6771L22.2223 24.3365C22.0563 23.7557 21.6415 23.2579 21.0607 23.009L20.8948 22.926C20.6458 22.8431 13.4274 21.5155 13.2615 21.4326C13.0956 21.3496 12.8466 21.4326 12.6807 21.5155L8.36625 24.3365C8.20031 24.4195 8.11734 24.5854 8.03437 24.7514C7.9514 24.9173 8.03437 25.1662 8.11734 25.3322C8.20031 25.4981 8.36625 25.5811 8.53219 25.664C8.69813 25.747 8.94704 25.664 9.11298 25.5811L13.1785 22.926L20.5629 24.3365C20.8118 24.4195 20.8948 24.6684 20.8118 24.9173C20.7288 25.1662 20.4799 25.3322 20.231 25.2492L16.5803 24.5025C16.1655 24.4195 15.8336 24.5854 15.6676 25.0003C15.5847 25.4151 15.7506 25.83 16.1655 25.913L19.8161 26.6597C20.314 26.8256 20.8948 26.7427 21.3926 26.4937L26.5367 24.0876C26.6197 24.0046 26.7856 24.0046 26.8686 24.0876C26.9516 24.0876 27.1175 24.1706 27.1175 24.3365C27.2005 24.4195 27.2005 24.5854 27.1175 24.6684C27.1175 24.7514 26.9516 24.9173 26.8686 24.9173L20.7288 28.2361L13.6763 27.0745C13.5104 27.0745 13.3445 27.0745 13.1785 27.1575L11.1043 28.651C10.9383 28.7339 10.8554 28.8999 10.7724 29.0658C10.6894 29.2318 10.7724 29.4807 10.8554 29.6466C11.0213 29.8955 11.2702 30.0615 11.6021 29.9785C11.6851 29.9785 11.768 29.8955 11.934 29.8955L13.8423 28.568L20.8948 29.7296H20.9777C21.0607 29.7296 21.1437 29.7296 21.2266 29.6466L27.6154 26.1619C28.1132 25.913 28.4451 25.4981 28.611 25.0833C28.694 24.5025 28.694 24.0046 28.4451 23.5068Z" fill="black"/>
</svg>
