<svg width="36" height="36" viewBox="0 0 36 36" fill="none" xmlns="http://www.w3.org/2000/svg">
<path d="M16.3215 22.469H10.348C10.1175 22.469 9.89651 22.5605 9.73355 22.7235C9.57059 22.8865 9.47903 23.1075 9.47903 23.338C9.47903 23.5684 9.57059 23.7895 9.73355 23.9524C9.89651 24.1154 10.1175 24.2069 10.348 24.2069H16.3215C16.552 24.2069 16.773 24.1154 16.936 23.9524C17.0989 23.7895 17.1905 23.5684 17.1905 23.338C17.1905 23.1075 17.0989 22.8865 16.936 22.7235C16.773 22.5605 16.552 22.469 16.3215 22.469Z" fill="black"/>
<path d="M27.7089 8.14355H8.2912C7.51648 8.14454 6.77378 8.45273 6.22597 9.00054C5.67816 9.54834 5.36997 10.291 5.36899 11.0658V24.9345C5.36997 25.7092 5.67816 26.4519 6.22597 26.9997C6.77378 27.5475 7.51648 27.8557 8.2912 27.8567H27.7089C28.4836 27.8557 29.2263 27.5475 29.7741 26.9997C30.3219 26.4519 30.6301 25.7092 30.6311 24.9345V11.0658C30.6301 10.291 30.3219 9.54834 29.7741 9.00054C29.2263 8.45273 28.4836 8.14454 27.7089 8.14355ZM28.9502 24.9345C28.9502 25.2637 28.8194 25.5794 28.5866 25.8122C28.3538 26.045 28.0381 26.1758 27.7089 26.1758H8.2912C7.96196 26.1758 7.64621 26.045 7.41341 25.8122C7.1806 25.5794 7.04982 25.2637 7.04982 24.9345V11.0658C7.04982 10.7365 7.1806 10.4208 7.41341 10.188C7.64621 9.95517 7.96196 9.82438 8.2912 9.82438H27.7089C28.0381 9.82438 28.3538 9.95517 28.5866 10.188C28.8194 10.4208 28.9502 10.7365 28.9502 11.0658V24.9345Z" fill="black"/>
<path d="M25.6517 19.6621H10.348C10.1175 19.6621 9.89651 19.7537 9.73355 19.9166C9.57059 20.0796 9.47903 20.3006 9.47903 20.5311C9.47903 20.7615 9.57059 20.9826 9.73355 21.1455C9.89651 21.3085 10.1175 21.4 10.348 21.4H25.6517C25.8822 21.4 26.1032 21.3085 26.2662 21.1455C26.4291 20.9826 26.5207 20.7615 26.5207 20.5311C26.5207 20.3006 26.4291 20.0796 26.2662 19.9166C26.1032 19.7537 25.8822 19.6621 25.6517 19.6621Z" fill="black"/>
<path d="M25.6518 16.0413H19.6783C19.4479 16.0413 19.2268 16.1328 19.0639 16.2958C18.9009 16.4587 18.8094 16.6798 18.8094 16.9102C18.8094 17.1407 18.9009 17.3617 19.0639 17.5247C19.2268 17.6876 19.4479 17.7792 19.6783 17.7792H25.6518C25.8823 17.7792 26.1033 17.6876 26.2663 17.5247C26.4293 17.3617 26.5208 17.1407 26.5208 16.9102C26.5208 16.6798 26.4293 16.4587 26.2663 16.2958C26.1033 16.1328 25.8823 16.0413 25.6518 16.0413Z" fill="black"/>
<path d="M10.1472 17.8646H14.5926C14.7439 17.8643 14.889 17.804 14.996 17.697C15.103 17.5899 15.1633 17.4449 15.1636 17.2935V12.8457C15.1633 12.6943 15.103 12.5493 14.996 12.4423C14.889 12.3353 14.7439 12.275 14.5926 12.2747H10.1472C9.99576 12.2747 9.85051 12.3348 9.74342 12.4419C9.63633 12.549 9.57617 12.6942 9.57617 12.8457V17.2935C9.57617 17.445 9.63633 17.5902 9.74342 17.6973C9.85051 17.8044 9.99576 17.8646 10.1472 17.8646ZM13.2134 13.6203H14.9153V13.9927H13.5858V14.8828H14.9153V15.2552H13.5858V16.144H14.9153V16.5164H13.5858V17.6151H13.2134V13.6203ZM9.82445 16.1453H11.1527V15.2564H9.82445V14.884H11.1527V13.994H9.82445V13.6216H11.1527V12.5229H11.5251V17.6126H11.1527V16.514H9.82445V16.1453Z" fill="black"/>
</svg>
