<svg width="36" height="36" viewBox="0 0 36 36" fill="none" xmlns="http://www.w3.org/2000/svg">
<path d="M22.5 12H13.5C12.6562 12 12 12.7031 12 13.5V22.5C12 23.3438 12.6562 24 13.5 24H22.5C23.2969 24 24 23.3438 24 22.5V13.5C24 12.7031 23.2969 12 22.5 12ZM22.5 22.5H13.5V13.5H22.5V22.5ZM29.25 18.75C29.625 18.75 30 18.4219 30 18C30 17.625 29.625 17.25 29.25 17.25H27V14.25H29.25C29.625 14.25 30 13.9219 30 13.5C30 13.125 29.625 12.75 29.25 12.75H27V12C27 10.3594 25.6406 9 24 9H23.25V6.75C23.25 6.375 22.875 6 22.5 6C22.0781 6 21.75 6.375 21.75 6.75V9H18.75V6.75C18.75 6.375 18.375 6 18 6C17.5781 6 17.25 6.375 17.25 6.75V9H14.25V6.75C14.25 6.375 13.875 6 13.5 6C13.0781 6 12.75 6.375 12.75 6.75V9H12C10.3125 9 9 10.3594 9 12V12.75H6.75C6.32812 12.75 6 13.125 6 13.5C6 13.9219 6.32812 14.25 6.75 14.25H9V17.25H6.75C6.32812 17.25 6 17.625 6 18C6 18.4219 6.32812 18.75 6.75 18.75H9V21.75H6.75C6.32812 21.75 6 22.125 6 22.5C6 22.9219 6.32812 23.25 6.75 23.25H9V24C9 25.6875 10.3125 27 12 27H12.75V29.25C12.75 29.6719 13.0781 30 13.5 30C13.875 30 14.25 29.6719 14.25 29.25V27H17.25V29.25C17.25 29.6719 17.5781 30 18 30C18.375 30 18.75 29.6719 18.75 29.25V27H21.75V29.25C21.75 29.6719 22.0781 30 22.5 30C22.875 30 23.25 29.6719 23.25 29.25V27H24C25.6406 27 27 25.6875 27 24V23.25H29.25C29.625 23.25 30 22.9219 30 22.5C30 22.125 29.625 21.75 29.25 21.75H27V18.75H29.25ZM25.5 24C25.5 24.8438 24.7969 25.5 24 25.5H12C11.1562 25.5 10.5 24.8438 10.5 24V12C10.5 11.2031 11.1562 10.5 12 10.5H24C24.7969 10.5 25.5 11.2031 25.5 12V24Z" fill="black"/>
</svg>
