<svg width="36" height="36" viewBox="0 0 36 36" fill="none" xmlns="http://www.w3.org/2000/svg">
<path d="M13.1269 11.2981C14.1364 12.1172 15.3365 12.6679 16.6158 12.8992V6.07338L18.006 5.27124L19.395 6.07338V12.8992C20.6746 12.6676 21.875 12.117 22.8851 11.2981L25.4089 12.7579C23.4367 14.7091 20.7743 15.8035 18 15.8035C15.2257 15.8035 12.5633 14.7091 10.5911 12.7579L13.1269 11.2981ZM16.1941 28.7289C16.8974 26.0445 16.5132 23.1911 15.1248 20.7884C13.7364 18.3858 11.4561 16.628 8.77922 15.8968V18.8174C9.99365 19.2821 11.0711 20.0459 11.9117 21.0379L6 24.4508V26.0562L7.39015 26.854L13.3008 23.4411C13.7401 24.6648 13.8631 25.9797 13.6583 27.2637L16.1941 28.7289ZM27.2262 15.8968C24.5507 16.6296 22.2721 18.388 20.8851 20.7905C19.4981 23.1929 19.1146 26.0454 19.8179 28.7289L22.3471 27.2681C22.1428 25.9841 22.2658 24.6693 22.7047 23.4454L28.6109 26.854L30 26.0518V24.4508L24.0883 21.0379C24.9291 20.0461 26.0065 19.2824 27.2208 18.8174L27.2262 15.8968Z" fill="black"/>
</svg>
