<svg width="36" height="36" viewBox="0 0 36 36" fill="none" xmlns="http://www.w3.org/2000/svg">
<path d="M24.0062 9.83474H23.9852V7.47713C23.9845 7.08562 23.8286 6.71034 23.5517 6.43349C23.2749 6.15665 22.8996 6.00079 22.5081 6H13.4844C13.0928 6.00053 12.7174 6.15632 12.4405 6.43322C12.1636 6.71012 12.0077 7.08554 12.0072 7.47713V9.82977H11.9862C11.1443 10.004 10.3879 10.4627 9.8443 11.1288C9.30066 11.7949 9.00288 12.6278 9.00098 13.4876V22.5113C9.00307 23.3711 9.30094 24.2039 9.84454 24.87C10.3881 25.5361 11.1444 25.9949 11.9862 26.1692H12.0072V28.5228C12.0077 28.9144 12.1636 29.2899 12.4405 29.5668C12.7174 29.8437 13.0928 29.9995 13.4844 30H22.5081C22.8996 29.9992 23.2749 29.8433 23.5517 29.5665C23.8286 29.2896 23.9845 28.9144 23.9852 28.5228V26.1692H24.0062C24.848 25.9947 25.6041 25.5359 26.1477 24.8698C26.6913 24.2038 26.9892 23.371 26.9915 22.5113V13.4876C26.9881 12.6288 26.6896 11.7972 26.1462 11.1322C25.6027 10.4672 24.8472 10.0091 24.0062 9.83474ZM22.5331 26.2461V28.5548H13.4574V26.2461H22.5331ZM13.4574 9.7558V7.44615H22.5331V9.7558H13.4574ZM25.5413 13.4886V22.5124C25.5395 23.1172 25.2984 23.6967 24.8707 24.1244C24.443 24.5521 23.8635 24.7932 23.2586 24.795H12.7328C12.1279 24.7934 11.5482 24.5524 11.1205 24.1247C10.6927 23.697 10.4517 23.1173 10.4501 22.5124V13.4886C10.4517 12.8837 10.6927 12.304 11.1205 11.8763C11.5482 11.4485 12.1279 11.2075 12.7328 11.2059H23.2597C23.8652 11.2078 24.4453 11.4494 24.8731 11.878C25.3009 12.3065 25.5415 12.8871 25.5423 13.4926L25.5413 13.4886Z" fill="black"/>
<path d="M21.2478 15.0273H20.8361C20.7853 15.0273 20.7441 15.0685 20.7441 15.1193V20.8889C20.7441 20.9397 20.7853 20.9809 20.8361 20.9809H21.2478C21.2986 20.9809 21.3398 20.9397 21.3398 20.8889V15.1193C21.3398 15.0685 21.2986 15.0273 21.2478 15.0273Z" fill="black"/>
<path d="M20.0567 15.0273H19.6449C19.5941 15.0273 19.553 15.0685 19.553 15.1193V20.8889C19.553 20.9397 19.5941 20.9809 19.6449 20.9809H20.0567C20.1075 20.9809 20.1486 20.9397 20.1486 20.8889V15.1193C20.1486 15.0685 20.1075 15.0273 20.0567 15.0273Z" fill="black"/>
<path d="M18.8652 15.0273H17.8588C17.808 15.0273 17.7668 15.0685 17.7668 15.1193V20.8889C17.7668 20.9397 17.808 20.9809 17.8588 20.9809H18.8652C18.916 20.9809 18.9572 20.9397 18.9572 20.8889V15.1193C18.9572 15.0685 18.916 15.0273 18.8652 15.0273Z" fill="black"/>
<path d="M23.6285 15.0273H22.6221C22.5713 15.0273 22.5302 15.0685 22.5302 15.1193V20.8889C22.5302 20.9397 22.5713 20.9809 22.6221 20.9809H23.6285C23.6793 20.9809 23.7205 20.9397 23.7205 20.8889V15.1193C23.7205 15.0685 23.6793 15.0273 23.6285 15.0273Z" fill="black"/>
<path d="M14.4089 17.3883L14.237 17.3393C13.5174 17.1394 13.3455 17.0295 13.3455 16.7626C13.3455 16.5628 13.4654 16.3629 13.8332 16.3629C13.9559 16.3441 14.0813 16.3698 14.1868 16.4352C14.2923 16.5006 14.371 16.6014 14.4089 16.7197C14.4189 16.7486 14.4268 16.7766 14.4328 16.8036C14.4388 16.8306 14.4508 16.8506 14.4818 16.8506H15.7191C15.7275 16.8497 15.7357 16.8472 15.7431 16.8431C15.7505 16.8391 15.7571 16.8336 15.7624 16.827C15.7677 16.8204 15.7716 16.8128 15.774 16.8047C15.7763 16.7966 15.777 16.788 15.776 16.7796C15.7396 16.4346 15.5824 16.1135 15.3323 15.873C15.0821 15.6326 14.7551 15.4882 14.4089 15.4654V14.7658C14.4089 14.5959 14.3799 14.5659 14.209 14.5659H13.5254C13.3555 14.5659 13.3255 14.5949 13.3255 14.7658V15.4594C12.9508 15.4907 12.6011 15.6597 12.3438 15.9338C12.0865 16.2079 11.9399 16.5677 11.9323 16.9435C11.9323 17.6091 12.2211 18.1048 13.3255 18.4726C13.4324 18.5086 13.5493 18.5436 13.6743 18.5776C14.1 18.6925 14.3139 18.7945 14.4068 18.9384C14.4507 19.0116 14.4722 19.0959 14.4688 19.1812C14.4708 19.2622 14.4492 19.342 14.4068 19.4111C14.3479 19.4847 14.2709 19.5419 14.1833 19.5769C14.0958 19.6119 14.0006 19.6237 13.9071 19.611C13.7977 19.6177 13.6882 19.5985 13.5875 19.5551C13.4868 19.5117 13.3978 19.4453 13.3275 19.3611C13.2714 19.2887 13.2297 19.2063 13.2045 19.1183C13.2012 19.105 13.1939 19.0932 13.1835 19.0844C13.1731 19.0756 13.1602 19.0703 13.1466 19.0693C13.1146 19.0693 11.9183 19.0693 11.8663 19.0693C11.8144 19.0693 11.8324 19.0953 11.8324 19.1082C11.8729 19.4837 12.0462 19.8323 12.3211 20.0912C12.596 20.3502 12.9543 20.5024 13.3315 20.5205V21.243C13.3315 21.4129 13.3594 21.4429 13.5313 21.4429H14.215C14.3849 21.4429 14.4148 21.4139 14.4148 21.243V20.5324C14.8161 20.5274 15.199 20.3638 15.4799 20.0772C15.7609 19.7907 15.9169 19.4046 15.914 19.0033C15.909 18.2648 15.5902 17.7451 14.4089 17.3883Z" fill="black"/>
</svg>
