<svg width="36" height="36" viewBox="0 0 36 36" fill="none" xmlns="http://www.w3.org/2000/svg">
<path d="M33.6724 16.8245L31.2456 12.3121L29.8589 13.0569C29.5647 13.2039 29.2248 13.2305 28.9113 13.1311C28.5978 13.0317 28.3354 12.8142 28.1796 12.5245C28.0238 12.2349 27.9869 11.896 28.0768 11.5796C28.1666 11.2633 28.3762 10.9943 28.661 10.8299L30.0489 10.085L27.622 5.57387C27.335 5.04038 26.848 4.64264 26.2679 4.46806C25.6878 4.29348 25.0622 4.35634 24.5284 4.64283L3.25741 16.0821C2.72414 16.3693 2.32667 16.8564 2.15233 17.4365C1.97799 18.0165 2.04104 18.6421 2.32762 19.1757L4.75452 23.6881L6.14114 22.9432C6.43696 22.7851 6.78349 22.7509 7.10452 22.8482C7.42555 22.9455 7.69478 23.1663 7.853 23.4621C8.01121 23.7574 8.04596 24.1034 7.94964 24.4242C7.85331 24.7451 7.63376 25.0147 7.33907 25.174L5.95121 25.9188L8.3781 30.4263C8.66506 30.9598 9.15209 31.3575 9.73216 31.5321C10.3122 31.7067 10.9379 31.6438 11.4716 31.3573L32.7427 19.918C33.2754 19.6303 33.6725 19.1432 33.8468 18.5634C34.021 17.9835 33.9584 17.3582 33.6724 16.8245ZM31.9233 18.3948L10.6523 29.8329C10.5884 29.8679 10.5181 29.8896 10.4456 29.8969C10.3731 29.9041 10.2998 29.8967 10.2302 29.8751C10.1604 29.8543 10.0954 29.8199 10.039 29.7739C9.98252 29.7279 9.93572 29.6711 9.90128 29.607L8.28748 26.6152C8.92868 26.2111 9.39273 25.5787 9.58601 24.8458C9.7793 24.1129 9.68743 23.334 9.32894 22.6662C8.97046 21.9983 8.37203 21.4913 7.65439 21.2474C6.93675 21.0034 6.15331 21.0408 5.4621 21.3518L3.84831 18.3601C3.7791 18.2304 3.76402 18.0787 3.80635 17.9379C3.84868 17.7972 3.94499 17.679 4.07424 17.609L25.3478 6.16725C25.4117 6.13229 25.482 6.11054 25.5545 6.10329C25.627 6.09604 25.7002 6.10343 25.7698 6.12504C25.8396 6.14584 25.9046 6.18024 25.9611 6.22626C26.0175 6.27227 26.0643 6.329 26.0988 6.39318L27.7126 9.3849C27.0664 9.78663 26.5975 10.4194 26.4012 11.1545C26.2049 11.8896 26.296 12.6718 26.6558 13.3422C27.0157 14.0126 27.6173 14.5208 28.3385 14.7634C29.0596 15.006 29.8461 14.9649 30.538 14.6483L32.1518 17.6413C32.1863 17.7058 32.2078 17.7764 32.2151 17.8492C32.2223 17.922 32.2151 17.9955 32.1939 18.0655C32.1726 18.1354 32.1378 18.2006 32.0914 18.2571C32.045 18.3136 31.9879 18.3604 31.9233 18.3948Z" fill="black"/>
<path d="M21.901 8.98161L21.0629 9.43594C20.9327 9.50651 20.8844 9.66926 20.9549 9.79945L21.5276 10.8559C21.5981 10.9861 21.7609 11.0344 21.8911 10.9638L22.7293 10.5095C22.8594 10.4389 22.9078 10.2762 22.8372 10.146L22.2646 9.08957C22.194 8.95937 22.0312 8.91104 21.901 8.98161Z" fill="black"/>
<path d="M23.5575 12.0359L22.7193 12.4903C22.5891 12.5608 22.5408 12.7236 22.6114 12.8538L23.184 13.9102C23.2546 14.0404 23.4173 14.0887 23.5475 14.0182L24.3857 13.5638C24.5159 13.4933 24.5642 13.3305 24.4936 13.2003L23.921 12.1439C23.8504 12.0137 23.6877 11.9654 23.5575 12.0359Z" fill="black"/>
<path d="M26.869 18.1504L26.0309 18.6048C25.9007 18.6753 25.8524 18.8381 25.9229 18.9683L26.4956 20.0247C26.5661 20.1549 26.7289 20.2032 26.8591 20.1327L27.6972 19.6783C27.8274 19.6078 27.8758 19.445 27.8052 19.3148L27.2326 18.2584C27.162 18.1282 26.9992 18.0799 26.869 18.1504Z" fill="black"/>
<path d="M25.2136 15.0932L24.3755 15.5475C24.2453 15.6181 24.197 15.7808 24.2675 15.911L24.8402 16.9675C24.9107 17.0977 25.0735 17.146 25.2037 17.0754L26.0418 16.6211C26.172 16.5505 26.2204 16.3878 26.1498 16.2576L25.5772 15.2011C25.5066 15.0709 25.3438 15.0226 25.2136 15.0932Z" fill="black"/>
<path d="M9.44251 15.5914L8.60435 16.0457C8.47416 16.1163 8.42582 16.279 8.49639 16.4092L9.06904 17.4656C9.13961 17.5958 9.30236 17.6442 9.43255 17.5736L10.2707 17.1193C10.4009 17.0487 10.4492 16.8859 10.3787 16.7557L9.80602 15.6993C9.73545 15.5691 9.5727 15.5208 9.44251 15.5914Z" fill="black"/>
<path d="M11.0991 18.6467L10.261 19.101C10.1308 19.1716 10.0825 19.3343 10.153 19.4645L10.7257 20.5209C10.7962 20.6511 10.959 20.6995 11.0892 20.6289L11.9273 20.1746C12.0575 20.104 12.1059 19.9412 12.0353 19.811L11.4627 18.7546C11.3921 18.6244 11.2293 18.5761 11.0991 18.6467Z" fill="black"/>
<path d="M14.4098 24.7615L13.5715 25.2156C13.4413 25.2862 13.393 25.4489 13.4635 25.5791L14.036 26.6357C14.1065 26.7659 14.2692 26.8142 14.3995 26.7437L15.2377 26.2895C15.3679 26.219 15.4163 26.0562 15.3457 25.926L14.7733 24.8695C14.7027 24.7393 14.54 24.6909 14.4098 24.7615Z" fill="black"/>
<path d="M12.7564 21.7024L11.9182 22.1568C11.788 22.2273 11.7397 22.3901 11.8103 22.5203L12.3829 23.5767C12.4535 23.7069 12.6162 23.7552 12.7464 23.6847L13.5846 23.2303C13.7148 23.1598 13.7631 22.997 13.6925 22.8668L13.1199 21.8104C13.0493 21.6802 12.8866 21.6319 12.7564 21.7024Z" fill="black"/>
</svg>
