<svg width="36" height="36" viewBox="0 0 36 36" fill="none" xmlns="http://www.w3.org/2000/svg">
<path d="M7.46948 22.5994C7.30438 22.5991 7.14293 22.6479 7.00555 22.7394C6.86818 22.831 6.76106 22.9613 6.69777 23.1138C6.63448 23.2663 6.61785 23.4341 6.65 23.596C6.68215 23.758 6.76163 23.9067 6.87837 24.0235C6.99511 24.1402 7.14386 24.2197 7.3058 24.2518C7.46773 24.284 7.63557 24.2674 7.78805 24.2041C7.94053 24.1408 8.0708 24.0337 8.16237 23.8963C8.25394 23.7589 8.30269 23.5974 8.30245 23.4323C8.30261 23.3229 8.28118 23.2145 8.23937 23.1134C8.19757 23.0122 8.13622 22.9204 8.05884 22.843C7.98146 22.7656 7.88957 22.7042 7.78844 22.6624C7.6873 22.6206 7.57891 22.5992 7.46948 22.5994Z" fill="black"/>
<path d="M10.1136 22.1399C9.91714 22.1399 9.72513 22.1981 9.56182 22.3073C9.3985 22.4164 9.27121 22.5715 9.19605 22.753C9.12088 22.9344 9.10122 23.1341 9.13954 23.3267C9.17785 23.5194 9.27244 23.6963 9.41133 23.8352C9.55021 23.9741 9.72717 24.0687 9.91981 24.107C10.1125 24.1453 10.3121 24.1257 10.4936 24.0505C10.6751 23.9753 10.8302 23.8481 10.9393 23.6847C11.0484 23.5214 11.1067 23.3294 11.1067 23.133C11.1067 22.8696 11.002 22.617 10.8158 22.4308C10.6295 22.2445 10.3769 22.1399 10.1136 22.1399Z" fill="black"/>
<path d="M28.5307 22.5994C28.3656 22.5991 28.2041 22.6479 28.0667 22.7394C27.9294 22.831 27.8223 22.9613 27.759 23.1138C27.6957 23.2663 27.679 23.4341 27.7112 23.596C27.7433 23.758 27.8228 23.9067 27.9396 24.0235C28.0563 24.1402 28.205 24.2197 28.367 24.2518C28.5289 24.284 28.6968 24.2674 28.8492 24.2041C29.0017 24.1408 29.132 24.0337 29.2236 23.8963C29.3151 23.7589 29.3639 23.5974 29.3636 23.4323C29.3638 23.3229 29.3424 23.2145 29.3006 23.1134C29.2588 23.0122 29.1974 22.9204 29.12 22.843C29.0426 22.7656 28.9508 22.7042 28.8496 22.6624C28.7485 22.6206 28.6401 22.5992 28.5307 22.5994Z" fill="black"/>
<path d="M25.8864 22.1399C25.69 22.1399 25.498 22.1981 25.3347 22.3073C25.1714 22.4164 25.0441 22.5715 24.9689 22.753C24.8938 22.9344 24.8741 23.1341 24.9124 23.3267C24.9507 23.5194 25.0453 23.6963 25.1842 23.8352C25.3231 23.9741 25.5001 24.0687 25.6927 24.107C25.8853 24.1453 26.085 24.1257 26.2665 24.0505C26.448 23.9753 26.6031 23.8481 26.7122 23.6847C26.8213 23.5214 26.8796 23.3294 26.8796 23.133C26.8796 22.8696 26.7749 22.617 26.5887 22.4308C26.4024 22.2445 26.1498 22.1399 25.8864 22.1399Z" fill="black"/>
<path d="M32.3727 9.31043L18.8976 8.63264V7.20009H19.4686C19.6991 7.20009 19.9201 7.10854 20.083 6.94558C20.246 6.78261 20.3376 6.56159 20.3376 6.33112C20.3376 6.10066 20.246 5.87963 20.083 5.71667C19.9201 5.55371 19.6991 5.46216 19.4686 5.46216H16.5315C16.4174 5.46216 16.3044 5.48463 16.1989 5.5283C16.0935 5.57197 15.9977 5.63598 15.917 5.71667C15.8363 5.79736 15.7723 5.89316 15.7287 5.99859C15.685 6.10401 15.6625 6.21701 15.6625 6.33112C15.6625 6.44524 15.685 6.55823 15.7287 6.66366C15.7723 6.76909 15.8363 6.86488 15.917 6.94558C15.9977 7.02627 16.0935 7.09027 16.1989 7.13394C16.3044 7.17761 16.4174 7.20009 16.5315 7.20009H17.1596V8.62768L3.68445 9.31043C3.57034 9.31614 3.45846 9.34427 3.35522 9.39321C3.25198 9.44215 3.15938 9.51095 3.08273 9.59567C3.00607 9.6804 2.94685 9.77939 2.90845 9.887C2.87006 9.99461 2.85323 10.1087 2.85893 10.2228C2.86464 10.337 2.89277 10.4488 2.94171 10.5521C2.99065 10.6553 3.05945 10.7479 3.14417 10.8246C3.2289 10.9012 3.32789 10.9604 3.4355 10.9988C3.54311 11.0372 3.65723 11.0541 3.77135 11.0484L17.1596 10.3768V11.6691C17.1596 11.736 17.168 11.8028 17.1845 11.8677L15.7233 12.3965C15.4451 12.5068 15.1979 12.6832 15.0032 12.9106C14.8086 13.1379 14.6722 13.4093 14.6061 13.7012C13.9172 13.7579 13.2549 13.9935 12.6849 14.3846C12.1149 14.7757 11.6568 15.3087 11.3559 15.9311C11.055 16.5535 10.9217 17.2436 10.9692 17.9332C11.0167 18.6229 11.2434 19.2882 11.6268 19.8634L6.45521 20.2346C6.22475 20.2428 6.00699 20.3423 5.84985 20.511C5.69271 20.6798 5.60905 20.9041 5.61728 21.1346C5.62551 21.365 5.72496 21.5828 5.89374 21.7399C6.06252 21.8971 6.28682 21.9807 6.51728 21.9725H6.58183L12.3927 21.548L12.4598 24.1089C12.4719 24.4779 12.6265 24.8279 12.891 25.0855C13.1555 25.343 13.5095 25.4882 13.8787 25.4906H14.7203V26.3521H13.5311C13.3273 26.3524 13.1302 26.4243 12.9741 26.5552C12.8179 26.6862 12.7128 26.8678 12.677 27.0684H12.6621C12.4316 27.0684 12.2106 27.1599 12.0477 27.3229C11.8847 27.4858 11.7931 27.7069 11.7931 27.9373V29.6008C11.7931 29.8312 11.8847 30.0523 12.0477 30.2152C12.2106 30.3782 12.4316 30.4697 12.6621 30.4697C12.8926 30.4697 13.1136 30.3782 13.2766 30.2152C13.4395 30.0523 13.5311 29.8312 13.5311 29.6008V28.0851H15.5942C15.8247 28.0851 16.0457 27.9935 16.2087 27.8305C16.3717 27.6676 16.4632 27.4466 16.4632 27.2161V25.4856H19.5393V27.2161C19.5393 27.4466 19.6309 27.6676 19.7939 27.8305C19.9568 27.9935 20.1779 28.0851 20.4083 28.0851H22.3821V29.5946C22.3821 29.825 22.4737 30.0461 22.6366 30.209C22.7996 30.372 23.0206 30.4635 23.2511 30.4635C23.4815 30.4635 23.7026 30.372 23.8655 30.209C24.0285 30.0461 24.12 29.825 24.12 29.5946V27.9311C24.121 27.714 24.0406 27.5044 23.8947 27.3435C23.7488 27.1827 23.548 27.0823 23.3318 27.0622C23.2967 26.8607 23.1917 26.678 23.0353 26.5463C22.8788 26.4146 22.681 26.3423 22.4765 26.3422H21.2773V25.4856H22.1189C22.4881 25.4832 22.8421 25.3381 23.1066 25.0805C23.3711 24.8229 23.5257 24.473 23.5378 24.104L23.6061 21.5206L30.0526 21.9675C30.0728 21.9688 30.0932 21.9688 30.1134 21.9675C30.3439 21.9754 30.568 21.8915 30.7366 21.7341C30.9051 21.5767 31.0043 21.3588 31.0122 21.1284C31.0201 20.8979 30.9361 20.6737 30.7787 20.5052C30.6214 20.3366 30.4035 20.2375 30.173 20.2296L24.3845 19.8274C24.7623 19.2518 24.9841 18.5878 25.028 17.9007C25.0719 17.2135 24.9364 16.5267 24.6348 15.9077C24.3333 15.2887 23.876 14.7587 23.3078 14.3697C22.7397 13.9807 22.0802 13.746 21.394 13.6888C21.3282 13.397 21.1919 13.1258 20.9972 12.8988C20.8024 12.6718 20.5551 12.496 20.2767 12.3866L18.8715 11.89C18.8909 11.8163 18.9009 11.7404 18.9013 11.6641V10.3731L32.2896 11.0397H32.3342C32.5647 11.0453 32.788 10.9591 32.9549 10.8001C33.1218 10.6411 33.2187 10.4223 33.2243 10.1918C33.2299 9.96135 33.1437 9.7381 32.9847 9.57118C32.8257 9.40426 32.6069 9.30734 32.3765 9.30174L32.3727 9.31043ZM12.9625 16.6011C13.1075 16.3258 13.3088 16.0841 13.5532 15.8916C13.7976 15.6991 14.0798 15.5602 14.3814 15.4838L13.8737 19.6139C13.3544 19.3335 12.9671 18.859 12.7964 18.2941C12.6257 17.7292 12.6854 17.1196 12.9625 16.5986V16.6011ZM13.87 19.6474V19.6933H13.8501L13.87 19.6474ZM14.1927 23.744L14.1356 21.579C14.3237 21.8018 14.5739 21.9635 14.8544 22.0433L17.2341 22.7049C17.7258 22.8257 18.2395 22.8257 18.7312 22.7049L21.1432 22.0408C21.4246 21.9609 21.6758 21.7988 21.8645 21.5753L21.8074 23.7415L14.1927 23.744ZM22.1376 19.6735V19.6449L22.1537 19.6735H22.1376ZM23.0413 16.5973C23.3185 17.119 23.3779 17.7291 23.2064 18.2944C23.035 18.8597 22.6466 19.3341 22.1264 19.6139L21.6187 15.4863C21.9197 15.5633 22.2013 15.7021 22.4456 15.8941C22.6899 16.086 22.8915 16.3268 23.0376 16.6011L23.0413 16.5973ZM19.6896 14.0525L20.4729 20.4245L18.2682 21.0315C18.0797 21.0688 17.8857 21.0688 17.6971 21.0315L15.5222 20.4257L16.3056 14.0525C16.3142 14.0373 16.3251 14.0235 16.3378 14.0115L17.7729 13.4914C17.9114 13.4604 18.0551 13.4604 18.1937 13.4914L19.6585 14.014C19.6714 14.0267 19.6826 14.0409 19.692 14.0562L19.6896 14.0525Z" fill="black"/>
</svg>
