<svg width="36" height="36" viewBox="0 0 36 36" fill="none" xmlns="http://www.w3.org/2000/svg">
<path d="M29.5746 7.91772H6.4254C6.12393 7.91805 5.83489 8.03796 5.62171 8.25114C5.40854 8.46431 5.28863 8.75335 5.2883 9.05483V23.2723C5.28863 23.5738 5.40854 23.8629 5.62171 24.076C5.83489 24.2892 6.12393 24.4091 6.4254 24.4094H17.1311V27.2299H9.64306C9.51499 27.2299 9.39216 27.2807 9.3016 27.3713C9.21104 27.4619 9.16016 27.5847 9.16016 27.7128V28.4923C9.16016 28.6205 9.211 28.7435 9.30152 28.8342C9.39205 28.925 9.51487 28.9762 9.64306 28.9765H26.357C26.4852 28.9762 26.608 28.925 26.6985 28.8342C26.789 28.7435 26.8399 28.6205 26.8399 28.4923V27.7128C26.8399 27.5847 26.789 27.4619 26.6984 27.3713C26.6079 27.2807 26.4851 27.2299 26.357 27.2299H18.869V24.4094H29.5746C29.8761 24.4091 30.1652 24.2892 30.3783 24.076C30.5915 23.8629 30.7114 23.5738 30.7117 23.2723V9.05483C30.7114 8.75335 30.5915 8.46431 30.3783 8.25114C30.1652 8.03796 29.8761 7.91805 29.5746 7.91772ZM28.9738 22.6715H7.02623V9.65566H28.9738V22.6715Z" fill="black"/>
</svg>
