<svg width="36" height="36" viewBox="0 0 36 36" fill="none" xmlns="http://www.w3.org/2000/svg">
<path d="M29.3251 25.8591H7.90636V8.90804C7.90473 8.7839 7.85435 8.66537 7.7661 8.57805C7.67784 8.49072 7.55879 8.4416 7.43463 8.44128H6.67491C6.5515 8.44288 6.43358 8.49254 6.34619 8.57969C6.2588 8.66685 6.20884 8.78464 6.20691 8.90804V26.7119C6.20724 26.938 6.29719 27.1547 6.45706 27.3146C6.61692 27.4744 6.83365 27.5644 7.05974 27.5647H29.3301C29.4554 27.5644 29.5755 27.5145 29.6642 27.4258C29.7528 27.3372 29.8027 27.2171 29.8031 27.0918V26.332C29.8029 26.2696 29.7904 26.2077 29.7662 26.1501C29.7421 26.0925 29.7068 26.0402 29.6624 25.9962C29.618 25.9523 29.5653 25.9175 29.5074 25.894C29.4496 25.8704 29.3876 25.8586 29.3251 25.8591Z" fill="black"/>
<path d="M27.9534 10.9827L27.3327 10.7443C27.1996 10.6945 27.0523 10.6992 26.9226 10.7573C26.7929 10.8154 26.6914 10.9222 26.64 11.0547L24.3186 17.1312L21.7936 15.7161C21.6228 15.6204 21.4246 15.5853 21.2313 15.6164C21.038 15.6475 20.8608 15.743 20.7285 15.8874L17.7318 19.1621L14.6483 15.5013C14.5684 15.3866 14.462 15.2928 14.3382 15.228C14.2144 15.1632 14.0767 15.1292 13.9369 15.1289C13.7974 15.1294 13.66 15.1635 13.5364 15.2283C13.4128 15.2931 13.3066 15.3868 13.2269 15.5013L9.35998 20.442C9.28023 20.5595 9.25022 20.7038 9.2765 20.8433C9.30278 20.9829 9.38323 21.1064 9.50026 21.1868L10.0502 21.5592C10.1677 21.639 10.312 21.669 10.4515 21.6427C10.5911 21.6164 10.7146 21.536 10.795 21.419L13.9543 17.5123L16.9336 21.0279C17.0084 21.1343 17.1061 21.2225 17.2194 21.286C17.3328 21.3496 17.459 21.387 17.5887 21.3953C17.7185 21.4036 17.8484 21.3828 17.969 21.3342C18.0896 21.2857 18.1977 21.2107 18.2855 21.1148L21.5454 17.5496L24.3459 19.1199C24.455 19.1818 24.5761 19.2193 24.7011 19.2299C24.826 19.2405 24.9518 19.224 25.0697 19.1814C25.1876 19.1388 25.2949 19.0712 25.3843 18.9833C25.4736 18.8953 25.5429 18.789 25.5873 18.6718L28.2674 11.6617C28.3135 11.5299 28.3065 11.3853 28.2479 11.2586C28.1893 11.1319 28.0837 11.0329 27.9534 10.9827Z" fill="black"/>
</svg>
