<svg width="36" height="36" viewBox="0 0 36 36" fill="none" xmlns="http://www.w3.org/2000/svg">
<path d="M29.8054 20.9918C29.5323 19.9242 29.1226 18.7448 28.6385 17.6772C28.3282 16.9945 27.9806 16.3241 27.3847 15.9393V11.3338C27.3847 10.7007 27.124 10.0676 26.6771 9.62067L22.6178 5.56134C22.1709 5.11444 21.5378 4.85376 20.9047 4.85376H11.0358C9.69511 4.85376 8.61511 5.94618 8.61511 7.27446V27.3973C8.61511 28.738 9.69511 29.818 11.0358 29.818H18.6578C19.0054 30.1035 19.4027 30.3642 19.8371 30.6125C20.222 30.8359 20.4951 31.0222 20.7558 31.3573C20.793 31.407 20.8302 31.469 20.8799 31.5311C21.0289 31.7546 21.2771 32.1394 21.6868 32.1891C21.8109 32.2015 21.9599 32.189 22.1088 32.1394L28.7751 29.7063C29.5944 29.4083 29.9047 27.2732 29.9295 27.0373C30.1033 26.0194 30.2026 25.287 30.2026 24.3063C30.2151 23.2138 30.0661 21.9973 29.8054 20.9918ZM21.2027 6.66616L21.2523 6.69099C21.302 6.71581 21.3516 6.75307 21.3889 6.80273L25.4481 10.8621C25.4854 10.8993 25.5227 10.949 25.5599 10.9986L25.5847 11.0483H21.2027V6.66616ZM11.0482 28.0677C10.6757 28.0677 10.3778 27.7697 10.3778 27.3973V7.27446C10.3778 6.90205 10.6757 6.60409 11.0482 6.60409H19.4647V11.5324C19.4647 12.2276 20.0358 12.7986 20.7185 12.7986H25.6468V15.6538C25.3613 15.7159 25.1006 15.8276 24.8151 16.0138C24.7654 15.9766 24.7034 15.9269 24.6289 15.8648C24.182 15.5173 23.6233 15.331 23.0647 15.3559C22.5309 15.3807 22.0219 15.6041 21.6123 15.989C21.4261 15.8524 21.2523 15.7407 21.0289 15.6414C20.2344 15.331 19.4275 15.4428 18.7571 15.9766C18.5337 15.4552 17.8137 13.7793 17.6772 13.5186C17.0316 12.2772 15.8275 11.8179 14.6854 12.3641C13.8041 12.7862 13.3696 13.5434 13.3944 14.5738C13.4068 14.8965 13.4688 15.2566 13.593 15.6538C13.593 15.6538 14.7723 19.2414 15.0951 20.2097C15.1199 20.2842 15.1447 20.3587 15.1696 20.4331V20.4455C15.182 20.4952 15.2068 20.5324 15.2192 20.5821C15.1323 20.5821 15.033 20.5821 14.9213 20.5821C14.0647 20.6442 13.3199 21.0538 12.8854 21.7242C12.5006 22.3076 12.4261 23.0276 12.6744 23.6359C12.7985 23.9214 12.9723 24.2938 13.2826 24.5918C13.5309 24.8401 13.8041 25.0635 14.0647 25.2869C14.251 25.4483 14.4496 25.6221 14.6358 25.7835C15.3185 26.4042 15.902 26.9628 16.4234 27.509C16.5972 27.6952 16.7709 27.8815 16.9447 28.0677H11.0482ZM28.4647 25.3242C28.2661 27.1366 27.9805 28.0801 27.8688 28.2042L22.0592 30.327C21.7116 29.7932 21.3268 29.4208 20.8675 29.1725C20.3833 28.9118 20.0233 28.6759 19.7006 28.4028C19.3406 28.1049 19.0178 27.7573 18.5833 27.2732C17.3047 25.858 16.6841 25.2497 14.6234 23.4373C14.4123 23.2511 14.1888 22.9655 14.3378 22.68C14.4868 22.4193 14.9089 22.2332 15.4054 22.2952C15.4923 22.3076 15.5917 22.3325 15.691 22.3573C16.3489 22.5683 16.7089 22.9283 17.1806 23.4497C17.3172 23.5986 17.5282 23.6235 17.702 23.5118C17.8509 23.4124 17.9626 23.2014 17.8882 23.0028C17.6771 22.1711 17.4909 21.6869 17.2675 21.0662C17.2054 20.8924 17.1433 20.7186 17.0688 20.5076C16.3861 18.6331 15.7282 16.8579 15.1323 14.8593C14.9834 14.3752 15.1696 14.0276 15.4303 13.9407C15.6413 13.8662 15.9641 13.9531 16.1751 14.4496C16.9447 16.1752 17.5654 17.6649 18.2606 19.44C18.484 20.0111 18.9806 20.16 19.3778 20.0111C19.7751 19.8621 20.0606 19.4028 19.8371 18.8069L19.7875 18.6704C19.713 18.4717 19.6509 18.2979 19.5889 18.0869C19.4399 17.6276 19.6882 17.3545 19.9364 17.2552C20.1971 17.1559 20.5696 17.1931 20.7806 17.64C20.8923 17.8759 20.9916 18.1366 21.0785 18.3849C21.153 18.5711 21.2275 18.7697 21.3019 18.9683C21.5006 19.4524 21.9971 19.5517 22.3571 19.4152C22.7295 19.2786 23.0027 18.869 22.8289 18.3724L22.7792 18.2359C22.7419 18.1241 22.7047 18.0124 22.6675 17.9131C22.5309 17.4662 22.7171 17.2179 22.9406 17.131C23.2261 17.0317 23.6234 17.1807 23.822 17.6524C23.8716 17.7641 23.9213 17.9131 23.9709 18.0745C24.0206 18.2235 24.0827 18.3848 24.1323 18.5214C24.3185 19.0055 24.7902 19.1173 25.1626 18.9931L25.1875 18.9807C25.5475 18.8441 25.8454 18.4593 25.6964 17.9504C25.6343 17.7766 25.5847 17.4786 25.8703 17.3297C26.0813 17.218 26.404 17.2428 26.5902 17.5035C26.9751 18.0373 27.3102 18.9931 27.5709 19.7752C28.1171 21.2773 28.6758 23.4125 28.4647 25.3242Z" fill="black"/>
</svg>
