<svg width="36" height="36" viewBox="0 0 36 36" fill="none" xmlns="http://www.w3.org/2000/svg">
<path d="M18.4221 27.0497H17.5779C17.3311 27.0497 17.131 27.2498 17.131 27.4966V30.8073C17.131 31.0542 17.3311 31.2542 17.5779 31.2542H18.4221C18.6689 31.2542 18.869 31.0542 18.869 30.8073V27.4966C18.869 27.2498 18.6689 27.0497 18.4221 27.0497Z" fill="black"/>
<path d="M30.6894 13.531H22.8327C22.7142 13.5307 22.6008 13.4835 22.517 13.3998C22.4333 13.316 22.3861 13.2025 22.3858 13.0841V5.19391C22.3854 5.07548 22.3382 4.962 22.2545 4.87826C22.1708 4.79453 22.0573 4.74734 21.9389 4.74701H21.0947C20.9763 4.74734 20.8628 4.79453 20.7791 4.87826C20.6953 4.962 20.6482 5.07548 20.6478 5.19391V14.8245C20.6482 14.943 20.6953 15.0564 20.7791 15.1402C20.8628 15.2239 20.9763 15.2711 21.0947 15.2714H30.6894C30.8078 15.2711 30.9213 15.2239 31.005 15.1402C31.0887 15.0564 31.1359 14.943 31.1363 14.8245V13.9804C31.1364 13.9215 31.125 13.8632 31.1026 13.8088C31.0803 13.7544 31.0474 13.7049 31.0059 13.6631C30.9644 13.6214 30.9151 13.5883 30.8608 13.5656C30.8065 13.5429 30.7482 13.5312 30.6894 13.531Z" fill="black"/>
<path d="M30.6893 20.7311H21.0947C20.9763 20.7314 20.8628 20.7786 20.7791 20.8623C20.6953 20.9461 20.6482 21.0596 20.6478 21.178V30.8086C20.6482 30.927 20.6953 31.0405 20.7791 31.1242C20.8628 31.208 20.9763 31.2552 21.0947 31.2555H21.9389C22.0573 31.2552 22.1708 31.208 22.2545 31.1242C22.3382 31.0405 22.3854 30.927 22.3858 30.8086V22.9134C22.3861 22.795 22.4333 22.6815 22.517 22.5978C22.6008 22.514 22.7142 22.4669 22.8327 22.4665H30.6893C30.8078 22.4662 30.9212 22.419 31.005 22.3353C31.0887 22.2515 31.1359 22.1381 31.1362 22.0196V21.1755C31.1353 21.0575 31.0878 20.9447 31.0041 20.8615C30.9205 20.7782 30.8073 20.7314 30.6893 20.7311Z" fill="black"/>
<path d="M24.4328 17.1062H21.1221C20.8753 17.1062 20.6752 17.3063 20.6752 17.5531V18.3972C20.6752 18.644 20.8753 18.8441 21.1221 18.8441H24.4328C24.6796 18.8441 24.8797 18.644 24.8797 18.3972V17.5531C24.8797 17.3063 24.6796 17.1062 24.4328 17.1062Z" fill="black"/>
<path d="M30.6894 17.1062H27.3786C27.1318 17.1062 26.9317 17.3063 26.9317 17.5531V18.3972C26.9317 18.644 27.1318 18.8441 27.3786 18.8441H30.6894C30.9362 18.8441 31.1363 18.644 31.1363 18.3972V17.5531C31.1363 17.3063 30.9362 17.1062 30.6894 17.1062Z" fill="black"/>
<path d="M14.9052 4.74701H14.0611C13.9427 4.74734 13.8292 4.79453 13.7454 4.87826C13.6617 4.962 13.6145 5.07548 13.6142 5.19391V13.0866C13.6139 13.205 13.5667 13.3185 13.4829 13.4022C13.3992 13.486 13.2857 13.5332 13.1673 13.5335H5.3106C5.19218 13.5338 5.0787 13.581 4.99496 13.6647C4.91122 13.7485 4.86404 13.862 4.86371 13.9804V14.8245C4.86404 14.943 4.91122 15.0564 4.99496 15.1402C5.0787 15.2239 5.19218 15.2711 5.3106 15.2714H14.9052C15.0236 15.2711 15.1371 15.2239 15.2209 15.1402C15.3046 15.0564 15.3518 14.943 15.3521 14.8245V5.19391C15.3518 5.07548 15.3046 4.962 15.2209 4.87826C15.1371 4.79453 15.0236 4.74734 14.9052 4.74701Z" fill="black"/>
<path d="M14.9052 20.7311H5.3106C5.19218 20.7314 5.0787 20.7786 4.99496 20.8623C4.91122 20.9461 4.86404 21.0596 4.86371 21.178V22.0221C4.86404 22.1405 4.91122 22.254 4.99496 22.3378C5.0787 22.4215 5.19218 22.4687 5.3106 22.469H13.1673C13.2857 22.4693 13.3992 22.5165 13.4829 22.6003C13.5667 22.684 13.6139 22.7975 13.6142 22.9159V30.8086C13.6145 30.927 13.6617 31.0405 13.7454 31.1242C13.8292 31.208 13.9427 31.2552 14.0611 31.2555H14.9052C15.0236 31.2552 15.1371 31.208 15.2209 31.1242C15.3046 31.0405 15.3518 30.927 15.3521 30.8086V21.1755C15.3511 21.0575 15.3037 20.9447 15.22 20.8615C15.1363 20.7782 15.0232 20.7314 14.9052 20.7311Z" fill="black"/>
<path d="M14.8792 17.1062H11.5685C11.3217 17.1062 11.1216 17.3063 11.1216 17.5531V18.3972C11.1216 18.644 11.3217 18.8441 11.5685 18.8441H14.8792C15.1261 18.8441 15.3261 18.644 15.3261 18.3972V17.5531C15.3261 17.3063 15.1261 17.1062 14.8792 17.1062Z" fill="black"/>
<path d="M8.62136 17.1062H5.3106C5.06379 17.1062 4.86371 17.3063 4.86371 17.5531V18.3972C4.86371 18.644 5.06379 18.8441 5.3106 18.8441H8.62136C8.86818 18.8441 9.06826 18.644 9.06826 18.3972V17.5531C9.06826 17.3063 8.86818 17.1062 8.62136 17.1062Z" fill="black"/>
<path d="M18.4221 11.0037H17.5779C17.3311 11.0037 17.131 11.2037 17.131 11.4506V14.7613C17.131 15.0081 17.3311 15.2082 17.5779 15.2082H18.4221C18.6689 15.2082 18.869 15.0081 18.869 14.7613V11.4506C18.869 11.2037 18.6689 11.0037 18.4221 11.0037Z" fill="black"/>
<path d="M18.4221 4.74701H17.5779C17.3311 4.74701 17.131 4.94709 17.131 5.19391V8.50466C17.131 8.75147 17.3311 8.95156 17.5779 8.95156H18.4221C18.6689 8.95156 18.869 8.75147 18.869 8.50466V5.19391C18.869 4.94709 18.6689 4.74701 18.4221 4.74701Z" fill="black"/>
<path d="M18.4221 20.7919H17.5779C17.3311 20.7919 17.131 20.992 17.131 21.2388V24.5496C17.131 24.7964 17.3311 24.9965 17.5779 24.9965H18.4221C18.6689 24.9965 18.869 24.7964 18.869 24.5496V21.2388C18.869 20.992 18.6689 20.7919 18.4221 20.7919Z" fill="black"/>
</svg>
