<svg width="36" height="36" viewBox="0 0 36 36" fill="none" xmlns="http://www.w3.org/2000/svg">
<path d="M18 4.6178C15.3533 4.6178 12.766 5.40264 10.5653 6.87309C8.36465 8.34353 6.64943 10.4335 5.63657 12.8788C4.62372 15.324 4.35871 18.0147 4.87506 20.6106C5.39141 23.2065 6.66593 25.5909 8.53744 27.4624C10.409 29.334 12.7934 30.6085 15.3893 31.1248C17.9851 31.6412 20.6758 31.3762 23.1211 30.3633C25.5663 29.3505 27.6563 27.6352 29.1268 25.4346C30.5972 23.2339 31.3821 20.6466 31.3821 17.9999C31.3781 14.4519 29.967 11.0504 27.4582 8.54167C24.9494 6.0329 21.5479 4.62174 18 4.6178ZM18 29.644C15.697 29.644 13.4457 28.9611 11.5309 27.6816C9.61599 26.4022 8.12353 24.5836 7.24221 22.4559C6.3609 20.3282 6.1303 17.987 6.5796 15.7282C7.02889 13.4695 8.13788 11.3947 9.76635 9.76622C11.3948 8.13776 13.4696 7.02876 15.7283 6.57947C17.9871 6.13018 20.3283 6.36077 22.456 7.24209C24.5837 8.12341 26.4023 9.61587 27.6817 11.5307C28.9612 13.4456 29.6441 15.6969 29.6441 17.9999C29.6405 21.087 28.4126 24.0466 26.2297 26.2295C24.0467 28.4125 21.0871 29.6404 18 29.644Z" fill="black"/>
<path d="M25.2931 12.8184C25.2544 12.7593 25.2043 12.7085 25.1458 12.6688C25.0874 12.6291 25.0217 12.6014 24.9524 12.5872C24.8832 12.573 24.8119 12.5727 24.7425 12.5861C24.6732 12.5996 24.6072 12.6266 24.5483 12.6657L19.44 16.036L18 16.9894L16.7648 16.2756L13.289 14.2695C13.1657 14.1991 13.0196 14.1802 12.8824 14.217C12.7453 14.2537 12.6282 14.3431 12.5566 14.4657L12.2239 15.0429C12.1535 15.1662 12.1346 15.3123 12.1713 15.4495C12.208 15.5866 12.2974 15.7037 12.42 15.7753L17.131 18.4965H17.141L17.5966 18.7596C17.7362 18.8406 17.8957 18.881 18.0571 18.8764C18.2185 18.8718 18.3754 18.8224 18.5102 18.7336L20.4008 17.4847L25.5091 14.1131C25.628 14.0344 25.7107 13.9118 25.7391 13.7721C25.7675 13.6324 25.7392 13.4872 25.6606 13.3683L25.2931 12.8184Z" fill="black"/>
</svg>
