<svg width="36" height="36" viewBox="0 0 36 36" fill="none" xmlns="http://www.w3.org/2000/svg">
<path d="M27.1366 7.34908H26.0442V5.88427C26.0442 5.63599 25.8456 5.43738 25.5973 5.43738H24.6415C24.3932 5.43738 24.1946 5.63599 24.1946 5.88427V7.34908H11.9423V5.88427C11.9423 5.63599 11.7436 5.43738 11.4954 5.43738H10.5396C10.2913 5.43738 10.0926 5.63599 10.0926 5.88427V7.34908H9.0002C7.49815 7.34908 6.28162 8.56563 6.28162 10.0677V26.3545C6.28162 27.8566 7.49815 29.0731 9.0002 29.0731H27.1366C28.6387 29.0731 29.8552 27.8566 29.8552 26.3545V10.0677C29.8428 8.56563 28.6263 7.34908 27.1366 7.34908ZM28.1173 26.3421C28.1173 26.8883 27.6704 27.3352 27.1242 27.3352H8.98784C8.44164 27.3352 7.99471 26.8883 7.99471 26.3421V14.0649H28.1049V26.3421H28.1173ZM28.1173 12.3518H8.00714V10.0677C8.00714 9.52149 8.454 9.0746 9.0002 9.0746H10.0926V10.5394C10.0926 10.7877 10.2913 10.9863 10.5396 10.9863H11.4954C11.7436 10.9863 11.9423 10.7877 11.9423 10.5394V9.0746H24.1946V10.5394C24.1946 10.7877 24.3932 10.9863 24.6415 10.9863H25.5973C25.8456 10.9863 26.0442 10.7877 26.0442 10.5394V9.0746H27.1366C27.6828 9.0746 28.1297 9.52149 28.1297 10.0677V12.3518H28.1173Z" fill="black"/>
<path d="M10.1295 17.9873H11.2096C11.4579 17.9873 11.6565 17.7887 11.6565 17.5404V16.4603C11.6565 16.2121 11.4579 16.0134 11.2096 16.0134H10.1295C9.88125 16.0134 9.68262 16.2121 9.68262 16.4603V17.5404C9.68262 17.7887 9.88125 17.9873 10.1295 17.9873Z" fill="black"/>
<path d="M13.829 17.9873H14.9089C15.1572 17.9873 15.3559 17.7887 15.3559 17.5404V16.4603C15.3559 16.2121 15.1572 16.0134 14.9089 16.0134H13.829C13.5807 16.0134 13.3821 16.2121 13.3821 16.4603V17.5404C13.3821 17.7887 13.5807 17.9873 13.829 17.9873Z" fill="black"/>
<path d="M17.5281 17.9873H18.6081C18.8563 17.9873 19.0549 17.7887 19.0549 17.5404V16.4603C19.0549 16.2121 18.8563 16.0134 18.6081 16.0134H17.5281C17.2798 16.0134 17.0812 16.2121 17.0812 16.4603V17.5404C17.0812 17.7887 17.2798 17.9873 17.5281 17.9873Z" fill="black"/>
<path d="M21.2275 17.9873H22.3075C22.5558 17.9873 22.7545 17.7887 22.7545 17.5404V16.4603C22.7545 16.2121 22.5558 16.0134 22.3075 16.0134H21.2275C20.9792 16.0134 20.7806 16.2121 20.7806 16.4603V17.5404C20.7806 17.7887 20.9792 17.9873 21.2275 17.9873Z" fill="black"/>
<path d="M24.927 17.9873H26.007C26.2552 17.9873 26.4539 17.7887 26.4539 17.5404V16.4603C26.4539 16.2121 26.2552 16.0134 26.007 16.0134H24.927C24.6787 16.0134 24.4801 16.2121 24.4801 16.4603V17.5404C24.4801 17.7887 24.6787 17.9873 24.927 17.9873Z" fill="black"/>
<path d="M10.1295 21.6869H11.2096C11.4579 21.6869 11.6565 21.4883 11.6565 21.24V20.16C11.6565 19.9117 11.4579 19.7131 11.2096 19.7131H10.1295C9.88125 19.7131 9.68262 19.9117 9.68262 20.16V21.24C9.68262 21.4883 9.88125 21.6869 10.1295 21.6869Z" fill="black"/>
<path d="M13.829 21.6869H14.9089C15.1572 21.6869 15.3559 21.4883 15.3559 21.24V20.16C15.3559 19.9117 15.1572 19.7131 14.9089 19.7131H13.829C13.5807 19.7131 13.3821 19.9117 13.3821 20.16V21.24C13.3821 21.4883 13.5807 21.6869 13.829 21.6869Z" fill="black"/>
<path d="M17.5281 21.6869H18.6081C18.8563 21.6869 19.0549 21.4883 19.0549 21.24V20.16C19.0549 19.9117 18.8563 19.7131 18.6081 19.7131H17.5281C17.2798 19.7131 17.0812 19.9117 17.0812 20.16V21.24C17.0812 21.4883 17.2798 21.6869 17.5281 21.6869Z" fill="black"/>
<path d="M21.2275 21.6869H22.3075C22.5558 21.6869 22.7545 21.4883 22.7545 21.24V20.16C22.7545 19.9117 22.5558 19.7131 22.3075 19.7131H21.2275C20.9792 19.7131 20.7806 19.9117 20.7806 20.16V21.24C20.7806 21.4883 20.9792 21.6869 21.2275 21.6869Z" fill="black"/>
<path d="M10.1295 25.3856H11.2096C11.4579 25.3856 11.6565 25.187 11.6565 24.9387V23.8588C11.6565 23.6105 11.4579 23.4119 11.2096 23.4119H10.1295C9.88125 23.4119 9.68262 23.6105 9.68262 23.8588V24.9387C9.68262 25.187 9.88125 25.3856 10.1295 25.3856Z" fill="black"/>
<path d="M13.829 25.3856H14.9089C15.1572 25.3856 15.3559 25.187 15.3559 24.9387V23.8588C15.3559 23.6105 15.1572 23.4119 14.9089 23.4119H13.829C13.5807 23.4119 13.3821 23.6105 13.3821 23.8588V24.9387C13.3821 25.187 13.5807 25.3856 13.829 25.3856Z" fill="black"/>
<path d="M17.5281 25.3856H18.6081C18.8563 25.3856 19.0549 25.187 19.0549 24.9387V23.8588C19.0549 23.6105 18.8563 23.4119 18.6081 23.4119H17.5281C17.2798 23.4119 17.0812 23.6105 17.0812 23.8588V24.9387C17.0812 25.187 17.2798 25.3856 17.5281 25.3856Z" fill="black"/>
<path d="M21.2275 25.3856H22.3075C22.5558 25.3856 22.7545 25.187 22.7545 24.9387V23.8588C22.7545 23.6105 22.5558 23.4119 22.3075 23.4119H21.2275C20.9792 23.4119 20.7806 23.6105 20.7806 23.8588V24.9387C20.7806 25.187 20.9792 25.3856 21.2275 25.3856Z" fill="black"/>
<path d="M24.927 21.6869H26.007C26.2552 21.6869 26.4539 21.4883 26.4539 21.24V20.16C26.4539 19.9117 26.2552 19.7131 26.007 19.7131H24.927C24.6787 19.7131 24.4801 19.9117 24.4801 20.16V21.24C24.4801 21.4883 24.6787 21.6869 24.927 21.6869Z" fill="black"/>
</svg>
