<svg width="36" height="36" viewBox="0 0 36 36" fill="none" xmlns="http://www.w3.org/2000/svg">
<path d="M31.1685 10.3234L31.1586 10.3035C31.1392 10.2658 31.1168 10.2296 31.0916 10.1955C29.0766 6.74389 25.78 4.22775 21.9191 3.19459C18.0582 2.16142 13.9455 2.69486 10.476 4.67881C10.444 4.69449 10.413 4.7119 10.3829 4.73095C10.3717 4.73095 10.363 4.7446 10.3518 4.75205C8.10202 6.07295 6.22733 7.94721 4.90592 10.1967C4.88459 10.2266 4.86511 10.2576 4.84757 10.2898C4.84757 10.2998 4.83888 10.3097 4.83392 10.3184C3.51833 12.6098 2.82743 15.2064 2.83033 17.8486C2.83033 17.9627 2.85281 18.0757 2.89648 18.1811C2.94015 18.2866 3.00415 18.3824 3.08485 18.463C3.16554 18.5437 3.26133 18.6077 3.36676 18.6514C3.47219 18.6951 3.58518 18.7176 3.6993 18.7176C3.81341 18.7176 3.92641 18.6951 4.03184 18.6514C4.13726 18.6077 4.23306 18.5437 4.31375 18.463C4.39444 18.3824 4.45845 18.2866 4.50212 18.1811C4.54579 18.0757 4.56826 17.9627 4.56826 17.8486C4.56576 15.7744 5.04691 13.7283 5.9735 11.8726L7.97461 12.9352C8.17795 13.0432 8.41582 13.066 8.636 12.9988C8.85618 12.9315 9.04066 12.7796 9.14895 12.5765C9.2026 12.4757 9.23589 12.3654 9.24689 12.2518C9.2579 12.1382 9.24642 12.0235 9.2131 11.9143C9.17979 11.8052 9.12529 11.7036 9.05273 11.6155C8.98016 11.5274 8.89095 11.4545 8.79019 11.4009L6.84868 10.3693C7.83792 8.89999 9.10571 7.63896 10.5803 6.65757L12.0414 8.94419C12.1027 9.04045 12.1825 9.12368 12.276 9.18913C12.3696 9.25458 12.4751 9.30096 12.5866 9.32563C12.698 9.3503 12.8133 9.35277 12.9257 9.3329C13.0381 9.31303 13.1455 9.27122 13.2418 9.20984C13.338 9.14846 13.4213 9.06873 13.4867 8.97518C13.5522 8.88164 13.5986 8.77612 13.6232 8.66465C13.6479 8.55318 13.6504 8.43795 13.6305 8.32552C13.6106 8.2131 13.5688 8.10569 13.5074 8.00943L12.0885 5.78984C13.6644 5.01382 15.378 4.55692 17.131 4.44543V6.76557C17.131 6.99603 17.2226 7.21705 17.3855 7.38002C17.5485 7.54298 17.7695 7.63453 18 7.63453C18.2305 7.63453 18.4515 7.54298 18.6144 7.38002C18.7774 7.21705 18.869 6.99603 18.869 6.76557V4.44543C20.7329 4.56291 22.5514 5.0704 24.2069 5.93508L22.932 8.02432C22.8108 8.22071 22.7726 8.45719 22.8258 8.68173C22.879 8.90626 23.0193 9.10048 23.2156 9.22163C23.412 9.34279 23.6485 9.38097 23.873 9.32778C24.0976 9.27458 24.2918 9.13437 24.413 8.93798L25.6965 6.84501C27.0494 7.79318 28.2173 8.98087 29.1426 10.3494L27.0546 11.3947C26.9505 11.4444 26.8573 11.5145 26.7805 11.6006C26.7037 11.6868 26.6449 11.7874 26.6074 11.8966C26.57 12.0057 26.5546 12.1213 26.5623 12.2364C26.57 12.3516 26.6005 12.4641 26.6521 12.5673C26.7037 12.6705 26.7754 12.7624 26.8629 12.8377C26.9504 12.9129 27.0521 12.9699 27.1619 13.0055C27.2717 13.041 27.3875 13.0543 27.5025 13.0446C27.6175 13.0348 27.7294 13.0023 27.8317 12.9489L30.0215 11.8527C30.9534 13.714 31.4376 15.7671 31.4354 17.8486C31.4354 18.0791 31.527 18.3001 31.6899 18.463C31.8529 18.626 32.0739 18.7176 32.3044 18.7176C32.5349 18.7176 32.7559 18.626 32.9189 18.463C33.0818 18.3001 33.1734 18.0791 33.1734 17.8486C33.1754 15.2079 32.484 12.613 31.1685 10.3234Z" fill="black"/>
<path d="M26.3681 15.2056L21.168 16.2496C20.7778 15.4771 20.1188 14.8737 19.3149 14.5531C18.511 14.2325 17.6177 14.2166 16.803 14.5085C15.9882 14.8004 15.3082 15.38 14.8909 16.1382C14.4735 16.8964 14.3476 17.7809 14.5368 18.6255C14.726 19.47 15.2172 20.2163 15.9181 20.724C16.619 21.2317 17.4813 21.4657 18.3427 21.3822C19.2042 21.2986 20.0054 20.9031 20.5956 20.2702C21.1859 19.6373 21.5245 18.8105 21.5479 17.9453L26.7095 16.91C26.9355 16.8647 27.1343 16.7315 27.2621 16.5397C27.3899 16.3479 27.4363 16.1131 27.391 15.8871C27.3458 15.6611 27.2126 15.4623 27.0207 15.3345C26.8289 15.2067 26.5942 15.1603 26.3681 15.2056ZM18 19.6609C17.6988 19.6613 17.4023 19.5867 17.1372 19.4438C16.8721 19.3008 16.6468 19.0941 16.4816 18.8422C16.3165 18.5903 16.2167 18.3013 16.1913 18.0012C16.166 17.7011 16.2158 17.3994 16.3363 17.1233C16.4568 16.8473 16.6442 16.6057 16.8815 16.4203C17.1188 16.2348 17.3987 16.1115 17.6956 16.0613C17.9926 16.0112 18.2974 16.0359 18.5825 16.1331C18.8675 16.2304 19.1238 16.3971 19.3283 16.6183L18.0335 16.8827C17.8226 16.9255 17.6351 17.045 17.5073 17.2181C17.3795 17.3912 17.3205 17.6056 17.3417 17.8197C17.3628 18.0339 17.4627 18.2325 17.6219 18.3773C17.7811 18.522 17.9884 18.6025 18.2036 18.6032C18.2611 18.603 18.3185 18.5972 18.3749 18.5859L19.7516 18.3103C19.6493 18.6969 19.4221 19.039 19.1053 19.2832C18.7885 19.5275 18.4 19.6602 18 19.6609Z" fill="black"/>
<path d="M2.2345 20.4666H5.21381V21.3603H3.19657V22.1797H5.10208V23.0734H3.19657V23.9672H5.32553V24.861H2.2345V20.4666Z" fill="black"/>
<path d="M30.9451 20.4666H33.8896V21.3603H31.9133V22.2541H33.7444V23.1479H31.9133V24.861H30.9451V20.4666Z" fill="black"/>
</svg>
