<svg width="36" height="36" viewBox="0 0 36 36" fill="none" xmlns="http://www.w3.org/2000/svg">
<path d="M19.9152 7H8.05641C7.51183 7.00207 6.99012 7.2193 6.60494 7.60429C6.21976 7.98928 6.00233 8.51085 6 9.05543V26.187C6.00078 26.7321 6.21772 27.2545 6.60323 27.6399C6.98874 28.0252 7.51135 28.2419 8.05641 28.2424H19.9152C20.4602 28.2419 20.9829 28.0252 21.3684 27.6399C21.7539 27.2545 21.9708 26.7321 21.9716 26.187V9.05543C21.9693 8.51085 21.7518 7.98928 21.3667 7.60429C20.9815 7.2193 20.4598 7.00207 19.9152 7ZM17.6091 10.9536H16.9515C16.8431 10.9539 16.7392 10.997 16.6626 11.0737C16.586 11.1503 16.5428 11.2542 16.5425 11.3626V13.589H7.47546V9.05543C7.47573 8.90153 7.53705 8.75403 7.64597 8.64529C7.75489 8.53656 7.90251 8.4755 8.05641 8.4755H19.9152C20.0691 8.4755 20.2167 8.53656 20.3256 8.64529C20.4345 8.75403 20.4959 8.90153 20.4961 9.05543V13.589H18.018V11.3626C18.0167 11.2549 17.9731 11.152 17.8966 11.0762C17.8201 11.0004 17.7168 10.9578 17.6091 10.9575V10.9536ZM7.47546 15.0645H16.5425V22.5637C16.5428 22.672 16.586 22.7759 16.6626 22.8525C16.7392 22.9292 16.8431 22.9723 16.9515 22.9726H17.6091C17.7175 22.9723 17.8213 22.9292 17.898 22.8525C17.9746 22.7759 18.0178 22.672 18.018 22.5637V15.0645H20.4961V26.187C20.4959 26.3409 20.4345 26.4884 20.3256 26.5971C20.2167 26.7059 20.0691 26.7669 19.9152 26.7669H8.05641C7.90251 26.7669 7.75489 26.7059 7.64597 26.5971C7.53705 26.4884 7.47573 26.3409 7.47546 26.187V15.0645Z" fill="black"/>
<path d="M27.8981 12.2109C27.8497 12.1595 27.7917 12.1183 27.7273 12.0895C27.6629 12.0607 27.5935 12.0448 27.523 12.0429C27.4524 12.041 27.3823 12.053 27.3164 12.0783C27.2506 12.1036 27.1903 12.1416 27.1392 12.1902L27.1265 12.203L26.8139 12.5205C26.7955 12.5397 26.7784 12.56 26.7627 12.5814C26.6899 12.6826 26.6544 12.8059 26.6623 12.9303C26.6702 13.0547 26.721 13.1725 26.806 13.2636C27.8952 14.4539 28.4993 16.0088 28.4993 17.6222C28.4993 19.2356 27.8952 20.7905 26.806 21.9808C26.7101 22.0809 26.6565 22.2142 26.6565 22.3528C26.6565 22.4915 26.7101 22.6248 26.806 22.7249L27.1156 23.0394C27.1647 23.0898 27.2231 23.1301 27.2877 23.1579C27.3523 23.1857 27.4218 23.2004 27.4921 23.2013C27.5624 23.2023 27.6322 23.1893 27.6974 23.1632C27.7627 23.1371 27.8222 23.0984 27.8725 23.0493L27.8883 23.0316C29.2463 21.5569 30.0001 19.6255 30.0001 17.6207C30.0001 15.616 29.2463 13.6846 27.8883 12.2099L27.8981 12.2109Z" fill="black"/>
<path d="M25.6056 14.1043C25.5098 13.9999 25.3766 13.9377 25.235 13.9314C25.0935 13.9252 24.9552 13.9753 24.8506 14.0709L24.83 14.0915L24.5174 14.409C24.4998 14.4269 24.4833 14.446 24.4682 14.4661C24.3962 14.5661 24.3604 14.6878 24.3668 14.8109C24.3733 14.9341 24.4215 15.0513 24.5036 15.1433C25.1021 15.8282 25.4314 16.7072 25.4303 17.6167C25.4292 18.5262 25.0978 19.4043 24.4977 20.0878C24.4117 20.1836 24.3626 20.3069 24.359 20.4356C24.3554 20.5643 24.3976 20.6901 24.4781 20.7906C24.4877 20.8034 24.4982 20.8156 24.5095 20.827L24.8162 21.1415C24.9156 21.2436 25.0514 21.3021 25.1939 21.3042C25.3364 21.3062 25.4738 21.2516 25.5761 21.1524L25.5987 21.1287C26.4604 20.1622 26.9372 18.9128 26.9385 17.6178C26.9398 16.3229 26.4654 15.0726 25.6056 14.1043Z" fill="black"/>
</svg>
