<svg width="36" height="36" viewBox="0 0 36 36" fill="none" xmlns="http://www.w3.org/2000/svg">
<path d="M28.3953 12.7651L23.4024 7.72133C23.1127 7.44362 22.7299 7.28385 22.3286 7.27319H9.01735C8.71587 7.27352 8.42684 7.39343 8.21366 7.60661C8.00048 7.81978 7.88058 8.10882 7.88025 8.4103V27.0906C7.88058 27.392 8.00048 27.6811 8.21366 27.8943C8.42684 28.1074 8.71587 28.2273 9.01735 28.2277H27.6976C27.9991 28.2273 28.2881 28.1074 28.5013 27.8943C28.7145 27.6811 28.8344 27.392 28.8347 27.0906V13.8351C28.8255 13.4364 28.6689 13.0552 28.3953 12.7651ZM18.5561 26.4897V23.6755C18.9673 23.4785 19.2993 23.1477 19.4977 22.7372C19.6961 22.3267 19.7492 21.861 19.6482 21.4164C19.5472 20.9718 19.2981 20.5747 18.9418 20.2903C18.5855 20.0058 18.1431 19.8509 17.6871 19.8509C17.2312 19.8509 16.7888 20.0058 16.4325 20.2903C16.0762 20.5747 15.8271 20.9718 15.7261 21.4164C15.6251 21.861 15.6781 22.3267 15.8766 22.7372C16.075 23.1477 16.407 23.4785 16.8182 23.6755V26.4897H9.61818V13.8277H12.991V15.4055C12.5798 15.6025 12.2478 15.9333 12.0494 16.3438C11.851 16.7543 11.7979 17.22 11.8989 17.6646C11.9999 18.1092 12.249 18.5063 12.6053 18.7907C12.9616 19.0752 13.404 19.2301 13.86 19.2301C14.3159 19.2301 14.7583 19.0752 15.1146 18.7907C15.4709 18.5063 15.72 18.1092 15.821 17.6646C15.922 17.22 15.869 16.7543 15.6705 16.3438C15.4721 15.9333 15.1401 15.6025 14.7289 15.4055V12.9562C14.7289 12.8421 14.7065 12.7291 14.6628 12.6237C14.6191 12.5183 14.5551 12.4225 14.4744 12.3418C14.3937 12.2611 14.2979 12.1971 14.1925 12.1534C14.0871 12.1097 13.9741 12.0873 13.86 12.0873H9.61818V9.01112H22.2343L27.0968 13.9233V17.3308H24.3496C24.1526 16.9197 23.8217 16.5877 23.4113 16.3892C23.0008 16.1908 22.5351 16.1377 22.0905 16.2388C21.6459 16.3398 21.2488 16.5889 20.9643 16.9452C20.6799 17.3015 20.525 17.7439 20.525 18.1998C20.525 18.6557 20.6799 19.0981 20.9643 19.4545C21.2488 19.8108 21.6459 20.0599 22.0905 20.1609C22.5351 20.2619 23.0008 20.2088 23.4113 20.0104C23.8217 19.812 24.1526 19.4799 24.3496 19.0688H27.0968V26.4897H18.5561Z" fill="black"/>
</svg>
