<svg width="36" height="36" viewBox="0 0 36 36" fill="none" xmlns="http://www.w3.org/2000/svg">
<path d="M11.8041 29.6119C11.9652 29.7089 12.1552 29.7465 12.3411 29.7182C12.527 29.6898 12.6972 29.5973 12.822 29.4567L26.3308 15.6973C26.4602 15.5661 26.5472 15.3989 26.5804 15.2176C26.6136 15.0363 26.5915 14.8492 26.517 14.6806C26.4555 14.5194 26.3462 14.3808 26.2038 14.2834C26.0613 14.186 25.8925 14.1344 25.72 14.1356H22.1672L24.6052 7.50914C24.6588 7.36755 24.6769 7.21498 24.6579 7.06478C24.6388 6.91459 24.5832 6.77135 24.496 6.64762C24.4174 6.53277 24.312 6.43882 24.1889 6.37393C24.0659 6.30903 23.9288 6.27514 23.7896 6.27521H14.1392C13.9638 6.27671 13.793 6.33122 13.6492 6.43159C13.5054 6.53195 13.3954 6.67347 13.3335 6.83755L9.47156 16.668C9.41482 16.8096 9.39386 16.9629 9.41053 17.1145C9.4272 17.2661 9.481 17.4112 9.56715 17.537C9.64486 17.6549 9.75066 17.7517 9.87503 17.8187C9.9994 17.8856 10.1385 17.9207 10.2797 17.9206H13.9778L11.3609 28.5828C11.3067 28.7792 11.321 28.9882 11.4016 29.1753C11.4822 29.3624 11.6242 29.5164 11.8041 29.6119ZM15.9528 17.2366C15.9874 17.0993 15.9902 16.9559 15.9609 16.8173C15.9317 16.6788 15.8711 16.5487 15.784 16.4371C15.7041 16.333 15.6013 16.2486 15.4835 16.1904C15.3658 16.1323 15.2362 16.1021 15.1049 16.102H11.5807L14.7276 8.09383H22.516L20.0779 14.7203C20.0285 14.8639 20.0126 15.0168 20.0316 15.1675C20.0505 15.3181 20.1037 15.4624 20.1872 15.5893C20.356 15.8376 20.649 15.9617 21.0561 15.9617H23.5699L13.8263 25.8927L15.9528 17.2366Z" fill="black"/>
</svg>
