<svg width="36" height="36" viewBox="0 0 36 36" fill="none" xmlns="http://www.w3.org/2000/svg">
<path d="M28.2886 22.9978C27.738 22.9987 27.2012 23.1705 26.7524 23.4896C26.3037 23.8087 25.9651 24.2594 25.7835 24.7792H23.6049V21.4511H25.6693C26.8409 21.4536 27.9802 21.0671 28.9085 20.3523C29.8367 19.6374 30.5013 18.6345 30.798 17.5011C31.0947 16.3677 31.0067 15.1679 30.5478 14.0898C30.0889 13.0118 29.2852 12.1167 28.2626 11.5449C28.3559 11.1717 28.4034 10.7886 28.4041 10.404C28.4028 9.1708 27.9123 7.98845 27.0403 7.11642C26.1682 6.24439 24.9859 5.7539 23.7526 5.75259C23.1118 5.74975 22.4775 5.88127 21.8906 6.13866C21.0132 4.9453 19.7894 4.05125 18.3857 3.57817C16.9821 3.1051 15.4668 3.07597 14.046 3.49475C12.6252 3.91354 11.368 4.7599 10.4454 5.91866C9.52272 7.07742 8.9795 8.49231 8.88963 9.9708C7.58914 10.4584 6.50112 11.3871 5.81535 12.5949C5.12958 13.8027 4.8896 15.2129 5.13728 16.5795C5.38495 17.9461 6.10455 19.1824 7.17055 20.0727C8.23655 20.9631 9.58129 21.4509 10.9702 21.4511H12.3953V24.7792H10.2167C10.0112 24.1859 9.60215 23.6847 9.06215 23.3644C8.52214 23.0441 7.88612 22.9255 7.26697 23.0297C6.64783 23.1339 6.08563 23.454 5.68018 23.9334C5.27473 24.4128 5.05226 25.0203 5.05226 25.6482C5.05226 26.276 5.27473 26.8836 5.68018 27.3629C6.08563 27.8423 6.64783 28.1625 7.26697 28.2667C7.88612 28.3709 8.52214 28.2523 9.06215 27.932C9.60215 27.6117 10.0112 27.1104 10.2167 26.5171H13.2593C13.4897 26.5171 13.7108 26.4256 13.8737 26.2626C14.0367 26.0997 14.1282 25.8786 14.1282 25.6482V21.4511H17.1311V26.9976C16.5375 27.203 16.0359 27.6122 15.7154 28.1525C15.3949 28.6927 15.2762 29.3291 15.3803 29.9485C15.4845 30.568 15.8049 31.1305 16.2845 31.5362C16.7641 31.9419 17.3719 32.1645 18.0001 32.1645C18.6283 32.1645 19.2361 31.9419 19.7157 31.5362C20.1953 31.1305 20.5157 30.568 20.6199 29.9485C20.724 29.3291 20.6053 28.6927 20.2848 28.1525C19.9643 27.6122 19.4627 27.203 18.8691 26.9976V21.4511H21.867V25.6482C21.867 25.8786 21.9585 26.0997 22.1215 26.2626C22.2845 26.4256 22.5055 26.5171 22.736 26.5171H25.7786C25.9373 26.9784 26.22 27.387 26.5957 27.6981C26.9713 28.0093 27.4254 28.2109 27.9082 28.2809C28.3909 28.351 28.8836 28.2867 29.3322 28.0951C29.7808 27.9035 30.1679 27.5921 30.4512 27.195C30.7344 26.7979 30.9028 26.3304 30.9378 25.8439C30.9729 25.3573 30.8732 24.8706 30.6498 24.437C30.4264 24.0033 30.0879 23.6397 29.6713 23.3858C29.2548 23.1319 28.7764 22.9977 28.2886 22.9978ZM7.71156 26.573C7.52987 26.573 7.35227 26.5191 7.2012 26.4182C7.05013 26.3172 6.93239 26.1738 6.86286 26.0059C6.79334 25.8381 6.77514 25.6534 6.81059 25.4752C6.84603 25.297 6.93352 25.1333 7.062 25.0048C7.19047 24.8763 7.35415 24.7889 7.53234 24.7534C7.71054 24.718 7.89524 24.7362 8.0631 24.8057C8.23095 24.8752 8.37442 24.993 8.47536 25.144C8.5763 25.2951 8.63018 25.4727 8.63018 25.6544C8.62985 25.8979 8.53296 26.1314 8.36076 26.3036C8.18855 26.4758 7.95509 26.5727 7.71156 26.573ZM18.9187 29.5051C18.9187 29.7488 18.8219 29.9824 18.6497 30.1547C18.4774 30.327 18.2437 30.4238 18.0001 30.4238C17.7565 30.4238 17.5228 30.327 17.3505 30.1547C17.1783 29.9824 17.0815 29.7488 17.0815 29.5051C17.0815 29.4028 17.0992 29.3011 17.1336 29.2047C17.1945 29.0224 17.3112 28.8639 17.4671 28.7516C17.6231 28.6392 17.8104 28.5788 18.0026 28.5788C18.1948 28.5788 18.3821 28.6392 18.5381 28.7516C18.694 28.8639 18.8107 29.0224 18.8715 29.2047C18.9043 29.3014 18.9203 29.403 18.9187 29.5051ZM6.67377 15.5173C6.67565 14.4775 7.0538 13.4735 7.73836 12.6908C8.42291 11.9081 9.36761 11.3997 10.3979 11.2593C10.4437 11.2534 10.4854 11.2299 10.5142 11.1937C10.5429 11.1576 10.5564 11.1117 10.5518 11.0657C10.5259 10.8478 10.513 10.6285 10.5133 10.409C10.5133 9.11665 10.9621 7.8644 11.7831 6.86631C12.604 5.86823 13.7462 5.18629 15.0143 4.93707C16.2824 4.68785 17.5977 4.88682 18.7353 5.49998C19.8729 6.11313 20.7623 7.1024 21.2513 8.29866C21.2626 8.32623 21.2807 8.35048 21.3039 8.36915C21.3272 8.38783 21.3547 8.4003 21.3841 8.40542C21.4135 8.41131 21.4439 8.40949 21.4724 8.40013C21.5009 8.39078 21.5265 8.37421 21.5467 8.35204C21.8278 8.04615 22.1696 7.80227 22.5503 7.63597C22.931 7.46967 23.3422 7.38462 23.7576 7.38624C24.3231 7.38691 24.8771 7.54641 25.3564 7.84656C25.8357 8.14671 26.221 8.57545 26.4686 9.08393C26.7161 9.59241 26.8158 10.1602 26.7563 10.7226C26.6969 11.285 26.4807 11.8194 26.1324 12.2649C26.1135 12.2894 26.1013 12.3184 26.097 12.349C26.0927 12.3797 26.0964 12.4109 26.1078 12.4397C26.1192 12.4685 26.1378 12.4938 26.1619 12.5132C26.1861 12.5326 26.2148 12.5454 26.2453 12.5504C27.1547 12.6939 27.9765 13.1752 28.5465 13.8982C29.1165 14.6212 29.3927 15.5327 29.3199 16.4504C29.2472 17.3682 28.8308 18.2247 28.1541 18.8489C27.4773 19.4731 26.59 19.819 25.6693 19.8174H10.9702C9.83046 19.8161 8.73785 19.3625 7.93229 18.5563C7.12674 17.75 6.67409 16.657 6.67377 15.5173ZM28.2886 26.5656C28.107 26.5656 27.9294 26.5117 27.7783 26.4107C27.6272 26.3098 27.5095 26.1663 27.4399 25.9985C27.3704 25.8306 27.3522 25.6459 27.3877 25.4677C27.4231 25.2895 27.5106 25.1258 27.6391 24.9974C27.7676 24.8689 27.9312 24.7814 28.1094 24.746C28.2876 24.7105 28.4723 24.7287 28.6402 24.7982C28.808 24.8678 28.9515 24.9855 29.0525 25.1366C29.1534 25.2876 29.2073 25.4652 29.2073 25.6469C29.2081 25.7681 29.1849 25.8883 29.1392 26.0006C29.0934 26.1128 29.0259 26.2149 28.9405 26.3009C28.8551 26.387 28.7536 26.4553 28.6417 26.502C28.5299 26.5487 28.4099 26.5728 28.2886 26.573V26.5656Z" fill="black"/>
</svg>
