<svg width="36" height="36" viewBox="0 0 36 36" fill="none" xmlns="http://www.w3.org/2000/svg">
<path d="M11.978 4.94189C12.0961 5.05501 12.2533 5.11817 12.4168 5.11817C12.5804 5.11817 12.7376 5.05501 12.8557 4.94189C14.2598 3.65589 16.0947 2.94257 17.9987 2.94257C19.9027 2.94257 21.7376 3.65589 23.1417 4.94189C23.249 5.04249 23.388 5.1026 23.5348 5.11189C23.6816 5.12117 23.827 5.07906 23.9461 4.99278C23.9714 4.97503 23.9951 4.95509 24.0169 4.9332L24.3893 4.56078L24.4055 4.54465C24.5205 4.42272 24.5825 4.26017 24.5778 4.09262C24.5731 3.92507 24.5022 3.7662 24.3806 3.65085C22.6406 2.04844 20.3617 1.15894 17.9962 1.15894C15.6308 1.15894 13.3518 2.04844 11.6118 3.65085L11.5919 3.67071C11.5339 3.73004 11.4881 3.80023 11.4572 3.87726C11.4262 3.95429 11.4108 4.03667 11.4117 4.11967C11.4126 4.20267 11.4299 4.28468 11.4625 4.36101C11.4952 4.43734 11.5425 4.50649 11.6019 4.56451L11.978 4.94189Z" fill="black"/>
<path d="M22.1512 6.36841C21.0084 5.35398 19.5329 4.79456 18.0049 4.79639C16.4769 4.79822 15.0028 5.36118 13.8625 6.37834L13.8339 6.40565C13.7759 6.46524 13.7302 6.5357 13.6995 6.61298C13.6688 6.69027 13.6537 6.77285 13.6549 6.856C13.6562 6.93916 13.6739 7.02124 13.7069 7.09755C13.74 7.17386 13.7878 7.24289 13.8476 7.30069L14.22 7.66317C14.2337 7.6769 14.2487 7.68937 14.2647 7.70041C14.3829 7.79556 14.5311 7.84556 14.6828 7.84146C14.8345 7.83737 14.9798 7.77945 15.0927 7.67807C15.8995 6.97066 16.9357 6.58012 18.0087 6.57898C19.0818 6.57783 20.1188 6.96617 20.9272 7.67186C21.0359 7.76818 21.1742 7.8246 21.3193 7.83182C21.4644 7.83904 21.6076 7.79663 21.7254 7.71158C21.7495 7.69428 21.7723 7.67519 21.7936 7.65448L22.1661 7.28207C22.1748 7.2747 22.1827 7.26637 22.1896 7.25724C22.3014 7.1338 22.36 6.97129 22.3528 6.80492C22.3456 6.63856 22.2732 6.48173 22.1512 6.36841Z" fill="black"/>
<path d="M18.6542 24.3311H17.3483C17.249 24.3317 17.1539 24.3709 17.083 24.4404C17.0121 24.5099 16.971 24.6042 16.9684 24.7035L16.8604 28.5878C16.8586 28.6367 16.8667 28.6856 16.8844 28.7313C16.9022 28.777 16.9291 28.8185 16.9635 28.8534C16.9975 28.8884 17.0382 28.9162 17.0832 28.9352C17.1282 28.9542 17.1766 28.964 17.2254 28.9639H18.7771C18.8257 28.9639 18.8738 28.9542 18.9185 28.9354C18.9633 28.9166 19.0039 28.8891 19.0379 28.8544C19.0718 28.8197 19.0986 28.7786 19.1165 28.7334C19.1344 28.6883 19.1431 28.64 19.1421 28.5915L19.0341 24.7035C19.0315 24.6042 18.9904 24.5099 18.9195 24.4404C18.8486 24.3709 18.7535 24.3317 18.6542 24.3311Z" fill="black"/>
<path d="M17.6623 13.3661H18.3401C18.389 13.3661 18.4373 13.3564 18.4823 13.3374C18.5273 13.3184 18.568 13.2906 18.6021 13.2556C18.6365 13.2207 18.6635 13.1792 18.6812 13.1335C18.6989 13.0878 18.7071 13.0389 18.7051 12.9899L18.6542 11.1564C18.6513 11.0573 18.6102 10.9631 18.5393 10.8937C18.4685 10.8242 18.3735 10.7849 18.2744 10.784H17.7281C17.6289 10.7846 17.5337 10.8238 17.4628 10.8933C17.3919 10.9628 17.3509 11.0572 17.3483 11.1564L17.2961 12.9899C17.2961 13.0876 17.3345 13.1814 17.403 13.2511C17.4715 13.3208 17.5647 13.3607 17.6623 13.3623V13.3661Z" fill="black"/>
<path d="M17.3979 22.8239H18.6045C18.6532 22.8241 18.7014 22.8146 18.7463 22.7958C18.7912 22.7771 18.832 22.7496 18.8661 22.7149C18.9002 22.6802 18.927 22.639 18.945 22.5938C18.963 22.5485 18.9717 22.5002 18.9707 22.4515L18.8925 19.677C18.89 19.5778 18.8489 19.4834 18.778 19.4139C18.7071 19.3444 18.612 19.3052 18.5127 19.3046H17.4885C17.3905 19.3068 17.297 19.3468 17.2277 19.4162C17.1583 19.4855 17.1183 19.579 17.1161 19.677L17.0379 22.4515C17.0369 22.5007 17.0458 22.5496 17.0642 22.5952C17.0826 22.6409 17.11 22.6823 17.1447 22.7171C17.1795 22.7519 17.221 22.7793 17.2666 22.7977C17.3123 22.816 17.3611 22.8249 17.4103 22.8239H17.3979Z" fill="black"/>
<path d="M17.5382 17.7915H18.4642C18.5128 17.7915 18.5609 17.7819 18.6056 17.7631C18.6504 17.7442 18.691 17.7167 18.725 17.682C18.759 17.6473 18.7857 17.6062 18.8036 17.5611C18.8215 17.5159 18.8302 17.4677 18.8292 17.4191L18.7684 15.2492C18.7658 15.1499 18.7247 15.0556 18.6538 14.9861C18.5829 14.9166 18.4878 14.8774 18.3885 14.8768H17.6126C17.5146 14.879 17.4211 14.9189 17.3517 14.9883C17.2824 15.0577 17.2424 15.1511 17.2402 15.2492L17.1794 17.4191C17.1775 17.4679 17.1857 17.5165 17.2035 17.562C17.2212 17.6075 17.2481 17.6489 17.2824 17.6835C17.3158 17.7176 17.3556 17.7446 17.3995 17.7632C17.4434 17.7817 17.4905 17.7914 17.5382 17.7915Z" fill="black"/>
<path d="M13.4901 10.7864H12.8806C12.7826 10.7896 12.688 10.8231 12.6098 10.8822C12.5315 10.9413 12.4735 11.0232 12.4436 11.1166L7.44829 28.5691C7.43267 28.6155 7.4286 28.6649 7.43644 28.7132C7.44428 28.7615 7.46379 28.8071 7.49327 28.8461C7.52275 28.8852 7.56132 28.9164 7.60562 28.9371C7.64992 28.9579 7.69861 28.9675 7.74746 28.9651H9.42084C9.519 28.9624 9.6136 28.9277 9.69023 28.8663C9.76687 28.8049 9.82135 28.7202 9.84539 28.625L13.8042 11.1799C13.8165 11.1326 13.8177 11.083 13.8076 11.0352C13.7975 10.9874 13.7763 10.9426 13.7458 10.9043C13.7153 10.8661 13.6763 10.8356 13.6319 10.8151C13.5875 10.7946 13.539 10.7848 13.4901 10.7864Z" fill="black"/>
<path d="M28.5517 28.5691L23.5576 11.1166C23.5277 11.0232 23.4697 10.9413 23.3915 10.8822C23.3133 10.8231 23.2187 10.7896 23.1207 10.7864H22.5112C22.4623 10.7848 22.4137 10.7946 22.3693 10.8151C22.3249 10.8356 22.2859 10.8661 22.2554 10.9043C22.2249 10.9426 22.2038 10.9874 22.1936 11.0352C22.1835 11.083 22.1847 11.1326 22.1971 11.1799L26.1546 28.6275C26.1785 28.7228 26.2329 28.8076 26.3096 28.8691C26.3862 28.9305 26.4809 28.9651 26.5792 28.9676H28.2513C28.3001 28.97 28.3488 28.9604 28.3931 28.9396C28.4374 28.9189 28.476 28.8877 28.5055 28.8486C28.535 28.8096 28.5545 28.764 28.5623 28.7157C28.5701 28.6674 28.5661 28.618 28.5505 28.5716L28.5517 28.5691Z" fill="black"/>
</svg>
