<svg width="36" height="36" viewBox="0 0 36 36" fill="none" xmlns="http://www.w3.org/2000/svg">
<path d="M17.2266 11.9992V13.0345C17.2266 13.2828 17.2676 13.3188 17.5109 13.3188H18.4854C18.7337 13.3188 18.7697 13.2766 18.7697 13.0345V12.0079C20.0582 11.8167 20.8986 11.1029 20.9048 9.8268C20.9048 8.77908 20.453 8.03797 18.7697 7.53025C18.6869 7.50542 18.6041 7.48183 18.5214 7.45949C17.5034 7.17397 17.2552 7.02004 17.2552 6.6377C17.2552 6.35839 17.4265 6.0617 17.9503 6.0617C18.499 6.0617 18.6865 6.32363 18.7709 6.5719C18.7845 6.61163 18.7957 6.65259 18.8057 6.69604C18.8156 6.73949 18.8292 6.76183 18.8752 6.76183H20.6392C20.6512 6.76075 20.6629 6.75728 20.6736 6.75161C20.6843 6.74594 20.6937 6.73819 20.7013 6.72882C20.709 6.71945 20.7146 6.70865 20.718 6.69705C20.7214 6.68545 20.7225 6.67329 20.7211 6.66128C20.6131 5.72528 20.0135 5.00404 18.7709 4.78556V3.79245C18.7709 3.54418 18.7299 3.50818 18.4866 3.50818H17.5121C17.2639 3.50818 17.2279 3.54914 17.2279 3.79245V4.78556C16.0287 5.00528 15.2417 5.78983 15.2417 6.90335C15.2417 7.85177 15.6526 8.55811 17.2279 9.08321C17.383 9.13535 17.5481 9.18501 17.7244 9.23342C18.3327 9.39728 18.6368 9.54128 18.7697 9.74983C18.8321 9.85379 18.8628 9.97376 18.8578 10.0949C18.8604 10.2104 18.8298 10.3241 18.7697 10.4227C18.6617 10.5915 18.4444 10.7094 18.0546 10.7094C17.8984 10.7189 17.7421 10.6915 17.5983 10.6297C17.4545 10.5678 17.3272 10.4731 17.2266 10.3531C17.1471 10.2498 17.0881 10.1323 17.0528 10.0068C17.0475 9.98811 17.0365 9.97152 17.0214 9.9593C17.0063 9.94708 16.9878 9.93982 16.9684 9.93852C16.9225 9.93852 15.2168 9.93852 15.1436 9.93852C15.0902 9.93852 15.0939 9.97452 15.0964 9.99314C15.1895 10.9925 15.8897 11.7795 17.2266 11.9992Z" fill="black"/>
<path d="M29.5076 18.2817C29.0286 17.8577 28.4144 17.618 27.7748 17.6055C27.1352 17.593 26.5121 17.8085 26.0168 18.2134L22.3002 20.3461C22.2222 20.408 22.1253 20.4413 22.0258 20.4405H21.2015C21.4012 19.9675 21.4665 19.4486 21.3902 18.9409C21.1953 17.5754 19.9539 16.555 18.5028 16.555H13.3188C12.3368 16.555 11.7149 16.5413 10.6237 17.1409C10.6237 17.1409 6.43158 19.245 6.40303 19.2723C6.26858 19.3476 6.15656 19.4573 6.07846 19.5902C6.00037 19.723 5.95901 19.8742 5.95862 20.0283V25.9448C5.95862 26.1752 6.05017 26.3962 6.21313 26.5592C6.3761 26.7222 6.59712 26.8137 6.82758 26.8137C6.85986 26.8212 21.4659 26.8137 21.4659 26.8137C22.3033 26.8174 23.117 26.5364 23.7737 26.0168L29.3959 22.3597C29.699 22.1172 29.9457 21.8117 30.1187 21.4643C30.2918 21.1169 30.3872 20.736 30.3982 20.3481C30.4092 19.9601 30.3355 19.5744 30.1824 19.2178C30.0292 18.8611 29.8002 18.5421 29.5113 18.283L29.5076 18.2817ZM28.3258 21.0128L22.7086 24.6686C22.3558 24.9497 21.9182 25.1029 21.4672 25.1031H7.69655V20.474L11.6417 18.5188C12.0463 18.2159 13.3188 18.2705 13.459 18.2705H18.6207C18.9085 18.2705 19.1844 18.3849 19.3879 18.5883C19.5914 18.7918 19.7057 19.0678 19.7057 19.3555C19.7057 19.6433 19.5914 19.9192 19.3879 20.1227C19.1844 20.3262 18.9085 20.4405 18.6207 20.4405H16.1379C15.9159 20.4489 15.7058 20.5431 15.5517 20.7031C15.3976 20.8632 15.3116 21.0767 15.3116 21.2989C15.3116 21.5211 15.3976 21.7346 15.5517 21.8947C15.7058 22.0547 15.9159 22.1489 16.1379 22.1573H22.0308C22.516 22.1567 22.9871 21.9937 23.369 21.6943L27.0857 19.5653C27.4171 19.3034 27.9757 19.214 28.3618 19.5653C28.4665 19.6584 28.5496 19.7734 28.6052 19.9021C28.6607 20.0307 28.6874 20.17 28.6833 20.3101C28.6784 20.4471 28.6439 20.5813 28.5822 20.7037C28.5205 20.8261 28.433 20.9336 28.3258 21.019V21.0128Z" fill="black"/>
</svg>
