<svg width="36" height="36" viewBox="0 0 36 36" fill="none" xmlns="http://www.w3.org/2000/svg">
<path d="M8.70579 21.0315C8.56576 21.032 8.42772 21.0647 8.30234 21.1271L5.44717 22.5572C5.28793 22.6374 5.15607 22.7631 5.0683 22.9183C4.98052 23.0735 4.94075 23.2513 4.95405 23.4291C4.96734 23.607 5.03308 23.7768 5.14296 23.9173C5.25283 24.0577 5.40191 24.1624 5.57131 24.2181C5.66376 24.249 5.76057 24.265 5.85806 24.2653C5.99772 24.2649 6.13539 24.2322 6.26027 24.1697L9.11545 22.7396C9.29741 22.6491 9.44344 22.4997 9.52981 22.3157C9.61619 22.1318 9.63784 21.924 9.59126 21.7262C9.54467 21.5283 9.43259 21.3521 9.2732 21.226C9.11381 21.0999 8.91648 21.0313 8.71324 21.0315H8.70579Z" fill="black"/>
<path d="M5.44093 9.8675L8.30231 11.2963C8.42749 11.3579 8.56503 11.3901 8.70452 11.3907C8.90786 11.3911 9.10539 11.3228 9.26499 11.1968C9.4246 11.0708 9.53689 10.8945 9.58364 10.6966C9.63038 10.4987 9.60882 10.2908 9.52246 10.1067C9.43611 9.9226 9.29003 9.77311 9.10796 9.68254L6.25279 8.25247C6.03879 8.14547 5.79105 8.12786 5.56406 8.20352C5.33708 8.27918 5.14945 8.44191 5.04245 8.65592C4.93545 8.86992 4.91784 9.11766 4.9935 9.34465C5.06916 9.57163 5.23189 9.75926 5.44589 9.86626L5.44093 9.8675Z" fill="black"/>
<path d="M8.17553 16.2124C8.17521 15.9735 8.08015 15.7444 7.9112 15.5755C7.74226 15.4065 7.51322 15.3115 7.27429 15.3112H4.41912C4.30077 15.3112 4.18358 15.3345 4.07423 15.3798C3.96489 15.4251 3.86554 15.4914 3.78185 15.5751C3.69816 15.6588 3.63178 15.7582 3.58649 15.8675C3.54119 15.9769 3.51788 16.094 3.51788 16.2124C3.51788 16.3308 3.54119 16.4479 3.58649 16.5573C3.63178 16.6666 3.69816 16.766 3.78185 16.8497C3.86554 16.9334 3.96489 16.9997 4.07423 17.045C4.18358 17.0903 4.30077 17.1136 4.41912 17.1136H7.27429C7.51322 17.1133 7.74226 17.0183 7.9112 16.8493C8.08015 16.6804 8.17521 16.4513 8.17553 16.2124Z" fill="black"/>
<path d="M27.2955 11.3936C27.4355 11.3931 27.5735 11.3604 27.6989 11.298L30.5541 9.86797C30.6601 9.81499 30.7546 9.74166 30.8322 9.65216C30.9098 9.56266 30.969 9.45875 31.0065 9.34636C31.044 9.23397 31.0589 9.1153 31.0505 8.99712C31.0421 8.87895 31.0105 8.76359 30.9576 8.65763C30.9046 8.55166 30.8312 8.45717 30.7417 8.37955C30.6522 8.30193 30.5483 8.24269 30.4359 8.20523C30.3235 8.16777 30.2049 8.15281 30.0867 8.16121C29.9685 8.1696 29.8532 8.2012 29.7472 8.25418L26.892 9.68301C26.7107 9.77394 26.5653 9.92342 26.4794 10.1073C26.3935 10.2911 26.3722 10.4985 26.4189 10.696C26.4656 10.8934 26.5775 11.0694 26.7366 11.1953C26.8957 11.3212 27.0926 11.3898 27.2955 11.3899V11.3936Z" fill="black"/>
<path d="M31.5858 15.3112H28.7306C28.4916 15.3112 28.2623 15.4061 28.0933 15.5751C27.9243 15.7441 27.8293 15.9734 27.8293 16.2124C27.8293 16.4514 27.9243 16.6807 28.0933 16.8497C28.2623 17.0187 28.4916 17.1136 28.7306 17.1136H31.5858C31.8248 17.1136 32.054 17.0187 32.2231 16.8497C32.3921 16.6807 32.487 16.4514 32.487 16.2124C32.487 15.9734 32.3921 15.7441 32.2231 15.5751C32.054 15.4061 31.8248 15.3112 31.5858 15.3112Z" fill="black"/>
<path d="M18.2644 11.2854C16.8887 11.2893 15.5706 11.8375 14.5978 12.8103C13.6251 13.783 13.0769 15.1012 13.0729 16.4768C13.0729 16.7159 13.1679 16.9451 13.3369 17.1141C13.5059 17.2831 13.7352 17.3781 13.9742 17.3781C14.2132 17.3781 14.4424 17.2831 14.6115 17.1141C14.7805 16.9451 14.8754 16.7159 14.8754 16.4768C14.8777 15.5787 15.2355 14.7181 15.8706 14.083C16.5056 13.448 17.3663 13.0902 18.2644 13.0879C18.5034 13.0879 18.7326 12.9929 18.9017 12.8239C19.0707 12.6549 19.1656 12.4257 19.1656 12.1866C19.1656 11.9476 19.0707 11.7184 18.9017 11.5494C18.7326 11.3804 18.5034 11.2854 18.2644 11.2854Z" fill="black"/>
<path d="M30.559 22.5569L27.7038 21.1269C27.4898 21.0199 27.2421 21.0023 27.0151 21.0779C26.7881 21.1536 26.6005 21.3163 26.4935 21.5303C26.3865 21.7443 26.3689 21.9921 26.4446 22.219C26.5202 22.446 26.6829 22.6336 26.8969 22.7406L29.7521 24.1707C29.877 24.2332 30.0147 24.2659 30.1543 24.2663C30.2518 24.266 30.3486 24.2501 30.4411 24.2191C30.6101 24.1627 30.7587 24.0575 30.8679 23.9167C30.9772 23.7759 31.0422 23.6058 31.0548 23.428C31.0675 23.2503 31.0271 23.0727 30.9388 22.9179C30.8506 22.7631 30.7184 22.6379 30.559 22.5582V22.5569Z" fill="black"/>
<path d="M23.3057 10.1544C21.8379 8.86775 19.952 8.15912 18.0001 8.16072C16.9464 8.15331 15.9017 8.35513 14.9266 8.75446C13.9515 9.1538 13.0653 9.74271 12.3195 10.4871C10.8045 12.0118 9.95247 14.0728 9.94849 16.2222C9.94617 18.1674 10.6522 20.0468 11.9347 21.5093C13.0519 22.7755 14.1295 24.861 14.2325 25.5214V28.8731C14.2329 29.05 14.2856 29.2227 14.3839 29.3697L15.4788 31.0158C15.5604 31.1388 15.671 31.2399 15.8009 31.31C15.9308 31.3802 16.076 31.4173 16.2237 31.418H19.7479C19.8966 31.4182 20.043 31.3815 20.1741 31.3113C20.3051 31.2412 20.4167 31.1396 20.499 31.0158L21.5939 29.3684C21.6917 29.2212 21.7443 29.0486 21.7453 28.8719V25.5264C21.8496 24.8672 22.9333 22.7804 24.0431 21.5142C24.7392 20.7192 25.2719 19.7948 25.6108 18.7939C25.9497 17.793 26.0881 16.7351 26.0181 15.6807C25.9481 14.6263 25.6712 13.596 25.203 12.6487C24.7348 11.7013 24.0847 10.8554 23.2896 10.1593L23.3057 10.1544ZM16.7202 29.6118L16.0437 28.5938V28.5516H19.9565V28.5913L19.2787 29.6093L16.7202 29.6118ZM19.959 25.6964V26.7541H16.0412V25.6964H19.959ZM22.4417 20.6329C21.6494 21.6345 20.9824 22.7293 20.4555 23.8927H15.5397C14.9592 22.6058 14.2044 21.4049 13.2965 20.3238C12.3002 19.187 11.7517 17.7264 11.7535 16.2148C11.7515 14.5516 12.4069 12.9551 13.577 11.7731C14.1576 11.1934 14.8476 10.7349 15.6069 10.4242C16.3662 10.1134 17.1797 9.95676 18.0001 9.9632C19.2002 9.96252 20.3751 10.3077 21.3843 10.9573C22.3934 11.6069 23.1939 12.5336 23.6901 13.6263C24.1864 14.7191 24.3572 15.9317 24.1823 17.119C24.0073 18.3063 23.494 19.4181 22.7037 20.3213L22.433 20.6304L22.4417 20.6329Z" fill="black"/>
</svg>
