<svg width="36" height="36" viewBox="0 0 36 36" fill="none" xmlns="http://www.w3.org/2000/svg">
<path d="M8.70579 21.0315C8.56576 21.032 8.42772 21.0647 8.30234 21.1271L5.44717 22.5572C5.28793 22.6374 5.15607 22.7631 5.0683 22.9183C4.98052 23.0735 4.94075 23.2513 4.95405 23.4291C4.96734 23.607 5.03308 23.7768 5.14296 23.9173C5.25283 24.0577 5.40191 24.1624 5.57131 24.2181C5.66376 24.249 5.76057 24.265 5.85806 24.2653C5.99772 24.2649 6.13539 24.2322 6.26027 24.1697L9.11545 22.7396C9.29741 22.6491 9.44344 22.4997 9.52981 22.3157C9.61619 22.1318 9.63784 21.924 9.59126 21.7262C9.54467 21.5283 9.43259 21.3521 9.2732 21.226C9.11381 21.0999 8.91648 21.0313 8.71324 21.0315H8.70579Z" fill="black"/>
<path d="M5.44087 9.8675L8.30225 11.2963C8.42743 11.3579 8.56497 11.3901 8.70445 11.3907C8.9078 11.3911 9.10533 11.3228 9.26493 11.1968C9.42453 11.0708 9.53683 10.8945 9.58357 10.6966C9.63032 10.4987 9.60876 10.2908 9.5224 10.1067C9.43604 9.9226 9.28997 9.77311 9.1079 9.68254L6.25273 8.25247C6.03873 8.14547 5.79098 8.12786 5.564 8.20352C5.33702 8.27918 5.14939 8.44191 5.04239 8.65592C4.93538 8.86992 4.91778 9.11766 4.99344 9.34465C5.0691 9.57163 5.23183 9.75926 5.44583 9.86626L5.44087 9.8675Z" fill="black"/>
<path d="M8.17559 16.2123C8.17527 15.9734 8.08021 15.7443 7.91126 15.5754C7.74232 15.4064 7.51328 15.3114 7.27435 15.311H4.41918C4.30083 15.311 4.18364 15.3343 4.07429 15.3796C3.96495 15.4249 3.8656 15.4913 3.78191 15.575C3.69822 15.6587 3.63184 15.758 3.58655 15.8674C3.54126 15.9767 3.51794 16.0939 3.51794 16.2123C3.51794 16.3306 3.54126 16.4478 3.58655 16.5572C3.63184 16.6665 3.69822 16.7659 3.78191 16.8496C3.8656 16.9332 3.96495 16.9996 4.07429 17.0449C4.18364 17.0902 4.30083 17.1135 4.41918 17.1135H7.27435C7.51328 17.1132 7.74232 17.0181 7.91126 16.8492C8.08021 16.6802 8.17527 16.4512 8.17559 16.2123Z" fill="black"/>
<path d="M27.2955 11.3936C27.4356 11.3931 27.5736 11.3604 27.699 11.298L30.5542 9.86797C30.6601 9.81499 30.7546 9.74166 30.8322 9.65216C30.9099 9.56266 30.9691 9.45875 31.0066 9.34636C31.044 9.23397 31.059 9.1153 31.0506 8.99712C31.0422 8.87895 31.0106 8.76359 30.9576 8.65763C30.9046 8.55166 30.8313 8.45717 30.7418 8.37955C30.6523 8.30193 30.5484 8.24269 30.436 8.20523C30.3236 8.16777 30.2049 8.15281 30.0868 8.16121C29.9686 8.1696 29.8532 8.2012 29.7473 8.25418L26.8921 9.68301C26.7107 9.77394 26.5653 9.92342 26.4795 10.1073C26.3936 10.2911 26.3723 10.4985 26.4189 10.696C26.4656 10.8934 26.5775 11.0694 26.7366 11.1953C26.8957 11.3212 27.0926 11.3898 27.2955 11.3899V11.3936Z" fill="black"/>
<path d="M31.5858 15.311H28.7306C28.4916 15.311 28.2623 15.406 28.0933 15.575C27.9243 15.744 27.8293 15.9733 27.8293 16.2123C27.8293 16.4513 27.9243 16.6805 28.0933 16.8496C28.2623 17.0186 28.4916 17.1135 28.7306 17.1135H31.5858C31.8248 17.1135 32.054 17.0186 32.2231 16.8496C32.3921 16.6805 32.487 16.4513 32.487 16.2123C32.487 15.9733 32.3921 15.744 32.2231 15.575C32.054 15.406 31.8248 15.311 31.5858 15.311Z" fill="black"/>
<path d="M18.2643 11.2854C16.8887 11.2893 15.5705 11.8375 14.5978 12.8103C13.625 13.783 13.0768 15.1012 13.0729 16.4768C13.0729 16.7159 13.1678 16.9451 13.3368 17.1141C13.5059 17.2831 13.7351 17.3781 13.9741 17.3781C14.2131 17.3781 14.4424 17.2831 14.6114 17.1141C14.7804 16.9451 14.8754 16.7159 14.8754 16.4768C14.8777 15.5787 15.2354 14.7181 15.8705 14.083C16.5056 13.448 17.3662 13.0902 18.2643 13.0879C18.5034 13.0879 18.7326 12.9929 18.9016 12.8239C19.0706 12.6549 19.1656 12.4257 19.1656 12.1866C19.1656 11.9476 19.0706 11.7184 18.9016 11.5494C18.7326 11.3804 18.5034 11.2854 18.2643 11.2854Z" fill="black"/>
<path d="M30.559 22.557L27.7038 21.127C27.4898 21.02 27.242 21.0024 27.0151 21.078C26.7881 21.1537 26.6004 21.3164 26.4934 21.5304C26.3864 21.7444 26.3688 21.9922 26.4445 22.2192C26.5202 22.4461 26.6829 22.6338 26.8969 22.7408L29.7521 24.1708C29.8769 24.2334 30.0146 24.2661 30.1543 24.2664C30.2518 24.2661 30.3486 24.2502 30.441 24.2193C30.6101 24.1629 30.7586 24.0576 30.8679 23.9168C30.9771 23.776 31.0422 23.6059 31.0548 23.4282C31.0674 23.2504 31.027 23.0729 30.9388 22.918C30.8505 22.7632 30.7183 22.638 30.559 22.5583V22.557Z" fill="black"/>
<path d="M23.3057 10.1545C21.8379 8.86787 19.952 8.15924 18.0001 8.16084C16.9464 8.15344 15.9017 8.35525 14.9266 8.75458C13.9515 9.15392 13.0653 9.74283 12.3195 10.4872C10.8045 12.0119 9.95247 14.0729 9.94849 16.2224C9.94617 18.1675 10.6522 20.0469 11.9347 21.5094C13.0519 22.7756 14.1295 24.8611 14.2325 25.5215V28.8733C14.2329 29.0501 14.2856 29.2229 14.3839 29.3698L15.4788 31.0159C15.5604 31.1389 15.671 31.24 15.8009 31.3102C15.9308 31.3803 16.076 31.4174 16.2237 31.4181H19.7479C19.8966 31.4183 20.043 31.3817 20.1741 31.3115C20.3051 31.2413 20.4167 31.1397 20.499 31.0159L21.5939 29.3686C21.6917 29.2214 21.7443 29.0488 21.7453 28.872V25.5265C21.8496 24.8673 22.9333 22.7806 24.0431 21.5144C24.7392 20.7193 25.2719 19.7949 25.6108 18.794C25.9497 17.7931 26.0881 16.7353 26.0181 15.6808C25.9481 14.6264 25.6712 13.5961 25.203 12.6488C24.7348 11.7014 24.0847 10.8555 23.2896 10.1595L23.3057 10.1545ZM16.7202 29.6119L16.0437 28.5939V28.5517H19.9565V28.5915L19.2787 29.6094L16.7202 29.6119ZM19.959 25.6966V26.7542H16.0412V25.6966H19.959ZM22.4417 20.633C21.6494 21.6347 20.9824 22.7294 20.4555 23.8928H15.5397C14.9592 22.6059 14.2044 21.405 13.2965 20.3239C12.3002 19.1871 11.7517 17.7265 11.7535 16.2149C11.7515 14.5517 12.4069 12.9552 13.577 11.7733C14.1576 11.1935 14.8476 10.735 15.6069 10.4243C16.3662 10.1136 17.1797 9.95688 18.0001 9.96332C19.2002 9.96265 20.3751 10.3078 21.3843 10.9574C22.3934 11.6071 23.1939 12.5337 23.6901 13.6265C24.1864 14.7192 24.3572 15.9318 24.1823 17.1191C24.0073 18.3064 23.494 19.4182 22.7037 20.3214L22.433 20.6305L22.4417 20.633Z" fill="black"/>
</svg>
