<svg width="36" height="36" viewBox="0 0 36 36" fill="none" xmlns="http://www.w3.org/2000/svg">
<path d="M18.0001 11.7188C16.7574 11.7185 15.5426 12.0868 14.5092 12.777C13.4758 13.4673 12.6704 14.4485 12.1947 15.5965C11.7191 16.7446 11.5945 18.0079 11.8369 19.2267C12.0793 20.4456 12.6777 21.5651 13.5564 22.4439C14.4351 23.3226 15.5547 23.921 16.7735 24.1633C17.9923 24.4057 19.2556 24.2812 20.4037 23.8055C21.5517 23.3298 22.5329 22.5244 23.2232 21.491C23.9134 20.4577 24.2817 19.2428 24.2815 18.0001C24.2792 16.3349 23.6167 14.7386 22.4392 13.5611C21.2617 12.3836 19.6653 11.721 18.0001 11.7188ZM18.0001 22.875C17.0359 22.875 16.0934 22.5891 15.2918 22.0535C14.4901 21.5178 13.8653 20.7564 13.4963 19.8657C13.1273 18.9749 13.0308 17.9947 13.2189 17.0491C13.407 16.1034 13.8713 15.2348 14.553 14.5531C15.2348 13.8713 16.1034 13.407 17.0491 13.2189C17.9947 13.0308 18.9749 13.1273 19.8657 13.4963C20.7564 13.8653 21.5178 14.4901 22.0534 15.2918C22.5891 16.0935 22.875 17.036 22.875 18.0001C22.8737 19.2926 22.3597 20.5318 21.4457 21.4457C20.5318 22.3597 19.2926 22.8737 18.0001 22.875Z" fill="black"/>
<path d="M17.9999 4.59308C15.3483 4.59308 12.7562 5.37938 10.5515 6.85255C8.34671 8.32572 6.62831 10.4196 5.61358 12.8694C4.59884 15.3192 4.33334 18.0148 4.85065 20.6155C5.36796 23.2162 6.64484 25.6051 8.51983 27.4801C10.3948 29.3551 12.7837 30.632 15.3844 31.1493C17.9851 31.6666 20.6807 31.4011 23.1305 30.3863C25.5803 29.3716 27.6742 27.6532 29.1474 25.4484C30.6205 23.2437 31.4068 20.6516 31.4068 18C31.4029 14.4455 29.9891 11.0376 27.4757 8.52422C24.9623 6.0108 21.5545 4.59702 17.9999 4.59308ZM17.9999 30.7502C15.4782 30.7502 13.0131 30.0024 10.9163 28.6014C8.81954 27.2004 7.18531 25.2091 6.22028 22.8793C5.25525 20.5495 5.00275 17.9858 5.49472 15.5125C5.98669 13.0392 7.20103 10.7674 8.98418 8.98422C10.7673 7.20107 13.0392 5.98673 15.5125 5.49476C17.9858 5.00279 20.5494 5.25529 22.8792 6.22032C25.209 7.18535 27.2003 8.81958 28.6013 10.9163C30.0024 13.0131 30.7501 15.4782 30.7501 18C30.7462 21.3803 29.4016 24.6211 27.0113 27.0114C24.6211 29.4017 21.3803 30.7462 17.9999 30.7502Z" fill="black"/>
<path d="M18 9.9375C16.4039 9.9375 14.8436 10.4109 13.5165 11.2978C12.1894 12.1847 11.1552 13.4453 10.5447 14.92C9.93413 16.3948 9.7747 18.0175 10.0865 19.5829C10.3984 21.1483 11.1675 22.5861 12.2966 23.7143C13.4257 24.8425 14.864 25.6105 16.4296 25.9211C17.9953 26.2318 19.6179 26.0711 21.0922 25.4594C22.5665 24.8478 23.8262 23.8126 24.7121 22.4848C25.598 21.1571 26.0702 19.5964 26.069 18.0003C26.0673 15.8613 25.2165 13.8105 23.7034 12.2987C22.1904 10.7868 20.139 9.9375 18 9.9375ZM18 24.844C16.6461 24.8442 15.3225 24.443 14.1967 23.6909C13.0708 22.9389 12.1933 21.8699 11.6751 20.619C11.1569 19.3682 11.0212 17.9918 11.2853 16.6639C11.5493 15.336 12.2013 14.1163 13.1586 13.1589C14.116 12.2015 15.3358 11.5496 16.6637 11.2855C17.9916 11.0214 19.368 11.1571 20.6188 11.6753C21.8696 12.1936 22.9386 13.0711 23.6907 14.1969C24.4427 15.3228 24.844 16.6463 24.8437 18.0003C24.8418 19.8147 24.1201 21.5543 22.8371 22.8373C21.5541 24.1203 19.8145 24.842 18 24.844Z" fill="black"/>
<path d="M18.0002 6.37585C15.7008 6.37585 13.4531 7.05771 11.5412 8.33519C9.6294 9.61268 8.13933 11.4284 7.25946 13.5528C6.37959 15.6771 6.14944 18.0147 6.59811 20.2699C7.04678 22.525 8.15413 24.5965 9.78011 26.2223C11.4061 27.8481 13.4777 28.9552 15.7329 29.4037C17.9881 29.8521 20.3256 29.6217 22.4499 28.7416C24.5742 27.8615 26.3897 26.3712 27.667 24.4593C28.9443 22.5473 29.6259 20.2995 29.6257 18.0001C29.6217 14.9182 28.3956 11.9636 26.2162 9.78444C24.0368 7.60529 21.0821 6.37947 18.0002 6.37585ZM18.0002 28.7815C15.8674 28.7818 13.7826 28.1495 12.0092 26.9648C10.2358 25.7801 8.85357 24.0961 8.03731 22.1258C7.22104 20.1555 7.00741 17.9873 7.42342 15.8956C7.83943 13.8039 8.8664 11.8825 10.3745 10.3744C11.8825 8.86637 13.8039 7.8394 15.8956 7.42339C17.9874 7.00738 20.1555 7.22102 22.1258 8.03728C24.0961 8.85355 25.7801 10.2358 26.9649 12.0092C28.1496 13.7825 28.7818 15.8674 28.7815 18.0001C28.7782 20.8585 27.6413 23.5989 25.6201 25.6201C23.5989 27.6413 20.8585 28.7782 18.0002 28.7815Z" fill="black"/>
<path d="M18.0001 13.5768C17.1251 13.5771 16.2698 13.8368 15.5424 14.3232C14.8149 14.8095 14.248 15.5006 13.9134 16.3092C13.5788 17.1177 13.4914 18.0073 13.6624 18.8655C13.8333 19.7236 14.2549 20.5119 14.8738 21.1304C15.4927 21.749 16.2812 22.1702 17.1395 22.3406C17.9977 22.5111 18.8873 22.4232 19.6956 22.0881C20.504 21.7531 21.1948 21.1858 21.6807 20.4581C22.1667 19.7304 22.4259 18.8749 22.4257 17.9999C22.4247 16.8267 21.958 15.7019 21.1282 14.8725C20.2984 14.0432 19.1733 13.5772 18.0001 13.5768ZM18.0001 20.855C17.4354 20.855 16.8834 20.6876 16.4139 20.3739C15.9444 20.0601 15.5784 19.6142 15.3623 19.0925C15.1462 18.5708 15.0897 17.9967 15.1998 17.4429C15.31 16.889 15.5819 16.3803 15.9812 15.981C16.3805 15.5817 16.8893 15.3097 17.4431 15.1996C17.997 15.0894 18.571 15.1459 19.0928 15.362C19.6145 15.5781 20.0604 15.9441 20.3741 16.4136C20.6879 16.8832 20.8553 17.4352 20.8553 17.9999C20.8537 18.7566 20.5523 19.4819 20.0172 20.017C19.4821 20.5521 18.7569 20.8534 18.0001 20.855Z" fill="black"/>
<path d="M18 8.15558C16.0527 8.15558 14.1492 8.73303 12.5301 9.81491C10.911 10.8968 9.64909 12.4345 8.90395 14.2336C8.15882 16.0327 7.96392 18.0123 8.3439 19.9221C8.72389 21.832 9.6617 23.5863 11.0387 24.9631C12.4157 26.34 14.1701 27.2775 16.08 27.6573C17.9899 28.037 19.9696 27.8419 21.7685 27.0965C23.5675 26.3512 25.1051 25.0891 26.1868 23.4698C27.2684 21.8506 27.8456 19.947 27.8454 17.9997C27.8428 15.3895 26.8046 12.8869 24.9588 11.0413C23.1129 9.19572 20.6103 8.15788 18 8.15558ZM18 26.8135C16.2568 26.8135 14.5528 26.2966 13.1033 25.3281C11.6539 24.3596 10.5242 22.9831 9.85713 21.3726C9.19004 19.7621 9.0155 17.9899 9.35558 16.2802C9.69566 14.5705 10.5351 13 11.7677 11.7674C13.0004 10.5348 14.5708 9.69536 16.2805 9.35528C17.9902 9.01519 19.7624 9.18974 21.3729 9.85683C22.9834 10.5239 24.3599 11.6536 25.3284 13.103C26.2969 14.5524 26.8138 16.2565 26.8138 17.9997C26.8112 20.3365 25.8817 22.5767 24.2294 24.2291C22.5771 25.8814 20.3368 26.8109 18 26.8135Z" fill="black"/>
</svg>
