<svg width="36" height="36" viewBox="0 0 36 36" fill="none" xmlns="http://www.w3.org/2000/svg">
<path d="M32.5341 13.1387C32.1257 12.4149 31.0656 10.7453 29.9409 10.6919C29.7683 10.6745 28.9242 10.6025 27.6493 10.5963C26.2701 10.5963 24.49 10.5889 22.7657 10.5889L21.4101 9.237C21.3313 9.15899 21.2249 9.11523 21.1141 9.11523C21.0032 9.11523 20.8968 9.15899 20.818 9.237L20.129 9.93093C20.0905 9.96848 20.0602 10.0137 20.0402 10.0636C20.0202 10.1135 20.0108 10.1671 20.0126 10.2208C20.0145 10.2746 20.0276 10.3274 20.0511 10.3758C20.0745 10.4242 20.1078 10.4672 20.1489 10.502L20.2507 10.5913C19.5121 10.5913 8.69717 10.6187 7.78972 10.6336C6.53468 10.6534 5.74144 10.8272 5.21882 11.1971C4.88489 11.4318 4.40696 12.0413 4.40199 12.0413C3.99482 12.5689 2.66406 14.5563 2.66406 17.9825C2.66406 20.7955 3.64351 22.9878 4.56089 24.1013C5.05744 24.7021 5.71537 25.1353 7.32172 25.293C7.60724 25.3215 19.7157 25.4097 20.2507 25.4084L20.1489 25.4978C20.1078 25.5326 20.0745 25.5756 20.0511 25.624C20.0276 25.6724 20.0145 25.7252 20.0126 25.7789C20.0108 25.8327 20.0202 25.8863 20.0402 25.9362C20.0602 25.9861 20.0905 26.0313 20.129 26.0689L20.818 26.7603C20.8968 26.8383 21.0032 26.8821 21.1141 26.8821C21.2249 26.8821 21.3313 26.8383 21.4101 26.7603L22.7757 25.4022C24.4639 25.4022 26.0355 25.3898 27.2881 25.3787C28.7777 25.3675 29.7559 25.288 29.9396 25.2719C31.5187 25.2073 33.9009 22.0977 33.9009 17.9813C33.8972 15.8722 33.0431 14.0411 32.5341 13.1387ZM7.38875 22.593C7.51289 22.9518 7.63703 23.2869 7.77606 23.5861C7.65193 23.5861 7.55634 23.5749 7.49179 23.5687C6.27027 23.4446 6.05799 23.1901 5.90282 23.0014C5.74765 22.8127 4.40199 21.0897 4.40199 17.9875C4.40199 15.7021 5.11206 13.9691 5.77744 13.1089C5.91657 12.9332 6.06755 12.7673 6.2293 12.6123C6.31496 12.5552 6.65882 12.3926 7.7922 12.3715C7.66806 12.6669 7.52779 13.0108 7.38875 13.413C6.83758 14.997 6.51979 16.6691 6.51979 18.0061C6.52227 19.8893 7.12806 21.837 7.38875 22.593ZM23.4783 23.6705C21.7403 23.6767 19.8472 23.6804 18.0162 23.6792C14.4373 23.6792 11.5871 23.6618 9.74241 23.6358C9.27689 22.9158 8.25275 20.2567 8.25275 18.0073C8.25275 15.758 9.28558 13.0592 9.74241 12.3616C11.7286 12.3516 14.9165 12.3417 18.2694 12.3367H23.4609C23.9115 12.986 24.9741 15.712 24.9741 18.0111C24.9741 20.3101 23.9339 22.9989 23.4783 23.6643V23.6705ZM29.8317 23.5464H29.8056C29.7957 23.5464 28.805 23.6358 27.2707 23.6482L25.4384 23.6606C25.5812 23.3391 25.7239 22.9803 25.858 22.5918C26.1187 21.8469 26.727 19.8942 26.727 18.0061C26.727 16.6729 26.4116 15.0007 25.858 13.413C25.7115 12.9922 25.5712 12.6347 25.4359 12.3293H27.6419C28.8522 12.3293 29.6554 12.405 29.7808 12.4174C30.4101 12.7526 32.1592 15.3297 32.1592 17.9788C32.1592 21.292 30.3977 23.3378 29.8317 23.5389V23.5464Z" fill="black"/>
<path d="M10.6351 19.198C10.5195 19.198 10.4085 19.2439 10.3266 19.3255C10.2447 19.4072 10.1985 19.518 10.1982 19.6337V20.9111C10.1916 20.9721 10.198 21.0337 10.2169 21.092C10.2357 21.1504 10.2667 21.2041 10.3076 21.2497C10.3486 21.2953 10.3987 21.3318 10.4547 21.3567C10.5107 21.3817 10.5713 21.3946 10.6326 21.3946C10.694 21.3946 10.7546 21.3817 10.8106 21.3567C10.8666 21.3318 10.9167 21.2953 10.9577 21.2497C10.9986 21.2041 11.0296 21.1504 11.0484 21.092C11.0673 21.0337 11.0737 20.9721 11.0671 20.9111V19.6337C11.0665 19.519 11.0209 19.4091 10.9401 19.3276C10.8593 19.2462 10.7498 19.1996 10.6351 19.198Z" fill="black"/>
<path d="M10.6351 14.6483C10.5191 14.6486 10.408 14.695 10.3261 14.7771C10.2442 14.8592 10.1982 14.9705 10.1982 15.0865V16.3627C10.1916 16.4236 10.198 16.4853 10.2169 16.5436C10.2357 16.6019 10.2667 16.6556 10.3076 16.7012C10.3486 16.7468 10.3987 16.7833 10.4547 16.8083C10.5107 16.8332 10.5713 16.8461 10.6326 16.8461C10.694 16.8461 10.7546 16.8332 10.8106 16.8083C10.8666 16.7833 10.9167 16.7468 10.9577 16.7012C10.9986 16.6556 11.0296 16.6019 11.0484 16.5436C11.0673 16.4853 11.0737 16.4236 11.0671 16.3627V15.0902C11.0678 14.9745 11.0228 14.8633 10.9419 14.7805C10.8611 14.6978 10.7508 14.6503 10.6351 14.6483Z" fill="black"/>
<path d="M22.6205 19.198C22.5047 19.198 22.3936 19.2438 22.3115 19.3255C22.2294 19.4071 22.1829 19.5179 22.1823 19.6337V20.9111C22.1758 20.9721 22.1821 21.0337 22.201 21.092C22.2199 21.1504 22.2508 21.2041 22.2918 21.2497C22.3327 21.2953 22.3829 21.3318 22.4389 21.3567C22.4948 21.3817 22.5555 21.3946 22.6168 21.3946C22.6781 21.3946 22.7387 21.3817 22.7947 21.3567C22.8507 21.3318 22.9008 21.2953 22.9418 21.2497C22.9828 21.2041 23.0137 21.1504 23.0326 21.092C23.0514 21.0337 23.0578 20.9721 23.0513 20.9111V19.6337C23.051 19.5191 23.0056 19.4092 22.925 19.3277C22.8445 19.2462 22.7351 19.1996 22.6205 19.198Z" fill="black"/>
<path d="M22.6205 14.6483C22.5044 14.6486 22.3931 14.6949 22.311 14.777C22.2289 14.8591 22.1826 14.9704 22.1823 15.0865V16.3627C22.1758 16.4236 22.1821 16.4853 22.201 16.5436C22.2199 16.6019 22.2508 16.6556 22.2918 16.7012C22.3327 16.7468 22.3829 16.7833 22.4389 16.8083C22.4948 16.8332 22.5555 16.8461 22.6168 16.8461C22.6781 16.8461 22.7387 16.8332 22.7947 16.8083C22.8507 16.7833 22.9008 16.7468 22.9418 16.7012C22.9828 16.6556 23.0137 16.6019 23.0326 16.5436C23.0514 16.4853 23.0578 16.4236 23.0513 16.3627V15.0902C23.0523 14.9747 23.0076 14.8634 22.9269 14.7806C22.8462 14.6978 22.7361 14.6503 22.6205 14.6483Z" fill="black"/>
<path d="M14.5241 15.8995H13.4553C13.4351 16.0297 13.3931 16.1556 13.3312 16.2719L13.3237 16.2856L13.289 16.3427L13.2666 16.3725L13.2368 16.4134L13.2132 16.442L13.171 16.4892L13.145 16.5152L13.0965 16.5649L13.0692 16.5847L13.0258 16.6195L12.9985 16.6418L12.9377 16.6803L12.9203 16.6903L12.8508 16.7275L12.8222 16.7399L12.7663 16.7672L12.7403 16.7772L12.6583 16.8032L12.5702 16.8231H12.5429L12.4759 16.8318H12.4485H12.3542H12.2872H12.2251C12.1195 16.8221 12.0159 16.7974 11.9172 16.7585V17.1731C11.9172 17.2696 11.9491 17.3633 12.008 17.4397C12.0668 17.5162 12.1493 17.571 12.2425 17.5956C12.3357 17.6203 12.4345 17.6134 12.5234 17.576C12.6123 17.5387 12.6864 17.473 12.7341 17.3891L13.0208 16.8578H14.5241C14.6519 16.8578 14.7744 16.8071 14.8647 16.7168C14.955 16.6264 15.0058 16.5039 15.0058 16.3762C15.0058 16.2484 14.955 16.1259 14.8647 16.0356C14.7744 15.9453 14.6519 15.8945 14.5241 15.8945V15.8995Z" fill="black"/>
<path d="M12.2749 14.6049H12.3482H12.4413H12.4686L12.5356 14.6148H12.5617L12.6511 14.6346L12.7318 14.662L12.7591 14.6706L12.8162 14.6967L12.8435 14.7079L12.913 14.7464L12.9329 14.7575L12.9912 14.7985L13.016 14.8184L13.0632 14.8506L13.088 14.8742L13.1377 14.9214L13.165 14.9475L13.2047 14.9934L13.2283 15.0232L13.2569 15.0642L13.2804 15.0952L13.3152 15.1511L13.3239 15.166C13.388 15.2813 13.4301 15.4076 13.448 15.5384H14.5243C14.652 15.5384 14.7746 15.4876 14.8649 15.3973C14.9552 15.307 15.006 15.1845 15.006 15.0567C15.006 14.929 14.9552 14.8065 14.8649 14.7161C14.7746 14.6258 14.652 14.5751 14.5243 14.5751H13.0098L12.7231 14.0425C12.6858 13.9762 12.6318 13.9209 12.5664 13.8822C12.5011 13.8434 12.4267 13.8225 12.3507 13.8215C12.2915 13.8212 12.2329 13.8328 12.1784 13.8556C12.1238 13.8785 12.0745 13.9122 12.0333 13.9546C11.9921 13.9971 11.96 14.0474 11.9388 14.1027C11.9176 14.1579 11.9078 14.2168 11.91 14.2759V14.6918C12.0064 14.6518 12.1079 14.6255 12.2116 14.6135L12.2749 14.6049Z" fill="black"/>
<path d="M12.3482 16.668C12.5342 16.6678 12.716 16.6124 12.8705 16.5089C13.0251 16.4054 13.1455 16.2584 13.2165 16.0866C13.2876 15.9147 13.3061 15.7256 13.2698 15.5432C13.2334 15.3607 13.1438 15.1932 13.0123 15.0617C12.8808 14.9302 12.7133 14.8406 12.5308 14.8042C12.3484 14.7679 12.1593 14.7864 11.9875 14.8575C11.8156 14.9285 11.6686 15.0489 11.5651 15.2035C11.4616 15.358 11.4063 15.5398 11.406 15.7258C11.4058 15.8496 11.4301 15.9722 11.4774 16.0866C11.5247 16.2009 11.5941 16.3049 11.6816 16.3924C11.7691 16.4799 11.8731 16.5493 11.9875 16.5966C12.1018 16.6439 12.2244 16.6682 12.3482 16.668Z" fill="black"/>
<path d="M18.7275 20.1005H19.7964C19.8148 19.9698 19.8569 19.8436 19.9205 19.7281L19.9292 19.7132L19.9664 19.6573L19.9875 19.6263L20.0161 19.5865L20.0397 19.5555L20.0831 19.5096L20.108 19.4847L20.1589 19.4376L20.1849 19.4127L20.2284 19.378L20.2532 19.3581L20.3153 19.3196L20.3314 19.3085L20.4022 19.27L20.4295 19.2588L20.4891 19.2327L20.5139 19.2253L20.5946 19.1967L20.6827 19.1769H20.7088L20.7758 19.1657H20.8044H20.8975H20.972L21.0353 19.1732C21.1381 19.1861 21.2387 19.2128 21.3344 19.2526V18.8367C21.3338 18.7211 21.2875 18.6103 21.2057 18.5285C21.1239 18.4467 21.0132 18.4004 20.8975 18.3998C20.8215 18.4008 20.7471 18.4218 20.6818 18.4606C20.6164 18.4993 20.5624 18.5546 20.5251 18.6207L20.2395 19.1533H18.7251C18.5973 19.1533 18.4748 19.204 18.3845 19.2944C18.2942 19.3847 18.2434 19.5072 18.2434 19.6349C18.2434 19.7627 18.2942 19.8852 18.3845 19.9755C18.4748 20.0659 18.5973 20.1166 18.7251 20.1166L18.7275 20.1005Z" fill="black"/>
<path d="M20.9793 21.394H20.911H20.8179H20.7893L20.7223 21.3853H20.6962L20.6069 21.3518L20.5274 21.3257L20.4989 21.3158L20.443 21.2897L20.4145 21.2761L20.3449 21.2388L20.3276 21.2289L20.268 21.1904L20.2407 21.1681L20.1972 21.1333L20.1724 21.1122L20.1202 21.0663L20.0942 21.0377L20.0532 20.9918L20.0321 20.9633L20.0011 20.921L19.98 20.8913L19.9452 20.8366L19.934 20.8217C19.8715 20.7035 19.8295 20.5754 19.8099 20.4431H18.7398C18.6121 20.4431 18.4896 20.4939 18.3993 20.5842C18.3089 20.6745 18.2582 20.797 18.2582 20.9248C18.2582 21.0525 18.3089 21.175 18.3993 21.2654C18.4896 21.3557 18.6121 21.4064 18.7398 21.4064H20.2556L20.5398 21.9377C20.5875 22.0216 20.6616 22.0873 20.7505 22.1246C20.8394 22.162 20.9382 22.1689 21.0314 22.1442C21.1246 22.1196 21.2071 22.0647 21.2659 21.9883C21.3248 21.9119 21.3567 21.8182 21.3567 21.7217V21.3071C21.2602 21.3473 21.1587 21.3741 21.055 21.3866L20.9793 21.394Z" fill="black"/>
<path d="M20.9059 19.3321C20.7198 19.3323 20.538 19.3878 20.3833 19.4914C20.2287 19.595 20.1083 19.7421 20.0373 19.9141C19.9663 20.0861 19.948 20.2754 19.9845 20.4578C20.0211 20.6403 20.1109 20.8079 20.2427 20.9393C20.3744 21.0707 20.5422 21.1601 20.7248 21.1962C20.9074 21.2322 21.0965 21.2134 21.2684 21.1419C21.4402 21.0705 21.587 20.9497 21.6902 20.7948C21.7934 20.6399 21.8484 20.4579 21.8481 20.2718C21.8481 20.1482 21.8237 20.0258 21.7764 19.9116C21.729 19.7975 21.6595 19.6937 21.572 19.6065C21.4845 19.5192 21.3806 19.45 21.2663 19.4029C21.152 19.3558 21.0295 19.3318 20.9059 19.3321Z" fill="black"/>
<path d="M19.7963 15.8995H18.7275C18.5998 15.8995 18.4773 15.9503 18.3869 16.0406C18.2966 16.1309 18.2458 16.2534 18.2458 16.3812C18.2458 16.5089 18.2966 16.6314 18.3869 16.7218C18.4773 16.8121 18.5998 16.8628 18.7275 16.8628H20.2345L20.5213 17.3942C20.5693 17.4776 20.6435 17.543 20.7324 17.5801C20.8213 17.6172 20.9199 17.624 21.013 17.5994C21.1062 17.5748 21.1886 17.5202 21.2476 17.4441C21.3066 17.3679 21.3388 17.2745 21.3394 17.1782V16.7586C21.2432 16.7983 21.1422 16.8251 21.039 16.838H20.9756H20.9794H20.9123H20.8205H20.7919L20.7249 16.8293H20.6963L20.6107 16.8095L20.5275 16.7834L20.5014 16.7735L20.4456 16.7462L20.417 16.7337L20.3475 16.6965L20.3276 16.6866L20.2693 16.6481L20.242 16.6257L20.1985 16.591L20.1725 16.5711L20.1228 16.5215L20.0967 16.4954L20.0558 16.4482L20.0322 16.4197L20.0024 16.3787L19.9801 16.3489L19.9453 16.2918L19.9366 16.2782C19.8672 16.1615 19.8197 16.0332 19.7963 15.8995Z" fill="black"/>
<path d="M18.7276 15.5557H19.7965C19.8149 15.4251 19.857 15.2989 19.9206 15.1833L19.9318 15.1684L19.9665 15.1126L19.9876 15.0815L20.0162 15.0406L20.0398 15.0108L20.0808 14.9648L20.1081 14.9388L20.159 14.8916L20.185 14.868L20.2285 14.8357L20.2533 14.8159L20.3154 14.7749L20.3315 14.7637L20.4023 14.7253L20.4296 14.7141L20.4892 14.688L20.514 14.6793L20.5947 14.652L20.6828 14.6322H20.7089L20.7759 14.6222H20.8045H20.8976H20.9721L21.0341 14.6309C21.1375 14.6427 21.2386 14.669 21.3345 14.7091V14.2759C21.3351 14.1793 21.3036 14.0853 21.2449 14.0086C21.1862 13.9319 21.1037 13.8768 21.0104 13.8521C20.917 13.8274 20.8181 13.8344 20.7292 13.872C20.6402 13.9096 20.5663 13.9757 20.519 14.0599L20.2334 14.5924H18.719C18.5912 14.5924 18.4687 14.6432 18.3784 14.7335C18.2881 14.8238 18.2373 14.9463 18.2373 15.0741C18.2373 15.2018 18.2881 15.3243 18.3784 15.4147C18.4687 15.505 18.5912 15.5557 18.719 15.5557H18.7276Z" fill="black"/>
<path d="M20.9061 14.7874C20.7198 14.7874 20.5378 14.8427 20.383 14.9462C20.2282 15.0497 20.1076 15.1968 20.0365 15.3689C19.9653 15.5409 19.9468 15.7303 19.9834 15.9129C20.0199 16.0955 20.1097 16.2631 20.2416 16.3946C20.3734 16.5261 20.5413 16.6155 20.724 16.6516C20.9067 16.6876 21.096 16.6686 21.2679 16.597C21.4398 16.5254 21.5866 16.4044 21.6896 16.2493C21.7927 16.0943 21.8475 15.9121 21.847 15.7259C21.8469 15.6025 21.8224 15.4803 21.775 15.3664C21.7276 15.2524 21.6583 15.1489 21.5709 15.0618C21.4835 14.9746 21.3798 14.9055 21.2658 14.8585C21.1517 14.8114 21.0295 14.7873 20.9061 14.7874Z" fill="black"/>
<path d="M12.2748 19.1496H12.3481H12.4412H12.4685L12.5355 19.1607H12.5616L12.651 19.1806L12.7317 19.2092L12.759 19.2166L12.8161 19.2427L12.8434 19.2538L12.9129 19.2923L12.9303 19.3035L12.9911 19.342L13.0159 19.3618L13.0631 19.3966L13.0879 19.4214L13.1376 19.4686L13.1649 19.4934L13.2046 19.5394L13.2282 19.5704L13.2568 19.6101L13.2804 19.6412L13.3151 19.697L13.3238 19.7119C13.3879 19.8273 13.43 19.9536 13.4479 20.0843H14.5242C14.652 20.0843 14.7745 20.0336 14.8648 19.9433C14.9551 19.8529 15.0059 19.7304 15.0059 19.6027C15.0059 19.4749 14.9551 19.3524 14.8648 19.2621C14.7745 19.1718 14.652 19.121 14.5242 19.121H13.0097L12.723 18.5885C12.6857 18.5222 12.6317 18.4669 12.5664 18.4281C12.501 18.3893 12.4266 18.3684 12.3506 18.3675C12.2347 18.3678 12.1236 18.4139 12.0415 18.4958C11.9594 18.5776 11.913 18.6886 11.9124 18.8045V19.2414C12.0082 19.202 12.1088 19.1753 12.2115 19.162L12.2748 19.1496Z" fill="black"/>
<path d="M14.524 20.4442H13.4552C13.4355 20.5765 13.3936 20.7046 13.331 20.8228L13.3236 20.8365L13.2888 20.8924L13.2665 20.9221L13.2367 20.9644L13.2131 20.9929L13.1709 21.0388L13.1448 21.0661L13.0964 21.1133L13.0691 21.1344L13.0257 21.1692L12.9984 21.1915L12.9375 21.23L12.9201 21.2399L12.8506 21.2772L12.8221 21.2908L12.7662 21.3169L12.7401 21.3268L12.6582 21.3529L12.5701 21.3728H12.5428L12.4757 21.3815H12.4484H12.3541H12.287L12.2225 21.3752C12.12 21.3627 12.0197 21.3359 11.9246 21.2958V21.7241C11.9246 21.8205 11.9565 21.9143 12.0153 21.9907C12.0741 22.0671 12.1566 22.1219 12.2498 22.1466C12.3431 22.1712 12.4418 22.1643 12.5307 22.127C12.6197 22.0896 12.6937 22.0239 12.7414 21.9401L13.0281 21.4088H14.524C14.5873 21.4088 14.6499 21.3963 14.7083 21.3721C14.7668 21.3479 14.8199 21.3124 14.8646 21.2677C14.9093 21.223 14.9448 21.1699 14.969 21.1114C14.9932 21.053 15.0057 20.9904 15.0057 20.9271C15.0057 20.8639 14.9932 20.8012 14.969 20.7428C14.9448 20.6844 14.9093 20.6313 14.8646 20.5865C14.8199 20.5418 14.7668 20.5063 14.7083 20.4821C14.6499 20.4579 14.5873 20.4455 14.524 20.4455V20.4442Z" fill="black"/>
<path d="M13.2888 20.2718C13.2891 20.0854 13.234 19.903 13.1306 19.7479C13.0271 19.5928 12.88 19.4718 12.7078 19.4003C12.5355 19.3289 12.346 19.3101 12.1631 19.3464C11.9802 19.3827 11.8122 19.4725 11.6804 19.6043C11.5485 19.7362 11.4588 19.9042 11.4225 20.0871C11.3861 20.27 11.4049 20.4595 11.4764 20.6317C11.5478 20.8039 11.6688 20.9511 11.8239 21.0545C11.9791 21.158 12.1614 21.213 12.3479 21.2128C12.5973 21.2125 12.8365 21.1132 13.0129 20.9368C13.1893 20.7604 13.2885 20.5213 13.2888 20.2718Z" fill="black"/>
</svg>
