<svg width="36" height="36" viewBox="0 0 36 36" fill="none" xmlns="http://www.w3.org/2000/svg">
<path d="M23.5515 16.8938C23.2168 16.8925 22.8905 16.9987 22.6206 17.1968C22.3508 17.3948 22.1517 17.6743 22.0526 17.994C21.9535 18.3137 21.9596 18.6567 22.0701 18.9727C22.1806 19.2886 22.3896 19.5608 22.6664 19.749V20.4405C22.6619 20.5594 22.6815 20.678 22.7239 20.7892C22.7664 20.9004 22.8308 21.0019 22.9134 21.0877C22.996 21.1734 23.095 21.2416 23.2045 21.2881C23.314 21.3347 23.4318 21.3587 23.5509 21.3587C23.6699 21.3587 23.7877 21.3347 23.8972 21.2881C24.0068 21.2416 24.1058 21.1734 24.1883 21.0877C24.2709 21.0019 24.3353 20.9004 24.3778 20.7892C24.4202 20.678 24.4398 20.5594 24.4353 20.4405V19.7478C24.7129 19.5601 24.9227 19.2881 25.0337 18.972C25.1448 18.6559 25.1513 18.3125 25.0522 17.9924C24.9531 17.6724 24.7538 17.3927 24.4835 17.1946C24.2133 16.9966 23.8865 16.8907 23.5515 16.8926V16.8938Z" fill="black"/>
<path d="M29.9297 13.5992H29.6392V11.5683C29.6218 10.1581 29.2991 9.52252 29.2581 9.44556C28.9496 8.627 28.4691 7.8841 27.8492 7.26694C27.288 6.70435 26.6212 6.25823 25.8871 5.95423C25.1529 5.65022 24.366 5.49432 23.5714 5.49549H23.5428C22.3108 5.50772 21.1112 5.89204 20.1015 6.59806C19.0918 7.30408 18.319 8.29881 17.8846 9.45177C17.6596 10.1545 17.5265 10.8835 17.4886 11.6205C17.4638 12.2411 17.4812 13.2814 17.4886 13.5992H17.1969C16.661 13.5995 16.1471 13.8126 15.7682 14.1915C15.3893 14.5704 15.1762 15.0843 15.1759 15.6202V19.5467L14.1828 18.9582C14.1135 18.91 14.0546 18.8484 14.0096 18.7769C13.9646 18.7055 13.9344 18.6257 13.9209 18.5424C13.8921 18.2078 13.8386 17.8759 13.7607 17.5493C13.3629 16.0156 12.3728 14.7024 11.0079 13.8979C9.64293 13.0933 8.01454 12.8632 6.48006 13.2578H6.46764C4.95299 13.6726 3.66246 14.6669 2.87515 16.0257C2.08785 17.3845 1.86705 18.9986 2.2605 20.5189C2.65396 22.0392 3.63005 23.3436 4.97768 24.1499C6.32531 24.9562 7.93615 25.1996 9.46185 24.8275H9.47054C9.79141 24.7369 10.1054 24.6237 10.4103 24.4886C10.4904 24.4585 10.5758 24.4452 10.6613 24.4497C10.7467 24.4542 10.8303 24.4763 10.9068 24.5147L11.9322 25.1192C12.1691 25.2442 12.4422 25.2824 12.7043 25.2272L13.6118 24.9938C13.6376 24.9867 13.6646 24.9849 13.6912 24.9884C13.7178 24.9919 13.7434 25.0007 13.7665 25.0142C13.7896 25.0277 13.8098 25.0457 13.8259 25.0672C13.8419 25.0886 13.8536 25.1131 13.8601 25.1391L14.2039 26.4686C14.237 26.6002 14.321 26.7132 14.4373 26.783C14.5537 26.8528 14.6929 26.8737 14.8246 26.841L16.1554 26.4971C16.2075 26.4835 16.263 26.4912 16.3095 26.5184C16.3561 26.5456 16.3899 26.5902 16.4036 26.6424L16.7463 27.9731C16.7803 28.1042 16.8644 28.2166 16.9804 28.2863C17.0965 28.3559 17.2353 28.3772 17.367 28.3456L18.6965 28.0017C18.7223 27.9948 18.7493 27.9931 18.7758 27.9966C18.8023 28.0002 18.8278 28.009 18.8509 28.0225C18.874 28.036 18.8942 28.054 18.9103 28.0753C18.9264 28.0967 18.9381 28.121 18.9447 28.1469L19.2886 29.4777C19.3217 29.6093 19.4057 29.7223 19.522 29.7921C19.6383 29.862 19.7776 29.8828 19.9093 29.8501L23.842 28.8347C23.9724 28.8002 24.084 28.7157 24.1525 28.5995C24.2211 28.4833 24.2411 28.3448 24.2082 28.214L23.302 24.7046C23.2933 24.6736 23.2821 24.6413 23.2697 24.609H29.9297C30.466 24.609 30.9805 24.3962 31.3601 24.0173C31.7397 23.6384 31.9534 23.1244 31.9544 22.588V15.6363C31.956 15.3694 31.9049 15.1048 31.8039 14.8577C31.7028 14.6106 31.554 14.3859 31.3658 14.1966C31.1776 14.0073 30.9539 13.857 30.7074 13.7545C30.4609 13.652 30.1966 13.5992 29.9297 13.5992ZM19.2154 11.5683C19.2154 10.9977 19.3278 10.4328 19.5461 9.90562C19.7644 9.37848 20.0845 8.89951 20.4879 8.49606C20.8914 8.09261 21.3704 7.77257 21.8975 7.55422C22.4246 7.33587 22.9896 7.22349 23.5602 7.22349C24.1308 7.22349 24.6957 7.33587 25.2229 7.55422C25.75 7.77257 26.229 8.09261 26.6325 8.49606C27.0359 8.89951 27.3559 9.37848 27.5743 9.90562C27.7926 10.4328 27.905 10.9977 27.905 11.5683V13.5992H19.2154V11.5683ZM21.3903 25.3042C21.5435 25.4087 21.6579 25.5611 21.7155 25.7374L22.0879 27.2022C22.0948 27.2281 22.0964 27.255 22.0926 27.2815C22.0887 27.308 22.0795 27.3334 22.0656 27.3562C22.052 27.3791 22.0341 27.3991 22.0128 27.4151C21.9915 27.4311 21.9672 27.4427 21.9414 27.4493L20.8999 27.7187C20.8477 27.7323 20.7923 27.7246 20.7457 27.6974C20.6992 27.6702 20.6654 27.6256 20.6516 27.5734L20.3078 26.2414C20.2738 26.1104 20.1897 25.9979 20.0736 25.9283C19.9575 25.8586 19.8187 25.8373 19.6871 25.869L18.3563 26.2129C18.3305 26.2198 18.3035 26.2215 18.277 26.2179C18.2505 26.2143 18.225 26.2055 18.2019 26.192C18.1788 26.1785 18.1586 26.1606 18.1425 26.1392C18.1264 26.1179 18.1147 26.0935 18.1081 26.0676L17.7642 24.7369C17.7311 24.6053 17.6471 24.4922 17.5308 24.4224C17.4145 24.3526 17.2752 24.3318 17.1435 24.3645L15.8115 24.7083C15.7857 24.7152 15.7587 24.7169 15.7322 24.7134C15.7057 24.7098 15.6802 24.701 15.6571 24.6875C15.634 24.674 15.6138 24.656 15.5977 24.6347C15.5816 24.6133 15.5699 24.589 15.5632 24.5631L15.2194 23.2323C15.2025 23.1671 15.1728 23.1059 15.1321 23.0522C15.0914 22.9985 15.0405 22.9534 14.9823 22.9195C14.9246 22.8851 14.8606 22.8626 14.7941 22.8532C14.7276 22.8438 14.6599 22.8478 14.595 22.8649L12.8409 23.3167C12.6588 23.3516 12.4703 23.3255 12.3046 23.2422L11.0459 22.4974C10.8572 22.3857 10.5605 22.3286 10.3842 22.4403C10.2812 22.5049 10.0577 22.6315 9.88764 22.7221C9.60826 22.873 9.31471 22.9961 9.01123 23.0896C7.93891 23.3676 6.80007 23.2083 5.84522 22.6466C4.89038 22.085 4.19775 21.167 3.91971 20.0947C3.64167 19.0224 3.801 17.8836 4.36264 16.9287C4.92428 15.9739 5.84222 15.2813 6.91454 15.0032H6.92323C7.99552 14.7262 9.13391 14.8863 10.0883 15.4482C11.0426 16.0101 11.7348 16.9279 12.0129 17.9999C12.0846 18.3084 12.1261 18.6231 12.137 18.9396C12.137 19.1333 12.137 19.389 12.137 19.5107C12.1246 19.7205 12.3195 19.9514 12.5094 20.0618L21.3903 25.3042ZM30.2227 22.5669C30.2233 22.6056 30.2163 22.644 30.2019 22.6799C30.1875 22.7158 30.1661 22.7485 30.1389 22.776C30.1118 22.8035 30.0794 22.8253 30.0437 22.8402C30.0079 22.855 29.9696 22.8626 29.931 22.8624H20.7981L16.9014 20.5658V15.6214C16.9014 15.544 16.9322 15.4698 16.9869 15.4151C17.0416 15.3604 17.1158 15.3297 17.1932 15.3297H29.931C30.0083 15.3297 30.0825 15.3604 30.1372 15.4151C30.1919 15.4698 30.2227 15.544 30.2227 15.6214V22.5669Z" fill="black"/>
<path d="M6.46761 17.0976C6.21095 17.1644 5.97987 17.3059 5.80361 17.504C5.62736 17.7022 5.51384 17.9482 5.47742 18.2109C5.441 18.4736 5.48332 18.7412 5.59902 18.9799C5.71473 19.2185 5.89861 19.4175 6.12742 19.5516C6.35623 19.6858 6.61967 19.749 6.88443 19.7334C7.14919 19.7177 7.40337 19.6239 7.6148 19.4638C7.82623 19.3037 7.98543 19.0845 8.07224 18.8339C8.15905 18.5833 8.16958 18.3125 8.1025 18.0559C8.01263 17.7121 7.78995 17.4181 7.4834 17.2384C7.17684 17.0587 6.81149 17.008 6.46761 17.0976Z" fill="black"/>
</svg>
