<svg width="36" height="36" viewBox="0 0 36 36" fill="none" xmlns="http://www.w3.org/2000/svg">
<path d="M23.7736 11.4206C23.4705 11.4302 23.1723 11.4998 22.8963 11.6255C22.6204 11.7513 22.3721 11.9306 22.166 12.1531C21.8019 12.5435 21.5844 13.0481 21.5506 13.5809C21.5169 14.1138 21.6689 14.6418 21.9808 15.0751C22.2927 15.5084 22.7452 15.8202 23.2611 15.9573C23.7771 16.0944 24.3247 16.0484 24.8105 15.827C25.2964 15.6057 25.6904 15.2227 25.9256 14.7434C26.1607 14.2641 26.2224 13.7181 26.1001 13.1984C25.9778 12.6787 25.6791 12.2175 25.2549 11.8933C24.8307 11.5691 24.3072 11.4021 23.7736 11.4206ZM24.4552 14.2845C24.3826 14.3664 24.2945 14.433 24.1958 14.4802C24.0972 14.5275 23.9901 14.5546 23.8808 14.5598C23.7716 14.565 23.6624 14.5483 23.5597 14.5107C23.457 14.473 23.3629 14.4152 23.2829 14.3406C23.2029 14.266 23.1386 14.1761 23.0939 14.0763C23.0492 13.9765 23.0249 13.8687 23.0226 13.7593C23.0202 13.65 23.0397 13.5413 23.08 13.4396C23.1203 13.3379 23.1806 13.2453 23.2572 13.1673C23.3306 13.0885 23.4187 13.025 23.5166 12.9803C23.6145 12.9356 23.7203 12.9106 23.8278 12.9068C23.9354 12.903 24.0426 12.9205 24.1435 12.9581C24.2443 12.9958 24.3367 13.0529 24.4154 13.1263C24.4624 13.1728 24.5041 13.2244 24.5396 13.2802C24.6392 13.4332 24.685 13.615 24.6697 13.7969C24.6544 13.9787 24.5789 14.1503 24.4552 14.2845Z" fill="black"/>
<path d="M23.3924 4.84136L23.4148 5.36647C23.4159 5.39776 23.4196 5.4289 23.4259 5.45957C23.4541 5.60341 23.5315 5.73296 23.6447 5.82603C23.758 5.91911 23.9 5.96993 24.0466 5.96978C25.9502 5.98705 27.7783 6.71648 29.1709 8.01441C30.5635 9.31233 31.4196 11.0847 31.5706 12.9823C31.5805 13.146 31.6534 13.2994 31.774 13.4105C31.8946 13.5216 32.0535 13.5817 32.2174 13.5782L32.7388 13.5633C32.8221 13.5618 32.9043 13.5439 32.9806 13.5106C33.057 13.4773 33.126 13.4291 33.1837 13.369C33.2413 13.3089 33.2866 13.238 33.3167 13.1603C33.3469 13.0827 33.3614 12.9998 33.3595 12.9165C33.3595 12.9165 33.3595 12.8942 33.3595 12.8892C33.1791 10.5307 32.1186 8.32614 30.3884 6.71319C28.6581 5.10024 26.3847 4.1968 24.0193 4.18219C23.9362 4.18268 23.854 4.19955 23.7775 4.23183C23.7009 4.26411 23.6315 4.31118 23.5732 4.37033C23.5148 4.42948 23.4687 4.49956 23.4375 4.57655C23.4062 4.65354 23.3905 4.73594 23.3912 4.81902C23.391 4.82649 23.3914 4.83396 23.3924 4.84136Z" fill="black"/>
<path d="M28.0798 13.4602C28.0927 13.6118 28.1594 13.7537 28.2677 13.8605C28.3761 13.9672 28.519 14.0318 28.6707 14.0424C28.6897 14.0437 28.7088 14.0437 28.7278 14.0424L29.2454 14.0288C29.3286 14.0275 29.4106 14.0098 29.4869 13.9767C29.5632 13.9435 29.6321 13.8956 29.6898 13.8358C29.7475 13.7759 29.7928 13.7052 29.823 13.6277C29.8533 13.5503 29.8679 13.4676 29.8661 13.3845C29.8661 13.3733 29.8661 13.3622 29.8661 13.3448C29.7266 11.8231 29.0327 10.4057 27.9165 9.36203C26.8003 8.31838 25.3396 7.72124 23.8119 7.68409C23.6455 7.68308 23.4854 7.74764 23.3662 7.86381C23.247 7.97997 23.1784 8.13839 23.1751 8.30478C23.1744 8.31636 23.1744 8.32797 23.1751 8.33954L23.1962 8.86589C23.1962 8.89568 23.2024 8.92547 23.2074 8.95403C23.2354 9.0968 23.3113 9.22573 23.4226 9.31943C23.5339 9.41313 23.6739 9.46597 23.8194 9.4692C24.8925 9.50544 25.916 9.93005 26.6996 10.6641C27.4832 11.3982 27.9736 12.3918 28.0798 13.4602Z" fill="black"/>
<path d="M7.86792 14.4644H18.4494C18.6172 14.4641 18.7781 14.3973 18.8967 14.2786C19.0154 14.16 19.0822 13.9991 19.0825 13.8313V13.413C19.0825 13.2451 19.0158 13.084 18.8971 12.9653C18.7784 12.8466 18.6173 12.7799 18.4494 12.7799H8.71082V4.52098C8.71082 4.35307 8.64412 4.19204 8.52539 4.07331C8.40666 3.95458 8.24562 3.88788 8.07771 3.88788H7.65813C7.49022 3.88788 7.32919 3.95458 7.21046 4.07331C7.09173 4.19204 7.02502 4.35307 7.02502 4.52098V13.6215C7.02535 13.845 7.11426 14.0592 7.27227 14.2172C7.43027 14.3752 7.64447 14.4641 7.86792 14.4644Z" fill="black"/>
<path d="M16.7859 5.49554H16.3676C16.0179 5.49554 15.7345 5.77899 15.7345 6.12865V11.5063C15.7345 11.856 16.0179 12.1394 16.3676 12.1394H16.7859C17.1356 12.1394 17.4191 11.856 17.4191 11.5063V6.12865C17.4191 5.77899 17.1356 5.49554 16.7859 5.49554Z" fill="black"/>
<path d="M10.9564 6.54578H10.538C10.1884 6.54578 9.90491 6.82923 9.90491 7.17888V11.5076C9.90491 11.8572 10.1884 12.1407 10.538 12.1407H10.9564C11.306 12.1407 11.5895 11.8572 11.5895 11.5076V7.17888C11.5895 6.82923 11.306 6.54578 10.9564 6.54578Z" fill="black"/>
<path d="M13.8712 8.11108H13.4528C13.1032 8.11108 12.8197 8.39453 12.8197 8.74419V11.5075C12.8197 11.8572 13.1032 12.1406 13.4528 12.1406H13.8712C14.2208 12.1406 14.5043 11.8572 14.5043 11.5075V8.74419C14.5043 8.39453 14.2208 8.11108 13.8712 8.11108Z" fill="black"/>
<path d="M31.6999 22.4391C31.1004 21.8295 30.2835 21.3069 29.2706 20.8836C28.2721 20.4804 27.2309 20.1926 26.1671 20.0258C25.1479 19.2189 21.3965 16.617 15.4565 16.6145C12.61 16.6145 10.2998 16.7386 8.94916 16.9484L8.85978 16.9633C7.84682 17.1259 7.33909 17.2116 6.20695 18.7335L5.92764 19.106C5.30695 19.9364 4.82033 20.5956 4.50875 21.2026L4.46902 21.2982L4.45164 21.3479C4.41219 21.4963 4.38316 21.6473 4.36475 21.7997C4.34488 21.9375 4.32626 22.0977 4.30764 22.2963C4.29771 22.382 4.29026 22.4651 4.28282 22.5446C4.18415 22.6411 4.09325 22.7453 4.01095 22.8562C3.62392 23.3852 3.42154 24.0268 3.43495 24.6822C3.43495 25.2955 3.57275 26.81 4.8104 27.6156C5.01079 27.7373 5.22238 27.8396 5.44226 27.921C5.64946 28.457 6.01088 28.9196 6.48086 29.2504C6.95084 29.5811 7.5083 29.7652 8.08282 29.7792C8.65734 29.7933 9.22315 29.6368 9.70876 29.3295C10.1944 29.0222 10.578 28.5778 10.8112 28.0526H24.4217C24.6463 28.5573 25.0099 28.9876 25.4701 29.2932C25.9302 29.5988 26.4679 29.767 27.0202 29.7782C27.5724 29.7894 28.1165 29.6431 28.5887 29.3564C29.0608 29.0697 29.4416 28.6545 29.6864 28.1593C30.2202 28.1705 31.1761 28.1593 31.695 27.9284C32.0689 27.7786 32.3825 27.5088 32.5863 27.1613C32.7112 26.9324 32.7976 26.6845 32.842 26.4276C32.9017 26.0641 32.9283 25.696 32.9215 25.3277C32.9213 24.789 32.8131 24.2558 32.6033 23.7597C32.3935 23.2635 32.0863 22.8145 31.6999 22.4391ZM23.5863 20.3498C22.0643 20.5981 19.7082 20.6912 16.7587 20.6316L16.6259 18.3437C19.0655 18.4912 21.4424 19.1762 23.5863 20.3498ZM14.8966 18.3065L15.0282 20.5807C13.2332 20.5137 11.7696 20.4144 11.0384 20.3597L10.8683 18.4443C12.0067 18.3624 13.3623 18.3164 14.8966 18.3065ZM9.01744 27.7248C8.81832 27.9242 8.55625 28.0483 8.27589 28.076C7.99553 28.1038 7.71421 28.0335 7.47988 27.8771C7.24555 27.7207 7.07269 27.4878 6.99076 27.2183C6.90883 26.9487 6.9229 26.6591 7.03056 26.3988C7.13823 26.1384 7.33283 25.9234 7.58122 25.7905C7.82961 25.6575 8.11641 25.6148 8.39276 25.6696C8.66911 25.7244 8.91792 25.8733 9.09679 26.091C9.27566 26.3086 9.37353 26.5816 9.37372 26.8633C9.37416 27.0233 9.34291 27.1819 9.28176 27.3297C9.22061 27.4776 9.13077 27.6119 9.01744 27.7248ZM27.941 27.7248C27.7406 27.9226 27.4777 28.0448 27.1973 28.0706C26.9169 28.0964 26.6362 28.0242 26.403 27.8663C26.1698 27.7085 25.9985 27.4746 25.9183 27.2046C25.8382 26.9347 25.854 26.6453 25.9633 26.3857C26.0725 26.1261 26.2683 25.9124 26.5174 25.781C26.7664 25.6495 27.0533 25.6085 27.3293 25.6648C27.6052 25.7211 27.8531 25.8713 28.0307 26.0898C28.2084 26.3084 28.3048 26.5817 28.3035 26.8633C28.3033 27.0238 28.2711 27.1826 28.2089 27.3305C28.1467 27.4784 28.0556 27.6125 27.941 27.7248ZM31.1686 26.1657C31.1588 26.2221 31.14 26.2766 31.1128 26.3271C31.0822 26.3462 31.0492 26.3612 31.0147 26.3717C30.8546 26.4301 30.4635 26.4636 29.9595 26.4611C29.8635 25.7756 29.5261 25.1469 29.0081 24.6878C28.49 24.2287 27.8252 23.9695 27.1331 23.9566C26.4411 23.9437 25.7671 24.1781 25.2323 24.6176C24.6976 25.0571 24.3371 25.6729 24.2157 26.3544H11.0185C10.9058 25.7248 10.5887 25.1499 10.1164 24.7186C9.64414 24.2873 9.0429 24.0237 8.4057 23.9684C7.76851 23.9132 7.13086 24.0694 6.59137 24.413C6.05188 24.7565 5.64061 25.2682 5.42116 25.869C5.31871 25.7109 5.24242 25.5374 5.19523 25.3551C5.14374 25.1321 5.12079 24.9035 5.12695 24.6748C5.12695 24.2564 5.25109 23.93 5.49937 23.714C5.50907 23.7045 5.51945 23.6958 5.5304 23.6879L5.55275 23.6693L5.82089 23.3974C5.89041 23.2845 5.9329 23.157 5.94502 23.025V23.0051C5.94502 22.9604 5.95868 22.8351 5.97358 22.6749C5.98847 22.5148 6.01454 22.2479 6.04433 22.0306C6.05178 21.9711 6.06047 21.9189 6.06792 21.8804C6.43243 21.2368 6.85061 20.6252 7.31799 20.0519C7.57992 19.7229 7.85427 19.3828 8.07275 19.1506C8.35854 18.8477 8.74541 18.6601 9.1602 18.6231L9.39234 21.23C9.41028 21.4318 9.49877 21.6208 9.64225 21.7638C9.78573 21.9068 9.97503 21.9947 10.1769 22.012C10.3457 22.0269 14.3715 22.3683 18.37 22.3683C21.8334 22.3683 24.2541 22.12 25.57 21.6235C25.6199 21.6405 25.6715 21.6521 25.7239 21.6582L25.7661 21.6644L25.8592 21.6768C25.9449 21.6905 26.079 21.7104 26.2503 21.7426C26.6915 21.8293 27.1282 21.9378 27.5587 22.0679C28.3035 22.2876 29.669 22.7804 30.4946 23.6221C30.9911 24.136 31.2307 24.676 31.2319 25.3203C31.2402 25.6035 31.219 25.8868 31.1686 26.1657Z" fill="black"/>
</svg>
