<svg width="36" height="36" viewBox="0 0 36 36" fill="none" xmlns="http://www.w3.org/2000/svg">
<path d="M27.7089 8.14319H8.29123C7.51651 8.14417 6.77381 8.45236 6.226 9.00017C5.67819 9.54798 5.37 10.2907 5.36902 11.0654V24.9341C5.37 25.7088 5.67819 26.4515 6.226 26.9993C6.77381 27.5471 7.51651 27.8553 8.29123 27.8563H27.7089C28.4836 27.8553 29.2263 27.5471 29.7741 26.9993C30.3219 26.4515 30.6301 25.7088 30.6311 24.9341V11.0654C30.6301 10.2907 30.3219 9.54798 29.7741 9.00017C29.2263 8.45236 28.4836 8.14417 27.7089 8.14319ZM28.9503 24.9341C28.9503 25.2633 28.8195 25.5791 28.5867 25.8119C28.3539 26.0447 28.0381 26.1755 27.7089 26.1755H8.29123C7.96199 26.1755 7.64624 26.0447 7.41344 25.8119C7.18063 25.5791 7.04985 25.2633 7.04985 24.9341V11.0654C7.04985 10.7362 7.18063 10.4204 7.41344 10.1876C7.64624 9.9548 7.96199 9.82402 8.29123 9.82402H27.7089C28.0381 9.82402 28.3539 9.9548 28.5867 10.1876C28.8195 10.4204 28.9503 10.7362 28.9503 11.0654V24.9341Z" fill="black"/>
<path d="M25.5947 14.4869L24.0715 15.6153V13.7197H21.6682V15.6153L20.145 14.4869L18.715 16.416L20.8551 18L18.7187 19.5828L20.1488 21.5119L21.6719 20.3835V22.2803H24.0752V20.3835L25.5984 21.5119L27.0285 19.5828L24.8871 18L27.0248 16.416L25.5947 14.4869ZM22.6427 14.4459C22.6739 14.4171 22.7108 14.3951 22.7509 14.3812C22.7911 14.3673 22.8337 14.3619 22.8761 14.3652C22.9223 14.3595 22.9693 14.3646 23.0132 14.3801C23.0572 14.3956 23.097 14.421 23.1295 14.4545C23.1619 14.4879 23.1862 14.5284 23.2004 14.5728C23.2146 14.6172 23.2183 14.6643 23.2112 14.7103L23.1939 15.2367C23.1887 15.2097 23.1756 15.1849 23.1564 15.1652C23.1372 15.1456 23.1127 15.132 23.0859 15.1262C23.0702 15.1236 23.0543 15.1236 23.0387 15.1262H22.8574H22.85H22.8264H22.819H22.8078H22.7966H22.783H22.7643H22.7507H22.7395H22.7172H22.7072H22.6973H22.6899H22.6799H22.6737H22.6638H22.6551C22.6527 15.1252 22.65 15.1252 22.6477 15.1262H22.639H22.6315H22.6228H22.6154H22.6079L22.5918 14.6297C22.5916 14.5649 22.6092 14.5014 22.6427 14.4459ZM23.1939 15.2516L23.1169 17.6102V17.6177V17.6264V17.6375C23.1153 17.6419 23.1132 17.6461 23.1107 17.6499C23.1107 17.6499 23.1107 17.6499 23.1107 17.6561L23.1008 17.6748C23.0382 17.7727 22.964 17.8627 22.8798 17.9429C22.8525 17.9715 22.8252 17.9988 22.7966 18.0261L22.7681 18.0534L22.7594 18.0621L22.737 18.0832L22.7259 18.0944L22.7035 18.1167L22.6961 18.1241L22.6551 16.9039V16.8704L22.6203 15.8003H22.6303H22.639H22.6501C22.6781 15.7911 22.7045 15.7777 22.7283 15.7606L22.7457 15.7494L22.7569 15.7407L22.773 15.7295C22.845 15.6761 22.9294 15.6054 23.0089 15.5321L23.0188 15.5247L23.0486 15.4974L23.0573 15.4887H23.0635V15.4812C23.0667 15.479 23.0692 15.476 23.071 15.4726C23.071 15.4726 23.071 15.4726 23.071 15.4663C23.071 15.4663 23.071 15.4664 23.071 15.4601V15.4527C23.0712 15.4502 23.0712 15.4477 23.071 15.4452V15.4328C23.071 15.4328 23.1939 15.2528 23.1939 15.2516ZM21.8892 16.3862C21.8665 16.3246 21.8566 16.259 21.8603 16.1935C21.8639 16.1279 21.8809 16.0638 21.9103 16.0051C21.9832 15.8297 22.101 15.6764 22.2517 15.5607C22.2678 15.5446 22.2852 15.5297 22.3075 15.511C22.3389 15.424 22.3983 15.3497 22.4763 15.3L22.5608 15.264C22.6504 15.2337 22.7421 15.2097 22.8351 15.192H22.85L22.9406 15.1771C22.9766 15.1771 23.0089 15.1771 23.0312 15.1771C23.0428 15.1763 23.0544 15.1763 23.066 15.1771C23.1343 15.2007 23.1467 15.2355 23.1492 15.2578C23.1498 15.2627 23.1498 15.2677 23.1492 15.2727C23.1266 15.3493 23.0837 15.4184 23.025 15.4726C23.025 15.4726 23.0188 15.4726 23.0151 15.48C23.0114 15.4875 22.994 15.4974 22.9828 15.5086L22.9704 15.5172C22.9555 15.5322 22.9398 15.5463 22.9232 15.5595C22.8347 15.6403 22.7363 15.7096 22.6303 15.7655H22.6191H22.5831H22.5533C22.5252 15.7682 22.497 15.7682 22.4689 15.7655H22.4602H22.454C22.3212 15.8772 22.0717 16.0821 22.1784 16.308C22.2763 16.4505 22.4207 16.5545 22.5868 16.6022V16.6208L22.5955 16.853C22.4509 16.8022 22.3106 16.7399 22.1759 16.6668C22.0529 16.6061 21.9525 16.5079 21.8892 16.3862ZM22.8649 21.5888L22.8525 21.6025L22.845 21.6124V21.6211C22.8165 21.6211 22.8041 21.6025 22.8041 21.5938L22.783 20.9483C22.7836 20.9463 22.7836 20.9441 22.783 20.9421L22.7892 20.9359C22.7892 20.9359 22.7892 20.9359 22.7954 20.9297C22.7959 20.9282 22.7967 20.9269 22.7978 20.9258C22.7988 20.9248 22.8001 20.924 22.8016 20.9235C22.8016 20.9235 22.8016 20.9235 22.8016 20.916L22.809 20.9098H22.8152V20.9036H22.8214L22.8289 20.8962L22.8363 20.8887H22.8463C22.8495 20.8861 22.8524 20.8832 22.855 20.88L22.8649 20.8713L22.9332 20.8142L22.953 20.7981L22.9679 20.7857L22.953 21.2388V21.3356V21.5131L22.9431 21.523C22.9354 21.5311 22.9271 21.5386 22.9183 21.5454C22.9059 21.5541 22.8773 21.5789 22.85 21.6025C22.85 21.6025 22.8438 21.6025 22.8438 21.6099H22.8376C22.8361 21.6107 22.8348 21.6118 22.8337 21.613C22.8327 21.6143 22.8319 21.6158 22.8314 21.6174L22.8649 21.5888ZM23.1566 21.3406C23.1503 21.3933 23.1323 21.4439 23.1039 21.4888C23.0756 21.5336 23.0376 21.5716 22.9928 21.6C22.9646 21.6233 22.9308 21.6388 22.8947 21.6447H22.8661C22.878 21.621 22.895 21.6002 22.9158 21.5839L22.9679 21.5404H22.9754C22.9826 21.532 22.9905 21.5241 22.999 21.5168C23.0042 21.5122 23.0092 21.5072 23.0139 21.5019H23.0201C23.0403 21.485 23.057 21.4642 23.0691 21.4407C23.0813 21.4173 23.0886 21.3917 23.0908 21.3654C23.0908 21.3393 23.0598 21.3282 23.025 21.3195V21.2549C23.1094 21.2785 23.1492 21.307 23.1492 21.3517L23.1566 21.3406ZM23.2609 20.2953C23.2515 20.3739 23.2254 20.4497 23.1843 20.5173C23.1432 20.585 23.088 20.6431 23.0226 20.6876L22.9493 20.7472C22.8774 20.8028 22.8101 20.8643 22.7482 20.9309L22.7358 20.9446C22.6824 21.0327 22.6837 21.0997 22.742 21.1419V21.1593V21.2388C22.6936 21.2149 22.6559 21.1737 22.6365 21.1233C22.624 21.0906 22.6189 21.0555 22.6215 21.0205C22.624 20.9855 22.6342 20.9516 22.6514 20.921C22.6761 20.8646 22.7115 20.8136 22.7557 20.7708C22.7954 20.7323 22.8388 20.6963 22.8798 20.6603L22.9257 20.6218C22.9711 20.5846 23.0126 20.543 23.0499 20.4977C23.0913 20.4467 23.1213 20.3874 23.138 20.3239C23.1534 20.1998 23.1286 20.0741 23.0672 19.9651V19.8869L23.0747 19.6846C23.2026 19.8745 23.3056 20.083 23.2609 20.3003V20.2953ZM22.6874 18.4966V18.4904V18.4841C22.6874 18.4841 22.6874 18.4841 22.6936 18.4841C22.6936 18.4841 22.6936 18.4841 22.6936 18.4779C22.6936 18.4717 22.6936 18.4779 22.6936 18.4779H22.6998C22.6998 18.4779 22.706 18.4779 22.7072 18.4717C22.7095 18.4686 22.7125 18.4661 22.7159 18.4643H22.7234L22.7308 18.4556C22.733 18.4528 22.7355 18.4503 22.7383 18.4481L22.7494 18.437C22.7681 18.4221 22.7854 18.4059 22.8028 18.3898L22.8264 18.3687L22.8339 18.3625L22.8587 18.3401L22.881 18.319L22.9059 18.2955L22.8438 20.1898V19.9862L22.8289 20.4989V20.5051H22.8227C22.8227 20.5051 22.8227 20.5051 22.8227 20.5113V20.5175H22.8165H22.8103L22.8041 20.5237L22.7966 20.5299H22.7892L22.778 20.5399L22.7581 20.556H22.7519L22.7296 20.5759L22.7072 20.5945C22.6998 20.5945 22.6936 20.6082 22.6861 20.6131L22.7172 19.3544L22.7085 19.0887L22.6874 18.4966ZM23.4409 17.2366C23.4438 17.4184 23.3988 17.5977 23.3106 17.7567C23.2585 17.8527 23.1905 17.9392 23.1094 18.0124C23.0648 18.0584 23.0139 18.1018 22.9667 18.1452C22.8477 18.2413 22.7425 18.3533 22.6539 18.4779C22.6147 18.5382 22.5882 18.6059 22.576 18.6767C22.5638 18.7476 22.5663 18.8202 22.5831 18.8901C22.6056 18.9585 22.6356 19.0243 22.6725 19.0862L22.6837 19.399C22.5594 19.2367 22.4702 19.0502 22.4217 18.8516C22.3973 18.7455 22.4007 18.6349 22.4316 18.5305C22.4624 18.4261 22.5198 18.3315 22.598 18.2557C22.6216 18.2297 22.6452 18.2024 22.6737 18.1726C22.7023 18.1428 22.7606 18.0857 22.8053 18.0484C22.85 18.0112 22.9021 17.9541 22.9506 17.9032C23.0126 17.8377 23.068 17.7662 23.1157 17.6897C23.1289 17.6646 23.141 17.6389 23.1517 17.6127C23.2199 17.4563 23.2758 17.2477 23.1678 17.1248L23.1765 16.8281C23.2576 16.8604 23.3266 16.9173 23.3738 16.9907C23.421 17.0642 23.444 17.1506 23.4397 17.2378L23.4409 17.2366Z" fill="black"/>
<path d="M12.2028 17.5929C12.3195 17.6759 12.4443 17.747 12.5752 17.8052C12.653 17.8409 12.733 17.8716 12.8148 17.8971C13.0979 17.9846 13.3956 18.015 13.6905 17.9865C13.9855 17.9579 14.2718 17.871 14.5329 17.7307C14.6073 17.6897 14.6806 17.6451 14.7513 17.5966C15.1323 17.3265 15.4174 16.9423 15.5656 16.4994C15.7137 16.0566 15.7172 15.5781 15.5755 15.1332C15.4337 14.6882 15.1541 14.2999 14.7771 14.0243C14.4002 13.7487 13.9453 13.6002 13.4783 13.6002C13.0113 13.6002 12.5565 13.7487 12.1795 14.0243C11.8025 14.2999 11.5229 14.6882 11.3812 15.1332C11.2394 15.5781 11.2429 16.0566 11.391 16.4994C11.5392 16.9423 11.8243 17.3265 12.2053 17.5966L12.2028 17.5929Z" fill="black"/>
<path d="M17.4861 21.7715C17.4861 20.2111 16.4384 18.8667 15.0269 18.3031C14.5637 18.5839 14.0324 18.7324 13.4907 18.7324C12.949 18.7324 12.4177 18.5839 11.9545 18.3031C10.5269 18.889 9.55865 20.0894 9.45437 21.774C9.43079 22.1365 9.82679 22.4034 10.1868 22.3947H16.7003C17.0951 22.4059 17.5134 22.1092 17.4861 21.7715Z" fill="black"/>
</svg>
