<svg width="36" height="36" viewBox="0 0 36 36" fill="none" xmlns="http://www.w3.org/2000/svg">
<path d="M29.612 18.2808C29.612 25.1273 24.9235 30 17.9993 30C14.8168 29.9999 11.7647 28.7355 9.51437 26.4851C7.26408 24.2347 5.99995 21.1825 6.00006 18C6.00017 14.8175 7.26452 11.7654 9.51497 9.51508C11.7654 7.26479 14.8176 6.00066 18.0001 6.00077C20.9878 5.9663 23.8723 7.09202 26.0469 9.14109L22.7807 12.2814C18.5077 8.15879 10.5615 11.2552 10.5615 18.0004C10.5455 19.9899 11.3188 21.9046 12.7121 23.3249C14.1053 24.7452 16.0048 25.5552 17.9942 25.5775C22.7452 25.5775 24.5265 22.1712 24.8069 20.405H18.0001V16.2773H29.4237C29.5503 16.9376 29.6134 17.6085 29.612 18.2808Z" fill="black"/>
</svg>
