<svg width="36" height="36" viewBox="0 0 36 36" fill="none" xmlns="http://www.w3.org/2000/svg">
<path d="M24.9965 5.46851H11.0037C10.3606 5.46949 9.74424 5.72537 9.28955 6.18005C8.83486 6.63474 8.57899 7.25114 8.578 7.89416V28.1063C8.57735 28.7504 8.8325 29.3684 9.28736 29.8244C9.74222 30.2804 10.3596 30.5372 11.0037 30.5382H24.9965C25.6395 30.5372 26.2559 30.2813 26.7106 29.8266C27.1653 29.3719 27.4212 28.7555 27.4221 28.1125V7.89416C27.4212 7.25114 27.1653 6.63474 26.7106 6.18005C26.2559 5.72537 25.6395 5.46949 24.9965 5.46851ZM22.2754 10.1336H21.4983C21.3705 10.1336 21.248 10.1844 21.1577 10.2747C21.0674 10.365 21.0166 10.4875 21.0166 10.6153V13.2433H10.3197V7.89416C10.3197 7.71275 10.3917 7.53877 10.52 7.4105C10.6483 7.28223 10.8223 7.21016 11.0037 7.21016H24.9965C25.1779 7.21016 25.3519 7.28223 25.4801 7.4105C25.6084 7.53877 25.6805 7.71275 25.6805 7.89416V13.2433H22.757V10.6153C22.757 10.4875 22.7063 10.365 22.616 10.2747C22.5256 10.1844 22.4031 10.1336 22.2754 10.1336ZM10.3197 14.9837H21.0166V23.8347C21.0166 23.9625 21.0674 24.085 21.1577 24.1753C21.248 24.2656 21.3705 24.3164 21.4983 24.3164H22.2754C22.4031 24.3164 22.5256 24.2656 22.616 24.1753C22.7063 24.085 22.757 23.9625 22.757 23.8347V14.9837H25.6805V28.1063C25.6805 28.2877 25.6084 28.4617 25.4801 28.59C25.3519 28.7182 25.1779 28.7903 24.9965 28.7903H11.0037C10.8223 28.7903 10.6483 28.7182 10.52 28.59C10.3917 28.4617 10.3197 28.2877 10.3197 28.1063V14.9837Z" fill="black"/>
</svg>
