<svg width="36" height="36" viewBox="0 0 36 36" fill="none" xmlns="http://www.w3.org/2000/svg">
<path d="M29.663 8.18054H6.5352C5.91515 8.18054 5.39435 8.6895 5.39435 9.3226V23.5364C5.39435 24.157 5.90275 24.6784 6.5352 24.6784H17.2249V27.4964H9.74704C9.48662 27.4964 9.26341 27.7074 9.26341 27.9805V28.7625C9.26341 29.0232 9.47422 29.2467 9.74704 29.2467H26.4387C26.6992 29.2467 26.9224 29.0357 26.9224 28.7625V27.9805C26.9224 27.7198 26.7116 27.4964 26.4387 27.4964H18.961V24.6784H29.6506C30.2706 24.6784 30.7915 24.1695 30.7915 23.5364V9.3226C30.7915 8.6895 30.283 8.18054 29.663 8.18054ZM29.0554 22.9281H7.13048V9.91847H29.0554V22.9281Z" fill="black"/>
<path d="M11.3715 21.0412C11.5947 21.2398 11.9296 21.2274 12.128 21.0039L14.5586 18.3474C14.757 18.1239 15.0794 17.7764 15.2779 17.5529L15.6995 17.0936L15.7367 17.0812L18.527 18.8936C18.8618 19.117 19.3082 19.0674 19.6058 18.7943L23.7478 14.8095V15.9888V16.3488V16.3612C23.7478 16.6591 23.9834 16.895 24.2811 16.895H24.9507C25.2483 16.895 25.484 16.6591 25.484 16.3612V16.3488V15.9888V12.7239C25.484 12.2398 25.0996 11.855 24.6159 11.855H21.342H20.9328H20.8956C20.598 11.855 20.3623 12.0908 20.3623 12.3888V13.0591C20.3623 13.357 20.598 13.5929 20.8956 13.5929H20.9328H21.342H22.4953L18.899 17.0564L16.0715 15.2191C15.7119 14.9832 15.2406 15.0453 14.9554 15.3557L11.8428 18.7446C11.8056 18.7819 11.7559 18.8191 11.7311 18.8564L10.8507 19.8122C10.6523 20.0357 10.6647 20.3708 10.8879 20.5694L11.3715 21.0412Z" fill="black"/>
</svg>
