<svg width="36" height="36" viewBox="0 0 36 36" fill="none" xmlns="http://www.w3.org/2000/svg">
<path d="M9.80697 15.4727C10.0374 15.4727 10.2585 15.3812 10.4214 15.2182C10.5844 15.0552 10.6759 14.8342 10.6759 14.6037V13.8589C10.6603 11.9705 11.3746 10.1491 12.6699 8.77485C13.9651 7.40059 15.7411 6.57972 17.6271 6.48361C19.5131 6.3875 21.3633 7.02358 22.7915 8.25905C24.2197 9.49453 25.1155 11.2339 25.2919 13.1141C25.3168 13.3624 25.4632 14.5951 25.2187 15.4913C25.0141 16.264 24.5612 16.948 23.9298 17.4381C23.2984 17.9282 22.5235 18.1972 21.7242 18.2037H20.3587C20.3274 17.7976 20.1436 17.4184 19.8443 17.1421C19.545 16.8658 19.1522 16.7129 18.7449 16.7141H17.2552C16.8272 16.7141 16.4168 16.8841 16.1141 17.1868C15.8115 17.4894 15.6414 17.8999 15.6414 18.3279C15.6414 18.7559 15.8115 19.1664 16.1141 19.469C16.4168 19.7717 16.8272 19.9417 17.2552 19.9417H21.7242C23.5776 19.9417 25.1107 18.9188 26.1634 17.5471C27.3824 15.9581 27.123 13.1513 26.9417 12.3668C26.8921 12.1495 26.861 11.9286 26.8089 11.7151C26.2879 9.55784 24.9935 7.66677 23.171 6.40044C21.3485 5.13411 19.1247 4.58055 16.9213 4.84473C14.7178 5.10892 12.6879 6.17247 11.2164 7.83373C9.74497 9.49498 8.93425 11.6384 8.938 13.8577V14.6025C8.93784 14.7167 8.96019 14.8299 9.00379 14.9354C9.04739 15.041 9.11137 15.1369 9.19208 15.2178C9.27278 15.2986 9.36863 15.3627 9.47414 15.4064C9.57965 15.4502 9.69275 15.4727 9.80697 15.4727Z" fill="black"/>
<path d="M22.4689 21.1843H22.2505C21.672 21.1978 21.0998 21.3073 20.5572 21.5083C18.8967 22.0682 17.0983 22.0682 15.4378 21.5083C14.8963 21.3079 14.3254 21.1989 13.7482 21.1856H13.531C11.9185 21.1879 10.3726 21.8295 9.23238 22.9697C8.09214 24.1099 7.45054 25.6558 7.44824 27.2683C7.44824 27.6963 7.61827 28.1068 7.92091 28.4095C8.22356 28.7121 8.63403 28.8821 9.06204 28.8821H26.9379C27.3659 28.8821 27.7764 28.7121 28.079 28.4095C28.3817 28.1068 28.5517 27.6963 28.5517 27.2683C28.5494 25.6557 27.9078 24.1097 26.7676 22.9693C25.6274 21.8288 24.0816 21.187 22.4689 21.1843ZM26.8138 27.1429H9.18617C9.22159 26.0133 9.69455 24.9416 10.5052 24.1541C11.3159 23.3666 12.4008 22.9249 13.531 22.9223H13.7507C14.138 22.9374 14.5203 23.0149 14.8829 23.1519C16.9049 23.8347 19.0951 23.8347 21.1171 23.1519C21.4808 23.0144 21.8644 22.9364 22.2529 22.921H22.4689C23.5994 22.924 24.6846 23.3662 25.4952 24.1541C26.3059 24.9421 26.7787 26.0142 26.8138 27.1442V27.1429Z" fill="black"/>
<path d="M15.0616 10.6407C15.8647 9.90905 16.9135 9.50586 17.9999 9.51106H18.0198C18.8538 9.51106 19.6699 9.7521 20.3701 10.2052C21.0703 10.6582 21.6245 11.304 21.9662 12.0648C22.3079 12.8255 22.4224 13.6688 22.296 14.4931C22.1696 15.3175 21.8076 16.0877 21.2536 16.7111C21.2449 16.7222 21.1915 16.7669 21.2039 16.8129C21.2163 16.8588 21.2523 16.9494 21.3045 16.9618C21.3566 16.9742 21.7253 16.9618 21.7253 16.9618C22.2785 16.9575 22.8132 16.7619 23.2385 16.4082C23.9201 15.8545 24.0852 14.484 24.0852 13.8571C24.0852 13.6573 24.0752 13.4599 24.0566 13.2662C23.9639 12.2648 23.6243 11.302 23.0683 10.4639C22.5123 9.6259 21.7571 8.93881 20.8705 8.46416C19.9838 7.98952 18.9933 7.74214 17.9876 7.74415C16.9818 7.74617 15.9923 7.99753 15.1075 8.47572C14.2228 8.95392 13.4704 9.64403 12.9177 10.4843C12.3651 11.3245 12.0294 12.2887 11.9407 13.2905C11.852 14.2923 12.0131 15.3005 12.4096 16.2248C12.806 17.149 13.4255 17.9606 14.2125 18.5868L14.4285 18.7593L14.4148 18.4838C14.4148 18.4552 14.4148 18.4279 14.4061 18.4006C14.4018 18.3768 14.3993 18.3527 14.3987 18.3286C14.4013 17.8256 14.5389 17.3326 14.7972 16.901L14.8443 16.8215L14.7823 16.7545C14.0088 15.9066 13.6038 14.7863 13.6562 13.6398C13.7085 12.4933 14.2141 11.4146 15.0616 10.6407Z" fill="black"/>
</svg>
