<svg width="36" height="36" viewBox="0 0 36 36" fill="none" xmlns="http://www.w3.org/2000/svg">
<path d="M28.224 21.5912L30.1034 12.5701C30.1401 12.3934 30.137 12.2107 30.0942 12.0354C30.0515 11.86 29.9703 11.6964 29.8564 11.5563C29.7425 11.4163 29.5988 11.3034 29.4359 11.2258C29.2729 11.1482 29.0947 11.1079 28.9142 11.1078H10.7243L10.3891 9.32269C10.3372 9.04381 10.1894 8.79185 9.97133 8.61048C9.75322 8.4291 9.47854 8.32973 9.19488 8.32959H5.49308C5.30871 8.32959 5.13189 8.40283 5.00152 8.5332C4.87115 8.66357 4.79791 8.84039 4.79791 9.02476V9.37235C4.79824 9.5565 4.87163 9.73301 5.00196 9.86311C5.1323 9.99321 5.30893 10.0663 5.49308 10.0663H8.76288L11.7534 26.018C11.4097 26.4194 11.1801 26.9057 11.0887 27.4262C10.9973 27.9466 11.0474 28.4821 11.2338 28.9766C11.4201 29.471 11.7359 29.9063 12.148 30.237C12.5602 30.5677 13.0536 30.7816 13.5768 30.8563C14.0999 30.931 14.6334 30.8638 15.1217 30.6617C15.61 30.4596 16.035 30.1301 16.3523 29.7076C16.6696 29.285 16.8676 28.785 16.9255 28.2598C16.9834 27.7346 16.8992 27.2034 16.6816 26.7219H23.2299C22.9684 27.3023 22.9017 27.9518 23.0398 28.5733C23.1779 29.1948 23.5134 29.7549 23.9962 30.17C24.4789 30.585 25.083 30.8328 25.7182 30.8761C26.3534 30.9195 26.9855 30.7562 27.5202 30.4106C28.0549 30.065 28.4634 29.5557 28.6847 28.9587C28.906 28.3618 28.9282 27.7092 28.748 27.0986C28.5678 26.488 28.1949 25.9521 27.6849 25.5709C27.175 25.1898 26.5554 24.9839 25.9187 24.9839H13.3262L12.8706 22.562H27.0347C27.3142 22.561 27.5849 22.4641 27.8014 22.2873C28.0179 22.1106 28.1671 21.8649 28.224 21.5912ZM27.1862 27.931C27.1862 28.1816 27.1119 28.4267 26.9726 28.6351C26.8333 28.8436 26.6354 29.006 26.4038 29.1019C26.1722 29.1979 25.9173 29.223 25.6715 29.1741C25.4256 29.1252 25.1998 29.0044 25.0225 28.8272C24.8453 28.6499 24.7246 28.4241 24.6756 28.1782C24.6267 27.9324 24.6518 27.6775 24.7478 27.4459C24.8437 27.2143 25.0062 27.0164 25.2146 26.8771C25.423 26.7379 25.6681 26.6635 25.9187 26.6635C26.2548 26.6638 26.577 26.7975 26.8146 27.0351C27.0522 27.2727 27.1859 27.5949 27.1862 27.931ZM13.9941 26.7206C14.2349 26.7191 14.4708 26.7893 14.6718 26.9222C14.8727 27.055 15.0296 27.2446 15.1226 27.4668C15.2156 27.689 15.2404 27.9339 15.194 28.1703C15.1475 28.4066 15.0319 28.6239 14.8617 28.7944C14.6916 28.9649 14.4746 29.081 14.2383 29.1279C14.002 29.1749 13.7571 29.1505 13.5347 29.058C13.3123 28.9655 13.1224 28.8089 12.9891 28.6083C12.8558 28.4076 12.7852 28.1719 12.7862 27.931C12.7878 27.611 12.9156 27.3046 13.1417 27.0782C13.3678 26.8519 13.6741 26.7238 13.9941 26.7219V26.7206ZM12.5454 20.8216L11.0483 12.8432H28.2736L26.6114 20.8228L12.5454 20.8216Z" fill="black"/>
</svg>
