<svg width="36" height="36" viewBox="0 0 36 36" fill="none" xmlns="http://www.w3.org/2000/svg">
<path d="M28.3915 9.45182L18.9372 5.51292C18.6405 5.38908 18.3221 5.32532 18.0006 5.32532C17.679 5.32532 17.3607 5.38908 17.064 5.51292L7.61706 9.45058C7.17094 9.63341 6.78943 9.94504 6.52123 10.3457C6.25302 10.7463 6.1103 11.2178 6.11127 11.7C6.11127 16.1938 7.31789 20.4269 9.60079 23.9424C11.5733 26.9813 14.2237 29.3077 17.0627 30.4907C17.6632 30.7353 18.3355 30.7353 18.9359 30.4907C23.0027 28.8 29.8874 22.9307 29.8874 11.7C29.8886 11.2192 29.7471 10.749 29.4808 10.3488C29.2145 9.94855 28.8354 9.63639 28.3915 9.45182ZM28.1594 12.024C28.1122 15.2242 27.1986 18.7572 25.6506 21.7154C23.8543 25.1478 21.3678 27.6082 18.458 28.8285L18 29.0197L17.5444 28.8285C14.6346 27.6095 12.1456 25.1503 10.3444 21.7166C8.79389 18.7584 7.87775 15.2255 7.82934 12.024L7.82065 11.2257L18 6.98644L28.1793 11.2257L28.1594 12.024Z" fill="black"/>
<path d="M15.2441 13.6627C15.2441 13.6627 15.0691 13.9631 15.0616 14.6856V15.7283H14.8717C14.6203 15.7287 14.3792 15.8287 14.2014 16.0065C14.0236 16.1843 13.9236 16.4253 13.9233 16.6767V20.0893C13.9236 20.3407 14.0236 20.5818 14.2014 20.7596C14.3792 20.9374 14.6203 21.0374 14.8717 21.0377H21.1282C21.3797 21.0374 21.6207 20.9374 21.7985 20.7596C21.9763 20.5818 22.0763 20.3407 22.0767 20.0893V16.6767C22.0763 16.4253 21.9763 16.1843 21.7985 16.0065C21.6207 15.8287 21.3797 15.7287 21.1282 15.7283H20.9383C20.9383 15.7283 20.952 15.0766 20.9383 14.7116C20.9197 14.3552 20.8554 14.0027 20.7471 13.6627C20.5383 13.1014 20.1627 12.6174 19.6709 12.2756C19.1791 11.9339 18.5945 11.7507 17.9956 11.7507C17.3967 11.7507 16.8122 11.9339 16.3203 12.2756C15.8285 12.6174 15.453 13.1014 15.2441 13.6627ZM18.4568 18.7225V19.1347C18.4507 19.2499 18.4007 19.3585 18.317 19.4379C18.2332 19.5174 18.1222 19.5616 18.0068 19.5616C17.8914 19.5616 17.7804 19.5174 17.6966 19.4379C17.6129 19.3585 17.5629 19.2499 17.5568 19.1347V18.7225C17.4061 18.6254 17.2909 18.482 17.2284 18.3139C17.1659 18.1458 17.1595 17.962 17.2101 17.79C17.2608 17.618 17.3657 17.4669 17.5093 17.3595C17.6529 17.2521 17.8275 17.194 18.0068 17.194C18.1861 17.194 18.3606 17.2521 18.5042 17.3595C18.6478 17.4669 18.7528 17.618 18.8035 17.79C18.8541 17.962 18.8477 18.1458 18.7852 18.3139C18.7227 18.482 18.6075 18.6254 18.4568 18.7225ZM18 12.5045C18.5782 12.5051 19.1326 12.7351 19.5415 13.144C19.9504 13.5529 20.1804 14.1073 20.1811 14.6856V15.7283H15.8189V14.6856C15.8195 14.1073 16.0495 13.5529 16.4584 13.144C16.8673 12.7351 17.4217 12.5051 18 12.5045Z" fill="black"/>
</svg>
