<svg width="36" height="36" viewBox="0 0 36 36" fill="none" xmlns="http://www.w3.org/2000/svg">
<path d="M29.9247 25.2982H29.2568V22.7484C29.2568 22.5179 29.1653 22.2969 29.0023 22.1339C28.8394 21.971 28.6183 21.8794 28.3879 21.8794H20.9694C20.4003 21.8778 19.8381 22.0039 19.3242 22.2484C18.8103 22.4929 18.3578 22.8495 18 23.2921C17.6422 22.8501 17.1898 22.494 16.6761 22.2499C16.1624 22.0059 15.6006 21.8801 15.0319 21.8819H7.60967C7.37921 21.8819 7.15818 21.9734 6.99522 22.1364C6.83226 22.2994 6.7407 22.5204 6.7407 22.7509V25.3006H6.07533C5.84486 25.3006 5.62384 25.3922 5.46087 25.5552C5.29791 25.7181 5.20636 25.9391 5.20636 26.1696C5.20636 26.4001 5.29791 26.6211 5.46087 26.7841C5.62384 26.947 5.84486 27.0386 6.07533 27.0386H13.0904C14.5726 27.0386 15.7295 27.3638 16.529 28.0056C16.9475 28.3375 17.4659 28.5181 18 28.5181C18.5341 28.5181 19.0526 28.3375 19.471 28.0056C20.2705 27.3638 21.4275 27.0386 22.9097 27.0386H29.9247C30.1552 27.0386 30.3762 26.947 30.5392 26.7841C30.7021 26.6211 30.7937 26.4001 30.7937 26.1696C30.7937 25.9391 30.7021 25.7181 30.5392 25.5552C30.3762 25.3922 30.1552 25.3006 29.9247 25.3006V25.2982ZM27.5239 23.6149V25.2982H22.9097C21.2835 25.2982 19.9304 25.6371 18.8665 26.3062V26.1646C18.8665 25.0102 19.8037 23.6149 20.9694 23.6149H27.5239ZM17.131 26.1646V26.3062C16.0722 25.6371 14.7128 25.2982 13.0879 25.2982H8.47615V23.6149H15.0319C16.1963 23.6149 17.131 25.0102 17.131 26.1646Z" fill="black"/>
<path d="M7.37132 10.9018L12.6807 12.4138V16.0014C12.6801 16.1624 12.7246 16.3203 12.8093 16.4573C12.8941 16.5942 13.0155 16.7046 13.1599 16.776L16.4421 18.4171C16.7934 18.5938 17.1167 18.8213 17.4017 19.0924C17.5631 19.2457 17.7773 19.3312 18 19.3312C18.2227 19.3312 18.4369 19.2457 18.5983 19.0924C18.8832 18.8213 19.2066 18.5938 19.5579 18.4171L22.8414 16.7809C22.9857 16.7096 23.1072 16.5992 23.1919 16.4623C23.2766 16.3253 23.3212 16.1673 23.3205 16.0063V12.4138L24.5619 12.0612V17.486C24.5619 17.7165 24.6535 17.9375 24.8164 18.1005C24.9794 18.2635 25.2004 18.355 25.4309 18.355C25.6613 18.355 25.8824 18.2635 26.0453 18.1005C26.2083 17.9375 26.2999 17.7165 26.2999 17.486V11.5709L28.6398 10.9018C28.8194 10.8484 28.9768 10.7385 29.0888 10.5884C29.2008 10.4383 29.2613 10.2561 29.2613 10.0688C29.2613 9.88154 29.2008 9.69928 29.0888 9.54919C28.9768 9.39909 28.8194 9.28918 28.6398 9.23584L18.2495 6.2677C18.0937 6.22327 17.9286 6.22327 17.7728 6.2677L7.37132 9.23584C7.19181 9.28918 7.03434 9.39909 6.92235 9.54919C6.81037 9.69928 6.74988 9.88154 6.74988 10.0688C6.74988 10.2561 6.81037 10.4383 6.92235 10.5884C7.03434 10.7385 7.19181 10.8484 7.37132 10.9018ZM10.7628 10.0688L18 8.00191L25.2372 10.0688L18 12.1369L10.7628 10.0688ZM14.4137 12.9103L17.7654 13.8674C17.9213 13.9109 18.0861 13.9109 18.2421 13.8674L21.5938 12.9103V15.4676L18.7908 16.8691C18.5172 17.0057 18.2553 17.1643 18.0074 17.3433C17.7596 17.1643 17.4977 17.0057 17.2241 16.8691L14.4211 15.4676L14.4137 12.9103Z" fill="black"/>
</svg>
