<svg width="36" height="36" viewBox="0 0 36 36" fill="none" xmlns="http://www.w3.org/2000/svg">
<path d="M31.4603 21.1668H29.4592V9.8703C29.4582 9.08636 29.1463 8.33482 28.592 7.78049C28.0377 7.22617 27.2861 6.91432 26.5022 6.91333H9.49531C8.71138 6.91497 7.96009 7.22746 7.40623 7.78225C6.85237 8.33704 6.54115 9.08884 6.54083 9.87278V21.1693H4.53972C4.31891 21.1697 4.10723 21.2575 3.95109 21.4137C3.79495 21.5698 3.70708 21.7815 3.70676 22.0023V23.1866C3.73381 24.2422 4.10866 25.2594 4.7731 26.0802C5.49683 26.9815 6.42041 27.478 7.37255 27.478H28.6274C30.6919 27.478 32.2932 25.1715 32.2932 23.1866V22.0023C32.2934 21.8927 32.272 21.7842 32.2302 21.683C32.1884 21.5817 32.1271 21.4896 32.0498 21.4121C31.9724 21.3345 31.8806 21.2729 31.7794 21.2308C31.6783 21.1888 31.5698 21.167 31.4603 21.1668ZM27.7945 21.1668H21.1494C21.0355 21.1708 20.9266 21.2139 20.8407 21.2887C20.7548 21.3635 20.6972 21.4655 20.6777 21.5777C20.6114 21.863 20.4509 22.1176 20.222 22.3003C19.9931 22.483 19.7093 22.5831 19.4164 22.5845H16.5836C16.2907 22.5831 16.0069 22.483 15.778 22.3003C15.5491 22.1176 15.3886 21.863 15.3223 21.5777C15.3028 21.4655 15.2452 21.3635 15.1593 21.2887C15.0734 21.2139 14.9644 21.1708 14.8506 21.1668H8.20551V9.8703C8.2065 9.5281 8.34305 9.20023 8.58525 8.95849C8.82746 8.71674 9.15559 8.58083 9.49779 8.5805H26.5047C26.8469 8.58149 27.1748 8.71803 27.4165 8.96024C27.6582 9.20245 27.7942 9.53058 27.7945 9.87278V21.1668ZM15.8772 24.2492H20.1277C20.5782 24.2496 21.0185 24.1148 21.3916 23.8623C21.7647 23.6098 22.0535 23.2512 22.2207 22.8328H30.6348V23.1841C30.6348 24.3423 29.6926 25.8109 28.6337 25.8109H7.37255C6.31365 25.8109 5.37145 24.3423 5.37145 23.1841V22.8328H13.7855C13.9524 23.2506 14.2406 23.6088 14.613 23.8612C14.9854 24.1137 15.4249 24.2488 15.8748 24.2492H15.8772Z" fill="black"/>
</svg>
