<svg width="36" height="36" viewBox="0 0 36 36" fill="none" xmlns="http://www.w3.org/2000/svg">
<path d="M29.4369 18.0393H28.9553C28.8174 18.0391 28.6845 18.0918 28.5842 18.1865C28.4839 18.2812 28.4237 18.4108 28.416 18.5486C28.2946 20.8374 27.4229 23.0225 25.9355 24.7664C24.4482 26.5103 22.4279 27.7159 20.1869 28.1969C17.9459 28.678 15.6089 28.4077 13.5369 27.4278C11.4649 26.4479 9.77321 24.813 8.72321 22.7756L8.69308 22.7142H10.2932C10.4368 22.7142 10.5746 22.6571 10.6762 22.5555C10.7778 22.4539 10.8349 22.3161 10.8349 22.1724V21.6909C10.8347 21.6199 10.8206 21.5496 10.7933 21.4841C10.766 21.4186 10.726 21.3591 10.6757 21.309C10.6254 21.2589 10.5657 21.2192 10.5001 21.1922C10.4344 21.1652 10.3642 21.1513 10.2932 21.1515H6.54166C6.39839 21.1515 6.26094 21.2082 6.15941 21.3093C6.05788 21.4104 6.00051 21.5476 5.99988 21.6909V25.7638C5.99988 25.9075 6.057 26.0453 6.1586 26.1469C6.2602 26.2485 6.39798 26.3055 6.54166 26.3055H7.02327C7.16695 26.3055 7.30473 26.2485 7.40633 26.1469C7.50793 26.0453 7.56498 25.9075 7.56498 25.7638V23.935L7.64324 24.0674C8.94896 26.2959 10.939 28.0436 13.3174 29.0506C15.6958 30.0577 18.3357 30.2703 20.8446 29.657C23.3536 29.0437 25.5977 27.6371 27.2434 25.6464C28.889 23.6557 29.8483 21.1871 29.9787 18.6076C29.9822 18.5354 29.971 18.4633 29.9457 18.3956C29.9205 18.3279 29.8817 18.2661 29.8318 18.2139C29.7815 18.1592 29.7205 18.1155 29.6525 18.0855C29.5846 18.0554 29.5112 18.0397 29.4369 18.0393Z" fill="black"/>
<path d="M29.4515 9.69464H28.9699C28.8263 9.69496 28.6887 9.75216 28.5872 9.85369C28.4856 9.95523 28.4285 10.0928 28.4281 10.2364V12.0652L28.3499 11.9328C27.0442 9.70429 25.0541 7.95664 22.6757 6.94959C20.2973 5.94255 17.6574 5.72987 15.1485 6.34318C12.6395 6.95649 10.3954 8.36302 8.74977 10.3537C7.10415 12.3445 6.14487 14.8131 6.01446 17.3926C6.01137 17.4656 6.02307 17.5385 6.04893 17.6068C6.07478 17.6751 6.11424 17.7375 6.16488 17.7902C6.21552 17.8428 6.27625 17.8847 6.34352 17.9132C6.41078 17.9417 6.48312 17.9563 6.55617 17.956H7.03778C7.17576 17.9563 7.30861 17.9036 7.40894 17.8089C7.50927 17.7141 7.56944 17.5845 7.57714 17.4468C7.69756 15.1576 8.56865 12.9719 10.0557 11.2274C11.5428 9.48285 13.563 8.27668 15.8042 7.7953C18.0454 7.31393 20.3827 7.58418 22.455 8.56422C24.5272 9.54427 26.219 11.1795 27.2687 13.2174L27.3012 13.2788H25.6158C25.4722 13.2791 25.3345 13.3363 25.233 13.4378C25.1315 13.5393 25.0743 13.6769 25.074 13.8205V14.3021C25.0743 14.4457 25.1315 14.5833 25.233 14.6849C25.3345 14.7864 25.4722 14.8436 25.6158 14.8439H29.4515C29.5947 14.8432 29.7319 14.7859 29.833 14.6844C29.9341 14.5828 29.9908 14.4454 29.9908 14.3021V10.2292C29.9889 10.0872 29.9314 9.95158 29.8305 9.8516C29.7296 9.75162 29.5935 9.69526 29.4515 9.69464Z" fill="black"/>
<path d="M14.3663 18.4348H13.4393C13.2724 18.4348 13.1371 18.5701 13.1371 18.737V21.8299C13.1371 21.9968 13.2724 22.1321 13.4393 22.1321H14.3663C14.5332 22.1321 14.6685 21.9968 14.6685 21.8299V18.737C14.6685 18.5701 14.5332 18.4348 14.3663 18.4348Z" fill="black"/>
<path d="M22.5505 16.4277H21.6235C21.4566 16.4277 21.3213 16.563 21.3213 16.7299V21.8298C21.3213 21.9967 21.4566 22.132 21.6235 22.132H22.5505C22.7174 22.132 22.8527 21.9967 22.8527 21.8298V16.7299C22.8527 16.563 22.7174 16.4277 22.5505 16.4277Z" fill="black"/>
<path d="M18.4584 12.6572H17.5314C17.3645 12.6572 17.2292 12.7925 17.2292 12.9594V21.83C17.2292 21.9969 17.3645 22.1322 17.5314 22.1322H18.4584C18.6253 22.1322 18.7606 21.9969 18.7606 21.83V12.9594C18.7606 12.7925 18.6253 12.6572 18.4584 12.6572Z" fill="black"/>
</svg>
