<svg width="36" height="36" viewBox="0 0 36 36" fill="none" xmlns="http://www.w3.org/2000/svg">
<path d="M27.849 13.985V10.6097C27.8488 10.496 27.8262 10.3835 27.7823 10.2786C27.7385 10.1738 27.6743 10.0786 27.5936 9.99863C27.5128 9.91867 27.417 9.85547 27.3117 9.8127C27.2064 9.76992 27.0937 9.7484 26.98 9.74938H21.0934V5.54855C21.0927 4.87305 20.8242 4.22539 20.3466 3.74762C19.8691 3.26985 19.2216 3.00099 18.5461 3H9.54731C8.87181 3.00099 8.22428 3.26985 7.74674 3.74762C7.2692 4.22539 7.00066 4.87305 7 5.54855V28.0448C7.00066 28.7204 7.2692 29.368 7.74674 29.8458C8.22428 30.3235 8.87181 30.5924 9.54731 30.5934H15.5461C15.8109 30.593 15.0824 27.1347 16 25C16.4433 23.9686 18.2029 24.9153 18.5 23.8458C18.5 23.8458 19.1468 24.0458 19.3466 23.8458C19.8242 23.368 21.0927 23.7204 21.0934 23.0448V14.8453H26.98C27.0937 14.8462 27.2064 14.8247 27.3117 14.7819C27.417 14.7392 27.5128 14.676 27.5936 14.596C27.6743 14.516 27.7385 14.4209 27.7823 14.316C27.8262 14.2111 27.8488 14.0986 27.849 13.985ZM19.3728 23.0448C19.3728 23.2641 19.2857 23.4744 19.1307 23.6295C19.0512 23.7089 17.5 23 16.2985 24C16.2985 24.2773 15.8324 24.25 15.5978 24.5C14.9518 25.8402 15.605 28.8716 15.5461 28.8716H9.54731C9.32804 28.8716 9.11775 28.7845 8.9627 28.6295C8.80766 28.4744 8.72055 28.2641 8.72055 28.0448V5.54855C8.72055 5.32928 8.80766 5.11899 8.9627 4.96395C9.11775 4.8089 9.32804 4.72179 9.54731 4.72179H18.5461C18.7653 4.72179 18.9756 4.8089 19.1307 4.96395C19.2857 5.11899 19.3728 5.32928 19.3728 5.54855V9.74938H16.6766C16.3378 9.3923 15.9296 9.10831 15.477 8.91489C15.0244 8.72147 14.537 8.62271 14.0448 8.62469C13.5569 8.61572 13.072 8.70409 12.6185 8.88462C12.1651 9.06516 11.7522 9.33425 11.4039 9.67618C11.0556 10.0181 10.779 10.426 10.5902 10.876C10.4013 11.3261 10.3041 11.8093 10.3041 12.2973C10.3041 12.7854 10.4013 13.2685 10.5902 13.7186C10.779 14.1686 11.0556 14.5765 11.4039 14.9185C11.7522 15.2604 12.1651 15.5295 12.6185 15.71C13.072 15.8905 13.5569 15.9789 14.0448 15.9699C14.537 15.9719 15.0244 15.8732 15.477 15.6797C15.9296 15.4863 16.3378 15.2023 16.6766 14.8453H19.3703L19.3728 23.0448ZM26.1222 13.1247H16.2843C16.1514 13.1253 16.0204 13.1564 15.9014 13.2156C15.7823 13.2748 15.6785 13.3605 15.5978 13.4661C15.4184 13.7086 15.1847 13.9057 14.9155 14.0417C14.6463 14.1777 14.3489 14.2489 14.0473 14.2494C13.7868 14.256 13.5276 14.2103 13.2851 14.1152C13.0425 14.02 12.8214 13.8773 12.6348 13.6954C12.4483 13.5135 12.3 13.296 12.1988 13.0559C12.0975 12.8158 12.0454 12.5579 12.0454 12.2973C12.0454 12.0367 12.0975 11.7788 12.1988 11.5387C12.3 11.2986 12.4483 11.0812 12.6348 10.8993C12.8214 10.7173 13.0425 10.5746 13.2851 10.4795C13.5276 10.3843 13.7868 10.3387 14.0473 10.3452C14.3489 10.3458 14.6463 10.4169 14.9155 10.5529C15.1847 10.6889 15.4184 10.8861 15.5978 11.1286C15.6785 11.2342 15.7823 11.3199 15.9014 11.379C16.0204 11.4382 16.1514 11.4693 16.2843 11.4699H26.1222V13.1247Z" fill="black"/>
<path d="M28.5 17C26.2812 17 24.5 18.8125 24.5 21V23H17C15.875 23 15 23.9062 15 25V31C15 32.125 15.875 33 17 33H27C28.0938 33 29 32.125 29 31V25C29 23.9062 28.0938 23 27 23H26V21C26 19.625 27.0938 18.5 28.5 18.5C29.875 18.5 31 19.625 31 21V23.25C31 23.6875 31.3125 24 31.75 24C32.1562 24 32.5 23.6875 32.5 23.25V21C32.5 18.8125 30.6875 17 28.5 17ZM27 24.5C27.25 24.5 27.5 24.75 27.5 25V31C27.5 31.2812 27.25 31.5 27 31.5H17C16.7188 31.5 16.5 31.2812 16.5 31V25C16.5 24.75 16.7188 24.5 17 24.5H27ZM22 29.5C22.4062 29.5 22.75 29.1875 22.75 28.75V27.25C22.75 26.8438 22.4062 26.5 22 26.5C21.5625 26.5 21.25 26.8438 21.25 27.25V28.75C21.25 29.1875 21.5625 29.5 22 29.5Z" fill="black"/>
</svg>
