<svg width="36" height="36" viewBox="0 0 36 36" fill="none" xmlns="http://www.w3.org/2000/svg">
<path d="M23.1875 4.375H13.0625C11.1641 4.375 9.6875 5.9043 9.6875 7.75V28C9.6875 29.8984 11.1641 31.375 13.0625 31.375H23.1875C25.0332 31.375 26.5625 29.8984 26.5625 28V7.75C26.5625 5.9043 25.0332 4.375 23.1875 4.375ZM24.875 28C24.875 28.9492 24.084 29.6875 23.1875 29.6875H13.0625C12.1133 29.6875 11.375 28.9492 11.375 28V7.75C11.375 6.85352 12.1133 6.0625 13.0625 6.0625H23.1875C24.084 6.0625 24.875 6.85352 24.875 7.75V28ZM19.8125 25.4688H16.4375C15.9629 25.4688 15.5938 25.8906 15.5938 26.3125C15.5938 26.7871 15.9629 27.1562 16.4375 27.1562H19.8125C20.2344 27.1562 20.6562 26.7871 20.6562 26.3125C20.6562 25.8906 20.2344 25.4688 19.8125 25.4688Z" fill="black"/>
</svg>
