<svg width="36" height="36" viewBox="0 0 36 36" fill="none" xmlns="http://www.w3.org/2000/svg">
<path d="M29.2072 13.6664C29.0266 13.5538 28.8201 13.4895 28.6075 13.4797C28.3948 13.47 28.1833 13.515 27.9931 13.6105L21.065 17.074V14.7253C21.0668 14.5121 21.0137 14.3021 20.9108 14.1154C20.8078 13.9287 20.6586 13.7717 20.4773 13.6594C20.2961 13.5471 20.089 13.4835 19.876 13.4745C19.663 13.4655 19.4513 13.5115 19.2613 13.6081L12.3344 17.0715V8.90447C12.3327 8.57574 12.2014 8.26093 11.969 8.02848C11.7365 7.79603 11.4217 7.66472 11.093 7.66309H7.44829C7.11966 7.66504 6.80504 7.79646 6.57266 8.02884C6.34028 8.26122 6.20886 8.57584 6.20691 8.90447V27.0957C6.20886 27.4243 6.34028 27.7389 6.57266 27.9713C6.80504 28.2037 7.11966 28.3351 7.44829 28.337H28.5517C28.8804 28.3351 29.195 28.2037 29.4274 27.9713C29.6597 27.7389 29.7912 27.4243 29.7931 27.0957V14.7253C29.7939 14.5135 29.7405 14.305 29.6379 14.1196C29.5354 13.9343 29.3871 13.7782 29.2072 13.6664ZM28.0316 26.5768H7.96843V9.4246H10.5753V19.0912C10.5758 19.1789 10.5985 19.2649 10.6412 19.3414C10.6839 19.418 10.7454 19.4824 10.8197 19.5287C10.8941 19.5751 10.979 19.6019 11.0665 19.6065C11.154 19.6112 11.2413 19.5937 11.3202 19.5555L19.2997 15.5657V19.0912C19.2997 19.1797 19.3223 19.2667 19.3654 19.344C19.4084 19.4213 19.4705 19.4863 19.5458 19.5328C19.621 19.5793 19.7069 19.6058 19.7953 19.6098C19.8837 19.6138 19.9716 19.5951 20.0508 19.5555L28.0316 15.5657V26.5768Z" fill="black"/>
<path d="M24.7294 21.7142H22.9121C22.6104 21.7142 22.3658 21.9588 22.3658 22.2604V24.0778C22.3658 24.3795 22.6104 24.624 22.9121 24.624H24.7294C25.0311 24.624 25.2756 24.3795 25.2756 24.0778V22.2604C25.2756 21.9588 25.0311 21.7142 24.7294 21.7142Z" fill="black"/>
<path d="M18.9086 21.7142H17.0912C16.7896 21.7142 16.545 21.9588 16.545 22.2604V24.0778C16.545 24.3795 16.7896 24.624 17.0912 24.624H18.9086C19.2103 24.624 19.4548 24.3795 19.4548 24.0778V22.2604C19.4548 21.9588 19.2103 21.7142 18.9086 21.7142Z" fill="black"/>
<path d="M13.0878 21.7142H11.2705C10.9688 21.7142 10.7242 21.9588 10.7242 22.2604V24.0778C10.7242 24.3795 10.9688 24.624 11.2705 24.624H13.0878C13.3895 24.624 13.634 24.3795 13.634 24.0778V22.2604C13.634 21.9588 13.3895 21.7142 13.0878 21.7142Z" fill="black"/>
</svg>
