<svg width="36" height="36" viewBox="0 0 36 36" fill="none" xmlns="http://www.w3.org/2000/svg">
<path d="M30.7415 18.046H30.2003C30.0465 18.0454 29.8983 18.104 29.7865 18.2096C29.6747 18.3152 29.6077 18.4597 29.5994 18.6133C29.464 21.1619 28.4932 23.5951 26.8369 25.5368C25.1806 27.4786 22.9309 28.8209 20.4355 29.3564C17.9401 29.892 15.3378 29.5909 13.0306 28.4997C10.7234 27.4086 8.83966 25.588 7.67047 23.3194L7.63571 23.2511H9.41957C9.57925 23.2511 9.73239 23.1876 9.8453 23.0747C9.95821 22.9618 10.0216 22.8087 10.0216 22.649V22.109C10.0216 21.9493 9.95821 21.7962 9.8453 21.6833C9.73239 21.5704 9.57925 21.5069 9.41957 21.5069H5.24233C5.08265 21.5069 4.92951 21.5704 4.8166 21.6833C4.70369 21.7962 4.64026 21.9493 4.64026 22.109V26.6438C4.64026 26.8034 4.70369 26.9566 4.8166 27.0695C4.92951 27.1824 5.08265 27.2458 5.24233 27.2458H5.78233C5.86139 27.2458 5.93968 27.2303 6.01273 27.2C6.08578 27.1698 6.15215 27.1254 6.20805 27.0695C6.26396 27.0136 6.30831 26.9472 6.33857 26.8742C6.36882 26.8011 6.3844 26.7228 6.3844 26.6438V24.6067L6.47129 24.7544C7.92591 27.2355 10.1422 29.181 12.7908 30.3018C15.4395 31.4227 18.3791 31.6591 21.1728 30.9759C23.9665 30.2926 26.4652 28.7263 28.2975 26.5095C30.1299 24.2928 31.1982 21.544 31.3436 18.6716C31.3481 18.591 31.3358 18.5104 31.3076 18.4348C31.2794 18.3591 31.2359 18.2902 31.1797 18.2322C31.1233 18.1728 31.0553 18.1256 30.9799 18.0936C30.9045 18.0616 30.8234 18.0454 30.7415 18.046Z" fill="black"/>
<path d="M30.7576 8.75408H30.2176C30.0579 8.75408 29.9048 8.81751 29.7919 8.93042C29.679 9.04333 29.6155 9.19647 29.6155 9.35615V11.3933L29.5286 11.2455C28.0746 8.76363 25.8584 6.81726 23.2095 5.69581C20.5606 4.57436 17.6206 4.33771 14.8264 5.02104C12.0323 5.70437 9.53331 7.2712 7.70099 9.48857C5.86867 11.7059 4.80088 14.4554 4.65637 17.3283C4.65187 17.4089 4.6641 17.4895 4.6923 17.5652C4.72051 17.6408 4.76406 17.7098 4.82023 17.7677C4.87648 17.8274 4.94443 17.8748 5.01982 17.9071C5.09521 17.9393 5.17644 17.9557 5.25843 17.9552H5.79968C5.95336 17.956 6.10148 17.8977 6.21334 17.7923C6.3252 17.687 6.39222 17.5426 6.4005 17.3891C6.53488 14.8401 7.50504 12.4064 9.16104 10.464C10.817 8.52156 13.0667 7.17864 15.5623 6.64275C18.058 6.10687 20.6606 6.40785 22.968 7.49919C25.2755 8.59053 27.1593 10.4115 28.3282 12.6806L28.363 12.7488H26.486C26.3263 12.7488 26.1732 12.8123 26.0603 12.9252C25.9474 13.0381 25.8839 13.1912 25.8839 13.3509V13.8909C25.8839 14.0506 25.9474 14.2037 26.0603 14.3166C26.1732 14.4295 26.3263 14.493 26.486 14.493H30.7576C30.9174 14.493 31.0707 14.4296 31.1838 14.3167C31.2969 14.2038 31.3606 14.0507 31.3609 13.8909V9.35615C31.3606 9.19636 31.2969 9.04322 31.1838 8.93035C31.0707 8.81747 30.9174 8.75408 30.7576 8.75408Z" fill="black"/>
</svg>
