<svg width="36" height="36" viewBox="0 0 36 36" fill="none" xmlns="http://www.w3.org/2000/svg">
<path d="M27.7089 10.0201H8.2912C7.51648 10.0211 6.77378 10.3293 6.22597 10.8771C5.67816 11.4249 5.36997 12.1676 5.36899 12.9423V26.8135C5.36997 27.5882 5.67816 28.3309 6.22597 28.8787C6.77378 29.4265 7.51648 29.7347 8.2912 29.7357H27.7089C28.4836 29.7347 29.2263 29.4265 29.7741 28.8787C30.3219 28.3309 30.6301 27.5882 30.6311 26.8135V12.9423C30.6301 12.1676 30.3219 11.4249 29.7741 10.8771C29.2263 10.3293 28.4836 10.0211 27.7089 10.0201ZM28.9502 26.811C28.9502 27.1403 28.8194 27.456 28.5866 27.6888C28.3538 27.9216 28.0381 28.0524 27.7089 28.0524H8.2912C7.96196 28.0524 7.64621 27.9216 7.41341 27.6888C7.1806 27.456 7.04982 27.1403 7.04982 26.811V12.9423C7.04982 12.6131 7.1806 12.2974 7.41341 12.0646C7.64621 11.8318 7.96196 11.701 8.2912 11.701H27.7089C28.0381 11.701 28.3538 11.8318 28.5866 12.0646C28.8194 12.2974 28.9502 12.6131 28.9502 12.9423V26.811Z" fill="black"/>
<path d="M25.6517 21.3606H10.348C10.1175 21.3606 9.89651 21.4521 9.73355 21.6151C9.57059 21.7781 9.47903 21.9991 9.47903 22.2296C9.47903 22.46 9.57059 22.681 9.73355 22.844C9.89651 23.007 10.1175 23.0985 10.348 23.0985H25.6517C25.8822 23.0985 26.1032 23.007 26.2662 22.844C26.4291 22.681 26.5207 22.46 26.5207 22.2296C26.5207 21.9991 26.4291 21.7781 26.2662 21.6151C26.1032 21.4521 25.8822 21.3606 25.6517 21.3606Z" fill="black"/>
<path d="M16.3215 24.1635H10.348C10.1175 24.1635 9.89651 24.255 9.73355 24.418C9.57059 24.5809 9.47903 24.802 9.47903 25.0324C9.47903 25.2629 9.57059 25.4839 9.73355 25.6469C9.89651 25.8098 10.1175 25.9014 10.348 25.9014H16.3215C16.552 25.9014 16.773 25.8098 16.936 25.6469C17.0989 25.4839 17.1905 25.2629 17.1905 25.0324C17.1905 24.802 17.0989 24.5809 16.936 24.418C16.773 24.255 16.552 24.1635 16.3215 24.1635Z" fill="black"/>
<path d="M25.6518 17.7394H19.6783C19.4479 17.7394 19.2268 17.8309 19.0639 17.9939C18.9009 18.1569 18.8094 18.3779 18.8094 18.6083C18.8094 18.8388 18.9009 19.0598 19.0639 19.2228C19.2268 19.3858 19.4479 19.4773 19.6783 19.4773H25.6518C25.8823 19.4773 26.1033 19.3858 26.2663 19.2228C26.4293 19.0598 26.5208 18.8388 26.5208 18.6083C26.5208 18.3779 26.4293 18.1569 26.2663 17.9939C26.1033 17.8309 25.8823 17.7394 25.6518 17.7394Z" fill="black"/>
<path d="M11.9779 4.94164C12.096 5.05477 12.2532 5.11792 12.4167 5.11792C12.5803 5.11792 12.7375 5.05477 12.8556 4.94164C14.2597 3.65564 16.0946 2.94233 17.9986 2.94233C19.9026 2.94233 21.7376 3.65564 23.1416 4.94164C23.2489 5.04225 23.3879 5.10235 23.5347 5.11164C23.6815 5.12093 23.8269 5.07882 23.9461 4.99254C23.9713 4.97478 23.995 4.95484 24.0168 4.93295L24.3892 4.56054L24.4054 4.5444C24.5204 4.42248 24.5824 4.25992 24.5777 4.09237C24.5731 3.92482 24.5021 3.76596 24.3805 3.65061C22.6405 2.0482 20.3616 1.15869 17.9961 1.15869C15.6307 1.15869 13.3517 2.0482 11.6117 3.65061L11.5919 3.67047C11.5338 3.7298 11.488 3.79998 11.4571 3.87702C11.4261 3.95405 11.4107 4.03642 11.4116 4.11943C11.4126 4.20243 11.4298 4.28444 11.4624 4.36076C11.4951 4.43709 11.5424 4.50624 11.6018 4.56426L11.9779 4.94164Z" fill="black"/>
<path d="M13.8624 6.37824L13.8339 6.40555C13.7759 6.46514 13.7302 6.5356 13.6995 6.61288C13.6688 6.69017 13.6536 6.77275 13.6549 6.8559C13.6562 6.93906 13.6738 7.02114 13.7069 7.09745C13.7399 7.17376 13.7877 7.24279 13.8475 7.30059L14.22 7.66307C14.2337 7.6768 14.2487 7.68927 14.2646 7.70031C14.3829 7.79546 14.5311 7.84546 14.6828 7.84136C14.8344 7.83727 14.9797 7.77935 15.0926 7.67796C15.8995 6.97056 16.9357 6.58002 18.0087 6.57888C19.0818 6.57773 20.1188 6.96607 20.9271 7.67176C21.0359 7.76808 21.1742 7.8245 21.3193 7.83172C21.4643 7.83894 21.6076 7.79653 21.7253 7.71148C21.7495 7.69418 21.7723 7.67509 21.7936 7.65438L22.166 7.28196C22.1748 7.2746 22.1827 7.26627 22.1896 7.25714C22.3021 7.13357 22.3612 6.97052 22.354 6.80355C22.3468 6.63658 22.2739 6.47923 22.1511 6.36583C21.0081 5.35174 19.5324 4.79276 18.0044 4.79505C16.4764 4.79734 15.0024 5.36074 13.8624 6.37824Z" fill="black"/>
</svg>
