<svg width="36" height="36" viewBox="0 0 36 36" fill="none" xmlns="http://www.w3.org/2000/svg">
<path fill-rule="evenodd" clip-rule="evenodd" d="M30 18C30 18.4219 29.625 18.75 29.25 18.75H27V21.75H29.25C29.625 21.75 30 22.125 30 22.5C30 22.9219 29.625 23.25 29.25 23.25H27V24C27 25.6875 25.6406 27 24 27H23.25V29.25C23.25 29.6719 22.875 30 22.5 30C22.0781 30 21.75 29.6719 21.75 29.25V27H18.75V29.25C18.75 29.6719 18.375 30 18 30C17.5781 30 17.25 29.6719 17.25 29.25V27H14.25V29.25C14.25 29.6719 13.875 30 13.5 30C13.0781 30 12.75 29.6719 12.75 29.25V27H12C10.3125 27 9 25.6875 9 24V23.25H6.75C6.32812 23.25 6 22.9219 6 22.5C6 22.125 6.32812 21.75 6.75 21.75H9V18.75H6.75C6.32812 18.75 6 18.4219 6 18C6 17.625 6.32812 17.25 6.75 17.25H9V14.25H6.75C6.32812 14.25 6 13.9219 6 13.5C6 13.125 6.32812 12.75 6.75 12.75H9V12C9 10.3594 10.3125 9 12 9H12.75V6.75C12.75 6.375 13.0781 6 13.5 6C13.875 6 14.25 6.375 14.25 6.75V9H17.25V6.75C17.25 6.375 17.5781 6 18 6C18.375 6 18.75 6.375 18.75 6.75V9H21.75V6.75C21.75 6.375 22.0781 6 22.5 6C22.875 6 23.25 6.375 23.25 6.75V9H24C25.6406 9 27 10.3594 27 12V12.75H29.25C29.625 12.75 30 13.125 30 13.5C30 13.9219 29.625 14.25 29.25 14.25H27V17.25H29.25C29.625 17.25 30 17.625 30 18ZM24 25.5C24.7969 25.5 25.5 24.8438 25.5 24V12C25.5 11.2031 24.7969 10.5 24 10.5H12C11.1562 10.5 10.5 11.2031 10.5 12V24C10.5 24.8438 11.1562 25.5 12 25.5H24ZM21.1875 17.375H21.5C22.1836 17.375 22.75 17.9414 22.75 18.625V21.75C22.75 22.4336 22.1836 23 21.5 23H15.25C14.5469 23 14 22.4336 14 21.75V18.625C14 17.9219 14.5469 17.375 15.25 17.375H15.5625V15.8125C15.5625 14.2695 16.8125 13 18.375 13C19.918 13 21.1875 14.2695 21.1875 15.8125V17.375ZM18.375 21.125C18.707 21.125 19 20.832 19 20.5V19.875C19 19.5234 18.707 19.25 18.375 19.25C18.0234 19.25 17.75 19.5234 17.75 19.875V20.5C17.75 20.832 18.0234 21.125 18.375 21.125ZM16.8125 17.375H19.9375V15.8125C19.9375 14.9531 19.2344 14.25 18.375 14.25C17.4961 14.25 16.8125 14.9531 16.8125 15.8125V17.375Z" fill="black"/>
</svg>
