<svg width="36" height="36" viewBox="0 0 36 36" fill="none" xmlns="http://www.w3.org/2000/svg">
<path d="M15.5603 22.8528V23.8298C15.5603 23.9612 15.6668 24.0676 15.7981 24.0676H20.3354C20.4668 24.0676 20.5732 23.9612 20.5732 23.8298V22.8528C20.5732 22.7214 20.4668 22.615 20.3354 22.615H15.7981C15.6668 22.615 15.5603 22.7214 15.5603 22.8528Z" fill="black"/>
<path d="M15.5603 20.479V21.4561C15.5603 21.5874 15.6668 21.6938 15.7981 21.6938H20.3354C20.4668 21.6938 20.5732 21.5874 20.5732 21.4561V20.479C20.5732 20.3477 20.4668 20.2412 20.3354 20.2412H15.7981C15.6668 20.2412 15.5603 20.3477 15.5603 20.479Z" fill="black"/>
<path d="M15.5603 25.2261V26.2031C15.5603 26.3345 15.6668 26.4409 15.7981 26.4409H20.3354C20.4668 26.4409 20.5732 26.3345 20.5732 26.2031V25.2261C20.5732 25.0947 20.4668 24.9883 20.3354 24.9883H15.7981C15.6668 24.9883 15.5603 25.0947 15.5603 25.2261Z" fill="black"/>
<path d="M14.3747 7.02464V7.18784H13.9121C13.4049 7.1887 12.9187 7.39072 12.5603 7.74957C12.2018 8.10842 12.0003 8.5948 12.0001 9.10201L12.0001 28.088C12.0006 28.5949 12.2023 29.0809 12.5607 29.4394C12.9192 29.7978 13.4051 29.9994 13.9121 30H22.2237C22.7306 29.9994 23.2166 29.7978 23.5751 29.4394C23.9335 29.0809 24.1351 28.5949 24.1357 28.088V9.10201C24.1357 8.59461 23.9344 8.10795 23.5759 7.74887C23.2174 7.38978 22.7311 7.18762 22.2237 7.18676H21.7589V7.02355C21.7589 6.75209 21.6511 6.49175 21.4592 6.29979C21.2672 6.10784 21.0069 6 20.7354 6H15.3961C15.1248 6.00057 14.8648 6.10881 14.6733 6.30094C14.4818 6.49306 14.3744 6.75336 14.3747 7.02464ZM20.3074 8.64049H22.2237C22.3458 8.64049 22.4629 8.689 22.5493 8.77535C22.6356 8.8617 22.6841 8.97881 22.6841 9.10093V28.088C22.6841 28.2101 22.6356 28.3272 22.5493 28.4136C22.4629 28.4999 22.3458 28.5484 22.2237 28.5484H13.9121C13.7899 28.5484 13.6728 28.4999 13.5865 28.4136C13.5001 28.3272 13.4516 28.2101 13.4516 28.088L13.4516 9.10201C13.4516 8.97989 13.5001 8.86278 13.5865 8.77643C13.6728 8.69008 13.7899 8.64157 13.9121 8.64157H15.8262V7.45265H20.3063L20.3074 8.64049Z" fill="black"/>
<path d="M15.5603 18.1057V19.0828C15.5603 19.2141 15.6668 19.3206 15.7981 19.3206H20.3354C20.4668 19.3206 20.5732 19.2141 20.5732 19.0828V18.1057C20.5732 17.9744 20.4668 17.8679 20.3354 17.8679H15.7981C15.6668 17.8679 15.5603 17.9744 15.5603 18.1057Z" fill="black"/>
<path d="M15.5603 13.3584V14.3355C15.5603 14.4668 15.6668 14.5732 15.7981 14.5732H20.3354C20.4668 14.5732 20.5732 14.4668 20.5732 14.3355V13.3584C20.5732 13.2271 20.4668 13.1206 20.3354 13.1206H15.7981C15.6668 13.1206 15.5603 13.2271 15.5603 13.3584Z" fill="black"/>
<path d="M15.5603 10.9504V11.9275C15.5603 12.0588 15.6668 12.1653 15.7981 12.1653H20.3354C20.4668 12.1653 20.5732 12.0588 20.5732 11.9275V10.9504C20.5732 10.8191 20.4668 10.7126 20.3354 10.7126H15.7981C15.6668 10.7126 15.5603 10.8191 15.5603 10.9504Z" fill="black"/>
<path d="M15.5603 15.7317V16.7087C15.5603 16.8401 15.6668 16.9465 15.7981 16.9465H20.3354C20.4668 16.9465 20.5732 16.8401 20.5732 16.7087V15.7317C20.5732 15.6003 20.4668 15.4939 20.3354 15.4939H15.7981C15.6668 15.4939 15.5603 15.6003 15.5603 15.7317Z" fill="black"/>
</svg>
