<svg width="36" height="36" viewBox="0 0 36 36" fill="none" xmlns="http://www.w3.org/2000/svg">
<path d="M29.7272 17.3061H18.4965V6.0704C18.4961 5.83774 18.4036 5.61469 18.239 5.45017C18.0745 5.28565 17.8515 5.19308 17.6188 5.19275C15.0496 5.19201 12.5378 5.95319 10.4012 7.38003C8.26455 8.80686 6.59903 10.8353 5.61526 13.2087C4.63148 15.5821 4.37364 18.194 4.87433 20.714C5.37502 23.234 6.61176 25.5489 8.42815 27.3659C10.2445 29.183 12.559 30.4206 15.0788 30.9223C17.5986 31.4239 20.2105 31.1671 22.5843 30.1842C24.9581 29.2014 26.9872 27.5366 28.4148 25.4006C29.8425 23.2645 30.6046 20.753 30.6049 18.1838C30.6045 17.9511 30.512 17.7281 30.3474 17.5635C30.1829 17.399 29.9599 17.3064 29.7272 17.3061ZM28.8123 19.0937C28.6384 21.2309 27.8565 23.2738 26.559 24.9809C25.2614 26.6881 23.5024 27.9882 21.4896 28.7278C19.4769 29.4674 17.2946 29.6155 15.2004 29.1546C13.1062 28.6938 11.1876 27.6432 9.67126 26.1271C8.15493 24.6109 7.10418 22.6924 6.64312 20.5983C6.18206 18.5041 6.32994 16.3218 7.06931 14.309C7.80868 12.2962 9.10864 10.537 10.8157 9.23926C12.5227 7.94152 14.5654 7.1594 16.7027 6.9853H16.7362V18.185C16.7362 18.4179 16.8286 18.6413 16.9932 18.806C17.1577 18.9708 17.3809 19.0636 17.6138 19.0639H28.8148L28.8123 19.0937Z" fill="black"/>
<path d="M28.1607 7.49176C28.1409 7.46747 28.1197 7.44427 28.0974 7.42224C28.0763 7.40238 28.0515 7.38127 28.0217 7.35769C26.0535 5.50072 23.4494 4.46716 20.7435 4.469C20.6279 4.46867 20.5135 4.49112 20.4067 4.53507C20.2998 4.57901 20.2027 4.64359 20.1208 4.7251C20.039 4.80662 19.974 4.90347 19.9296 5.01012C19.8852 5.11677 19.8623 5.23113 19.8621 5.34665V15.1014C19.8624 15.3341 19.955 15.5571 20.1195 15.7216C20.284 15.8862 20.5071 15.9787 20.7397 15.9791H30.4945C30.7272 15.9787 30.9502 15.8862 31.1147 15.7216C31.2793 15.5571 31.3718 15.3341 31.3722 15.1014C31.3761 13.6822 31.0938 12.2768 30.542 10.9693C29.9901 9.66178 29.1802 8.47901 28.1607 7.49176ZM21.6211 6.26776H21.6546C22.217 6.32662 22.7723 6.43928 23.3131 6.60417L23.3603 6.61907L21.6224 8.48114L21.6211 6.26776ZM21.6211 11.052L21.6298 11.0433L25.0759 7.3552L25.097 7.36762C25.4761 7.58117 25.8387 7.82267 26.182 8.0901L26.2093 8.1112L21.6162 12.8607L21.6211 11.052ZM22.7446 14.2238L27.478 9.32403L27.4991 9.3501C27.7951 9.69766 28.064 10.0674 28.3035 10.4562L28.3159 10.476L28.2998 10.4934L24.8152 14.2238H22.7446ZM27.2135 14.2238L29.1215 12.1817L29.1389 12.2301C29.356 12.8651 29.5001 13.5227 29.5684 14.1902V14.2238H27.2135Z" fill="black"/>
</svg>
