<svg width="36" height="36" viewBox="0 0 36 36" fill="none" xmlns="http://www.w3.org/2000/svg">
<path d="M10.5518 10.8784C9.14336 10.8792 7.7668 11.2975 6.59612 12.0805C5.42543 12.8635 4.5132 13.976 3.97473 15.2774C3.43627 16.5788 3.29577 18.0106 3.57099 19.3919C3.8462 20.7731 4.52478 22.0418 5.52093 23.0374C6.51708 24.033 7.78607 24.7109 9.16746 24.9854C10.5488 25.2599 11.9806 25.1187 13.2817 24.5795C14.5829 24.0404 15.6949 23.1276 16.4773 21.9565C17.2597 20.7854 17.6773 19.4086 17.6773 18.0002C17.675 16.1115 16.9234 14.3008 15.5875 12.9656C14.2516 11.6304 12.4405 10.8797 10.5518 10.8784ZM10.5518 23.3841C9.48709 23.3833 8.44654 23.067 7.56166 22.4749C6.67678 21.8829 5.98729 21.0418 5.58037 20.0579C5.17345 19.0741 5.06737 17.9917 5.27552 16.9476C5.48368 15.9035 5.99674 14.9445 6.74983 14.1919C7.50293 13.4394 8.46225 12.927 9.50651 12.7195C10.5508 12.5121 11.6331 12.6189 12.6167 13.0265C13.6002 13.4341 14.4408 14.1242 15.0323 15.0095C15.6237 15.8948 15.9393 16.9355 15.9393 18.0002C15.9377 19.4282 15.3694 20.7973 14.3593 21.8067C13.3492 22.8161 11.9798 23.3834 10.5518 23.3841Z" fill="black"/>
<path d="M11.1551 17.317L10.9626 17.2612C10.1644 17.0402 9.96954 16.9198 9.96954 16.6219C9.96954 16.4046 10.1024 16.1737 10.5108 16.1737C10.9378 16.1737 11.0843 16.3786 11.1501 16.571C11.1607 16.6011 11.1698 16.6318 11.1774 16.6628C11.1788 16.6764 11.1849 16.689 11.1947 16.6985C11.2044 16.7081 11.2172 16.7139 11.2308 16.715H12.6038C12.6132 16.7142 12.6223 16.7115 12.6307 16.7072C12.6391 16.7028 12.6465 16.6968 12.6525 16.6895C12.6586 16.6822 12.663 16.6738 12.6658 16.6647C12.6685 16.6557 12.6693 16.6462 12.6683 16.6368C12.5839 15.9081 12.1171 15.3457 11.1501 15.1769V14.3998C11.1501 14.2111 11.1178 14.1788 10.9291 14.1788H10.1793C9.99064 14.1788 9.95837 14.2111 9.95837 14.3998V15.1695C9.02485 15.3408 8.41285 15.9515 8.41285 16.818C8.41285 17.5566 8.73188 18.1078 9.95837 18.5162C10.0784 18.5559 10.2075 18.5944 10.3457 18.6317C10.8199 18.7558 11.0557 18.8725 11.16 19.0339C11.2085 19.1151 11.2322 19.2087 11.2283 19.3032C11.2294 19.3908 11.2057 19.4769 11.16 19.5515C11.0756 19.6831 10.9117 19.775 10.6039 19.775C10.4822 19.7823 10.3604 19.761 10.2484 19.713C10.1363 19.6649 10.037 19.5913 9.95837 19.4981C9.89626 19.4218 9.84871 19.3347 9.81809 19.2412C9.81379 19.2268 9.80517 19.2141 9.79341 19.2047C9.78164 19.1954 9.76729 19.1899 9.7523 19.189C9.71754 19.189 8.38678 19.189 8.33216 19.189C8.27754 19.189 8.29368 19.2176 8.29492 19.2312C8.36816 20.017 8.91561 20.6303 9.9534 20.8003V21.5998C9.9534 21.7885 9.98568 21.8208 10.1744 21.8208H10.9341C11.1228 21.8208 11.1551 21.7885 11.1551 21.5998V20.8041C12.1581 20.6563 12.8123 20.1002 12.8173 19.1071C12.8198 18.289 12.4647 17.7118 11.1551 17.317Z" fill="black"/>
<path d="M31.0208 12.3819H23.1281L24.7308 10.7792C24.8495 10.6603 24.9161 10.4991 24.9161 10.3311C24.9161 10.1631 24.8495 10.0019 24.7308 9.88296L24.3857 9.53786C24.3269 9.47878 24.2571 9.4319 24.1802 9.3999C24.1033 9.36791 24.0208 9.35144 23.9375 9.35144C23.8542 9.35144 23.7717 9.36791 23.6948 9.3999C23.6179 9.4319 23.5481 9.47878 23.4894 9.53786L20.2246 12.8014C20.1058 12.9206 20.0391 13.082 20.0391 13.2502C20.0391 13.4184 20.1058 13.5798 20.2246 13.699L23.4894 16.975C23.5481 17.034 23.6179 17.0809 23.6948 17.1129C23.7717 17.1449 23.8542 17.1614 23.9375 17.1614C24.0208 17.1614 24.1033 17.1449 24.1802 17.1129C24.2571 17.0809 24.3269 17.034 24.3857 16.975L24.7308 16.6299C24.8495 16.5109 24.9161 16.3498 24.9161 16.1817C24.9161 16.0137 24.8495 15.8525 24.7308 15.7336L23.1281 14.131H31.0208C31.1887 14.131 31.3498 14.0643 31.4685 13.9455C31.5872 13.8268 31.6539 13.6658 31.6539 13.4979V13.015C31.6539 12.8471 31.5872 12.686 31.4685 12.5673C31.3498 12.4486 31.1887 12.3819 31.0208 12.3819Z" fill="black"/>
<path d="M28.2042 19.0253C28.1455 18.9662 28.0757 18.9193 27.9988 18.8873C27.9219 18.8553 27.8394 18.8389 27.7561 18.8389C27.6728 18.8389 27.5903 18.8553 27.5134 18.8873C27.4365 18.9193 27.3667 18.9662 27.3079 19.0253L26.9628 19.3654C26.8441 19.4843 26.7775 19.6455 26.7775 19.8136C26.7775 19.9816 26.8441 20.1428 26.9628 20.2617L28.5655 21.8643H20.6715C20.5038 21.8646 20.3431 21.9315 20.2247 22.0502C20.1062 22.1689 20.0397 22.3297 20.0397 22.4974V22.9803C20.0395 23.0634 20.0557 23.1457 20.0874 23.2225C20.1191 23.2993 20.1656 23.3691 20.2243 23.4279C20.283 23.4867 20.3527 23.5334 20.4294 23.5652C20.5062 23.597 20.5885 23.6134 20.6715 23.6134H28.5655L26.9628 25.221C26.8441 25.3399 26.7775 25.5011 26.7775 25.6691C26.7775 25.8372 26.8441 25.9983 26.9628 26.1173L27.3079 26.4624C27.3667 26.5214 27.4365 26.5683 27.5134 26.6003C27.5903 26.6323 27.6728 26.6488 27.7561 26.6488C27.8394 26.6488 27.9219 26.6323 27.9988 26.6003C28.0757 26.5683 28.1455 26.5214 28.2042 26.4624L31.469 23.1988C31.5878 23.0796 31.6545 22.9183 31.6545 22.75C31.6545 22.5818 31.5878 22.4204 31.469 22.3013L28.2042 19.0253Z" fill="black"/>
</svg>
