<svg width="36" height="36" viewBox="0 0 36 36" fill="none" xmlns="http://www.w3.org/2000/svg">
<path d="M19.8572 17.7245H19.4451C19.3258 17.7245 19.2291 17.8212 19.2291 17.9405V20.8279C19.2291 20.9472 19.3258 21.0439 19.4451 21.0439H19.8572C19.9765 21.0439 20.0732 20.9472 20.0732 20.8279V17.9405C20.0732 17.8212 19.9765 17.7245 19.8572 17.7245Z" fill="black"/>
<path d="M18.206 17.7245H17.7938C17.6745 17.7245 17.5778 17.8212 17.5778 17.9405V20.8279C17.5778 20.9472 17.6745 21.0439 17.7938 21.0439H18.206C18.3252 21.0439 18.422 20.9472 18.422 20.8279V17.9405C18.422 17.8212 18.3252 17.7245 18.206 17.7245Z" fill="black"/>
<path d="M16.555 17.7245H16.1428C16.0235 17.7245 15.9268 17.8212 15.9268 17.9405V20.8279C15.9268 20.9472 16.0235 21.0439 16.1428 21.0439H16.555C16.6742 21.0439 16.771 20.9472 16.771 20.8279V17.9405C16.771 17.8212 16.6742 17.7245 16.555 17.7245Z" fill="black"/>
<path d="M23.8656 4.53101H12.1345C11.4517 4.53199 10.797 4.80369 10.3142 5.28655C9.83134 5.7694 9.55964 6.42401 9.55865 7.10687V28.8931C9.55964 29.5759 9.83134 30.2305 10.3142 30.7134C10.797 31.1962 11.4517 31.4679 12.1345 31.4689H23.8656C24.5484 31.4679 25.203 31.1962 25.6859 30.7134C26.1687 30.2305 26.4404 29.5759 26.4414 28.8931V7.10687C26.4404 6.42401 26.1687 5.7694 25.6859 5.28655C25.203 4.80369 24.5484 4.53199 23.8656 4.53101ZM24.6414 28.8931C24.6414 29.0988 24.5597 29.2962 24.4142 29.4417C24.2687 29.5872 24.0713 29.6689 23.8656 29.6689H12.1345C11.9287 29.6689 11.7314 29.5872 11.5859 29.4417C11.4404 29.2962 11.3587 29.0988 11.3587 28.8931V7.10687C11.3587 6.9011 11.4404 6.70375 11.5859 6.55825C11.7314 6.41275 11.9287 6.33101 12.1345 6.33101H23.8656C24.0713 6.33101 24.2687 6.41275 24.4142 6.55825C24.5597 6.70375 24.6414 6.9011 24.6414 7.10687V28.8931Z" fill="black"/>
<path d="M12.662 24.9755H23.3379V7.62097H12.662V24.9755ZM14.4 9.3589H21.6V23.2375H14.4V9.3589Z" fill="black"/>
<path d="M18 28.7642C18.7898 28.7642 19.4301 28.1239 19.4301 27.3341C19.4301 26.5443 18.7898 25.9041 18 25.9041C17.2102 25.9041 16.5699 26.5443 16.5699 27.3341C16.5699 28.1239 17.2102 28.7642 18 28.7642Z" fill="black"/>
<path d="M33.2825 11.6143C33.1672 11.4927 33.0083 11.4218 32.8408 11.4171C32.6732 11.4125 32.5107 11.4744 32.3888 11.5895C32.3837 11.5951 32.3783 11.6005 32.3726 11.6056L32.0002 11.978C31.9783 11.9998 31.9584 12.0235 31.9406 12.0488C31.8546 12.168 31.8126 12.3134 31.8219 12.4601C31.8312 12.6068 31.8911 12.7458 31.9915 12.8532C33.277 14.2575 33.9899 16.0924 33.9899 17.9962C33.9899 19.9001 33.277 21.7349 31.9915 23.1393C31.8781 23.2572 31.8148 23.4145 31.8148 23.5781C31.8148 23.7417 31.8781 23.899 31.9915 24.0169L32.3565 24.3893C32.4739 24.5093 32.6341 24.5777 32.8019 24.5796C32.9698 24.5815 33.1315 24.5166 33.2515 24.3993L33.2701 24.3794C34.8725 22.6394 35.7621 20.3604 35.7621 17.995C35.7621 15.6295 34.8725 13.3506 33.2701 11.6106L33.2825 11.6143Z" fill="black"/>
<path d="M30.58 13.849C30.4666 13.7262 30.3093 13.6533 30.1423 13.6461C29.9753 13.6389 29.8123 13.698 29.6887 13.8105C29.6799 13.8178 29.6716 13.8256 29.6639 13.8341L29.2915 14.2065C29.2711 14.2281 29.252 14.2509 29.2344 14.2748C29.1493 14.3926 29.1069 14.536 29.1144 14.6811C29.1218 14.8263 29.1786 14.9645 29.2753 15.073C29.9811 15.8814 30.3694 16.9185 30.368 17.9916C30.3666 19.0648 29.9757 20.1009 29.2679 20.9075C29.1665 21.0204 29.1086 21.1657 29.1045 21.3174C29.1004 21.4691 29.1504 21.6173 29.2455 21.7355C29.2566 21.7515 29.269 21.7664 29.2828 21.7802L29.6453 22.1526C29.7031 22.2124 29.7721 22.2602 29.8484 22.2932C29.9247 22.3263 30.0068 22.344 30.09 22.3452C30.1731 22.3465 30.2557 22.3313 30.333 22.3006C30.4103 22.2699 30.4807 22.2242 30.5403 22.1662C30.5503 22.1576 30.5595 22.1481 30.5676 22.1377C31.5856 20.998 32.1494 19.5239 32.1517 17.9957C32.154 16.4675 31.5946 14.9918 30.58 13.849Z" fill="black"/>
<path d="M19.9962 12.991C19.8579 12.8906 19.6996 12.8211 19.532 12.7871C19.3645 12.7532 19.1916 12.7556 19.0251 12.7942C18.8586 12.8328 18.7023 12.9067 18.5668 13.0109C18.4313 13.1151 18.3197 13.2471 18.2396 13.3982C18.1626 13.5413 18.1148 13.6983 18.099 13.8601C18.0833 14.0218 18.0998 14.1851 18.1478 14.3404C18.1622 14.3852 18.1792 14.4291 18.1987 14.472C18.2303 14.5434 18.2694 14.6112 18.3154 14.6743C18.4169 14.8181 18.5485 14.938 18.7012 15.0256C18.8539 15.1131 19.0238 15.1663 19.1992 15.1813C19.3745 15.1963 19.5511 15.1728 19.7164 15.1125C19.8817 15.0521 20.0319 14.9564 20.1563 14.8319C20.2808 14.7075 20.3765 14.5573 20.4369 14.392C20.4972 14.2267 20.5207 14.0502 20.5057 13.8748C20.4907 13.6995 20.4375 13.5295 20.3499 13.3768C20.2624 13.2242 20.1425 13.0925 19.9987 12.991H19.9962Z" fill="black"/>
<path d="M17.8882 14.7489L17.8484 14.6546L17.8075 14.5565C17.7892 14.5125 17.7739 14.4673 17.7615 14.4212L17.7516 14.3815C17.6746 14.1146 17.6746 13.8315 17.7516 13.5647V13.5311C17.7653 13.4827 17.7839 13.4368 17.8013 13.3909L17.8398 13.2978C17.8547 13.2641 17.8717 13.2313 17.8907 13.1997L17.9242 13.1327C17.7672 12.7475 17.5031 12.4155 17.1631 12.1759C16.8232 11.9363 16.4217 11.7992 16.0062 11.7808H15.9702C15.9603 11.7808 15.9479 11.7659 15.9355 11.7808C15.9315 11.7857 15.9263 11.7896 15.9205 11.792C15.9146 11.7944 15.9082 11.7952 15.902 11.7944C15.8918 11.8003 15.8809 11.8048 15.8697 11.8081L15.8374 11.8304C15.8287 11.8367 15.82 11.8416 15.8113 11.8491L15.7828 11.8751L15.7592 11.8975L15.7368 11.9298C15.7218 11.9485 15.7096 11.9694 15.7008 11.9918L15.686 12.0179L15.6748 12.0638V12.0887C15.6723 12.1134 15.6723 12.1384 15.6748 12.1631V15.7855C15.6748 15.8117 15.6773 15.8379 15.6822 15.8637C15.686 15.8838 15.6923 15.9034 15.7008 15.922V15.932C15.7263 15.999 15.7692 16.058 15.825 16.1029C15.8809 16.1479 15.9477 16.1771 16.0186 16.1877C16.433 16.1602 16.8312 16.0168 17.1679 15.7738C17.5046 15.5308 17.7663 15.198 17.9229 14.8135C17.9095 14.793 17.8979 14.7714 17.8882 14.7489Z" fill="black"/>
</svg>
