<svg width="36" height="36" viewBox="0 0 36 36" fill="none" xmlns="http://www.w3.org/2000/svg">
<path d="M27.7089 8.14319H8.29123C7.51651 8.14417 6.77381 8.45236 6.226 9.00017C5.67819 9.54798 5.37 10.2907 5.36902 11.0654V24.9341C5.37 25.7088 5.67819 26.4515 6.226 26.9993C6.77381 27.5471 7.51651 27.8553 8.29123 27.8563H27.7089C28.4836 27.8553 29.2263 27.5471 29.7741 26.9993C30.3219 26.4515 30.6301 25.7088 30.6311 24.9341V11.0654C30.6301 10.2907 30.3219 9.54798 29.7741 9.00017C29.2263 8.45236 28.4836 8.14417 27.7089 8.14319ZM28.9503 24.9341C28.9503 25.2633 28.8195 25.5791 28.5867 25.8119C28.3539 26.0447 28.0381 26.1755 27.7089 26.1755H8.29123C7.96199 26.1755 7.64624 26.0447 7.41344 25.8119C7.18063 25.5791 7.04985 25.2633 7.04985 24.9341V11.0654C7.04985 10.7362 7.18063 10.4204 7.41344 10.1876C7.64624 9.9548 7.96199 9.82402 8.29123 9.82402H27.7089C28.0381 9.82402 28.3539 9.9548 28.5867 10.1876C28.8195 10.4204 28.9503 10.7362 28.9503 11.0654V24.9341Z" fill="black"/>
<path d="M26.1695 15.8747L25.8715 15.3781C25.3281 14.4998 24.4607 13.8707 23.457 13.6269C22.4533 13.3831 21.394 13.5442 20.5082 14.0754C19.6224 14.6066 18.9812 15.4651 18.7235 16.4653C18.4657 17.4655 18.6121 18.5269 19.1308 19.4201C19.163 19.4733 19.2083 19.5174 19.2625 19.548C19.3166 19.5787 19.3777 19.5949 19.4399 19.5951C19.5047 19.5953 19.5682 19.5777 19.6237 19.5442C19.6644 19.5201 19.7 19.4882 19.7284 19.4503C19.7567 19.4124 19.7772 19.3692 19.7888 19.3232C19.8115 19.2304 19.7968 19.1323 19.7478 19.0501C19.327 18.3205 19.2098 17.4547 19.4213 16.6394C19.6328 15.8241 20.1561 15.1245 20.8785 14.6914C21.601 14.2584 22.4646 14.1264 23.2834 14.3241C24.1022 14.5217 24.8105 15.0331 25.2558 15.7481L25.5537 16.2446C25.796 16.649 25.9993 17.0754 26.1608 17.5183C26.1629 17.5268 26.1658 17.5351 26.1695 17.5431C26.205 17.6315 26.2742 17.7022 26.3619 17.7395C26.4495 17.7769 26.5484 17.7779 26.6368 17.7423C26.7252 17.7068 26.7959 17.6376 26.8333 17.5499C26.8706 17.4623 26.8716 17.3634 26.8361 17.275C26.6598 16.7877 26.4365 16.3187 26.1695 15.8747Z" fill="black"/>
<path d="M24.5966 15.6414C24.1497 15.1296 23.5285 14.802 22.8536 14.7225C22.1788 14.6429 21.4984 14.817 20.9447 15.2109C20.391 15.6048 20.0034 16.1904 19.8572 16.854C19.7111 17.5176 19.8167 18.2119 20.1537 18.802L20.4516 19.2985C20.5845 19.5202 20.6549 19.7737 20.6552 20.0322V20.6641C20.6606 20.7557 20.7008 20.8419 20.7676 20.9049C20.8344 20.9679 20.9228 21.0029 21.0146 21.0029C21.1064 21.0029 21.1948 20.9679 21.2616 20.9049C21.3284 20.8419 21.3686 20.7557 21.374 20.6641V20.0322C21.3742 19.6437 21.2682 19.2625 21.0674 18.9299L20.7694 18.4333C20.7483 18.401 20.7285 18.3675 20.7098 18.334C20.579 18.103 20.4954 17.8483 20.4638 17.5846C20.4323 17.321 20.4535 17.0538 20.5261 16.7984C20.6065 16.54 20.7393 16.3009 20.9164 16.0963C21.0935 15.8916 21.311 15.7258 21.5552 15.6092C22.5856 15.0989 23.8245 15.4081 24.5097 16.7165C24.7301 17.128 24.9153 17.5574 25.0634 18.0001C25.2849 18.6578 25.4038 19.3457 25.4159 20.0396V20.6715C25.4213 20.7632 25.4615 20.8493 25.5283 20.9123C25.5951 20.9753 25.6835 21.0104 25.7753 21.0104C25.8671 21.0104 25.9555 20.9753 26.0223 20.9123C26.0891 20.8493 26.1293 20.7632 26.1347 20.6715V20.0396C26.1347 19.1434 26.0515 18.4941 25.7151 17.6711C25.5823 17.3434 25.2272 16.3565 24.5966 15.6414Z" fill="black"/>
<path d="M23.8344 16.5999C23.6229 16.2476 23.2801 15.9938 22.8814 15.8943C22.4827 15.7948 22.0608 15.8577 21.7085 16.0692C21.3563 16.2807 21.1024 16.6236 21.0029 17.0222C20.9034 17.4209 20.9663 17.8428 21.1779 18.1951L21.4758 18.6916C21.7193 19.0982 21.848 19.5633 21.8482 20.0373V21.2638C21.8453 21.3127 21.8525 21.3618 21.8692 21.4079C21.886 21.454 21.912 21.4962 21.9457 21.5319C21.9793 21.5676 22.0199 21.596 22.0649 21.6154C22.11 21.6349 22.1585 21.6449 22.2076 21.6449C22.2566 21.6449 22.3052 21.6349 22.3502 21.6154C22.3953 21.596 22.4358 21.5676 22.4695 21.5319C22.5032 21.4962 22.5292 21.454 22.5459 21.4079C22.5627 21.3618 22.5698 21.3127 22.567 21.2638V20.036C22.5667 19.4319 22.4019 18.8393 22.0903 18.3217L21.7923 17.8251C21.6795 17.6359 21.6463 17.4097 21.7 17.196C21.7538 16.9824 21.8901 16.7988 22.0791 16.6856C22.1727 16.6295 22.2764 16.5923 22.3843 16.5763C22.4922 16.5603 22.6022 16.5657 22.708 16.5922C22.8139 16.6187 22.9134 16.6658 23.0011 16.7308C23.0887 16.7958 23.1626 16.8775 23.2187 16.9711L23.5166 17.4676C23.9821 18.2444 24.228 19.133 24.2279 20.0385V21.265C24.225 21.314 24.2322 21.363 24.249 21.4091C24.2657 21.4552 24.2917 21.4974 24.3254 21.5331C24.359 21.5688 24.3996 21.5972 24.4447 21.6167C24.4897 21.6361 24.5382 21.6461 24.5873 21.6461C24.6364 21.6461 24.6849 21.6361 24.7299 21.6167C24.775 21.5972 24.8156 21.5688 24.8492 21.5331C24.8829 21.4974 24.9089 21.4552 24.9256 21.4091C24.9424 21.363 24.9496 21.314 24.9467 21.265V20.0385C24.9466 19.0024 24.6647 17.9858 24.1311 17.0977L23.8344 16.5999Z" fill="black"/>
<path d="M22.8128 17.2168C22.7887 17.176 22.7568 17.1404 22.7189 17.1121C22.681 17.0838 22.6378 17.0632 22.5918 17.0517C22.4992 17.0288 22.4012 17.0435 22.3193 17.0925C22.2374 17.1416 22.1783 17.2211 22.1549 17.3137C22.1432 17.3594 22.1408 17.407 22.1479 17.4537C22.1549 17.5004 22.1712 17.5452 22.1958 17.5855L22.4938 18.0821C22.8478 18.6728 23.0348 19.3485 23.035 20.0372V22.1587C23.035 22.2542 23.0729 22.3458 23.1405 22.4133C23.208 22.4808 23.2995 22.5187 23.395 22.5187C23.4905 22.5187 23.5821 22.4808 23.6496 22.4133C23.7171 22.3458 23.755 22.2542 23.755 22.1587V20.0397C23.754 19.2207 23.5314 18.4173 23.1107 17.7146L22.8128 17.2168Z" fill="black"/>
<path d="M12.2028 17.5929C12.3195 17.6759 12.4443 17.747 12.5752 17.8052C12.653 17.8409 12.733 17.8716 12.8148 17.8971C13.0979 17.9846 13.3956 18.015 13.6905 17.9865C13.9855 17.9579 14.2718 17.871 14.5329 17.7307C14.6073 17.6897 14.6806 17.6451 14.7513 17.5966C15.1323 17.3265 15.4174 16.9423 15.5656 16.4994C15.7137 16.0566 15.7172 15.5781 15.5755 15.1332C15.4337 14.6882 15.1541 14.2999 14.7771 14.0243C14.4002 13.7487 13.9453 13.6002 13.4783 13.6002C13.0113 13.6002 12.5565 13.7487 12.1795 14.0243C11.8025 14.2999 11.5229 14.6882 11.3812 15.1332C11.2394 15.5781 11.2429 16.0566 11.391 16.4994C11.5392 16.9423 11.8243 17.3265 12.2053 17.5966L12.2028 17.5929Z" fill="black"/>
<path d="M15.0269 18.3031C14.5637 18.5839 14.0324 18.7324 13.4907 18.7324C12.949 18.7324 12.4177 18.5839 11.9545 18.3031C10.5269 18.889 9.55865 20.0894 9.45437 21.774C9.43079 22.1365 9.82679 22.4034 10.1868 22.3947H16.7003C17.0951 22.3947 17.5134 22.103 17.4861 21.7653C17.4873 20.2111 16.4384 18.8692 15.0269 18.3031Z" fill="black"/>
</svg>
