<svg width="36" height="36" viewBox="0 0 36 36" fill="none" xmlns="http://www.w3.org/2000/svg">
<path d="M5.16785 11.6466H14.7799C15.0103 11.6466 15.2313 11.5551 15.3943 11.3921C15.5573 11.2291 15.6488 11.0081 15.6488 10.7777C15.6488 10.5472 15.5573 10.3262 15.3943 10.1632C15.2313 10.0002 15.0103 9.90869 14.7799 9.90869H5.16785C4.93739 9.90869 4.71637 10.0002 4.5534 10.1632C4.39044 10.3262 4.29889 10.5472 4.29889 10.7777C4.29889 11.0081 4.39044 11.2291 4.5534 11.3921C4.71637 11.5551 4.93739 11.6466 5.16785 11.6466Z" fill="black"/>
<path d="M5.16785 15.2579H13.4851C13.7155 15.2579 13.9366 15.1663 14.0995 15.0034C14.2625 14.8404 14.354 14.6194 14.354 14.3889C14.354 14.1585 14.2625 13.9374 14.0995 13.7745C13.9366 13.6115 13.7155 13.52 13.4851 13.52H5.16785C5.05374 13.52 4.94074 13.5424 4.83532 13.5861C4.72989 13.6298 4.63409 13.6938 4.5534 13.7745C4.47271 13.8552 4.4087 13.951 4.36503 14.0564C4.32137 14.1618 4.29889 14.2748 4.29889 14.3889C4.29889 14.503 4.32137 14.616 4.36503 14.7215C4.4087 14.8269 4.47271 14.9227 4.5534 15.0034C4.63409 15.0841 4.72989 15.1481 4.83532 15.1917C4.94074 15.2354 5.05374 15.2579 5.16785 15.2579Z" fill="black"/>
<path d="M5.16785 18.869H12.8396C13.07 18.869 13.2911 18.7775 13.454 18.6145C13.617 18.4516 13.7085 18.2305 13.7085 18.0001C13.7085 17.7696 13.617 17.5486 13.454 17.3856C13.2911 17.2227 13.07 17.1311 12.8396 17.1311H5.16785C4.93739 17.1311 4.71637 17.2227 4.5534 17.3856C4.39044 17.5486 4.29889 17.7696 4.29889 18.0001C4.29889 18.2305 4.39044 18.4516 4.5534 18.6145C4.71637 18.7775 4.93739 18.869 5.16785 18.869Z" fill="black"/>
<path d="M32.9537 18.0002C32.909 15.5174 31.5944 13.1749 29.2494 11.4047C27.0152 9.74057 24.3124 8.82472 21.5268 8.78788C19.3469 8.76182 17.5457 9.82195 16.5923 11.6952C15.7916 13.2246 15.4154 15.2282 15.4092 18.0014C15.4154 20.7138 15.8152 22.7782 16.632 24.3113C17.5866 26.1573 19.3419 27.2149 21.4473 27.2149H21.5268C24.3121 27.1795 27.0148 26.264 29.2481 24.5993C31.5733 22.844 32.8854 20.5264 32.9499 18.0647L32.9537 18.0002ZM28.1917 23.204C26.3073 24.6304 23.8171 25.4832 21.528 25.472C19.9142 25.4472 18.9435 24.8724 18.1663 23.4858C17.5034 22.2556 17.1447 20.3588 17.1497 18.0002C17.1497 15.6155 17.4848 13.7174 18.1316 12.5095C18.8975 11.1291 19.8819 10.5556 21.5268 10.5233H21.5429C23.827 10.5233 26.3135 11.3712 28.1917 12.7913C30.1146 14.2437 31.2157 16.1431 31.2108 17.9952V18.0535C31.1934 19.8957 30.0948 21.769 28.1917 23.204Z" fill="black"/>
<path d="M14.7798 24.3547H5.16908C4.93861 24.3547 4.71759 24.4462 4.55462 24.6092C4.39166 24.7721 4.30011 24.9932 4.30011 25.2236C4.30011 25.4541 4.39166 25.6751 4.55462 25.8381C4.71759 26.001 4.93861 26.0926 5.16908 26.0926H14.7798C15.0103 26.0926 15.2313 26.001 15.3943 25.8381C15.5572 25.6751 15.6488 25.4541 15.6488 25.2236C15.6488 24.9932 15.5572 24.7721 15.3943 24.6092C15.2313 24.4462 15.0103 24.3547 14.7798 24.3547Z" fill="black"/>
<path d="M5.16785 22.4837H13.4851C13.7155 22.4837 13.9366 22.3922 14.0995 22.2292C14.2625 22.0662 14.354 21.8452 14.354 21.6148C14.354 21.3843 14.2625 21.1633 14.0995 21.0003C13.9366 20.8373 13.7155 20.7458 13.4851 20.7458H5.16785C4.93739 20.7458 4.71637 20.8373 4.5534 21.0003C4.39044 21.1633 4.29889 21.3843 4.29889 21.6148C4.29889 21.8452 4.39044 22.0662 4.5534 22.2292C4.71637 22.3922 4.93739 22.4837 5.16785 22.4837Z" fill="black"/>
</svg>
