<svg width="36" height="36" viewBox="0 0 36 36" fill="none" xmlns="http://www.w3.org/2000/svg">
<path d="M23.8656 4.53101H12.1345C11.4517 4.53199 10.797 4.80369 10.3142 5.28655C9.83134 5.7694 9.55964 6.42401 9.55865 7.10687V28.8931C9.55964 29.5759 9.83134 30.2305 10.3142 30.7134C10.797 31.1962 11.4517 31.4679 12.1345 31.4689H23.8656C24.5484 31.4679 25.203 31.1962 25.6859 30.7134C26.1687 30.2305 26.4404 29.5759 26.4414 28.8931V7.10687C26.4404 6.42401 26.1687 5.7694 25.6859 5.28655C25.203 4.80369 24.5484 4.53199 23.8656 4.53101ZM24.6414 28.8931C24.6414 29.0988 24.5597 29.2962 24.4142 29.4417C24.2687 29.5872 24.0713 29.6689 23.8656 29.6689H12.1345C11.9287 29.6689 11.7314 29.5872 11.5859 29.4417C11.4404 29.2962 11.3587 29.0988 11.3587 28.8931V7.10687C11.3587 6.9011 11.4404 6.70375 11.5859 6.55825C11.7314 6.41275 11.9287 6.33101 12.1345 6.33101H23.8656C24.0713 6.33101 24.2687 6.41275 24.4142 6.55825C24.5597 6.70375 24.6414 6.9011 24.6414 7.10687V28.8931Z" fill="black"/>
<path d="M12.662 24.9753H23.3379V7.62085H12.662V24.9753ZM14.4 23.2374V16.7487H15.7369L16.4048 19.4202C16.4325 19.5302 16.4967 19.6277 16.5869 19.6967C16.677 19.7656 16.7879 19.8021 16.9014 19.8C17.0152 19.7981 17.125 19.7571 17.2123 19.6839C17.2995 19.6106 17.3589 19.5096 17.3805 19.3978L18.0881 15.8611L18.6914 18.2768C18.7142 18.3822 18.7705 18.4772 18.852 18.5477C18.9335 18.6181 19.0357 18.6602 19.1432 18.6674C19.2507 18.6747 19.3576 18.6469 19.4479 18.5881C19.5381 18.5292 19.6068 18.4427 19.6436 18.3414L20.2804 16.7487H21.6V23.2374H14.4ZM21.6 9.35878V15.7469H19.944C19.8438 15.7462 19.7456 15.7758 19.6626 15.8318C19.5795 15.8879 19.5153 15.9678 19.4785 16.061L19.291 16.5302L18.5226 13.4553C18.4949 13.3482 18.4323 13.2534 18.3446 13.1859C18.2569 13.1184 18.1491 13.0822 18.0385 13.0829C18.0335 13.0823 18.0285 13.0823 18.0236 13.0829C17.9097 13.0848 17.7999 13.1258 17.7127 13.1991C17.6254 13.2723 17.566 13.3733 17.5444 13.4851L16.8368 17.0218L16.6146 16.1317C16.5881 16.0232 16.5257 15.9268 16.4377 15.8581C16.3496 15.7894 16.2409 15.7524 16.1292 15.7531H14.4V9.35878H21.6Z" fill="black"/>
<path d="M18 28.7642C18.7898 28.7642 19.4301 28.1239 19.4301 27.3341C19.4301 26.5443 18.7898 25.9041 18 25.9041C17.2102 25.9041 16.5699 26.5443 16.5699 27.3341C16.5699 28.1239 17.2102 28.7642 18 28.7642Z" fill="black"/>
<path d="M33.2825 11.6144C33.1672 11.4928 33.0083 11.4219 32.8408 11.4172C32.6732 11.4126 32.5107 11.4746 32.3888 11.5896C32.3837 11.5953 32.3783 11.6007 32.3726 11.6057L32.0002 11.9781C31.9783 11.9999 31.9584 12.0236 31.9406 12.0489C31.8546 12.1681 31.8126 12.3135 31.8219 12.4602C31.8312 12.607 31.8911 12.7459 31.9915 12.8533C33.277 14.2577 33.9899 16.0925 33.9899 17.9964C33.9899 19.9002 33.277 21.735 31.9915 23.1394C31.8781 23.2573 31.8148 23.4146 31.8148 23.5782C31.8148 23.7418 31.8781 23.8991 31.9915 24.0171L32.3565 24.3895C32.4739 24.5094 32.6341 24.5779 32.8019 24.5797C32.9698 24.5816 33.1315 24.5167 33.2515 24.3994L33.2701 24.3795C34.8725 22.6395 35.7621 20.3606 35.7621 17.9951C35.7621 15.6297 34.8725 13.3507 33.2701 11.6107L33.2825 11.6144Z" fill="black"/>
<path d="M30.58 13.849C30.4666 13.7262 30.3093 13.6533 30.1423 13.6461C29.9753 13.6389 29.8123 13.698 29.6887 13.8105C29.6799 13.8178 29.6716 13.8256 29.6639 13.8341L29.2915 14.2065C29.2711 14.2281 29.252 14.2509 29.2344 14.2748C29.1493 14.3926 29.1069 14.536 29.1144 14.6811C29.1218 14.8263 29.1786 14.9645 29.2753 15.073C29.9811 15.8814 30.3694 16.9185 30.368 17.9916C30.3666 19.0648 29.9757 20.1009 29.2679 20.9075C29.1665 21.0204 29.1086 21.1657 29.1045 21.3174C29.1004 21.4691 29.1504 21.6173 29.2455 21.7355C29.2566 21.7515 29.269 21.7664 29.2828 21.7802L29.6453 22.1526C29.7031 22.2124 29.7721 22.2602 29.8484 22.2932C29.9247 22.3263 30.0068 22.344 30.09 22.3452C30.1731 22.3465 30.2557 22.3313 30.333 22.3006C30.4103 22.2699 30.4807 22.2242 30.5403 22.1662C30.5503 22.1576 30.5595 22.1481 30.5676 22.1377C31.5856 20.998 32.1494 19.5239 32.1517 17.9957C32.154 16.4675 31.5946 14.9918 30.58 13.849Z" fill="black"/>
</svg>
