<svg width="36" height="36" viewBox="0 0 36 36" fill="none" xmlns="http://www.w3.org/2000/svg">
<path d="M18.0001 8.16815C16.0555 8.16815 14.1547 8.74477 12.5379 9.8251C10.921 10.9054 9.66087 12.4409 8.91673 14.2374C8.17259 16.034 7.97789 18.0108 8.35725 19.918C8.73661 21.8251 9.67299 23.577 11.048 24.952C12.423 26.3269 14.1748 27.2633 16.082 27.6427C17.9892 28.022 19.966 27.8273 21.7625 27.0832C23.559 26.3391 25.0945 25.0789 26.1748 23.4621C27.2552 21.8453 27.8318 19.9444 27.8318 17.9999C27.8288 15.3932 26.792 12.8942 24.9489 11.0511C23.1057 9.2079 20.6067 8.17111 18.0001 8.16815ZM25.2348 14.087H22.4529C22.145 12.6309 21.6696 11.356 21.065 10.3629C22.843 11.086 24.3162 12.4017 25.2348 14.087ZM21.2512 17.9999C21.2509 18.7748 21.2016 19.5489 21.1035 20.3175H14.8966C14.703 18.7785 14.703 17.2213 14.8966 15.6822H21.1035C21.2016 16.4509 21.2509 17.225 21.2512 17.9999ZM18.0001 9.76457C18.8852 9.76457 20.1588 11.2766 20.8217 14.087H15.1784C15.8413 11.2766 17.115 9.76457 18.0001 9.76457ZM14.9351 10.3604C14.3293 11.3597 13.8539 12.6334 13.5472 14.0846H10.7653C11.6839 12.3992 13.1571 11.0835 14.9351 10.3604ZM9.76475 17.9999C9.76423 17.2155 9.87584 16.435 10.0962 15.6822H13.2928C13.2025 16.4515 13.1578 17.2254 13.1587 17.9999C13.1589 18.7745 13.2058 19.5485 13.299 20.3175H10.0962C9.87584 19.5647 9.76423 18.7843 9.76475 17.9999ZM10.7653 21.9127H13.5472C13.8551 23.3688 14.3305 24.6437 14.9351 25.6368C13.1571 24.9138 11.6839 23.598 10.7653 21.9127ZM18.0001 26.2352C17.115 26.2352 15.8413 24.7232 15.1784 21.9127H20.8217C20.1588 24.7232 18.8852 26.2352 18.0001 26.2352ZM21.065 25.6393C21.6708 24.6462 22.1463 23.3664 22.4529 21.9152H25.2348C24.3162 23.6005 22.843 24.9163 21.065 25.6393ZM22.7074 20.3175C22.7997 19.5484 22.8465 18.7745 22.8476 17.9999C22.8474 17.2252 22.8005 16.4513 22.7074 15.6822H25.9039C26.3459 17.1957 26.3459 18.804 25.9039 20.3175H22.7074Z" fill="black"/>
<path d="M20.8365 3.10349C20.6923 2.42645 20.3106 1.82335 19.7604 1.40327C19.2102 0.983202 18.5279 0.773896 17.8368 0.813215C17.1457 0.852534 16.4914 1.13788 15.9924 1.61765C15.4934 2.09741 15.1826 2.73991 15.1162 3.42894C15.0497 4.11796 15.2321 4.80802 15.6302 5.37429C16.0283 5.94057 16.616 6.34566 17.2868 6.51631C17.9577 6.68697 18.6675 6.6119 19.2878 6.3047C19.9081 5.9975 20.398 5.47845 20.6689 4.84142C23.0078 5.31628 25.1778 6.40614 26.9553 7.99871C28.7328 9.59129 30.0536 11.629 30.7815 13.9019C31.5095 16.1747 31.6183 18.6006 31.0967 20.9295C30.5752 23.2584 29.4421 25.4062 27.8143 27.1515C27.7328 27.2342 27.6687 27.3324 27.6257 27.4402C27.5828 27.5481 27.5619 27.6635 27.5643 27.7796C27.5668 27.8956 27.5924 28.0101 27.6398 28.116C27.6871 28.222 27.7553 28.3175 27.8401 28.3967C27.925 28.4759 28.0249 28.5373 28.1339 28.5773C28.2429 28.6173 28.3588 28.635 28.4748 28.6295C28.5907 28.6239 28.7044 28.5952 28.8091 28.5449C28.9138 28.4947 29.0073 28.424 29.0842 28.337C30.934 26.3549 32.2184 23.9128 32.8034 21.2655C33.3884 18.6181 33.2527 15.8622 32.4104 13.2852C31.568 10.7081 30.0499 8.40408 28.0143 6.61329C25.9786 4.8225 23.4999 3.61046 20.8365 3.10349ZM17.9999 4.87246C17.7698 4.8727 17.5448 4.80469 17.3534 4.67703C17.1619 4.54937 17.0126 4.36779 16.9244 4.15527C16.8362 3.94275 16.813 3.70884 16.8577 3.48312C16.9024 3.25741 17.0131 3.05003 17.1758 2.88724C17.3384 2.72444 17.5456 2.61354 17.7713 2.56855C17.997 2.52357 18.2309 2.54653 18.4435 2.63454C18.6561 2.72254 18.8379 2.87162 18.9657 3.06293C19.0936 3.25424 19.1619 3.47918 19.1619 3.70928C19.1619 4.01756 19.0395 4.31323 18.8216 4.53133C18.6037 4.74943 18.3082 4.87213 17.9999 4.87246Z" fill="black"/>
<path d="M18.3997 29.3896C17.8181 29.3904 17.2501 29.5657 16.7692 29.8928C16.2883 30.2199 15.9166 30.6838 15.7022 31.2244C12.5893 30.6793 9.76803 29.0549 7.73373 26.6364C5.69942 24.218 4.58218 21.1602 4.57819 18C4.5713 16.1798 4.93804 14.3776 5.6557 12.7048C6.37336 11.032 7.42668 9.52434 8.75047 8.27504C8.91756 8.11619 9.01469 7.89746 9.02051 7.66699C9.02633 7.43651 8.94036 7.21316 8.7815 7.04608C8.62265 6.87899 8.40392 6.78185 8.17345 6.77603C7.94297 6.77021 7.71962 6.85619 7.55254 7.01504C6.05647 8.42586 4.86589 10.1287 4.05449 12.0182C3.24308 13.9077 2.82812 15.9437 2.8353 18C2.84004 21.6006 4.1242 25.0823 6.45854 27.8237C8.79289 30.565 12.0255 32.3876 15.5793 32.9661C15.7063 33.4955 15.9798 33.9785 16.3685 34.3597C16.7572 34.741 17.2454 35.0051 17.7772 35.1219C18.309 35.2387 18.8629 35.2034 19.3756 35.02C19.8883 34.8367 20.339 34.5127 20.6761 34.0852C21.0133 33.6577 21.2233 33.1439 21.282 32.6026C21.3408 32.0613 21.246 31.5144 21.0085 31.0245C20.771 30.5345 20.4003 30.1214 19.939 29.8323C19.4776 29.5431 18.9442 29.3898 18.3997 29.3896ZM18.3997 33.4527C18.1696 33.4529 17.9445 33.3849 17.753 33.2572C17.5615 33.1294 17.4123 32.9478 17.3241 32.7352C17.2359 32.5226 17.2127 32.2886 17.2576 32.0629C17.3024 31.8371 17.4132 31.6298 17.576 31.467C17.7387 31.3043 17.9461 31.1935 18.1719 31.1486C18.3976 31.1038 18.6316 31.1269 18.8442 31.2151C19.0568 31.3033 19.2384 31.4526 19.3661 31.6441C19.4938 31.8355 19.5619 32.0606 19.5616 32.2907C19.5613 32.5988 19.4388 32.8942 19.221 33.112C19.0031 33.3298 18.7078 33.4523 18.3997 33.4527Z" fill="black"/>
</svg>
