<svg width="36" height="36" viewBox="0 0 36 36" fill="none" xmlns="http://www.w3.org/2000/svg">
<path d="M28.2712 10.7034H10.4562L14.7402 6.41945C14.7992 6.36054 14.8459 6.29058 14.8779 6.21358C14.9098 6.13658 14.9262 6.05404 14.9262 5.97069C14.9262 5.88734 14.9098 5.8048 14.8779 5.7278C14.8459 5.6508 14.7992 5.58084 14.7402 5.52193L14.4001 5.17807C14.3411 5.1191 14.2712 5.07232 14.1942 5.04041C14.1172 5.00849 14.0347 4.99207 13.9513 4.99207C13.8679 4.99207 13.7854 5.00849 13.7084 5.04041C13.6314 5.07232 13.5615 5.1191 13.5025 5.17807L7.55758 11.1367C7.43887 11.2556 7.37219 11.4168 7.37219 11.5848C7.37219 11.7529 7.43887 11.914 7.55758 12.033L13.5025 17.9792C13.5615 18.0381 13.6314 18.0849 13.7084 18.1168C13.7854 18.1487 13.8679 18.1652 13.9513 18.1652C14.0347 18.1652 14.1172 18.1487 14.1942 18.1168C14.2712 18.0849 14.3411 18.0381 14.4001 17.9792L14.7439 17.6341C14.803 17.5753 14.8499 17.5055 14.8819 17.4286C14.9139 17.3517 14.9303 17.2692 14.9303 17.1859C14.9303 17.1026 14.9139 17.0202 14.8819 16.9432C14.8499 16.8663 14.803 16.7965 14.7439 16.7378L10.4562 12.4525H28.2712C28.439 12.4522 28.5999 12.3854 28.7185 12.2668C28.8372 12.1481 28.904 11.9873 28.9043 11.8194V11.3353C28.904 11.1676 28.8372 11.0069 28.7185 10.8884C28.5998 10.77 28.4389 10.7034 28.2712 10.7034Z" fill="black"/>
<path d="M28.7181 24.5902L22.7732 18.6316C22.7143 18.5726 22.6443 18.5258 22.5673 18.4939C22.4903 18.462 22.4078 18.4456 22.3244 18.4456C22.2411 18.4456 22.1585 18.462 22.0815 18.4939C22.0045 18.5258 21.9346 18.5726 21.8757 18.6316L21.5318 18.9767C21.4131 19.0956 21.3464 19.2568 21.3464 19.4248C21.3464 19.5928 21.4131 19.754 21.5318 19.8729L25.8208 24.1582H8.00078C7.83297 24.1585 7.67213 24.2253 7.55347 24.344C7.43481 24.4626 7.368 24.6235 7.36768 24.7913V25.2754C7.368 25.4431 7.43485 25.6038 7.55355 25.7223C7.67224 25.8408 7.83308 25.9073 8.00078 25.9073H25.8208L21.5368 30.1913C21.4181 30.3102 21.3514 30.4714 21.3514 30.6394C21.3514 30.8075 21.4181 30.9686 21.5368 31.0876L21.8806 31.4327C21.9395 31.4916 22.0095 31.5384 22.0865 31.5703C22.1635 31.6022 22.246 31.6187 22.3294 31.6187C22.4127 31.6187 22.4953 31.6022 22.5723 31.5703C22.6493 31.5384 22.7192 31.4916 22.7782 31.4327L28.7231 25.4877C28.8419 25.3686 28.9086 25.2072 28.9086 25.0389C28.9086 24.8707 28.8419 24.7093 28.7231 24.5902H28.7181Z" fill="black"/>
</svg>
