<svg width="36" height="36" viewBox="0 0 36 36" fill="none" xmlns="http://www.w3.org/2000/svg">
<path d="M31.9854 18.6518C31.985 18.6157 31.9821 18.5796 31.9767 18.5438V18.5177C31.9644 18.4443 31.9423 18.3729 31.9109 18.3055L31.901 18.2844C31.8845 18.2516 31.8662 18.2197 31.8464 18.1888C31.8265 18.1595 31.8045 18.1317 31.7806 18.1056L31.762 18.0845C31.7374 18.0585 31.7113 18.034 31.6838 18.0113L31.6738 18.0038C31.6478 17.983 31.6205 17.9639 31.5919 17.9467L31.5708 17.9343C31.5386 17.9153 31.5049 17.8987 31.4702 17.8846L25.4222 15.4466V8.58422C25.4218 8.54806 25.4189 8.51198 25.4136 8.47622V8.45015C25.4013 8.37675 25.3791 8.30535 25.3478 8.23788C25.344 8.23109 25.3406 8.22404 25.3378 8.21677C25.3209 8.18396 25.3022 8.15206 25.282 8.12119C25.2621 8.09188 25.2401 8.06408 25.2162 8.03801L25.1976 8.01691C25.1733 7.99061 25.1472 7.96613 25.1194 7.94367L25.1094 7.93622C25.0834 7.91537 25.056 7.8963 25.0275 7.87912C25.0209 7.87429 25.0138 7.87014 25.0064 7.8667C24.9741 7.84768 24.9405 7.83109 24.9058 7.81705L18.3141 5.15925C18.1126 5.07794 17.8875 5.07794 17.686 5.15925L11.1141 7.80836C10.9567 7.87244 10.8224 7.98284 10.7291 8.12494C10.6357 8.26703 10.5878 8.43412 10.5915 8.60408V15.4217L4.53854 17.8759C4.38074 17.9397 4.2461 18.05 4.15252 18.1921C4.05894 18.3343 4.01086 18.5015 4.01468 18.6717V25.7401C4.01468 25.7475 4.01468 25.7537 4.01468 25.7612C4.01468 25.7686 4.01468 25.7711 4.01468 25.7761C4.02236 25.9543 4.0867 26.1254 4.19833 26.2644C4.30997 26.4035 4.46307 26.5034 4.63537 26.5495L11.0521 29.5784C11.1636 29.6312 11.2855 29.6585 11.4089 29.6585C11.5324 29.6585 11.6543 29.6312 11.7658 29.5784L18 26.65L24.2069 29.5797C24.3185 29.6324 24.4404 29.6597 24.5638 29.6597C24.6873 29.6597 24.8091 29.6324 24.9207 29.5797L31.5 26.4762C31.6441 26.4087 31.766 26.3015 31.8513 26.1671C31.9366 26.0328 31.9819 25.8769 31.9817 25.7177V18.6419L31.9854 18.6518ZM23.7365 15.4242L18.8169 17.4204V11.8466L23.7365 9.83305V15.4242ZM18.8392 19.9093L23.7104 21.9142V27.4942L18.8392 25.2001V19.9093ZM24.5496 20.4481L20.2047 18.6617L24.5496 16.9002L28.9242 18.6593L24.5496 20.4481ZM17.9827 6.82767L22.3449 8.59043L17.9802 10.378L13.6354 8.59167L17.9827 6.82767ZM17.141 11.8428V17.4042L12.2674 15.4391V9.83925L17.141 11.8428ZM11.4071 16.899L15.7718 18.6593L11.4034 20.4468L7.05854 18.6605L11.4071 16.899ZM10.5642 21.9142V27.4942L5.69054 25.2001V19.9081L10.5642 21.9142ZM12.24 27.5078V21.9154L17.1609 19.9019V25.1926L12.24 27.5078ZM25.3887 27.5078V21.9154L30.3096 19.9019V25.1926L25.3887 27.5078Z" fill="black"/>
</svg>
