<svg width="36" height="36" viewBox="0 0 36 36" fill="none" xmlns="http://www.w3.org/2000/svg">
<path d="M29.5517 25.8578H8.14746V8.91301C8.14746 8.65232 7.93666 8.44128 7.67624 8.44128H6.9197C6.65928 8.44128 6.44849 8.65232 6.44849 8.91301V26.7144C6.44849 27.1861 6.83297 27.5709 7.30421 27.5709H29.5517C29.8121 27.5709 30.023 27.3599 30.023 27.0992V26.342C30.023 26.0689 29.8121 25.8578 29.5517 25.8578Z" fill="black"/>
<path d="M10.0574 21.241C10.2434 21.5389 10.6278 21.6258 10.9255 21.452L26.8855 12.092L26.6995 13.1472C26.6251 13.4824 26.836 13.83 27.1708 13.9044L27.642 14.0162C27.8032 14.0534 27.9768 14.0286 28.1256 13.9417C28.2744 13.8548 28.3737 13.7182 28.4109 13.5444L29.1301 10.2051C29.2045 9.86996 28.9937 9.52238 28.6589 9.4479L25.3478 8.59134C25.1866 8.5541 25.0129 8.57893 24.8641 8.66583C24.7153 8.75272 24.6161 8.88927 24.5789 9.06307L24.4673 9.53479C24.3929 9.86996 24.6038 10.2176 24.9386 10.292L25.9554 10.6024L9.99539 19.9624C9.69776 20.1486 9.61093 20.5334 9.78455 20.8313L10.0574 21.241Z" fill="black"/>
<path d="M24.0581 24.257H24.8145C25.0749 24.257 25.2857 24.0335 25.2857 23.748V14.4501L23.5869 15.4432V23.748C23.5869 24.0335 23.7977 24.257 24.0581 24.257Z" fill="black"/>
<path d="M20.0402 24.2567H20.7966C21.057 24.2567 21.2678 24.0333 21.2678 23.7478V16.8085L19.5688 17.8016V23.7478C19.5688 24.0333 19.7798 24.2567 20.0402 24.2567Z" fill="black"/>
<path d="M12.0039 24.2566H12.7604C13.0209 24.2566 13.2317 24.0083 13.2317 23.7104V21.4263L11.5327 22.4194V23.7104C11.5327 24.0083 11.7435 24.2566 12.0039 24.2566Z" fill="black"/>
<path d="M16.022 24.2566H16.7785C17.0389 24.2566 17.2498 24.0332 17.2498 23.7476V19.1545L15.5508 20.1476V23.7352C15.5508 24.0332 15.7616 24.2566 16.022 24.2566Z" fill="black"/>
</svg>
