<svg width="36" height="36" viewBox="0 0 36 36" fill="none" xmlns="http://www.w3.org/2000/svg">
<path d="M22.0431 2.15382C21.8242 2.12443 21.6017 2.14027 21.3892 2.20035C21.1767 2.26043 20.9788 2.36348 20.8078 2.50312C20.6367 2.64275 20.4962 2.816 20.3947 3.01215C20.2933 3.2083 20.2333 3.42318 20.2183 3.64348L20.1674 4.77189C19.4508 4.65436 18.726 4.59458 17.9999 4.59313C15.3483 4.59313 12.7562 5.37943 10.5514 6.8526C8.34669 8.32577 6.6283 10.4196 5.61356 12.8694C4.59883 15.3192 4.33333 18.0149 4.85063 20.6156C5.36794 23.2163 6.64482 25.6051 8.51981 27.4801C10.3948 29.3551 12.7837 30.632 15.3844 31.1493C17.985 31.6666 20.6807 31.4011 23.1305 30.3864C25.5803 29.3716 27.6742 27.6533 29.1473 25.4485C30.6205 23.2437 31.4068 20.6517 31.4068 18C31.4068 17.9578 31.4068 17.9144 31.4068 17.8759L32.6271 18H32.6531C32.6916 18 32.7301 18 32.7673 18C33.1928 18 33.601 17.8321 33.9032 17.5326C34.2055 17.2332 34.3772 16.8265 34.3811 16.4011C34.4251 12.9277 33.1933 9.55892 30.9193 6.93304C28.6453 4.30715 25.4871 2.60667 22.0431 2.15382ZM29.4131 20.7124C29.3926 20.7297 29.368 20.7412 29.3417 20.746C29.3153 20.7508 29.2882 20.7487 29.2629 20.7398L28.8073 20.592C28.7851 20.5847 28.7616 20.5818 28.7383 20.5836C28.7149 20.5853 28.6921 20.5917 28.6712 20.6023C28.6503 20.6129 28.6318 20.6276 28.6166 20.6454C28.6014 20.6633 28.5898 20.6839 28.5827 20.7062L28.1519 22.0295C28.1446 22.0518 28.1417 22.0753 28.1434 22.0986C28.1452 22.122 28.1516 22.1448 28.1622 22.1657C28.1728 22.1866 28.1875 22.2051 28.2053 22.2203C28.2231 22.2355 28.2438 22.2471 28.2661 22.2542L28.7254 22.4032C28.7499 22.411 28.7722 22.4246 28.7902 22.4431C28.8081 22.4615 28.8213 22.484 28.8285 22.5087C28.5976 23.0619 28.3246 23.5964 28.0116 24.1076C27.9872 24.1162 27.9611 24.1186 27.9356 24.1147C27.9101 24.1108 27.8859 24.1007 27.8651 24.0853L27.4753 23.8035C27.4371 23.7761 27.3895 23.7649 27.343 23.7723C27.2966 23.7797 27.2549 23.8052 27.2271 23.8432L26.409 24.9691C26.3816 25.0074 26.3704 25.0549 26.3778 25.1014C26.3853 25.1479 26.4108 25.1896 26.4487 25.2174L26.8323 25.4955C26.8545 25.5111 26.8723 25.5323 26.8838 25.5569C26.8953 25.5815 26.9003 25.6087 26.8981 25.6358C26.5099 26.0872 26.0883 26.5088 25.6369 26.897C25.6102 26.8988 25.5835 26.8937 25.5593 26.8822C25.5352 26.8707 25.5144 26.8531 25.4991 26.8312L25.221 26.4476C25.193 26.4099 25.1513 26.3846 25.105 26.3772C25.0586 26.3698 25.0111 26.3808 24.9727 26.4079L23.8468 27.226C23.8091 27.254 23.7838 27.2956 23.7764 27.342C23.769 27.3884 23.78 27.4359 23.8071 27.4742L24.0889 27.8628C24.104 27.8832 24.1139 27.9069 24.1178 27.932C24.1217 27.9571 24.1195 27.9828 24.1112 28.0068C23.6003 28.3206 23.0657 28.5941 22.5123 28.8249C22.4878 28.8176 22.4654 28.8044 22.4472 28.7864C22.4291 28.7685 22.4156 28.7463 22.408 28.7218L22.2591 28.2625C22.244 28.2176 22.2119 28.1804 22.1696 28.159C22.1273 28.1376 22.0783 28.1338 22.0331 28.1483L20.7098 28.5791C20.665 28.5938 20.6278 28.6258 20.6064 28.6679C20.585 28.71 20.5811 28.7588 20.5956 28.8038L20.7434 29.2593C20.7522 29.2845 20.7544 29.3115 20.7499 29.3378C20.7453 29.3641 20.7341 29.3888 20.7173 29.4095C20.1356 29.5477 19.5442 29.6411 18.9483 29.6889C18.9262 29.6743 18.9081 29.6543 18.8958 29.6309C18.8834 29.6075 18.8771 29.5813 18.8776 29.5548V29.0756C18.8772 29.0283 18.8583 28.983 18.8248 28.9496C18.7914 28.9161 18.7461 28.8972 18.6988 28.8969H17.3035C17.2562 28.8972 17.2109 28.9161 17.1775 28.9496C17.144 28.983 17.1251 29.0283 17.1247 29.0756V29.5548C17.1252 29.5813 17.1189 29.6075 17.1065 29.6309C17.0942 29.6543 17.0761 29.6743 17.054 29.6889C16.4589 29.6412 15.8683 29.5478 15.2875 29.4095C15.2703 29.389 15.2587 29.3644 15.2539 29.3381C15.2491 29.3117 15.2513 29.2846 15.2602 29.2593L15.4079 28.8038C15.4153 28.7815 15.4181 28.758 15.4164 28.7347C15.4146 28.7113 15.4082 28.6885 15.3976 28.6676C15.387 28.6467 15.3723 28.6282 15.3545 28.613C15.3367 28.5978 15.316 28.5862 15.2937 28.5791L13.9716 28.1483C13.9265 28.1338 13.8775 28.1376 13.8352 28.159C13.7929 28.1804 13.7607 28.2176 13.7457 28.2625L13.5955 28.7218C13.5878 28.7463 13.5744 28.7686 13.5562 28.7868C13.538 28.8049 13.5157 28.8184 13.4912 28.8261C12.9376 28.5944 12.4027 28.3205 11.8911 28.0068C11.8822 27.9827 11.8796 27.9567 11.8835 27.9313C11.8874 27.9059 11.8977 27.8819 11.9134 27.8615L12.1952 27.4718C12.2223 27.4334 12.2333 27.3859 12.2259 27.3395C12.2185 27.2931 12.1932 27.2515 12.1555 27.2235L11.0296 26.4054C10.9913 26.378 10.9438 26.3668 10.8973 26.3742C10.8508 26.3817 10.8091 26.4072 10.7813 26.4451L10.5032 26.8275C10.4877 26.8496 10.4668 26.8674 10.4425 26.8792C10.4181 26.8909 10.3912 26.8962 10.3642 26.8945C9.91197 26.5068 9.48954 26.0856 9.10047 25.6345C9.09864 25.6077 9.10386 25.5809 9.11562 25.5567C9.12738 25.5325 9.14527 25.5118 9.1675 25.4967L9.54985 25.2174C9.58783 25.1896 9.6133 25.1479 9.62074 25.1014C9.62817 25.0549 9.61697 25.0074 9.58957 24.9691L8.7715 23.8432C8.74349 23.8055 8.70184 23.7802 8.65545 23.7728C8.60906 23.7654 8.56161 23.7764 8.52323 23.8035L8.13343 24.0828C8.11287 24.0985 8.08866 24.1088 8.06306 24.1127C8.03745 24.1167 8.01128 24.114 7.98695 24.1051C7.67485 23.5956 7.40259 23.0627 7.17261 22.5112C7.1794 22.486 7.19256 22.4629 7.21081 22.4442C7.22907 22.4255 7.25182 22.4118 7.27688 22.4044L7.73619 22.2555C7.78114 22.2404 7.81834 22.2083 7.83973 22.166C7.86111 22.1237 7.86494 22.0747 7.8504 22.0295L7.41964 20.7062C7.40487 20.6614 7.37295 20.6242 7.33085 20.6028C7.28875 20.5814 7.2399 20.5775 7.19495 20.592L6.73813 20.741C6.71253 20.7495 6.6852 20.7513 6.65871 20.7463C6.63221 20.7413 6.60743 20.7297 6.58668 20.7124C6.44861 20.1316 6.35523 19.5411 6.30737 18.946C6.32165 18.9235 6.34149 18.905 6.36497 18.8924C6.38845 18.8798 6.41479 18.8734 6.44144 18.874H6.92061C6.96792 18.8736 7.0132 18.8547 7.04665 18.8212C7.0801 18.7878 7.09904 18.7425 7.09937 18.6952V17.3036C7.09745 17.2574 7.07782 17.2137 7.04453 17.1816C7.01125 17.1494 6.96687 17.1313 6.92061 17.1311H6.44144C6.41479 17.1316 6.38845 17.1252 6.36497 17.1126C6.34149 17.1 6.32165 17.0816 6.30737 17.0591C6.35513 16.4644 6.44851 15.8742 6.58668 15.2938C6.60718 15.2766 6.63181 15.265 6.65816 15.2602C6.6845 15.2554 6.71163 15.2576 6.73688 15.2665L7.19247 15.4142C7.21472 15.4216 7.2382 15.4245 7.26157 15.4227C7.28493 15.4209 7.30771 15.4145 7.3286 15.4039C7.34949 15.3933 7.36807 15.3787 7.38327 15.3608C7.39847 15.343 7.40999 15.3223 7.41716 15.3L7.84792 13.978C7.86246 13.9328 7.85862 13.8838 7.83724 13.8415C7.81586 13.7992 7.77866 13.7671 7.73371 13.752L7.27688 13.6031C7.25163 13.595 7.22877 13.5808 7.21035 13.5617C7.19193 13.5427 7.17854 13.5193 7.17137 13.4938C7.40295 12.9418 7.676 12.4082 7.98819 11.8974C8.01288 11.8882 8.03951 11.8854 8.06557 11.8893C8.09163 11.8932 8.11627 11.9037 8.13716 11.9198L8.52571 12.2015C8.5642 12.2283 8.61156 12.2391 8.65786 12.2317C8.70415 12.2243 8.74578 12.1993 8.77399 12.1618L9.59205 11.0346C9.60578 11.0158 9.61565 10.9943 9.62108 10.9716C9.62652 10.9489 9.62741 10.9253 9.62372 10.9023C9.62003 10.8792 9.61183 10.8571 9.59958 10.8372C9.58733 10.8173 9.57127 10.8 9.55233 10.7864L9.16626 10.5083C9.14435 10.493 9.12677 10.4722 9.11524 10.4481C9.10371 10.4239 9.09862 10.3972 9.10047 10.3705C9.48881 9.91607 9.91128 9.49194 10.3642 9.10182C10.3909 9.09998 10.4176 9.10507 10.4417 9.1166C10.4659 9.12812 10.4866 9.1457 10.502 9.16761L10.7801 9.5512C10.8081 9.58891 10.8497 9.61417 10.8961 9.6216C10.9425 9.62902 10.9899 9.61801 11.0283 9.59092L12.1543 8.77285C12.192 8.74484 12.2172 8.70319 12.2247 8.6568C12.2321 8.61041 12.2211 8.56296 12.194 8.52458L11.9172 8.13354C11.9019 8.11297 11.8919 8.08899 11.888 8.06369C11.8841 8.03838 11.8865 8.01251 11.8948 7.9883C12.4055 7.67627 12.9391 7.40362 13.4912 7.17272C13.5165 7.17951 13.5395 7.19267 13.5582 7.21092C13.5769 7.22918 13.5906 7.25193 13.598 7.27699L13.7469 7.7363C13.762 7.78125 13.7941 7.81845 13.8364 7.83984C13.8787 7.86122 13.9278 7.86505 13.9729 7.85051L15.2962 7.41975C15.3411 7.40471 15.3783 7.37256 15.3997 7.33026C15.4211 7.28796 15.4249 7.23893 15.4104 7.19382L15.2614 6.73823C15.2529 6.71264 15.2511 6.68531 15.2561 6.65882C15.2611 6.63232 15.2728 6.60753 15.29 6.58679C15.8708 6.44872 16.4614 6.35534 17.0565 6.30748C17.079 6.32176 17.0974 6.3416 17.11 6.36508C17.1226 6.38856 17.129 6.4149 17.1285 6.44154V6.92072C17.1288 6.96803 17.1477 7.01331 17.1812 7.04676C17.2146 7.08021 17.2599 7.09915 17.3072 7.09948H18.7C18.7474 7.09915 18.7926 7.08021 18.8261 7.04676C18.8595 7.01331 18.8785 6.96803 18.8788 6.92072V6.44154C18.8783 6.4149 18.8846 6.38856 18.8972 6.36508C18.9099 6.3416 18.9283 6.32176 18.9508 6.30748C19.3381 6.33851 19.7192 6.39065 20.0954 6.45892L20.0817 6.76803C20.0578 7.1682 20.1828 7.56305 20.4326 7.87658C20.6824 8.1901 21.0394 8.40013 21.4348 8.46623C24.9107 9.00748 27.9992 12.5727 28.0389 16.0958C28.0441 16.3847 28.1268 16.667 28.2783 16.9131C28.4299 17.1592 28.6447 17.3601 28.9005 17.4948V18.6964C28.9008 18.7438 28.9197 18.789 28.9532 18.8225C28.9866 18.8559 29.0319 18.8749 29.0792 18.8752H29.5584C29.5849 18.8748 29.611 18.881 29.6345 18.8934C29.6579 18.9058 29.6779 18.9238 29.6925 18.946C29.6448 19.5411 29.5514 20.1316 29.4131 20.7124ZM29.7744 15.958C29.6627 11.6566 26.0577 7.49051 21.8171 6.77175L21.9413 3.8992C24.9159 4.32029 27.6379 5.80256 29.6056 8.07274C31.5733 10.3429 32.6539 13.2479 32.6482 16.2522L29.7744 15.958Z" fill="black"/>
<path d="M18 9.13647C16.247 9.13647 14.5333 9.65631 13.0757 10.6302C11.6181 11.6042 10.4821 12.9884 9.81123 14.608C9.14038 16.2276 8.96485 18.0098 9.30685 19.7291C9.64885 21.4484 10.493 23.0278 11.7326 24.2673C12.9722 25.5069 14.5515 26.3511 16.2708 26.6931C17.9902 27.0351 19.7723 26.8595 21.3919 26.1887C23.0115 25.5178 24.3957 24.3818 25.3697 22.9242C26.3436 21.4666 26.8634 19.7529 26.8634 17.9999C26.8608 15.65 25.9261 13.3971 24.2645 11.7354C22.6028 10.0738 20.3499 9.1391 18 9.13647ZM19.1495 10.9774L18.1167 13.4602C18.1106 13.4757 18.1014 13.4898 18.0897 13.5017C18.078 13.5136 18.064 13.523 18.0486 13.5294C18.0332 13.5358 18.0167 13.539 18 13.5388C17.9833 13.5387 17.9669 13.5351 17.9516 13.5285C17.9362 13.5222 17.9223 13.513 17.9105 13.5012C17.8988 13.4895 17.8895 13.4756 17.8833 13.4602L16.8505 10.9774C17.6115 10.8496 18.3885 10.8496 19.1495 10.9774ZM11.6801 14.7413L13.7123 16.4792C13.725 16.4901 13.7354 16.5033 13.7428 16.5183C13.7503 16.5332 13.7547 16.5495 13.7557 16.5661C13.7573 16.5829 13.7555 16.5997 13.7504 16.6157C13.7452 16.6317 13.7369 16.6465 13.7259 16.6592C13.7036 16.6844 13.6725 16.6999 13.639 16.7027L10.9663 16.9187C11.0848 16.159 11.3258 15.4236 11.6801 14.7413ZM15.4216 21.7464L14.801 24.3533C14.115 24.0029 13.4893 23.5453 12.9476 22.9977L15.2317 21.6049C15.2458 21.5961 15.2616 21.5903 15.278 21.5877C15.2944 21.5852 15.3112 21.586 15.3273 21.59C15.3437 21.5935 15.3592 21.6003 15.373 21.6099C15.3867 21.6196 15.3983 21.6319 15.4071 21.6462C15.4159 21.6604 15.4218 21.6764 15.4243 21.6929C15.4268 21.7095 15.4259 21.7264 15.4216 21.7427V21.7464ZM21.1965 24.3533L20.5759 21.7464C20.5716 21.7302 20.5707 21.7133 20.5732 21.6967C20.5757 21.6801 20.5816 21.6642 20.5904 21.6499C20.5992 21.6356 20.6108 21.6233 20.6245 21.6136C20.6383 21.604 20.6538 21.5972 20.6702 21.5937H20.7C20.7232 21.5936 20.746 21.6001 20.7658 21.6123L23.0499 23.0064C22.5084 23.553 21.8827 24.009 21.1965 24.357V24.3533ZM24.1287 21.6123L21.6757 20.1227C21.3605 19.9297 20.9952 19.8345 20.6259 19.849C20.2566 19.8636 19.8999 19.9873 19.6008 20.2045C19.3018 20.4217 19.0739 20.7226 18.9458 21.0693C18.8177 21.416 18.7953 21.7929 18.8814 22.1523L19.5455 24.9516C18.5279 25.1844 17.4708 25.1844 16.4532 24.9516L17.1174 22.1573C17.2021 21.7981 17.1789 21.4219 17.0504 21.0759C16.922 20.7299 16.6942 20.4295 16.3956 20.2127C16.097 19.9958 15.7409 19.872 15.3721 19.8568C15.0034 19.8417 14.6384 19.9359 14.323 20.1276L11.8725 21.6173C11.3428 20.7188 11.0188 19.714 10.9241 18.6752L13.7793 18.4443C14.1473 18.4142 14.4981 18.2759 14.7876 18.0468C15.0771 17.8177 15.2923 17.508 15.4062 17.1569C15.5201 16.8057 15.5275 16.4286 15.4275 16.0732C15.3276 15.7178 15.1247 15.4 14.8444 15.1596L12.667 13.2976C13.358 12.5171 14.2113 11.8972 15.1672 11.4814L16.2695 14.1293C16.4114 14.4705 16.6512 14.7621 16.9586 14.9672C17.266 15.1723 17.6273 15.2818 17.9969 15.2818C18.3665 15.2818 18.7277 15.1723 19.0352 14.9672C19.3426 14.7621 19.5824 14.4705 19.7243 14.1293L20.8279 11.4814C21.7831 11.8977 22.6359 12.5175 23.3267 13.2976L21.1531 15.1596C20.8727 15.4001 20.6698 15.7182 20.57 16.0738C20.4701 16.4294 20.4777 16.8066 20.5919 17.1579C20.7061 17.5092 20.9217 17.8188 21.2115 18.0477C21.5014 18.2766 21.8525 18.4147 22.2207 18.4443L25.0759 18.6752C24.9806 19.7133 24.6572 20.7175 24.1287 21.6161V21.6123ZM25.0336 16.9187L22.361 16.7027C22.3444 16.7013 22.3283 16.6967 22.3136 16.689C22.2989 16.6813 22.2859 16.6708 22.2753 16.658C22.2644 16.6454 22.2562 16.6309 22.2511 16.6151C22.246 16.5993 22.2441 16.5827 22.2455 16.5661C22.2465 16.5498 22.2508 16.5338 22.258 16.5191C22.2653 16.5044 22.2754 16.4913 22.2877 16.4805L24.3199 14.7425C24.674 15.4258 24.915 16.162 25.0336 16.9224V16.9187Z" fill="black"/>
<path d="M18 16.3863C17.6794 16.3863 17.3659 16.4815 17.0994 16.6598C16.8328 16.838 16.6252 17.0914 16.5028 17.3878C16.3804 17.6842 16.3486 18.0102 16.4117 18.3246C16.4747 18.6391 16.6296 18.9277 16.8568 19.154C17.0839 19.3803 17.3732 19.5341 17.6878 19.5959C18.0025 19.6577 18.3284 19.6248 18.6243 19.5012C18.9202 19.3776 19.1728 19.169 19.35 18.9018C19.5273 18.6346 19.6213 18.3208 19.62 18.0001C19.62 17.7877 19.5781 17.5773 19.4966 17.3811C19.4151 17.1849 19.2957 17.0067 19.1452 16.8568C18.9947 16.7068 18.816 16.5881 18.6195 16.5074C18.423 16.4266 18.2125 16.3855 18 16.3863Z" fill="black"/>
</svg>
