<svg width="36" height="36" viewBox="0 0 36 36" fill="none" xmlns="http://www.w3.org/2000/svg">
<path d="M30.5379 20.1103C29.9383 19.5008 29.1215 18.9782 28.1085 18.5549C27.1101 18.1517 26.0688 17.8639 25.0051 17.6971C23.9859 16.8902 20.2344 14.2882 14.2944 14.2858C11.448 14.2858 9.13775 14.4099 7.78713 14.6197L7.69775 14.6346C6.68479 14.7972 6.17706 14.8829 5.04492 16.4048L4.76561 16.7772C4.14492 17.6077 3.6583 18.2669 3.34672 18.8739L3.30699 18.9695L3.28961 19.0191C3.25016 19.1676 3.22113 19.3185 3.20272 19.471C3.18285 19.6088 3.16423 19.7689 3.14561 19.9676C3.13568 20.0532 3.12823 20.1364 3.12078 20.2158C3.02437 20.3118 2.93555 20.4152 2.85513 20.5249C2.4681 21.054 2.26571 21.6956 2.27913 22.351C2.27913 22.9642 2.41692 24.4787 3.65458 25.2844C3.85497 25.4061 4.06655 25.5084 4.28644 25.5898C4.49364 26.1258 4.85505 26.5884 5.32503 26.9192C5.79501 27.2499 6.35247 27.4339 6.92699 27.448C7.50151 27.4621 8.06732 27.3056 8.55294 26.9983C9.03856 26.691 9.4222 26.2466 9.65541 25.7214H23.2597C23.4842 26.226 23.8479 26.6564 24.308 26.962C24.7682 27.2675 25.3058 27.4358 25.8581 27.447C26.4104 27.4582 26.9544 27.3119 27.4266 27.0252C27.8988 26.7385 28.2796 26.3233 28.5244 25.8281C29.0582 25.8393 30.0078 25.8281 30.5329 25.5972C30.9069 25.4474 31.2204 25.1775 31.4242 24.83C31.5492 24.6012 31.6356 24.3533 31.68 24.0964C31.7397 23.7329 31.7663 23.3648 31.7594 22.9965C31.7589 22.4582 31.6505 21.9255 31.4407 21.4298C31.2309 20.9341 30.924 20.4854 30.5379 20.1103ZM22.423 18.0211C20.9011 18.2694 18.5449 18.3625 15.5954 18.3029L15.4626 16.015C17.9026 16.1639 20.2795 16.8507 22.423 18.026V18.0211ZM13.7333 15.9778L13.8649 18.252C12.0699 18.1849 10.6063 18.0856 9.87513 18.031L9.70754 16.1205C10.8446 16.0386 12.2002 15.9927 13.7358 15.9827L13.7333 15.9778ZM7.85541 25.4011C7.65629 25.6004 7.39422 25.7245 7.11386 25.7522C6.83349 25.78 6.55218 25.7097 6.31785 25.5533C6.08351 25.3969 5.91066 25.1641 5.82873 24.8945C5.7468 24.625 5.76086 24.3353 5.86853 24.075C5.97619 23.8146 6.1708 23.5997 6.41919 23.4667C6.66757 23.3338 6.95437 23.291 7.23073 23.3458C7.50708 23.4006 7.75589 23.5495 7.93476 23.7672C8.11363 23.9849 8.21149 24.2578 8.21168 24.5396C8.21213 24.6996 8.18088 24.8581 8.11972 25.006C8.05857 25.1538 7.96874 25.2881 7.85541 25.4011ZM26.779 25.4011C26.5799 25.6004 26.3178 25.7245 26.0374 25.7522C25.7571 25.78 25.4758 25.7097 25.2414 25.5533C25.0071 25.3969 24.8342 25.1641 24.7523 24.8945C24.6704 24.625 24.6845 24.3353 24.7921 24.075C24.8998 23.8146 25.0944 23.5997 25.3428 23.4667C25.5912 23.3338 25.878 23.291 26.1543 23.3458C26.4307 23.4006 26.6795 23.5495 26.8583 23.7672C27.0372 23.9849 27.1351 24.2578 27.1353 24.5396C27.1359 24.6996 27.1047 24.8581 27.0435 25.006C26.9823 25.1539 26.8924 25.2882 26.779 25.4011ZM30.0066 23.8419C29.9968 23.8984 29.9779 23.9529 29.9507 24.0033C29.9201 24.0224 29.8872 24.0375 29.8526 24.048C29.6925 24.1063 29.3015 24.1398 28.7975 24.1374C28.7014 23.4519 28.3641 22.8231 27.846 22.364C27.328 21.905 26.6632 21.6457 25.9711 21.6328C25.279 21.62 24.6051 21.8543 24.0703 22.2938C23.5355 22.7333 23.1751 23.3491 23.0536 24.0306H9.85651C9.74375 23.401 9.42671 22.8261 8.95441 22.3949C8.48211 21.9636 7.88087 21.6999 7.24367 21.6447C6.60648 21.5894 5.96882 21.7456 5.42933 22.0892C4.88985 22.4327 4.47858 22.9445 4.25913 23.5452C4.15668 23.3872 4.08039 23.2136 4.0332 23.0313C3.98171 22.8083 3.95876 22.5797 3.96492 22.351C3.96492 21.9327 4.08906 21.6062 4.33734 21.3902C4.34704 21.3808 4.35741 21.372 4.36837 21.3641L4.39072 21.3455L4.65885 21.0736C4.7262 20.9602 4.76655 20.8328 4.77679 20.7012V20.6814C4.77679 20.6367 4.79044 20.5113 4.80534 20.3511C4.82023 20.191 4.8463 19.9241 4.8761 19.7069C4.88354 19.6473 4.89223 19.5951 4.89968 19.5567C5.26419 18.9131 5.68237 18.3014 6.14975 17.7281C6.41168 17.3991 6.68603 17.059 6.90451 16.8269C7.1903 16.524 7.57717 16.3363 7.99196 16.2993L8.2241 18.9062C8.24204 19.108 8.33053 19.297 8.47401 19.44C8.61749 19.5831 8.80679 19.6709 9.00865 19.6883C9.17748 19.7031 13.2033 20.0445 17.2018 20.0445C20.6652 20.0445 23.0859 19.7962 24.4018 19.2997C24.4517 19.3167 24.5033 19.3284 24.5557 19.3345L24.5979 19.3407L24.691 19.3531C24.7766 19.3667 24.9107 19.3866 25.082 19.4189C25.5265 19.5023 25.9665 19.608 26.4004 19.7354C27.1452 19.9551 28.5107 20.448 29.3362 21.2896C29.8328 21.8036 30.0724 22.3436 30.0736 22.9878C30.0813 23.2741 30.0588 23.5604 30.0066 23.8419Z" fill="black"/>
<path d="M24.4626 14.6964C24.8377 14.8503 25.2582 14.8503 25.6333 14.6964C27.4618 13.9354 30.5541 11.3136 30.5541 6.32077C30.5549 6.02016 30.4663 5.72609 30.2997 5.4759C30.133 5.2257 29.8958 5.03066 29.6181 4.91553L25.6345 3.25581C25.4491 3.17841 25.2501 3.13855 25.0492 3.13855C24.8483 3.13855 24.6493 3.17841 24.4639 3.25581L20.4828 4.91429C20.2042 5.02892 19.966 5.22391 19.7987 5.47439C19.6313 5.72488 19.5423 6.01952 19.5431 6.32077C19.5234 8.24224 20.062 10.1281 21.0935 11.7493C21.9786 13.1136 23.1753 14.1601 24.4626 14.6964ZM25.0473 4.87333L28.8323 6.45484C28.7963 8.92146 27.4668 12.0721 25.0498 13.0851C22.6378 12.0733 21.3009 8.92146 21.2636 6.45484L25.0473 4.87333Z" fill="black"/>
<path d="M24.7903 10.8669C24.8729 10.8672 24.9548 10.851 25.0311 10.8192C25.1074 10.7874 25.1766 10.7408 25.2347 10.6819L27.5387 8.2103C27.6567 8.09227 27.723 7.93219 27.723 7.76527C27.723 7.59835 27.6567 7.43826 27.5387 7.32023L27.2904 7.07196C27.1722 6.95385 27.0119 6.88751 26.8447 6.88751C26.6776 6.88751 26.5173 6.95385 26.3991 7.07196L24.7853 8.84961L24.3049 8.3692C24.2464 8.31057 24.1769 8.26405 24.1005 8.23231C24.024 8.20058 23.942 8.18424 23.8592 8.18424C23.7764 8.18424 23.6944 8.20058 23.618 8.23231C23.5415 8.26405 23.472 8.31057 23.4136 8.3692L23.1653 8.61747C23.0472 8.73572 22.9808 8.89601 22.9808 9.06313C22.9808 9.23025 23.0472 9.39054 23.1653 9.50878L24.3396 10.6831C24.3985 10.7425 24.4687 10.7894 24.5462 10.821C24.6236 10.8526 24.7066 10.8682 24.7903 10.8669Z" fill="black"/>
</svg>
