<svg width="36" height="36" viewBox="0 0 36 36" fill="none" xmlns="http://www.w3.org/2000/svg">
<path d="M13.6924 9.38216C13.6924 9.09932 13.6085 8.82283 13.4514 8.58765C13.2943 8.35248 13.0709 8.16918 12.8096 8.06095C12.5483 7.95271 12.2608 7.92439 11.9834 7.97957C11.7059 8.03475 11.4511 8.17095 11.2511 8.37095C11.0511 8.57094 10.9149 8.82576 10.8598 9.10316C10.8046 9.38057 10.8329 9.66811 10.9411 9.92942C11.0494 10.1907 11.2327 10.4141 11.4678 10.5712C11.703 10.7284 11.9795 10.8122 12.2623 10.8122C12.6414 10.8116 13.0048 10.6607 13.2728 10.3926C13.5409 10.1246 13.6918 9.76123 13.6924 9.38216Z" fill="black"/>
<path d="M31.5311 9.41489L28.4028 6.97062C28.2655 6.86345 28.0992 6.8 27.9255 6.78849C27.7517 6.77698 27.5785 6.81794 27.4283 6.90607L25.1814 8.22441L16.2187 6.66027C15.8214 6.08244 15.3024 5.5986 14.6981 5.24276C14.0939 4.88692 13.4191 4.66771 12.7211 4.60052C12.0231 4.53334 11.3188 4.61982 10.6578 4.85388C9.99677 5.08794 9.39503 5.46391 8.89483 5.95536C8.39463 6.44682 8.00811 7.04184 7.76244 7.69863C7.51676 8.35542 7.41788 9.05804 7.47275 9.75712C7.52762 10.4562 7.7349 11.1348 8.08003 11.7452C8.42516 12.3556 8.89977 12.8831 9.47052 13.2905L12.6323 24.1972H8.04914C7.81868 24.1972 7.59765 24.2888 7.43469 24.4518C7.27173 24.6147 7.18018 24.8357 7.18018 25.0662V29.4979C7.18018 29.7284 7.27173 29.9494 7.43469 30.1124C7.59765 30.2753 7.81868 30.3669 8.04914 30.3669H26.7704C27.0008 30.3669 27.2219 30.2753 27.3848 30.1124C27.5478 29.9494 27.6393 29.7284 27.6393 29.4979V25.0662C27.6393 24.8357 27.5478 24.6147 27.3848 24.4518C27.2219 24.2888 27.0008 24.1972 26.7704 24.1972H20.2854L16.2522 12.8734L24.3584 13.8292L25.9846 15.5945C26.0661 15.6827 26.1649 15.753 26.275 15.8011C26.385 15.8492 26.5038 15.8739 26.6239 15.8738C26.6629 15.8738 26.7019 15.8713 26.7406 15.8663L30.1829 15.4008C30.2978 15.3877 30.409 15.3518 30.5099 15.2952C30.6107 15.2386 30.6993 15.1624 30.7703 15.0711C30.8414 14.9798 30.8935 14.8753 30.9236 14.7636C30.9537 14.6519 30.9612 14.5354 30.9456 14.4207C30.9301 14.3061 30.8918 14.1957 30.8331 14.0961C30.7743 13.9965 30.6963 13.9096 30.6035 13.8405C30.5107 13.7714 30.4051 13.7215 30.2928 13.6938C30.1805 13.6661 30.0638 13.6611 29.9495 13.679L26.9566 14.0837L25.5724 12.5866L26.0317 9.73889L27.7957 8.70358L30.4635 10.7854C30.6457 10.9094 30.8683 10.9595 31.0861 10.9256C31.304 10.8916 31.5007 10.7762 31.6366 10.6026C31.7725 10.429 31.8373 10.2102 31.818 9.99062C31.7986 9.77102 31.6965 9.56699 31.5323 9.41986L31.5311 9.41489ZM9.18624 9.38262C9.186 8.77583 9.36572 8.1826 9.70268 7.67797C10.0396 7.17334 10.5187 6.77998 11.0793 6.54766C11.6398 6.31534 12.2567 6.25449 12.8518 6.37281C13.447 6.49113 13.9936 6.7833 14.4227 7.21236C14.8518 7.64143 15.1439 8.18811 15.2623 8.78325C15.3806 9.37839 15.3197 9.99526 15.0874 10.5558C14.8551 11.1164 14.4617 11.5954 13.9571 11.9324C13.4525 12.2693 12.8592 12.4491 12.2524 12.4488C11.4414 12.4449 10.6648 12.1203 10.0922 11.5458C9.51958 10.9714 9.19748 10.1937 9.19617 9.38262H9.18624ZM25.9026 25.9339V28.6277H8.91686V25.9339H25.9026ZM18.4395 24.196H14.4422L11.5238 14.1284C12.6006 14.2962 13.7025 14.0926 14.6483 13.5512L18.4395 24.196ZM17.0144 8.66262L24.264 9.80469L23.8916 12.1L16.7102 11.195C16.9461 10.62 17.0667 10.0042 17.0653 9.38262C17.0657 9.14171 17.0486 8.90108 17.0144 8.66262Z" fill="black"/>
</svg>
