<svg width="36" height="36" viewBox="0 0 36 36" fill="none" xmlns="http://www.w3.org/2000/svg">
<path d="M29.1378 9.23133C29.2803 8.96796 29.358 8.67825 29.358 8.3622C29.358 7.34822 28.5421 6.5186 27.5449 6.5186C27.2599 6.5186 26.988 6.59761 26.7549 6.71613C24.3589 4.74084 21.3025 3.55566 17.987 3.55566C10.2683 3.55566 4 9.92926 4 17.7777C4 20.2139 4.6087 22.5184 5.68363 24.5332C5.45051 24.8493 5.30805 25.2312 5.30805 25.6526C5.30805 26.6665 6.12396 27.4962 7.12118 27.4962C7.3284 27.4962 7.52266 27.4567 7.70398 27.3908C10.2683 30.2221 13.9204 32.013 17.987 32.013C25.7058 32.013 31.9741 25.6394 31.9741 17.7909C31.9741 14.5646 30.9121 11.6148 29.1378 9.23133ZM27.1045 17.093C26.9621 15.0914 26.198 13.2609 24.9935 11.8124L26.8067 10.0478C27.0398 10.1531 27.2858 10.219 27.5578 10.219C27.7521 10.219 27.9334 10.1795 28.1147 10.1268C29.5652 12.1021 30.4588 14.4988 30.6013 17.1061H27.1045V17.093ZM24.5791 22.0049C24.4496 21.9785 24.333 21.9654 24.1906 21.9654C23.1933 21.9654 22.3774 22.795 22.3774 23.809C22.3774 23.967 22.4033 24.125 22.4422 24.283C21.3543 25.06 20.0592 25.5604 18.6475 25.6789V21.86C20.3571 21.5703 21.704 20.2008 21.9889 18.4625H25.7447C25.6411 19.753 25.2266 20.9514 24.5791 22.0049ZM25.8612 9.04697L24.0481 10.8247C22.5846 9.50787 20.7197 8.66508 18.6605 8.50706V4.9647C21.3673 5.10956 23.8538 6.12355 25.8483 7.74328C25.7835 7.94081 25.7317 8.15151 25.7317 8.37537C25.7317 8.61241 25.7835 8.83627 25.8612 9.04697ZM18.6605 15.1045C18.9066 15.1704 19.1397 15.2757 19.3599 15.4074L18.6605 16.0922V15.1045ZM17.3136 17.093H15.358C15.6041 16.1185 16.3552 15.3547 17.3136 15.1045V17.093ZM17.3136 18.4625V20.451C16.3552 20.2008 15.6041 19.437 15.358 18.4625H17.3136ZM18.6605 18.4625H20.6161C20.37 19.437 19.6189 20.2008 18.6605 20.451V18.4625ZM19.58 17.093L20.3182 16.3687C20.4477 16.5926 20.5513 16.8296 20.6161 17.093H19.58ZM20.37 14.4198C19.8779 14.051 19.2951 13.8008 18.6605 13.6955V9.87659C20.3441 10.0214 21.8723 10.7194 23.0768 11.7729L20.37 14.4198ZM17.3136 13.6955C15.6041 13.9852 14.2572 15.3547 13.9722 17.093H10.2165C10.5402 13.2609 13.5449 10.219 17.3136 9.87659V13.6955ZM13.9722 18.4625C14.2572 20.2008 15.6041 21.5703 17.3136 21.86V25.6789C13.5449 25.3497 10.5532 22.2946 10.2165 18.4625H13.9722ZM22.0019 17.093C21.8982 16.4741 21.6651 15.8946 21.3154 15.3942L24.0222 12.7473C24.9935 13.9457 25.6152 15.4469 25.7576 17.0798H22.0019V17.093ZM17.3136 4.9647V8.50706C12.8067 8.84944 9.20629 12.5103 8.86957 17.093H5.38575C5.72248 10.5614 10.877 5.30709 17.3136 4.9647ZM8.7271 26.4822C8.85661 26.232 8.93432 25.9423 8.93432 25.6394C8.93432 24.6254 8.11841 23.7958 7.12118 23.7958C7.03053 23.7958 6.93987 23.809 6.84921 23.8221C5.99445 22.2024 5.48936 20.3851 5.38575 18.4625H8.86957C9.20629 23.0452 12.8067 26.706 17.3136 27.0484V30.5908C13.9204 30.4064 10.8899 28.8657 8.7271 26.4822ZM18.6605 30.5908V27.0484C20.37 26.9167 21.9371 26.3242 23.2581 25.376C23.5301 25.5472 23.8538 25.6526 24.2035 25.6526C25.2007 25.6526 26.0167 24.8229 26.0167 23.809C26.0167 23.4271 25.9001 23.0715 25.7058 22.7686C26.4958 21.5045 27.0009 20.0427 27.1045 18.4625H30.5883C30.2516 25.0073 25.0842 30.2484 18.6605 30.5908Z" fill="black"/>
</svg>
