<svg width="36" height="36" viewBox="0 0 36 36" fill="none" xmlns="http://www.w3.org/2000/svg">
<path d="M32.7004 10.5603H29.9433C29.8626 10.5603 29.7823 10.5721 29.705 10.5951C29.1071 10.0361 28.4087 9.59548 27.6468 9.29657C26.7926 8.94902 25.9018 8.69916 24.9915 8.55175C24.0803 7.83671 20.844 5.62209 15.7556 5.62085C13.3101 5.62085 11.3214 5.72264 10.1582 5.90885L10.08 5.92126C9.21104 6.06154 8.7269 6.1385 7.72139 7.48788L7.48677 7.82057C6.95297 8.53685 6.5309 9.10292 6.25656 9.64416L6.21808 9.73478L6.20194 9.78319C6.16662 9.9132 6.14048 10.0455 6.12373 10.1792C6.10759 10.2934 6.09145 10.4275 6.07532 10.5851C6.00319 10.5662 5.92893 10.5566 5.85435 10.5566H3.43739C3.20692 10.5566 2.9859 10.6481 2.82293 10.8111C2.65997 10.9741 2.56842 11.1951 2.56842 11.4255V24.6599C2.56842 24.8903 2.65997 25.1114 2.82293 25.2743C2.9859 25.4373 3.20692 25.5288 3.43739 25.5288H10.6287V28.1444C10.6294 28.4861 10.7653 28.8136 11.0068 29.0553C11.2482 29.297 11.5756 29.4332 11.9172 29.4342H24.0828C24.4249 29.4339 24.7529 29.2979 24.9949 29.0562C25.2369 28.8144 25.3731 28.4865 25.3738 28.1444V25.5313H32.6979C32.9284 25.5313 33.1494 25.4398 33.3124 25.2768C33.4754 25.1139 33.5669 24.8928 33.5669 24.6624V11.4293C33.5669 11.1992 33.4757 10.9786 33.3133 10.8157C33.1508 10.6528 32.9305 10.561 32.7004 10.5603ZM22.3337 8.88444C21.06 9.04954 19.2302 9.11409 16.9957 9.07313L16.8964 7.36623C18.7924 7.50227 20.6415 8.0186 22.3337 8.88444ZM15.1597 7.32402L15.2578 9.01975C13.8575 8.96513 12.7068 8.88816 12.0824 8.84223L11.9582 7.43202C12.8731 7.37119 13.9494 7.33519 15.1597 7.32402ZM7.29932 11.9308L7.32414 11.9171L7.4098 11.8439V11.834L7.58483 11.6552L7.60221 11.6328C7.67216 11.5201 7.71468 11.3926 7.72635 11.2604V11.2431C7.72635 11.2046 7.73752 11.0978 7.75118 10.9613C7.76483 10.8247 7.7847 10.6 7.81076 10.4138C7.81076 10.3753 7.82194 10.3393 7.8269 10.3095C8.13385 9.77066 8.48513 9.25826 8.87711 8.77768C9.09932 8.49837 9.3327 8.20913 9.51642 8.01299C9.71022 7.80495 9.96722 7.66664 10.2476 7.61947L10.4338 9.72982C10.4529 9.93151 10.5419 10.1202 10.6854 10.2632C10.8289 10.4062 11.0178 10.4946 11.2196 10.5131C11.3648 10.5255 14.8196 10.8185 18.252 10.8185C21.2028 10.8185 23.2796 10.6062 24.4266 10.1879C24.4637 10.1983 24.5014 10.2062 24.5396 10.2115H24.5768L24.6526 10.2214C24.7258 10.2326 24.8388 10.25 24.984 10.2773C25.3607 10.3477 25.7336 10.4372 26.1012 10.5454C26.7219 10.7304 27.8801 11.145 28.5654 11.8451C28.9713 12.2622 29.1612 12.6967 29.1625 13.2106C29.169 13.4439 29.1524 13.6771 29.1128 13.9071C29.107 13.9331 29.0995 13.9588 29.0905 13.984L29.0582 13.9964C28.8103 14.0523 28.5561 14.0753 28.3022 14.0647C28.1937 13.4695 27.8825 12.9303 27.4213 12.5386C26.9602 12.147 26.3777 11.9272 25.7728 11.9165C25.1679 11.9058 24.578 12.105 24.1033 12.4801C23.6286 12.8552 23.2985 13.3831 23.1691 13.9741H12.0526C11.9357 13.4428 11.6563 12.9612 11.2533 12.5959C10.8502 12.2306 10.3434 11.9999 9.80327 11.9358C9.26312 11.8716 8.71639 11.9772 8.23899 12.238C7.76159 12.4987 7.3772 12.9015 7.13918 13.3906C7.11459 13.3312 7.09386 13.2703 7.07711 13.2082C7.03592 13.0279 7.01798 12.8431 7.02373 12.6582C7.01515 12.5243 7.0353 12.3902 7.08283 12.2647C7.13036 12.1392 7.20418 12.0254 7.29932 11.9308ZM26.6412 14.5377C26.6415 14.7512 26.5676 14.9581 26.4323 15.1232C26.297 15.2883 26.1086 15.4014 25.8993 15.4432C25.6899 15.4849 25.4726 15.4527 25.2843 15.3521C25.096 15.2515 24.9484 15.0888 24.8667 14.8915C24.7851 14.6943 24.7743 14.4748 24.8364 14.2706C24.8984 14.0663 25.0294 13.8899 25.207 13.7714C25.3845 13.6529 25.5977 13.5997 25.8101 13.6208C26.0226 13.6419 26.2211 13.7361 26.3719 13.8872C26.4575 13.9727 26.5255 14.0743 26.5717 14.1861C26.6179 14.298 26.6416 14.4179 26.6412 14.5389V14.5377ZM10.4152 14.5377C10.4154 14.7512 10.3416 14.9581 10.2063 15.1232C10.071 15.2883 9.88256 15.4014 9.6732 15.4432C9.46385 15.4849 9.24649 15.4527 9.0582 15.3521C8.86992 15.2515 8.72235 15.0888 8.64067 14.8915C8.55899 14.6943 8.54826 14.4748 8.6103 14.2706C8.67234 14.0663 8.80332 13.8899 8.98089 13.7714C9.15846 13.6529 9.37164 13.5997 9.58407 13.6208C9.7965 13.6419 9.99503 13.7361 10.1458 13.8872C10.2315 13.9727 10.2994 14.0743 10.3456 14.1861C10.3918 14.298 10.4155 14.4179 10.4152 14.5389V14.5377ZM23.6582 27.7211H12.3418V21.6173H23.6582V27.7211ZM31.8315 23.7922H25.3763V21.1952C25.3756 20.853 25.2394 20.525 24.9974 20.283C24.7554 20.041 24.4275 19.9048 24.0852 19.9042H23.6384V19.4808C23.638 19.2538 23.5477 19.0361 23.3871 18.8755C23.2265 18.715 23.0089 18.6246 22.7818 18.6243H19.3059C19.0789 18.6246 18.8612 18.715 18.7006 18.8755C18.5401 19.0361 18.4497 19.2538 18.4494 19.4808V19.9042H17.5556V19.4808C17.5553 19.2538 17.4649 19.0361 17.3044 18.8755C17.1438 18.715 16.9261 18.6246 16.699 18.6243H13.2232C12.9961 18.6246 12.7784 18.715 12.6179 18.8755C12.4573 19.0361 12.367 19.2538 12.3666 19.4808V19.9042H11.9172C11.575 19.9048 11.247 20.041 11.0051 20.283C10.7631 20.525 10.6269 20.853 10.6262 21.1952V23.7909H4.30635V12.297H5.34911C5.33401 12.4181 5.32614 12.5399 5.32552 12.662C5.32552 13.2082 5.44966 14.5563 6.5669 15.28C6.72869 15.3801 6.89901 15.4657 7.07587 15.5357C7.26867 16.003 7.59258 16.4044 8.00852 16.6916C8.42445 16.9787 8.91462 17.1393 9.41984 17.154C9.92506 17.1687 10.4237 17.0369 10.8557 16.7744C11.2876 16.5119 11.6343 16.13 11.8539 15.6748H23.3628C23.5729 16.1104 23.8996 16.4793 24.3066 16.7405C24.7136 17.0018 25.1851 17.1451 25.6686 17.1548C26.1521 17.1644 26.6289 17.0399 27.046 16.7951C27.4631 16.5503 27.8043 16.1948 28.0316 15.7679C28.5021 15.7679 29.2792 15.7517 29.7273 15.5593C30.0729 15.4199 30.3624 15.1697 30.5504 14.848C30.6641 14.6401 30.743 14.4149 30.7837 14.1814C30.836 13.8622 30.8593 13.539 30.8532 13.2156C30.853 12.9056 30.8112 12.5971 30.7291 12.2982H31.8265L31.8315 23.7922Z" fill="black"/>
<path d="M19.0726 25.3031H19.9726V26.2031C19.9729 26.3098 20.0155 26.4121 20.0912 26.4875C20.1668 26.5629 20.2692 26.6053 20.376 26.6053H20.8105C20.9173 26.6053 21.0197 26.5629 21.0953 26.4875C21.171 26.4121 21.2136 26.3098 21.2139 26.2031V25.3031H22.1127C22.2197 25.3031 22.3223 25.2605 22.398 25.1849C22.4736 25.1092 22.5161 25.0066 22.5161 24.8996V24.4651C22.5161 24.3581 22.4736 24.2555 22.398 24.1798C22.3223 24.1042 22.2197 24.0617 22.1127 24.0617H21.2139V23.1629C21.2139 23.0559 21.1714 22.9533 21.0958 22.8776C21.0201 22.802 20.9175 22.7595 20.8105 22.7595H20.376C20.269 22.7595 20.1664 22.802 20.0907 22.8776C20.0151 22.9533 19.9726 23.0559 19.9726 23.1629V24.0617H19.0726C18.9658 24.062 18.8635 24.1046 18.7881 24.1803C18.7127 24.2559 18.6703 24.3583 18.6703 24.4651V24.8996C18.6703 25.0064 18.7127 25.1088 18.7881 25.1844C18.8635 25.2601 18.9658 25.3027 19.0726 25.3031Z" fill="black"/>
<path d="M16.8381 24.0616H13.798C13.5752 24.0616 13.3945 24.2422 13.3945 24.465V24.8995C13.3945 25.1223 13.5752 25.303 13.798 25.303H16.8381C17.0609 25.303 17.2416 25.1223 17.2416 24.8995V24.465C17.2416 24.2422 17.0609 24.0616 16.8381 24.0616Z" fill="black"/>
</svg>
