<svg width="36" height="36" viewBox="0 0 36 36" fill="none" xmlns="http://www.w3.org/2000/svg">
<path d="M9.62069 24.67H23.0276C23.2477 24.6701 23.4657 24.6269 23.6691 24.5427C23.8725 24.4586 24.0573 24.3351 24.213 24.1795C24.3686 24.0238 24.492 23.839 24.5762 23.6356C24.6604 23.4322 24.7036 23.2142 24.7034 22.9941V12.9389C24.7036 12.7188 24.6604 12.5008 24.5762 12.2974C24.492 12.094 24.3686 11.9092 24.213 11.7535C24.0573 11.5979 23.8725 11.4745 23.6691 11.3903C23.4657 11.3061 23.2477 11.2629 23.0276 11.2631H9.62069C9.40056 11.2629 9.18257 11.3061 8.97917 11.3903C8.77577 11.4745 8.59096 11.5979 8.43531 11.7535C8.27966 11.9092 8.15622 12.094 8.07206 12.2974C7.9879 12.5008 7.94466 12.7188 7.94482 12.9389V22.9941C7.94466 23.2142 7.9879 23.4322 8.07206 23.6356C8.15622 23.839 8.27966 24.0238 8.43531 24.1795C8.59096 24.3351 8.77577 24.4586 8.97917 24.5427C9.18257 24.6269 9.40056 24.6701 9.62069 24.67ZM9.62069 12.9389H23.0276V22.9941H9.62069V12.9389Z" fill="black"/>
<path d="M29.731 7.91138H6.26894C6.04882 7.91121 5.83082 7.95445 5.62742 8.03861C5.42402 8.12277 5.23921 8.24621 5.08356 8.40186C4.92791 8.55751 4.80448 8.74232 4.72031 8.94572C4.63615 9.14912 4.59292 9.36712 4.59308 9.58724V26.3459C4.59292 26.566 4.63615 26.784 4.72031 26.9874C4.80448 27.1908 4.92791 27.3756 5.08356 27.5312C5.23921 27.6869 5.42402 27.8103 5.62742 27.8945C5.83082 27.9786 6.04882 28.0219 6.26894 28.0217H7.10687L8.36439 29.6976H10.8782L12.1345 28.0217H23.8655L25.123 29.6976H27.6368L28.8931 28.0217H29.731C29.9511 28.0219 30.1691 27.9786 30.3725 27.8945C30.5759 27.8103 30.7607 27.6869 30.9164 27.5312C31.072 27.3756 31.1955 27.1908 31.2796 26.9874C31.3638 26.784 31.407 26.566 31.4069 26.3459V9.58724C31.407 9.36712 31.3638 9.14912 31.2796 8.94572C31.1955 8.74232 31.072 8.55751 30.9164 8.40186C30.7607 8.24621 30.5759 8.12277 30.3725 8.03861C30.1691 7.95445 29.9511 7.91121 29.731 7.91138ZM29.731 26.3459H6.26894V9.58724H29.731V26.3459Z" fill="black"/>
<path d="M19.7142 14.981C19.6927 14.9798 19.6712 14.9798 19.6497 14.981C18.9558 15.0964 18.5536 15.5024 18.2593 15.7978C17.9453 16.1119 17.8211 16.2199 17.5033 16.2199C17.1856 16.2199 17.0453 16.0957 16.7449 15.7978C16.3873 15.4403 15.8982 14.95 14.9585 14.95C14.0188 14.95 13.5322 15.4465 13.1747 15.7978C12.9525 16.0188 12.8184 16.1466 12.6371 16.1938C12.5488 16.2162 12.4704 16.2672 12.414 16.3388C12.3577 16.4105 12.3266 16.4987 12.3256 16.5898V17.239C12.3262 17.2938 12.3376 17.3479 12.3592 17.3983C12.3808 17.4486 12.412 17.4943 12.4512 17.5325C12.4904 17.5708 12.5368 17.601 12.5876 17.6213C12.6385 17.6417 12.6929 17.6518 12.7476 17.6512C12.7693 17.651 12.7909 17.6489 12.8122 17.645C13.5024 17.5308 13.9071 17.1248 14.2025 16.8282C14.498 16.5315 14.6407 16.4061 14.9573 16.4061C15.2738 16.4061 15.4129 16.5302 15.717 16.8319C16.0758 17.1881 16.5661 17.6773 17.5009 17.6773C18.4356 17.6773 18.9297 17.1807 19.2872 16.8282C19.5082 16.6072 19.6422 16.4793 19.8247 16.4309C19.913 16.4089 19.9916 16.3582 20.048 16.2868C20.1044 16.2153 20.1354 16.1272 20.1363 16.0362V15.3931C20.1357 15.3383 20.1242 15.2842 20.1027 15.2339C20.0811 15.1835 20.0498 15.1379 20.0106 15.0996C19.9714 15.0614 19.9251 15.0312 19.8742 15.0108C19.8234 14.9905 19.769 14.9803 19.7142 14.981Z" fill="black"/>
<path d="M19.7094 18.3364C19.6879 18.3345 19.6663 18.3345 19.6449 18.3364C18.9522 18.4518 18.5487 18.8565 18.2545 19.1532C17.9404 19.466 17.8163 19.5753 17.4985 19.5753C17.1807 19.5753 17.0404 19.4511 16.7388 19.1532C16.3813 18.7944 15.8909 18.3041 14.9537 18.3041C14.0164 18.3041 13.5298 18.7932 13.1686 19.1532C12.9464 19.3741 12.8123 19.502 12.631 19.5504C12.5427 19.5724 12.4642 19.6231 12.4078 19.6946C12.3514 19.766 12.3203 19.8542 12.3195 19.9452V20.6068C12.3198 20.6614 12.3309 20.7155 12.3522 20.7657C12.3735 20.816 12.4046 20.8616 12.4436 20.8998C12.4824 20.939 12.5286 20.9702 12.5795 20.9915C12.6305 21.0128 12.6851 21.0238 12.7403 21.0239C12.7619 21.0232 12.7835 21.0211 12.8048 21.0177C13.495 20.9023 13.8997 20.4964 14.1952 20.2009C14.5093 19.8868 14.6334 19.7788 14.9499 19.7788C15.2665 19.7788 15.4055 19.903 15.7109 20.2046C16.0697 20.5609 16.5613 21.0488 17.4948 21.0488C18.4283 21.0488 18.9236 20.5584 19.2811 20.2009C19.5021 19.9799 19.6362 19.8521 19.8186 19.8037C19.907 19.7817 19.9855 19.731 20.0419 19.6595C20.0983 19.5881 20.1294 19.4999 20.1302 19.4089V18.7448C20.1276 18.6351 20.0821 18.5309 20.0034 18.4545C19.9246 18.3781 19.8191 18.3357 19.7094 18.3364Z" fill="black"/>
<path d="M27.2172 17.9603C27.3817 17.9603 27.5425 17.9115 27.6792 17.8202C27.816 17.7288 27.9226 17.5989 27.9856 17.4469C28.0485 17.2949 28.065 17.1277 28.0329 16.9663C28.0008 16.805 27.9216 16.6568 27.8053 16.5405C27.689 16.4242 27.5408 16.3449 27.3794 16.3129C27.2181 16.2808 27.0509 16.2972 26.8989 16.3602C26.7469 16.4231 26.617 16.5297 26.5256 16.6665C26.4342 16.8033 26.3854 16.9641 26.3854 17.1286C26.3858 17.3491 26.4735 17.5605 26.6294 17.7164C26.7853 17.8723 26.9967 17.96 27.2172 17.9603Z" fill="black"/>
<path d="M27.2172 14.6084C27.3817 14.6084 27.5425 14.5596 27.6792 14.4682C27.816 14.3768 27.9226 14.2469 27.9856 14.095C28.0485 13.943 28.065 13.7758 28.0329 13.6144C28.0008 13.4531 27.9216 13.3049 27.8053 13.1886C27.689 13.0722 27.5408 12.993 27.3794 12.9609C27.2181 12.9288 27.0509 12.9453 26.8989 13.0083C26.7469 13.0712 26.617 13.1778 26.5256 13.3146C26.4342 13.4514 26.3854 13.6122 26.3854 13.7767C26.3858 13.9972 26.4735 14.2085 26.6294 14.3644C26.7853 14.5203 26.9967 14.6081 27.2172 14.6084Z" fill="black"/>
</svg>
