<svg width="36" height="36" viewBox="0 0 36 36" fill="none" xmlns="http://www.w3.org/2000/svg">
<path d="M30.9686 9.20848C30.207 6.9691 28.631 5.09809 26.5536 3.96706C24.4762 2.83603 22.0494 2.52772 19.7552 3.10338L19.7279 3.11082C19.5677 3.16006 19.4337 3.27089 19.3552 3.41895C19.2768 3.56701 19.2603 3.74017 19.3095 3.90034L19.461 4.39689C19.5088 4.55482 19.6164 4.68783 19.7609 4.7676C19.9053 4.84736 20.0752 4.86757 20.2344 4.82393C22.082 4.36808 24.0333 4.62034 25.7042 5.53105C27.3752 6.44177 28.6447 7.94496 29.2629 9.74475C29.3079 9.88538 29.4006 10.0058 29.5251 10.0852C29.6496 10.1646 29.798 10.1978 29.9444 10.1792C29.9754 10.1752 30.0061 10.1694 30.0363 10.1619L30.5378 10.0116L30.5589 10.0042C30.638 9.97886 30.7113 9.93813 30.7745 9.88435C30.8378 9.83057 30.8898 9.7648 30.9275 9.69084C30.9653 9.61687 30.988 9.53617 30.9944 9.45339C31.0008 9.3706 30.9908 9.28736 30.9649 9.20848H30.9686Z" fill="black"/>
<path d="M20.1438 7.90267C20.2032 8.04188 20.31 8.1556 20.4451 8.22375C20.5803 8.2919 20.7352 8.31008 20.8824 8.27509C21.9295 8.04146 23.0258 8.19568 23.9677 8.70912C24.9097 9.22256 25.6333 10.0604 26.0044 11.067C26.0525 11.2055 26.147 11.3233 26.2718 11.4004C26.3966 11.4775 26.5441 11.5092 26.6896 11.4903C26.7194 11.4869 26.7489 11.4811 26.7778 11.4729L27.283 11.3289L27.3165 11.319C27.4748 11.2645 27.605 11.1495 27.6785 10.9991C27.7521 10.8488 27.763 10.6754 27.7088 10.517C27.1928 9.07893 26.1665 7.88047 24.825 7.14928C23.4834 6.41809 21.9201 6.20512 20.4318 6.55081L20.3933 6.56074C20.233 6.61049 20.099 6.72187 20.0208 6.87038C19.9426 7.0189 19.9266 7.1924 19.9762 7.35274L20.1264 7.84929C20.1289 7.86791 20.1364 7.88529 20.1438 7.90267Z" fill="black"/>
<path d="M21.0934 12.1436C17.697 10.3312 14.4968 9.40013 11.8402 9.45227C9.48903 9.4982 7.69648 10.351 6.9293 11.7935L4.28392 16.7479C2.45537 20.1741 5.97717 25.6361 12.1356 28.9233C15.1311 30.5222 18.2072 31.3167 20.7868 31.3167C23.5104 31.3167 25.6816 30.4316 26.6213 28.6726L29.2667 23.7182C30.0363 22.277 29.7496 20.3143 28.4797 18.3356C27.0434 16.0986 24.4899 13.9572 21.0934 12.1436ZM8.43137 12.593C9.0111 11.5055 10.5417 11.0499 12.5602 11.1815L10.4784 15.0981C10.0217 15.0472 9.56251 15.0215 9.10296 15.0211C8.88944 15.0211 8.6871 15.0211 8.49841 15.0385C8.10241 14.0702 8.07882 13.2497 8.42889 12.593H8.43137ZM17.3296 19.1996C20.0234 20.6383 22.346 22.5004 23.7239 24.3265C21.4373 24.2023 18.5958 23.3048 15.9032 21.8685C13.2107 20.4323 10.8893 18.5665 9.50889 16.7379C11.793 16.8683 14.6321 17.7608 17.3271 19.1996H17.3296ZM25.1242 27.8719C23.9337 30.1063 18.6355 30.4663 12.9376 27.425C10.2947 26.0135 8.10365 24.1452 6.77041 22.1628C5.56627 20.3739 5.19758 18.6484 5.78599 17.5473L6.88089 15.4953C7.50158 17.1737 9.37606 20.3081 15.1038 23.3669C20.8315 26.4257 24.4812 26.2432 26.2166 25.8211L25.1242 27.8719ZM27.7696 22.9175C27.4195 23.573 26.7231 24.0112 25.7002 24.2185C24.7245 22.5612 22.6203 20.0983 18.1278 17.7012C15.8499 16.4847 13.9009 15.7883 12.2821 15.4121L14.3925 11.4397C16.2049 11.8121 18.2494 12.557 20.2952 13.6457C22.886 15.0285 25.0894 16.759 26.5021 18.5205C27.9148 20.2821 28.3481 21.8276 27.7671 22.9175H27.7696Z" fill="black"/>
<path d="M12.0264 22.2207C11.9289 22.1614 11.8207 22.1218 11.7079 22.1043C11.5952 22.0868 11.48 22.0916 11.3691 22.1186C11.2582 22.1456 11.1537 22.1941 11.0616 22.2615C10.9695 22.3289 10.8915 22.4137 10.8322 22.5112L10.1991 23.5515C10.0793 23.749 10.0428 23.9861 10.0977 24.2105C10.1527 24.4349 10.2945 24.6283 10.4921 24.7482C10.6896 24.868 10.9267 24.9045 11.1511 24.8495C11.3755 24.7946 11.5689 24.6528 11.6888 24.4552L12.3219 23.4137C12.3808 23.316 12.4199 23.2076 12.437 23.0947C12.454 22.9819 12.4487 22.8668 12.4212 22.756C12.3938 22.6452 12.3448 22.541 12.2771 22.4491C12.2093 22.3573 12.1241 22.2797 12.0264 22.2207Z" fill="black"/>
<path d="M13.5373 24.162C13.3693 24.162 13.2052 24.2118 13.0655 24.3051C12.9259 24.3984 12.8171 24.531 12.7528 24.6862C12.6885 24.8413 12.6717 25.012 12.7045 25.1767C12.7372 25.3414 12.8181 25.4927 12.9369 25.6115C13.0556 25.7302 13.2069 25.8111 13.3716 25.8439C13.5363 25.8766 13.7071 25.8598 13.8622 25.7956C14.0174 25.7313 14.15 25.6225 14.2433 25.4828C14.3366 25.3432 14.3864 25.179 14.3864 25.0111C14.3864 24.7859 14.2969 24.5699 14.1377 24.4107C13.9784 24.2514 13.7625 24.162 13.5373 24.162Z" fill="black"/>
<path d="M15.7655 25.436C15.6064 25.436 15.4509 25.4832 15.3186 25.5716C15.1863 25.66 15.0832 25.7856 15.0223 25.9326C14.9614 26.0796 14.9455 26.2413 14.9765 26.3974C15.0076 26.5534 15.0842 26.6968 15.1967 26.8093C15.3092 26.9218 15.4525 26.9984 15.6085 27.0294C15.7646 27.0605 15.9263 27.0445 16.0733 26.9836C16.2203 26.9228 16.3459 26.8196 16.4343 26.6874C16.5227 26.5551 16.5699 26.3996 16.5699 26.2405C16.5699 26.0271 16.4852 25.8225 16.3343 25.6716C16.1834 25.5208 15.9788 25.436 15.7655 25.436Z" fill="black"/>
<path d="M18.0324 26.337C17.8822 26.337 17.7353 26.3816 17.6103 26.4651C17.4854 26.5486 17.388 26.6672 17.3305 26.806C17.273 26.9448 17.258 27.0976 17.2873 27.245C17.3166 27.3923 17.389 27.5277 17.4952 27.634C17.6015 27.7402 17.7368 27.8126 17.8842 27.8419C18.0316 27.8712 18.1843 27.8561 18.3232 27.7986C18.462 27.7411 18.5806 27.6438 18.6641 27.5188C18.7476 27.3939 18.7922 27.247 18.7922 27.0968C18.7922 26.8953 18.7121 26.702 18.5696 26.5596C18.4272 26.4171 18.2339 26.337 18.0324 26.337Z" fill="black"/>
<path d="M20.2344 26.9182C20.093 26.9182 19.9548 26.9601 19.8372 27.0387C19.7196 27.1173 19.628 27.229 19.5738 27.3596C19.5197 27.4903 19.5056 27.634 19.5331 27.7727C19.5607 27.9115 19.6288 28.0389 19.7288 28.1389C19.8288 28.2389 19.9562 28.307 20.0949 28.3346C20.2336 28.3621 20.3774 28.348 20.5081 28.2939C20.6387 28.2397 20.7504 28.1481 20.829 28.0305C20.9075 27.9129 20.9495 27.7747 20.9495 27.6333C20.9495 27.4436 20.8741 27.2617 20.74 27.1276C20.6059 26.9935 20.4241 26.9182 20.2344 26.9182Z" fill="black"/>
<path d="M22.4753 27.0521C22.3427 27.0521 22.2131 27.0914 22.1029 27.1651C21.9926 27.2388 21.9067 27.3435 21.856 27.4659C21.8052 27.5884 21.7919 27.7232 21.8178 27.8533C21.8437 27.9833 21.9075 28.1027 22.0013 28.1965C22.095 28.2902 22.2145 28.3541 22.3445 28.38C22.4745 28.4058 22.6093 28.3925 22.7318 28.3418C22.8543 28.2911 22.959 28.2052 23.0327 28.0949C23.1063 27.9847 23.1456 27.8551 23.1456 27.7225C23.1456 27.5447 23.075 27.3742 22.9493 27.2485C22.8236 27.1228 22.6531 27.0521 22.4753 27.0521Z" fill="black"/>
</svg>
