<svg width="36" height="36" viewBox="0 0 36 36" fill="none" xmlns="http://www.w3.org/2000/svg">
<path d="M23.1875 4.375H13.0625C11.1641 4.375 9.6875 5.9043 9.6875 7.75V28C9.6875 29.8984 11.1641 31.375 13.0625 31.375H23.1875C25.0332 31.375 26.5625 29.8984 26.5625 28V7.75C26.5625 5.9043 25.0332 4.375 23.1875 4.375ZM24.875 28C24.875 28.9492 24.084 29.6875 23.1875 29.6875H13.0625C12.1133 29.6875 11.375 28.9492 11.375 28V7.75C11.375 6.85352 12.1133 6.0625 13.0625 6.0625H23.1875C24.084 6.0625 24.875 6.85352 24.875 7.75V28ZM19.8125 25.4688H16.4375C15.9629 25.4688 15.5938 25.8906 15.5938 26.3125C15.5938 26.7871 15.9629 27.1562 16.4375 27.1562H19.8125C20.2344 27.1562 20.6562 26.7871 20.6562 26.3125C20.6562 25.8906 20.2344 25.4688 19.8125 25.4688Z" fill="black"/>
<path d="M18.592 15.6476L18.4021 15.5929C17.6126 15.3745 17.4251 15.2553 17.4251 14.9611C17.4251 14.7463 17.5579 14.5179 17.9602 14.5179C18.3822 14.5179 18.5262 14.7202 18.592 14.9102C18.6027 14.9403 18.6118 14.971 18.6193 15.002C18.6193 15.0194 18.6367 15.0529 18.6715 15.0529H20.0283C20.0376 15.0522 20.0467 15.0495 20.0549 15.0452C20.0632 15.0409 20.0706 15.035 20.0766 15.0279C20.0826 15.0207 20.0871 15.0125 20.0899 15.0036C20.0927 14.9946 20.0937 14.9853 20.0928 14.976C20.0097 14.2547 19.5479 13.7011 18.592 13.5335V12.7676C18.592 12.5813 18.5597 12.5491 18.3735 12.5491H17.6287C17.4413 12.5491 17.4102 12.5813 17.4102 12.7676V13.531C16.4879 13.6998 15.8821 14.3031 15.8821 15.1597C15.8821 15.8896 16.1974 16.4333 17.4102 16.838C17.5344 16.8778 17.6585 16.915 17.7926 16.9522C18.2606 17.0764 18.4952 17.1906 18.597 17.3495C18.641 17.4289 18.6641 17.5182 18.6641 17.6089C18.6641 17.6997 18.641 17.789 18.597 17.8684C18.5138 17.9925 18.3487 18.0881 18.0471 18.0881C17.8756 18.1028 17.7045 18.0567 17.5636 17.958C17.4227 17.8593 17.3209 17.7142 17.2762 17.5481C17.2721 17.5338 17.2637 17.5211 17.2521 17.5118C17.2406 17.5025 17.2264 17.4969 17.2116 17.496C17.1756 17.496 15.8635 17.496 15.8076 17.496C15.7517 17.496 15.7691 17.5233 15.7704 17.5369C15.8436 18.314 16.3774 18.9198 17.4102 19.0874V19.8807C17.4102 20.0669 17.4413 20.0991 17.6287 20.0991H18.3735C18.5597 20.0991 18.592 20.0669 18.592 19.8807V19.0924C19.5851 18.9447 20.2294 18.396 20.2344 17.4153C20.2344 16.6084 19.8868 16.0386 18.592 15.6476Z" fill="black"/>
</svg>
