<svg width="36" height="36" viewBox="0 0 36 36" fill="none" xmlns="http://www.w3.org/2000/svg">
<path d="M11.7112 18.1168C11.7043 17.6392 11.792 17.165 11.9694 16.7215C12.1314 16.3196 12.3768 15.9566 12.6894 15.6564C13.0053 15.3588 13.3787 15.129 13.7867 14.9811C14.6843 14.6682 15.6612 14.6682 16.5587 14.9811C16.9666 15.1293 17.34 15.3591 17.6561 15.6564C17.9687 15.9566 18.2141 16.3196 18.3761 16.7215C18.7204 17.6199 18.7204 18.6138 18.3761 19.5121C18.2141 19.9141 17.9687 20.2771 17.6561 20.5772C17.34 20.8746 16.9666 21.1044 16.5587 21.2525C15.6615 21.5671 14.684 21.5671 13.7867 21.2525C13.3787 21.1046 13.0053 20.8748 12.6894 20.5772C12.3768 20.2771 12.1314 19.9141 11.9694 19.5121C11.7918 19.0687 11.7041 18.5944 11.7112 18.1168ZM13.1797 18.1168C13.1759 18.3995 13.2234 18.6804 13.32 18.9461C13.4083 19.1888 13.5451 19.411 13.7222 19.599C13.9002 19.7845 14.115 19.9308 14.3528 20.0285C14.8799 20.2354 15.4656 20.2354 15.9927 20.0285C16.2303 19.9311 16.4447 19.7848 16.622 19.599C16.7999 19.4114 16.9373 19.1891 17.0255 18.9461C17.2125 18.4108 17.2125 17.8279 17.0255 17.2926C16.9386 17.0474 16.8012 16.8232 16.622 16.6346C16.4448 16.4485 16.2303 16.3017 15.9927 16.2039C15.4653 15.9986 14.8802 15.9986 14.3528 16.2039C14.1149 16.302 13.9002 16.4488 13.7222 16.6346C13.544 16.8232 13.407 17.0469 13.32 17.2913C13.2241 17.5558 13.1766 17.8355 13.1797 18.1168Z" fill="black"/>
<path d="M23.2199 16.4768C23.0983 16.3273 22.9363 16.2157 22.7532 16.1553C22.5747 16.0891 22.3862 16.0538 22.1958 16.0511C22.0889 16.0517 21.9824 16.0638 21.878 16.0871C21.7708 16.1107 21.6672 16.1487 21.5702 16.2C21.4769 16.2488 21.3962 16.3185 21.3343 16.4036C21.2724 16.4946 21.2407 16.6027 21.2437 16.7127C21.2395 16.7991 21.2573 16.8851 21.2955 16.9626C21.3338 17.0401 21.3911 17.1066 21.4622 17.1559C21.6302 17.2709 21.8148 17.3596 22.0096 17.4191C22.2306 17.4911 22.4677 17.5643 22.7209 17.6363C22.9706 17.707 23.2098 17.8106 23.4322 17.9442C23.6535 18.0783 23.8412 18.2613 23.9809 18.4792C24.1385 18.7511 24.2139 19.0628 24.1981 19.3767C24.2058 19.6991 24.1377 20.0188 23.9995 20.3102C23.8717 20.5686 23.6871 20.7948 23.4595 20.9719C23.2242 21.1511 22.9565 21.2834 22.6713 21.3617C22.3627 21.4464 22.044 21.4882 21.7241 21.4858C21.3294 21.4897 20.9371 21.425 20.5646 21.2946C20.1948 21.1575 19.8568 20.9463 19.5715 20.6739L20.577 19.5679C20.7204 19.7604 20.9088 19.9147 21.1257 20.0173C21.3387 20.1214 21.5726 20.1757 21.8097 20.1761C21.9272 20.1758 22.0442 20.162 22.1586 20.1352C22.2698 20.1102 22.3766 20.0683 22.4751 20.011C22.5658 19.9598 22.6435 19.8885 22.7023 19.8025C22.7607 19.7139 22.7906 19.6095 22.7879 19.5033C22.7912 19.4148 22.7727 19.3268 22.7339 19.2471C22.6952 19.1675 22.6374 19.0986 22.5657 19.0465C22.3962 18.9231 22.2086 18.8268 22.0096 18.761C21.7849 18.6815 21.5441 18.6033 21.2846 18.5251C21.0309 18.4493 20.7874 18.3426 20.5597 18.2073C20.3371 18.0759 20.1467 17.8965 20.0023 17.6822C19.8424 17.4247 19.7649 17.1246 19.7801 16.822C19.7715 16.5216 19.8346 16.2235 19.9641 15.9524C20.0936 15.6812 20.2859 15.4448 20.5249 15.2628C20.7594 15.0839 21.025 14.9501 21.3082 14.868C21.6061 14.7831 21.9146 14.7413 22.2244 14.7439C22.5805 14.7428 22.9349 14.7947 23.2758 14.8978C23.615 15.0006 23.9274 15.1769 24.1907 15.4142L23.2199 16.4768Z" fill="black"/>
<path d="M27.7088 8.14319H8.29116C7.51645 8.14417 6.77375 8.45236 6.22594 9.00017C5.67813 9.54798 5.36994 10.2907 5.36896 11.0654V24.9341C5.36994 25.7088 5.67813 26.4515 6.22594 26.9993C6.77375 27.5471 7.51645 27.8553 8.29116 27.8563H27.7088C28.4835 27.8553 29.2262 27.5471 29.774 26.9993C30.3219 26.4515 30.63 25.7088 30.631 24.9341V11.0654C30.63 10.2907 30.3219 9.54798 29.774 9.00017C29.2262 8.45236 28.4835 8.14417 27.7088 8.14319ZM28.9502 11.0654V24.9341C28.9502 25.2633 28.8194 25.5791 28.5866 25.8119C28.3538 26.0447 28.0381 26.1755 27.7088 26.1755H8.29116C7.96193 26.1755 7.64618 26.0447 7.41338 25.8119C7.18057 25.5791 7.04979 25.2633 7.04979 24.9341V11.0654C7.04979 10.7362 7.18057 10.4204 7.41338 10.1876C7.64618 9.9548 7.96193 9.82402 8.29116 9.82402H27.7088C28.0376 9.82467 28.3527 9.95575 28.585 10.1885C28.8173 10.4212 28.9477 10.7366 28.9477 11.0654H28.9502Z" fill="black"/>
</svg>
