<svg width="36" height="36" viewBox="0 0 36 36" fill="none" xmlns="http://www.w3.org/2000/svg">
<path d="M27.7437 26.3345H25.7438L23.6794 13.5694C23.6517 13.3605 23.5491 13.1688 23.3906 13.03C23.2321 12.8911 23.0286 12.8146 22.8179 12.8146H13.1823C12.9716 12.8146 12.7681 12.8911 12.6096 13.03C12.4511 13.1688 12.3485 13.3605 12.3208 13.5694L10.2564 26.3345H8.25653C8.1381 26.3348 8.02462 26.382 7.94089 26.4658C7.85715 26.5495 7.80996 26.663 7.80963 26.7814V27.6255C7.80996 27.744 7.85715 27.8574 7.94089 27.9412C8.02462 28.0249 8.1381 28.0721 8.25653 28.0724H27.7462C27.8646 28.0721 27.9781 28.0249 28.0618 27.9412C28.1456 27.8574 28.1928 27.744 28.1931 27.6255V26.7814C28.1929 26.7225 28.1812 26.6643 28.1585 26.61C28.1358 26.5557 28.1027 26.5064 28.0609 26.4649C28.0192 26.4234 27.9697 26.3905 27.9153 26.3681C27.8609 26.3458 27.8026 26.3343 27.7437 26.3345ZM12.0105 26.3345L13.942 14.5526H22.0582L23.9898 26.3345H12.0105Z" fill="black"/>
<path d="M18 9.22105C18.2305 9.22105 18.4515 9.1295 18.6145 8.96654C18.7774 8.80357 18.869 8.58255 18.869 8.35208V5.75263C18.869 5.52217 18.7774 5.30114 18.6145 5.13818C18.4515 4.97522 18.2305 4.88367 18 4.88367C17.7695 4.88367 17.5485 4.97522 17.3856 5.13818C17.2226 5.30114 17.131 5.52217 17.131 5.75263V8.35208C17.131 8.58255 17.2226 8.80357 17.3856 8.96654C17.5485 9.1295 17.7695 9.22105 18 9.22105Z" fill="black"/>
<path d="M31.8825 16.9498H29.2818C29.0513 16.9498 28.8303 17.0413 28.6674 17.2043C28.5044 17.3672 28.4128 17.5883 28.4128 17.8187C28.4128 18.0492 28.5044 18.2702 28.6674 18.4332C28.8303 18.5961 29.0513 18.6877 29.2818 18.6877H31.8825C32.113 18.6877 32.334 18.5961 32.4969 18.4332C32.6599 18.2702 32.7515 18.0492 32.7515 17.8187C32.7515 17.5883 32.6599 17.3672 32.4969 17.2043C32.334 17.0413 32.113 16.9498 31.8825 16.9498Z" fill="black"/>
<path d="M26.6748 11.8638C26.8964 11.8636 27.1095 11.7788 27.2707 11.6267L29.1625 9.84529C29.3304 9.68742 29.4288 9.46932 29.4359 9.23896C29.443 9.0086 29.3583 8.78485 29.2004 8.61694C29.0425 8.44903 28.8244 8.35071 28.5941 8.34361C28.3637 8.33651 28.1399 8.42121 27.972 8.57908L26.0789 10.3617C25.952 10.481 25.8639 10.6357 25.826 10.8058C25.7881 10.9758 25.8022 11.1533 25.8664 11.3152C25.9306 11.4772 26.0421 11.616 26.1862 11.7139C26.3304 11.8117 26.5006 11.8639 26.6748 11.8638Z" fill="black"/>
<path d="M6.7185 16.9474H4.11781C3.88734 16.9474 3.66632 17.0389 3.50335 17.2019C3.34039 17.3649 3.24884 17.5859 3.24884 17.8164C3.24884 18.0468 3.34039 18.2678 3.50335 18.4308C3.66632 18.5938 3.88734 18.6853 4.11781 18.6853H6.7185C6.94896 18.6853 7.16998 18.5938 7.33295 18.4308C7.49591 18.2678 7.58746 18.0468 7.58746 17.8164C7.58746 17.5859 7.49591 17.3649 7.33295 17.2019C7.16998 17.0389 6.94896 16.9474 6.7185 16.9474Z" fill="black"/>
<path d="M8.7294 11.6242C8.81235 11.7031 8.91005 11.7647 9.0169 11.8057C9.12375 11.8467 9.23765 11.8662 9.35204 11.863C9.46644 11.8599 9.57909 11.8341 9.68352 11.7873C9.78795 11.7405 9.8821 11.6736 9.96057 11.5903C10.039 11.507 10.1003 11.409 10.1408 11.302C10.1813 11.1949 10.2003 11.0809 10.1966 10.9666C10.1929 10.8522 10.1667 10.7396 10.1194 10.6354C10.0722 10.5312 10.0048 10.4374 9.92113 10.3593L8.02803 8.57788C7.94581 8.49544 7.84786 8.43038 7.74001 8.38653C7.63215 8.34269 7.51658 8.32097 7.40017 8.32266C7.28376 8.32435 7.16887 8.34942 7.06233 8.39637C6.9558 8.44333 6.85978 8.51121 6.77999 8.596C6.7002 8.68078 6.63826 8.78073 6.59785 8.88992C6.55744 8.99911 6.53938 9.1153 6.54475 9.23161C6.55012 9.34791 6.5788 9.46195 6.6291 9.56695C6.6794 9.67195 6.75028 9.76577 6.83755 9.84284L8.7294 11.6242Z" fill="black"/>
</svg>
