<svg width="36" height="36" viewBox="0 0 36 36" fill="none" xmlns="http://www.w3.org/2000/svg">
<path d="M7.65078 18.7262L5.89174 17.5581C5.69963 17.4307 5.46478 17.3848 5.23884 17.4306C5.01291 17.4763 4.8144 17.6099 4.68698 17.802C4.55957 17.9941 4.51369 18.229 4.55943 18.4549C4.60518 18.6809 4.73881 18.8794 4.93091 19.0068L6.68995 20.1737C6.88189 20.2939 7.11319 20.3345 7.33458 20.2867C7.55597 20.2389 7.74995 20.1065 7.87521 19.9178C8.00047 19.7292 8.04711 19.499 8.00519 19.2764C7.96326 19.0539 7.8361 18.8564 7.65078 18.7262Z" fill="black"/>
<path d="M30.2723 19.6832H28.9192C28.6888 19.6832 28.4678 19.7748 28.3048 19.9377C28.1418 20.1007 28.0503 20.3217 28.0503 20.5522C28.0503 20.7827 28.1418 21.0037 28.3048 21.1666C28.4678 21.3296 28.6888 21.4212 28.9192 21.4212H30.2723C30.5028 21.4212 30.7238 21.3296 30.8868 21.1666C31.0498 21.0037 31.1413 20.7827 31.1413 20.5522C31.1413 20.3217 31.0498 20.1007 30.8868 19.9377C30.7238 19.7748 30.5028 19.6832 30.2723 19.6832Z" fill="black"/>
<path d="M28.8 13.258C28.0124 13.2567 27.2322 13.4098 26.5035 13.7086C25.7649 12.0734 24.5702 10.6861 23.0628 9.7129C21.5554 8.73973 19.7992 8.22211 18.005 8.22211C16.2107 8.22211 14.4546 8.73973 12.9472 9.7129C11.4398 10.6861 10.2451 12.0734 9.50651 13.7086C8.50969 13.3001 7.42198 13.1648 6.35547 13.3167C5.28895 13.4685 4.28222 13.902 3.43903 14.5725C2.59583 15.2429 1.94668 16.1261 1.55846 17.131C1.17025 18.1359 1.05702 19.2261 1.23045 20.2894C1.40387 21.3526 1.85768 22.3503 2.54509 23.1797C3.23251 24.0092 4.12867 24.6403 5.14122 25.0081C6.15377 25.3759 7.24607 25.467 8.30555 25.272C9.36504 25.0771 10.3534 24.6032 11.1687 23.8991C11.583 24.3471 12.0404 24.7534 12.5342 25.1119C12.6825 25.2198 12.8611 25.278 13.0444 25.2783H22.9519C23.1348 25.2778 23.3129 25.2196 23.4609 25.1119C23.9552 24.754 24.4126 24.3477 24.8264 23.8991C25.5656 24.538 26.4484 24.9887 27.3995 25.2126C28.3506 25.4365 29.3418 25.4271 30.2885 25.185C31.2351 24.943 32.1092 24.4755 32.8361 23.8226C33.563 23.1696 34.1211 22.3505 34.463 21.4352C34.8048 20.5198 34.9201 19.5353 34.7991 18.5657C34.6781 17.5961 34.3244 16.6702 33.7681 15.8669C33.2118 15.0636 32.4694 14.4068 31.6043 13.9525C30.7393 13.4983 29.7771 13.26 28.8 13.258ZM10.0279 22.5845C9.44578 23.0859 8.74042 23.4229 7.98459 23.5607C7.22876 23.6986 6.44984 23.6322 5.72822 23.3685C5.00659 23.1048 4.3684 22.6534 3.8795 22.0607C3.3906 21.468 3.06871 20.7556 2.94703 19.997C2.82535 19.2384 2.9083 18.4611 3.18732 17.7453C3.46634 17.0294 3.93132 16.401 4.53428 15.9249C5.13724 15.4487 5.85633 15.1421 6.61735 15.0366C7.37837 14.9312 8.15375 15.0307 8.86347 15.3249L8.93547 15.3522C8.64148 16.5649 8.59427 17.8244 8.79665 19.0557C8.99902 20.287 9.44686 21.4651 10.1135 22.5199C10.0837 22.5396 10.0551 22.5612 10.0279 22.5845ZM22.6639 23.5366H13.3362C11.8876 22.3999 10.8988 20.7779 10.5517 18.9696H11.1104C11.3408 18.9696 11.5619 18.878 11.7248 18.7151C11.8878 18.5521 11.9793 18.3311 11.9793 18.1006C11.9793 17.8701 11.8878 17.6491 11.7248 17.4862C11.5619 17.3232 11.3408 17.2316 11.1104 17.2316H10.4202C10.4513 16.4639 10.5995 15.7053 10.8596 14.9823L11.3636 15.269C11.4625 15.3293 11.5725 15.3691 11.687 15.3862C11.8016 15.4034 11.9184 15.3974 12.0306 15.3688C12.1428 15.3401 12.2481 15.2893 12.3404 15.2194C12.4327 15.1494 12.5101 15.0617 12.568 14.9614C12.626 14.8611 12.6632 14.7503 12.6777 14.6354C12.6922 14.5205 12.6835 14.4038 12.6523 14.2923C12.621 14.1808 12.5678 14.0767 12.4957 13.986C12.4236 13.8954 12.3342 13.82 12.2326 13.7645L11.6355 13.4194C12.0785 12.7394 12.6266 12.134 13.2592 11.6256L13.6664 12.3307C13.7219 12.4323 13.7973 12.5218 13.8879 12.5938C13.9786 12.6659 14.0827 12.7191 14.1942 12.7504C14.3057 12.7816 14.4224 12.7903 14.5373 12.7758C14.6522 12.7614 14.763 12.7241 14.8633 12.6661C14.9636 12.6082 15.0513 12.5308 15.1213 12.4385C15.1912 12.3462 15.242 12.2409 15.2707 12.1287C15.2993 12.0165 15.3053 11.8997 15.2881 11.7851C15.271 11.6706 15.2312 11.5606 15.1709 11.4617L14.7302 10.6995C15.4867 10.3386 16.2981 10.1066 17.1311 10.013V10.9403C17.1311 11.1708 17.2226 11.3918 17.3856 11.5548C17.5485 11.7177 17.7696 11.8093 18 11.8093C18.2305 11.8093 18.4515 11.7177 18.6145 11.5548C18.7774 11.3918 18.869 11.1708 18.869 10.9403V10.013C19.7017 10.1073 20.5127 10.3402 21.2686 10.702L20.8279 11.4642C20.7677 11.5631 20.7278 11.6731 20.7107 11.7876C20.6935 11.9021 20.6995 12.019 20.7281 12.1312C20.7568 12.2434 20.8076 12.3487 20.8775 12.441C20.9475 12.5333 21.0352 12.6107 21.1355 12.6686C21.2358 12.7265 21.3466 12.7638 21.4615 12.7783C21.5764 12.7928 21.6931 12.7841 21.8046 12.7529C21.9161 12.7216 22.0202 12.6684 22.1109 12.5963C22.2015 12.5242 22.2769 12.4348 22.3324 12.3332L22.7396 11.6281C23.3725 12.1361 23.9206 12.7416 24.3633 13.4219L23.7662 13.767C23.6674 13.824 23.5807 13.9 23.5112 13.9905C23.4417 14.0811 23.3907 14.1844 23.3611 14.2947C23.3315 14.405 23.324 14.52 23.3389 14.6331C23.3537 14.7463 23.3908 14.8555 23.4478 14.9543C23.5049 15.0532 23.5808 15.1399 23.6714 15.2094C23.7619 15.2789 23.8653 15.3299 23.9756 15.3595C24.0858 15.389 24.2008 15.3966 24.314 15.3817C24.4272 15.3668 24.5363 15.3298 24.6352 15.2727L25.1392 14.981C25.3996 15.704 25.5482 16.4626 25.5799 17.2304H24.8909C24.6605 17.2304 24.4394 17.322 24.2765 17.4849C24.1135 17.6479 24.022 17.8689 24.022 18.0994C24.022 18.3298 24.1135 18.5509 24.2765 18.7138C24.4394 18.8768 24.6605 18.9683 24.8909 18.9683H25.4483C25.1023 20.7774 24.1133 22.4001 22.6639 23.5366ZM28.7951 23.6359C27.7584 23.6358 26.7563 23.2626 25.9722 22.5845C25.9452 22.5615 25.917 22.5399 25.8877 22.5199C26.5534 21.4644 27.0004 20.286 27.2021 19.0546C27.4039 17.8231 27.3562 16.5637 27.0621 15.351C27.0865 15.3436 27.1106 15.3349 27.1341 15.3249C27.724 15.0821 28.3604 14.9729 28.9976 15.0052C29.6347 15.0375 30.2568 15.2105 30.8192 15.5117C31.3815 15.813 31.8702 16.235 32.2502 16.7475C32.6301 17.26 32.8918 17.8502 33.0166 18.4759C33.1413 19.1015 33.126 19.747 32.9717 20.366C32.8174 20.9851 32.528 21.5622 32.1241 22.0561C31.7203 22.55 31.2122 22.9484 30.6362 23.2226C30.0601 23.4968 29.4305 23.6401 28.7926 23.6421L28.7951 23.6359Z" fill="black"/>
<path d="M30.2723 17.2068H28.9192C28.6888 17.2068 28.4678 17.2983 28.3048 17.4613C28.1418 17.6243 28.0503 17.8453 28.0503 18.0758C28.0503 18.3062 28.1418 18.5272 28.3048 18.6902C28.4678 18.8532 28.6888 18.9447 28.9192 18.9447H30.2723C30.5028 18.9447 30.7238 18.8532 30.8868 18.6902C31.0498 18.5272 31.1413 18.3062 31.1413 18.0758C31.1413 17.8453 31.0498 17.6243 30.8868 17.4613C30.7238 17.2983 30.5028 17.2068 30.2723 17.2068Z" fill="black"/>
<path d="M20.4158 14.0809L19.3234 15.1063C19.2442 15.1571 19.1748 15.2219 19.1186 15.2975L17.1324 17.1595C16.9643 17.3172 16.8658 17.5353 16.8584 17.7656C16.8511 17.996 16.9356 18.2198 17.0933 18.3879C17.251 18.556 17.469 18.6545 17.6994 18.6618C17.9297 18.6692 18.1536 18.5847 18.3216 18.427L19.6288 17.2005C19.7439 17.5748 19.7458 17.9748 19.6342 18.3501C19.5227 18.7255 19.3026 19.0595 19.0018 19.3102C18.701 19.5609 18.3327 19.717 17.9434 19.759C17.5541 19.801 17.161 19.727 16.8136 19.5463C16.4662 19.3655 16.18 19.0861 15.9909 18.7432C15.8019 18.4003 15.7184 18.0091 15.751 17.6189C15.7836 17.2287 15.9309 16.8568 16.1742 16.55C16.4176 16.2432 16.7462 16.0152 17.1187 15.8946C17.3382 15.824 17.5206 15.6691 17.6258 15.464C17.731 15.2589 17.7505 15.0204 17.6798 14.8009C17.6092 14.5815 17.4543 14.3991 17.2492 14.2939C17.0441 14.1886 16.8056 14.1692 16.5862 14.2398C15.7378 14.5113 15.0145 15.0773 14.547 15.8356C14.0795 16.5938 13.8987 17.4943 14.0372 18.3742C14.1757 19.2542 14.6245 20.0556 15.3023 20.6335C15.9802 21.2114 16.8424 21.5278 17.7332 21.5255C18.3868 21.5264 19.029 21.3552 19.5955 21.0293C20.162 20.7034 20.6327 20.2341 20.9604 19.6687C21.2881 19.1032 21.4612 18.4615 21.4624 17.808C21.4635 17.1544 21.2927 16.5121 20.967 15.9455L21.6038 15.3471C21.7641 15.1878 21.856 14.9722 21.86 14.7462C21.8639 14.5203 21.7797 14.3016 21.6251 14.1367C21.4706 13.9718 21.2578 13.8736 21.032 13.863C20.8063 13.8523 20.5852 13.9301 20.4158 14.0797V14.0809Z" fill="black"/>
</svg>
