<svg width="36" height="36" viewBox="0 0 36 36" fill="none" xmlns="http://www.w3.org/2000/svg">
<path d="M29.0347 9.99319H21.3381L19.1831 7.84064C19.0426 7.69975 18.8756 7.58807 18.6917 7.51201C18.5079 7.43595 18.3108 7.39702 18.1118 7.39746H12.1532C11.5806 7.3991 11.0319 7.62737 10.6272 8.03236C10.2224 8.43736 9.99448 8.98613 9.99317 9.55871V12.5877H6.96544C6.39157 12.588 5.84128 12.816 5.43538 13.2217C5.02948 13.6274 4.80113 14.1775 4.80048 14.7514V26.4415C4.80113 27.0153 5.02948 27.5655 5.43538 27.9712C5.84128 28.3768 6.39157 28.6049 6.96544 28.6052H23.8482C24.421 28.6032 24.9697 28.3745 25.3743 27.969C25.7788 27.5635 26.0063 27.0143 26.007 26.4415V23.4125H29.0347C29.6087 23.4118 30.159 23.1835 30.5648 22.7777C30.9707 22.3718 31.199 21.8215 31.1996 21.2475V12.1582C31.199 11.5842 30.9707 11.0339 30.5648 10.628C30.159 10.2222 29.6087 9.99385 29.0347 9.99319ZM29.4667 12.1582V21.2451C29.4667 21.3596 29.4212 21.4695 29.3402 21.5505C29.2591 21.6315 29.1493 21.677 29.0347 21.677H12.1581C12.0436 21.677 11.9337 21.6315 11.8527 21.5505C11.7716 21.4695 11.7261 21.3596 11.7261 21.2451V9.55871C11.7261 9.50197 11.7373 9.4458 11.759 9.39339C11.7807 9.34097 11.8125 9.29335 11.8527 9.25324C11.8928 9.21312 11.9404 9.1813 11.9928 9.15959C12.0452 9.13788 12.1014 9.12671 12.1581 9.12671H18.0212L20.1737 11.2793C20.314 11.4205 20.4809 11.5326 20.6648 11.6088C20.8487 11.6851 21.0459 11.7242 21.245 11.7237H29.0347C29.0916 11.7237 29.148 11.7349 29.2006 11.7568C29.2532 11.7787 29.3009 11.8107 29.341 11.8511C29.3812 11.8915 29.413 11.9394 29.4345 11.9921C29.4561 12.0448 29.467 12.1012 29.4667 12.1582ZM6.53344 14.7539C6.53377 14.6395 6.57943 14.53 6.66041 14.4492C6.74139 14.3685 6.85108 14.3231 6.96544 14.3231H9.99317V21.2451C9.99382 21.819 10.2221 22.3693 10.628 22.7752C11.0339 23.1811 11.5841 23.4094 12.1581 23.41H24.274V26.4415C24.274 26.556 24.2285 26.6659 24.1475 26.7469C24.0664 26.828 23.9566 26.8735 23.842 26.8735H6.96544C6.85087 26.8735 6.74099 26.828 6.65997 26.7469C6.57896 26.6659 6.53344 26.556 6.53344 26.4415V14.7539Z" fill="black"/>
</svg>
