<svg width="36" height="36" viewBox="0 0 36 36" fill="none" xmlns="http://www.w3.org/2000/svg">
<path d="M29.3971 17.3236C29.3699 16.7862 29.3043 16.2515 29.201 15.7235L29.1625 15.5323C29.1427 15.4363 29.0859 15.3519 29.0043 15.2975C28.9227 15.2432 28.823 15.2231 28.7268 15.2418L27.8578 15.4591L27.4854 15.5534L26.635 15.7657C26.5411 15.7944 26.4624 15.859 26.4159 15.9455C26.3694 16.032 26.3589 16.1333 26.3868 16.2275L26.4215 16.4199C26.4847 16.7666 26.5262 17.1169 26.5457 17.4688C26.6521 19.4273 26.0664 21.3608 24.8909 22.9309L24.7668 23.0898C24.6995 23.164 24.6635 23.2614 24.6662 23.3616C24.669 23.4617 24.7104 23.5569 24.7817 23.6273L25.457 24.2095L25.7413 24.4578L26.4104 25.035C26.4502 25.0649 26.4956 25.0865 26.544 25.0985C26.5923 25.1105 26.6425 25.1127 26.6917 25.1049C26.7409 25.0972 26.788 25.0796 26.8303 25.0533C26.8726 25.0271 26.9092 24.9925 26.9379 24.9519L27.0621 24.7979C28.7144 22.6686 29.5435 20.0149 29.3971 17.3236Z" fill="black"/>
<path d="M19.7267 15.0927L20.9445 10.7925C21.0034 10.572 20.9731 10.3372 20.8603 10.1388C20.7474 9.94042 20.5611 9.79439 20.3414 9.73227C20.1218 9.67015 19.8866 9.69693 19.6865 9.80682C19.4865 9.91671 19.3377 10.1009 19.2724 10.3196L18.0546 14.6185H18C17.1801 14.6176 16.3877 14.9142 15.7699 15.4532C15.1521 15.9923 14.7509 16.7371 14.6406 17.5496C14.5304 18.362 14.7186 19.1869 15.1704 19.871C15.6222 20.5552 16.3069 21.0523 17.0974 21.2699C17.8878 21.4876 18.7304 21.411 19.4688 21.0546C20.2071 20.6981 20.791 20.0858 21.1122 19.3315C21.4334 18.5771 21.4699 17.7318 21.2152 16.9525C20.9604 16.1732 20.4315 15.5128 19.7267 15.0939V15.0927ZM18 19.6448C17.6009 19.649 17.2139 19.5079 16.9112 19.2477C16.6086 18.9876 16.4109 18.6262 16.3551 18.231C16.2993 17.8358 16.3893 17.4339 16.6081 17.1001C16.8269 16.7664 17.1597 16.5236 17.5444 16.4172L17.2266 17.5345C17.1637 17.7562 17.1915 17.9938 17.3038 18.1951C17.4161 18.3964 17.6038 18.5447 17.8255 18.6076C18.0473 18.6705 18.2849 18.6427 18.4862 18.5304C18.6874 18.4181 18.8358 18.2304 18.8987 18.0087L19.2153 16.8914C19.4319 17.1264 19.5752 17.4196 19.6276 17.7349C19.6799 18.0502 19.639 18.374 19.51 18.6664C19.3809 18.9588 19.1692 19.2072 18.901 19.381C18.6328 19.5548 18.3196 19.6465 18 19.6448Z" fill="black"/>
<path d="M30.389 10.913L30.3716 10.8758C30.3557 10.8476 30.3383 10.8202 30.3195 10.7938C28.4223 7.5457 25.3188 5.17849 21.6846 4.20758C18.0504 3.23667 14.1799 3.74066 10.9155 5.60984C10.8987 5.61687 10.8826 5.62517 10.8671 5.63467C10.8405 5.64935 10.8148 5.66551 10.7901 5.68308C8.67943 6.92637 6.92081 8.68756 5.68059 10.8001C5.66178 10.8264 5.64438 10.8538 5.62845 10.882L5.61108 10.9192C4.52389 12.8181 3.88774 14.9415 3.75177 17.1253C3.61581 19.3092 3.98366 21.4951 4.82692 23.5142C5.67017 25.5332 6.96627 27.3314 8.61508 28.7699C10.2639 30.2083 12.2213 31.2485 14.3361 31.8101C16.4509 32.3717 18.6665 32.4396 20.8117 32.0087C22.9569 31.5778 24.9744 30.6595 26.7082 29.3247C28.4421 27.99 29.8459 26.2746 30.8113 24.311C31.7767 22.3474 32.2778 20.1881 32.2759 18.0001C32.2791 15.5131 31.6284 13.0691 30.389 10.913ZM21.4511 28.6201C21.4508 28.7622 21.3941 28.8984 21.2936 28.9989C21.1931 29.0994 21.0569 29.156 20.9148 29.1563H15.0791C14.9369 29.156 14.8007 29.0994 14.7002 28.9989C14.5997 28.8984 14.5431 28.7622 14.5428 28.6201V26.0616C14.5431 25.9195 14.5997 25.7832 14.7002 25.6827C14.8007 25.5822 14.9369 25.5256 15.0791 25.5253H20.921C21.0631 25.5256 21.1994 25.5822 21.2999 25.6827C21.4004 25.7832 21.457 25.9195 21.4573 26.0616L21.4511 28.6201ZM24.9989 28.3941C24.9908 28.3714 24.9808 28.3494 24.9691 28.3283L22.6565 24.4366C22.5665 24.3023 22.4465 24.1907 22.3061 24.1105C22.1656 24.0304 22.0085 23.9839 21.8471 23.9748H14.3169C14.1544 23.9842 13.9962 24.0298 13.8537 24.1085C13.7113 24.1871 13.5883 24.2967 13.4938 24.4292L11.0272 28.337C11.016 28.3556 11.0064 28.3751 10.9987 28.3954C9.75801 27.556 8.67613 26.5031 7.80335 25.2857L10.3035 23.9065C10.4061 23.8529 10.497 23.7793 10.5707 23.69C10.6445 23.6007 10.6997 23.4976 10.733 23.3867C10.7664 23.2758 10.7772 23.1594 10.7649 23.0442C10.7526 22.9291 10.7174 22.8175 10.6614 22.7162C10.6054 22.6148 10.5297 22.5257 10.4387 22.454C10.3478 22.3823 10.2434 22.3295 10.1318 22.2988C10.0201 22.268 9.90346 22.2598 9.78863 22.2748C9.6738 22.2898 9.56311 22.3275 9.46308 22.3859L6.8897 23.8048C6.14629 22.3888 5.68267 20.8428 5.52418 19.2514H8.44142C8.67189 19.2514 8.89291 19.1598 9.05587 18.9969C9.21883 18.8339 9.31039 18.6129 9.31039 18.3824C9.31039 18.1519 9.21883 17.9309 9.05587 17.768C8.89291 17.605 8.67189 17.5134 8.44142 17.5134H5.47204C5.53816 15.7667 5.97083 14.0533 6.74197 12.4846L9.05466 13.7632C9.1547 13.8216 9.26538 13.8593 9.38022 13.8743C9.49505 13.8892 9.61172 13.8811 9.72336 13.8503C9.835 13.8195 9.93936 13.7668 10.0303 13.6951C10.1213 13.6234 10.197 13.5343 10.253 13.4329C10.309 13.3316 10.3442 13.22 10.3565 13.1049C10.3688 12.9897 10.3579 12.8733 10.3246 12.7624C10.2913 12.6515 10.2361 12.5484 10.1623 12.4591C10.0886 12.3698 9.9977 12.2962 9.89508 12.2425L7.6159 10.9813C8.51676 9.653 9.66225 8.50834 10.9912 7.60846L12.2475 9.81564C12.304 9.91484 12.3794 10.0019 12.4696 10.072C12.5597 10.142 12.6628 10.1936 12.7729 10.2238C12.883 10.254 12.9979 10.2622 13.1112 10.248C13.2245 10.2338 13.3338 10.1974 13.433 10.1409C13.5322 10.0844 13.6193 10.0089 13.6893 9.91877C13.7594 9.82863 13.811 9.72557 13.8412 9.61548C13.8714 9.5054 13.8796 9.39044 13.8654 9.27718C13.8511 9.16391 13.8147 9.05456 13.7582 8.95536L12.4945 6.73702C13.9449 6.02648 15.5197 5.60486 17.1311 5.49564V7.91757C17.1311 8.14803 17.2226 8.36906 17.3856 8.53202C17.5486 8.69498 17.7696 8.78653 18 8.78653C18.2305 8.78653 18.4515 8.69498 18.6145 8.53202C18.7775 8.36906 18.869 8.14803 18.869 7.91757V5.49315C20.5774 5.60962 22.2433 6.07745 23.7625 6.86736L22.4901 9.10185C22.433 9.20108 22.3961 9.31061 22.3815 9.42414C22.3669 9.53768 22.3749 9.65298 22.405 9.76343C22.4351 9.87388 22.4867 9.9773 22.5568 10.0677C22.627 10.1582 22.7144 10.2339 22.8139 10.2905C22.9134 10.347 23.0231 10.3834 23.1367 10.3975C23.2503 10.4115 23.3656 10.403 23.4759 10.3724C23.5862 10.3417 23.6893 10.2896 23.7794 10.219C23.8695 10.1484 23.9448 10.0607 24.0009 9.96088L25.2423 7.77109C26.4713 8.64453 27.5342 9.7309 28.3805 10.9788L26.105 12.2425C25.9089 12.3569 25.7654 12.5434 25.7051 12.7623C25.6447 12.9811 25.6724 13.2148 25.7822 13.4135C25.892 13.6122 26.0752 13.76 26.2926 13.8253C26.51 13.8907 26.7443 13.8684 26.9454 13.7632L29.2581 12.4846C30.5911 15.2027 30.8948 18.3116 30.113 21.2364C29.3311 24.1611 27.5167 26.7037 25.0051 28.3941H24.9989Z" fill="black"/>
</svg>
