<svg width="36" height="36" viewBox="0 0 36 36" fill="none" xmlns="http://www.w3.org/2000/svg">
<path d="M21.1617 15.6316C21.7047 15.6316 22.1449 15.1914 22.1449 14.6484C22.1449 14.1055 21.7047 13.6653 21.1617 13.6653C20.6188 13.6653 20.1786 14.1055 20.1786 14.6484C20.1786 15.1914 20.6188 15.6316 21.1617 15.6316Z" fill="black"/>
<path d="M30.7366 17.8089C30.1842 17.8092 29.642 17.9571 29.1658 18.237C28.6896 18.517 28.2968 18.919 28.0279 19.4015L25.3676 18.7933V11.7385C25.367 11.4451 25.2501 11.164 25.0425 10.9567C24.835 10.7494 24.5537 10.6328 24.2603 10.6324H22.6565L24.2926 7.36141C24.3671 7.36762 24.4428 7.37258 24.5185 7.37258C25.0798 7.37451 25.6247 7.183 26.0613 6.8303C26.4979 6.4776 26.7997 5.98523 26.9159 5.43608C27.032 4.88693 26.9554 4.31454 26.699 3.81524C26.4426 3.31595 26.0219 2.92025 25.5079 2.69474C24.9939 2.46924 24.4179 2.4277 23.8769 2.57713C23.3358 2.72656 22.8628 3.05782 22.5374 3.51516C22.212 3.9725 22.0541 4.52798 22.0902 5.08811C22.1264 5.64824 22.3544 6.17881 22.7359 6.59051L20.7137 10.6324H16.179L15.3249 8.34086C15.8605 7.92081 16.2299 7.32449 16.3674 6.65785C16.5049 5.9912 16.4016 5.29739 16.0759 4.6997C15.7502 4.102 15.2232 3.63912 14.5884 3.39329C13.9537 3.14746 13.2523 3.13459 12.609 3.35699C11.9657 3.57938 11.422 4.02263 11.0746 4.60798C10.7273 5.19334 10.5986 5.88289 10.7116 6.55413C10.8245 7.22537 11.1718 7.83483 11.6916 8.27423C12.2115 8.71363 12.8703 8.95452 13.551 8.9541C13.6006 8.9541 13.649 8.9541 13.6974 8.9541L14.3181 10.6362H11.7398C11.4464 10.6365 11.1652 10.7531 10.9576 10.9604C10.7501 11.1677 10.6331 11.4489 10.6325 11.7422V19.4648L6.67125 20.7373C6.31615 20.2931 5.81668 19.9873 5.25959 19.873C4.7025 19.7588 4.12298 19.8432 3.62171 20.1118C3.12043 20.3804 2.72906 20.816 2.51558 21.3431C2.30211 21.8702 2.28001 22.4555 2.45312 22.9972C2.62624 23.5389 2.98363 24.0028 3.46323 24.3084C3.94282 24.614 4.51431 24.742 5.07843 24.6701C5.64256 24.5982 6.16367 24.3309 6.55125 23.9148C6.93883 23.4986 7.1684 22.9598 7.20007 22.392L10.6288 21.2872V24.2665C10.6291 24.5601 10.7459 24.8415 10.9534 25.0491C11.161 25.2567 11.4425 25.3735 11.7361 25.3738H17.9045L18.1242 27.4345C17.6173 27.6913 17.2163 28.1175 16.9907 28.639C16.7652 29.1606 16.7293 29.7446 16.8892 30.2899C17.0492 30.8351 17.395 31.3072 17.8666 31.6242C18.3382 31.9412 18.9059 32.0831 19.4712 32.0254C20.0365 31.9677 20.5637 31.7139 20.9615 31.3081C21.3593 30.9023 21.6025 30.3701 21.6489 29.8037C21.6953 29.2374 21.5421 28.6726 21.2157 28.2075C20.8894 27.7423 20.4105 27.406 19.8621 27.257L19.661 25.3676H24.2665C24.5601 25.3673 24.8416 25.2505 25.0492 25.0429C25.2568 24.8353 25.3735 24.5539 25.3738 24.2603V20.5759L27.6456 21.096C27.6814 21.701 27.8937 22.2822 28.256 22.7679C28.6184 23.2537 29.115 23.6227 29.6846 23.8295C30.2543 24.0363 30.872 24.0717 31.4616 23.9315C32.0511 23.7913 32.5867 23.4816 33.0023 23.0405C33.4179 22.5995 33.6953 22.0464 33.8002 21.4495C33.9051 20.8527 33.8329 20.2381 33.5927 19.6818C33.3524 19.1255 32.9545 18.6516 32.448 18.3188C31.9416 17.986 31.3488 17.8087 30.7428 17.8089H30.7366ZM24.5185 4.24431C24.656 4.24431 24.7904 4.28508 24.9048 4.36147C25.0191 4.43785 25.1082 4.54642 25.1608 4.67345C25.2134 4.80048 25.2272 4.94025 25.2004 5.0751C25.1735 5.20995 25.1073 5.33382 25.0101 5.43104C24.9129 5.52826 24.789 5.59447 24.6542 5.6213C24.5193 5.64812 24.3795 5.63435 24.2525 5.58174C24.1255 5.52912 24.0169 5.44002 23.9405 5.3257C23.8641 5.21138 23.8234 5.07697 23.8234 4.93948C23.8234 4.75511 23.8966 4.57829 24.027 4.44792C24.1574 4.31755 24.3342 4.24431 24.5185 4.24431ZM4.78063 22.9556C4.64308 22.9556 4.50863 22.9148 4.39428 22.8384C4.27993 22.7619 4.19083 22.6533 4.13825 22.5262C4.08567 22.3991 4.07198 22.2592 4.0989 22.1244C4.12583 21.9895 4.19216 21.8656 4.28951 21.7684C4.38685 21.6713 4.51084 21.6051 4.64577 21.5785C4.7807 21.5518 4.92051 21.5657 5.04752 21.6185C5.17452 21.6713 5.28301 21.7606 5.35925 21.8751C5.43548 21.9896 5.47604 22.1241 5.4758 22.2617C5.47564 22.3532 5.45741 22.4437 5.42217 22.5282C5.38693 22.6126 5.33536 22.6893 5.27043 22.7538C5.2055 22.8182 5.12848 22.8692 5.04379 22.9039C4.9591 22.9385 4.8684 22.9561 4.7769 22.9556H4.78063ZM13.551 7.21617C13.3068 7.21721 13.0686 7.14028 12.8712 6.99658C12.6737 6.85289 12.5273 6.64993 12.4532 6.41724C12.379 6.18456 12.3811 5.93429 12.4591 5.70287C12.5371 5.47146 12.6869 5.27097 12.8867 5.13058C13.0865 4.9902 13.3259 4.91725 13.5701 4.92236C13.8142 4.92747 14.0504 5.01037 14.2442 5.15898C14.4379 5.3076 14.5792 5.51418 14.6474 5.74866C14.7157 5.98314 14.7073 6.23327 14.6235 6.46265C14.5448 6.68388 14.3994 6.87521 14.2072 7.01019C14.0151 7.14517 13.7858 7.21715 13.551 7.21617ZM19.9254 29.6057C19.9254 29.7432 19.8847 29.8776 19.8083 29.9919C19.7319 30.1062 19.6233 30.1953 19.4963 30.2479C19.3693 30.3005 19.2295 30.3143 19.0946 30.2875C18.9598 30.2607 18.8359 30.1944 18.7387 30.0972C18.6415 30 18.5753 29.8761 18.5485 29.7413C18.5216 29.6064 18.5354 29.4667 18.588 29.3396C18.6406 29.2126 18.7297 29.104 18.8441 29.0277C18.9584 28.9513 19.0928 28.9105 19.2303 28.9105C19.4146 28.9105 19.5915 28.9837 19.7218 29.1141C19.8522 29.2445 19.9254 29.4213 19.9254 29.6057ZM23.6409 23.6408H12.3592V12.358H23.6409V23.6408ZM30.7366 22.2753C30.4665 22.2753 30.2025 22.1952 29.978 22.0452C29.7534 21.8952 29.5784 21.6819 29.475 21.4324C29.3717 21.1829 29.3446 20.9083 29.3973 20.6434C29.45 20.3785 29.5801 20.1352 29.771 19.9442C29.962 19.7533 30.2053 19.6232 30.4702 19.5705C30.7351 19.5178 31.0097 19.5449 31.2592 19.6482C31.5087 19.7516 31.7219 19.9266 31.872 20.1512C32.022 20.3757 32.1021 20.6397 32.1021 20.9098C32.1024 21.0893 32.0674 21.2672 31.9989 21.4331C31.9304 21.5991 31.8299 21.7499 31.7031 21.877C31.5762 22.004 31.4256 22.1048 31.2597 22.1736C31.0939 22.2424 30.9161 22.2778 30.7366 22.2778V22.2753Z" fill="black"/>
</svg>
