<svg width="36" height="36" viewBox="0 0 36 36" fill="none" xmlns="http://www.w3.org/2000/svg">
<path d="M17.3024 14.7848H17.6003C17.6834 14.7849 17.7664 14.7787 17.8486 14.7662C17.9261 14.7559 18.0012 14.7324 18.0708 14.6967C18.1366 14.663 18.1923 14.6125 18.2322 14.5502C18.276 14.4751 18.2971 14.3888 18.293 14.302C18.2938 14.2398 18.2802 14.1783 18.2533 14.1223C18.2264 14.0664 18.1869 14.0174 18.1378 13.9792C18.0297 13.8946 17.8952 13.8506 17.758 13.8551C17.6358 13.8496 17.5155 13.8867 17.4177 13.96C17.3199 14.0334 17.2506 14.1385 17.2217 14.2573L16.2186 14.05C16.2607 13.8783 16.3348 13.7161 16.4371 13.572C16.5313 13.4442 16.6493 13.3359 16.7847 13.253C16.9232 13.17 17.0741 13.1097 17.2316 13.0742C17.4022 13.0348 17.5767 13.0152 17.7517 13.0159C17.9374 13.0153 18.1223 13.0391 18.3017 13.0866C18.4695 13.1288 18.6276 13.203 18.7672 13.3051C18.9004 13.4035 19.0095 13.5308 19.0862 13.6775C19.171 13.843 19.2136 14.0267 19.2104 14.2126C19.2177 14.4346 19.1513 14.6529 19.0217 14.8333C18.8881 15.009 18.6921 15.1268 18.4742 15.1622V15.1808C18.5958 15.1943 18.713 15.2337 18.8181 15.2963C18.9138 15.3556 18.9979 15.4317 19.0664 15.521C19.1361 15.6125 19.1895 15.7154 19.224 15.8251C19.2616 15.941 19.2804 16.0621 19.2799 16.1839C19.2843 16.3798 19.2418 16.5739 19.1558 16.7499C19.0759 16.908 18.9618 17.0462 18.8218 17.1546C18.6733 17.2658 18.5047 17.3472 18.3253 17.3942C18.13 17.4483 17.9283 17.475 17.7257 17.4737C17.3756 17.4829 17.0304 17.3897 16.7326 17.2055C16.5888 17.1086 16.466 16.9839 16.3713 16.8387C16.2766 16.6935 16.2121 16.5308 16.1814 16.3602L17.1435 16.1355C17.168 16.2753 17.2373 16.4034 17.3409 16.5004C17.466 16.5983 17.6231 16.6461 17.7815 16.6345C17.8618 16.6412 17.9425 16.6308 18.0185 16.604C18.0944 16.5773 18.1639 16.5348 18.2222 16.4793C18.3197 16.37 18.3709 16.2272 18.365 16.0808C18.3713 15.9808 18.3447 15.8814 18.2893 15.7978C18.2385 15.7309 18.1702 15.6793 18.0919 15.6488C18.0045 15.615 17.9123 15.5953 17.8188 15.5905C17.717 15.5843 17.6152 15.5818 17.5146 15.5818H17.3011L17.3024 14.7848Z" fill="black"/>
<path d="M21.3356 14.6271C21.3841 14.6147 21.4325 14.6047 21.4809 14.596C21.5314 14.588 21.5824 14.5839 21.6336 14.5836C21.8238 14.5815 22.0124 14.6191 22.1872 14.6941C22.3484 14.7626 22.4934 14.8641 22.613 14.992C22.7327 15.1215 22.8255 15.2734 22.8861 15.4389C22.9517 15.6148 22.9849 15.8011 22.9842 15.9889C22.9877 16.1903 22.9479 16.3902 22.8676 16.575C22.7873 16.7598 22.6683 16.9252 22.5187 17.0602C22.3694 17.1927 22.1957 17.2948 22.0072 17.3606C21.5985 17.503 21.1535 17.503 20.7448 17.3606C20.5578 17.2939 20.3855 17.1919 20.237 17.0602C20.0874 16.9252 19.9684 16.7598 19.8881 16.575C19.8078 16.3902 19.7681 16.1903 19.7715 15.9889C19.7705 15.847 19.785 15.7055 19.815 15.5668C19.8423 15.4431 19.8796 15.3219 19.9267 15.2043C19.9732 15.0918 20.0284 14.983 20.0918 14.8791C20.1539 14.776 20.2159 14.6693 20.2892 14.56L21.2276 13.0878H22.3449L21.3356 14.6271ZM22.0718 15.9529C22.0744 15.8633 22.0587 15.7742 22.0256 15.6909C21.9926 15.6076 21.9428 15.532 21.8794 15.4687C21.7413 15.3456 21.5628 15.2776 21.3779 15.2776C21.1929 15.2776 21.0144 15.3456 20.8763 15.4687C20.7528 15.5994 20.684 15.7724 20.684 15.9522C20.684 16.1321 20.7528 16.3051 20.8763 16.4358C21.0135 16.5607 21.1923 16.6299 21.3779 16.6299C21.5634 16.6299 21.7422 16.5607 21.8794 16.4358C21.9429 16.3728 21.9927 16.2974 22.0258 16.2143C22.0589 16.1312 22.0746 16.0422 22.0718 15.9529Z" fill="black"/>
<path d="M23.3913 15.2416C23.392 14.9802 23.4153 14.7194 23.4608 14.462C23.5034 14.2108 23.5873 13.9683 23.7091 13.7445C23.8271 13.5316 23.9954 13.3509 24.1994 13.2181C24.4416 13.0846 24.7136 13.0145 24.9902 13.0145C25.2667 13.0145 25.5388 13.0846 25.7809 13.2181C25.9845 13.351 26.1524 13.5317 26.2701 13.7445C26.3919 13.9683 26.4757 14.2108 26.5183 14.462C26.611 14.9772 26.611 15.5048 26.5183 16.0199C26.4757 16.2712 26.3919 16.5136 26.2701 16.7374C26.1524 16.9502 25.9845 17.1309 25.7809 17.2638C25.5388 17.3973 25.2667 17.4674 24.9902 17.4674C24.7136 17.4674 24.4416 17.3973 24.1994 17.2638C23.9954 17.131 23.8271 16.9503 23.7091 16.7374C23.5873 16.5136 23.5034 16.2712 23.4608 16.0199C23.4153 15.763 23.3921 15.5025 23.3913 15.2416ZM24.3037 15.2416C24.3037 15.3545 24.3037 15.4899 24.3186 15.6488C24.3279 15.8033 24.3554 15.9562 24.4005 16.1043C24.44 16.242 24.5096 16.3692 24.6041 16.4768C24.7082 16.5749 24.8459 16.6295 24.989 16.6295C25.132 16.6295 25.2697 16.5749 25.3738 16.4768C25.4704 16.3701 25.5413 16.2427 25.5811 16.1043C25.6262 15.9562 25.6537 15.8033 25.663 15.6488C25.6729 15.4899 25.6779 15.3545 25.6779 15.2416C25.6779 15.1286 25.6779 14.9933 25.663 14.8332C25.6537 14.6786 25.6262 14.5257 25.5811 14.3776C25.541 14.2394 25.4701 14.112 25.3738 14.0052C25.2697 13.907 25.132 13.8524 24.989 13.8524C24.8459 13.8524 24.7082 13.907 24.6041 14.0052C24.5098 14.1129 24.4403 14.24 24.4005 14.3776C24.3554 14.5257 24.3279 14.6786 24.3186 14.8332C24.3087 14.9921 24.3037 15.1274 24.3037 15.2416Z" fill="black"/>
<path d="M27.5822 14.0796C27.4921 14.08 27.4028 14.0614 27.3203 14.025C27.2414 13.9892 27.1695 13.9396 27.108 13.8785C27.0467 13.8168 26.997 13.7445 26.9616 13.665C26.9256 13.5826 26.907 13.4936 26.907 13.4037C26.907 13.3138 26.9256 13.2248 26.9616 13.1424C26.9974 13.0635 27.047 12.9916 27.108 12.9301C27.1692 12.8686 27.2411 12.819 27.3203 12.7836C27.4029 12.7476 27.4921 12.729 27.5822 12.729C27.6724 12.729 27.7615 12.7476 27.8442 12.7836C27.9233 12.819 27.9953 12.8686 28.0564 12.9301C28.1175 12.9916 28.1671 13.0635 28.2029 13.1424C28.2389 13.2248 28.2575 13.3138 28.2575 13.4037C28.2575 13.4936 28.2389 13.5826 28.2029 13.665C28.1671 13.7446 28.117 13.8169 28.0552 13.8785C27.9943 13.9403 27.9228 13.9908 27.8442 14.0275C27.7615 14.063 27.6722 14.0808 27.5822 14.0796ZM27.2719 13.4043C27.2718 13.4554 27.2843 13.5058 27.3083 13.5509C27.3324 13.596 27.3672 13.6345 27.4097 13.6629C27.4522 13.6914 27.501 13.7088 27.5519 13.7138C27.6028 13.7188 27.6541 13.7112 27.7013 13.6916C27.7485 13.672 27.7902 13.641 27.8225 13.6014C27.8549 13.5618 27.8769 13.5149 27.8868 13.4647C27.8966 13.4145 27.8939 13.3627 27.8789 13.3138C27.8639 13.265 27.837 13.2206 27.8007 13.1846C27.7428 13.1267 27.6642 13.0941 27.5822 13.0941C27.5003 13.0941 27.4217 13.1267 27.3638 13.1846C27.334 13.2133 27.3104 13.2479 27.2946 13.2861C27.2788 13.3243 27.2711 13.3654 27.2719 13.4068V13.4043Z" fill="black"/>
<path d="M32.2188 17.6275C32.2188 16.8702 31.8935 15.7381 30.3406 14.6481C30.1521 14.5155 29.9186 14.4631 29.6915 14.5026C29.4644 14.542 29.2623 14.6701 29.1296 14.8586C28.9969 15.0471 28.9445 15.2805 28.984 15.5076C29.0235 15.7347 29.1515 15.9368 29.34 16.0695C29.8601 16.4419 30.4808 17.0043 30.4808 17.6312C30.4808 19.3219 25.7201 21.6806 17.9652 21.6806C16.6817 21.6826 15.399 21.6134 14.1232 21.4733C13.9819 20.1962 13.9123 18.9123 13.9146 17.6275C13.9146 9.87256 16.2732 5.11063 17.9652 5.11063C18.8504 5.11063 19.872 6.39918 20.6317 8.47229C20.856 9.09133 21.0466 9.72205 21.2028 10.3617C21.2582 10.5854 21.4003 10.7779 21.5977 10.8969C21.6955 10.9558 21.8039 10.9948 21.9167 11.0118C22.0296 11.0289 22.1447 11.0235 22.2555 10.996C22.3662 10.9685 22.4705 10.9195 22.5623 10.8518C22.6542 10.784 22.7317 10.6988 22.7906 10.601C22.8496 10.5033 22.8886 10.3949 22.9056 10.282C22.9226 10.1692 22.9173 10.0541 22.8898 9.94332C22.7208 9.24271 22.5136 8.55189 22.2691 7.87394C21.199 4.96539 19.6721 3.37146 17.9652 3.37146C14.2051 3.37146 12.1767 10.7155 12.1767 17.6262C12.1767 18.8252 12.2372 20.0234 12.3579 21.2163C7.98208 20.4454 5.44966 18.8589 5.44966 17.6275C5.44966 17.0304 6.0418 16.3637 7.07463 15.7592L7.1069 15.7443L7.8778 15.3458L7.64194 16.864C7.59007 17.0446 7.61057 17.2382 7.6991 17.4039C7.78763 17.5696 7.93722 17.6943 8.11614 17.7516L8.41408 17.8459C8.48502 17.8691 8.55918 17.8808 8.6338 17.8807C8.78572 17.8805 8.93371 17.8324 9.05673 17.7433C9.17975 17.6541 9.27153 17.5285 9.31904 17.3841L10.1346 13.763C10.1884 13.5841 10.1702 13.3912 10.0837 13.2255C9.99895 13.0589 9.85168 12.9326 9.67408 12.8742L6.2727 11.4504L6.25283 11.4429C6.07093 11.3851 5.87354 11.4018 5.70392 11.4893C5.53429 11.5768 5.40626 11.728 5.34787 11.9097L5.25352 12.2076C5.19609 12.3859 5.21069 12.5797 5.2942 12.7474C5.37771 12.9151 5.5235 13.0435 5.70042 13.1051L7.07587 13.7916L6.90208 13.881C6.72083 13.9691 6.54828 14.0585 6.3869 14.1479L6.30497 14.1901C6.28759 14.1988 6.27394 14.2112 6.2578 14.2211C4.1847 15.4054 3.71173 16.6964 3.71173 17.6275C3.71173 20.4019 7.71394 22.2342 12.5888 23.0026C13.3585 27.8788 15.1957 31.881 17.9652 31.881C18.9199 31.881 20.2457 31.3844 21.451 29.1946C21.4802 29.156 21.5051 29.1144 21.5255 29.0705L21.9141 28.2934L22.6192 29.6589C22.67 29.7974 22.7622 29.9169 22.8832 30.0012C23.0042 30.0856 23.1482 30.1308 23.2957 30.1306C23.373 30.1309 23.4498 30.1183 23.5229 30.0934L23.8196 29.9953C24.0003 29.9342 24.1494 29.8041 24.2345 29.6334C24.3197 29.4627 24.3338 29.2652 24.2739 29.0842L22.7979 25.679C22.7365 25.5025 22.6086 25.3568 22.4415 25.2731C22.2743 25.1894 22.0811 25.1743 21.9029 25.2309L18.3215 26.0999H18.3004C18.1195 26.1607 17.9702 26.2908 17.885 26.4616C17.7999 26.6324 17.7859 26.83 17.8461 27.011L17.9441 27.3077C18.0039 27.4852 18.1302 27.6326 18.2965 27.7187C18.4628 27.8049 18.656 27.8231 18.8355 27.7695L20.3363 27.515C20.3032 27.592 20.2697 27.6677 20.2357 27.7422L19.9875 28.2388C19.3444 29.4392 18.6219 30.1344 17.9677 30.1344C16.735 30.1344 15.1473 27.6019 14.3777 23.2248C15.5705 23.3456 16.7688 23.4061 17.9677 23.4061C24.8748 23.4135 32.2188 21.3851 32.2188 17.6275Z" fill="black"/>
</svg>
