<svg width="36" height="36" viewBox="0 0 36 36" fill="none" xmlns="http://www.w3.org/2000/svg">
<path d="M20.5138 9.62067L21.3517 7.9448L23.0276 7.10687L21.3517 6.26894L20.5138 4.59308L19.6759 6.26894L18 7.10687L19.6759 7.9448L20.5138 9.62067Z" fill="black"/>
<path d="M22.079 26.9129C22.0474 26.9143 22.0158 26.918 21.9847 26.9241C21.4894 27.0165 20.9865 27.0626 20.4826 27.0619C18.7475 27.0545 17.0633 26.4744 15.6916 25.4117C14.3199 24.349 13.3375 22.8631 12.8968 21.1848C12.4562 19.5065 12.5819 17.7297 13.2546 16.1302C13.9273 14.5307 15.1093 13.198 16.617 12.3392C16.7009 12.2911 16.7681 12.2186 16.8095 12.1312C16.8509 12.0438 16.8646 11.9459 16.8486 11.8505C16.8326 11.7552 16.7878 11.667 16.7202 11.5979C16.6526 11.5288 16.5655 11.482 16.4705 11.464C15.866 11.3532 15.2528 11.2971 14.6382 11.2964C12.9398 11.2947 11.2687 11.7233 9.78074 12.5421C8.29277 13.361 7.03645 14.5433 6.12898 15.9789C5.22151 17.4146 4.69246 19.0567 4.59119 20.752C4.48993 22.4474 4.81974 24.1408 5.54987 25.6742C6.27999 27.2076 7.38664 28.5312 8.76656 29.5213C10.1465 30.5114 11.7547 31.1359 13.4412 31.3364C15.1277 31.5369 16.8375 31.307 18.4112 30.6681C19.9848 30.0292 21.3709 29.0021 22.4403 27.6826C22.4959 27.6136 22.531 27.5303 22.5416 27.4423C22.5522 27.3543 22.5378 27.2651 22.5001 27.1849C22.4625 27.1047 22.403 27.0366 22.3286 26.9885C22.2541 26.9405 22.1677 26.9143 22.079 26.9129ZM14.6382 29.7309C12.5465 29.7283 10.5313 28.9437 8.9885 27.5312C7.4457 26.1187 6.48681 24.1804 6.30016 22.097C6.11352 20.0136 6.71262 17.9357 7.97979 16.2715C9.24695 14.6072 11.0906 13.4769 13.1486 13.1026C12.085 14.3903 11.3774 15.9342 11.0963 17.5804C10.8151 19.2267 10.9702 20.9179 11.5461 22.4856C12.122 24.0533 13.0986 25.4427 14.3786 26.5155C15.6586 27.5883 17.1973 28.307 18.8415 28.6C17.5653 29.3424 16.1147 29.7327 14.6382 29.7309Z" fill="black"/>
<path d="M30.9463 14.7378L28.4002 13.4654L27.1278 10.9243C26.8448 10.3595 25.9137 10.3595 25.6307 10.9243L24.3583 13.4704L21.8122 14.7428C21.6739 14.8129 21.5577 14.9199 21.4765 15.0521C21.3953 15.1842 21.3524 15.3363 21.3524 15.4913C21.3524 15.6464 21.3953 15.7985 21.4765 15.9306C21.5577 16.0627 21.6739 16.1698 21.8122 16.2399L24.3583 17.5036L25.6307 20.0497C25.7008 20.188 25.8079 20.3042 25.94 20.3854C26.0721 20.4666 26.2242 20.5095 26.3793 20.5095C26.5343 20.5095 26.6864 20.4666 26.8185 20.3854C26.9507 20.3042 27.0577 20.188 27.1278 20.0497L28.4002 17.5036L30.9463 16.2312C31.0846 16.1611 31.2008 16.054 31.282 15.9219C31.3632 15.7898 31.4062 15.6377 31.4062 15.4826C31.4062 15.3276 31.3632 15.1755 31.282 15.0434C31.2008 14.9112 31.0846 14.8042 30.9463 14.7341V14.7378ZM27.4009 16.1381C27.2401 16.2192 27.1096 16.3497 27.0285 16.5105L26.3793 17.8015L25.735 16.5105C25.6524 16.3508 25.5222 16.2207 25.3626 16.1381L24.069 15.4938L25.3626 14.8446C25.5233 14.7635 25.6539 14.6329 25.735 14.4722L26.3793 13.1786L27.0235 14.4722C27.1062 14.6318 27.2363 14.7619 27.396 14.8446L28.6895 15.4938L27.4009 16.1381Z" fill="black"/>
</svg>
