<svg width="36" height="36" viewBox="0 0 36 36" fill="none" xmlns="http://www.w3.org/2000/svg">
<path d="M17.6711 14.4373C17.4803 13.6671 17.4675 12.8635 17.6335 12.0876C17.7995 11.3117 18.14 10.5837 18.6292 9.959C19.1184 9.33425 19.7434 8.8291 20.4569 8.48185C21.1704 8.1346 21.9536 7.95437 22.7471 7.95483C22.9741 7.95516 23.2009 7.96967 23.4261 7.99828L20.4083 11.0198L21.06 14.9376L24.9828 15.5893L27.9993 12.5715C28.1418 13.6468 27.9453 14.7397 27.4373 15.6981C26.9293 16.6564 26.1351 17.4325 25.1653 17.9181L25.0126 17.9963L26.2726 19.2563L26.3557 19.2079C26.8443 18.9185 27.2947 18.5691 27.6964 18.1677C28.5531 17.3195 29.1732 16.2622 29.495 15.1004C29.8169 13.9387 29.8293 12.713 29.5312 11.5449C29.4737 11.3113 29.355 11.0972 29.1872 10.9248C29.0193 10.7524 28.8086 10.6279 28.5766 10.5642C28.3432 10.5 28.097 10.4985 27.8629 10.56C27.6288 10.6215 27.415 10.7437 27.2433 10.9143L24.3882 13.7695L22.5323 13.4591L22.2207 11.597L25.0759 8.74187C25.2448 8.57083 25.3657 8.35821 25.4261 8.12551C25.4865 7.89281 25.4845 7.64828 25.4201 7.41664C25.3557 7.185 25.2314 6.97445 25.0595 6.80629C24.8877 6.63813 24.6745 6.51832 24.4415 6.45897C23.2743 6.16323 22.0502 6.17691 20.8899 6.49866C19.7296 6.82041 18.6732 7.43912 17.825 8.29373C17.2291 8.88835 16.5836 9.94725 16.2546 10.6859L16.2447 10.7082L16.1516 13.4219L17.758 14.8023L17.6711 14.4373Z" fill="black"/>
<path d="M16.2968 22.5931L16.2311 22.4069L11.1488 27.4916C10.7917 27.8311 10.3177 28.0204 9.82492 28.0204C9.33212 28.0204 8.85817 27.8311 8.50099 27.4916C8.15189 27.1394 7.95604 26.6636 7.95604 26.1677C7.95604 25.6718 8.15189 25.1959 8.50099 24.8437L15.2206 18.1241L14.0189 16.9225L7.30057 23.6421C6.63227 24.3135 6.25708 25.2222 6.25708 26.1695C6.25708 27.1168 6.63227 28.0256 7.30057 28.697C7.97031 29.3665 8.87854 29.7426 9.82554 29.7426C10.7725 29.7426 11.6808 29.3665 12.3505 28.697L17.0466 24.0058L16.9833 23.9201C16.6914 23.5134 16.4601 23.0664 16.2968 22.5931Z" fill="black"/>
<path d="M9.16132 25.9857C9.16132 26.1539 9.21119 26.3183 9.30462 26.4581C9.39806 26.598 9.53087 26.707 9.68625 26.7713C9.84163 26.8357 10.0126 26.8525 10.1776 26.8197C10.3425 26.7869 10.494 26.7059 10.6129 26.587C10.7319 26.4681 10.8128 26.3166 10.8457 26.1516C10.8785 25.9867 10.8616 25.8157 10.7973 25.6603C10.7329 25.5049 10.6239 25.3721 10.4841 25.2787C10.3442 25.1852 10.1798 25.1354 10.0117 25.1354C9.78613 25.1354 9.56985 25.225 9.41038 25.3844C9.25091 25.5439 9.16132 25.7602 9.16132 25.9857Z" fill="black"/>
<path d="M23.6347 18.319C23.0344 17.7198 22.249 17.3413 21.4063 17.2451C20.5636 17.1488 19.7131 17.3405 18.9932 17.789L15.2194 14.0152V10.6759L9.27319 6.21436L6.21692 9.27187L10.6759 15.2168H14.0177L17.7915 18.9906C17.3453 19.7115 17.1552 20.5618 17.2521 21.4041C17.349 22.2464 17.7271 23.0314 18.3253 23.6321L23.9761 29.2829C24.122 29.4297 24.2955 29.5461 24.4866 29.6256C24.6777 29.7051 24.8826 29.746 25.0896 29.746C25.2966 29.746 25.5015 29.7051 25.6926 29.6256C25.8837 29.5461 26.0572 29.4297 26.2031 29.2829L29.2854 26.2006C29.5802 25.9034 29.7456 25.5018 29.7456 25.0833C29.7456 24.6648 29.5802 24.2632 29.2854 23.9661L23.6347 18.319ZM13.5187 11.5237V13.5099H11.5263L8.46381 9.43449L9.43457 8.46249L13.5187 11.5237ZM27.9907 25.0833L25.0846 27.9894L19.527 22.4255C19.3288 22.2368 19.1704 22.0103 19.061 21.7594C18.9517 21.5085 18.8936 21.2383 18.8903 20.9646C18.887 20.691 18.9384 20.4194 19.0416 20.1659C19.1448 19.9124 19.2976 19.6821 19.4912 19.4886C19.6847 19.2951 19.915 19.1422 20.1685 19.039C20.4219 18.9359 20.6935 18.8844 20.9672 18.8878C21.2408 18.8911 21.5111 18.9491 21.762 19.0585C22.0128 19.1678 22.2393 19.3262 22.4281 19.5244L27.9907 25.0833Z" fill="black"/>
</svg>
