<svg width="36" height="36" viewBox="0 0 36 36" fill="none" xmlns="http://www.w3.org/2000/svg">
<path d="M11.8043 29.6118C11.9654 29.7088 12.1554 29.7464 12.3413 29.7181C12.5272 29.6898 12.6974 29.5973 12.8223 29.4567L26.3309 15.6972C26.4604 15.566 26.5474 15.3989 26.5806 15.2175C26.6138 15.0362 26.5917 14.8491 26.5172 14.6805C26.4557 14.5193 26.3464 14.3807 26.204 14.2833C26.0615 14.1859 25.8927 14.1344 25.7202 14.1356H22.1674L24.6054 7.50908C24.659 7.36749 24.6771 7.21491 24.6581 7.06472C24.639 6.91453 24.5834 6.77129 24.4962 6.64756C24.4176 6.53271 24.3122 6.43876 24.1891 6.37387C24.0661 6.30897 23.929 6.27508 23.7898 6.27515H14.1394C13.964 6.27665 13.7932 6.33116 13.6494 6.43153C13.5056 6.53189 13.3956 6.67341 13.3337 6.83749L9.47177 16.668C9.41503 16.8095 9.39407 16.9629 9.41074 17.1144C9.42741 17.266 9.48121 17.4111 9.56736 17.5369C9.64508 17.6549 9.75087 17.7517 9.87524 17.8186C9.99961 17.8856 10.1387 17.9206 10.2799 17.9205H13.978L11.3612 28.5827C11.3069 28.7791 11.3212 28.9881 11.4018 29.1752C11.4824 29.3623 11.6244 29.5164 11.8043 29.6118ZM15.953 17.2365C15.9876 17.0992 15.9904 16.9558 15.9611 16.8173C15.9319 16.6787 15.8713 16.5487 15.7842 16.4371C15.7043 16.3329 15.6015 16.2485 15.4837 16.1904C15.366 16.1323 15.2365 16.102 15.1052 16.1019H11.5809L14.7278 8.09377H22.5162L20.0781 14.7203C20.0287 14.8638 20.0128 15.0168 20.0318 15.1674C20.0507 15.3181 20.1039 15.4624 20.1874 15.5892C20.3562 15.8375 20.6492 15.9616 21.0563 15.9616H23.5701L13.8265 25.8927L15.953 17.2365Z" fill="black"/>
</svg>
