<svg width="36" height="36" viewBox="0 0 36 36" fill="none" xmlns="http://www.w3.org/2000/svg">
<path d="M29.1729 12.3639C28.8998 11.3584 28.1177 10.5639 27.1122 10.2908C25.2997 9.80663 18.0376 9.80664 18.0376 9.80664C18.0376 9.80664 10.7755 9.80663 8.96306 10.2908C7.95754 10.5639 7.17548 11.3584 6.90237 12.3639C6.41823 14.1887 6.41821 17.9997 6.41821 17.9997C6.41821 17.9997 6.41823 21.8108 6.90237 23.6232C7.17548 24.6287 7.95754 25.4232 8.96306 25.6963C10.7755 26.1804 18.0376 26.1804 18.0376 26.1804C18.0376 26.1804 25.2997 26.1804 27.1122 25.6963C28.1177 25.4232 28.8998 24.6287 29.1729 23.6232C29.657 21.7984 29.657 17.9997 29.657 17.9997C29.657 17.9997 29.657 14.1887 29.1729 12.3639ZM15.6542 21.4508V14.5363L21.7245 17.9873L15.6542 21.4508Z" fill="black"/>
</svg>
