<svg width="36" height="36" viewBox="0 0 36 36" fill="none" xmlns="http://www.w3.org/2000/svg">
<path d="M26.9999 9.93119L22.9406 5.87189C22.4937 5.42499 21.8606 5.16431 21.2275 5.16431H11.3584C10.0177 5.16431 8.93774 6.25672 8.93774 7.585V27.7077C8.93774 29.0484 10.0177 30.1284 11.3584 30.1284H25.2868C26.6275 30.1284 27.7075 29.0484 27.7075 27.7077V11.6443C27.7075 10.9988 27.4468 10.3781 26.9999 9.93119ZM21.513 6.9767L21.5626 7.00152C21.6123 7.02635 21.6619 7.06361 21.6992 7.11327L25.7585 11.1726C25.7957 11.2098 25.833 11.2595 25.8702 11.3091L25.8951 11.3588H21.513V6.9767ZM25.9571 27.6953C25.9571 28.0677 25.6592 28.3657 25.2868 28.3657H11.3584C10.986 28.3657 10.6881 28.0677 10.6881 27.6953V7.57257C10.6881 7.20016 10.986 6.90224 11.3584 6.90224H19.775V11.8305C19.775 12.5257 20.3461 13.0967 21.0288 13.0967H25.9571V27.6953Z" fill="black"/>
<path d="M13.5809 16.2997V16.8707C13.5809 17.2432 13.7919 17.4666 14.1768 17.4666H22.4816C22.854 17.4666 23.0775 17.2556 23.0775 16.8707V16.2997C23.0775 15.9273 22.8664 15.7039 22.4816 15.7039H14.1768C13.7919 15.7163 13.5809 15.9273 13.5809 16.2997Z" fill="black"/>
<path d="M22.4692 19.1792H14.1644C13.7919 19.1792 13.5685 19.3902 13.5685 19.7751V20.3461C13.5685 20.7185 13.7795 20.9419 14.1644 20.9419H22.4692C22.8416 20.9419 23.065 20.7309 23.065 20.3461V19.7751C23.065 19.4027 22.854 19.1792 22.4692 19.1792Z" fill="black"/>
<path d="M22.4692 22.6553H14.1644C13.7919 22.6553 13.5685 22.8663 13.5685 23.2512V23.8222C13.5685 24.1946 13.7795 24.4181 14.1644 24.4181H22.4692C22.8416 24.4181 23.065 24.207 23.065 23.8222V23.2512C23.065 22.8663 22.854 22.6553 22.4692 22.6553Z" fill="black"/>
</svg>
