<svg width="36" height="36" viewBox="0 0 36 36" fill="none" xmlns="http://www.w3.org/2000/svg">
<path d="M18.5979 15.4923H6.92693V6.25633C6.92703 6.22264 6.92048 6.18927 6.90764 6.15812C6.89479 6.12698 6.87589 6.09868 6.85207 6.07486C6.82825 6.05104 6.79995 6.03216 6.76881 6.01932C6.73766 6.00647 6.70431 5.9999 6.67062 6H6.25625C6.22256 5.9999 6.18921 6.00647 6.15806 6.01932C6.12692 6.03216 6.09862 6.05104 6.0748 6.07486C6.05098 6.09868 6.03208 6.12698 6.01923 6.15812C6.00639 6.18927 5.99984 6.22264 5.99994 6.25633V15.9577C5.99984 16.0187 6.01174 16.0791 6.03502 16.1354C6.0583 16.1917 6.09251 16.2429 6.1356 16.286C6.1787 16.3291 6.22986 16.3632 6.28619 16.3865C6.34252 16.4098 6.4029 16.4217 6.46384 16.4216H18.5986C18.6665 16.4214 18.7316 16.3943 18.7796 16.3463C18.8277 16.2983 18.8547 16.2332 18.8549 16.1653V15.751C18.8551 15.7171 18.8487 15.6835 18.8358 15.6521C18.823 15.6207 18.8041 15.5922 18.7802 15.5681C18.7563 15.5441 18.7279 15.525 18.6966 15.512C18.6653 15.499 18.6318 15.4923 18.5979 15.4923Z" fill="black"/>
<path d="M8.87904 14.4325C9.04028 14.4325 9.19899 14.3924 9.34092 14.3159C9.48286 14.2394 9.60356 14.1288 9.69225 13.9942C9.78093 13.8595 9.8348 13.7049 9.84902 13.5443C9.86325 13.3837 9.83742 13.2221 9.77378 13.0739L11.5255 10.8001C11.6527 10.821 11.783 10.8156 11.9081 10.7842C12.0331 10.7529 12.1504 10.6962 12.2528 10.6177L13.9825 11.3945C14.018 11.6376 14.144 11.8583 14.3354 12.0125C14.5267 12.1666 14.7691 12.2427 15.0142 12.2256C15.2593 12.2085 15.4889 12.0995 15.657 11.9202C15.8251 11.741 15.9192 11.5049 15.9206 11.2593C15.9203 11.1665 15.9074 11.0741 15.8821 10.9849L17.4655 9.24886C17.5385 9.26725 17.6135 9.27674 17.6888 9.27715C17.8815 9.2773 18.0699 9.22032 18.2302 9.11341C18.3905 9.0065 18.5154 8.85447 18.5893 8.67653C18.6632 8.49858 18.6827 8.30272 18.6452 8.11372C18.6078 7.92472 18.5151 7.75109 18.379 7.61474C18.2429 7.47839 18.0694 7.38547 17.8804 7.34773C17.6915 7.30999 17.4956 7.32912 17.3176 7.4027C17.1395 7.47629 16.9872 7.60102 16.8801 7.76113C16.7729 7.92124 16.7156 8.10955 16.7155 8.30222C16.7152 8.40734 16.7325 8.51178 16.7666 8.61121L15.2059 10.3205C15.055 10.2773 14.8957 10.2718 14.7421 10.3046C14.5886 10.3374 14.4455 10.4074 14.3253 10.5084L12.6388 9.75283C12.626 9.61276 12.5829 9.47714 12.5127 9.3553C12.4424 9.23346 12.3466 9.12829 12.2317 9.04704C12.1169 8.9658 11.9859 8.91041 11.8476 8.88468C11.7093 8.85895 11.5671 8.86349 11.4307 8.89799C11.2944 8.9325 11.1671 8.99616 11.0577 9.08457C10.9483 9.17298 10.8594 9.28405 10.797 9.41012C10.7347 9.5362 10.7004 9.67428 10.6965 9.81488C10.6926 9.95548 10.7193 10.0953 10.7747 10.2246L9.02291 12.4968C8.89068 12.4775 8.75591 12.4856 8.62696 12.5207C8.49801 12.5557 8.37764 12.6169 8.27338 12.7005C8.16912 12.7841 8.08321 12.8883 8.02096 13.0065C7.95871 13.1248 7.92145 13.2546 7.91155 13.3878C7.90165 13.5211 7.91933 13.655 7.96342 13.7811C8.00751 13.9073 8.07709 14.023 8.16785 14.1211C8.25861 14.2191 8.3686 14.2975 8.49096 14.3512C8.61331 14.4049 8.74541 14.4329 8.87904 14.4333V14.4325Z" fill="black"/>
<path d="M16.7557 21.6645C16.5587 21.8658 16.4095 22.1088 16.3194 22.3756C16.2293 22.6424 16.2005 22.9261 16.2352 23.2056L16.8508 28.3444C16.9261 28.8573 17.1934 29.3224 17.5986 29.6457C17.8203 29.8011 18.0719 29.9088 18.3374 29.962C18.603 30.0152 18.8766 30.0127 19.1411 29.9547H19.1569C19.3544 29.94 19.5467 29.8847 19.7218 29.7921C19.8969 29.6996 20.0509 29.5718 20.1743 29.4169C20.3437 29.2054 20.4693 28.9623 20.5436 28.7018C20.618 28.4412 20.6397 28.1685 20.6075 27.8994L20.2773 25.1413V25.1162L23.9057 25.5352C24.1082 25.5594 24.3132 25.5504 24.5128 25.5085H24.5237L26.5169 27.8837C26.5684 27.9446 26.6326 27.9936 26.705 28.0273C26.7773 28.061 26.8561 28.0785 26.9359 28.0787C27.0641 28.0791 27.1882 28.0336 27.2858 27.9505C27.3407 27.9045 27.3861 27.8481 27.4193 27.7845C27.4524 27.7209 27.4727 27.6515 27.479 27.5801C27.4852 27.5087 27.4774 27.4367 27.4558 27.3683C27.4343 27.3 27.3995 27.2365 27.3534 27.1816L25.4932 24.9644L25.4822 24.9518L25.4947 24.9377C25.6631 24.7535 25.7941 24.5382 25.88 24.3039L27.3393 20.8193C27.4299 20.5894 27.4796 20.3454 27.4863 20.0984V20.0873L29.4849 19.2154C29.6179 19.1571 29.7225 19.0486 29.7758 18.9135C29.8154 18.8129 29.8242 18.7027 29.8011 18.5971C29.778 18.4914 29.724 18.395 29.646 18.3201C29.5679 18.2452 29.4694 18.1952 29.3629 18.1764C29.2564 18.1576 29.1467 18.1709 29.0478 18.2145L27.2764 18.9866L27.2693 18.9685C27.2426 18.9096 27.2182 18.86 27.1907 18.8113C27.0397 18.5446 26.8405 18.3081 26.6034 18.1139L26.3864 17.9307L26.6419 17.8104C27.0703 17.6084 27.4347 17.292 27.6948 16.8961C27.9548 16.5003 28.1005 16.0402 28.1157 15.5668C28.1309 15.0934 28.0151 14.6249 27.781 14.2131C27.5469 13.8014 27.2037 13.4622 26.7891 13.2331C26.3745 13.004 25.9047 12.8939 25.4315 12.9149C24.9583 12.9358 24.5 13.0871 24.1073 13.3519C23.7146 13.6167 23.4027 13.9849 23.2059 14.4158C23.0091 14.8466 22.9351 15.3235 22.9921 15.7937C23.0337 16.1347 23.1421 16.4642 23.3112 16.7633C23.4802 17.0624 23.7066 17.3253 23.9773 17.5368L24.1975 17.7106L23.9474 17.8387C23.394 18.1154 22.9677 18.5938 22.7563 19.1753L21.7979 21.3925L21.7892 21.4035L21.7751 21.4161L21.7625 21.4271L18.2975 21.1055C18.0149 21.0756 17.7293 21.1104 17.4622 21.2073C17.195 21.3041 16.9534 21.4605 16.7557 21.6645ZM25.7377 17.0368C25.6758 17.0439 25.6136 17.0476 25.5514 17.0477C25.2506 17.0477 24.9563 16.9608 24.7038 16.7975C24.4513 16.6341 24.2514 16.4013 24.1281 16.1271C24.0048 15.8528 23.9633 15.5487 24.0087 15.2515C24.0541 14.9542 24.1844 14.6764 24.384 14.4514C24.5836 14.2264 24.8438 14.0639 25.1336 13.9834C25.4233 13.9028 25.7301 13.9077 26.0171 13.9975C26.3042 14.0872 26.5592 14.2579 26.7515 14.4891C26.9437 14.7203 27.0651 15.0022 27.101 15.3007C27.1501 15.7117 27.0341 16.1252 26.7785 16.4507C26.5229 16.7762 26.1485 16.987 25.7377 17.0368ZM26.3431 19.3907L23.1817 20.7682L23.7163 19.5378C23.8011 19.275 23.961 19.0428 24.1764 18.87C24.3919 18.6973 24.6532 18.5915 24.9281 18.5658C25.2031 18.5401 25.4795 18.5956 25.7232 18.7255C25.9668 18.8554 26.1671 19.0539 26.2991 19.2964L26.3258 19.3514L26.3431 19.3907ZM23.0275 22.027L26.3297 20.5874L24.9255 23.9368C24.902 24.0066 24.8704 24.0734 24.8312 24.1357L24.817 24.1569L23.0275 22.027ZM17.4995 22.3604C17.5889 22.2679 17.6981 22.197 17.8189 22.153C17.9397 22.109 18.069 22.0931 18.1969 22.1064L21.9512 22.4508H21.9598L23.6565 24.4746L19.1074 23.9494L19.594 28.0071C19.6213 28.2363 19.5568 28.467 19.4144 28.6487C19.2721 28.8303 19.0636 28.9482 18.8345 28.9766C18.8003 28.9802 18.7659 28.982 18.7315 28.9821C18.5607 28.9822 18.3936 28.9322 18.251 28.8381C18.1084 28.744 17.9966 28.6101 17.9296 28.4529C17.903 28.3765 17.8846 28.2974 17.8745 28.2171L17.2589 23.0743C17.2425 22.9449 17.2555 22.8135 17.297 22.6898C17.3385 22.5662 17.4075 22.4536 17.4987 22.3604H17.4995Z" fill="black"/>
</svg>
