<svg width="36" height="36" viewBox="0 0 36 36" fill="none" xmlns="http://www.w3.org/2000/svg">
<path d="M4.87399 20.9532C5.34523 20.9532 5.72971 20.5684 5.72971 20.0967C5.72971 19.6249 5.34523 19.2401 4.87399 19.2401C4.40275 19.2401 4.01839 19.6249 4.01839 20.0967C4.01839 20.5684 4.40275 20.9532 4.87399 20.9532Z" fill="black"/>
<path d="M32.4911 12.6987C32.4787 12.4132 32.2555 12.1897 31.9827 12.1897L27.047 12.2022L24.8396 10.0546C24.4056 9.6201 23.8476 9.38424 23.24 9.38424H18.8003C18.3787 9.38424 17.9446 9.52079 17.5602 9.7939C17.1758 9.52079 16.717 9.37183 16.2706 9.37183H13.2075C12.6123 9.37183 12.0294 9.6201 11.6077 10.0422L9.45002 12.2022H4.52679C4.24156 12.2022 4.01839 12.4256 4.01839 12.7111V13.4187C4.01839 13.7042 4.24156 13.9277 4.52679 13.9277H6.83333V22.0711H4.52679C4.24156 22.0711 4.01839 22.2946 4.01839 22.5801V23.2877C4.01839 23.5732 4.24156 23.7966 4.52679 23.7966H6.99464C7.8007 23.7966 8.45796 23.1884 8.54477 22.4063H9.79722L13.3439 25.7953L13.3563 25.8077C14.0384 26.3539 14.8444 26.627 15.6629 26.627C16.4441 26.627 17.2254 26.3787 17.8951 25.8697L18.1183 26.0684C18.5647 26.4284 19.1104 26.627 19.6932 26.627C20.4497 26.627 21.1566 26.2918 21.6402 25.7084L22.5206 24.6159C23.3391 25.0008 24.4924 24.9015 25.2365 23.9953L25.6582 23.4863C25.9062 23.1759 26.0673 22.8035 26.1417 22.4063H28.0019C28.0887 23.1884 28.746 23.7966 29.552 23.7966H32.0199C32.3051 23.7966 32.5283 23.5732 32.5283 23.2877V22.5801C32.5283 22.2946 32.3051 22.0711 32.0199 22.0711H29.7132V13.9401L32.0199 13.9277C32.3051 13.9277 32.5283 13.7042 32.5283 13.4187V12.6987H32.4911ZM13.6044 13.3442C12.3147 14.5235 12.2278 16.547 13.4059 17.8256C13.7283 18.1732 14.398 18.6325 15.2288 18.8063C15.9109 18.9428 16.9154 18.918 17.8951 18.0242L18.8003 17.1925L24.2196 21.5994C24.4552 21.7856 24.4925 22.1332 24.2941 22.369L23.8724 22.878C23.6864 23.1139 23.3391 23.1511 23.1035 22.9525L22.1982 22.2201L20.2761 24.5911C20.1521 24.7525 19.966 24.8518 19.7552 24.8766C19.5568 24.9015 19.3461 24.8394 19.2096 24.7277L17.7462 23.4739L17.1882 24.1566C16.5185 24.9759 15.2784 25.1249 14.4848 24.4918L10.4916 20.656H8.55712V13.9153H10.1693L12.8231 11.2587C12.9223 11.1594 13.0711 11.0973 13.2075 11.0973H16.0597L13.6044 13.3442ZM21.1938 14.9953C21.3674 14.8339 21.4665 14.6229 21.4665 14.3994C21.4789 14.1635 21.3921 13.9525 21.2433 13.7787C20.9209 13.4311 20.3753 13.4063 20.0281 13.7291L16.7294 16.758C16.159 17.2794 15.1916 17.2422 14.6708 16.6711C14.1252 16.0753 14.1624 15.1566 14.7576 14.6104L18.4159 11.2587C18.5151 11.1594 18.6515 11.1098 18.788 11.1098H23.2275C23.3763 11.1098 23.5127 11.1718 23.6244 11.2711L26.3402 13.9153H27.9524V20.656H25.6705C25.5465 20.4946 25.4349 20.3704 25.2985 20.2587L20.0777 16.0132L21.1938 14.9953Z" fill="black"/>
<path d="M31.6231 19.2401C31.1517 19.2401 30.7672 19.6249 30.7672 20.0967C30.7672 20.5684 31.1517 20.9532 31.6231 20.9532C32.0944 20.9532 32.4789 20.5684 32.4789 20.0967C32.4914 19.6249 32.0944 19.2401 31.6231 19.2401Z" fill="black"/>
</svg>
