<svg width="36" height="36" viewBox="0 0 36 36" fill="none" xmlns="http://www.w3.org/2000/svg">
<path d="M9.02972 17.5161L9.00613 17.4602H7.12668L7.17137 17.5843C7.69052 19.0459 8.56304 20.3564 9.71123 21.3991V29.5239C9.71123 29.5869 9.72363 29.6492 9.74771 29.7073C9.77179 29.7654 9.80708 29.8183 9.85158 29.8628C9.89608 29.9072 9.9489 29.9425 10.007 29.9666C10.0652 29.9907 10.1275 30.0031 10.1904 30.0031H10.9625C11.0897 30.0031 11.2118 29.9527 11.3018 29.8628C11.3919 29.773 11.4426 29.6511 11.443 29.5239V20.627L10.898 20.1391C10.0945 19.4087 9.45737 18.5142 9.02972 17.5161Z" fill="black"/>
<path d="M25.1578 23.7318C25.1575 24.1159 25.005 24.4843 24.7338 24.7562C24.4625 25.0282 24.0945 25.1816 23.7104 25.1829H20.5238V29.5278C20.5238 29.5907 20.5362 29.653 20.5602 29.7111C20.5843 29.7693 20.6196 29.8221 20.6641 29.8666C20.7086 29.9111 20.7614 29.9464 20.8196 29.9705C20.8777 29.9945 20.94 30.0069 21.0029 30.0069H21.7763C21.9033 30.0066 22.025 29.956 22.1148 29.8662C22.2046 29.7764 22.2552 29.6548 22.2555 29.5278V26.9209H23.7104C24.5541 26.9199 25.363 26.5842 25.9595 25.9875C26.556 25.3907 26.8914 24.5817 26.8921 23.738V20.7314H28.342C28.7751 20.7294 29.1897 20.5558 29.495 20.2486C29.8003 19.9415 29.9713 19.5258 29.9707 19.0927V18.9996H25.1578V23.7318Z" fill="black"/>
<path d="M29.885 8.19292H25.267C23.364 6.22906 21.2164 5.10437 17.1621 5.10437C13.1077 5.10437 9.71381 6.90189 7.95229 9.79678C7.58185 9.86428 7.2465 10.0587 7.00387 10.3467C6.76123 10.6346 6.62648 10.9981 6.62277 11.3746V14.4631C6.6231 14.8974 6.79568 15.3138 7.10264 15.621C7.4096 15.9282 7.82588 16.1011 8.26015 16.1018H17.1422C17.1663 16.1015 17.19 16.096 17.2117 16.0856C17.6881 16.577 18.2579 16.9681 18.8877 17.2361C19.5174 17.5041 20.1944 17.6435 20.8788 17.646H29.885C30.3182 17.6454 30.7335 17.4733 31.0403 17.1675C31.3471 16.8616 31.5204 16.4468 31.5224 16.0136V9.8303C31.5217 9.39624 31.349 8.98015 31.0421 8.67322C30.7351 8.3663 30.319 8.19358 29.885 8.19292ZM20.6168 9.93085H25.1578V15.923H20.6168C19.8328 15.907 19.0862 15.5844 18.5374 15.0242C17.9885 14.4641 17.6811 13.7111 17.6811 12.9269C17.6811 12.1427 17.9885 11.3897 18.5374 10.8296C19.0862 10.2695 19.8328 9.94681 20.6168 9.93085ZM22.5286 8.19292H20.6168C19.962 8.19559 19.3149 8.33436 18.7165 8.60041C18.1181 8.86647 17.5816 9.25401 17.141 9.73844H10.1495C11.6988 7.89002 14.7426 6.83485 17.1286 6.83485C19.5145 6.83485 21.1531 7.30285 22.5286 8.19292ZM15.8971 13.1746C15.9204 13.5835 16.0041 13.9868 16.1454 14.3713H8.35326V11.4677H16.1268C15.9457 12.0172 15.8679 12.5955 15.8971 13.1733V13.1746ZM29.7931 9.9234V15.9155H26.8883V9.9234H29.7931Z" fill="black"/>
</svg>
