<svg width="36" height="36" viewBox="0 0 36 36" fill="none" xmlns="http://www.w3.org/2000/svg">
<path d="M15.8524 17.4637H12.3641L12.3269 18.8168C12.5805 18.7421 12.8446 18.7085 13.1089 18.7175C13.5269 18.7132 13.9425 18.7804 14.3379 18.9161C14.6951 19.0399 15.0227 19.2364 15.2999 19.4934C15.5726 19.7509 15.7864 20.0643 15.9268 20.412C16.0805 20.7967 16.1564 21.2081 16.1503 21.6223C16.1605 22.0775 16.076 22.5299 15.902 22.9506C15.743 23.3286 15.5036 23.6674 15.2006 23.9437C14.8926 24.219 14.5314 24.4281 14.1393 24.5582C13.7093 24.7026 13.2583 24.7739 12.8048 24.7692C12.0442 24.7692 11.407 24.583 10.8931 24.2106C10.3791 23.8382 10.0274 23.2754 9.83789 22.5223L11.7869 22.0754C11.8251 22.3688 11.9658 22.6392 12.1841 22.8389C12.4057 23.0361 12.6946 23.1405 12.991 23.1306C13.1666 23.1389 13.342 23.1101 13.5056 23.0459C13.6693 22.9817 13.8175 22.8837 13.9406 22.7582C14.0588 22.6319 14.1508 22.4836 14.2115 22.3217C14.2722 22.1598 14.3004 21.9875 14.2944 21.8147C14.3049 21.5644 14.2424 21.3164 14.1144 21.101C13.9957 20.916 13.8338 20.7626 13.6427 20.6541C13.4405 20.5402 13.2199 20.4624 12.991 20.4244C12.7532 20.3834 12.5123 20.3627 12.271 20.3623C11.9607 20.3631 11.6512 20.3922 11.3462 20.4492C11.0409 20.506 10.7401 20.5848 10.4462 20.6851L10.5455 15.8313H15.8586L15.8524 17.4637Z" fill="black"/>
<path d="M25.7586 23.9935C25.1949 24.2892 24.5935 24.5064 23.971 24.639C23.3467 24.772 22.71 24.8386 22.0717 24.8376C21.4243 24.8448 20.781 24.7355 20.1724 24.5149C19.6131 24.312 19.1018 23.9958 18.6703 23.5863C18.2395 23.1761 17.9009 22.6789 17.6772 22.1277C17.2051 20.8969 17.2051 19.535 17.6772 18.3043C17.9012 17.7532 18.2397 17.256 18.6703 16.8456C19.1028 16.4383 19.6139 16.1236 20.1724 15.9208C20.7812 15.7008 21.4244 15.5915 22.0717 15.598C22.7276 15.5902 23.3815 15.6737 24.0144 15.8463C24.5952 16.0086 25.1291 16.3065 25.5724 16.7153L24.2068 18.2049C23.9536 17.9402 23.6496 17.7291 23.3131 17.5843C22.9174 17.4322 22.4954 17.3605 22.0717 17.3732C21.6869 17.3679 21.3049 17.4397 20.9482 17.5843C20.6228 17.7187 20.329 17.9196 20.0855 18.1739C19.8417 18.4329 19.6536 18.7393 19.5331 19.0739C19.2765 19.8073 19.2765 20.606 19.5331 21.3394C19.6543 21.6719 19.8423 21.9761 20.0855 22.2332C20.3283 22.4883 20.6223 22.6893 20.9482 22.8229C21.3047 22.968 21.6868 23.0398 22.0717 23.0339C22.4409 23.0413 22.8091 22.9931 23.1641 22.8911C23.4171 22.8179 23.6624 22.7202 23.8965 22.5994V21.1718H22.32V19.3843H25.7586V23.9935Z" fill="black"/>
<path d="M18 5.55155C15.634 5.5449 13.3533 6.43466 11.6169 8.04176L11.597 8.06162C11.539 8.12095 11.4932 8.19113 11.4622 8.26816C11.4313 8.3452 11.4159 8.42757 11.4168 8.51057C11.4177 8.59357 11.435 8.67558 11.4676 8.75191C11.5002 8.82824 11.5476 8.89739 11.6069 8.95541L11.9794 9.32782C12.0966 9.44179 12.2534 9.50606 12.4169 9.50721C12.5805 9.50837 12.7381 9.44633 12.857 9.33403C14.2611 8.04803 16.096 7.33472 18 7.33472C19.9041 7.33472 21.739 8.04803 23.1431 9.33403C23.2504 9.43463 23.3894 9.49474 23.5361 9.50403C23.6829 9.51332 23.8284 9.4712 23.9475 9.38493C23.9728 9.36717 23.9965 9.34723 24.0183 9.32534L24.3907 8.95293L24.4068 8.93679C24.5218 8.81487 24.5838 8.65231 24.5792 8.48476C24.5745 8.31721 24.5036 8.15835 24.382 8.043C22.646 6.43574 20.3658 5.54555 18 5.55155Z" fill="black"/>
<path d="M13.8625 10.7578L13.834 10.7851C13.776 10.8447 13.7303 10.9152 13.6996 10.9925C13.6689 11.0697 13.6537 11.1523 13.655 11.2355C13.6562 11.3186 13.6739 11.4007 13.707 11.477C13.74 11.5533 13.7878 11.6224 13.8476 11.6802L14.22 12.0426C14.2338 12.0564 14.2487 12.0688 14.2647 12.0799C14.3829 12.175 14.5312 12.225 14.6828 12.2209C14.8345 12.2168 14.9798 12.1589 15.0927 12.0575C15.9003 11.351 16.9369 10.9616 18.01 10.9616C19.083 10.9616 20.1196 11.351 20.9272 12.0575C21.036 12.1539 21.1743 12.2103 21.3194 12.2175C21.4644 12.2247 21.6077 12.1823 21.7254 12.0973C21.7496 12.08 21.7724 12.0609 21.7937 12.0402L22.1661 11.6678C22.1749 11.6604 22.1828 11.6521 22.1897 11.6429C22.3022 11.5194 22.3613 11.3563 22.3541 11.1893C22.3469 11.0224 22.274 10.865 22.1512 10.7516C21.009 9.73667 19.5337 9.17659 18.0057 9.17774C16.4777 9.17888 15.0033 9.74117 13.8625 10.7578Z" fill="black"/>
</svg>
