<svg width="36" height="36" viewBox="0 0 36 36" fill="none" xmlns="http://www.w3.org/2000/svg">
<path d="M18 15.9865C16.808 15.9865 15.6428 16.3399 14.6517 17.0022C13.6606 17.6644 12.8881 18.6057 12.4319 19.707C11.9758 20.8082 11.8564 22.02 12.089 23.1891C12.3215 24.3582 12.8955 25.4321 13.7384 26.275C14.5813 27.1179 15.6552 27.6919 16.8243 27.9244C17.9934 28.157 19.2052 28.0376 20.3064 27.5815C21.4077 27.1253 22.349 26.3528 23.0112 25.3617C23.6735 24.3706 24.027 23.2054 24.027 22.0134C24.025 20.4155 23.3894 18.8837 22.2595 17.7539C21.1297 16.624 19.5979 15.9884 18 15.9865ZM18 26.4414C17.1238 26.4414 16.2673 26.1815 15.5387 25.6948C14.8102 25.208 14.2423 24.5161 13.9069 23.7066C13.5716 22.8971 13.4838 22.0064 13.6546 21.147C13.8255 20.2876 14.2473 19.4981 14.8668 18.8785C15.4863 18.2588 16.2756 17.8368 17.1349 17.6657C17.9943 17.4946 18.8851 17.5821 19.6947 17.9173C20.5042 18.2524 21.1963 18.8201 21.6833 19.5485C22.1702 20.2769 22.4303 21.1334 22.4305 22.0096C22.4296 23.1845 21.9625 24.3109 21.1319 25.1418C20.3012 25.9727 19.1749 26.44 18 26.4414Z" fill="black"/>
<path d="M15.1447 14.9786C15.3151 14.9786 15.4817 14.9281 15.6234 14.8336C15.7652 14.7391 15.8757 14.6047 15.9412 14.4474C16.0067 14.2901 16.0241 14.117 15.9914 13.9498C15.9586 13.7826 15.877 13.6288 15.757 13.5079C15.6369 13.387 15.4838 13.3044 15.3168 13.2704C15.1499 13.2364 14.9766 13.2526 14.8189 13.317C14.6611 13.3813 14.5259 13.4909 14.4304 13.632C14.3348 13.773 14.2832 13.9392 14.282 14.1096C14.282 14.339 14.3727 14.5591 14.5343 14.7219C14.6959 14.8847 14.9154 14.9769 15.1447 14.9786Z" fill="black"/>
<path d="M13.4242 14.1157C13.4242 13.9438 13.3733 13.7758 13.2778 13.6329C13.1823 13.49 13.0466 13.3786 12.8878 13.3129C12.729 13.2471 12.5543 13.2299 12.3857 13.2634C12.2172 13.2969 12.0623 13.3797 11.9408 13.5012C11.8193 13.6227 11.7365 13.7776 11.703 13.9461C11.6694 14.1147 11.6867 14.2894 11.7524 14.4482C11.8182 14.607 11.9296 14.7427 12.0725 14.8382C12.2154 14.9337 12.3834 14.9846 12.5552 14.9846C12.7857 14.9846 13.0067 14.8931 13.1697 14.7301C13.3327 14.5672 13.4242 14.3461 13.4242 14.1157Z" fill="black"/>
<path d="M18 18.8914C17.3825 18.8914 16.7789 19.0745 16.2655 19.4175C15.752 19.7606 15.3519 20.2482 15.1156 20.8187C14.8793 21.3891 14.8175 22.0169 14.9379 22.6225C15.0584 23.2281 15.3557 23.7844 15.7924 24.221C16.229 24.6577 16.7853 24.955 17.3909 25.0755C17.9965 25.196 18.6243 25.1341 19.1948 24.8978C19.7652 24.6615 20.2528 24.2614 20.5959 23.7479C20.939 23.2345 21.1221 22.6309 21.1221 22.0134C21.1211 21.1857 20.7918 20.3922 20.2065 19.8069C19.6213 19.2216 18.8277 18.8923 18 18.8914ZM19.6647 22.4479C19.5689 22.8163 19.3534 23.1424 19.0521 23.375C18.7507 23.6076 18.3806 23.7334 18 23.7327C17.6693 23.7308 17.3461 23.6338 17.069 23.4533C16.7919 23.2728 16.5726 23.0165 16.4371 22.7148H17.2738C17.3956 22.7148 17.5124 22.6664 17.5986 22.5803C17.6847 22.4941 17.7331 22.3773 17.7331 22.2555V21.7714C17.7331 21.6495 17.6847 21.5327 17.5986 21.4466C17.5124 21.3604 17.3956 21.312 17.2738 21.312H16.4383C16.6147 20.9194 16.9322 20.6073 17.3278 20.4376C17.7234 20.2679 18.1683 20.2531 18.5744 20.396C18.9805 20.5389 19.318 20.8291 19.5202 21.2091C19.7223 21.5892 19.7744 22.0313 19.6659 22.4479H19.6647Z" fill="black"/>
<path d="M24.4553 10.4275H11.5449C10.8025 10.4285 10.0907 10.7238 9.56573 11.2488C9.04074 11.7738 8.74537 12.4856 8.74438 13.228V30.009C8.74504 30.409 8.90433 30.7925 9.18731 31.0752C9.47029 31.358 9.85387 31.517 10.2539 31.5173H25.7475C26.1476 31.517 26.5311 31.358 26.8141 31.0752C27.0971 30.7925 27.2564 30.409 27.2571 30.009V13.2218C27.2544 12.4802 26.9582 11.7699 26.4331 11.2462C25.908 10.7225 25.1969 10.4281 24.4553 10.4275ZM25.5291 29.793H10.4699V13.2218C10.4702 12.9369 10.5836 12.6638 10.7852 12.4625C10.9868 12.2611 11.26 12.148 11.5449 12.148H24.4553C24.7399 12.1484 25.0129 12.2616 25.2142 12.4629C25.4155 12.6642 25.5287 12.9371 25.5291 13.2218V29.793Z" fill="black"/>
<path d="M11.9782 4.94189C12.0963 5.05501 12.2535 5.11817 12.417 5.11817C12.5806 5.11817 12.7378 5.05501 12.8558 4.94189C14.2599 3.65589 16.0949 2.94257 17.9989 2.94257C19.9029 2.94257 21.7378 3.65589 23.1419 4.94189C23.2492 5.04249 23.3882 5.1026 23.535 5.11188C23.6818 5.12117 23.8272 5.07906 23.9463 4.99278C23.9716 4.97503 23.9953 4.95509 24.0171 4.9332L24.3895 4.56078L24.4056 4.54464C24.5207 4.42272 24.5826 4.26017 24.578 4.09262C24.5733 3.92507 24.5024 3.7662 24.3808 3.65085C22.6408 2.04844 20.3619 1.15894 17.9964 1.15894C15.631 1.15894 13.352 2.04844 11.612 3.65085L11.5921 3.67071C11.5341 3.73004 11.4883 3.80023 11.4573 3.87726C11.4264 3.95429 11.411 4.03666 11.4119 4.11967C11.4128 4.20267 11.4301 4.28468 11.4627 4.36101C11.4953 4.43733 11.5427 4.50648 11.6021 4.56451L11.9782 4.94189Z" fill="black"/>
<path d="M13.8624 6.37824L13.8339 6.40555C13.7759 6.46514 13.7302 6.5356 13.6995 6.61288C13.6687 6.69017 13.6536 6.77275 13.6549 6.8559C13.6561 6.93906 13.6738 7.02114 13.7069 7.09745C13.7399 7.17376 13.7877 7.24279 13.8475 7.30059L14.2199 7.66431C14.234 7.67728 14.2489 7.6893 14.2646 7.70031C14.3828 7.79546 14.531 7.84546 14.6827 7.84136C14.8344 7.83727 14.9797 7.77935 15.0926 7.67796C15.8995 6.97056 16.9356 6.58002 18.0087 6.57888C19.0817 6.57773 20.1187 6.96607 20.9271 7.67176C21.0358 7.76808 21.1741 7.8245 21.3192 7.83172C21.4643 7.83894 21.6075 7.79653 21.7253 7.71148C21.7495 7.69418 21.7723 7.67509 21.7936 7.65438L22.166 7.28196C22.1748 7.2746 22.1827 7.26627 22.1896 7.25714C22.3021 7.13357 22.3612 6.97052 22.354 6.80355C22.3468 6.63658 22.2739 6.47923 22.1511 6.36583C21.0081 5.35174 19.5324 4.79276 18.0044 4.79505C16.4764 4.79734 15.0024 5.36074 13.8624 6.37824Z" fill="black"/>
</svg>
