<svg width="36" height="36" viewBox="0 0 36 36" fill="none" xmlns="http://www.w3.org/2000/svg">
<path d="M31.0419 18.5138C30.7847 16.4468 29.7832 14.5444 28.2246 13.1624C26.6661 11.7805 24.6574 11.0139 22.5745 11.006C21.7045 11.0026 20.8368 11.0929 19.9862 11.2754L20.4356 6.8064C20.4592 6.57175 20.4334 6.33475 20.3599 6.11068C20.2863 5.88661 20.1666 5.68043 20.0085 5.50543C19.8465 5.32732 19.6491 5.18497 19.429 5.0875C19.2088 4.99003 18.9707 4.93957 18.7299 4.93937C18.6573 4.93889 18.5847 4.94345 18.5127 4.95302C16.445 5.20967 14.5418 6.21119 13.1593 7.77003C11.7769 9.32888 11.01 11.3382 11.0023 13.4217C11.0007 14.293 11.0923 15.1619 11.2754 16.0137L6.80647 15.5631L6.63516 15.5544C6.3968 15.5557 6.16139 15.6072 5.94428 15.7056C5.72717 15.804 5.53325 15.947 5.37516 16.1254C5.2129 16.3105 5.09181 16.528 5.0199 16.7634C4.948 16.9988 4.92692 17.2468 4.95806 17.491C5.21527 19.5582 6.21702 21.4608 7.77581 22.8428C9.33461 24.2247 11.3436 24.9912 13.4267 24.9988C14.2965 25.0015 15.1639 24.9095 16.0138 24.7245L15.5644 29.1934C15.5408 29.4281 15.5666 29.6651 15.6401 29.8892C15.7137 30.1132 15.8333 30.3194 15.9914 30.4944C16.154 30.6725 16.3519 30.8147 16.5724 30.9122C16.793 31.0097 17.0314 31.0601 17.2725 31.0605C17.3448 31.0608 17.4169 31.0563 17.4885 31.0468C19.556 30.7899 21.4589 29.7882 22.8411 28.2294C24.2233 26.6706 24.99 24.6615 24.9976 22.5781C24.9997 21.7069 24.9086 20.838 24.7258 19.9861L29.1947 20.4355L29.3648 20.4442C29.6043 20.4436 29.8408 20.3922 30.0589 20.2933C30.277 20.1945 30.4716 20.0504 30.6298 19.8707C30.7904 19.6864 30.9102 19.4703 30.9812 19.2364C31.0522 19.0025 31.0729 18.7563 31.0419 18.5138ZM22.0705 17.8472L22.577 19.2413C22.9537 20.3109 23.1406 21.438 23.1294 22.5719C23.1294 25.8516 20.6913 28.6795 17.4327 29.2158L18.1527 22.0692L16.7586 22.5769C15.6886 22.9535 14.5611 23.1405 13.4267 23.1293C10.1483 23.1293 7.31916 20.6912 6.78164 17.4326L13.9283 18.1526L13.423 16.7585C13.0466 15.6889 12.8597 14.5618 12.8706 13.4279C12.8787 11.831 13.4566 10.2894 14.5003 9.08073C15.544 7.87204 16.9849 7.07565 18.5636 6.83495L17.8485 13.9307L19.2414 13.4242C20.3111 13.0465 21.4388 12.8592 22.5732 12.8705C25.853 12.8705 28.6808 15.3086 29.2171 18.5672L22.0705 17.8472Z" fill="black"/>
<path d="M17.9999 20.011C19.1106 20.011 20.011 19.1106 20.011 17.9999C20.011 16.8893 19.1106 15.9889 17.9999 15.9889C16.8893 15.9889 15.9889 16.8893 15.9889 17.9999C15.9889 19.1106 16.8893 20.011 17.9999 20.011Z" fill="black"/>
</svg>
