<svg width="36" height="36" viewBox="0 0 36 36" fill="none" xmlns="http://www.w3.org/2000/svg">
<path d="M25.6432 21.4324C25.6308 21.4324 24.4316 21.5479 23.2126 21.5392C21.883 21.5317 20.5821 21.4275 20.5684 21.4275C19.8236 21.3666 19.3332 21.7552 19.1259 22.1413C18.8777 22.6043 18.905 23.2883 19.5232 23.7724L20.4418 24.4899C20.7958 24.7522 21.2157 24.9112 21.6546 24.9493C21.6832 24.9493 22.3709 25.0026 23.215 25.0026C24.1448 25.0026 24.7382 24.953 24.763 24.9505C25.2261 24.9061 25.6645 24.7212 26.0193 24.4204L26.7902 23.7253C27.0244 23.5326 27.1822 23.2628 27.2352 22.9643C27.2882 22.6657 27.233 22.358 27.0795 22.0966C26.861 21.7242 26.3681 21.3629 25.6432 21.4324ZM23.0524 23.6433C20.957 23.6433 20.4977 22.7495 20.4977 22.7495C21.2425 22.8178 22.032 22.8848 23.035 22.8948C23.9193 22.895 24.8029 22.8457 25.6817 22.7471C25.6817 22.7471 25.2757 23.6446 23.0524 23.6433Z" fill="black"/>
<path d="M13.0506 13.573C13.047 13.5574 13.0384 13.5435 13.026 13.5334C13.0136 13.5233 12.9983 13.5176 12.9823 13.5171H12.3715L12.7638 12.2758C12.7687 12.2606 12.7704 12.2446 12.7687 12.2288C12.767 12.2129 12.7619 12.1977 12.7539 12.1839C12.7479 12.173 12.7391 12.1638 12.7284 12.1572C12.7177 12.1507 12.7056 12.1471 12.6931 12.1467H11.2506C11.2345 12.1479 11.2192 12.154 11.2068 12.1642C11.1943 12.1744 11.1854 12.1883 11.1811 12.2038L10.6038 13.9194C10.5982 13.9345 10.5959 13.9506 10.5972 13.9667C10.5985 13.9828 10.6033 13.9984 10.6113 14.0125C10.6172 14.0238 10.6261 14.0334 10.6371 14.0402C10.648 14.0469 10.6605 14.0506 10.6733 14.0509H11.294L10.8881 15.9887C10.8826 16.0088 10.8835 16.0301 10.8906 16.0497C10.8977 16.0692 10.9107 16.0861 10.9278 16.098C10.9344 16.1028 10.9419 16.1063 10.9499 16.1081C10.9579 16.1099 10.9661 16.11 10.9742 16.1085C10.9822 16.107 10.9898 16.1039 10.9966 16.0993C11.0034 16.0947 11.0091 16.0887 11.0135 16.0818L13.0344 13.681C13.0463 13.6659 13.054 13.6481 13.0568 13.6291C13.0596 13.6102 13.0575 13.5909 13.0506 13.573Z" fill="black"/>
<path d="M9.16635 12.8085H8.61518C8.58225 12.8085 8.55068 12.8215 8.5274 12.8448C8.50412 12.8681 8.49104 12.8997 8.49104 12.9326V13.4838C8.49104 13.5167 8.50412 13.5483 8.5274 13.5716C8.55068 13.5948 8.58225 13.6079 8.61518 13.6079H8.67228V13.6402C8.6717 13.6653 8.6648 13.6898 8.65221 13.7115C8.63963 13.7332 8.62176 13.7514 8.60028 13.7643L8.0938 14.0126V12.6918H8.33463C8.35749 12.6925 8.38012 12.6869 8.4 12.6756C8.41988 12.6643 8.43625 12.6477 8.44729 12.6276C8.45834 12.6076 8.46363 12.5849 8.46259 12.562C8.46155 12.5392 8.45421 12.5171 8.44138 12.4981L7.98332 11.7645C7.97068 11.748 7.95443 11.7346 7.93581 11.7255C7.91719 11.7163 7.8967 11.7115 7.87594 11.7115C7.85517 11.7115 7.83469 11.7163 7.81607 11.7255C7.79745 11.7346 7.78119 11.748 7.76856 11.7645L7.31049 12.4981C7.29767 12.5171 7.29033 12.5392 7.28929 12.562C7.28824 12.5849 7.29354 12.6076 7.30458 12.6276C7.31563 12.6477 7.33199 12.6643 7.35188 12.6756C7.37176 12.6869 7.39438 12.6925 7.41725 12.6918H7.65807V14.5824L7.24718 14.4074C7.22492 14.395 7.20625 14.377 7.19299 14.3553C7.17972 14.3335 7.1723 14.3087 7.17145 14.2832V14.1156C7.27221 14.0663 7.35328 13.9842 7.40144 13.8829C7.44961 13.7816 7.46203 13.6669 7.4367 13.5576C7.41136 13.4483 7.34975 13.3508 7.26191 13.281C7.17407 13.2112 7.06517 13.1732 6.95297 13.1732C6.84077 13.1732 6.73188 13.2112 6.64404 13.281C6.5562 13.3508 6.49459 13.4483 6.46925 13.5576C6.44391 13.6669 6.45634 13.7816 6.5045 13.8829C6.55267 13.9842 6.63373 14.0663 6.73449 14.1156V14.2758C6.73452 14.3802 6.76251 14.4827 6.81556 14.5726C6.86861 14.6626 6.94478 14.7367 7.03614 14.7872L7.65683 15.0789V15.2441C7.55596 15.2933 7.47475 15.3753 7.42645 15.4766C7.37815 15.578 7.36562 15.6927 7.39089 15.8021C7.41617 15.9114 7.47776 16.009 7.56563 16.0789C7.65349 16.1488 7.76244 16.1868 7.8747 16.1868C7.98696 16.1868 8.0959 16.1488 8.18376 16.0789C8.27163 16.009 8.33322 15.9114 8.3585 15.8021C8.38377 15.6927 8.37124 15.578 8.32294 15.4766C8.27465 15.3753 8.19344 15.2933 8.09256 15.2441V14.5241L8.82373 14.1429C8.90938 14.0912 8.98035 14.0184 9.0299 13.9315C9.07944 13.8446 9.1059 13.7464 9.10676 13.6464V13.6141H9.16511C9.19803 13.6141 9.22961 13.601 9.25289 13.5778C9.27617 13.5545 9.28925 13.5229 9.28925 13.49V12.9388C9.29008 12.9221 9.28753 12.9054 9.28175 12.8897C9.27596 12.874 9.26706 12.8596 9.25558 12.8474C9.24411 12.8353 9.23028 12.8255 9.21495 12.8188C9.19961 12.8121 9.18308 12.8086 9.16635 12.8085Z" fill="black"/>
<path d="M33.269 22.8315C33.2405 21.6497 33.1325 19.7839 33.0046 19.3556C32.9016 19.013 32.6632 18.7349 32.3616 18.3811C32.2138 18.2073 32.04 18.0087 31.8824 17.784C32.1871 17.7885 32.4905 17.7419 32.7799 17.6462C33.1113 17.5333 33.2181 17.0578 33.2069 16.6531C33.2069 16.4694 33.156 15.8649 32.7687 15.7556C32.5651 15.6985 31.5671 15.6079 31.2505 15.7668V9.25326C31.2499 8.88034 31.1013 8.52292 30.8373 8.25946C30.5734 7.99599 30.2157 7.84802 29.8428 7.84802H4.54843C4.17594 7.84868 3.81889 7.99694 3.5555 8.26033C3.29211 8.52372 3.14384 8.88077 3.14319 9.25326V19.1706C3.14384 19.5431 3.29211 19.9002 3.5555 20.1636C3.81889 20.427 4.17594 20.5752 4.54843 20.5759H13.0817C13.0271 21.2934 12.9861 22.1698 12.97 22.8315C12.8942 26.0591 13.2344 26.5842 13.3796 26.8039C13.4675 26.9415 13.5663 27.0718 13.6751 27.1937C13.6502 27.6393 13.6887 28.2129 13.9817 28.5791C14.0688 28.6901 14.178 28.7818 14.3023 28.8485C14.4267 28.9151 14.5635 28.9553 14.7042 28.9664C15.2007 29.0036 16.5054 29.0173 17.4724 29.0173C17.6158 29.0173 17.7573 28.9848 17.8863 28.9222C18.0154 28.8596 18.1285 28.7686 18.2173 28.656C18.3545 28.4722 18.4363 28.2529 18.4531 28.0242C19.1483 28.0242 19.98 28.0242 20.9284 28.0242C23.3951 28.0242 26.0467 28.0167 27.7771 28.0105C27.793 28.2427 27.8753 28.4655 28.0142 28.6523C28.103 28.7649 28.2162 28.8559 28.3452 28.9185C28.4742 28.981 28.6157 29.0135 28.7591 29.0135C29.7261 29.0135 31.0308 28.9999 31.5286 28.9626C31.6692 28.9513 31.8059 28.911 31.9302 28.8443C32.0545 28.7777 32.1638 28.6861 32.2511 28.5753C32.5428 28.2091 32.5813 27.6356 32.5565 27.19C32.6652 27.0681 32.764 26.9378 32.8519 26.8002C33.0021 26.5842 33.3422 26.0591 33.269 22.8315ZM31.5311 20.8552L31.5633 21.6546C30.5702 21.9153 29.489 22.2642 29.3165 22.1735L29.1923 21.7763C29.7348 21.5367 30.8409 21.1283 31.5311 20.8552ZM13.8774 18.3799C13.7371 18.5437 13.6117 18.6915 13.505 18.838H4.88112V9.58595H29.5101V13.1202C29.2852 12.8385 29.0161 12.5954 28.7131 12.4002C27.9485 11.9495 24.8798 11.8825 23.1182 11.8825C21.3567 11.8825 18.288 11.9495 17.5233 12.4002C17.0591 12.6733 16.5191 13.2915 16.0014 14.1381C15.6654 14.693 15.3748 15.2742 15.1324 15.876C15.0964 15.8361 15.0545 15.8018 15.0083 15.7742C14.7191 15.5992 13.6751 15.6935 13.4665 15.7519C13.0792 15.8611 13.0333 16.4657 13.0283 16.6494C13.0171 17.0566 13.1239 17.532 13.4553 17.6425C13.7449 17.7374 14.0481 17.784 14.3529 17.7803C14.1989 18 14.0276 18.2061 13.8774 18.3799ZM29.5101 16.2857V16.601C29.1166 16.7835 28.6014 17.0131 28.3631 17.0901C27.5115 17.1844 18.9385 17.1124 17.9206 17.0715C17.5271 17.0566 16.9535 16.8468 16.5675 16.6866C16.9982 15.4887 17.897 14.0946 18.3364 13.8166C18.5773 13.7197 20.0744 13.5162 23.1182 13.5162C26.1621 13.5162 27.6617 13.7197 27.8988 13.8166C28.2849 14.0586 29.0359 15.1709 29.5101 16.2857ZM16.8828 22.1624C16.7115 22.253 15.6302 21.9042 14.6359 21.6435L14.6694 20.844C15.3609 21.1209 16.4682 21.5293 17.0069 21.7664L16.8828 22.1624ZM31.4802 25.7872L31.4603 25.8431C31.3225 26.2453 30.8843 26.3781 30.5193 26.3682H15.7146C15.3658 26.3769 14.9313 26.244 14.7737 25.8406L14.7277 25.7251C14.5887 25.3875 14.549 25.2894 14.6036 23.0773L15.3633 23.256C15.4602 23.2784 15.6191 23.3169 15.7159 23.3417C16.0914 23.4343 16.4762 23.4839 16.8629 23.4894C17.1059 23.4937 17.3482 23.4615 17.5817 23.3938C17.8865 23.2936 18.155 23.1059 18.3537 22.854C18.5524 22.602 18.6725 22.2972 18.6989 21.9774C18.7399 21.3704 18.4097 20.8428 17.8188 20.5647C17.2279 20.2866 15.8102 19.7181 15.1225 19.4475C15.4605 19.0735 15.7591 18.6659 16.0138 18.2309C16.5513 18.4494 17.2614 18.6865 17.861 18.7101C17.9318 18.7101 21.9836 18.7771 25.1231 18.7771C28.09 18.7771 28.6287 18.72 28.7764 18.6791C29.2507 18.5145 29.7146 18.3213 30.1656 18.1006C30.4286 18.5803 30.7478 19.0271 31.1165 19.4313C30.425 19.7069 28.9974 20.2817 28.3991 20.5622C27.8007 20.8428 27.4767 21.3666 27.5177 21.9737C27.5438 22.2935 27.6637 22.5986 27.8625 22.8505C28.0612 23.1025 28.33 23.2902 28.6349 23.3901C28.8677 23.4589 29.1097 23.4915 29.3525 23.4869C29.7396 23.4811 30.1249 23.4311 30.5007 23.338L30.852 23.2523L31.6416 23.0673C31.6552 25.272 31.6552 25.2844 31.4827 25.7872H31.4802Z" fill="black"/>
</svg>
