<svg width="36" height="36" viewBox="0 0 36 36" fill="none" xmlns="http://www.w3.org/2000/svg">
<path d="M23.7241 11.211L23.4448 10.7864C23.354 10.6515 23.214 10.5576 23.0547 10.5249C22.8955 10.4922 22.7298 10.5232 22.5932 10.6114L17.6997 13.839L16.6283 13.2183L14.2101 11.8304C14.0683 11.75 13.9005 11.7286 13.743 11.7709C13.5855 11.8131 13.451 11.9157 13.3685 12.0564L13.1202 12.4958C13.0394 12.6378 13.0177 12.8059 13.06 12.9637C13.1023 13.1215 13.2051 13.2562 13.3461 13.3387L17.2962 15.6179C17.4366 15.6974 17.596 15.7371 17.7573 15.7325C17.9186 15.7279 18.0755 15.6792 18.2111 15.5918L23.549 12.0651C23.6846 11.9743 23.779 11.8338 23.8117 11.6739C23.8445 11.5141 23.813 11.3478 23.7241 11.211Z" fill="black"/>
<path d="M24.1884 20.7025C23.6011 20.7025 23.027 20.8767 22.5387 21.2029C22.0504 21.5292 21.6698 21.993 21.445 22.5356C21.2203 23.0781 21.1615 23.6752 21.2761 24.2512C21.3906 24.8272 21.6734 25.3563 22.0887 25.7716C22.504 26.1868 23.0331 26.4696 23.6091 26.5842C24.1851 26.6988 24.7821 26.64 25.3247 26.4152C25.8673 26.1905 26.331 25.8099 26.6573 25.3216C26.9836 24.8333 27.1578 24.2592 27.1578 23.6719C27.1568 22.8847 26.8436 22.13 26.287 21.5733C25.7303 21.0167 24.9756 20.7035 24.1884 20.7025ZM24.1884 24.9033C23.9448 24.9033 23.7067 24.8311 23.5042 24.6958C23.3017 24.5605 23.1439 24.3682 23.0507 24.1431C22.9575 23.9181 22.9331 23.6705 22.9806 23.4316C23.0281 23.1928 23.1454 22.9733 23.3176 22.8011C23.4898 22.6289 23.7093 22.5116 23.9481 22.4641C24.187 22.4166 24.4346 22.441 24.6596 22.5342C24.8846 22.6274 25.077 22.7852 25.2123 22.9877C25.3476 23.1902 25.4198 23.4283 25.4198 23.6719C25.4195 23.9984 25.2896 24.3114 25.0588 24.5423C24.8279 24.7732 24.5149 24.903 24.1884 24.9033Z" fill="black"/>
<path d="M31.3039 24.6638L30.5491 24.1933C30.5789 23.8459 30.5789 23.4966 30.5491 23.1493L31.1984 22.7396C31.4206 22.6031 31.5903 22.3957 31.6804 22.151C31.7705 21.9062 31.7756 21.6383 31.6949 21.3902C31.3261 20.2316 30.7011 19.1709 29.8664 18.2868C29.6869 18.0899 29.4454 17.9604 29.1821 17.9197C28.9187 17.8791 28.6494 17.9298 28.4189 18.0634L27.7597 18.4432C28.287 17.0121 28.494 15.4827 28.366 13.9628C28.2379 12.443 27.7781 10.9698 27.0188 9.64701C26.2595 8.32424 25.2193 7.18413 23.9715 6.30707C22.7237 5.43001 21.2987 4.83736 19.7969 4.57089C18.2952 4.30443 16.7533 4.37065 15.2799 4.76487C13.8065 5.1591 12.4376 5.87174 11.2696 6.85254C10.1015 7.83335 9.16291 9.05844 8.51982 10.4414C7.87674 11.8244 7.54487 13.3317 7.54762 14.8569C7.54925 15.3843 7.59075 15.911 7.67175 16.4322C7.53024 16.5067 7.39244 16.5861 7.26086 16.6718L6.83382 16.4235C6.62795 16.3063 6.38848 16.2621 6.15433 16.2982C5.92018 16.3342 5.7051 16.4484 5.54403 16.6221C4.91184 17.282 4.44997 18.086 4.19838 18.9646C4.12772 19.1907 4.13577 19.4341 4.22122 19.655C4.30666 19.876 4.46446 20.0614 4.66886 20.1811L5.09341 20.4294C5.08215 20.6125 5.08091 20.7961 5.08969 20.9794L4.66141 21.2276C4.45663 21.3465 4.29867 21.5319 4.21377 21.753C4.12887 21.9741 4.12212 22.2175 4.19465 22.4429C4.44561 23.3215 4.90709 24.1256 5.53907 24.7854C5.69933 24.9608 5.91475 25.0761 6.14958 25.1123C6.3844 25.1484 6.62452 25.1032 6.8301 24.984L7.25837 24.7358C7.41048 24.8354 7.56796 24.9266 7.7301 25.0089V25.5054C7.73153 25.7413 7.81195 25.9699 7.95851 26.1547C8.10485 26.3417 8.31071 26.4731 8.54196 26.5271C8.98599 26.6314 9.4402 26.6864 9.8963 26.6909C10.352 26.6864 10.8058 26.6314 11.2494 26.5271C11.4809 26.4755 11.6879 26.3468 11.8366 26.1621C11.9852 25.9773 12.0667 25.7475 12.0675 25.5104V25.0138C12.2292 24.9319 12.3863 24.8412 12.538 24.742L12.9687 24.9902C13.1727 25.1094 13.4113 25.1553 13.645 25.1203C13.8787 25.0853 14.0934 24.9715 14.2535 24.7978C14.2995 24.7494 14.3442 24.6998 14.3876 24.6514C15.1024 24.9133 15.8438 25.096 16.5985 25.1963C16.5025 25.4438 16.4942 25.7168 16.5749 25.9697C16.9063 27.1339 17.5174 28.1994 18.3551 29.0731C18.5343 29.2696 18.7753 29.3989 19.0381 29.4396C19.301 29.4802 19.5698 29.4298 19.8 29.2966L20.5225 28.8782C20.8032 29.0732 21.0992 29.245 21.4076 29.3922V30.2214C21.4096 30.486 21.5001 30.7422 21.6649 30.9493C21.8296 31.1563 22.0589 31.3021 22.3163 31.3635C23.4925 31.6531 24.7214 31.6531 25.8977 31.3635C26.1566 31.3055 26.3882 31.1613 26.5544 30.9545C26.7206 30.7477 26.8117 30.4905 26.8126 30.2251V29.3947C27.1212 29.2476 27.4175 29.0761 27.6989 28.882L28.4214 29.2991C28.6497 29.4325 28.9167 29.4841 29.1783 29.4453C29.4399 29.4065 29.6804 29.2796 29.8601 29.0856C30.965 27.8988 31.6266 26.8337 31.8277 25.9188C31.8824 25.6811 31.8612 25.4323 31.7673 25.2072C31.6733 24.9821 31.5113 24.7921 31.3039 24.6638ZM13.3573 23.2498L12.3853 22.6875L11.9322 23.0773C11.6391 23.3275 11.3025 23.5215 10.9391 23.6496L10.3767 23.8494V24.9592C10.0587 24.9952 9.73763 24.9952 9.41961 24.9592V23.8519L8.85355 23.6508C8.49158 23.5248 8.15672 23.3315 7.86665 23.081L7.41231 22.69L6.4552 23.2474C6.26466 22.9899 6.10391 22.7117 5.97603 22.4181L6.93934 21.8607L6.82762 21.2773C6.75747 20.8986 6.75747 20.5102 6.82762 20.1315L6.9381 19.5431L5.96982 18.9931C6.09932 18.6971 6.26216 18.4168 6.4552 18.1577L7.41975 18.7151L7.87286 18.3253C8.16501 18.0741 8.50194 17.8804 8.86596 17.7542L9.42955 17.5544V16.4434C9.74756 16.4073 10.0686 16.4073 10.3866 16.4434V17.5507L10.944 17.7518C11.308 17.878 11.6449 18.0718 11.9371 18.3228L12.3915 18.7126L13.3647 18.1515C13.5834 18.41 13.7736 18.6914 13.932 18.9907L12.9786 19.5406L13.0891 20.1253C13.1593 20.504 13.1593 20.8924 13.0891 21.2711L12.9774 21.8595L13.932 22.4094C13.7711 22.7094 13.5784 22.9911 13.3573 23.2498ZM18.3551 18.2843C17.465 19.2514 16.9821 20.0918 16.5762 21.3816C16.4956 21.635 16.5037 21.9083 16.5991 22.1565C16.6946 22.4046 16.8717 22.6129 17.1013 22.7471L17.8188 23.1629C17.8088 23.2871 17.8026 23.4112 17.8002 23.5416C17.0034 23.5263 16.2126 23.401 15.4502 23.1691C15.5799 22.9222 15.6779 22.6598 15.742 22.3883C15.7879 22.1777 15.7677 21.9579 15.6839 21.7592C15.6001 21.5606 15.4569 21.3926 15.274 21.2785L14.8159 20.993C14.8271 20.8037 14.8271 20.6138 14.8159 20.4245L15.197 20.1849C15.3953 20.0624 15.5467 19.8769 15.6269 19.6581C15.707 19.4392 15.7113 19.1998 15.6389 18.9782C15.3614 18.1018 14.8895 17.2994 14.2585 16.6308C14.0982 16.4551 13.8826 16.3395 13.6476 16.3031C13.4125 16.2668 13.1721 16.3119 12.9662 16.4309L12.538 16.6792C12.3865 16.5796 12.2294 16.4888 12.0675 16.4074V15.9108C12.0659 15.6734 11.9839 15.4434 11.8349 15.2586C11.6859 15.0737 11.4786 14.9448 11.2469 14.8929C10.6072 14.7395 9.94577 14.6975 9.29175 14.7687C9.30372 13.5682 9.56456 12.3833 10.0578 11.2887C10.551 10.1942 11.266 9.21381 12.1574 8.40962C13.0488 7.60543 14.0973 6.99488 15.2367 6.61656C16.3761 6.23824 17.5816 6.10037 18.777 6.21165C19.9724 6.32294 21.1317 6.68097 22.1816 7.26311C23.2316 7.84526 24.1494 8.63887 24.8771 9.59379C25.6047 10.5487 26.1264 11.6442 26.4091 12.811C26.6918 13.9778 26.7294 15.1905 26.5196 16.3726C26.358 16.1851 26.1404 16.0545 25.8989 16.0002C24.5793 15.7109 23.611 15.7109 22.325 16.0002C22.0648 16.0556 21.8316 16.1991 21.6649 16.4065C21.4983 16.6139 21.4082 16.8725 21.4101 17.1385V17.969C21.1017 18.1158 20.8057 18.2873 20.525 18.4817L19.8037 18.0646C19.5734 17.9313 19.3046 17.8802 19.0414 17.9196C18.7782 17.9591 18.5362 18.0868 18.3551 18.2818V18.2843ZM28.7019 22.8414C28.8012 23.3885 28.8012 23.9491 28.7019 24.4962L28.5778 25.1169L29.9235 25.894C29.6506 26.4654 29.2983 26.9953 28.877 27.468L27.5276 26.6897L27.0459 27.1043C26.6245 27.466 26.1396 27.7463 25.6159 27.9311L25.0163 28.1434V29.7C24.4156 29.7907 23.8046 29.7907 23.2039 29.7V28.1446L22.6031 27.9311C22.0796 27.7485 21.5953 27.4689 21.1755 27.1068L20.6926 26.6897L19.3407 27.4718C18.9624 26.9964 18.6566 26.4676 18.4333 25.9027L19.7851 25.1231L19.6672 24.5024C19.5679 23.9553 19.5679 23.3947 19.6672 22.8476L19.7851 22.2269L18.4333 21.4474C18.6555 20.8819 18.9614 20.3529 19.3407 19.8782L20.6926 20.6578L21.1742 20.2432C21.5966 19.8824 22.0818 19.6026 22.6055 19.4177L23.2039 19.2054V17.6438C23.8047 17.5544 24.4155 17.5544 25.0163 17.6438V19.1967L25.6171 19.4102C26.1406 19.5928 26.6249 19.8724 27.0447 20.2345L27.5276 20.6504L28.8844 19.8621C29.3047 20.3354 29.6565 20.8652 29.9297 21.4362L28.584 22.2207L28.7019 22.8414Z" fill="black"/>
<path d="M9.95586 18.6914C9.55811 18.6914 9.1693 18.8093 8.83859 19.0303C8.50788 19.2513 8.25012 19.5654 8.09791 19.9329C7.9457 20.3003 7.90587 20.7047 7.98347 21.0948C8.06106 21.4849 8.2526 21.8432 8.53384 22.1245C8.81509 22.4057 9.17342 22.5972 9.56353 22.6748C9.95363 22.7524 10.358 22.7126 10.7255 22.5604C11.0929 22.4082 11.407 22.1504 11.628 21.8197C11.8489 21.489 11.9669 21.1002 11.9669 20.7024C11.9662 20.1693 11.7542 19.6582 11.3772 19.2812C11.0002 18.9041 10.489 18.6921 9.95586 18.6914ZM9.95586 21.3058C9.83654 21.3058 9.71989 21.2704 9.62068 21.2041C9.52147 21.1378 9.44414 21.0436 9.39847 20.9333C9.35281 20.8231 9.34086 20.7018 9.36414 20.5847C9.38742 20.4677 9.44488 20.3602 9.52925 20.2758C9.61363 20.1915 9.72113 20.134 9.83816 20.1107C9.95519 20.0874 10.0765 20.0994 10.1867 20.1451C10.297 20.1907 10.3912 20.268 10.4575 20.3673C10.5238 20.4665 10.5592 20.5831 10.5592 20.7024C10.5588 20.8624 10.4952 21.0156 10.3821 21.1287C10.269 21.2418 10.1158 21.3054 9.95586 21.3058Z" fill="black"/>
</svg>
