<svg width="36" height="36" viewBox="0 0 36 36" fill="none" xmlns="http://www.w3.org/2000/svg">
<path d="M10.1918 24.835C10.3544 24.5309 10.2923 24.1138 10.0205 23.6917C9.71012 23.2076 9.1515 22.7446 8.42033 22.351C7.70281 21.9675 7.0275 21.7664 6.46143 21.7664H6.4155C5.91895 21.7763 5.53288 21.9563 5.37026 22.2629L4.79302 23.3379C4.60557 23.6893 4.67757 24.1535 4.99412 24.6464C5.37752 25.2 5.89293 25.6493 6.49371 25.9535C7.06782 26.2745 7.71077 26.4525 8.36819 26.4724C8.97895 26.4724 9.42088 26.2738 9.60957 25.9113L10.1918 24.835ZM6.97785 22.1388C7.43102 22.2379 7.8678 22.4009 8.27509 22.6229C8.79556 22.8884 9.25936 23.2527 9.64061 23.6955C9.95343 24.0865 10.054 24.4403 9.91992 24.6886C9.86879 24.7709 9.79967 24.8406 9.71776 24.8924C9.63585 24.9442 9.54326 24.9768 9.44695 24.9877H9.42585L9.41467 24.9691C9.20488 24.6128 8.7493 24.079 7.77357 23.5577C7.37414 23.3375 6.94762 23.1706 6.50488 23.0611L6.4664 23.0512L6.96295 22.1276L6.97785 22.1388ZM9.07329 25.0175H9.0075C8.40296 24.9577 7.81724 24.7739 7.28695 24.4775C6.74561 24.202 6.26684 23.8178 5.88047 23.3491L5.84074 23.2945H5.90778C6.51201 23.3539 7.0974 23.5378 7.62709 23.8345C8.16886 24.1094 8.64776 24.4936 9.03357 24.9629L9.07329 25.0175ZM5.64336 22.4106C5.7675 22.1698 6.10143 22.0544 6.57316 22.0866H6.62157L6.13495 23.0028H6.11385C5.97214 22.9863 5.82929 22.9817 5.68681 22.9891H5.66571L5.65702 22.9693C5.61202 22.8828 5.58739 22.7871 5.58502 22.6897C5.58265 22.5922 5.60261 22.4955 5.64336 22.4069V22.4106ZM9.34143 25.7748C9.20612 26.0293 8.84488 26.1745 8.36447 26.1745H8.3533C7.75168 26.1505 7.16426 25.9846 6.63895 25.6904C6.10101 25.4171 5.6359 25.0197 5.28212 24.5309C5.01274 24.1312 4.93205 23.7426 5.06488 23.4919L5.33674 22.9829L5.36157 23.0475C5.48571 23.3963 5.8904 24.0815 7.14171 24.7494C8.39302 25.4173 9.18502 25.3701 9.54626 25.2819L9.6133 25.2658L9.34143 25.7748Z" fill="black"/>
<path d="M6.45508 24.5211C6.41186 24.4954 6.36028 24.4878 6.31149 24.4999C6.2627 24.5119 6.22063 24.5428 6.19439 24.5856L6.05659 24.8128C6.04136 24.8341 6.0307 24.8583 6.02526 24.8839C6.01982 24.9095 6.01974 24.9359 6.02501 24.9616C6.03027 24.9872 6.04078 25.0115 6.05587 25.0329C6.07096 25.0542 6.0903 25.0723 6.11269 25.0858C6.13508 25.0994 6.16002 25.1082 6.18596 25.1116C6.21191 25.1151 6.23828 25.1131 6.26344 25.1059C6.28859 25.0987 6.31198 25.0864 6.33214 25.0697C6.3523 25.053 6.3688 25.0323 6.3806 25.0089L6.51839 24.7818C6.5445 24.7388 6.5525 24.6872 6.54063 24.6383C6.52876 24.5895 6.49799 24.5473 6.45508 24.5211Z" fill="black"/>
<path d="M6.78531 25.3168C6.88746 25.3168 6.97028 25.234 6.97028 25.1319C6.97028 25.0297 6.88746 24.9469 6.78531 24.9469C6.68315 24.9469 6.60034 25.0297 6.60034 25.1319C6.60034 25.234 6.68315 25.3168 6.78531 25.3168Z" fill="black"/>
<path d="M7.27197 25.2249C7.23706 25.2249 7.20293 25.2352 7.17391 25.2546C7.1449 25.2741 7.12231 25.3017 7.109 25.334C7.0957 25.3662 7.09228 25.4018 7.09918 25.436C7.10608 25.4702 7.123 25.5016 7.14777 25.5262C7.17255 25.5508 7.20408 25.5675 7.23835 25.5742C7.27263 25.5808 7.30811 25.5772 7.34029 25.5636C7.37248 25.5501 7.39992 25.5273 7.41914 25.4982C7.43836 25.469 7.44849 25.4348 7.44825 25.3999C7.44792 25.3534 7.4292 25.3088 7.39618 25.276C7.36316 25.2433 7.31851 25.2249 7.27197 25.2249Z" fill="black"/>
<path d="M7.76736 25.7536C7.85923 25.7536 7.9337 25.6791 7.9337 25.5872C7.9337 25.4954 7.85923 25.4209 7.76736 25.4209C7.67549 25.4209 7.60101 25.4954 7.60101 25.5872C7.60101 25.6791 7.67549 25.7536 7.76736 25.7536Z" fill="black"/>
<path d="M8.24772 25.549C8.21673 25.549 8.18644 25.5582 8.16069 25.5754C8.13494 25.5926 8.1149 25.6171 8.10309 25.6458C8.09129 25.6745 8.08827 25.706 8.09441 25.7363C8.10054 25.7667 8.11556 25.7946 8.13756 25.8164C8.15956 25.8382 8.18755 25.853 8.21797 25.8589C8.24839 25.8648 8.27988 25.8615 8.30844 25.8495C8.337 25.8375 8.36134 25.8172 8.37838 25.7914C8.39541 25.7655 8.40438 25.7351 8.40413 25.7041C8.40413 25.6836 8.40008 25.6634 8.3922 25.6445C8.38433 25.6255 8.37278 25.6084 8.35824 25.594C8.3437 25.5795 8.32645 25.5681 8.30748 25.5604C8.28851 25.5527 8.2682 25.5488 8.24772 25.549Z" fill="black"/>
<path d="M8.73688 25.8704C8.81778 25.8704 8.88336 25.8048 8.88336 25.7239C8.88336 25.643 8.81778 25.5774 8.73688 25.5774C8.65598 25.5774 8.59039 25.643 8.59039 25.7239C8.59039 25.8048 8.65598 25.8704 8.73688 25.8704Z" fill="black"/>
<path d="M12.101 6.67861C12.1412 6.71722 12.1948 6.73879 12.2506 6.73879C12.3063 6.73879 12.3599 6.71722 12.4002 6.67861C12.8781 6.24069 13.5029 5.99778 14.1511 5.99778C14.7994 5.99778 15.4241 6.24069 15.9021 6.67861C15.9388 6.71269 15.9862 6.73304 16.0362 6.73621C16.0862 6.73938 16.1357 6.72517 16.1764 6.69599L16.2 6.67612L16.3242 6.55199H16.3304C16.3694 6.51039 16.3903 6.45506 16.3887 6.39806C16.3883 6.36978 16.3821 6.34189 16.3706 6.31606C16.3591 6.29024 16.3424 6.26703 16.3217 6.24785C15.7292 5.70332 14.9539 5.40112 14.1493 5.40112C13.3446 5.40112 12.5693 5.70332 11.9768 6.24785V6.25406C11.9367 6.29451 11.9142 6.34916 11.9142 6.40612C11.9142 6.46309 11.9367 6.51774 11.9768 6.55819L12.101 6.67861Z" fill="black"/>
<path d="M12.7428 7.16771L12.7329 7.1764C12.6927 7.21706 12.6702 7.27192 12.6702 7.32909C12.6702 7.38625 12.6927 7.44112 12.7329 7.48178L12.857 7.60592L12.8719 7.61957C12.9129 7.6528 12.9644 7.6701 13.0171 7.66828C13.0699 7.66645 13.1201 7.64563 13.1587 7.60964C13.4338 7.36961 13.7866 7.23736 14.1518 7.23736C14.5169 7.23736 14.8697 7.36961 15.1449 7.60964C15.1817 7.64274 15.2287 7.66225 15.2782 7.66496C15.3276 7.66767 15.3765 7.65341 15.4167 7.62454L15.4391 7.60468L15.5632 7.48054L15.5719 7.47185C15.6099 7.42948 15.6298 7.37387 15.6273 7.31699C15.6247 7.26011 15.5999 7.2065 15.5583 7.16771C15.17 6.82372 14.6692 6.63379 14.1505 6.63379C13.6318 6.63379 13.1311 6.82372 12.7428 7.16771Z" fill="black"/>
<path d="M18.4332 13.2714C18.6257 13.2711 18.8142 13.2166 18.9772 13.1144C19.1403 13.0121 19.2714 12.8661 19.3555 12.693C19.5976 12.7088 19.8405 12.6814 20.0731 12.6123C20.2037 12.5598 20.3133 12.4655 20.3846 12.3441C20.4289 12.2637 20.4595 12.1764 20.4753 12.0859C20.4959 11.9571 20.505 11.8266 20.5026 11.6961C20.5025 11.5059 20.4644 11.3176 20.3904 11.1424C20.3164 10.9671 20.2081 10.8084 20.0718 10.6757C19.8233 10.437 19.5301 10.2496 19.2091 10.1245C18.8538 9.98045 18.4831 9.87797 18.1042 9.81917C17.7715 9.556 16.4259 8.6051 14.2932 8.6051C13.5191 8.59375 12.7452 8.63523 11.9768 8.72924C11.6044 8.79007 11.4194 8.80496 11.0073 9.3611C10.7842 9.63823 10.5821 9.93159 10.4027 10.2388L10.3891 10.2723V10.2897C10.3749 10.3422 10.3645 10.3957 10.358 10.4498C10.358 10.4982 10.3444 10.5553 10.3382 10.6236C10.3382 10.6559 10.3382 10.6869 10.3295 10.7142C10.2935 10.7492 10.2603 10.787 10.2302 10.8272C10.0935 11.0138 10.0224 11.2403 10.0278 11.4714C10.0278 11.6874 10.0762 12.2163 10.512 12.5068C10.5844 12.5504 10.6609 12.5869 10.7404 12.616C10.8126 12.8064 10.94 12.971 11.1063 13.0886C11.2726 13.2063 11.4701 13.2717 11.6737 13.2765C11.8774 13.2813 12.0778 13.2252 12.2494 13.1155C12.421 13.0059 12.556 12.8475 12.6372 12.6607H17.4997C17.5802 12.8414 17.7111 12.995 17.8766 13.1033C18.0422 13.2116 18.2354 13.27 18.4332 13.2714ZM18.7473 12.5601C18.6637 12.6434 18.5506 12.6902 18.4326 12.6902C18.3146 12.6902 18.2014 12.6434 18.1179 12.5601C18.0559 12.4977 18.0138 12.4184 17.9968 12.3321C17.9798 12.2458 17.9887 12.1565 18.0224 12.0752C18.0562 11.994 18.1131 11.9246 18.1862 11.8757C18.2593 11.8268 18.3453 11.8006 18.4332 11.8004C18.521 11.8008 18.6068 11.8272 18.6797 11.8762C18.7526 11.9252 18.8094 11.9946 18.8429 12.0758C18.8765 12.157 18.8853 12.2463 18.8683 12.3324C18.8513 12.4186 18.8092 12.4978 18.7473 12.5601ZM17.2216 9.93089C16.591 10.0364 15.6513 10.055 14.7463 10.0364L14.6979 9.19848C15.5834 9.25022 16.446 9.50054 17.2216 9.93089ZM14.1045 9.18607L14.1517 10.019C13.5968 9.99793 13.0866 9.96689 12.7092 9.93834L12.6459 9.23572C13.0009 9.21089 13.4838 9.18607 14.1045 9.18607ZM12.0066 12.5601C11.9353 12.634 11.8407 12.6808 11.7388 12.6927C11.6369 12.7045 11.534 12.6807 11.4477 12.6251C11.3615 12.5696 11.2971 12.4859 11.2657 12.3882C11.2343 12.2905 11.2377 12.185 11.2754 12.0896C11.3132 11.9942 11.3828 11.9148 11.4725 11.865C11.5622 11.8152 11.6664 11.7981 11.7673 11.8165C11.8683 11.835 11.9597 11.8879 12.0259 11.9663C12.0922 12.0446 12.1292 12.1435 12.1307 12.2461C12.1325 12.3631 12.0879 12.476 12.0066 12.5601ZM12.7017 12.076C12.6656 11.8491 12.5542 11.6409 12.3855 11.4848C12.2168 11.3288 12.0006 11.2339 11.7716 11.2154C11.5425 11.197 11.3139 11.256 11.1224 11.383C10.9309 11.51 10.7876 11.6977 10.7155 11.9159C10.6718 11.8539 10.6399 11.7845 10.6212 11.711C10.6025 11.6296 10.5942 11.5462 10.5964 11.4628C10.5925 11.3978 10.6027 11.3328 10.6263 11.2722C10.6498 11.2116 10.6862 11.1567 10.7329 11.1114L10.7466 11.1003L10.8446 11.001C10.8678 10.9633 10.8818 10.9208 10.8856 10.8768C10.8856 10.8607 10.8856 10.816 10.8968 10.7527C10.908 10.6894 10.9104 10.6012 10.9216 10.523C10.9216 10.5007 10.9216 10.4808 10.9303 10.4672C11.0606 10.2362 11.2105 10.0169 11.3784 9.81172C11.4777 9.68758 11.5708 9.57214 11.6466 9.4902C11.7537 9.37851 11.8982 9.31004 12.0525 9.29779L12.1357 10.2388C12.1418 10.3096 12.1734 10.3759 12.2244 10.4253C12.2755 10.4748 12.3427 10.5042 12.4137 10.5081C12.5118 10.5168 13.9171 10.6323 15.3297 10.6323C16.339 10.6323 17.352 10.5714 17.8932 10.3666C17.9117 10.3731 17.9309 10.3776 17.9503 10.3803H17.9652H17.9987L18.1377 10.4039C18.2965 10.4329 18.4536 10.4706 18.6082 10.5168C18.8751 10.595 19.3655 10.7651 19.6597 11.073C19.7437 11.1515 19.8106 11.2465 19.8563 11.352C19.902 11.4575 19.9255 11.5712 19.9253 11.6862C19.9283 11.7877 19.9208 11.8892 19.903 11.9891C19.8997 12.012 19.8916 12.034 19.8794 12.0537C19.8674 12.0612 19.8545 12.067 19.8409 12.071C19.7134 12.099 19.5827 12.1099 19.4524 12.1033C19.4209 11.8593 19.3028 11.6348 19.1195 11.4707C18.9363 11.3066 18.7002 11.2138 18.4542 11.2093C18.2083 11.2047 17.9689 11.2888 17.7798 11.4461C17.5906 11.6034 17.4644 11.8234 17.424 12.0661L12.7017 12.076Z" fill="black"/>
<path d="M29.9173 16.4817H27.4346C27.2901 16.482 27.1517 16.5395 27.0496 16.6417C26.9474 16.7438 26.8899 16.8822 26.8896 17.0267V21.6309C26.8899 21.7754 26.9474 21.9138 27.0496 22.0159C27.1517 22.118 27.2901 22.1756 27.4346 22.1759H29.9173C30.0617 22.1756 30.2002 22.118 30.3023 22.0159C30.4044 21.9138 30.4619 21.7754 30.4623 21.6309V17.0267C30.4619 16.8822 30.4044 16.7438 30.3023 16.6417C30.2002 16.5395 30.0617 16.482 29.9173 16.4817ZM30.0824 21.6309C30.0821 21.6746 30.0646 21.7164 30.0337 21.7473C30.0028 21.7782 29.961 21.7957 29.9173 21.796H27.4346C27.391 21.7957 27.3493 21.7782 27.3186 21.7472C27.2879 21.7163 27.2707 21.6745 27.2707 21.6309V17.0267C27.2707 16.9832 27.288 16.9415 27.3187 16.9108C27.3494 16.8801 27.3911 16.8628 27.4346 16.8628H29.9173C29.9609 16.8628 30.0027 16.88 30.0336 16.9107C30.0645 16.9414 30.0821 16.9831 30.0824 17.0267V21.6309Z" fill="black"/>
<path d="M27.5587 20.8031H29.8155V17.1311H27.5587V20.8031ZM27.9311 17.5035H29.453V20.4357H27.9211L27.9311 17.5035Z" fill="black"/>
<path d="M28.6821 20.9991C28.6222 20.9989 28.5635 21.0165 28.5135 21.0496C28.4635 21.0827 28.4245 21.1299 28.4014 21.1853C28.3783 21.2406 28.3721 21.3015 28.3837 21.3604C28.3952 21.4192 28.424 21.4733 28.4663 21.5158C28.5086 21.5583 28.5625 21.5872 28.6213 21.599C28.6801 21.6108 28.7411 21.6049 28.7965 21.582C28.8519 21.5591 28.8993 21.5203 28.9326 21.4705C28.966 21.4206 28.9838 21.362 28.9838 21.302C28.9838 21.2219 28.952 21.1451 28.8955 21.0883C28.839 21.0315 28.7622 20.9995 28.6821 20.9991Z" fill="black"/>
<path d="M31.8191 17.938C31.8015 17.9369 31.7839 17.9395 31.7674 17.9457C31.751 17.9519 31.736 17.9616 31.7235 17.974L31.6453 18.0534L31.6329 18.0683C31.6148 18.0936 31.606 18.1244 31.608 18.1554C31.61 18.1864 31.6228 18.2158 31.6441 18.2384C31.9148 18.5356 32.0649 18.9232 32.0649 19.3252C32.0649 19.7273 31.9148 20.1149 31.6441 20.4121C31.6205 20.4373 31.6074 20.4706 31.6074 20.5052C31.6074 20.5397 31.6205 20.573 31.6441 20.5983L31.721 20.6765C31.7334 20.6889 31.7481 20.6988 31.7643 20.7056C31.7805 20.7123 31.7978 20.7158 31.8154 20.7158C31.8329 20.7158 31.8503 20.7123 31.8665 20.7056C31.8827 20.6988 31.8974 20.6889 31.9097 20.6765C32.2478 20.3084 32.4353 19.8268 32.4353 19.3271C32.4353 18.8273 32.2478 18.3458 31.9097 17.9777C31.8858 17.9533 31.8533 17.9391 31.8191 17.938Z" fill="black"/>
<path d="M31.3411 18.4518C31.3172 18.4258 31.2839 18.4102 31.2486 18.4086C31.2132 18.407 31.1787 18.4194 31.1524 18.4431L31.0742 18.5226L31.0618 18.5375C31.0437 18.5623 31.0346 18.5927 31.0362 18.6234C31.0378 18.6542 31.0499 18.6834 31.0705 18.7063C31.22 18.8768 31.3025 19.0958 31.3025 19.3226C31.3025 19.5494 31.22 19.7685 31.0705 19.939C31.0498 19.9634 31.0384 19.9944 31.0384 20.0265C31.0384 20.0586 31.0498 20.0896 31.0705 20.114L31.0779 20.1239L31.1549 20.2022C31.1673 20.2146 31.182 20.2245 31.1981 20.2313C31.2143 20.238 31.2317 20.2415 31.2492 20.2415C31.2668 20.2415 31.2842 20.238 31.3004 20.2313C31.3165 20.2245 31.3312 20.2146 31.3436 20.2022V20.1959C31.5557 19.9548 31.6724 19.6445 31.672 19.3234C31.6715 19.0023 31.5539 18.6923 31.3411 18.4518Z" fill="black"/>
<path d="M26.4985 7.08325C26.5143 7.08315 26.5294 7.07692 26.5407 7.06587L26.5842 7.02242C26.5952 7.01067 26.6014 6.99513 26.6014 6.97897C26.6014 6.96282 26.5952 6.94727 26.5842 6.93552C26.4332 6.77109 26.3495 6.55602 26.3495 6.33283C26.3495 6.10964 26.4332 5.89457 26.5842 5.73014C26.5952 5.71839 26.6014 5.70285 26.6014 5.68669C26.6014 5.67054 26.5952 5.655 26.5842 5.64325L26.5407 5.5998C26.5351 5.59395 26.5283 5.58929 26.5209 5.58609C26.5134 5.5829 26.5054 5.58122 26.4973 5.58118C26.4894 5.58116 26.4817 5.58268 26.4744 5.58567C26.4672 5.58865 26.4606 5.59303 26.455 5.59856C26.2713 5.79797 26.1693 6.0592 26.1693 6.33035C26.1693 6.6015 26.2713 6.86273 26.455 7.06215C26.4663 7.07454 26.4818 7.0821 26.4985 7.08325Z" fill="black"/>
<path d="M26.7666 6.80395C26.7723 6.81104 26.7795 6.81681 26.7876 6.82088C26.7958 6.82495 26.8047 6.82722 26.8138 6.82753C26.8294 6.82765 26.8444 6.82188 26.856 6.81139L26.8982 6.76795C26.9088 6.75647 26.9148 6.74139 26.9148 6.72574C26.9148 6.71008 26.9088 6.69501 26.8982 6.68353C26.8148 6.5879 26.7689 6.46531 26.7689 6.33843C26.7689 6.21155 26.8148 6.08896 26.8982 5.99333C26.9075 5.98168 26.9125 5.96724 26.9125 5.95236C26.9125 5.93748 26.9075 5.92304 26.8982 5.9114L26.856 5.86919C26.8502 5.86337 26.8434 5.85876 26.8358 5.8556C26.8282 5.85245 26.8201 5.85083 26.8119 5.85083C26.8037 5.85083 26.7956 5.85245 26.7881 5.8556C26.7805 5.85876 26.7736 5.86337 26.7679 5.86919C26.6545 5.99845 26.592 6.16443 26.5917 6.33633C26.5915 6.50824 26.6536 6.67438 26.7666 6.80395Z" fill="black"/>
<path d="M28.6648 6.33107C28.665 6.55495 28.5802 6.77057 28.4277 6.93438C28.4163 6.94599 28.4099 6.96159 28.4099 6.97783C28.4099 6.99408 28.4163 7.00968 28.4277 7.02128L28.4699 7.06473C28.4817 7.07661 28.4978 7.08331 28.5146 7.08335C28.5224 7.08337 28.5301 7.08184 28.5374 7.07886C28.5446 7.07588 28.5512 7.0715 28.5568 7.06597C28.7405 6.86655 28.8425 6.60533 28.8425 6.33418C28.8425 6.06303 28.7405 5.8018 28.5568 5.60238C28.5453 5.59045 28.5298 5.58334 28.5133 5.58252C28.4976 5.58286 28.4825 5.58906 28.4711 5.5999L28.4277 5.64335C28.4166 5.6551 28.4104 5.67064 28.4104 5.6868C28.4104 5.70295 28.4166 5.71849 28.4277 5.73024C28.5797 5.89343 28.6644 6.10806 28.6648 6.33107Z" fill="black"/>
<path d="M28.1147 6.67601C28.1039 6.6879 28.0979 6.70339 28.0979 6.71946C28.0979 6.73553 28.1039 6.75103 28.1147 6.76291L28.1569 6.80512C28.1688 6.817 28.1848 6.8237 28.2016 6.82374C28.2178 6.82384 28.2334 6.8176 28.245 6.80636C28.3609 6.6763 28.4249 6.5082 28.4249 6.33402C28.4249 6.15983 28.3609 5.99173 28.245 5.86167C28.2397 5.85542 28.233 5.85041 28.2255 5.84698C28.218 5.84355 28.2098 5.84179 28.2016 5.84181C28.194 5.84165 28.1865 5.843 28.1795 5.84577C28.1725 5.84854 28.1661 5.85268 28.1606 5.85795L28.1184 5.90139C28.1078 5.91287 28.1019 5.92795 28.1019 5.9436C28.1019 5.95926 28.1078 5.97433 28.1184 5.98581C28.2013 6.08189 28.2466 6.20473 28.2459 6.33161C28.2452 6.45849 28.1986 6.58083 28.1147 6.67601Z" fill="black"/>
<path d="M27.2931 6.59785L26.5768 8.24393C26.5714 8.25679 26.5712 8.27126 26.5763 8.28426C26.5814 8.29725 26.5914 8.30773 26.6041 8.31345L26.6811 8.34696C26.6875 8.34973 26.6945 8.35115 26.7016 8.35115C26.7086 8.35115 26.7156 8.34973 26.722 8.34696C26.735 8.34121 26.7455 8.33111 26.7518 8.31841L26.9542 7.85165L27.5053 7.37496L28.0652 7.8591L28.2638 8.31841C28.2666 8.32487 28.2707 8.33071 28.2758 8.33559C28.2809 8.34046 28.2869 8.34428 28.2935 8.34682C28.3001 8.34936 28.3071 8.35057 28.3142 8.35038C28.3212 8.35019 28.3281 8.34861 28.3346 8.34572L28.4115 8.3122C28.4243 8.30649 28.4343 8.29601 28.4394 8.28302C28.4445 8.27002 28.4443 8.25554 28.4389 8.24269L27.7226 6.59537C27.7776 6.54999 27.8173 6.48873 27.8362 6.41995C27.8551 6.35117 27.8523 6.27823 27.8282 6.2111C27.8041 6.14396 27.7598 6.08591 27.7015 6.04487C27.6432 6.00384 27.5736 5.98181 27.5022 5.98181C27.4309 5.98181 27.3613 6.00384 27.303 6.04487C27.2446 6.08591 27.2004 6.14396 27.1763 6.2111C27.1522 6.27823 27.1494 6.35117 27.1683 6.41995C27.1872 6.48873 27.2269 6.54999 27.2819 6.59537L27.2931 6.59785ZM27.1242 7.46682L27.2558 7.16392L27.3651 7.25827L27.1242 7.46682ZM27.7586 7.16144L27.8951 7.47427L27.6469 7.25827L27.7586 7.16144ZM27.5103 6.16834C27.5408 6.16909 27.5704 6.17874 27.5955 6.1961C27.6206 6.21347 27.64 6.23779 27.6515 6.26607C27.6629 6.29435 27.6658 6.32536 27.6599 6.35528C27.6539 6.38519 27.6393 6.41271 27.6179 6.43445C27.5965 6.45619 27.5692 6.47119 27.5394 6.47761C27.5096 6.48403 27.4785 6.48159 27.4501 6.4706C27.4216 6.4596 27.397 6.44052 27.3792 6.41571C27.3615 6.3909 27.3514 6.36144 27.3502 6.33096C27.3495 6.31 27.3531 6.28913 27.3606 6.26957C27.3682 6.25002 27.3796 6.23219 27.3942 6.21713C27.4088 6.20208 27.4263 6.19011 27.4456 6.18194C27.4649 6.17377 27.4856 6.16957 27.5066 6.16958L27.5103 6.16834ZM27.4731 6.66489H27.4805C27.501 6.66861 27.5221 6.66861 27.5426 6.66489H27.55L27.6829 6.98144L27.5066 7.13289L27.334 6.98392L27.4731 6.66489Z" fill="black"/>
<path d="M19.8708 27.4578C19.871 27.4064 19.856 27.3561 19.8276 27.3132C19.7991 27.2704 19.7586 27.2369 19.7112 27.2171C19.6637 27.1973 19.6114 27.1921 19.561 27.2021C19.5106 27.212 19.4642 27.2368 19.4279 27.2731C19.3915 27.3095 19.3668 27.3558 19.3568 27.4063C19.3468 27.4567 19.3521 27.509 19.3719 27.5565C19.3916 27.6039 19.4251 27.6444 19.4679 27.6728C19.5108 27.7013 19.5611 27.7163 19.6126 27.7161C19.6809 27.7157 19.7464 27.6884 19.7948 27.6401C19.8431 27.5917 19.8704 27.5262 19.8708 27.4578Z" fill="black"/>
<path d="M22.5336 27.021C22.5088 27.0014 22.4787 26.9898 22.4472 26.9878C22.4157 26.9858 22.3843 26.9935 22.3573 27.0098L21.9514 27.2481L20.3289 26.9651C20.257 26.8606 20.1631 26.7731 20.0539 26.7087C19.9446 26.6443 19.8225 26.6047 19.6963 26.5925C19.57 26.5803 19.4426 26.596 19.3231 26.6383C19.2035 26.6806 19.0946 26.7485 19.0041 26.8374C18.9136 26.9262 18.8437 27.0338 18.7992 27.1526C18.7547 27.2714 18.7367 27.3984 18.7465 27.5249C18.7564 27.6513 18.7938 27.7741 18.8561 27.8845C18.9184 27.995 19.0042 28.0905 19.1074 28.1643L19.6796 30.1393H18.8504C18.8088 30.1393 18.7689 30.1557 18.7394 30.185C18.7098 30.2143 18.6931 30.2541 18.6927 30.2957V31.0976C18.6927 31.1394 18.7094 31.1795 18.7389 31.2091C18.7685 31.2387 18.8086 31.2553 18.8504 31.2553H22.2381C22.2799 31.2553 22.32 31.2387 22.3496 31.2091C22.3792 31.1795 22.3958 31.1394 22.3958 31.0976V30.2957C22.3955 30.2541 22.3787 30.2143 22.3492 30.185C22.3196 30.1557 22.2797 30.1393 22.2381 30.1393H21.065L20.3351 28.0898L21.8024 28.2623L22.0966 28.5814C22.1112 28.5975 22.129 28.6104 22.1489 28.6192C22.1688 28.628 22.1903 28.6324 22.2121 28.6323H22.2332L22.8538 28.5478C22.8928 28.5396 22.9271 28.5169 22.95 28.4844C22.9729 28.4519 22.9827 28.4119 22.9773 28.3725C22.972 28.3331 22.9519 28.2971 22.9212 28.2718C22.8905 28.2466 22.8513 28.2339 22.8116 28.2363L22.2692 28.3095L22.0209 28.0389L22.1041 27.5237L22.4231 27.3363L22.906 27.7087C22.9391 27.7318 22.9798 27.7413 23.0197 27.7353C23.0596 27.7293 23.0957 27.7082 23.1206 27.6764C23.1454 27.6445 23.1571 27.6044 23.1532 27.5642C23.1493 27.524 23.1301 27.4869 23.0996 27.4604L22.5336 27.021ZM19.0577 27.4579C19.0577 27.3482 19.0903 27.2409 19.1512 27.1496C19.2122 27.0584 19.2989 26.9873 19.4003 26.9453C19.5017 26.9033 19.6132 26.8923 19.7209 26.9137C19.8285 26.9351 19.9274 26.9879 20.005 27.0655C20.0826 27.1431 20.1354 27.242 20.1568 27.3497C20.1783 27.4573 20.1673 27.5689 20.1253 27.6703C20.0833 27.7717 20.0121 27.8583 19.9209 27.9193C19.8296 27.9803 19.7224 28.0128 19.6126 28.0128C19.4654 28.0128 19.3243 27.9543 19.2202 27.8503C19.1162 27.7462 19.0577 27.6051 19.0577 27.4579ZM22.0817 30.4534V30.9412H19.0068V30.4534H22.0817ZM20.7311 30.1393H20.0074L19.4785 28.3169C19.6736 28.3466 19.8729 28.3099 20.0446 28.2127L20.7311 30.1393ZM21.7242 27.9495L20.4245 27.7856C20.467 27.6816 20.4889 27.5703 20.489 27.4579C20.4888 27.4143 20.4855 27.3707 20.4791 27.3276L21.7912 27.5336L21.7242 27.9495Z" fill="black"/>
<path d="M30.3169 14.1814L28.7577 9.54613C29.2123 9.33021 29.6026 8.99926 29.89 8.58607C30.1773 8.17287 30.3517 7.69178 30.3959 7.19044C30.4401 6.6891 30.3525 6.18491 30.1419 5.72783C29.9313 5.27074 29.6049 4.87662 29.195 4.5845C28.7852 4.29238 28.3062 4.11241 27.8054 4.06241C27.3046 4.0124 26.7994 4.09411 26.3399 4.29943C25.8804 4.50474 25.4825 4.82655 25.1857 5.23296C24.8888 5.63938 24.7033 6.1163 24.6475 6.61648L21.8383 7.06461C21.3299 5.99682 20.5739 5.06588 19.6331 4.34927C18.6923 3.63266 17.594 3.15111 16.4295 2.94468C15.2651 2.73826 14.0681 2.81294 12.9384 3.16251C11.8086 3.51208 10.7786 4.12643 9.93423 4.95442C9.08983 5.78242 8.45539 6.80012 8.08371 7.92282C7.71204 9.04552 7.61388 10.2408 7.79741 11.409C7.98094 12.5773 8.44085 13.6849 9.13886 14.6396C9.83687 15.5942 10.7528 16.3684 11.8104 16.8976L10.3518 19.5864C9.44708 19.0225 8.39486 18.7409 7.32941 18.7776C6.26397 18.8144 5.23364 19.1678 4.36994 19.7927C3.50623 20.4176 2.84833 21.2857 2.48021 22.2862C2.11208 23.2867 2.05044 24.3742 2.30314 25.4099C2.55585 26.4456 3.11143 27.3825 3.89899 28.1011C4.68654 28.8196 5.67034 29.2871 6.7248 29.444C7.77927 29.601 8.85658 29.4401 9.81921 28.982C10.7818 28.5239 11.5861 27.7893 12.1294 26.8721L16.0609 28.5964C16.0485 28.7354 16.041 28.8744 16.041 29.0159C16.0402 29.6779 16.1795 30.3325 16.4499 30.9368C16.7202 31.541 17.1154 32.0812 17.6095 32.5217C18.1036 32.9622 18.6854 33.2931 19.3166 33.4926C19.9478 33.6921 20.614 33.7557 21.2716 33.6792C21.9291 33.6027 22.563 33.3879 23.1315 33.0488C23.7 32.7097 24.1903 32.2541 24.57 31.7119C24.9498 31.1697 25.2105 30.5532 25.3349 29.9031C25.4593 29.2529 25.4446 28.5838 25.2918 27.9397L27.5896 24.5457C28.2809 24.7601 29.0086 24.8324 29.7286 24.7581C30.4486 24.6839 31.1462 24.4647 31.7792 24.1137C32.4123 23.7627 32.9678 23.2872 33.4122 22.7159C33.8567 22.1445 34.1809 21.4892 34.3653 20.7892C34.5497 20.0892 34.5906 19.3592 34.4854 18.643C34.3803 17.9269 34.1312 17.2394 33.7533 16.622C33.3754 16.0047 32.8765 15.4702 32.2865 15.0507C31.6966 14.6313 31.0279 14.3356 30.3206 14.1814H30.3169ZM27.5176 4.79413C27.9416 4.79413 28.3561 4.91987 28.7086 5.15544C29.0612 5.39101 29.336 5.72583 29.4982 6.11757C29.6605 6.50931 29.703 6.94037 29.6202 7.35624C29.5375 7.77211 29.3333 8.15411 29.0335 8.45393C28.7337 8.75376 28.3517 8.95794 27.9358 9.04066C27.52 9.12339 27.0889 9.08093 26.6972 8.91867C26.3054 8.7564 25.9706 8.48162 25.735 8.12906C25.4995 7.7765 25.3737 7.36201 25.3737 6.93799C25.3744 6.36961 25.6005 5.82469 26.0024 5.42278C26.4043 5.02087 26.9492 4.79479 27.5176 4.79413ZM22.1312 7.77344L24.6612 7.36999C24.719 7.75412 24.8537 8.12262 25.0573 8.45342C25.2609 8.78422 25.5292 9.07052 25.8461 9.29516C26.1631 9.5198 26.522 9.67816 26.9016 9.76074C27.2812 9.84333 27.6735 9.84845 28.0551 9.77579L29.5001 14.071C29.402 14.071 29.3027 14.0623 29.2034 14.0623C27.8368 14.0594 26.521 14.58 25.5264 15.5172L21.878 13.3584C22.6875 11.6003 22.7766 9.59518 22.1263 7.7722L22.1312 7.77344ZM8.45123 10.2562C8.45123 8.93456 8.84315 7.64259 9.57741 6.54369C10.3117 5.44478 11.3553 4.58829 12.5764 4.08252C13.7974 3.57675 15.141 3.44441 16.4372 3.70225C17.7335 3.96009 18.9242 4.59652 19.8587 5.53107C20.7933 6.46561 21.4297 7.65629 21.6875 8.95254C21.9454 10.2488 21.813 11.5924 21.3073 12.8134C20.8015 14.0345 19.945 15.0781 18.8461 15.8124C17.7472 16.5466 16.4552 16.9386 15.1336 16.9386C13.3623 16.9366 11.6642 16.2323 10.4115 14.98C9.15882 13.7278 8.45386 12.0299 8.45123 10.2587V10.2562ZM7.51772 28.7528C6.60383 28.753 5.7104 28.4822 4.95041 27.9747C4.19043 27.4671 3.59802 26.7456 3.24813 25.9014C2.89823 25.0571 2.80655 24.1281 2.98469 23.2317C3.16283 22.3354 3.60278 21.512 4.24891 20.8657C4.89504 20.2194 5.71831 19.7792 6.61462 19.6008C7.51093 19.4224 8.44 19.5139 9.28434 19.8635C10.1287 20.2132 10.8504 20.8054 11.3581 21.5653C11.8659 22.3251 12.1369 23.2185 12.1369 24.1324C12.1369 25.358 11.6504 26.5336 10.7843 27.4008C9.91826 28.2681 8.74337 28.7561 7.51772 28.7577V28.7528ZM12.4671 26.2017C12.9083 25.1457 13.0001 23.9762 12.7289 22.8643C12.4578 21.7524 11.8379 20.7565 10.9601 20.0221L12.4944 17.1943C14.0457 17.7853 15.7504 17.8391 17.3358 17.347L19.4461 24.5035C18.6616 24.7291 17.9492 25.1549 17.379 25.739C16.8088 26.3232 16.4003 27.0456 16.1937 27.8354L12.4671 26.2017ZM20.731 32.9598C19.9509 32.9598 19.1884 32.7285 18.5399 32.2951C17.8913 31.8618 17.3858 31.2458 17.0873 30.5252C16.7888 29.8046 16.7107 29.0116 16.8629 28.2465C17.0151 27.4815 17.3907 26.7788 17.9422 26.2272C18.4938 25.6757 19.1965 25.3 19.9615 25.1479C20.7266 24.9957 21.5196 25.0738 22.2402 25.3723C22.9609 25.6708 23.5768 26.1763 24.0102 26.8249C24.4435 27.4734 24.6748 28.2359 24.6748 29.0159C24.6738 30.0616 24.258 31.0642 23.5186 31.8036C22.7792 32.543 21.7766 32.9588 20.731 32.9598ZM24.9889 27.062C24.6141 26.2477 24.0139 25.5578 23.2593 25.0738C22.5048 24.5898 21.6274 24.3321 20.731 24.331C20.5459 24.3314 20.3611 24.3426 20.1773 24.3645L18.0384 17.0937C19.5012 16.4676 20.726 15.3908 21.5341 14.0201L25.01 16.077C24.5034 16.7067 24.1459 17.4428 23.964 18.2301C23.7821 19.0175 23.7807 19.8359 23.9598 20.6239C24.1389 21.4119 24.4939 22.1492 24.9982 22.7806C25.5025 23.4121 26.1431 23.9213 26.8721 24.2701L24.9889 27.062ZM29.1972 24.0492C28.2832 24.0494 27.3897 23.7786 26.6297 23.271C25.8697 22.7634 25.2773 22.0418 24.9275 21.1975C24.5776 20.3532 24.486 19.4241 24.6642 18.5277C24.8425 17.6313 25.2825 16.8079 25.9288 16.1616C26.5751 15.5154 27.3984 15.0753 28.2948 14.8971C29.1912 14.7188 30.1203 14.8104 30.9647 15.1603C31.809 15.5102 32.5306 16.1026 33.0382 16.8626C33.5458 17.6226 33.8166 18.5161 33.8163 19.43C33.8144 20.6543 33.327 21.8278 32.4611 22.6932C31.5952 23.5586 30.4214 24.0454 29.1972 24.0467V24.0492Z" fill="black"/>
</svg>
