<svg width="36" height="36" viewBox="0 0 36 36" fill="none" xmlns="http://www.w3.org/2000/svg">
<path d="M28.4278 7.11328H7.53543C6.38095 7.11328 5.4375 8.05673 5.4375 9.1988V24.0829C5.4375 25.2374 6.38095 26.1684 7.53543 26.1684H14.7603V31.5436C14.7603 31.8663 14.9465 32.1643 15.232 32.3132C15.3561 32.3753 15.4927 32.4125 15.6292 32.4125C15.803 32.4125 15.9768 32.3629 16.1258 32.2512L17.9754 30.9477L19.8251 32.2512C20.0858 32.4374 20.4334 32.4622 20.7313 32.3132C21.0168 32.1643 21.203 31.8663 21.203 31.5436V26.1684H28.4278C29.5823 26.1684 30.5133 25.225 30.5133 24.0829V9.1988C30.5133 8.04432 29.5823 7.11328 28.4278 7.11328ZM17.9754 25.6594C16.5478 25.6594 15.3934 24.5049 15.3934 23.0774C15.3934 21.6498 16.5478 20.4953 17.9754 20.4953C19.403 20.4953 20.5575 21.6498 20.5575 23.0774C20.5575 24.5049 19.403 25.6594 17.9754 25.6594ZM18.4844 29.1974C18.1865 28.9863 17.7892 28.9863 17.4789 29.1974L16.4982 29.8925V27.1367C16.9575 27.3105 17.454 27.3974 17.9754 27.3974C18.4968 27.3974 18.9934 27.3105 19.4527 27.1367V29.8801L18.4844 29.1974ZM28.7878 24.0829C28.7878 24.2815 28.6264 24.4429 28.4278 24.4429H22.072C22.2209 24.0084 22.2954 23.5491 22.2954 23.065C22.2954 20.6815 20.3589 18.745 17.9754 18.745C15.592 18.745 13.6554 20.6815 13.6554 23.065C13.6554 23.5491 13.7299 24.0084 13.8789 24.4429H7.53543C7.33681 24.4429 7.17543 24.2815 7.17543 24.0829V9.1988C7.17543 9.00018 7.33681 8.83878 7.53543 8.83878H28.4278C28.6264 8.83878 28.7878 9.00018 28.7878 9.1988V24.0829Z" fill="black"/>
<path d="M13.6556 13.3449H22.2956C22.5687 13.3449 22.7921 13.1214 22.7921 12.8483V12.1159C22.7921 11.8428 22.5687 11.6194 22.2956 11.6194H13.6556C13.3825 11.6194 13.1591 11.8428 13.1591 12.1159V12.8483C13.1591 13.1214 13.3825 13.3449 13.6556 13.3449Z" fill="black"/>
<path d="M24.2446 15.0823H11.7066C11.4335 15.0823 11.2101 15.3057 11.2101 15.5788V16.3112C11.2101 16.5843 11.4335 16.8078 11.7066 16.8078H24.2446C24.5177 16.8078 24.7411 16.5843 24.7411 16.3112V15.5788C24.7411 15.3057 24.5177 15.0823 24.2446 15.0823Z" fill="black"/>
</svg>
