<svg width="36" height="36" viewBox="0 0 36 36" fill="none" xmlns="http://www.w3.org/2000/svg">
<path d="M18.9066 5.3252H18.8073C15.2818 5.3252 11.9673 6.43003 9.4721 8.44107C6.93969 10.4769 5.53694 13.1831 5.52453 16.0755C5.51212 18.4466 6.44314 20.7183 8.21831 22.6424L8.23072 22.6673L8.21831 22.6921C7.41142 24.7528 5.82245 26.4286 5.79763 26.4411C5.45004 26.8135 5.35073 27.3473 5.54935 27.8066C5.74797 28.2783 6.20728 28.5762 6.71625 28.5762H6.79073C9.919 28.5762 12.4142 27.2976 13.9535 26.23L13.9659 26.2176L13.9907 26.23C15.5424 26.7266 17.1562 26.9873 18.7949 26.9873H18.8817C22.4073 26.9873 25.7342 25.8824 28.2417 23.8714C30.7741 21.8356 32.1769 19.1293 32.1893 16.2369C32.2141 10.2659 26.2679 5.37485 18.9066 5.3252ZM27.0252 22.6549C24.8404 24.3555 21.948 25.2866 18.8817 25.2866H18.7949C17.33 25.2742 15.8776 25.0507 14.4749 24.5914L13.6804 24.3307L12.9976 24.8148C11.8804 25.5969 10.068 26.5776 7.82108 26.8259L7.72176 26.8383L7.78383 26.7514C8.41693 25.9569 9.2859 24.7031 9.8321 23.2631L10.2169 22.2824L9.49694 21.5128C8.00728 19.9114 7.22521 18.0369 7.23762 16.088C7.26245 11.0976 12.4638 7.02591 18.8197 7.02591H18.9066C22.01 7.03832 24.9148 8.01901 27.1121 9.75694C29.2969 11.4949 30.4886 13.7914 30.4762 16.2245C30.4514 18.67 29.2348 20.9418 27.0252 22.6549Z" fill="black"/>
<path d="M16.1638 16.1247C16.288 16.2488 16.4494 16.3109 16.6232 16.3109C16.797 16.3109 16.9583 16.2488 17.0825 16.1247L17.4052 15.802C17.6535 15.5537 17.6535 15.144 17.4052 14.8833L16.3625 13.8406H23.5128C23.8728 13.8406 24.1583 13.5551 24.1583 13.1951V12.7482C24.1583 12.3882 23.8728 12.1026 23.5128 12.1026H16.3625L17.4052 11.0599C17.5294 10.9358 17.5914 10.7744 17.5914 10.6006C17.5914 10.4268 17.5294 10.2654 17.4052 10.1413L17.0825 9.81853C16.9583 9.69439 16.797 9.63232 16.6232 9.63232C16.4494 9.63232 16.288 9.69439 16.1638 9.81853L13.4825 12.4999C13.3583 12.624 13.2963 12.7854 13.2963 12.9592C13.2963 13.133 13.3583 13.2944 13.4825 13.4185L16.1638 16.1247Z" fill="black"/>
<path d="M23.959 19.1036L21.2777 16.4098C21.1535 16.2857 20.9921 16.2236 20.8183 16.2236C20.6445 16.2236 20.4832 16.2857 20.359 16.4098L20.0363 16.7326C19.9121 16.8567 19.8501 17.0181 19.8501 17.1919C19.8501 17.3657 19.9121 17.5271 20.0363 17.6512L21.079 18.694H13.9287C13.5687 18.694 13.2832 18.9795 13.2832 19.3395V19.7864C13.2832 20.1464 13.5687 20.4319 13.9287 20.4319H21.079L20.0363 21.4746C19.9121 21.5988 19.8501 21.7601 19.8501 21.9339C19.8501 22.1077 19.9121 22.2691 20.0363 22.3932L20.359 22.716C20.4832 22.8401 20.6445 22.9022 20.8183 22.9022C20.9921 22.9022 21.1535 22.8401 21.2777 22.716L23.959 20.0346C24.2073 19.7615 24.2073 19.3519 23.959 19.1036Z" fill="black"/>
</svg>
