<svg width="36" height="36" viewBox="0 0 36 36" fill="none" xmlns="http://www.w3.org/2000/svg">
<path d="M18.9558 28.7756C18.9434 28.7756 18.931 28.7756 18.9186 28.7756C18.509 28.7632 18.1614 28.4529 18.0993 28.0432L15.9021 13.7922L14.8221 20.806C14.7601 21.1784 14.4745 21.4763 14.1021 21.526C13.7297 21.5881 13.3573 21.4018 13.1959 21.0667L12.178 19.0805L11.5077 20.9922C11.3835 21.3398 11.0608 21.5756 10.6884 21.5756H3.36431C2.88018 21.5756 2.49536 21.1908 2.49536 20.7067C2.49536 20.2225 2.88018 19.8377 3.36431 19.8377H10.0677L11.2097 16.5977C11.3215 16.2749 11.6194 16.0391 11.967 16.0143C12.3146 15.9894 12.6373 16.1756 12.7987 16.486L13.5187 17.8887L15.0455 7.94531C15.1076 7.52324 15.48 7.21289 15.9021 7.21289C16.3366 7.21289 16.6966 7.52324 16.7587 7.94531L19.1545 23.4874L21.4882 14.0405C21.5751 13.6681 21.9103 13.395 22.2951 13.3825C22.6799 13.3701 23.0275 13.606 23.1517 13.9784L25.3613 20.6074H32.9584C33.4426 20.6074 33.8274 20.9922 33.8274 21.4763C33.8274 21.9605 33.4426 22.3453 32.9584 22.3453H24.7406C24.3682 22.3453 24.033 22.1094 23.9213 21.7494L22.4689 17.3798L19.8124 28.1177C19.7006 28.5149 19.3531 28.7756 18.9558 28.7756Z" fill="black"/>
</svg>
