<svg width="36" height="36" viewBox="0 0 36 36" fill="none" xmlns="http://www.w3.org/2000/svg">
<path d="M15.0381 13.953V11.4702C15.0381 11.1357 14.9057 10.8147 14.6699 10.5775C14.434 10.3402 14.1139 10.206 13.7794 10.204H11.9645V6.09006C11.9645 5.95836 11.9121 5.83206 11.819 5.73894C11.7259 5.64582 11.5996 5.59351 11.4679 5.59351H10.7007C10.569 5.59351 10.4427 5.64582 10.3496 5.73894C10.2565 5.83206 10.2042 5.95836 10.2042 6.09006V10.204H8.39549C8.0601 10.2043 7.73854 10.3377 7.50139 10.5749C7.26423 10.812 7.13085 11.1336 7.13052 11.469V13.9517C7.13118 14.2869 7.2647 14.6081 7.50182 14.845C7.73895 15.0819 8.06032 15.2151 8.39549 15.2154H10.2042V29.9096C10.2042 30.0413 10.2565 30.1676 10.3496 30.2608C10.4427 30.3539 10.569 30.4062 10.7007 30.4062H11.4691C11.6008 30.4062 11.7271 30.3539 11.8203 30.2608C11.9134 30.1676 11.9657 30.0413 11.9657 29.9096V15.2167H13.7794C14.1135 15.2147 14.4332 15.0808 14.669 14.8441C14.9048 14.6074 15.0375 14.2871 15.0381 13.953ZM13.2828 11.9643V13.4539H8.8908V11.9643H13.2828Z" fill="black"/>
<path d="M20.689 20.783H18.8803V6.09006C18.8803 5.95836 18.828 5.83206 18.7348 5.73894C18.6417 5.64582 18.5154 5.59351 18.3837 5.59351H17.6166C17.4849 5.59351 17.3586 5.64582 17.2654 5.73894C17.1723 5.83206 17.12 5.95836 17.12 6.09006V20.783H15.3113C14.9761 20.7834 14.6548 20.9166 14.4177 21.1534C14.1805 21.3903 14.047 21.7116 14.0464 22.0467V24.5295C14.0467 24.8649 14.1801 25.1865 14.4172 25.4236C14.6544 25.6608 14.9759 25.7941 15.3113 25.7945H17.12V29.9084C17.12 30.0401 17.1723 30.1664 17.2654 30.2595C17.3586 30.3526 17.4849 30.405 17.6166 30.405H18.3837C18.5154 30.405 18.6417 30.3526 18.7348 30.2595C18.828 30.1664 18.8803 30.0401 18.8803 29.9084V25.7957H20.689C21.0244 25.7954 21.3459 25.662 21.5831 25.4249C21.8202 25.1877 21.9536 24.8661 21.9539 24.5307V22.048C21.9536 21.7126 21.8202 21.391 21.5831 21.1539C21.3459 20.9167 21.0244 20.7834 20.689 20.783ZM20.1924 22.5433V24.033H15.8066V22.5433H20.1924Z" fill="black"/>
<path d="M27.6044 13.0989H25.7957V6.09006C25.7957 5.95836 25.7434 5.83206 25.6503 5.73894C25.5572 5.64582 25.4309 5.59351 25.2992 5.59351H24.5308C24.3991 5.59351 24.2728 5.64582 24.1797 5.73894C24.0865 5.83206 24.0342 5.95836 24.0342 6.09006V13.0989H22.2206C21.8854 13.0995 21.5642 13.2331 21.3273 13.4702C21.0904 13.7073 20.9572 14.0287 20.9568 14.3638V16.8466C20.9572 17.1818 21.0904 17.5032 21.3273 17.7403C21.5642 17.9774 21.8854 18.1109 22.2206 18.1116H24.0305V29.9047C24.0305 30.0364 24.0828 30.1627 24.1759 30.2558C24.2691 30.3489 24.3954 30.4012 24.5271 30.4012H25.2955C25.4272 30.4012 25.5535 30.3489 25.6466 30.2558C25.7397 30.1627 25.792 30.0364 25.792 29.9047V18.1116H27.6007C27.9359 18.1112 28.2573 17.978 28.4944 17.7412C28.7315 17.5043 28.865 17.183 28.8657 16.8479V14.3651C28.8657 14.0301 28.733 13.7088 28.4966 13.4715C28.2602 13.2342 27.9394 13.1002 27.6044 13.0989ZM27.1079 14.8592V16.3488H22.7171V14.8592H27.1079Z" fill="black"/>
</svg>
