<svg width="36" height="36" viewBox="0 0 36 36" fill="none" xmlns="http://www.w3.org/2000/svg">
<path fill-rule="evenodd" clip-rule="evenodd" d="M18 30.25C24.7655 30.25 30.25 24.7655 30.25 18C30.25 11.2345 24.7655 5.75 18 5.75C11.2345 5.75 5.75 11.2345 5.75 18C5.75 24.7655 11.2345 30.25 18 30.25ZM18 32C25.732 32 32 25.732 32 18C32 10.268 25.732 4 18 4C10.268 4 4 10.268 4 18C4 25.732 10.268 32 18 32Z" fill="black"/>
<path fill-rule="evenodd" clip-rule="evenodd" d="M26.0144 20.555L27.5303 21.0378C27.8354 20.0798 28 19.0591 28 18C28 16.9409 27.8354 15.9202 27.5303 14.9622L26.0144 15.445C26.1995 16.0264 26.3233 16.6361 26.3777 17.267H21.836C21.7485 16.805 21.5797 16.3716 21.3451 15.9826L24.5714 12.7525C24.9155 13.1828 25.2182 13.6475 25.4735 14.1406L26.8863 13.4092C25.9346 11.5708 24.4292 10.0654 22.5908 9.1137L21.8594 10.5265C22.4014 10.8071 22.9091 11.145 23.3745 11.5322L20.1644 14.746C19.7717 14.4836 19.3288 14.2906 18.8532 14.1845V9.63353C19.4414 9.69267 20.0106 9.81227 20.555 9.98563L21.0378 8.46974C20.0798 8.16465 19.0591 8 18 8C16.9409 8 15.9202 8.16465 14.9622 8.46974L15.445 9.98563C15.9888 9.81245 16.5574 9.69293 17.1449 9.63373V14.1849C16.6695 14.2913 16.2267 14.4844 15.8341 14.7469L12.6242 11.5333C13.09 11.1456 13.5981 10.8074 14.1406 10.5265L13.4092 9.1137C11.5708 10.0654 10.0654 11.5708 9.1137 13.4092L10.5265 14.1406C10.7815 13.648 11.0839 13.1837 11.4276 12.7538L14.654 15.9841C14.4199 16.3728 14.2514 16.8055 14.164 17.267H9.62232C9.67666 16.6361 9.80048 16.0264 9.98563 15.445L8.46974 14.9622C8.16465 15.9202 8 16.9409 8 18C8 19.0591 8.16465 20.0798 8.46974 21.0378L9.98563 20.555C9.82449 20.049 9.7098 19.5215 9.64694 18.9773H14.2185C14.3289 19.4069 14.5104 19.8079 14.7498 20.167L11.5385 23.382C11.1487 22.9146 10.8086 22.4043 10.5265 21.8594L9.1137 22.5908C10.0654 24.4292 11.5708 25.9346 13.4092 26.8863L14.1406 25.4735C13.6504 25.2197 13.1883 24.9191 12.7602 24.5775L15.985 21.349C16.3388 21.5629 16.7294 21.7221 17.1449 21.8151V26.3663C16.5574 26.3071 15.9888 26.1875 15.445 26.0144L14.9622 27.5303C15.9202 27.8354 16.9409 28 18 28C19.0591 28 20.0798 27.8354 21.0378 27.5303L20.555 26.0144C20.0106 26.1877 19.4414 26.3073 18.8532 26.3665V21.8155C19.2688 21.7228 19.6595 21.5637 20.0136 21.3499L23.2385 24.5786C22.8107 24.9197 22.3491 25.22 21.8594 25.4735L22.5908 26.8863C24.4292 25.9346 25.9346 24.4292 26.8863 22.5908L25.4735 21.8594C25.1911 22.4048 24.8507 22.9156 24.4604 23.3833L21.2493 20.1684C21.4891 19.8089 21.6709 19.4074 21.7815 18.9773H26.3531C26.2902 19.5215 26.1755 20.049 26.0144 20.555Z" fill="black"/>
</svg>
