<svg width="36" height="36" viewBox="0 0 36 36" fill="none" xmlns="http://www.w3.org/2000/svg">
<path d="M23.673 15.8649C24.0703 15.8649 24.1075 15.8649 24.1199 15.8649C24.6413 15.8525 25.1503 15.629 25.4979 15.2318C25.8579 14.8345 26.0316 14.2759 25.9696 13.7421C25.7958 12.2525 25.1999 10.949 24.2316 9.96834C23.4992 9.22351 22.5806 8.66489 21.4882 8.29247V7.31178C21.4882 6.97661 21.4882 6.19454 20.8799 5.57385C20.2716 4.96558 19.4772 4.96558 19.142 4.96558H16.8951C16.5599 4.96558 15.7779 4.96558 15.1572 5.57385C14.5489 6.18213 14.5489 6.97661 14.5489 7.31178V8.29247C13.4068 8.68971 12.451 9.29799 11.6813 10.0925C10.5268 11.2718 9.93096 12.7987 9.93096 14.487C9.93096 16.8456 10.8496 18.5463 12.7985 19.8001H12.5379C11.6565 19.8001 11.4703 19.8001 11.433 19.8001H11.3834C10.862 19.8001 10.3903 20.0111 10.0427 20.3835C9.84406 20.5945 9.52131 21.0663 9.59579 21.7739C9.74475 23.3628 10.3903 24.7656 11.4703 25.8332C12.2772 26.6276 13.2951 27.2359 14.5116 27.6083V28.6511C14.5116 28.9863 14.5116 29.7683 15.1199 30.389C15.7282 30.9973 16.5227 30.9973 16.8579 30.9973H19.1172C19.4523 30.9973 20.2344 30.9973 20.8551 30.389C21.4634 29.7807 21.4634 28.9863 21.4634 28.6511V27.658C22.6923 27.298 23.7227 26.7145 24.5296 25.9325C25.7461 24.7532 26.3916 23.1394 26.3916 21.2649C26.4041 18.869 25.5351 17.1435 23.673 15.8649ZM16.2248 26.218C13.3572 25.7463 11.582 24.0704 11.3585 21.6125C11.3585 21.6001 11.3585 21.5752 11.3585 21.5628C11.3585 21.5628 11.371 21.5504 11.3958 21.5504C11.4454 21.5504 11.8303 21.5504 12.5379 21.5504C13.531 21.5504 14.8716 21.5504 15.393 21.5504H15.6041C15.691 21.5504 15.7282 21.6373 15.7406 21.6621C15.8275 21.9725 15.9641 22.2456 16.1503 22.4814C16.5848 23.0401 17.2675 23.3256 18.1116 23.3256C18.9434 23.3256 19.5144 23.0897 19.8123 22.6304C19.9489 22.407 20.0234 22.1463 20.0234 21.8359C20.0234 21.5007 19.9613 21.2276 19.8123 21.0042C19.502 20.5201 18.8192 20.1725 17.3668 19.7876C16.9696 19.6759 16.5848 19.5642 16.2248 19.4401C12.2275 18.1118 11.6813 16.2621 11.6813 14.4621C11.6813 11.9918 13.4192 10.1421 16.2123 9.63316L16.262 9.62075V7.31178C16.262 6.7904 16.3241 6.71592 16.8579 6.71592H19.1172C19.6385 6.71592 19.713 6.77799 19.713 7.31178V9.65799L19.7627 9.6704C22.4068 10.1297 23.9461 11.607 24.2192 13.9532C24.2192 13.978 24.2068 14.0401 24.182 14.0773C24.1572 14.1021 24.1323 14.1145 24.0951 14.1145C24.0454 14.1145 23.6854 14.1145 22.9903 14.1145C22.0344 14.1145 20.7434 14.1145 20.2344 14.1145H20.0234C19.9613 14.1145 19.9365 14.0401 19.9241 14.0028C19.8992 13.9035 19.8744 13.8042 19.8372 13.7173C19.5517 12.898 18.9185 12.5007 17.8882 12.5007C16.3365 12.5007 16.2248 13.5683 16.2248 13.8911C16.2248 14.8718 16.9323 15.2194 19.2041 15.8525C19.3779 15.9021 19.5641 15.9518 19.7751 16.0139C24.0827 17.3173 24.6661 19.3035 24.6661 21.2525C24.6537 23.9959 22.9158 25.7587 19.7875 26.2304L19.7379 26.2428V28.6511C19.7379 29.1725 19.6758 29.247 19.142 29.247H16.8951C16.3737 29.247 16.2992 29.1849 16.2992 28.6511V26.218H16.2248Z" fill="black"/>
</svg>
