<svg width="36" height="36" viewBox="0 0 36 36" fill="none" xmlns="http://www.w3.org/2000/svg">
<path d="M20.8138 30H15.1894C14.7408 30 14.3106 29.8219 13.9932 29.5049C13.6759 29.188 13.4973 28.758 13.4967 28.3094V22.5022H7.69164C7.24335 22.5017 6.81357 22.3234 6.49648 22.0065C6.17939 21.6896 6.00086 21.26 6 20.8117V15.1873C6.00086 14.7389 6.17935 14.3091 6.49641 13.992C6.81347 13.675 7.24325 13.4965 7.69164 13.4956H13.4967V7.69059C13.4973 7.24221 13.6757 6.81237 13.9928 6.49542C14.31 6.17847 14.7399 6.00029 15.1883 6H20.8127C21.2609 6.00057 21.6906 6.17887 22.0075 6.49578C22.3244 6.8127 22.5027 7.2424 22.5033 7.69059V13.4956H28.3148C28.7632 13.4962 29.193 13.6746 29.51 13.9918C29.8269 14.3089 30.0051 14.7389 30.0054 15.1873V20.8117C30.0048 21.2599 29.8265 21.6895 29.5096 22.0064C29.1927 22.3234 28.763 22.5017 28.3148 22.5022H22.5076V28.3094C22.507 28.7582 22.3283 29.1883 22.0107 29.5053C21.6931 29.8223 21.2626 30.0003 20.8138 30ZM7.6938 15.0066C7.64532 15.0066 7.59884 15.0259 7.56456 15.0602C7.53028 15.0944 7.51102 15.1409 7.51102 15.1894V20.8138C7.51102 20.8623 7.53028 20.9088 7.56456 20.9431C7.59884 20.9773 7.64532 20.9966 7.6938 20.9966H15.0109V28.3116C15.0112 28.36 15.0306 28.4063 15.0648 28.4405C15.099 28.4747 15.1453 28.4941 15.1937 28.4944H20.8181C20.8665 28.4941 20.9129 28.4747 20.9471 28.4405C20.9813 28.4063 21.0006 28.36 21.0009 28.3116V20.9966H28.3148C28.3632 20.9963 28.4095 20.977 28.4438 20.9428C28.478 20.9086 28.4973 20.8622 28.4976 20.8138V15.1894C28.4973 15.141 28.478 15.0947 28.4438 15.0605C28.4095 15.0263 28.3632 15.0069 28.3148 15.0066H20.9998V7.69164C20.9998 7.64316 20.9806 7.59669 20.9463 7.56241C20.912 7.52813 20.8655 7.50888 20.8171 7.50888H15.1926C15.1686 7.50888 15.1449 7.51359 15.1227 7.52277C15.1005 7.53196 15.0804 7.54544 15.0634 7.56241C15.0464 7.57939 15.033 7.59952 15.0238 7.6217C15.0146 7.64388 15.0099 7.66764 15.0099 7.69164V15.0066H7.6938Z" fill="black"/>
</svg>
