<svg width="36" height="36" viewBox="0 0 36 36" fill="none" xmlns="http://www.w3.org/2000/svg">
<path d="M31.1797 18.2346C31.1235 18.1749 31.0555 18.1275 30.9801 18.0952C30.9047 18.063 30.8235 18.0466 30.7415 18.0471H30.2003C30.0466 18.0463 29.8985 18.1046 29.7866 18.21C29.6747 18.3153 29.6077 18.4597 29.5994 18.6132C29.4641 21.1618 28.4932 23.595 26.8369 25.5367C25.1806 27.4785 22.9309 28.8208 20.4355 29.3563C17.9401 29.8919 15.3378 29.5908 13.0306 28.4996C10.7234 27.4085 8.83966 25.5879 7.67047 23.3193L7.63571 23.251H9.41957C9.57925 23.251 9.73239 23.1876 9.8453 23.0746C9.95821 22.9617 10.0216 22.8086 10.0216 22.6489V22.1089C10.0216 21.9492 9.95821 21.7961 9.8453 21.6832C9.73239 21.5703 9.57925 21.5068 9.41957 21.5068H5.24233C5.08265 21.5068 4.92951 21.5703 4.8166 21.6832C4.70369 21.7961 4.64026 21.9492 4.64026 22.1089V26.6437C4.64026 26.8033 4.70369 26.9565 4.8166 27.0694C4.92951 27.1823 5.08265 27.2457 5.24233 27.2457H5.78233C5.86139 27.2457 5.93968 27.2302 6.01273 27.1999C6.08578 27.1697 6.15215 27.1253 6.20805 27.0694C6.26396 27.0135 6.30831 26.9471 6.33857 26.8741C6.36882 26.801 6.3844 26.7227 6.3844 26.6437V24.6066L6.47129 24.7543C7.92591 27.2354 10.1422 29.1809 12.7908 30.3017C15.4395 31.4226 18.3791 31.659 21.1728 30.9758C23.9665 30.2925 26.4652 28.7262 28.2975 26.5094C30.1299 24.2927 31.1982 21.5439 31.3436 18.6715C31.3477 18.5914 31.3353 18.5112 31.3071 18.436C31.2789 18.3608 31.2356 18.2923 31.1797 18.2346Z" fill="black"/>
<path d="M4.82028 17.7652C4.87654 17.8249 4.94448 17.8723 5.01987 17.9046C5.09527 17.9368 5.17649 17.9532 5.25849 17.9527H5.79973C5.95342 17.9535 6.10154 17.8952 6.2134 17.7898C6.32525 17.6844 6.39227 17.54 6.40056 17.3866C6.53542 14.8378 7.50593 12.4044 9.16212 10.4624C10.8183 8.52033 13.068 7.1778 15.5635 6.64222C18.059 6.10664 20.6615 6.40782 22.9687 7.49924C25.2759 8.59065 27.1594 10.4115 28.3283 12.6805L28.363 12.7488H26.4861C26.3264 12.7488 26.1733 12.8122 26.0604 12.9251C25.9474 13.038 25.884 13.1912 25.884 13.3509V13.8909C25.884 14.0505 25.9474 14.2037 26.0604 14.3166C26.1733 14.4295 26.3264 14.4929 26.4861 14.4929H30.7577C30.9173 14.4929 31.0705 14.4295 31.1834 14.3166C31.2963 14.2037 31.3597 14.0505 31.3597 13.8909V9.35611C31.3597 9.19643 31.2963 9.04329 31.1834 8.93038C31.0705 8.81747 30.9173 8.75404 30.7577 8.75404H30.2177C30.058 8.75404 29.9048 8.81747 29.7919 8.93038C29.679 9.04329 29.6156 9.19643 29.6156 9.35611V11.3932L29.5287 11.2455C28.0741 8.76442 25.8578 6.8189 23.2092 5.69803C20.5605 4.57716 17.6209 4.34078 14.8272 5.024C12.0335 5.70723 9.53483 7.2736 7.70244 9.49035C5.87006 11.7071 4.8018 14.4559 4.65642 17.3282C4.65227 17.4084 4.66468 17.4886 4.69287 17.5638C4.72106 17.639 4.76443 17.7075 4.82028 17.7652Z" fill="black"/>
<path d="M24.1125 16.6718L19.1234 12.6497C18.9064 12.4753 18.6364 12.3802 18.3581 12.3802C18.0797 12.3802 17.8097 12.4753 17.5928 12.6497L15.2466 14.5416V14.1021C15.2466 13.7297 15.1224 13.4144 14.7388 13.4144H14.0772C13.6986 13.4144 13.5695 13.7235 13.5695 14.1021V15.8897L12.59 16.678C12.4606 16.7885 12.3779 16.9441 12.3588 17.1132C12.3397 17.2824 12.3855 17.4525 12.487 17.5891L12.77 17.9392C12.864 18.0542 12.9936 18.1345 13.1384 18.1676C13.2832 18.2006 13.4349 18.1845 13.5695 18.1217V22.3275C13.5695 22.55 13.6579 22.7635 13.8152 22.9209C13.9726 23.0782 14.1861 23.1667 14.4086 23.1667H22.3063C22.5289 23.1667 22.7423 23.0782 22.8997 22.9209C23.0571 22.7635 23.1455 22.55 23.1455 22.3275V18.1242C23.2799 18.186 23.4311 18.2015 23.5753 18.1683C23.7195 18.135 23.8486 18.0549 23.9424 17.9405L24.2168 17.6028C24.326 17.4653 24.3763 17.2902 24.3568 17.1158C24.3372 16.9413 24.2494 16.7817 24.1125 16.6718ZM21.4684 21.492H15.2466V16.7959L18.3587 14.2871L21.4684 16.7947V21.492Z" fill="black"/>
<path d="M20.1861 17.7827H18.9596C18.854 17.7827 18.7684 17.8683 18.7684 17.9739V19.2004C18.7684 19.306 18.854 19.3915 18.9596 19.3915H20.1861C20.2917 19.3915 20.3773 19.306 20.3773 19.2004V17.9739C20.3773 17.8683 20.2917 17.7827 20.1861 17.7827Z" fill="black"/>
</svg>
