<svg width="36" height="36" viewBox="0 0 36 36" fill="none" xmlns="http://www.w3.org/2000/svg">
<path d="M4.71712 19.9244H6.66606C5.99573 18.6458 5.67298 17.3547 5.67298 16.0016C5.67298 13.9161 6.39294 11.992 7.69636 10.5768C9.0122 9.14921 10.8246 8.35474 12.7983 8.35474C14.2755 8.35474 15.6162 8.81404 16.8079 9.73267C17.3665 10.1671 17.8755 10.6761 18.3224 11.2844C18.7692 10.6885 19.2782 10.1671 19.8368 9.73267C21.0285 8.81404 22.3692 8.35474 23.8464 8.35474C25.8201 8.35474 27.6201 9.13679 28.9483 10.5768C30.2518 11.992 30.9717 13.9161 30.9717 16.0016C30.9717 17.5037 30.5745 18.9189 29.7552 20.3465H31.7537C32.2379 20.3465 32.6227 20.7313 32.6227 21.2154C32.6227 21.6996 32.2379 22.0844 31.7537 22.0844H28.5387C28.5138 22.1217 28.489 22.1465 28.4642 22.1837C26.9373 24.021 24.765 25.883 22.2326 28.0306C21.3761 28.763 20.3954 29.5948 19.3899 30.4761C19.1044 30.7244 18.732 30.8734 18.3348 30.8734C17.95 30.8734 17.5776 30.7368 17.2796 30.4761C16.2493 29.5699 15.2438 28.7134 14.4245 28.0306C11.9046 25.883 9.71977 24.021 8.1929 22.1837C8.05635 22.0099 7.91978 21.8485 7.79565 21.6747H4.72954C4.24541 21.6747 3.8606 21.2899 3.8606 20.8058C3.8606 20.3216 4.2454 19.9244 4.71712 19.9244ZM29.2338 15.9892C29.2338 14.3382 28.6752 12.8237 27.6697 11.7189C26.6766 10.6389 25.3112 10.0554 23.8339 10.0554C22.754 10.0554 21.7485 10.403 20.8795 11.0858C20.0851 11.6941 19.5388 12.4637 19.2161 13.0099C19.0299 13.3327 18.6823 13.5189 18.3099 13.5189C17.9375 13.5189 17.6024 13.3327 17.4038 13.0099C17.081 12.4637 16.5348 11.6941 15.7403 11.0858C14.8589 10.403 13.8659 10.0554 12.7859 10.0554C11.3087 10.0554 9.94322 10.6513 8.95014 11.7189C7.94464 12.8113 7.38602 14.3258 7.38602 15.9892C7.38602 17.3547 7.78327 18.5961 8.6398 19.912H11.3832L12.3514 18.2982C12.5004 18.0499 12.7611 17.8885 13.059 17.8761C13.3445 17.8637 13.6301 18.0003 13.8038 18.2361L14.1762 18.7451L15.3307 15.2816C15.4548 14.9216 15.7776 14.6858 16.15 14.6858C16.15 14.6858 16.15 14.6858 16.1624 14.6858C16.5348 14.6858 16.8699 14.934 16.9817 15.294L19.0547 21.8858L21.2147 16.672C21.3388 16.3616 21.6368 16.1506 21.9843 16.1382C22.3195 16.1258 22.6423 16.2996 22.7912 16.6099L24.7401 20.3465H27.6821C28.7621 18.8568 29.2338 17.4913 29.2338 15.9892ZM15.5293 26.7148C16.3238 27.3851 17.3044 28.2292 18.3224 29.1106C19.3154 28.2417 20.2713 27.4348 21.103 26.7148C23.1015 25.0141 24.8767 23.4996 26.2297 22.072H24.2188C23.896 22.072 23.5981 21.8982 23.4491 21.6003L22.1209 19.043L19.7499 24.7534C19.6134 25.0761 19.303 25.2872 18.943 25.2872C18.9306 25.2872 18.9182 25.2872 18.9057 25.2872C18.5458 25.2747 18.223 25.0265 18.1113 24.6789L16.1251 18.3727L15.281 20.8927C15.1817 21.203 14.9086 21.4265 14.5859 21.4761C14.2631 21.5258 13.9403 21.3892 13.7541 21.1285L13.1583 20.3216L12.6121 21.2403C12.4508 21.501 12.1777 21.6623 11.8673 21.6623H9.99286C11.4204 23.2016 13.3445 24.8403 15.5293 26.7148Z" fill="black"/>
</svg>
