<svg width="36" height="36" viewBox="0 0 36 36" fill="none" xmlns="http://www.w3.org/2000/svg">
<path d="M25.472 9.46558H10.529C10.2477 9.46652 9.97826 9.57884 9.77959 9.77796C9.58091 9.97709 9.46919 10.2468 9.46887 10.5281V25.4723C9.4695 25.7533 9.5814 26.0226 9.78008 26.2212C9.97875 26.4199 10.248 26.5317 10.529 26.5324H25.472C25.753 26.5317 26.0223 26.4199 26.221 26.2212C26.4196 26.0226 26.5315 25.7533 26.5322 25.4723V10.5221C26.5303 10.2419 26.4179 9.97369 26.2194 9.77585C26.0209 9.57802 25.7523 9.46651 25.472 9.46558ZM24.995 24.9905H11.0096V11.0074H24.9915L24.995 24.9905Z" fill="black"/>
<path d="M18.0001 8.82966C18.0726 8.8295 18.1444 8.81504 18.2113 8.78715C18.2782 8.75926 18.339 8.71844 18.3902 8.66706C18.4413 8.61568 18.4819 8.55477 18.5095 8.48772C18.5371 8.42068 18.5512 8.34886 18.5511 8.27636V6.55197C18.5511 6.4057 18.4929 6.26543 18.3895 6.162C18.2861 6.05856 18.1458 6.00049 17.9995 6.00049C17.8532 6.00049 17.713 6.05856 17.6095 6.162C17.5061 6.26543 17.448 6.4057 17.448 6.55197V8.27636C17.4478 8.34896 17.462 8.42089 17.4897 8.48801C17.5174 8.55514 17.558 8.6161 17.6093 8.6675C17.6606 8.71889 17.7215 8.7597 17.7886 8.78752C17.8556 8.81534 17.9275 8.82966 18.0001 8.82966Z" fill="black"/>
<path d="M20.7178 8.82983C20.8645 8.82983 21.0053 8.7715 21.1091 8.66774C21.2128 8.56397 21.2711 8.42327 21.2711 8.27652V6.55214C21.2711 6.4057 21.2129 6.26527 21.1094 6.16173C21.0059 6.05818 20.8654 6 20.719 6C20.5726 6 20.4321 6.05818 20.3286 6.16173C20.225 6.26527 20.1669 6.4057 20.1669 6.55214V8.27652C20.1667 8.34903 20.1808 8.42084 20.2084 8.48789C20.236 8.55493 20.2766 8.61585 20.3277 8.66723C20.3789 8.71861 20.4397 8.75943 20.5066 8.78732C20.5735 8.81521 20.6453 8.82967 20.7178 8.82983Z" fill="black"/>
<path d="M15.2859 8.82983C15.3584 8.82967 15.4301 8.81521 15.4971 8.78732C15.564 8.75943 15.6248 8.71861 15.6759 8.66723C15.7271 8.61585 15.7676 8.55493 15.7952 8.48789C15.8228 8.42084 15.8369 8.34903 15.8368 8.27652V6.55214C15.8368 6.4057 15.7786 6.26527 15.6751 6.16173C15.5715 6.05818 15.4311 6 15.2847 6C15.1382 6 14.9978 6.05818 14.8943 6.16173C14.7907 6.26527 14.7325 6.4057 14.7325 6.55214V8.27652C14.7325 8.42327 14.7908 8.56397 14.8946 8.66774C14.9984 8.7715 15.1391 8.82983 15.2859 8.82983Z" fill="black"/>
<path d="M18 27.1702C17.9275 27.1703 17.8558 27.1848 17.7888 27.2127C17.7219 27.2406 17.6611 27.2813 17.61 27.3327C17.5588 27.3841 17.5183 27.4451 17.4907 27.5121C17.4631 27.5791 17.4489 27.651 17.4491 27.7235V29.4478C17.4491 29.5941 17.5072 29.7344 17.6106 29.8378C17.7141 29.9413 17.8544 29.9993 18.0006 29.9993C18.1469 29.9993 18.2872 29.9413 18.3906 29.8378C18.4941 29.7344 18.5522 29.5941 18.5522 29.4478V27.7235C18.5523 27.6509 18.5381 27.5789 18.5105 27.5118C18.4828 27.4447 18.4421 27.3837 18.3909 27.3323C18.3396 27.2809 18.2787 27.2401 18.2116 27.2123C18.1445 27.1845 18.0726 27.1702 18 27.1702Z" fill="black"/>
<path d="M20.7178 27.1702C20.6453 27.1703 20.5735 27.1848 20.5066 27.2127C20.4397 27.2406 20.3789 27.2813 20.3277 27.3327C20.2766 27.3841 20.236 27.4451 20.2084 27.5121C20.1808 27.5791 20.1667 27.651 20.1669 27.7235V29.4478C20.1669 29.5942 20.225 29.7347 20.3286 29.8382C20.4321 29.9417 20.5726 29.9999 20.719 29.9999C20.8654 29.9999 21.0059 29.9417 21.1094 29.8382C21.2129 29.7347 21.2711 29.5942 21.2711 29.4478V27.7235C21.2711 27.5767 21.2128 27.436 21.1091 27.3323C21.0053 27.2285 20.8645 27.1702 20.7178 27.1702Z" fill="black"/>
<path d="M15.2859 27.1702C15.1391 27.1702 14.9984 27.2285 14.8946 27.3323C14.7908 27.436 14.7325 27.5767 14.7325 27.7235V29.4478C14.7325 29.5942 14.7907 29.7347 14.8943 29.8382C14.9978 29.9417 15.1382 29.9999 15.2847 29.9999C15.4311 29.9999 15.5715 29.9417 15.6751 29.8382C15.7786 29.7347 15.8368 29.5942 15.8368 29.4478V27.7235C15.8369 27.651 15.8228 27.5791 15.7952 27.5121C15.7676 27.4451 15.7271 27.3841 15.6759 27.3327C15.6248 27.2813 15.564 27.2406 15.4971 27.2127C15.4301 27.1848 15.3584 27.1703 15.2859 27.1702Z" fill="black"/>
<path d="M8.27647 17.4468H6.55214C6.4057 17.4468 6.26527 17.5049 6.16173 17.6084C6.05818 17.712 6 17.8524 6 17.9988C6 18.1453 6.05818 18.2857 6.16173 18.3893C6.26527 18.4928 6.4057 18.551 6.55214 18.551H8.27647C8.4229 18.551 8.56334 18.4928 8.66688 18.3893C8.77042 18.2857 8.82859 18.1453 8.82859 17.9988C8.82859 17.8524 8.77042 17.712 8.66688 17.6084C8.56334 17.5049 8.4229 17.4468 8.27647 17.4468Z" fill="black"/>
<path d="M8.27647 14.7288H6.55214C6.4057 14.7288 6.26527 14.7869 6.16173 14.8905C6.05818 14.994 6 15.1345 6 15.2809C6 15.4273 6.05818 15.5677 6.16173 15.6712C6.26527 15.7748 6.4057 15.833 6.55214 15.833H8.27647C8.4229 15.833 8.56334 15.7748 8.66688 15.6712C8.77042 15.5677 8.82859 15.4273 8.82859 15.2809C8.82859 15.1345 8.77042 14.994 8.66688 14.8905C8.56334 14.7869 8.4229 14.7288 8.27647 14.7288Z" fill="black"/>
<path d="M8.27647 20.1665H6.55214C6.4057 20.1665 6.26527 20.2247 6.16173 20.3282C6.05818 20.4318 6 20.5722 6 20.7186C6 20.8651 6.05818 21.0055 6.16173 21.1091C6.26527 21.2126 6.4057 21.2707 6.55214 21.2707H8.27647C8.4229 21.2707 8.56334 21.2126 8.66688 21.1091C8.77042 21.0055 8.82859 20.8651 8.82859 20.7186C8.82859 20.5722 8.77042 20.4318 8.66688 20.3282C8.56334 20.2247 8.4229 20.1665 8.27647 20.1665Z" fill="black"/>
<path d="M29.4492 17.4468H27.7248C27.5784 17.4468 27.438 17.5049 27.3344 17.6084C27.2309 17.712 27.1727 17.8524 27.1727 17.9988C27.1727 18.1453 27.2309 18.2857 27.3344 18.3893C27.438 18.4928 27.5784 18.551 27.7248 18.551H29.4492C29.5956 18.551 29.736 18.4928 29.8396 18.3893C29.9431 18.2857 30.0013 18.1453 30.0013 17.9988C30.0013 17.8524 29.9431 17.712 29.8396 17.6084C29.736 17.5049 29.5956 17.4468 29.4492 17.4468Z" fill="black"/>
<path d="M27.7248 15.833H29.4492C29.5956 15.833 29.736 15.7748 29.8396 15.6712C29.9431 15.5677 30.0013 15.4273 30.0013 15.2809C30.0013 15.1345 29.9431 14.994 29.8396 14.8905C29.736 14.7869 29.5956 14.7288 29.4492 14.7288H27.7248C27.5784 14.7288 27.438 14.7869 27.3344 14.8905C27.2309 14.994 27.1727 15.1345 27.1727 15.2809C27.1727 15.4273 27.2309 15.5677 27.3344 15.6712C27.438 15.7748 27.5784 15.833 27.7248 15.833Z" fill="black"/>
<path d="M29.4492 20.1665H27.7248C27.5784 20.1665 27.438 20.2247 27.3344 20.3282C27.2309 20.4318 27.1727 20.5722 27.1727 20.7186C27.1727 20.8651 27.2309 21.0055 27.3344 21.1091C27.438 21.2126 27.5784 21.2707 27.7248 21.2707H29.4492C29.5956 21.2707 29.736 21.2126 29.8396 21.1091C29.9431 21.0055 30.0013 20.8651 30.0013 20.7186C30.0013 20.5722 29.9431 20.4318 29.8396 20.3282C29.736 20.2247 29.5956 20.1665 29.4492 20.1665Z" fill="black"/>
<path d="M14.2379 17.5909C14.2069 17.5591 14.1697 17.5339 14.1287 17.5169C14.0878 17.4999 14.0437 17.4914 13.9994 17.4919C13.955 17.4917 13.9111 17.5003 13.8701 17.5173C13.8292 17.5343 13.792 17.5593 13.7608 17.5909L13.0919 18.2599C13.029 18.3233 12.9937 18.409 12.9937 18.4983C12.9937 18.5877 13.029 18.6734 13.0919 18.7369L16.246 21.891C16.2769 21.9228 16.314 21.948 16.3551 21.965C16.3961 21.982 16.4401 21.9906 16.4845 21.99C16.5692 21.9913 16.6511 21.9592 16.7123 21.9005L22.9132 15.2548C22.9761 15.1914 23.0114 15.1057 23.0114 15.0163C23.0114 14.927 22.9761 14.8412 22.9132 14.7778L22.2442 14.1088C22.1831 14.0484 22.1014 14.0133 22.0154 14.0109C21.9295 14.0084 21.8459 14.0388 21.7815 14.0957L16.5346 19.8864L14.2379 17.5909Z" fill="black"/>
</svg>
