<svg width="36" height="36" viewBox="0 0 36 36" fill="none" xmlns="http://www.w3.org/2000/svg">
<path d="M29.83 9.23632C29.2217 8.56598 28.3652 8.18115 27.459 8.18115C26.6769 8.18115 25.9197 8.46667 25.3238 9.00046L11.0603 21.8239C10.9858 21.886 10.8989 21.9728 10.8245 22.1218L7.93207 27.8446C7.87 27.9811 7.83274 28.1301 7.84515 28.279C7.84515 28.2915 7.84515 28.3039 7.84515 28.3163C7.85756 28.5025 7.9445 28.6763 8.06864 28.8128C8.24243 28.999 8.46584 29.0984 8.71412 29.0984C8.81343 29.0984 8.92515 29.0735 9.02446 29.0363L15.0204 26.7646C15.1197 26.7273 15.219 26.6653 15.2934 26.6032C15.2934 26.6032 29.4576 13.8666 29.6066 13.7425C30.8976 12.5632 30.9969 10.5398 29.83 9.23632ZM13.9528 25.4611L12.0162 23.3011L24.7031 11.8929L26.7017 14.0032L13.9528 25.4611ZM28.5514 12.3274L27.9804 12.8487L25.9942 10.7508L26.6148 10.1922C27.2107 9.77011 28.0424 9.85701 28.5266 10.4032C29.0231 10.937 29.0356 11.7687 28.5514 12.3274Z" fill="black"/>
<path d="M26.6394 26.1683C26.6394 25.6841 26.2422 25.2869 25.7581 25.2869C25.274 25.2869 24.8767 25.6841 24.8767 26.1683C24.8767 26.6524 25.274 27.0497 25.7581 27.0497C26.2422 27.0497 26.6394 26.6524 26.6394 26.1683Z" fill="black"/>
<path d="M24.5413 19.7751L23.2254 20.9544L27.2847 25.0137C28.0296 25.7585 28.0296 26.9626 27.2847 27.7074C26.5647 28.4274 25.3109 28.4274 24.5909 27.7074L20.3951 23.5116L19.0792 24.6909L23.3372 28.9488C24.0324 29.644 24.951 30.0288 25.9317 30.0288C26.9123 30.0288 27.831 29.644 28.5261 28.9488C29.9537 27.5212 29.9537 25.1875 28.5261 23.7599L24.5413 19.7751Z" fill="black"/>
<path d="M11.1969 20.1107L13.0093 18.472H12.9224C11.4203 18.5465 9.95549 17.9755 8.90032 16.9203C7.7086 15.7286 7.14999 14.1148 7.36102 12.4638L10.4272 15.5424L14.4369 14.872H14.4617L15.132 10.8624V10.85L12.0658 7.77136C12.2893 7.74653 12.5127 7.73412 12.7362 7.73412C14.1637 7.73412 15.5044 8.29274 16.5223 9.31067C17.7265 10.5148 18.2727 12.1907 17.9996 13.9162L17.9872 14.0031L19.7996 12.3769L19.812 12.3645V12.352C19.6506 10.7134 18.943 9.23618 17.7761 8.06929C15.9886 6.28171 13.4437 5.57413 10.9982 6.1824C10.5017 6.30654 10.1169 6.67895 9.98034 7.1755C9.84379 7.65964 9.98033 8.19343 10.3403 8.54102L13.2576 11.4583L12.9472 13.3451L11.0603 13.6555L8.14307 10.7383C7.78307 10.3783 7.26174 10.2417 6.76519 10.3782C6.28105 10.5148 5.89618 10.8996 5.78446 11.3962C5.17618 13.8541 5.87138 16.3989 7.67137 18.1865C8.65205 19.1672 9.86859 19.8375 11.1969 20.1107Z" fill="black"/>
</svg>
