<svg width="36" height="36" viewBox="0 0 36 36" fill="none" xmlns="http://www.w3.org/2000/svg">
<path d="M22.7465 6H12.2945C11.6862 6.00082 11.103 6.24281 10.6729 6.67296C10.2427 7.10312 10.0007 7.6863 9.99988 8.29462V27.7038C10.0005 28.3124 10.2424 28.8958 10.6725 29.3263C11.1027 29.7567 11.686 29.999 12.2945 30H22.7473C23.3558 29.9988 23.9389 29.7564 24.369 29.326C24.7991 28.8956 25.0411 28.3123 25.0419 27.7038V8.29462C25.0409 7.68623 24.7987 7.10305 24.3684 6.67292C23.9382 6.24279 23.3549 6.00082 22.7465 6ZM23.4361 27.7038C23.4361 27.8871 23.3636 28.063 23.2344 28.193C23.1052 28.3231 22.9298 28.3968 22.7465 28.398H12.2945C12.1104 28.398 11.9338 28.3249 11.8037 28.1947C11.6735 28.0645 11.6003 27.8879 11.6003 27.7038V8.29462C11.6016 8.11132 11.6752 7.93595 11.8053 7.80676C11.9353 7.67758 12.1112 7.60508 12.2945 7.60509H22.7473C22.9302 7.60509 23.1056 7.67773 23.2349 7.80705C23.3642 7.93636 23.4368 8.11174 23.4368 8.29462L23.4361 27.7038Z" fill="black"/>
<path d="M12.7642 24.2136H22.2752V8.75195H12.7642V24.2136ZM14.3137 10.3015H20.7279V22.6656H14.3137V10.3015Z" fill="black"/>
<path d="M17.5209 27.5897C18.2246 27.5897 18.7951 27.0192 18.7951 26.3155C18.7951 25.6117 18.2246 25.0413 17.5209 25.0413C16.8172 25.0413 16.2467 25.6117 16.2467 26.3155C16.2467 27.0192 16.8172 27.5897 17.5209 27.5897Z" fill="black"/>
<path d="M16.8614 17.7387C16.8053 18.0458 16.8415 18.3626 16.9655 18.649C17.0896 18.9355 17.2958 19.1787 17.5581 19.3478C17.8204 19.517 18.127 19.6046 18.4391 19.5994C18.7512 19.5942 19.0548 19.4966 19.3114 19.3188C19.5679 19.141 19.766 18.8911 19.8804 18.6007C19.9949 18.3103 20.0206 17.9925 19.9544 17.6874C19.8881 17.3824 19.7328 17.1039 19.5082 16.8872C19.2836 16.6704 18.9997 16.5252 18.6924 16.4699C18.6338 16.4614 18.5683 16.4514 18.5027 16.446L16.7287 13.8235C16.7109 13.7977 16.6881 13.7759 16.6616 13.7591C16.635 13.7424 16.6054 13.7313 16.5744 13.7264L15.5571 13.5366C15.4943 13.5242 15.4292 13.537 15.3758 13.5721C15.3235 13.6088 15.2868 13.6639 15.2732 13.7264L15.0634 14.8494C15.0564 14.881 15.056 14.9137 15.0624 14.9455C15.0688 14.9772 15.0817 15.0073 15.1005 15.0338C15.1372 15.0858 15.1923 15.1219 15.2547 15.1348L15.3943 15.1587L15.3727 15.2945C15.3658 15.326 15.3654 15.3586 15.3715 15.3903C15.3776 15.422 15.3901 15.4521 15.4082 15.4788C15.4468 15.5314 15.5038 15.5675 15.5679 15.5798L15.7005 15.6014L16.9462 17.4433C16.905 17.5376 16.8765 17.6369 16.8614 17.7387ZM18.2682 16.9412H18.2999C18.406 16.9301 18.513 16.933 18.6184 16.9497C18.9021 17.0046 19.1525 17.1697 19.3148 17.4087C19.4772 17.6478 19.5382 17.9415 19.4846 18.2254C19.4592 18.3664 19.4061 18.5009 19.3282 18.6212C19.2503 18.7414 19.1493 18.8449 19.0311 18.9257H19.0257C18.7858 19.0865 18.4925 19.1467 18.2087 19.0933C17.925 19.04 17.6735 18.8773 17.5085 18.6404C17.4273 18.5216 17.3704 18.388 17.3411 18.2471C17.3117 18.1063 17.3104 17.961 17.3373 17.8197C17.3618 17.6834 17.4143 17.5537 17.4915 17.4387L17.5116 17.4086L16.2142 15.495L16.2698 15.2181L15.8957 15.1479L15.9659 14.7723L15.5895 14.7036L15.7106 14.0557L16.3886 14.183" fill="black"/>
<path d="M18.2035 18.6532L19.0727 18.0624C19.1089 18.0222 19.1306 17.971 19.1341 17.917C19.1376 17.8631 19.1229 17.8095 19.0922 17.7649C19.0616 17.7203 19.0168 17.6874 18.9651 17.6714C18.9134 17.6554 18.8579 17.6573 18.8074 17.6768L17.9381 18.266C17.8996 18.3059 17.876 18.3578 17.8713 18.413C17.8665 18.4683 17.8809 18.5234 17.912 18.5693C17.9431 18.6152 17.9891 18.6489 18.0422 18.6649C18.0952 18.6809 18.1522 18.6781 18.2035 18.6571V18.6532Z" fill="black"/>
</svg>
