<svg width="36" height="36" viewBox="0 0 36 36" fill="none" xmlns="http://www.w3.org/2000/svg">
<path d="M14.6643 10.8422C15.1325 10.8422 15.5121 10.4626 15.5121 9.99435C15.5121 9.52609 15.1325 9.14648 14.6643 9.14648C14.196 9.14648 13.8164 9.52609 13.8164 9.99435C13.8164 10.4626 14.196 10.8422 14.6643 10.8422Z" fill="black"/>
<path d="M11.6478 10.8422C12.1161 10.8422 12.4957 10.4626 12.4957 9.99435C12.4957 9.52609 12.1161 9.14648 11.6478 9.14648C11.1795 9.14648 10.7999 9.52609 10.7999 9.99435C10.7999 10.4626 11.1795 10.8422 11.6478 10.8422Z" fill="black"/>
<path d="M17.9999 12.3392C16.6391 12.339 15.3088 12.7423 14.1772 13.4982C13.0457 14.254 12.1637 15.3285 11.6428 16.5856C11.122 17.8428 10.9856 19.2262 11.251 20.5608C11.5164 21.8955 12.1717 23.1214 13.1339 24.0837C14.0961 25.0459 15.3221 25.7011 16.6568 25.9666C17.9914 26.232 19.3748 26.0956 20.632 25.5748C21.8891 25.0539 22.9636 24.1719 23.7194 23.0404C24.4753 21.9088 24.8786 20.5785 24.8783 19.2177C24.876 17.3941 24.1506 15.6459 22.8611 14.3564C21.5717 13.067 19.8234 12.3415 17.9999 12.3392ZM17.9999 24.5532C16.9441 24.5532 15.9121 24.2401 15.0343 23.6536C14.1565 23.067 13.4723 22.2334 13.0683 21.258C12.6642 20.2826 12.5585 19.2093 12.7645 18.1739C12.9705 17.1384 13.4789 16.1873 14.2254 15.4407C14.9719 14.6942 15.923 14.1858 16.9585 13.9799C17.9939 13.7739 19.0672 13.8796 20.0426 14.2836C21.018 14.6876 21.8517 15.3718 22.4382 16.2496C23.0247 17.1275 23.3378 18.1595 23.3378 19.2152C23.3378 20.6309 22.7754 21.9887 21.7744 22.9897C20.7733 23.9908 19.4156 24.5532 17.9999 24.5532Z" fill="black"/>
<path d="M25.5413 5.84058H10.4586C9.63628 5.84319 8.84842 6.17101 8.26698 6.75245C7.68554 7.33389 7.35773 8.12174 7.35511 8.94403V28.5578C7.35411 28.9823 7.52146 29.3899 7.82048 29.6913C8.11949 29.9926 8.52577 30.1631 8.95028 30.1654H27.0496C27.4741 30.1647 27.881 29.9958 28.1812 29.6956C28.4814 29.3955 28.6503 28.9885 28.651 28.564V8.95023C28.65 8.1258 28.322 7.33542 27.7391 6.75246C27.1561 6.1695 26.3657 5.84156 25.5413 5.84058ZM26.9565 28.4647H9.04338V8.95023C9.04371 8.57501 9.19292 8.21524 9.45824 7.94992C9.72357 7.68459 10.0833 7.53539 10.4586 7.53506H25.5413C25.9165 7.53539 26.2763 7.68459 26.5416 7.94992C26.807 8.21524 26.9562 8.57501 26.9565 8.95023V28.4647Z" fill="black"/>
<path d="M19.8619 18.2111L19.703 16.4421C19.6909 16.2946 19.6235 16.1571 19.5145 16.057C19.4054 15.9569 19.2626 15.9016 19.1146 15.9021H16.8901C16.7421 15.9016 16.5993 15.9569 16.4902 16.057C16.3812 16.1571 16.3139 16.2946 16.3017 16.4421L16.1378 18.2111C16.1018 18.6302 16.2065 19.0494 16.4353 19.4023C16.6642 19.7553 17.0042 20.0219 17.4015 20.16V21.5169C17.111 21.5651 16.8267 21.645 16.5537 21.7552C16.5068 21.7783 16.4669 21.8135 16.438 21.8571C16.4092 21.9008 16.3926 21.9513 16.3898 22.0035V22.2207C16.3901 22.268 16.4091 22.3133 16.4425 22.3468C16.476 22.3802 16.5213 22.3992 16.5686 22.3995H19.4237C19.471 22.3992 19.5163 22.3802 19.5498 22.3468C19.5832 22.3133 19.6022 22.268 19.6025 22.2207V22.006C19.5988 21.9542 19.582 21.9041 19.5535 21.8607C19.525 21.8172 19.4859 21.7818 19.4399 21.7577C19.1678 21.6425 18.8827 21.5612 18.5908 21.5156V20.16C18.9895 20.0232 19.3311 19.7572 19.5614 19.4041C19.7917 19.051 19.8975 18.6311 19.8619 18.2111Z" fill="black"/>
</svg>
