<svg width="36" height="36" viewBox="0 0 36 36" fill="none" xmlns="http://www.w3.org/2000/svg">
<path d="M18 22.8575C17.8233 22.8575 17.6504 22.91 17.5035 23.0082C17.3565 23.1064 17.2419 23.246 17.1743 23.4093C17.1066 23.5726 17.0889 23.7523 17.1234 23.9257C17.1579 24.0991 17.243 24.2583 17.368 24.3833C17.493 24.5083 17.6523 24.5935 17.8257 24.628C17.999 24.6624 18.1788 24.6447 18.3421 24.5771C18.5054 24.5094 18.645 24.3949 18.7432 24.2479C18.8414 24.1009 18.8938 23.9281 18.8938 23.7513C18.8938 23.5143 18.7997 23.2869 18.632 23.1193C18.4644 22.9517 18.2371 22.8575 18 22.8575Z" fill="black"/>
<path d="M20.3102 20.3313H21.1568C21.3873 20.3313 21.6083 20.2397 21.7713 20.0768C21.9343 19.9138 22.0258 19.6928 22.0258 19.4623C22.0258 19.2319 21.9343 19.0109 21.7713 18.8479C21.6083 18.6849 21.3873 18.5934 21.1568 18.5934H20.3102C20.0798 18.5934 19.8587 18.6849 19.6958 18.8479C19.5328 19.0109 19.4413 19.2319 19.4413 19.4623C19.4413 19.6928 19.5328 19.9138 19.6958 20.0768C19.8587 20.2397 20.0798 20.3313 20.3102 20.3313Z" fill="black"/>
<path d="M34.1839 11.4132H30.9476V11.2891C30.9392 11.0726 30.8474 10.8677 30.6913 10.7175C30.5351 10.5673 30.3269 10.4834 30.1103 10.4834C29.8936 10.4834 29.6854 10.5673 29.5293 10.7175C29.3732 10.8677 29.2813 11.0726 29.273 11.2891V11.4132H26.0367C25.924 11.4089 25.8116 11.4273 25.7063 11.4675C25.6009 11.5076 25.5047 11.5686 25.4234 11.6467C25.3422 11.7249 25.2776 11.8187 25.2334 11.9224C25.1893 12.0262 25.1665 12.1378 25.1665 12.2505C25.1665 12.3633 25.1893 12.4749 25.2334 12.5786C25.2776 12.6824 25.3422 12.7762 25.4234 12.8543C25.5047 12.9325 25.6009 12.9935 25.7063 13.0336C25.8116 13.0737 25.924 13.0922 26.0367 13.0878H29.273V15.2342C29.2711 15.2644 29.2711 15.2946 29.273 15.3248C29.1313 15.3507 29.0031 15.4251 28.9102 15.5351C28.8174 15.6452 28.7657 15.7841 28.764 15.9281V16.2906H7.22979C7.22534 16.1489 7.17254 16.0131 7.08018 15.9056C6.98781 15.7981 6.86144 15.7254 6.72206 15.6997C6.72395 15.6695 6.72395 15.6393 6.72206 15.6091V13.464H9.9633C10.076 13.4683 10.1884 13.4499 10.2937 13.4097C10.3991 13.3696 10.4953 13.3086 10.5765 13.2305C10.6578 13.1523 10.7224 13.0585 10.7666 12.9548C10.8107 12.851 10.8335 12.7394 10.8335 12.6267C10.8335 12.5139 10.8107 12.4023 10.7666 12.2986C10.7224 12.1948 10.6578 12.101 10.5765 12.0229C10.4953 11.9447 10.3991 11.8837 10.2937 11.8436C10.1884 11.8035 10.076 11.785 9.9633 11.7894H6.72703V11.6652C6.71869 11.4487 6.62683 11.2439 6.47071 11.0937C6.3146 10.9434 6.10637 10.8595 5.88972 10.8595C5.67307 10.8595 5.46484 10.9434 5.30872 11.0937C5.15261 11.2439 5.06074 11.4487 5.05241 11.6652V11.7894H1.81613C1.70346 11.785 1.59107 11.8035 1.4857 11.8436C1.38033 11.8837 1.28414 11.9447 1.20289 12.0229C1.12164 12.101 1.05701 12.1948 1.01286 12.2986C0.968709 12.4023 0.945953 12.5139 0.945953 12.6267C0.945953 12.7394 0.968709 12.851 1.01286 12.9548C1.05701 13.0585 1.12164 13.1523 1.20289 13.2305C1.28414 13.3086 1.38033 13.3696 1.4857 13.4097C1.59107 13.4499 1.70346 13.4683 1.81613 13.464H5.05241V15.6091C5.05241 15.6401 5.05241 15.6699 5.05241 15.6997C4.91078 15.7259 4.78267 15.8006 4.69004 15.9109C4.59741 16.0212 4.54602 16.1602 4.54468 16.3043V17.4016C4.54468 17.5781 4.57947 17.7529 4.64704 17.9159C4.71462 18.079 4.81367 18.2271 4.93853 18.3518C5.06338 18.4766 5.2116 18.5755 5.37471 18.6429C5.53781 18.7103 5.7126 18.745 5.8891 18.7448C6.13331 18.7445 6.37282 18.6776 6.58191 18.5514C6.79099 18.4252 6.96175 18.2445 7.07585 18.0285H9.08937L5.77985 27.504C5.70412 27.7214 5.71779 27.9601 5.81788 28.1675C5.91796 28.3749 6.09628 28.534 6.31365 28.61C6.4053 28.6427 6.50186 28.6595 6.59916 28.6597C6.77958 28.6597 6.95551 28.6035 7.10255 28.4989C7.24959 28.3944 7.36044 28.2467 7.41972 28.0763L10.9303 18.0285H11.8266V25.1044C11.8269 25.3295 11.9165 25.5453 12.0757 25.7044C12.2348 25.8636 12.4506 25.9532 12.6757 25.9535H15.2925C15.6195 26.3563 16.0322 26.6811 16.5006 26.9042C16.9689 27.1272 17.4812 27.243 18 27.243C18.5188 27.243 19.031 27.1272 19.4994 26.9042C19.9678 26.6811 20.3805 26.3563 20.7074 25.9535H23.3243C23.5494 25.9532 23.7651 25.8636 23.9243 25.7044C24.0835 25.5453 24.173 25.3295 24.1734 25.1044V18.0285H25.0759L28.5865 28.0763C28.6458 28.2467 28.7566 28.3944 28.9036 28.4989C29.0507 28.6035 29.2266 28.6597 29.407 28.6597C29.5043 28.6595 29.6009 28.6427 29.6925 28.61C29.9099 28.534 30.0882 28.3749 30.1883 28.1675C30.2884 27.9601 30.3021 27.7214 30.2263 27.504L26.9168 18.0285H29.2295C29.4737 18.2459 29.7889 18.3664 30.1159 18.3674C30.471 18.3664 30.8113 18.2248 31.0623 17.9736C31.3134 17.7223 31.4546 17.3819 31.4553 17.0267V15.9281C31.4551 15.7839 31.4041 15.6444 31.3113 15.534C31.2184 15.4237 31.0896 15.3496 30.9476 15.3248C30.9476 15.295 30.9476 15.264 30.9476 15.2342V13.0878H34.1839C34.2965 13.0922 34.4089 13.0737 34.5143 13.0336C34.6197 12.9935 34.7158 12.9325 34.7971 12.8543C34.8783 12.7762 34.943 12.6824 34.9871 12.5786C35.0313 12.4749 35.054 12.3633 35.054 12.2505C35.054 12.1378 35.0313 12.0262 34.9871 11.9224C34.943 11.8187 34.8783 11.7249 34.7971 11.6467C34.7158 11.5686 34.6197 11.5076 34.5143 11.4675C34.4089 11.4273 34.2965 11.4089 34.1839 11.4132ZM18 25.5041C17.653 25.5044 17.3137 25.4017 17.025 25.209C16.7364 25.0164 16.5114 24.7424 16.3784 24.4219C16.2455 24.1013 16.2107 23.7485 16.2783 23.4082C16.346 23.0678 16.5131 22.7551 16.7584 22.5097C17.0038 22.2643 17.3165 22.0973 17.6569 22.0296C17.9972 21.962 18.35 21.9968 18.6706 22.1297C18.9911 22.2627 19.2651 22.4877 19.4577 22.7763C19.6504 23.065 19.7531 23.4043 19.7528 23.7513C19.7525 24.2161 19.5677 24.6617 19.2391 24.9904C18.9104 25.319 18.4648 25.5038 18 25.5041ZM22.4752 24.2553H21.4548C21.4787 24.0884 21.4908 23.9199 21.4908 23.7513C21.4908 22.8255 21.123 21.9376 20.4683 21.283C19.8137 20.6283 18.9258 20.2605 18 20.2605C17.0742 20.2605 16.1863 20.6283 15.5317 21.283C14.877 21.9376 14.5092 22.8255 14.5092 23.7513C14.5092 23.9199 14.5212 24.0884 14.5452 24.2553H13.531V18.0285H22.4814L22.4752 24.2553Z" fill="black"/>
</svg>
