<svg width="36" height="36" viewBox="0 0 36 36" fill="none" xmlns="http://www.w3.org/2000/svg">
<path d="M27.2707 7.52258H8.72945C8.40953 7.52291 8.10282 7.65014 7.8766 7.87636C7.65039 8.10257 7.52316 8.40929 7.52283 8.7292V27.2704C7.52316 27.5904 7.65039 27.8971 7.8766 28.1233C8.10282 28.3495 8.40953 28.4767 8.72945 28.4771H27.2707C27.5906 28.4767 27.8973 28.3495 28.1235 28.1233C28.3497 27.8971 28.477 27.5904 28.4773 27.2704V8.7292C28.477 8.40929 28.3497 8.10257 28.1235 7.87636C27.8973 7.65014 27.5906 7.52291 27.2707 7.52258ZM26.7865 26.7863H9.21359V9.21334H26.7865V26.7863Z" fill="black"/>
<path d="M12.2598 13.54C12.443 13.5402 12.6222 13.4861 12.7746 13.3845C12.9271 13.2829 13.046 13.1384 13.1162 12.9692C13.1865 12.8 13.205 12.6137 13.1695 12.434C13.1339 12.2543 13.0458 12.0892 12.9163 11.9595C12.7868 11.8299 12.6218 11.7416 12.4422 11.7058C12.2625 11.6699 12.0762 11.6882 11.9069 11.7582C11.7376 11.8283 11.5929 11.947 11.4911 12.0993C11.3893 12.2516 11.335 12.4307 11.335 12.6139C11.3353 12.8592 11.4328 13.0944 11.6061 13.268C11.7795 13.4415 12.0145 13.5393 12.2598 13.54Z" fill="black"/>
<path d="M12.2599 17.1311C12.4432 17.1313 12.6224 17.0772 12.7749 16.9755C12.9274 16.8739 13.0463 16.7292 13.1165 16.56C13.1867 16.3907 13.2052 16.2044 13.1695 16.0246C13.1338 15.8449 13.0456 15.6798 12.916 15.5502C12.7864 15.4206 12.6213 15.3324 12.4415 15.2967C12.2618 15.261 12.0755 15.2794 11.9062 15.3497C11.7369 15.4199 11.5923 15.5388 11.4906 15.6913C11.389 15.8438 11.3348 16.023 11.3351 16.2062C11.3354 16.4514 11.433 16.6865 11.6063 16.8598C11.7797 17.0332 12.0147 17.1307 12.2599 17.1311Z" fill="black"/>
<path d="M12.2598 20.721C12.7713 20.721 13.1859 20.3064 13.1859 19.795C13.1859 19.2835 12.7713 18.8689 12.2598 18.8689C11.7484 18.8689 11.3337 19.2835 11.3337 19.795C11.3337 20.3064 11.7484 20.721 12.2598 20.721Z" fill="black"/>
<path d="M12.2599 24.3112C12.4432 24.3115 12.6224 24.2574 12.7749 24.1557C12.9274 24.054 13.0463 23.9094 13.1165 23.7401C13.1867 23.5709 13.2052 23.3846 13.1695 23.2048C13.1338 23.0251 13.0456 22.8599 12.916 22.7303C12.7864 22.6008 12.6213 22.5125 12.4415 22.4768C12.2618 22.4411 12.0755 22.4596 11.9062 22.5298C11.7369 22.6001 11.5923 22.719 11.4906 22.8715C11.389 23.0239 11.3348 23.2032 11.3351 23.3864C11.3354 23.6316 11.433 23.8666 11.6063 24.04C11.7797 24.2134 12.0147 24.3109 12.2599 24.3112Z" fill="black"/>
<path d="M16.0871 13.5399C16.2702 13.5399 16.4493 13.4856 16.6016 13.3838C16.7539 13.2821 16.8726 13.1374 16.9427 12.9682C17.0127 12.799 17.0311 12.6128 16.9953 12.4331C16.9596 12.2535 16.8714 12.0885 16.7419 11.959C16.6124 11.8295 16.4474 11.7413 16.2677 11.7055C16.0881 11.6698 15.9019 11.6881 15.7327 11.7582C15.5635 11.8283 15.4188 11.947 15.3171 12.0993C15.2153 12.2516 15.161 12.4307 15.161 12.6138C15.161 12.8594 15.2586 13.095 15.4323 13.2686C15.6059 13.4423 15.8415 13.5399 16.0871 13.5399Z" fill="black"/>
<path d="M16.087 17.131C16.2702 17.131 16.4493 17.0766 16.6016 16.9748C16.7539 16.873 16.8726 16.7283 16.9426 16.559C17.0127 16.3897 17.031 16.2034 16.9951 16.0238C16.9593 15.8441 16.871 15.6791 16.7413 15.5496C16.6117 15.4201 16.4466 15.332 16.2669 15.2965C16.0871 15.2609 15.9009 15.2794 15.7317 15.3497C15.5625 15.4199 15.418 15.5388 15.3164 15.6913C15.2147 15.8437 15.1606 16.0229 15.1609 16.2061C15.1612 16.4515 15.2589 16.6868 15.4326 16.8602C15.6062 17.0336 15.8416 17.131 16.087 17.131Z" fill="black"/>
<path d="M16.0871 20.721C16.5985 20.721 17.0131 20.3064 17.0131 19.795C17.0131 19.2835 16.5985 18.8689 16.0871 18.8689C15.5756 18.8689 15.161 19.2835 15.161 19.795C15.161 20.3064 15.5756 20.721 16.0871 20.721Z" fill="black"/>
<path d="M16.087 24.3113C16.2702 24.3113 16.4493 24.2569 16.6016 24.1551C16.7539 24.0533 16.8726 23.9086 16.9426 23.7393C17.0127 23.57 17.031 23.3837 16.9951 23.2041C16.9593 23.0244 16.871 22.8594 16.7413 22.7299C16.6117 22.6004 16.4466 22.5123 16.2669 22.4767C16.0871 22.4412 15.9009 22.4597 15.7317 22.53C15.5625 22.6002 15.418 22.7191 15.3164 22.8716C15.2147 23.024 15.1606 23.2032 15.1609 23.3864C15.1612 23.6318 15.2589 23.867 15.4326 24.0405C15.6062 24.2139 15.8416 24.3113 16.087 24.3113Z" fill="black"/>
<path d="M19.913 13.54C20.0962 13.5402 20.2754 13.4861 20.4278 13.3845C20.5803 13.2829 20.6992 13.1384 20.7694 12.9692C20.8397 12.8 20.8582 12.6137 20.8226 12.434C20.7871 12.2543 20.699 12.0892 20.5695 11.9595C20.44 11.8299 20.275 11.7416 20.0953 11.7058C19.9157 11.6699 19.7294 11.6882 19.5601 11.7582C19.3908 11.8283 19.2461 11.947 19.1443 12.0993C19.0425 12.2516 18.9882 12.4307 18.9882 12.6139C18.9885 12.8592 19.086 13.0944 19.2593 13.268C19.4327 13.4415 19.6677 13.5393 19.913 13.54Z" fill="black"/>
<path d="M19.913 17.1311C20.0963 17.1313 20.2755 17.0772 20.428 16.9755C20.5804 16.8739 20.6993 16.7292 20.7696 16.56C20.8398 16.3907 20.8583 16.2044 20.8226 16.0246C20.7869 15.8449 20.6986 15.6798 20.5691 15.5502C20.4395 15.4206 20.2743 15.3324 20.0946 15.2967C19.9148 15.261 19.7285 15.2794 19.5593 15.3497C19.39 15.4199 19.2454 15.5388 19.1437 15.6913C19.042 15.8438 18.9879 16.023 18.9882 16.2062C18.9885 16.4514 19.086 16.6865 19.2594 16.8598C19.4328 17.0332 19.6678 17.1307 19.913 17.1311Z" fill="black"/>
<path d="M19.913 20.721C20.4245 20.721 20.8391 20.3064 20.8391 19.795C20.8391 19.2835 20.4245 18.8689 19.913 18.8689C19.4016 18.8689 18.9869 19.2835 18.9869 19.795C18.9869 20.3064 19.4016 20.721 19.913 20.721Z" fill="black"/>
<path d="M19.913 24.3112C20.0963 24.3115 20.2755 24.2574 20.428 24.1557C20.5804 24.054 20.6993 23.9094 20.7696 23.7401C20.8398 23.5709 20.8583 23.3846 20.8226 23.2048C20.7869 23.0251 20.6986 22.8599 20.5691 22.7303C20.4395 22.6008 20.2743 22.5125 20.0946 22.4768C19.9148 22.4411 19.7285 22.4596 19.5593 22.5298C19.39 22.6001 19.2454 22.719 19.1437 22.8715C19.042 23.0239 18.9879 23.2032 18.9882 23.3864C18.9885 23.6316 19.086 23.8666 19.2594 24.04C19.4328 24.2134 19.6678 24.3109 19.913 24.3112Z" fill="black"/>
<path d="M23.7402 13.5399C23.9233 13.5399 24.1024 13.4856 24.2547 13.3838C24.4069 13.2821 24.5256 13.1374 24.5957 12.9682C24.6658 12.799 24.6842 12.6128 24.6484 12.4331C24.6127 12.2535 24.5245 12.0885 24.395 11.959C24.2655 11.8295 24.1005 11.7413 23.9208 11.7055C23.7412 11.6698 23.555 11.6881 23.3858 11.7582C23.2165 11.8283 23.0719 11.947 22.9702 12.0993C22.8684 12.2516 22.8141 12.4307 22.8141 12.6138C22.8141 12.8594 22.9117 13.095 23.0853 13.2686C23.259 13.4423 23.4946 13.5399 23.7402 13.5399Z" fill="black"/>
<path d="M23.7402 17.131C23.9234 17.131 24.1025 17.0766 24.2548 16.9748C24.4071 16.873 24.5258 16.7283 24.5958 16.559C24.6659 16.3897 24.6842 16.2034 24.6483 16.0238C24.6125 15.8441 24.5242 15.6791 24.3945 15.5496C24.2649 15.4201 24.0998 15.332 23.9201 15.2965C23.7403 15.2609 23.5541 15.2794 23.3849 15.3497C23.2157 15.4199 23.0712 15.5388 22.9696 15.6913C22.8679 15.8437 22.8138 16.0229 22.8141 16.2061C22.8144 16.4515 22.9121 16.6868 23.0858 16.8602C23.2594 17.0336 23.4948 17.131 23.7402 17.131Z" fill="black"/>
<path d="M23.7402 20.721C24.2516 20.721 24.6662 20.3064 24.6662 19.795C24.6662 19.2835 24.2516 18.8689 23.7402 18.8689C23.2287 18.8689 22.8141 19.2835 22.8141 19.795C22.8141 20.3064 23.2287 20.721 23.7402 20.721Z" fill="black"/>
<path d="M23.7402 24.3113C23.9234 24.3113 24.1025 24.2569 24.2548 24.1551C24.4071 24.0533 24.5258 23.9086 24.5958 23.7393C24.6659 23.57 24.6842 23.3837 24.6483 23.2041C24.6125 23.0244 24.5242 22.8594 24.3945 22.7299C24.2649 22.6004 24.0998 22.5123 23.9201 22.4767C23.7403 22.4412 23.5541 22.4597 23.3849 22.53C23.2157 22.6002 23.0712 22.7191 22.9696 22.8716C22.8679 23.024 22.8138 23.2032 22.8141 23.3864C22.8144 23.6318 22.9121 23.867 23.0858 24.0405C23.2594 24.2139 23.4948 24.3113 23.7402 24.3113Z" fill="black"/>
</svg>
