<svg width="36" height="36" viewBox="0 0 36 36" fill="none" xmlns="http://www.w3.org/2000/svg">
<path d="M33.3559 21.8062L32.1245 19.9863C32.0203 19.8346 31.934 19.6713 31.8675 19.4997C31.8141 19.3495 31.7546 19.2067 31.6925 19.0578C31.6304 18.9088 31.587 18.802 31.5423 18.6767L30.0005 14.4808C29.8591 13.8932 29.5785 13.3483 29.1824 12.8918C27.1763 10.6102 23.5441 8.6128 22.6031 8.11749L21.2152 6.05183C20.8764 5.55149 20.3534 5.20545 19.7604 5.08917C19.1674 4.97289 18.5525 5.09582 18.0497 5.43114L3.43497 15.2902C2.93489 15.6293 2.58906 16.1522 2.4728 16.7451C2.35654 17.338 2.47928 17.9529 2.81428 18.4557L7.9511 26.0691C8.28998 26.5694 8.81295 26.9154 9.40596 27.0317C9.99896 27.148 10.6139 27.0251 11.1166 26.6897L21.4052 19.7529C21.9774 21.0886 22.6826 21.8633 24.7668 23.4448L24.8661 23.5118C25.1257 23.6703 25.3632 23.8623 25.5725 24.0829C25.6225 24.1377 25.6677 24.1967 25.7078 24.2591L26.9715 26.11C27.1555 26.3819 27.4398 26.5698 27.762 26.6326C28.0842 26.6954 28.4182 26.628 28.6908 26.4452L33.0208 23.5267C33.293 23.3427 33.4811 23.0582 33.5439 22.7357C33.6067 22.4132 33.5391 22.0789 33.3559 21.8062ZM10.1794 25.2944C10.0456 25.3843 9.88168 25.4174 9.72349 25.3867C9.5653 25.356 9.42571 25.2639 9.33524 25.1306L4.20462 17.5209C4.1148 17.3871 4.08162 17.2232 4.11232 17.065C4.14303 16.9068 4.23513 16.7673 4.36848 16.6768L18.9646 6.83763L19.0031 6.81404C19.1362 6.73041 19.2966 6.70178 19.4504 6.73421C19.6042 6.76664 19.7394 6.85759 19.8274 6.98783L24.9592 14.5987C25.0487 14.7324 25.0816 14.896 25.0509 15.0539C25.0202 15.2118 24.9284 15.3512 24.7954 15.4416L24.3894 15.716C23.9103 14.8346 22.9321 13.0793 22.5013 12.6572C21.6584 11.8342 20.5536 12.0129 19.8609 12.4176C19.6039 12.5712 19.381 12.7755 19.2057 13.0182C19.0305 13.2609 18.9066 13.5368 18.8417 13.8291C18.7718 14.1428 18.7658 14.4673 18.824 14.7834C18.8822 15.0995 19.0035 15.4006 19.1806 15.6688L20.6541 18.2335L10.1794 25.2944ZM28.1074 24.819L27.0845 23.3219C27.0033 23.1966 26.9128 23.0775 26.8139 22.9656C26.5064 22.6309 26.1557 22.3387 25.7711 22.0966L25.7463 22.0805C23.2821 20.1973 22.5845 18.1565 22.5448 18.0944L20.5921 14.7725L20.5772 14.7489C20.5228 14.6678 20.4856 14.5763 20.4679 14.4803C20.4502 14.3842 20.4523 14.2855 20.4741 14.1903C20.4883 14.1219 20.5164 14.0571 20.5568 14C20.5972 13.943 20.6489 13.8949 20.7088 13.8589C20.8354 13.7852 20.9855 13.7628 21.1282 13.7962C21.2708 13.8297 21.3953 13.9165 21.4759 14.0389L23.1034 16.3863C23.4243 16.8584 23.9125 17.1909 24.4693 17.3168C25.026 17.4426 25.6098 17.3523 26.1026 17.0641C26.3595 16.9107 26.5823 16.7063 26.7574 16.4636C26.9324 16.2208 27.056 15.9449 27.1205 15.6527C27.1914 15.3363 27.1972 15.0088 27.1374 14.6902C27.0777 14.3715 26.9536 14.0684 26.7729 13.7993L25.1094 11.5983C26.1435 12.3171 27.1763 13.1426 27.9224 13.9904C28.1471 14.2511 28.3842 14.9165 28.3842 14.9165C28.3917 14.9451 29.9657 19.239 29.9657 19.239C30.0216 19.3966 30.0899 19.5493 30.1519 19.7107C30.2003 19.8349 30.25 19.9491 30.2972 20.0831C30.41 20.3817 30.5584 20.6655 30.7391 20.9285L31.7248 22.3909L28.1074 24.819Z" fill="black"/>
<path d="M16.6134 13.7719C14.7804 13.4365 12.8884 13.8034 11.3136 14.7996C9.73892 15.7958 8.59694 17.3484 8.11489 19.1483V19.162C8.09812 19.2376 8.0965 19.3157 8.11011 19.3919C8.12373 19.4682 8.15231 19.5409 8.19421 19.606C8.23611 19.6711 8.2905 19.7273 8.35423 19.7712C8.41796 19.8152 8.48977 19.8461 8.56551 19.8621L8.96524 19.949C9.00614 19.957 9.0477 19.9612 9.08938 19.9614C9.21922 19.9611 9.34528 19.9176 9.44774 19.8379C9.5502 19.7581 9.62326 19.6465 9.65544 19.5208C10.0391 18.1165 10.9346 16.9067 12.1656 16.1297C13.3967 15.3526 14.874 15.0647 16.3067 15.3224C16.44 15.348 16.5781 15.3265 16.6972 15.2615C16.8163 15.1965 16.9091 15.0921 16.9597 14.9661C16.9712 14.9393 16.9799 14.9115 16.9858 14.883L17.0838 14.4646C17.0988 14.3892 17.0987 14.3116 17.0836 14.2362C17.0685 14.1608 17.0386 14.0892 16.9957 14.0254C16.9528 13.9616 16.8977 13.9069 16.8335 13.8644C16.7694 13.822 16.6975 13.7927 16.6221 13.7781L16.6134 13.7719Z" fill="black"/>
<path d="M16.2621 16.4744C15.0687 16.2798 13.8453 16.5298 12.8239 17.1771C11.8025 17.8244 11.0541 18.824 10.7206 19.9863C10.7206 20.0012 10.7206 20.0099 10.7119 20.021C10.6963 20.0964 10.6958 20.1742 10.7103 20.2498C10.7247 20.3254 10.754 20.3974 10.7963 20.4617C10.8388 20.5257 10.8937 20.5806 10.9576 20.6233C11.0215 20.6659 11.0933 20.6954 11.1687 20.71L11.5635 20.7944L11.6156 20.8019H11.6827C11.8112 20.8017 11.9362 20.7597 12.0388 20.6822C12.1413 20.6047 12.2159 20.496 12.2512 20.3724C12.4819 19.5954 12.9863 18.9283 13.671 18.4947C14.3557 18.061 15.1743 17.8902 15.9754 18.0137C16.1079 18.0364 16.2441 18.0129 16.3614 17.9471C16.4787 17.8814 16.5698 17.7774 16.6196 17.6525C16.6301 17.6268 16.6384 17.6002 16.6445 17.5731L16.7376 17.1758C16.7376 17.1671 16.7376 17.156 16.7438 17.1435C16.7681 16.991 16.7312 16.835 16.6409 16.7096C16.5507 16.5843 16.4145 16.4997 16.2621 16.4744Z" fill="black"/>
</svg>
