<svg width="36" height="36" viewBox="0 0 36 36" fill="none" xmlns="http://www.w3.org/2000/svg">
<path d="M15.1523 9.19348C14.9755 9.19348 14.8027 9.2459 14.6557 9.34411C14.5087 9.44232 14.3942 9.58191 14.3265 9.74523C14.2589 9.90855 14.2412 10.0883 14.2757 10.2616C14.3101 10.435 14.3953 10.5943 14.5203 10.7193C14.6453 10.8443 14.8045 10.9294 14.9779 10.9639C15.1513 10.9984 15.331 10.9807 15.4943 10.913C15.6576 10.8454 15.7972 10.7308 15.8954 10.5838C15.9936 10.4369 16.046 10.264 16.046 10.0873C16.0457 9.85033 15.9514 9.62318 15.7839 9.45563C15.6164 9.28808 15.3892 9.19381 15.1523 9.19348Z" fill="black"/>
<path d="M8.42523 19.0886C7.94401 19.0886 7.47359 19.2313 7.07347 19.4987C6.67335 19.766 6.36149 20.146 6.17734 20.5906C5.99318 21.0352 5.945 21.5244 6.03888 21.9964C6.13276 22.4684 6.36449 22.9019 6.70477 23.2422C7.04504 23.5825 7.47858 23.8142 7.95056 23.9081C8.42253 24.002 8.91175 23.9538 9.35634 23.7696C9.80094 23.5855 10.1809 23.2736 10.4483 22.8735C10.7156 22.4734 10.8583 22.0029 10.8583 21.5217C10.8577 20.8766 10.6011 20.2581 10.145 19.802C9.68882 19.3458 9.07033 19.0893 8.42523 19.0886ZM8.42523 22.2169C8.28774 22.2169 8.15334 22.1761 8.03902 22.0997C7.9247 22.0234 7.83559 21.9148 7.78298 21.7878C7.73036 21.6607 7.71659 21.521 7.74342 21.3861C7.77024 21.2513 7.83645 21.1274 7.93367 21.0302C8.03089 20.9329 8.15476 20.8667 8.28961 20.8399C8.42446 20.8131 8.56424 20.8269 8.69127 20.8795C8.81829 20.9321 8.92686 21.0212 9.00325 21.1355C9.07964 21.2498 9.12041 21.3842 9.12041 21.5217C9.12073 21.6133 9.103 21.704 9.06823 21.7887C9.03345 21.8734 8.98232 21.9504 8.91775 22.0153C8.85318 22.0802 8.77644 22.1318 8.69193 22.167C8.60742 22.2022 8.51679 22.2205 8.42523 22.2206V22.2169Z" fill="black"/>
<path d="M33.8438 18.7745L32.2498 17.9303L33.2355 16.0683L30.934 14.8492C30.5823 14.6627 30.1971 14.548 29.8007 14.5118C29.4043 14.4755 29.0046 14.5185 28.625 14.6382L17.398 7.11047C17.2865 7.02574 17.17 6.9478 17.0491 6.87709C16.2768 6.42025 15.3656 6.25761 14.4829 6.41908C13.6002 6.58056 12.8056 7.0553 12.245 7.75599C12.142 7.88013 4.5795 17.399 4.46033 17.5182C3.86721 18.1038 3.41131 18.8137 3.12545 19.5967C2.8396 20.3796 2.73089 21.2162 2.80716 22.0463C2.88344 22.8763 3.14279 23.6791 3.56655 24.3969C3.99031 25.1146 4.56794 25.7295 5.25785 26.1972C5.94776 26.665 6.7328 26.9739 7.55644 27.1019C8.38009 27.2298 9.22185 27.1735 10.0211 26.9371C10.8204 26.7007 11.5574 26.29 12.1789 25.7346C12.8004 25.1792 13.291 24.4929 13.6155 23.7251L17.2552 14.7822L26.5867 18.1749C26.682 18.5983 26.8678 18.996 27.1314 19.3408C27.395 19.6855 27.73 19.9692 28.1136 20.1723L30.4138 21.3913L31.433 19.4659L33.0282 20.3101C33.2313 20.4124 33.4664 20.431 33.6831 20.3619C33.8997 20.2929 34.0807 20.1416 34.1871 19.9407C34.2935 19.7397 34.3169 19.505 34.2523 19.287C34.1876 19.0689 34.0401 18.8849 33.8413 18.7745H33.8438ZM8.42529 25.4221C7.65356 25.4221 6.89917 25.1932 6.25752 24.7644C5.61587 24.3357 5.11579 23.7262 4.82051 23.0132C4.52524 22.3002 4.44805 21.5157 4.5987 20.7588C4.74934 20.0019 5.12106 19.3067 5.66684 18.7611C6.21263 18.2155 6.90795 17.844 7.66488 17.6936C8.42181 17.5432 9.20634 17.6206 9.91925 17.9161C10.6322 18.2116 11.2414 18.7119 11.67 19.3537C12.0986 19.9955 12.3272 20.7499 12.3269 21.5216C12.3256 22.5559 11.9141 23.5474 11.1826 24.2786C10.4512 25.0099 9.45956 25.4211 8.42529 25.4221ZM13.5745 19.2251C13.1301 18.2306 12.4075 17.3859 11.4939 16.7927C10.5803 16.1995 9.51458 15.8833 8.42529 15.8821C8.30984 15.8821 8.19439 15.8821 8.08019 15.8932L11.6603 11.4019C11.8703 11.9559 12.2086 12.4522 12.6475 12.8501C13.0865 13.248 13.6134 13.5362 14.1853 13.691C14.2536 13.7096 15.6216 14.1876 15.6216 14.1876L13.5745 19.2251ZM15.1523 12.081C14.758 12.081 14.3726 11.964 14.0447 11.745C13.7169 11.5259 13.4613 11.2145 13.3104 10.8502C13.1595 10.4859 13.12 10.0851 13.197 9.69836C13.2739 9.31163 13.4638 8.95639 13.7426 8.67757C14.0214 8.39875 14.3766 8.20888 14.7634 8.13195C15.1501 8.05503 15.551 8.09451 15.9153 8.2454C16.2796 8.3963 16.5909 8.65183 16.81 8.97968C17.0291 9.30754 17.146 9.69299 17.146 10.0873C17.1453 10.6158 16.9351 11.1226 16.5613 11.4963C16.1876 11.87 15.6809 12.0803 15.1523 12.081ZM26.8622 16.1005C26.8159 16.1905 26.7744 16.2829 26.7381 16.3774L17.9119 13.1709C17.9119 13.1709 18.6158 11.4739 18.6431 11.4019C18.7894 11.0163 18.8695 10.6088 18.8802 10.1965L27.1068 15.712C27.016 15.8354 26.9342 15.9653 26.8622 16.1005ZM29.6938 19.0426L28.9242 18.6367C28.6257 18.4782 28.4022 18.2078 28.3029 17.8848C28.2035 17.5618 28.2363 17.2125 28.3941 16.9136C28.4728 16.7656 28.5799 16.6345 28.7093 16.5278C28.8386 16.4211 28.9878 16.341 29.1482 16.292C29.3085 16.243 29.477 16.2261 29.6439 16.2422C29.8108 16.2584 29.9729 16.3072 30.1209 16.3861L30.8868 16.792L29.6938 19.0426Z" fill="black"/>
</svg>
