<svg width="36" height="36" viewBox="0 0 36 36" fill="none" xmlns="http://www.w3.org/2000/svg">
<path d="M28.5579 19.558H25.5513V17.3372C25.5506 16.8567 25.3595 16.3961 25.0197 16.0563C24.68 15.7166 24.2193 15.5254 23.7389 15.5247H23.3764V13.582C23.3764 13.4914 23.3764 13.4007 23.3702 13.3114H26.7505C26.9809 13.3114 27.2019 13.2198 27.3649 13.0568C27.5279 12.8939 27.6194 12.6729 27.6194 12.4424V9.25577C28.2279 9.04978 28.7434 8.63435 29.074 8.08356C29.4046 7.53277 29.5287 6.88245 29.4244 6.2486C29.32 5.61475 28.9938 5.0386 28.5041 4.6229C28.0143 4.2072 27.3928 3.979 26.7505 3.979C26.1081 3.979 25.4866 4.2072 24.9968 4.6229C24.5071 5.0386 24.1809 5.61475 24.0765 6.2486C23.9722 6.88245 24.0963 7.53277 24.4269 8.08356C24.7575 8.63435 25.273 9.04978 25.8815 9.25577V11.5734H23.0102C22.6108 10.5005 21.8929 9.57545 20.9528 8.92224C20.0127 8.26903 18.8952 7.91894 17.7504 7.91894C16.6057 7.91894 15.4882 8.26903 14.5481 8.92224C13.608 9.57545 12.8901 10.5005 12.4907 11.5734H10.322C10.116 10.9646 9.70045 10.4488 9.14942 10.118C8.59839 9.78714 7.94775 9.66283 7.31356 9.76722C6.67938 9.8716 6.10291 10.1979 5.68698 10.6879C5.27105 11.1779 5.04272 11.7997 5.04272 12.4424C5.04272 13.0851 5.27105 13.7069 5.68698 14.1969C6.10291 14.6869 6.67938 15.0132 7.31356 15.1176C7.94775 15.222 8.59839 15.0976 9.14942 14.7668C9.70045 14.436 10.116 13.9202 10.322 13.3114H12.1444C12.1444 13.3846 12.1444 13.4578 12.1444 13.5311V15.5247H11.7769C11.2965 15.5254 10.8358 15.7166 10.4961 16.0563C10.1563 16.3961 9.96517 16.8567 9.96452 17.3372V19.558H6.74686C6.5164 19.558 6.29537 19.6495 6.13241 19.8125C5.96945 19.9755 5.8779 20.1965 5.8779 20.427V23.6148C5.26943 23.8208 4.75393 24.2362 4.42334 24.787C4.09275 25.3378 3.96857 25.9881 4.07295 26.622C4.17733 27.2558 4.50348 27.832 4.99323 28.2477C5.48298 28.6634 6.10448 28.8916 6.74686 28.8916C7.38925 28.8916 8.01074 28.6634 8.50049 28.2477C8.99025 27.832 9.3164 27.2558 9.42078 26.622C9.52516 25.9881 9.40098 25.3378 9.07039 24.787C8.7398 24.2362 8.22429 23.8208 7.61583 23.6148V21.2959H9.96452V23.8619C9.96517 24.3423 10.1563 24.8029 10.4961 25.1427C10.8358 25.4824 11.2965 25.6736 11.7769 25.6743H23.7389C24.2193 25.6736 24.68 25.4824 25.0197 25.1427C25.3595 24.8029 25.5506 24.3423 25.5513 23.8619V21.2959H27.6889V28.9168H21.5727C21.3736 28.3056 20.9639 27.7851 20.4167 27.448C19.8695 27.1109 19.2203 26.9792 18.585 27.0763C17.9497 27.1735 17.3695 27.4932 16.948 27.9784C16.5265 28.4636 16.2911 29.0827 16.2838 29.7254C16.2764 30.3681 16.4976 30.9924 16.9079 31.4871C17.3182 31.9818 17.8909 32.3147 18.5239 32.4263C19.1568 32.538 19.8088 32.4211 20.3636 32.0966C20.9184 31.7721 21.3398 31.2611 21.5528 30.6547H28.5579C28.7884 30.6547 29.0094 30.5631 29.1723 30.4002C29.3353 30.2372 29.4269 30.0162 29.4269 29.7857V20.427C29.4269 20.1965 29.3353 19.9755 29.1723 19.8125C29.0094 19.6495 28.7884 19.558 28.5579 19.558ZM25.7785 6.68984C25.7785 6.49759 25.8355 6.30967 25.9423 6.14982C26.0491 5.98998 26.2009 5.86539 26.3785 5.79183C26.5561 5.71826 26.7515 5.69901 26.9401 5.73651C27.1286 5.77402 27.3018 5.86659 27.4378 6.00253C27.5737 6.13847 27.6663 6.31166 27.7038 6.50021C27.7413 6.68876 27.722 6.8842 27.6485 7.06181C27.5749 7.23942 27.4503 7.39122 27.2905 7.49803C27.1306 7.60483 26.9427 7.66184 26.7505 7.66184C26.4928 7.66151 26.2457 7.559 26.0635 7.37678C25.8813 7.19457 25.7788 6.94753 25.7785 6.68984ZM7.7561 13.4156C7.56356 13.4159 7.37527 13.359 7.21506 13.2522C7.05485 13.1454 6.92992 12.9935 6.85606 12.8157C6.78221 12.6379 6.76276 12.4422 6.80017 12.2533C6.83758 12.0644 6.93018 11.8909 7.06624 11.7546C7.2023 11.6184 7.37571 11.5256 7.56454 11.4879C7.75336 11.4503 7.94911 11.4695 8.12702 11.5431C8.30493 11.6167 8.457 11.7415 8.564 11.9016C8.67099 12.0616 8.7281 12.2499 8.7281 12.4424C8.7281 12.7003 8.62574 12.9477 8.44349 13.1301C8.26124 13.3126 8.01401 13.4153 7.7561 13.4156ZM7.71886 26.1807C7.71886 26.373 7.66186 26.5609 7.55505 26.7208C7.44825 26.8806 7.29644 27.0052 7.11883 27.0788C6.94122 27.1523 6.74578 27.1716 6.55724 27.1341C6.36869 27.0966 6.19549 27.004 6.05956 26.8681C5.92362 26.7321 5.83104 26.5589 5.79354 26.3704C5.75604 26.1818 5.77528 25.9864 5.84885 25.8088C5.92242 25.6312 6.047 25.4794 6.20685 25.3726C6.36669 25.2658 6.55462 25.2087 6.74686 25.2087C7.00455 25.2091 7.25159 25.3116 7.43381 25.4938C7.61602 25.676 7.71853 25.9231 7.71886 26.1807ZM13.5893 13.5311C13.5798 12.9775 13.6806 12.4276 13.8858 11.9134C14.091 11.3992 14.3966 10.931 14.7847 10.5362C15.1728 10.1414 15.6356 9.82774 16.1462 9.61367C16.6568 9.3996 17.2049 9.28934 17.7585 9.28934C18.3122 9.28934 18.8603 9.3996 19.3708 9.61367C19.8814 9.82774 20.3442 10.1414 20.7323 10.5362C21.1204 10.931 21.426 11.3992 21.6312 11.9134C21.8365 12.4276 21.9372 12.9775 21.9277 13.5311V15.5247H13.5893V13.5311ZM24.1026 23.8619C24.1023 23.9581 24.0638 24.0503 23.9956 24.1182C23.9274 24.1862 23.8351 24.2243 23.7389 24.2243H11.7769C11.6819 24.2227 11.5913 24.1838 11.5246 24.116C11.458 24.0482 11.4206 23.9569 11.4207 23.8619V17.3372C11.4207 17.2409 11.4588 17.1486 11.5267 17.0804C11.5947 17.0122 11.6869 16.9738 11.7831 16.9734H23.7451C23.7928 16.9734 23.8401 16.9828 23.8843 17.0011C23.9284 17.0194 23.9685 17.0462 24.0023 17.08C24.036 17.1137 24.0628 17.1538 24.0811 17.198C24.0994 17.2421 24.1088 17.2894 24.1088 17.3372L24.1026 23.8619ZM18.9931 30.7292C18.8008 30.7292 18.6129 30.6722 18.4531 30.5654C18.2932 30.4585 18.1686 30.3067 18.0951 30.1291C18.0215 29.9515 18.0022 29.7561 18.0397 29.5675C18.0773 29.379 18.1698 29.2058 18.3058 29.0699C18.4417 28.9339 18.6149 28.8413 18.8034 28.8038C18.992 28.7663 19.1874 28.7856 19.365 28.8592C19.5426 28.9327 19.6945 29.0573 19.8013 29.2171C19.9081 29.377 19.9651 29.5649 19.9651 29.7572C19.9647 30.0149 19.8622 30.2619 19.68 30.4441C19.4978 30.6263 19.2508 30.7288 18.9931 30.7292Z" fill="black"/>
<path d="M17.7703 18.329C17.4276 18.3284 17.094 18.4389 16.8194 18.6439C16.5447 18.8489 16.3439 19.1373 16.2471 19.466C16.1502 19.7947 16.1624 20.146 16.2819 20.4671C16.4014 20.7883 16.6218 21.0621 16.91 21.2475V22.037C16.91 22.2651 17.0007 22.4839 17.162 22.6453C17.3233 22.8066 17.5421 22.8972 17.7703 22.8972C17.9985 22.8972 18.2173 22.8066 18.3786 22.6453C18.5399 22.4839 18.6306 22.2651 18.6306 22.037V21.2475C18.9188 21.0621 19.1392 20.7883 19.2587 20.4671C19.3782 20.146 19.3904 19.7947 19.2936 19.466C19.1967 19.1373 18.9959 18.8489 18.7212 18.6439C18.4466 18.4389 18.113 18.3284 17.7703 18.329Z" fill="black"/>
</svg>
