<svg width="36" height="36" viewBox="0 0 36 36" fill="none" xmlns="http://www.w3.org/2000/svg">
<path d="M9.5685 31.9135L10.2897 32.2263C10.403 32.2755 10.5312 32.2777 10.6461 32.2326C10.761 32.1874 10.8534 32.0986 10.903 31.9855L17.6188 16.9859L17.666 16.9934C17.774 17.0104 17.8831 17.02 17.9925 17.0219C18.1068 17.0198 18.2209 17.0099 18.3339 16.9921H18.3811L25.0969 31.9905C25.1207 32.0471 25.1558 32.0982 25.2 32.1409C25.2441 32.1836 25.2965 32.2169 25.3539 32.2387C25.4103 32.2624 25.4708 32.2746 25.532 32.2746C25.5932 32.2746 25.6537 32.2624 25.7102 32.2387L26.4314 31.9247C26.4881 31.9008 26.5394 31.866 26.5826 31.8222C26.6258 31.7785 26.6599 31.7266 26.6829 31.6696C26.706 31.6126 26.7176 31.5517 26.717 31.4902C26.7165 31.4287 26.7038 31.368 26.6797 31.3114L23.4062 24.2356L23.4595 24.2083C25.7874 22.9886 27.6393 21.0239 28.7192 18.6279C29.7991 16.232 30.0446 13.5433 29.4166 10.9914C28.7886 8.43947 27.3233 6.17175 25.2548 4.55062C23.1864 2.92948 20.6342 2.04852 18.0062 2.04852C15.3781 2.04852 12.8259 2.92948 10.7575 4.55062C8.68903 6.17175 7.22371 8.43947 6.5957 10.9914C5.96769 13.5433 6.21325 16.232 7.29313 18.6279C8.37301 21.0239 10.2249 22.9886 12.5528 24.2083L12.6062 24.2356L9.33264 31.3114C9.30898 31.3678 9.29679 31.4284 9.29679 31.4896C9.29679 31.5507 9.30898 31.6113 9.33264 31.6677C9.3764 31.7771 9.46098 31.8652 9.5685 31.9135ZM17.9925 15.3038C17.6979 15.3038 17.4099 15.2165 17.1649 15.0528C16.9199 14.8891 16.729 14.6565 16.6162 14.3843C16.5035 14.1121 16.474 13.8125 16.5315 13.5236C16.5889 13.2346 16.7308 12.9692 16.9392 12.7608C17.1475 12.5525 17.4129 12.4106 17.7019 12.3532C17.9908 12.2957 18.2904 12.3252 18.5626 12.4379C18.8348 12.5507 19.0674 12.7416 19.2311 12.9866C19.3948 13.2316 19.4822 13.5196 19.4822 13.8142C19.4805 14.2088 19.323 14.5867 19.044 14.8657C18.765 15.1447 18.3871 15.3022 17.9925 15.3038ZM20.9991 18.6978L19.9688 16.3267L20.0048 16.2969C20.5236 15.8799 20.9001 15.312 21.0822 14.6717C21.2643 14.0314 21.243 13.3504 21.0212 12.7227C20.7995 12.095 20.3882 11.5518 19.8443 11.168C19.3004 10.7842 18.6508 10.5788 17.9851 10.5802C17.3194 10.5817 16.6706 10.7899 16.1284 11.176C15.5861 11.5622 15.1773 12.1072 14.9582 12.7358C14.7392 13.3644 14.7208 14.0456 14.9057 14.6851C15.0906 15.3246 15.4695 15.8908 15.9902 16.3056L16.0274 16.3354L15.0008 18.6941L14.9387 18.6568C13.8818 17.9927 13.0696 17.003 12.6245 15.8369C12.1793 14.6707 12.1255 13.3915 12.471 12.1921C12.8166 10.9927 13.5428 9.93817 14.5401 9.18762C15.5374 8.43706 16.7518 8.03117 17.9999 8.03117C19.2481 8.03117 20.4625 8.43706 21.4598 9.18762C22.4571 9.93817 23.1833 10.9927 23.5289 12.1921C23.8744 13.3915 23.8206 14.6707 23.3754 15.8369C22.9303 17.003 22.1181 17.9927 21.0612 18.6568L20.9991 18.6978ZM8.09746 13.7869C8.09708 12.0372 8.56031 10.3186 9.44 8.80612C10.3197 7.29363 11.5844 6.04123 13.1055 5.17641C14.6265 4.31159 16.3495 3.86522 18.0991 3.88275C19.8488 3.90028 21.5625 4.38107 23.0659 5.2762C24.5693 6.17132 25.8087 7.44881 26.6579 8.97862C27.5071 10.5084 27.9358 12.2359 27.9004 13.9853C27.865 15.7346 27.3666 17.4433 26.4562 18.9375C25.5457 20.4317 24.2556 21.6579 22.7172 22.4914L22.6576 22.5237L21.7365 20.4047L21.7849 20.3774C23.2362 19.5425 24.3713 18.2519 25.0139 16.7059C25.6564 15.1598 25.7706 13.4448 25.3385 11.8273C24.9065 10.2097 23.9525 8.78003 22.6246 7.76026C21.2967 6.7405 19.6693 6.1877 17.995 6.1877C16.3207 6.1877 14.6933 6.7405 13.3654 7.76026C12.0375 8.78003 11.0835 10.2097 10.6514 11.8273C10.2194 13.4448 10.3335 15.1598 10.9761 16.7059C11.6187 18.2519 12.7537 19.5425 14.205 20.3774L14.2535 20.4047L13.3324 22.5237L13.2728 22.4914C11.7062 21.6411 10.3983 20.3834 9.48737 18.8513C8.57643 17.3191 8.09622 15.5694 8.09746 13.7869Z" fill="black"/>
</svg>
