<svg width="36" height="36" viewBox="0 0 36 36" fill="none" xmlns="http://www.w3.org/2000/svg">
<path d="M15.5603 25.2261V26.2031C15.5603 26.3345 15.6668 26.4409 15.7981 26.4409H20.3354C20.4668 26.4409 20.5732 26.3345 20.5732 26.2031V25.2261C20.5732 25.0947 20.4668 24.9883 20.3354 24.9883H15.7981C15.6668 24.9883 15.5603 25.0947 15.5603 25.2261Z" fill="black"/>
<path d="M14.3747 7.02464V7.18784H13.9121C13.4049 7.1887 12.9187 7.39072 12.5603 7.74957C12.2018 8.10842 12.0003 8.5948 12.0001 9.10201L12.0001 28.088C12.0006 28.5949 12.2023 29.0809 12.5607 29.4394C12.9192 29.7978 13.4051 29.9994 13.9121 30H22.2237C22.7306 29.9994 23.2166 29.7978 23.5751 29.4394C23.9335 29.0809 24.1351 28.5949 24.1357 28.088V9.10201C24.1357 8.59461 23.9344 8.10795 23.5759 7.74887C23.2174 7.38978 22.7311 7.18762 22.2237 7.18676H21.7589V7.02355C21.7589 6.75209 21.6511 6.49175 21.4592 6.29979C21.2672 6.10784 21.0069 6 20.7354 6H15.3961C15.1248 6.00057 14.8648 6.10881 14.6733 6.30094C14.4818 6.49306 14.3744 6.75336 14.3747 7.02464ZM20.3074 8.64049H22.2237C22.3458 8.64049 22.4629 8.689 22.5493 8.77535C22.6356 8.8617 22.6841 8.97881 22.6841 9.10093V28.088C22.6841 28.2101 22.6356 28.3272 22.5493 28.4136C22.4629 28.4999 22.3458 28.5484 22.2237 28.5484H13.9121C13.7899 28.5484 13.6728 28.4999 13.5865 28.4136C13.5001 28.3272 13.4516 28.2101 13.4516 28.088L13.4516 9.10201C13.4516 8.97989 13.5001 8.86278 13.5865 8.77643C13.6728 8.69008 13.7899 8.64157 13.9121 8.64157H15.8262V7.45265H20.3063L20.3074 8.64049Z" fill="black"/>
</svg>
