<svg width="36" height="36" viewBox="0 0 36 36" fill="none" xmlns="http://www.w3.org/2000/svg">
<path fill-rule="evenodd" clip-rule="evenodd" d="M13.5 12.7031C13.5 11.4844 14.4844 10.5 15.75 10.5H20.25C21.4688 10.5 22.5 11.5312 22.5 12.7031V23.2031C22.5 24.4219 21.4688 25.4531 20.25 25.4531H15.75C14.4844 25.4531 13.5 24.4219 13.5 23.2031V12.7031ZM20.25 24C20.625 24 21 23.6719 21 23.25V18.75H15V23.25C15 23.6719 15.3281 24 15.75 24H20.25ZM15 17.25H21V12.75C21 12.375 20.625 12 20.25 12H15.75C15.3281 12 15 12.375 15 12.75V17.25ZM12 6H24C25.6406 6 27 7.35938 27 9V27C27 28.6875 25.6406 30 24 30H12C10.3125 30 9 28.6875 9 27V9C9 7.35938 10.3125 6 12 6ZM24 28.5C24.7969 28.5 25.5 27.8438 25.5 27V9C25.5 8.20312 24.7969 7.5 24 7.5H18.75H18H17.25H12C11.1562 7.5 10.5 8.20312 10.5 9V27C10.5 27.8438 11.1562 28.5 12 28.5H17.25H18H18.2278H18.75H24ZM18.75 15.25V13.75C18.75 13.3281 18.375 13 18 13C17.5781 13 17.25 13.3281 17.25 13.75V15.25C17.25 15.625 17.5781 16 18 16C18.375 16 18.75 15.625 18.75 15.25Z" fill="black"/>
</svg>
