<svg width="36" height="36" viewBox="0 0 36 36" fill="none" xmlns="http://www.w3.org/2000/svg">
<path d="M18.8353 17.9067C19.0538 17.9069 19.2676 17.8423 19.4494 17.7211C19.6313 17.5998 19.7731 17.4274 19.8569 17.2255C19.9407 17.0236 19.9628 16.8015 19.9203 16.5871C19.8778 16.3727 19.7726 16.1757 19.6182 16.0211C19.4637 15.8664 19.2669 15.7611 19.0525 15.7183C18.8382 15.6756 18.616 15.6974 18.414 15.781C18.2121 15.8646 18.0394 16.0062 17.918 16.1879C17.7965 16.3696 17.7317 16.5833 17.7317 16.8018C17.7317 17.0947 17.8479 17.3755 18.0548 17.5826C18.2618 17.7898 18.5425 17.9063 18.8353 17.9067Z" fill="black"/>
<path d="M30.5515 14.3998L29.5957 13.8052C29.6403 13.3482 29.6403 12.8879 29.5957 12.431L30.4299 11.9034C30.6538 11.7645 30.8246 11.5543 30.9147 11.3066C31.0047 11.0589 31.0089 10.7882 30.9264 10.5378C30.5096 9.22232 29.8009 8.01799 28.8533 7.01482C28.6717 6.81553 28.4273 6.68443 28.1608 6.64333C27.8943 6.60222 27.6217 6.65359 27.3885 6.78888L26.4661 7.32019C26.0967 7.05712 25.703 6.82975 25.2905 6.64116V5.57357C25.289 5.30461 25.1962 5.04413 25.0273 4.83482C24.8584 4.62552 24.6233 4.47981 24.3608 4.42157C22.8711 4.09385 21.7675 4.09385 20.3101 4.42157C20.0467 4.4776 19.8107 4.62282 19.642 4.83271C19.4733 5.04259 19.3822 5.30428 19.3841 5.57357V6.63619C18.9732 6.82825 18.5812 7.05851 18.2134 7.32392L17.2923 6.78888C17.0591 6.6559 16.7877 6.60584 16.5224 6.64687C16.257 6.6879 16.0134 6.81759 15.8312 7.01482C14.822 8.10475 14.2758 9.06185 13.814 10.518C13.7339 10.7742 13.7429 11.0501 13.8396 11.3005C13.9363 11.551 14.115 11.7613 14.3465 11.8972L15.2639 12.4272C15.2515 12.5514 15.2428 12.6755 15.2379 12.8096H7.96462C7.66511 12.8099 7.37797 12.929 7.16619 13.1408C6.95441 13.3526 6.83529 13.6397 6.83496 13.9392V27.6589C6.83529 27.9585 6.95441 28.2456 7.16619 28.4574C7.37797 28.6692 7.66511 28.7883 7.96462 28.7886H21.6843C21.9838 28.7883 22.271 28.6692 22.4828 28.4574C22.6945 28.2456 22.8137 27.9585 22.814 27.6589V22.033C23.3377 21.9971 23.8577 21.9203 24.3694 21.8034C24.6316 21.7443 24.8659 21.5981 25.0341 21.3887C25.2023 21.1792 25.2945 20.9188 25.2955 20.6501V19.5887C25.7083 19.3989 26.1023 19.1708 26.4723 18.9072L27.3972 19.441C27.6283 19.5762 27.8987 19.6284 28.1635 19.5889C28.4283 19.5494 28.6717 19.4206 28.8533 19.2238C30.1059 17.8794 30.8557 16.6765 31.0816 15.6498C31.1319 15.4123 31.108 15.165 31.0132 14.9414C30.9184 14.7178 30.7573 14.5288 30.5515 14.3998ZM21.0885 27.0618H8.56544V14.5351H21.0885V27.0618ZM20.6788 12.8083C20.732 12.5039 20.8662 12.2195 21.0672 11.9848C21.2682 11.7501 21.5287 11.5739 21.8213 11.4745C22.1139 11.3751 22.4278 11.3564 22.7301 11.4201C23.0325 11.4839 23.3121 11.6278 23.5397 11.8368C23.7672 12.0459 23.9344 12.3123 24.0235 12.6082C24.1126 12.904 24.1205 13.2185 24.0463 13.5184C23.9721 13.8184 23.8185 14.0928 23.6017 14.313C23.3849 14.5331 23.1128 14.6909 22.814 14.7697V13.938C22.8137 13.6385 22.6945 13.3513 22.4828 13.1396C22.271 12.9278 21.9838 12.8087 21.6843 12.8083H20.6788ZM27.8788 17.7006L26.2985 16.7882L25.8305 17.1904C25.329 17.6196 24.7524 17.9525 24.1299 18.1723L23.5489 18.3784V20.197C23.3022 20.2379 23.0536 20.2661 22.8041 20.2814V16.5449C23.4521 16.4616 24.0634 16.1968 24.5674 15.7808C25.0713 15.3649 25.4473 14.815 25.652 14.1944C25.8566 13.5739 25.8815 12.9082 25.7239 12.2741C25.5663 11.64 25.2325 11.0634 24.7611 10.6109C24.2897 10.1585 23.6999 9.84861 23.0599 9.7171C22.4198 9.58558 21.7557 9.6378 21.1441 9.86772C20.5324 10.0976 19.9984 10.4959 19.6034 11.0164C19.2085 11.537 18.969 12.1586 18.9123 12.8096H16.9808C16.9941 12.5815 17.0206 12.3543 17.0602 12.1293L17.1757 11.5247L15.5966 10.6136C15.8784 9.85194 16.2877 9.14377 16.807 8.51937L18.386 9.43426L18.8528 9.03206C19.3545 8.60306 19.931 8.2702 20.5534 8.05013L21.1357 7.84406V6.02171C21.936 5.8864 22.7535 5.8864 23.5539 6.02171V7.83661L24.1361 8.04392C24.7591 8.26046 25.3353 8.59324 25.8343 9.02461L26.3035 9.42682L27.8838 8.5144C28.3555 9.06061 28.9427 9.81164 29.2605 10.6098L27.6827 11.5198L27.7969 12.1243C27.9154 12.7744 27.9154 13.4406 27.7969 14.0907L27.6814 14.6965L29.258 15.6064C28.9489 16.386 28.3853 17.1196 27.8838 17.7018L27.8788 17.7006Z" fill="black"/>
</svg>
