<svg width="36" height="36" viewBox="0 0 36 36" fill="none" xmlns="http://www.w3.org/2000/svg">
<path d="M12.3678 14.2513C11.6225 14.2516 10.8939 14.4728 10.2743 14.8871C9.65468 15.3014 9.17181 15.8901 8.88675 16.5788C8.60169 17.2674 8.52723 18.0252 8.67279 18.7562C8.81835 19.4872 9.17739 20.1586 9.70452 20.6856C10.2317 21.2125 10.9032 21.5713 11.6342 21.7167C12.3653 21.862 13.123 21.7873 13.8116 21.502C14.5002 21.2167 15.0887 20.7336 15.5028 20.1139C15.9169 19.4941 16.1379 18.7655 16.1379 18.0202C16.1366 17.0208 15.7389 16.0628 15.0321 15.3562C14.3253 14.6497 13.3672 14.2523 12.3678 14.2513ZM12.3678 20.0337C11.9696 20.0337 11.5803 19.9156 11.2492 19.6943C10.918 19.4731 10.66 19.1586 10.5076 18.7907C10.3552 18.4228 10.3153 18.0179 10.393 17.6274C10.4707 17.2368 10.6624 16.878 10.944 16.5964C11.2256 16.3148 11.5844 16.123 11.975 16.0453C12.3656 15.9676 12.7704 16.0075 13.1383 16.1599C13.5063 16.3123 13.8207 16.5704 14.042 16.9015C14.2632 17.2326 14.3813 17.6219 14.3813 18.0202C14.3807 18.554 14.1683 19.0657 13.7909 19.4432C13.4134 19.8207 12.9016 20.033 12.3678 20.0337Z" fill="black"/>
<path d="M21.4349 19.5305L20.3176 18.8353C20.376 18.2939 20.376 17.7479 20.3176 17.2066L21.2983 16.5859C21.5311 16.4427 21.7089 16.2255 21.8033 15.969C21.8976 15.7126 21.903 15.4318 21.8185 15.172C21.3219 13.655 20.6615 12.5278 19.5269 11.279C19.3365 11.0761 19.0834 10.943 18.8083 10.9011C18.5332 10.8592 18.2521 10.911 18.0099 11.0481L16.9311 11.6688C16.4936 11.3524 16.0248 11.0816 15.5321 10.8607V9.61927C15.5303 9.34074 15.434 9.07106 15.2591 8.85435C15.0841 8.63764 14.8407 8.48673 14.5688 8.4263C12.9165 8.06382 11.7037 8.06506 10.0998 8.4263C9.82713 8.48435 9.58283 8.63476 9.40821 8.85212C9.2336 9.06948 9.13938 9.34047 9.14149 9.61927V10.8607C8.64613 11.081 8.17481 11.3518 7.73501 11.6688L6.65625 11.0481C6.41457 10.9106 6.13348 10.859 5.85872 10.9016C5.58397 10.9442 5.33171 11.0785 5.14301 11.2827C4.02576 12.4931 3.42494 13.5433 2.91597 15.1596C2.83265 15.4248 2.8418 15.7104 2.94193 15.9697C3.04205 16.2291 3.22722 16.4467 3.46714 16.5871L4.54094 17.2078C4.4855 17.7443 4.4855 18.2851 4.54094 18.8216L3.4659 19.4423C3.22548 19.5819 3.03991 19.7993 2.93991 20.0587C2.83991 20.3181 2.83146 20.6038 2.91597 20.8687C3.42121 22.4825 4.02452 23.5314 5.14301 24.7467C5.33078 24.9528 5.58338 25.0884 5.85888 25.1311C6.13437 25.1738 6.41617 25.1209 6.65749 24.9814L7.73997 24.3545C8.17657 24.6734 8.64549 24.9455 9.13901 25.1663V26.4077C9.14095 26.6847 9.23548 26.9531 9.40757 27.1702C9.57966 27.3873 9.81941 27.5405 10.0887 27.6056C10.8237 27.7782 11.5756 27.869 12.3306 27.8763C13.0856 27.869 13.8375 27.7782 14.5725 27.6056C14.8442 27.5448 15.0871 27.3935 15.2614 27.1766C15.4358 26.9596 15.5312 26.6898 15.5321 26.4114V25.17C16.0247 24.9479 16.4934 24.6763 16.9311 24.3594L18.0136 24.9801C18.2531 25.1205 18.5334 25.1748 18.808 25.1339C19.0826 25.093 19.3349 24.9595 19.5231 24.7554C20.9073 23.2658 21.7353 21.9425 21.9836 20.814C22.0336 20.5697 22.0079 20.3158 21.9099 20.0865C21.8118 19.8571 21.6461 19.6631 21.4349 19.5305ZM13.7793 23.9585V25.9968C12.8261 26.1681 11.85 26.1681 10.8968 25.9968V23.9647L10.3034 23.7561C9.59776 23.5082 8.94533 23.1292 8.38052 22.6389L7.90756 22.2329L6.13735 23.2558C5.512 22.516 5.02353 21.6707 4.69487 20.7594L6.46508 19.7378L6.34963 19.1295C6.21555 18.3932 6.21555 17.6387 6.34963 16.9025L6.46508 16.2929L4.69487 15.2713C5.0245 14.3631 5.51432 13.5213 6.14108 12.786L7.91128 13.8077L8.38301 13.403C8.94889 12.9164 9.60002 12.5389 10.3034 12.2895L10.8894 12.0822V10.0401C11.8425 9.86816 12.8187 9.86816 13.7718 10.0401V12.0747L14.364 12.2895C15.0695 12.5376 15.7219 12.9167 16.2869 13.4067L16.7586 13.8127L18.53 12.7898C19.1209 13.4663 19.8037 14.3353 20.1612 15.2862L18.3923 16.3078L18.5077 16.9161C18.6418 17.6524 18.6418 18.4069 18.5077 19.1431L18.3923 19.7527L20.1612 20.7731C19.8062 21.714 19.1222 22.588 18.53 23.2695L16.7586 22.2354L16.2881 22.6401C15.7209 23.1283 15.0681 23.5071 14.3627 23.7574L13.7793 23.9585Z" fill="black"/>
<path d="M26.1149 10.5418C25.853 10.541 25.5967 10.618 25.3786 10.763C25.1605 10.9081 24.9903 11.1145 24.8896 11.3564C24.7889 11.5982 24.7622 11.8644 24.813 12.1214C24.8637 12.3784 24.9896 12.6145 25.1746 12.7999C25.3597 12.9853 25.5956 13.1116 25.8524 13.1628C26.1093 13.214 26.3756 13.1879 26.6176 13.0876C26.8596 12.9874 27.0664 12.8176 27.2118 12.5997C27.3573 12.3819 27.4348 12.1258 27.4345 11.8638C27.4339 11.5138 27.2947 11.1783 27.0475 10.9306C26.8002 10.6829 26.4649 10.5431 26.1149 10.5418ZM26.1149 12.163C26.0558 12.163 25.9979 12.1454 25.9487 12.1126C25.8995 12.0797 25.8612 12.033 25.8385 11.9783C25.8159 11.9236 25.81 11.8635 25.8215 11.8055C25.8331 11.7474 25.8616 11.6941 25.9034 11.6523C25.9452 11.6104 25.9985 11.5819 26.0566 11.5704C26.1146 11.5589 26.1748 11.5648 26.2294 11.5874C26.2841 11.6101 26.3308 11.6484 26.3637 11.6976C26.3966 11.7468 26.4141 11.8046 26.4141 11.8638C26.4144 11.9033 26.4069 11.9425 26.3921 11.9791C26.3772 12.0157 26.3552 12.0489 26.3274 12.077C26.2996 12.105 26.2665 12.1273 26.23 12.1425C26.1935 12.1577 26.1544 12.1655 26.1149 12.1655V12.163Z" fill="black"/>
<path d="M30.0153 11.1914C29.9764 10.983 29.8661 10.7947 29.7035 10.6588C29.5408 10.5229 29.3359 10.4478 29.124 10.4465H28.9738C28.9183 10.3328 28.8553 10.2229 28.7851 10.1176L28.862 9.99343C28.9686 9.81071 29.0075 9.5964 28.9721 9.38789C28.9367 9.17939 28.8292 8.98993 28.6684 8.8526C28.3174 8.54071 27.9052 8.30561 27.458 8.16239C27.26 8.09368 27.0442 8.09557 26.8474 8.16775C26.6506 8.23992 26.4848 8.37793 26.3781 8.55839L26.3011 8.68253C26.175 8.67384 26.0485 8.67384 25.9225 8.68253L25.8467 8.55839C25.7402 8.37832 25.575 8.24033 25.3788 8.16756C25.1827 8.09479 24.9674 8.09165 24.7692 8.15867C24.3219 8.29973 23.9095 8.53366 23.5589 8.84515C23.398 8.9832 23.2903 9.1731 23.2545 9.38207C23.2187 9.59104 23.257 9.80595 23.3627 9.9897L23.4397 10.1225C23.3696 10.2281 23.3062 10.338 23.2498 10.4515H22.9655C22.7542 10.4507 22.5493 10.5238 22.3862 10.6583C22.2232 10.7928 22.1124 10.98 22.073 11.1876C21.9756 11.6464 21.9756 12.1205 22.073 12.5792C22.1112 12.7879 22.2213 12.9766 22.3841 13.1126C22.5469 13.2487 22.7521 13.3235 22.9643 13.324H23.256C23.3124 13.4376 23.3758 13.5474 23.4459 13.653L23.3727 13.7771C23.2648 13.9616 23.226 14.1783 23.2633 14.3887C23.3006 14.5991 23.4116 14.7893 23.5763 14.9254C23.9383 15.2301 24.3617 15.4533 24.8176 15.5796C24.9055 15.6076 24.9972 15.6219 25.0895 15.6218C25.2428 15.6215 25.3935 15.5824 25.5277 15.5082C25.6618 15.434 25.775 15.327 25.8567 15.1973L25.9287 15.0818C26.0556 15.0893 26.1829 15.0893 26.3098 15.0818L26.383 15.1948C26.4906 15.3653 26.6517 15.4952 26.8411 15.5642C27.0305 15.6331 27.2375 15.6373 27.4295 15.5759C27.8799 15.4496 28.2983 15.2291 28.6572 14.9291C28.8233 14.793 28.9356 14.6022 28.9738 14.3909C29.012 14.1796 28.9737 13.9616 28.8658 13.7759L28.7925 13.6518C28.8627 13.5465 28.9257 13.4366 28.9812 13.3228H29.1277C29.3389 13.3236 29.5436 13.2504 29.7065 13.1159C29.8693 12.9814 29.9799 12.7942 30.019 12.5867C30.1164 12.1265 30.1151 11.651 30.0153 11.1914ZM28.9638 12.2192H28.219L28.0887 12.5854C28.004 12.8288 27.8743 13.0541 27.7063 13.2496L27.458 13.5438L27.8305 14.188C27.6513 14.3208 27.4576 14.4328 27.2532 14.522L26.8808 13.8777L26.4997 13.9485C26.2456 13.9981 25.9842 13.9981 25.7301 13.9485L25.3489 13.8777L24.9765 14.522C24.7715 14.4339 24.5773 14.3222 24.3981 14.1893L24.7705 13.54L24.5222 13.2458C24.3556 13.0494 24.2261 12.8244 24.1398 12.5817L24.0095 12.2155H23.2647C23.2399 11.9948 23.2399 11.772 23.2647 11.5514H24.0095L24.1398 11.1789C24.225 10.9358 24.3547 10.7106 24.5222 10.5148L24.7705 10.2206L24.3981 9.57632C24.5755 9.44234 24.7685 9.33022 24.9728 9.24239L25.3452 9.88667L25.7276 9.81591C25.9814 9.76749 26.2421 9.76749 26.496 9.81591L26.8771 9.88667L27.2495 9.24239C27.4546 9.33098 27.6487 9.44304 27.828 9.57632L27.4556 10.2243L27.7038 10.5185C27.8704 10.7157 28.0003 10.941 28.0874 11.1839L28.2116 11.5489H28.9564C28.9842 11.7713 28.9867 11.9962 28.9638 12.2192Z" fill="black"/>
<path d="M28.3258 19.8187C28.0086 19.8187 27.6985 19.9128 27.4347 20.089C27.171 20.2653 26.9654 20.5157 26.844 20.8088C26.7226 21.1019 26.6909 21.4244 26.7527 21.7355C26.8146 22.0466 26.9674 22.3324 27.1917 22.5567C27.416 22.781 27.7018 22.9337 28.0129 22.9956C28.324 23.0575 28.6465 23.0257 28.9395 22.9043C29.2326 22.783 29.4831 22.5774 29.6593 22.3136C29.8356 22.0499 29.9296 21.7398 29.9296 21.4226C29.9293 20.9973 29.7602 20.5896 29.4595 20.2888C29.1588 19.9881 28.751 19.8191 28.3258 19.8187ZM28.3258 21.7851C28.2541 21.7851 28.184 21.7638 28.1244 21.724C28.0648 21.6841 28.0183 21.6275 27.9909 21.5613C27.9635 21.4951 27.9563 21.4222 27.9703 21.3519C27.9842 21.2815 28.0188 21.217 28.0695 21.1663C28.1202 21.1156 28.1847 21.081 28.2551 21.0671C28.3254 21.0531 28.3983 21.0603 28.4645 21.0877C28.5307 21.1151 28.5873 21.1616 28.6272 21.2212C28.667 21.2808 28.6883 21.3509 28.6883 21.4226C28.6883 21.5187 28.6501 21.6109 28.5821 21.6789C28.5141 21.7469 28.4219 21.7851 28.3258 21.7851Z" fill="black"/>
<path d="M33.0554 20.6068C33.007 20.3552 32.8728 20.1282 32.6755 19.9647C32.4783 19.8012 32.2303 19.7113 31.9742 19.7105H31.7929C31.7247 19.5732 31.6485 19.4402 31.5645 19.312L31.6564 19.1543C31.7859 18.9331 31.8336 18.6733 31.7909 18.4205C31.7482 18.1677 31.618 17.9379 31.423 17.7714C30.9973 17.3936 30.4976 17.1087 29.9557 16.9347C29.7153 16.8512 29.4534 16.8534 29.2145 16.941C28.9755 17.0285 28.7742 17.1961 28.6448 17.4152L28.5529 17.5728C28.4 17.5629 28.2465 17.5629 28.0936 17.5728L28.0005 17.4152C27.8716 17.1953 27.6707 17.0268 27.4318 16.9381C27.1929 16.8494 26.9307 16.846 26.6896 16.9285C26.1474 17.0999 25.6474 17.3838 25.2223 17.7615C25.0271 17.9289 24.8965 18.1591 24.853 18.4125C24.8095 18.6659 24.8558 18.9265 24.9839 19.1494L25.077 19.3107C24.992 19.4385 24.9152 19.5716 24.8474 19.7092H24.4973C24.2413 19.7085 23.993 19.7973 23.7956 19.9603C23.5981 20.1233 23.4639 20.3502 23.4161 20.6018C23.2982 21.1579 23.2982 21.7327 23.4161 22.2888C23.4642 22.5406 23.5984 22.7679 23.7956 22.9316C23.9929 23.0954 24.241 23.1854 24.4973 23.1863H24.8511C24.9192 23.3238 24.9959 23.4569 25.0808 23.5848L24.9914 23.7375C24.8611 23.9615 24.8145 24.2244 24.86 24.4795C24.9054 24.7346 25.04 24.9652 25.2397 25.1303C25.6778 25.4999 26.1906 25.7705 26.743 25.9236C26.8497 25.9576 26.9611 25.9748 27.0732 25.9745C27.2589 25.9742 27.4416 25.9269 27.6042 25.8371C27.7667 25.7472 27.9039 25.6177 28.003 25.4606L28.0911 25.319C28.2449 25.329 28.3991 25.329 28.5529 25.319L28.641 25.4568C28.7719 25.665 28.9686 25.8234 29.1997 25.9071C29.4309 25.9907 29.6834 25.9948 29.9172 25.9186C30.4636 25.7652 30.9713 25.4978 31.4068 25.1341C31.6076 24.9689 31.743 24.7376 31.7885 24.4816C31.834 24.2256 31.7867 23.9618 31.6551 23.7375L31.5657 23.5848C31.6506 23.4569 31.7273 23.3238 31.7954 23.1863H31.9729C32.2289 23.1868 32.477 23.0979 32.6744 22.935C32.8718 22.772 33.0061 22.5452 33.0542 22.2938C33.1723 21.7377 33.1728 21.163 33.0554 20.6068ZM31.7793 21.8481H30.878L30.7204 22.2925C30.6173 22.5875 30.4603 22.8607 30.2573 23.0982L29.9544 23.4619L30.4063 24.2428C30.1884 24.4029 29.9537 24.5386 29.7062 24.6474L29.253 23.8654L28.7913 23.9523C28.4833 24.0111 28.1669 24.0111 27.859 23.9523L27.3959 23.8654L26.9441 24.6474C26.6955 24.54 26.4601 24.4042 26.2427 24.2428L26.6958 23.457L26.3904 23.0994C26.1893 22.8604 26.0321 22.5877 25.9262 22.2938L25.7697 21.8481H24.8685C24.8387 21.5804 24.8387 21.3102 24.8685 21.0425H25.7697L25.9262 20.5993C26.0298 20.3044 26.1872 20.0312 26.3904 19.7936L26.6958 19.4361L26.2427 18.6541C26.458 18.4924 26.6913 18.3562 26.9379 18.2481L27.391 19.0302L27.854 18.9445C28.1615 18.885 28.4776 18.885 28.785 18.9445L29.2481 19.0302L29.6999 18.2494C29.9488 18.3563 30.1842 18.4921 30.4013 18.6541L29.9532 19.4399L30.2573 19.7961C30.4594 20.035 30.6167 20.3083 30.7216 20.603L30.8793 21.0462H31.7793C31.8089 21.3127 31.8089 21.5816 31.7793 21.8481Z" fill="black"/>
</svg>
