<svg width="36" height="36" viewBox="0 0 36 36" fill="none" xmlns="http://www.w3.org/2000/svg">
<path d="M21.4136 31.8291H14.9337C13.8537 31.8291 12.9847 30.9601 12.9847 29.8801V23.1891H6.2937C5.21371 23.1891 4.34473 22.3201 4.34473 21.2401V14.7601C4.34473 13.6801 5.21371 12.8111 6.2937 12.8111H12.9847V6.12012C12.9847 5.04012 13.8537 4.17114 14.9337 4.17114H21.4136C22.4936 4.17114 23.3626 5.04012 23.3626 6.12012V12.8111H30.0535C31.1335 12.8111 32.0025 13.6801 32.0025 14.7601V21.2401C32.0025 22.3201 31.1335 23.1891 30.0535 23.1891H23.3626V29.8801C23.3626 30.9477 22.4812 31.8291 21.4136 31.8291ZM6.2937 14.5491C6.18198 14.5491 6.08265 14.6484 6.08265 14.7601V21.2401C6.08265 21.3519 6.18198 21.4512 6.2937 21.4512H14.7226V29.8801C14.7226 29.9919 14.8219 30.0912 14.9337 30.0912H21.4136C21.5253 30.0912 21.6246 29.9919 21.6246 29.8801V21.4512H30.0535C30.1653 21.4512 30.2646 21.3519 30.2646 21.2401V14.7601C30.2646 14.6484 30.1653 14.5491 30.0535 14.5491H21.6246V6.12012C21.6246 6.0084 21.5253 5.90908 21.4136 5.90908H14.9337C14.8219 5.90908 14.7226 6.0084 14.7226 6.12012V14.5491H6.2937Z" fill="black"/>
</svg>
