<svg width="36" height="36" viewBox="0 0 36 36" fill="none" xmlns="http://www.w3.org/2000/svg">
<path d="M27.0349 22.5584C27.3139 22.5576 27.5841 22.4612 27.8005 22.2852C28.017 22.1092 28.1665 21.8643 28.2241 21.5914L30.1036 12.5703C30.1403 12.3935 30.1371 12.2109 30.0944 12.0355C30.0517 11.8601 29.9704 11.6965 29.8565 11.5564C29.7427 11.4164 29.599 11.3035 29.436 11.2259C29.2731 11.1483 29.0949 11.108 28.9144 11.1079H10.7244L10.3893 9.32282C10.3374 9.04393 10.1896 8.79197 9.9715 8.6106C9.75339 8.42922 9.47871 8.32986 9.19505 8.32971H5.49325C5.30888 8.32971 5.13206 8.40295 5.00169 8.53332C4.87132 8.66369 4.79808 8.84051 4.79808 9.02488V9.37247C4.79841 9.55663 4.8718 9.73313 5.00213 9.86323C5.13246 9.99333 5.3091 10.0664 5.49325 10.0664H8.76305L11.7535 26.0181C11.4098 26.4195 11.1803 26.9058 11.0889 27.4263C10.9975 27.9468 11.0476 28.4822 11.2339 28.9767C11.4203 29.4711 11.736 29.9065 12.1482 30.2371C12.5604 30.5678 13.0538 30.7817 13.5769 30.8564C14.1 30.9311 14.6336 30.8639 15.1219 30.6618C15.6101 30.4598 16.0351 30.1302 16.3524 29.7077C16.6698 29.2852 16.8677 28.7851 16.9257 28.2599C16.9836 27.7347 16.8994 27.2035 16.6818 26.722H23.2301C22.9686 27.3024 22.9019 27.9519 23.04 28.5734C23.1781 29.1949 23.5136 29.755 23.9963 30.1701C24.4791 30.5852 25.0832 30.8329 25.7184 30.8762C26.3535 30.9196 26.9857 30.7563 27.5204 30.4107C28.055 30.0651 28.4636 29.5558 28.6849 28.9588C28.9062 28.3619 28.9284 27.7094 28.7482 27.0987C28.568 26.4881 28.195 25.9522 27.6851 25.5711C27.1751 25.1899 26.5556 24.984 25.9189 24.9841H13.3264L12.8708 22.5621L27.0349 22.5584ZM25.9177 26.6649C26.1685 26.6644 26.4138 26.7383 26.6226 26.8774C26.8314 27.0164 26.9942 27.2142 27.0905 27.4459C27.1868 27.6775 27.2122 27.9325 27.1635 28.1785C27.1147 28.4246 26.9941 28.6507 26.8168 28.8281C26.6395 29.0056 26.4136 29.1264 26.1676 29.1754C25.9216 29.2244 25.6666 29.1992 25.4348 29.1032C25.2031 29.0071 25.0051 28.8445 24.8659 28.6358C24.7266 28.4272 24.6525 28.1819 24.6527 27.9311C24.6534 27.5955 24.787 27.2738 25.0243 27.0365C25.2616 26.7992 25.5833 26.6655 25.9189 26.6649H25.9177ZM13.993 26.722C14.234 26.7203 14.47 26.7902 14.6712 26.923C14.8723 27.0558 15.0294 27.2453 15.1225 27.4676C15.2157 27.6899 15.2406 27.9348 15.1942 28.1713C15.1478 28.4078 15.0321 28.6251 14.8619 28.7957C14.6917 28.9663 14.4745 29.0824 14.2381 29.1293C14.0018 29.1762 13.7568 29.1518 13.5343 29.0591C13.3118 28.9664 13.1219 28.8097 12.9888 28.6089C12.8556 28.408 12.7851 28.1721 12.7864 27.9311C12.788 27.6111 12.9157 27.3047 13.1419 27.0784C13.368 26.852 13.6743 26.7239 13.9942 26.722H13.993ZM12.5443 20.823L11.0484 12.8434H28.2738L26.6116 20.823H12.5443Z" fill="black"/>
<path d="M20.1314 19.4637C20.2025 19.4637 20.2707 19.4355 20.321 19.3852C20.3713 19.3349 20.3995 19.2667 20.3995 19.1956V17.691H21.9041C21.9752 17.691 22.0434 17.6628 22.0937 17.6125C22.144 17.5622 22.1722 17.494 22.1722 17.4229V16.251C22.1722 16.1799 22.144 16.1117 22.0937 16.0614C22.0434 16.0112 21.9752 15.9829 21.9041 15.9829H20.3995V14.4783C20.3995 14.4072 20.3713 14.339 20.321 14.2887C20.2707 14.2385 20.2025 14.2102 20.1314 14.2102H18.9595C18.8884 14.2102 18.8202 14.2385 18.7699 14.2887C18.7197 14.339 18.6914 14.4072 18.6914 14.4783V15.9829H17.1869C17.1157 15.9829 17.0475 16.0112 16.9973 16.0614C16.947 16.1117 16.9187 16.1799 16.9187 16.251V17.4229C16.9187 17.494 16.947 17.5622 16.9973 17.6125C17.0475 17.6628 17.1157 17.691 17.1869 17.691H18.6914V19.1956C18.6914 19.2667 18.7197 19.3349 18.7699 19.3852C18.8202 19.4355 18.8884 19.4637 18.9595 19.4637H20.1314Z" fill="black"/>
</svg>
