<svg width="36" height="36" viewBox="0 0 36 36" fill="none" xmlns="http://www.w3.org/2000/svg">
<path d="M28.4688 19.1171C28.1623 19.0295 27.836 19.0416 27.5369 19.1516C27.2378 19.2617 26.9815 19.4641 26.805 19.7294C26.6285 19.9948 26.5409 20.3094 26.5551 20.6278C26.5692 20.9462 26.6842 21.2519 26.8835 21.5006L26.3435 23.3924L22.7634 24.8473C22.604 24.9119 22.4674 25.0224 22.3708 25.1647C22.2742 25.307 22.2221 25.4748 22.2209 25.6468V30.1319C21.9606 30.3163 21.7657 30.5787 21.6644 30.8812C21.5631 31.1837 21.5606 31.5106 21.6574 31.8145C21.7541 32.1185 21.9451 32.3838 22.2026 32.5721C22.4601 32.7604 22.7708 32.8619 23.0899 32.8619C23.4089 32.8619 23.7196 32.7604 23.9771 32.5721C24.2346 32.3838 24.4256 32.1185 24.5224 31.8145C24.6191 31.5106 24.6167 31.1837 24.5154 30.8812C24.414 30.5787 24.2191 30.3163 23.9588 30.1319V26.2315L27.3888 24.8386C27.5111 24.789 27.6206 24.7121 27.7088 24.6138C27.7969 24.5155 27.8616 24.3983 27.8977 24.2713L28.5519 21.9723C28.8503 21.8651 29.1071 21.6663 29.2856 21.4043C29.464 21.1423 29.555 20.8305 29.5455 20.5136C29.536 20.1967 29.4265 19.891 29.2326 19.6401C29.0388 19.3893 28.7705 19.2062 28.4663 19.1171H28.4688Z" fill="black"/>
<path d="M31.6551 11.2531L25.3241 4.92207C25.1601 4.76139 24.9392 4.67213 24.7096 4.6738H11.2965C11.1818 4.67215 11.0679 4.69324 10.9613 4.73586C10.8548 4.77847 10.7578 4.84176 10.6758 4.92207L7.19995 8.39794C6.8855 8.34427 6.56212 8.39202 6.2766 8.53429C5.99107 8.67656 5.75821 8.90597 5.61168 9.18933C5.46516 9.47269 5.41258 9.79532 5.46154 10.1105C5.5105 10.4258 5.65847 10.7173 5.88404 10.9428C6.10961 11.1684 6.40108 11.3164 6.71631 11.3653C7.03153 11.4143 7.35416 11.3617 7.63753 11.2152C7.92089 11.0686 8.1503 10.8358 8.29257 10.5503C8.43484 10.2647 8.48259 9.94136 8.42892 9.6269L11.6565 6.39931H24.3434L30.1655 12.2276V14.2846L29.2891 15.336C28.9712 15.3106 28.6535 15.387 28.3819 15.554C28.1102 15.7211 27.8988 15.9702 27.778 16.2653C27.6573 16.5604 27.6335 16.8863 27.7101 17.1958C27.7868 17.5054 27.9599 17.7825 28.2044 17.9872C28.4489 18.1919 28.7521 18.3136 29.0703 18.3346C29.3885 18.3556 29.7051 18.2749 29.9744 18.1041C30.2437 17.9334 30.4518 17.6814 30.5684 17.3846C30.6851 17.0879 30.7044 16.7617 30.6235 16.4533L31.7023 15.1597C31.8334 15.0023 31.9046 14.8035 31.9034 14.5986V11.8676C31.9051 11.638 31.8158 11.4171 31.6551 11.2531Z" fill="black"/>
<path d="M12.2896 18.8057C12.0496 18.8059 11.813 18.8635 11.5999 18.9739C11.3867 19.0843 11.203 19.2441 11.0644 19.4401H8.66727L5.83444 16.7115V14.5826C6.09475 14.3982 6.28966 14.1357 6.39097 13.8332C6.49227 13.5308 6.49472 13.2039 6.39797 12.8999C6.30121 12.5959 6.11026 12.3306 5.85274 12.1423C5.59522 11.954 5.28448 11.8525 4.96547 11.8525C4.64646 11.8525 4.33572 11.954 4.0782 12.1423C3.82068 12.3306 3.62973 12.5959 3.53297 12.8999C3.43622 13.2039 3.43867 13.5308 3.53997 13.8332C3.64128 14.1357 3.83619 14.3982 4.0965 14.5826V17.0815C4.09713 17.1974 4.12096 17.3121 4.16659 17.4187C4.21221 17.5253 4.27871 17.6217 4.36216 17.7022L7.71389 20.9297C7.87511 21.0877 8.09148 21.1768 8.3172 21.178H11.0644C11.2135 21.3886 11.4144 21.5572 11.6476 21.6677C11.8808 21.7781 12.1385 21.8267 12.3959 21.8087C12.6533 21.7907 12.9018 21.7068 13.1174 21.5649C13.3329 21.4231 13.5084 21.2282 13.6268 20.9989C13.7452 20.7696 13.8026 20.5138 13.7935 20.2559C13.7843 19.998 13.709 19.7468 13.5747 19.5265C13.4403 19.3062 13.2515 19.1241 13.0265 18.9979C12.8014 18.8717 12.5477 18.8055 12.2896 18.8057Z" fill="black"/>
<path d="M20.4827 26.4078V24.7779C20.4828 24.6437 20.4518 24.5114 20.3921 24.3912C20.3324 24.271 20.2458 24.1663 20.1389 24.0852L17.5146 22.099C17.5249 21.7805 17.4336 21.4669 17.254 21.2037C17.0743 20.9405 16.8156 20.7412 16.5152 20.6347C16.2149 20.5282 15.8884 20.52 15.5831 20.6113C15.2777 20.7026 15.0093 20.8886 14.8167 21.1425C14.6241 21.3964 14.5172 21.7049 14.5115 22.0236C14.5058 22.3422 14.6016 22.6544 14.785 22.915C14.9685 23.1756 15.2301 23.3711 15.532 23.4733C15.8338 23.5754 16.1604 23.5789 16.4644 23.4831L18.7448 25.2099V26.4078C18.4845 26.5922 18.2896 26.8547 18.1883 27.1572C18.087 27.4597 18.0845 27.7865 18.1813 28.0905C18.278 28.3945 18.469 28.6598 18.7265 28.8481C18.984 29.0364 19.2947 29.1379 19.6138 29.1379C19.9328 29.1379 20.2435 29.0364 20.501 28.8481C20.7585 28.6598 20.9495 28.3945 21.0463 28.0905C21.143 27.7865 21.1406 27.4597 21.0393 27.1572C20.9379 26.8547 20.743 26.5922 20.4827 26.4078Z" fill="black"/>
<path d="M23.0896 21.1146L25.0758 19.291C25.2455 19.1351 25.3463 18.9182 25.3561 18.688C25.3659 18.4577 25.2838 18.233 25.1279 18.0633L24.0628 16.9001C24.1301 16.5883 24.0965 16.2632 23.9668 15.9717C23.837 15.6803 23.618 15.4376 23.3412 15.2789C23.0645 15.1202 22.7445 15.0537 22.4274 15.0889C22.1103 15.1241 21.8127 15.2593 21.5775 15.4749C21.3424 15.6904 21.1819 15.9752 21.1193 16.288C21.0567 16.6008 21.0952 16.9254 21.2293 17.2149C21.3634 17.5044 21.5861 17.7437 21.8652 17.8982C22.1442 18.0527 22.4653 18.1145 22.7817 18.0745L23.2609 18.5983L21.9153 19.8397C21.6035 19.7728 21.2784 19.8069 20.9873 19.937C20.6961 20.0671 20.4539 20.2865 20.2958 20.5634C20.1376 20.8403 20.0717 21.1604 20.1076 21.4773C20.1434 21.7942 20.2792 22.0914 20.4953 22.326C20.7114 22.5606 20.9965 22.7203 21.3094 22.782C21.6222 22.8437 21.9466 22.8043 22.2356 22.6694C22.5246 22.5344 22.7631 22.311 22.9166 22.0315C23.0702 21.752 23.1307 21.4309 23.0896 21.1146Z" fill="black"/>
<path d="M23.4099 13.4442C23.5951 13.624 23.8235 13.7531 24.073 13.8191C24.3225 13.885 24.5848 13.8856 24.8347 13.8208C25.0845 13.756 25.3134 13.628 25.4994 13.449C25.6854 13.2701 25.8222 13.0463 25.8966 12.7991C25.9711 12.552 25.9806 12.2899 25.9243 12.038C25.8681 11.7861 25.7479 11.5529 25.5754 11.3609C25.4029 11.1689 25.1839 11.0246 24.9394 10.9418C24.6949 10.859 24.4333 10.8406 24.1796 10.8882L22.2368 9.00877C22.0753 8.8505 21.8584 8.76144 21.6323 8.7605H15.7519C15.5401 8.76084 15.3357 8.83854 15.1771 8.97898L13.6242 10.3557C13.3136 10.2821 12.9878 10.3093 12.6937 10.4333C12.3997 10.5572 12.1527 10.7715 11.9886 11.0452C11.8244 11.3188 11.7516 11.6376 11.7807 11.9554C11.8097 12.2732 11.9391 12.5735 12.1502 12.8128C12.3612 13.0521 12.643 13.2181 12.9546 13.2867C13.2662 13.3553 13.5916 13.3229 13.8837 13.1943C14.1757 13.0657 14.4192 12.8475 14.579 12.5713C14.7388 12.2951 14.8065 11.9752 14.7724 11.6579L16.0784 10.5022H21.2773L22.9655 12.1371C22.9295 12.3746 22.951 12.6173 23.0284 12.8448C23.1057 13.0723 23.2366 13.2779 23.4099 13.4442Z" fill="black"/>
<path d="M10.3469 13.1486C10.142 12.9915 9.9002 12.8899 9.64467 12.8534C9.38914 12.8169 9.12852 12.8468 8.88791 12.9402C8.64729 13.0337 8.43479 13.1875 8.27087 13.3869C8.10695 13.5863 7.99714 13.8245 7.952 14.0787C7.90686 14.3328 7.92792 14.5943 8.01315 14.838C8.09838 15.0816 8.24491 15.2992 8.43863 15.4698C8.63235 15.6404 8.86673 15.7582 9.1192 15.812C9.37166 15.8657 9.63371 15.8535 9.88011 15.7766L11.3896 16.9298C11.5411 17.0457 11.7265 17.1085 11.9172 17.1086H15.5172C15.7177 17.1086 15.9119 17.0393 16.0671 16.9125L18.3451 15.0504C18.6525 15.1355 18.9791 15.1206 19.2776 15.0078C19.576 14.8951 19.8309 14.6903 20.0052 14.4231C20.1796 14.1559 20.2644 13.8401 20.2474 13.5215C20.2304 13.2029 20.1125 12.898 19.9107 12.6509C19.7089 12.4037 19.4338 12.2272 19.125 12.1468C18.8163 12.0664 18.4899 12.0863 18.1933 12.2037C17.8966 12.321 17.6449 12.5297 17.4747 12.7996C17.3045 13.0694 17.2246 13.3864 17.2464 13.7047L15.2081 15.3682H12.2114L10.9353 14.3999C10.9449 14.1594 10.8965 13.9201 10.7941 13.7023C10.6916 13.4845 10.5382 13.2946 10.3469 13.1486Z" fill="black"/>
</svg>
