<svg width="36" height="36" viewBox="0 0 36 36" fill="none" xmlns="http://www.w3.org/2000/svg">
<path d="M18.9062 5.3252H18.8069C15.2814 5.3252 11.9669 6.43003 9.47174 8.44107C6.93933 10.4769 5.53656 13.1831 5.52415 16.0755C5.51173 18.4466 6.44278 20.7183 8.21795 22.6424L8.23036 22.6673L8.21795 22.6921C7.41105 24.7528 5.82209 26.4286 5.79726 26.4411C5.44967 26.8135 5.35036 27.3473 5.54898 27.8066C5.74761 28.2783 6.2069 28.5762 6.71587 28.5762H6.79036C9.91864 28.5762 12.4138 27.2976 13.9531 26.23L13.9655 26.2176L13.9904 26.23C15.5421 26.7266 17.1559 26.9873 18.7945 26.9873H18.8814C22.4069 26.9873 25.7338 25.8824 28.2414 23.8714C30.7738 21.8356 32.1766 19.1293 32.189 16.2369C32.2014 10.2659 26.2552 5.37485 18.9062 5.3252ZM27.0124 22.6549C24.8276 24.3555 21.9352 25.2866 18.869 25.2866H18.7821C17.3173 25.2742 15.8648 25.0507 14.4621 24.5914L13.6676 24.3307L12.9848 24.8148C11.8676 25.5969 10.0552 26.5776 7.80829 26.8259L7.70897 26.8383L7.77104 26.7514C8.40415 25.9569 9.27311 24.7031 9.81932 23.2631L10.2042 22.2824L9.48415 21.5128C7.9945 19.9114 7.21243 18.0369 7.22485 16.088C7.24967 11.0976 12.451 7.02591 18.8069 7.02591H18.8938C21.9973 7.03832 24.9021 8.01901 27.0993 9.75694C29.2842 11.4949 30.4759 13.7914 30.4635 16.2245C30.4511 18.67 29.2221 20.9418 27.0124 22.6549Z" fill="black"/>
<path d="M14.2135 14.8096C13.4065 14.8096 12.761 15.4551 12.761 16.262C12.761 17.0689 13.4065 17.7144 14.2135 17.7144C15.0204 17.7144 15.666 17.0689 15.666 16.262C15.666 15.4551 15.0204 14.8096 14.2135 14.8096Z" fill="black"/>
<path d="M18.8192 14.8096C18.0123 14.8096 17.3668 15.4551 17.3668 16.262C17.3668 17.0689 18.0123 17.7144 18.8192 17.7144C19.6261 17.7144 20.2716 17.0689 20.2716 16.262C20.2716 15.4551 19.6137 14.8096 18.8192 14.8096Z" fill="black"/>
<path d="M23.4122 14.8096C22.6053 14.8096 21.9598 15.4551 21.9598 16.262C21.9598 17.0689 22.6053 17.7144 23.4122 17.7144C24.2191 17.7144 24.8646 17.0689 24.8646 16.262C24.8646 15.4551 24.2191 14.8096 23.4122 14.8096Z" fill="black"/>
</svg>
