<svg width="36" height="36" viewBox="0 0 36 36" fill="none" xmlns="http://www.w3.org/2000/svg">
<path d="M27.7089 8.14319H8.29123C7.51651 8.14417 6.77381 8.45236 6.226 9.00017C5.67819 9.54798 5.37 10.2907 5.36902 11.0654V24.9341C5.37 25.7088 5.67819 26.4515 6.226 26.9993C6.77381 27.5471 7.51651 27.8553 8.29123 27.8563H27.7089C28.4836 27.8553 29.2263 27.5471 29.7741 26.9993C30.3219 26.4515 30.6301 25.7088 30.6311 24.9341V11.0654C30.6301 10.2907 30.3219 9.54798 29.7741 9.00017C29.2263 8.45236 28.4836 8.14417 27.7089 8.14319ZM28.9503 24.9341C28.9503 25.2633 28.8195 25.5791 28.5867 25.8119C28.3539 26.0447 28.0381 26.1755 27.7089 26.1755H8.29123C7.96199 26.1755 7.64624 26.0447 7.41344 25.8119C7.18063 25.5791 7.04985 25.2633 7.04985 24.9341V11.0654C7.04985 10.7362 7.18063 10.4204 7.41344 10.1876C7.64624 9.9548 7.96199 9.82402 8.29123 9.82402H27.7089C28.0381 9.82402 28.3539 9.9548 28.5867 10.1876C28.8195 10.4204 28.9503 10.7362 28.9503 11.0654V24.9341Z" fill="black"/>
<path d="M26.7071 18.8082C26.6548 18.6781 26.5761 18.5602 26.4762 18.4619C26.3773 18.3517 26.2883 18.2329 26.2105 18.1069C26.3637 18.1293 26.5201 18.1162 26.6673 18.0684C26.7518 18.0398 26.7915 17.8921 26.7816 17.758C26.7816 17.6451 26.7468 17.5098 26.6661 17.4824C26.5854 17.4551 26.2142 17.4353 26.1348 17.4824C26.1097 17.5034 26.089 17.5291 26.0739 17.5581C26.0588 17.587 26.0495 17.6187 26.0467 17.6513C25.9469 17.3664 25.817 17.093 25.6593 16.8357C25.5246 16.5834 25.335 16.3645 25.1045 16.1951C24.8165 16.0263 23.5416 16.0077 23.0065 16.0077C22.4715 16.0077 21.1953 16.0263 20.9086 16.1951C20.6773 16.364 20.4872 16.583 20.3525 16.8357C20.1956 17.0933 20.0662 17.3667 19.9664 17.6513C19.9635 17.6187 19.9543 17.587 19.9391 17.5581C19.924 17.5291 19.9033 17.5034 19.8782 17.4824C19.7988 17.434 19.4338 17.4564 19.3457 17.4824C19.2576 17.5085 19.234 17.6451 19.2302 17.758C19.2302 17.8921 19.2613 18.0398 19.3457 18.0684C19.493 18.1163 19.6493 18.1295 19.8025 18.1069C19.7247 18.2332 19.6353 18.352 19.5356 18.4619C19.4361 18.5606 19.3575 18.6784 19.3047 18.8082C19.2425 19.2412 19.2098 19.678 19.2067 20.1154C19.1781 21.3245 19.3047 21.5194 19.3519 21.5926C19.3886 21.6499 19.4301 21.7039 19.476 21.754C19.4495 21.93 19.4846 22.1098 19.5753 22.263C19.6024 22.2982 19.6364 22.3274 19.6753 22.3488C19.7142 22.3702 19.7571 22.3832 19.8013 22.3871C19.9887 22.4008 20.484 22.407 20.8515 22.407C20.8957 22.4071 20.9394 22.3971 20.9793 22.3777C21.0191 22.3583 21.0539 22.3301 21.0811 22.2953C21.1364 22.2171 21.164 22.1227 21.1593 22.0271H22.1711C23.1431 22.0271 24.1908 22.0271 24.85 22.0271C24.8452 22.1239 24.8727 22.2195 24.9282 22.299C24.9556 22.3337 24.9905 22.3617 25.0302 22.3811C25.07 22.4004 25.1136 22.4105 25.1578 22.4107C25.5302 22.4107 26.0268 22.4107 26.2093 22.3908C26.2533 22.3869 26.296 22.3738 26.3347 22.3525C26.3734 22.3311 26.4072 22.3019 26.434 22.2667C26.5382 22.1426 26.5457 21.9191 26.5333 21.7577C26.5796 21.7079 26.6211 21.6539 26.6574 21.5964C26.7046 21.5231 26.83 21.3282 26.8014 20.1191C26.801 19.6805 26.7695 19.2424 26.7071 18.8082ZM20.7671 19.7641C20.7671 19.7939 20.7671 19.8646 20.6342 19.8646C20.5461 19.8646 19.7876 19.6697 19.7045 19.6486L19.7293 19.3246C20.026 19.4488 20.5647 19.6635 20.7485 19.7492C20.7553 19.7518 20.7616 19.7556 20.7671 19.7604V19.7641ZM25.0213 18.0001C24.732 18.0373 21.4126 18.01 21.0216 18.0001C20.8128 17.9729 20.6096 17.913 20.4195 17.8226C20.5709 17.362 20.9433 16.7488 21.1494 16.6247C21.2611 16.5738 22.1971 16.5005 23.0115 16.5005C23.9127 16.5005 24.773 16.5638 24.8673 16.6247C25.0014 16.7091 25.4148 17.3074 25.5787 17.7667C25.4185 17.8288 25.1342 17.9591 25.0213 18.0001ZM25.4073 19.8622C25.3725 19.8582 25.339 19.8465 25.3091 19.8281C25.2793 19.8096 25.2539 19.7848 25.2348 19.7554L25.2522 19.7455L26.2304 19.342L26.2788 19.3222L26.3036 19.6462C26.2229 19.6697 25.4955 19.8622 25.4073 19.8622Z" fill="black"/>
<path d="M12.2028 17.5929C12.3195 17.6759 12.4443 17.747 12.5752 17.8052C12.653 17.8409 12.733 17.8716 12.8148 17.8971C13.0979 17.9846 13.3956 18.015 13.6905 17.9865C13.9855 17.9579 14.2718 17.871 14.5329 17.7307C14.6073 17.6897 14.6806 17.6451 14.7513 17.5966C15.1323 17.3265 15.4174 16.9423 15.5656 16.4994C15.7137 16.0566 15.7172 15.5781 15.5754 15.1332C15.4337 14.6882 15.1541 14.2999 14.7771 14.0243C14.4001 13.7487 13.9453 13.6002 13.4783 13.6002C13.0113 13.6002 12.5565 13.7487 12.1795 14.0243C11.8025 14.2999 11.5229 14.6882 11.3812 15.1332C11.2394 15.5781 11.2429 16.0566 11.391 16.4994C11.5392 16.9423 11.8243 17.3265 12.2053 17.5966L12.2028 17.5929Z" fill="black"/>
<path d="M15.0269 18.3031C14.5637 18.5839 14.0324 18.7324 13.4907 18.7324C12.949 18.7324 12.4177 18.5839 11.9545 18.3031C10.5269 18.889 9.55865 20.0894 9.45437 21.774C9.43079 22.1365 9.82679 22.4034 10.1868 22.3947H16.7003C17.0951 22.3947 17.5134 22.103 17.4861 21.7653C17.4873 20.2111 16.4384 18.8692 15.0269 18.3031Z" fill="black"/>
</svg>
