<svg width="36" height="36" viewBox="0 0 36 36" fill="none" xmlns="http://www.w3.org/2000/svg">
<path d="M18.614 17.0685C18.2048 17.8009 18.3411 18.7195 18.9364 19.3154L19.9036 20.2837C20.2633 20.6437 20.7345 20.8423 21.2429 20.8423C21.7514 20.8423 22.2227 20.6437 22.5823 20.2837L27.8899 14.9706C28.2496 14.6106 28.448 14.1389 28.448 13.6299C28.448 13.1209 28.2496 12.6492 27.8899 12.2892L26.9227 11.3209C26.3274 10.7251 25.4097 10.5885 24.678 10.9982L20.9826 7.29889C21.3918 6.56648 21.2554 5.64786 20.6602 5.052L19.6928 4.08373C18.9611 3.35132 17.7583 3.35132 17.0142 4.08373L11.7066 9.39681C10.975 10.1292 10.975 11.3334 11.7066 12.0782L12.6739 13.0465C13.2691 13.6423 14.1868 13.7665 14.9184 13.3692L16.1585 14.6106L13.5791 17.1927L13.2816 16.8947C12.8723 16.4851 12.339 16.2616 11.7562 16.2616C11.1857 16.2616 10.6401 16.4851 10.2309 16.8947L4.88606 22.245C4.47683 22.6547 4.25354 23.1885 4.25354 23.7719C4.25354 24.343 4.47683 24.8892 4.88606 25.2988L6.69656 27.1112C7.1058 27.5209 7.63902 27.7443 8.22186 27.7443C8.79231 27.7443 9.33805 27.5209 9.74729 27.1112L15.0921 21.7609C15.9353 20.9168 15.9353 19.5513 15.0921 18.7196L14.7944 18.4216L17.3739 15.8396L18.614 17.0685ZM13.8643 20.5195L8.51954 25.8699C8.44513 25.9444 8.33347 25.994 8.22186 25.994C8.11026 25.994 8.01112 25.9568 7.92431 25.8699L6.11369 24.0575C5.95248 23.8961 5.95248 23.6354 6.11369 23.474L11.4586 18.1237C11.533 18.0492 11.6445 17.9995 11.7562 17.9995C11.8678 17.9995 11.967 18.0368 12.0538 18.1237L13.8643 19.9361C14.0255 20.0975 14.0255 20.3582 13.8643 20.5195ZM14.9681 10.961L14.1123 11.8175C14.0503 11.8796 13.9512 11.8796 13.8892 11.8175L12.9219 10.8492C12.8599 10.7872 12.8599 10.6878 12.9219 10.6258L18.2295 5.31269C18.2915 5.25062 18.3907 5.25062 18.4527 5.31269L19.4201 6.28096C19.4449 6.30579 19.4696 6.34303 19.4696 6.39269C19.4696 6.42993 19.4573 6.46717 19.4201 6.50441L18.5644 7.36096L24.616 13.4189L25.4717 12.5623C25.5338 12.5002 25.6329 12.5002 25.6949 12.5623L26.6622 13.5306C26.687 13.5554 26.7118 13.6051 26.7118 13.6423C26.7118 13.6796 26.6994 13.7168 26.6622 13.754L21.3546 19.0671C21.3298 19.092 21.2925 19.1168 21.2429 19.1168C21.2057 19.1168 21.1562 19.1044 21.1314 19.0671L20.1641 18.0989C20.1021 18.0368 20.1021 17.9375 20.1641 17.8754L21.0197 17.0189L14.9681 10.961Z" fill="black"/>
<path d="M31.6971 25.6087H31.0398V24.8638C31.0398 24.5783 30.8166 24.3549 30.5314 24.3549H19.7921C19.5069 24.3549 19.2836 24.5783 19.2836 24.8638V25.6087H18.6263C18.3411 25.6087 18.1179 25.8321 18.1179 26.1176V26.8749C18.1179 27.1604 18.3411 27.3838 18.6263 27.3838H31.6847C31.9699 27.3838 32.1932 27.1604 32.1932 26.8749V26.1176C32.2056 25.8321 31.9824 25.6087 31.6971 25.6087Z" fill="black"/>
</svg>
