<svg width="36" height="36" viewBox="0 0 36 36" fill="none" xmlns="http://www.w3.org/2000/svg">
<path d="M33.9095 18.0212H29.8651C29.8887 16.2832 29.6925 13.1376 28.1272 11.4245C27.7815 11.0359 27.3556 10.7268 26.879 10.5185C26.4024 10.3102 25.8864 10.2076 25.3663 10.2179C24.8416 10.208 24.3208 10.3109 23.8392 10.5194C23.3576 10.728 22.9263 11.0375 22.5745 11.427C20.9644 13.1587 20.7434 16.2919 20.7558 18.0212H15.2342C15.2578 16.2832 15.0616 13.1376 13.4963 11.4245C13.1503 11.0359 12.7242 10.727 12.2474 10.5189C11.7706 10.3108 11.2543 10.2085 10.7342 10.2191C10.2098 10.2093 9.68941 10.3122 9.20819 10.5207C8.72698 10.7293 8.29614 11.0388 7.9448 11.4282C6.33101 13.1587 6.11253 16.2919 6.12494 18.0212H2.09046C1.96347 18.0228 1.84223 18.0744 1.75301 18.1648C1.66378 18.2552 1.61376 18.3771 1.61377 18.5041V19.2837C1.61377 19.4118 1.66461 19.5348 1.75513 19.6256C1.84566 19.7163 1.96848 19.7675 2.09667 19.7678H13.4528C13.4814 23.698 14.5986 25.4893 15.2665 26.2093C15.6183 26.5984 16.0494 26.9076 16.5308 27.1159C17.0122 27.3243 17.5326 27.427 18.0571 27.4172C18.577 27.4276 19.093 27.3252 19.5696 27.1172C20.0462 26.9091 20.4721 26.6002 20.8179 26.2118C21.3517 25.6296 22.5807 23.8408 22.5558 19.7678H33.9095C34.0378 19.7675 34.1608 19.7164 34.2515 19.6256C34.3422 19.5349 34.3933 19.412 34.3936 19.2837V18.5041C34.3933 18.3759 34.3422 18.2531 34.2514 18.1625C34.1606 18.072 34.0377 18.0212 33.9095 18.0212ZM7.89639 18.0212C7.89639 16.8232 8.0106 13.9507 9.23708 12.6311C9.42287 12.421 9.65268 12.2545 9.91015 12.1434C10.1676 12.0322 10.4464 11.9792 10.7267 11.9881C11.0011 11.9784 11.2741 12.03 11.526 12.1391C11.7779 12.2481 12.0023 12.412 12.1829 12.6187C13.3771 13.9209 13.4739 16.817 13.4578 18.0212H7.89639ZM19.507 25.0176C19.3262 25.224 19.1017 25.3877 18.8499 25.4967C18.5981 25.6058 18.3251 25.6575 18.0509 25.6482C17.7706 25.6568 17.4919 25.6037 17.2344 25.4926C16.977 25.3814 16.7472 25.215 16.5612 25.0052C15.3956 23.7514 15.2329 21.0017 15.2218 19.7678H20.7881C20.7844 21.0079 20.6491 23.7712 19.507 25.0176ZM22.5273 18.0212C22.5211 16.8245 22.6427 13.9507 23.868 12.6299C24.0538 12.4199 24.2836 12.2534 24.5411 12.1422C24.7986 12.0311 25.0773 11.978 25.3576 11.9868C25.632 11.9775 25.9051 12.0293 26.1569 12.1386C26.4088 12.2479 26.6332 12.4119 26.8138 12.6187C27.1303 12.9626 28.1532 14.3703 28.0899 18.0212H22.5273Z" fill="black"/>
</svg>
