<svg width="36" height="36" viewBox="0 0 36 36" fill="none" xmlns="http://www.w3.org/2000/svg">
<path d="M24.9903 8.49842H24.9654V5.76739C24.9651 5.31183 24.784 4.87502 24.4619 4.55289C24.1397 4.23076 23.7029 4.04965 23.2474 4.04932H12.7528C12.2989 4.04963 11.8636 4.22939 11.5418 4.54937C11.2199 4.86936 11.0376 5.30362 11.0347 5.75745V8.48849H11.0099C10.0303 8.69105 9.15019 9.2244 8.51729 9.99902C7.88439 10.7736 7.5372 11.7424 7.534 12.7427V23.2373C7.5372 24.2376 7.88439 25.2064 8.51729 25.981C9.15019 26.7556 10.0303 27.289 11.0099 27.4915H11.0347V30.2226C11.035 30.6781 11.2161 31.1149 11.5383 31.4371C11.8604 31.7592 12.2972 31.9403 12.7528 31.9406H23.2474C23.7029 31.9403 24.1397 31.7592 24.4619 31.4371C24.784 31.1149 24.9651 30.6781 24.9654 30.2226V27.4915H24.9903C25.9699 27.289 26.8499 26.7556 27.4828 25.981C28.1157 25.2064 28.4629 24.2376 28.4661 23.2373V12.7526C28.4629 11.7523 28.1157 10.7836 27.4828 10.009C26.8499 9.23433 25.9699 8.70098 24.9903 8.49842ZM12.7217 5.72642H23.2734V8.41152H12.7217V5.72642ZM23.2734 30.2735H12.7217V27.5884H23.2734V30.2735ZM26.7717 23.2472C26.7697 23.9505 26.4894 24.6245 25.9921 25.1218C25.4948 25.6191 24.8209 25.8994 24.1176 25.9013H11.8788C11.1753 25.8997 10.5011 25.6196 10.0035 25.1222C9.50591 24.6249 9.22548 23.9508 9.22351 23.2472V12.7526C9.22548 12.0493 9.50573 11.3754 10.003 10.8781C10.5004 10.3808 11.1743 10.1005 11.8776 10.0986H24.1213C24.8248 10.1002 25.4991 10.3803 25.9966 10.8777C26.4942 11.375 26.7747 12.0491 26.7766 12.7526L26.7717 23.2472Z" fill="black"/>
<path d="M21.2375 14.9664C20.3772 14.2327 19.0986 14.3643 18.3091 15.1786L18 15.4977L17.6909 15.1786C16.9026 14.3643 15.6227 14.2327 14.7625 14.9664C14.5313 15.1661 14.3432 15.4107 14.2095 15.6854C14.0758 15.9601 13.9994 16.2591 13.9849 16.5642C13.9704 16.8694 14.0181 17.1743 14.1251 17.4604C14.2321 17.7466 14.3961 18.0079 14.6073 18.2287L17.6437 21.3632C17.69 21.4107 17.7453 21.4484 17.8064 21.4742C17.8674 21.4999 17.9331 21.5132 17.9994 21.5132C18.0657 21.5132 18.1313 21.4999 18.1924 21.4742C18.2534 21.4484 18.3088 21.4107 18.355 21.3632L21.3914 18.2287C21.6028 18.0081 21.7671 17.7468 21.8743 17.4607C21.9815 17.1746 22.0294 16.8697 22.015 16.5645C22.0006 16.2593 21.9242 15.9602 21.7906 15.6855C21.6569 15.4107 21.4687 15.1661 21.2375 14.9664Z" fill="black"/>
<path d="M15.058 20.1601C14.9798 20.075 14.8855 20.0063 14.7804 19.9581C14.6754 19.9099 14.5618 19.8831 14.4463 19.8794C14.3308 19.8756 14.2157 19.8949 14.1078 19.9362C13.9998 19.9774 13.9012 20.0398 13.8177 20.1196C13.7341 20.1994 13.6673 20.2951 13.6212 20.4011C13.5751 20.5071 13.5506 20.6212 13.5491 20.7367C13.5476 20.8523 13.5692 20.967 13.6126 21.0741C13.6559 21.1812 13.7202 21.2786 13.8017 21.3605L15.2454 22.8713C15.4048 23.0379 15.6238 23.1343 15.8543 23.1395C16.0847 23.1446 16.3078 23.0579 16.4744 22.8986C16.641 22.7392 16.7375 22.5202 16.7426 22.2898C16.7477 22.0593 16.6611 21.8362 16.5017 21.6696L15.058 20.1601Z" fill="black"/>
<path d="M21.8063 12.3852C21.5833 12.3456 21.3537 12.3947 21.1664 12.5219C20.9791 12.6492 20.8488 12.8445 20.8033 13.0663C20.7579 13.2882 20.8008 13.519 20.923 13.7096C21.0452 13.9003 21.2369 14.0357 21.4575 14.0871C21.8861 14.1748 22.2712 14.4082 22.5472 14.7477C22.8233 15.0871 22.9734 15.5116 22.9719 15.9492C22.9719 16.1796 23.0635 16.4007 23.2265 16.5636C23.3894 16.7266 23.6104 16.8181 23.8409 16.8181C24.0714 16.8181 24.2924 16.7266 24.4554 16.5636C24.6183 16.4007 24.7099 16.1796 24.7099 15.9492C24.7112 15.4291 24.5998 14.915 24.3834 14.4421C24.146 13.9207 23.7888 13.4626 23.341 13.1052C22.8932 12.7478 22.3674 12.5011 21.8063 12.3852Z" fill="black"/>
</svg>
