<svg width="36" height="36" viewBox="0 0 36 36" fill="none" xmlns="http://www.w3.org/2000/svg">
<path d="M29.4026 25.8703H7.99857V8.91314C7.99857 8.65245 7.78778 8.44141 7.52736 8.44141H6.77089C6.51047 8.44141 6.29962 8.65245 6.29962 8.91314V26.7145C6.29962 27.1862 6.6841 27.571 7.15533 27.571H29.4026C29.663 27.571 29.8738 27.36 29.8738 27.0993V26.3421C29.8738 26.0814 29.663 25.8703 29.4026 25.8703Z" fill="black"/>
<path d="M11.5823 23.9212C12.5744 23.9212 13.368 23.1267 13.368 22.1336C13.368 21.8853 13.3185 21.6495 13.2193 21.426L16.4311 17.255C16.5179 17.2674 16.6047 17.2798 16.6915 17.2798C17.0884 17.2798 17.4604 17.1433 17.758 16.9198L20.9326 18.3474C21.0567 19.2164 21.8007 19.8867 22.6936 19.8867C23.6857 19.8867 24.4794 19.0922 24.4794 18.0991C24.4794 17.9253 24.4545 17.7515 24.4049 17.6026L27.3068 14.4122C27.4432 14.4371 27.5796 14.4619 27.716 14.4619C28.7081 14.4619 29.5018 13.6674 29.5018 12.6743C29.5018 11.6812 28.7081 10.8867 27.716 10.8867C26.7239 10.8867 25.9303 11.6812 25.9303 12.6743C25.9303 12.8729 25.9675 13.0591 26.0295 13.2453L23.1648 16.386C23.016 16.3488 22.8548 16.324 22.6936 16.324C22.2596 16.324 21.8627 16.4853 21.5527 16.7336L18.4649 15.3433C18.3905 14.4246 17.6216 13.7047 16.6915 13.7047C15.6995 13.7047 14.9058 14.4991 14.9058 15.4922C14.9058 15.7405 14.9554 15.9764 15.0546 16.1998L11.8427 20.3708C11.7559 20.3584 11.6691 20.346 11.5823 20.346C10.5902 20.346 9.79657 21.1405 9.79657 22.1336C9.79657 23.1267 10.5902 23.9212 11.5823 23.9212Z" fill="black"/>
</svg>
