<svg width="36" height="36" viewBox="0 0 36 36" fill="none" xmlns="http://www.w3.org/2000/svg">
<path d="M16.5265 17.8758L16.6507 17.913L16.6842 17.7889C16.8083 17.3424 16.9668 16.9062 17.1584 16.4842L17.2192 16.3526L17.079 16.3141C16.5074 16.1551 15.9875 15.8491 15.5711 15.4267C15.1546 15.0042 14.8561 14.48 14.7053 13.9062C14.5545 13.3325 14.5567 12.7293 14.7116 12.1566C14.8665 11.584 15.1688 11.0619 15.5882 10.6424C16.0077 10.223 16.5298 9.92071 17.1024 9.7658C17.6751 9.61089 18.2783 9.60873 18.852 9.75953C19.4258 9.91033 19.95 10.2088 20.3725 10.6253C20.7949 11.0417 21.1009 11.5616 21.2599 12.1332L21.2996 12.2722L21.4312 12.2114C21.8518 12.0177 22.2878 11.8595 22.7347 11.7384L22.8588 11.7049L22.8216 11.5807C22.5688 10.7457 22.1039 9.99045 21.4722 9.3886C20.8406 8.78675 20.0638 8.35885 19.2175 8.14663C18.3713 7.93441 17.4845 7.94511 16.6436 8.1777C15.8027 8.41028 15.0364 8.8568 14.4195 9.47372C13.8026 10.0906 13.3561 10.8569 13.1235 11.6978C12.8909 12.5387 12.8802 13.4255 13.0924 14.2717C13.3046 15.118 13.7325 15.8948 14.3344 16.5265C14.9362 17.1581 15.6915 17.623 16.5265 17.8758Z" fill="black"/>
<path d="M8.12362 16.7127C8.84554 16.7119 9.55103 16.4972 10.1509 16.0956C10.7508 15.694 11.2182 15.1235 11.4939 14.4563C11.7697 13.7892 11.8415 13.0552 11.7002 12.3472C11.5589 11.6393 11.2109 10.9891 10.7001 10.4789C10.1894 9.96868 9.53888 9.62134 8.83078 9.48077C8.12267 9.3402 7.38879 9.41272 6.72189 9.68915C6.055 9.96559 5.48502 10.4335 5.08402 11.0338C4.68302 11.6341 4.46899 12.3399 4.46899 13.0618C4.47031 14.0303 4.85589 14.9587 5.54109 15.6432C6.22628 16.3277 7.1551 16.7123 8.12362 16.7127ZM6.13741 13.0618C6.13741 12.6689 6.2539 12.2849 6.47214 11.9583C6.69039 11.6317 7.00059 11.3771 7.36353 11.2268C7.72646 11.0764 8.12582 11.0371 8.51111 11.1137C8.89639 11.1904 9.2503 11.3795 9.52808 11.6573C9.80585 11.9351 9.99502 12.289 10.0717 12.6743C10.1483 13.0596 10.109 13.4589 9.95863 13.8219C9.8083 14.1848 9.55372 14.495 9.22709 14.7132C8.90046 14.9315 8.51645 15.048 8.12362 15.048C7.59658 15.0473 7.09125 14.838 6.71812 14.4658C6.34498 14.0936 6.13441 13.5888 6.13244 13.0618H6.13741Z" fill="black"/>
<path d="M31.655 20.9917L30.9959 20.6193C31.0219 20.2888 31.0219 19.9567 30.9959 19.6262L31.655 19.2414C31.8819 19.1126 32.0575 18.9096 32.1523 18.6666C32.247 18.4235 32.2551 18.1552 32.1752 17.9069C31.8492 16.8471 31.2897 15.874 30.5378 15.0592C30.362 14.8647 30.1244 14.7368 29.8652 14.6972C29.606 14.6576 29.3411 14.7088 29.1152 14.8419L28.456 15.2143C28.1835 15.0246 27.8953 14.8585 27.5945 14.7178V13.9655C27.5946 13.7047 27.5055 13.4517 27.342 13.2485C27.1785 13.0453 26.9505 12.9041 26.6957 12.8483C25.6139 12.6049 24.4916 12.6049 23.4098 12.8483C23.1547 12.9036 22.9262 13.0447 22.7625 13.2479C22.5987 13.4512 22.5096 13.7045 22.5098 13.9655V14.724C22.2085 14.8637 21.9202 15.0299 21.6483 15.2205L20.9904 14.8481C20.7651 14.7156 20.501 14.6646 20.2425 14.704C19.9841 14.7433 19.7471 14.8705 19.5715 15.0641C18.82 15.8786 18.2583 16.8495 17.9266 17.9069C17.8503 18.1553 17.8601 18.4221 17.9542 18.6643C18.0484 18.9065 18.2215 19.1098 18.4455 19.2414L19.1035 19.6212C19.0773 19.9518 19.0773 20.2838 19.1035 20.6143L18.4406 20.9942C18.2147 21.1252 18.0402 21.3293 17.9458 21.5728C17.8515 21.8163 17.843 22.0847 17.9217 22.3337C18.2524 23.3926 18.8142 24.3648 19.5665 25.1801C19.7443 25.3717 19.9816 25.4974 20.2399 25.5369C20.4982 25.5763 20.7623 25.5271 20.9891 25.3974L21.6483 25.0175C21.9208 25.2073 22.209 25.3734 22.5098 25.5141V26.2713C22.5097 26.5321 22.5988 26.7851 22.7623 26.9883C22.9258 27.1916 23.1538 27.3328 23.4086 27.3886C24.4895 27.6285 25.6099 27.6285 26.6908 27.3886C26.9455 27.3328 27.1736 27.1916 27.3371 26.9883C27.5005 26.7851 27.5896 26.5321 27.5895 26.2713V25.5141C27.8903 25.3734 28.1785 25.2073 28.451 25.0175L29.1102 25.3974C29.3358 25.5283 29.5995 25.5782 29.8573 25.5387C30.1152 25.4992 30.3518 25.3727 30.5279 25.1801C31.2789 24.368 31.841 23.3997 32.1739 22.3448C32.2557 22.094 32.2487 21.8227 32.1542 21.5763C32.0598 21.33 31.8835 21.1236 31.655 20.9917ZM24.0901 24.3435C22.9108 23.9263 22.773 23.8295 21.8767 23.0648L21.8097 23.009L20.5286 23.7538C20.158 23.2937 19.8607 22.779 19.6472 22.2281L20.9283 21.4833L20.9134 21.3977C20.6986 20.2258 20.685 20.083 20.9134 18.8404L20.9283 18.7548L19.6472 18.0099C19.8607 17.459 20.158 16.9444 20.5286 16.4843L21.8097 17.2291L21.8767 17.172C22.809 16.375 22.9331 16.303 24.0901 15.8946L24.1733 15.8648V14.3801C24.7574 14.2951 25.3507 14.2951 25.9348 14.3801V15.8611L26.0179 15.8909C27.1687 16.2981 27.3139 16.3874 28.2313 17.1683L28.2984 17.2254L29.5795 16.4805C29.9501 16.9407 30.2474 17.4553 30.4608 18.0062L29.1797 18.751L29.1959 18.8367C29.4094 20.0073 29.423 20.1513 29.1959 21.3939L29.1797 21.4796L30.4596 22.2244C30.2467 22.7757 29.9498 23.2908 29.5795 23.7513L28.2984 23.0065L28.2313 23.0636C27.299 23.8618 27.1749 23.9326 26.0179 24.3422L25.9348 24.3708V25.853C25.3511 25.9436 24.7569 25.9436 24.1733 25.853V24.3708L24.0901 24.3435Z" fill="black"/>
<path d="M28.0217 20.1166C28.0207 19.5297 27.8458 18.9563 27.519 18.4688C27.1922 17.9814 26.7282 17.6017 26.1857 17.3778C25.6432 17.154 25.0465 17.096 24.471 17.2112C23.8956 17.3264 23.3672 17.6096 22.9526 18.025C22.538 18.4404 22.256 18.9694 22.142 19.5451C22.028 20.1208 22.0872 20.7174 22.3122 21.2594C22.5372 21.8015 22.9178 22.2647 23.406 22.5904C23.8942 22.9162 24.4679 23.09 25.0548 23.0897C25.8425 23.0887 26.5975 22.775 27.1538 22.2175C27.7102 21.6599 28.0224 20.9043 28.0217 20.1166ZM23.7452 20.1166C23.7449 19.8575 23.8215 19.6042 23.9653 19.3887C24.109 19.1731 24.3135 19.0051 24.5528 18.9058C24.7921 18.8065 25.0554 18.7803 25.3096 18.8307C25.5637 18.8811 25.7972 19.0058 25.9804 19.1889C26.1637 19.372 26.2886 19.6053 26.3392 19.8594C26.3898 20.1135 26.364 20.3769 26.2649 20.6163C26.1658 20.8557 25.9979 21.0603 25.7825 21.2042C25.5672 21.3482 25.3139 21.425 25.0548 21.425C24.7077 21.425 24.3748 21.2872 24.1292 21.0419C23.8836 20.7965 23.7455 20.4637 23.7452 20.1166Z" fill="black"/>
<path d="M9.73106 19.7058L9.79065 19.6387C10.1153 19.2725 10.4839 18.9478 10.888 18.6717L11.037 18.5687L10.888 18.4656C10.3344 18.0841 9.67846 17.8786 9.00609 17.876H7.24209C5.32665 17.876 3.76624 19.5134 3.76624 21.5269C3.76624 21.7468 3.8536 21.9577 4.00911 22.1132C4.16463 22.2687 4.37555 22.3561 4.59548 22.3561C4.8154 22.3561 5.02632 22.2687 5.18184 22.1132C5.33735 21.9577 5.42472 21.7468 5.42472 21.5269C5.42472 20.4283 6.23906 19.5407 7.24085 19.5407H9.00609C9.22745 19.5412 9.44633 19.5872 9.64913 19.676L9.73106 19.7058Z" fill="black"/>
<path d="M19.0305 26.3756L18.9945 26.3408H11.6518C11.4976 26.3408 11.3497 26.2797 11.2405 26.1708C11.1314 26.0618 11.0699 25.9141 11.0696 25.7599V23.7848C11.0682 23.0811 11.277 22.3929 11.6691 21.8086C12.2563 20.9396 13.3003 20.417 14.4635 20.417C14.8418 20.4177 15.2181 20.4729 15.5807 20.5808C15.7558 20.6231 15.9631 20.6727 16.23 20.7311L16.3889 20.7658L16.3864 20.6069C16.3864 20.5846 16.3864 20.5585 16.3864 20.5262C16.3537 20.0806 16.3641 19.6329 16.4174 19.1893L16.4286 19.0837L16.3256 19.0564C15.6291 18.8727 15.1574 18.761 14.4734 18.761C12.7566 18.761 11.1962 19.5555 10.3011 20.8837C9.72185 21.7416 9.4131 22.7534 9.4148 23.7886V25.7636C9.41545 26.3566 9.65088 26.9252 10.0696 27.3451C10.4883 27.765 11.0563 28.002 11.6493 28.0043H21.3519L20.9174 27.7709C20.2271 27.395 19.5922 26.9255 19.0305 26.3756Z" fill="black"/>
</svg>
