<svg width="36" height="36" viewBox="0 0 36 36" fill="none" xmlns="http://www.w3.org/2000/svg">
<path d="M28.558 19.558H25.5514V17.3372C25.5508 16.8567 25.3596 16.3961 25.0199 16.0564C24.6801 15.7166 24.2195 15.5255 23.739 15.5248H23.3765V13.582C23.3765 13.4914 23.3765 13.4008 23.3703 13.3114H26.7506C26.9811 13.3114 27.2021 13.2199 27.365 13.0569C27.528 12.8939 27.6196 12.6729 27.6196 12.4425V9.25583C28.228 9.04984 28.7435 8.63441 29.0741 8.08362C29.4047 7.53283 29.5289 6.88251 29.4245 6.24866C29.3201 5.61481 28.994 5.03866 28.5042 4.62296C28.0145 4.20726 27.393 3.97906 26.7506 3.97906C26.1082 3.97906 25.4867 4.20726 24.997 4.62296C24.5072 5.03866 24.1811 5.61481 24.0767 6.24866C23.9723 6.88251 24.0965 7.53283 24.4271 8.08362C24.7577 8.63441 25.2732 9.04984 25.8816 9.25583V11.5735H23.0103C22.611 10.5006 21.8931 9.57552 20.9529 8.9223C20.0128 8.26909 18.8954 7.919 17.7506 7.919C16.6058 7.919 15.4884 8.26909 14.5482 8.9223C13.6081 9.57552 12.8902 10.5006 12.4909 11.5735H10.3222C10.1162 10.9647 9.70058 10.4489 9.14955 10.118C8.59851 9.7872 7.94787 9.66289 7.31369 9.76728C6.67951 9.87166 6.10303 10.198 5.6871 10.6879C5.27117 11.1779 5.04284 11.7997 5.04284 12.4425C5.04284 13.0852 5.27117 13.707 5.6871 14.197C6.10303 14.687 6.67951 15.0132 7.31369 15.1176C7.94787 15.222 8.59851 15.0977 9.14955 14.7669C9.70058 14.4361 10.1162 13.9202 10.3222 13.3114H12.1445C12.1445 13.3847 12.1445 13.4579 12.1445 13.5311V15.5248H11.7771C11.2966 15.5255 10.836 15.7166 10.4962 16.0564C10.1565 16.3961 9.9653 16.8567 9.96465 17.3372V19.558H6.74699C6.51652 19.558 6.2955 19.6496 6.13254 19.8126C5.96957 19.9755 5.87802 20.1965 5.87802 20.427V23.6149C5.26956 23.8209 4.75405 24.2363 4.42346 24.7871C4.09287 25.3379 3.96869 25.9882 4.07307 26.622C4.17745 27.2559 4.5036 27.8321 4.99335 28.2477C5.48311 28.6634 6.1046 28.8916 6.74699 28.8916C7.38937 28.8916 8.01087 28.6634 8.50062 28.2477C8.99037 27.8321 9.31653 27.2559 9.42091 26.622C9.52529 25.9882 9.40111 25.3379 9.07052 24.7871C8.73992 24.2363 8.22442 23.8209 7.61595 23.6149V21.296H9.96465V23.8619C9.9653 24.3424 10.1565 24.803 10.4962 25.1428C10.836 25.4825 11.2966 25.6737 11.7771 25.6743H23.739C24.2195 25.6737 24.6801 25.4825 25.0199 25.1428C25.3596 24.803 25.5508 24.3424 25.5514 23.8619V21.296H27.6891V28.9168H21.5728C21.3738 28.3057 20.9641 27.7852 20.4169 27.4481C19.8697 27.111 19.2205 26.9793 18.5851 27.0764C17.9498 27.1735 17.3697 27.4932 16.9482 27.9784C16.5267 28.4636 16.2913 29.0828 16.2839 29.7254C16.2766 30.3681 16.4978 30.9925 16.9081 31.4872C17.3184 31.9819 17.8911 32.3148 18.524 32.4264C19.1569 32.538 19.809 32.4212 20.3637 32.0967C20.9185 31.7722 21.34 31.2612 21.5529 30.6547H28.558C28.7885 30.6547 29.0095 30.5632 29.1725 30.4002C29.3355 30.2373 29.427 30.0162 29.427 29.7858V20.427C29.427 20.1965 29.3355 19.9755 29.1725 19.8126C29.0095 19.6496 28.7885 19.558 28.558 19.558ZM25.7786 6.6899C25.7786 6.49765 25.8356 6.30973 25.9424 6.14988C26.0492 5.99004 26.201 5.86546 26.3786 5.79189C26.5562 5.71832 26.7517 5.69907 26.9402 5.73657C27.1288 5.77408 27.302 5.86665 27.4379 6.00259C27.5738 6.13853 27.6664 6.31172 27.7039 6.50027C27.7414 6.68882 27.7222 6.88426 27.6486 7.06187C27.575 7.23948 27.4505 7.39128 27.2906 7.49809C27.1308 7.60489 26.9428 7.6619 26.7506 7.6619C26.4929 7.66157 26.2459 7.55906 26.0637 7.37684C25.8814 7.19463 25.7789 6.94759 25.7786 6.6899ZM7.75623 13.4157C7.56369 13.4159 7.3754 13.3591 7.21519 13.2523C7.05498 13.1455 6.93004 12.9936 6.85619 12.8158C6.78233 12.6379 6.76288 12.4422 6.8003 12.2533C6.83771 12.0645 6.9303 11.8909 7.06636 11.7547C7.20242 11.6185 7.37584 11.5257 7.56466 11.488C7.75349 11.4504 7.94924 11.4696 8.12715 11.5432C8.30505 11.6168 8.45713 11.7415 8.56412 11.9016C8.67112 12.0617 8.72823 12.2499 8.72823 12.4425C8.72823 12.7004 8.62586 12.9477 8.44361 13.1302C8.26136 13.3127 8.01414 13.4154 7.75623 13.4157ZM7.71899 26.1808C7.71899 26.3731 7.66198 26.561 7.55518 26.7208C7.44837 26.8807 7.29657 27.0053 7.11896 27.0788C6.94135 27.1524 6.74591 27.1716 6.55736 27.1341C6.36881 27.0966 6.19562 27.0041 6.05968 26.8681C5.92374 26.7322 5.83117 26.559 5.79366 26.3704C5.75616 26.1819 5.77541 25.9865 5.84898 25.8088C5.92254 25.6312 6.04713 25.4794 6.20697 25.3726C6.36682 25.2658 6.55474 25.2088 6.74699 25.2088C7.00468 25.2091 7.25172 25.3116 7.43393 25.4939C7.61615 25.6761 7.71866 25.9231 7.71899 26.1808ZM13.5895 13.5311C13.5799 12.9776 13.6807 12.4277 13.8859 11.9135C14.0912 11.3993 14.3967 10.9311 14.7848 10.5363C15.1729 10.1414 15.6358 9.8278 16.1463 9.61373C16.6569 9.39966 17.205 9.2894 17.7587 9.2894C18.3123 9.2894 18.8604 9.39966 19.371 9.61373C19.8815 9.8278 20.3444 10.1414 20.7325 10.5363C21.1206 10.9311 21.4261 11.3993 21.6314 11.9135C21.8366 12.4277 21.9374 12.9776 21.9278 13.5311V15.5248H13.5895V13.5311ZM24.1027 23.8619C24.1024 23.9582 24.0639 24.0504 23.9958 24.1183C23.9276 24.1862 23.8353 24.2244 23.739 24.2244H11.7771C11.682 24.2228 11.5914 24.1839 11.5248 24.1161C11.4581 24.0483 11.4208 23.957 11.4208 23.8619V17.3372C11.4208 17.241 11.4589 17.1486 11.5269 17.0805C11.5948 17.0123 11.687 16.9738 11.7833 16.9735H23.7452C23.793 16.9735 23.8403 16.9829 23.8844 17.0012C23.9285 17.0195 23.9686 17.0463 24.0024 17.08C24.0362 17.1138 24.063 17.1539 24.0812 17.198C24.0995 17.2422 24.1089 17.2895 24.1089 17.3372L24.1027 23.8619ZM18.9932 30.7292C18.801 30.7292 18.613 30.6722 18.4532 30.5654C18.2933 30.4586 18.1688 30.3068 18.0952 30.1292C18.0216 29.9516 18.0024 29.7561 18.0399 29.5676C18.0774 29.379 18.17 29.2059 18.3059 29.0699C18.4418 28.934 18.615 28.8414 18.8036 28.8039C18.9921 28.7664 19.1876 28.7856 19.3652 28.8592C19.5428 28.9328 19.6946 29.0574 19.8014 29.2172C19.9082 29.3771 19.9652 29.565 19.9652 29.7572C19.9649 30.0149 19.8624 30.262 19.6802 30.4442C19.4979 30.6264 19.2509 30.7289 18.9932 30.7292Z" fill="black"/>
<path d="M17.7704 18.3289C17.4277 18.3283 17.0941 18.4388 16.8195 18.6438C16.5449 18.8488 16.3441 19.1372 16.2472 19.4659C16.1503 19.7946 16.1625 20.1459 16.282 20.467C16.4016 20.7882 16.6219 21.062 16.9102 21.2474V22.0369C16.9102 22.265 17.0008 22.4839 17.1621 22.6452C17.3235 22.8065 17.5423 22.8972 17.7704 22.8972C17.9986 22.8972 18.2174 22.8065 18.3787 22.6452C18.5401 22.4839 18.6307 22.265 18.6307 22.0369V21.2474C18.9189 21.062 19.1393 20.7882 19.2588 20.467C19.3783 20.1459 19.3906 19.7946 19.2937 19.4659C19.1968 19.1372 18.996 18.8488 18.7214 18.6438C18.4468 18.4388 18.1131 18.3283 17.7704 18.3289Z" fill="black"/>
</svg>
