<svg width="36" height="36" viewBox="0 0 36 36" fill="none" xmlns="http://www.w3.org/2000/svg">
<path d="M29.5645 25.8578H8.17283V8.91301C8.17283 8.65232 7.96192 8.44128 7.7015 8.44128H6.94509C6.68467 8.44128 6.47388 8.65232 6.47388 8.91301V26.7144C6.47388 27.1861 6.85823 27.5709 7.32947 27.5709H29.5768C29.8372 27.5709 30.048 27.3599 30.048 27.0992V26.342C30.0356 26.0689 29.8249 25.8578 29.5645 25.8578Z" fill="black"/>
<path d="M10.0698 10.7385C10.2558 10.4405 10.6403 10.3536 10.9379 10.5274L26.8981 19.8874L26.7121 18.8323C26.6377 18.4971 26.8485 18.1495 27.1833 18.075L27.6545 17.9633C27.8157 17.926 27.9894 17.9509 28.1382 18.0378C28.287 18.1247 28.3862 18.2612 28.4234 18.435L29.1427 21.7743C29.2171 22.1095 29.0063 22.4571 28.6714 22.5316L25.3603 23.3881C25.1991 23.4254 25.0255 23.4005 24.8766 23.3136C24.7278 23.2267 24.6286 23.0902 24.5914 22.9164L24.4799 22.4447C24.4055 22.1095 24.6163 21.7619 24.9511 21.6874L25.968 21.3771L10.0078 12.0171C9.7102 11.8309 9.62337 11.446 9.79698 11.1481L10.0698 10.7385Z" fill="black"/>
<path d="M12.7854 24.257H12.029C11.7686 24.257 11.5579 24.0335 11.5579 23.748V14.4501L13.2567 15.4432V23.748C13.2567 24.0335 13.0458 24.257 12.7854 24.257Z" fill="black"/>
<path d="M16.8034 24.2567H16.047C15.7866 24.2567 15.5757 24.0333 15.5757 23.7478V16.8085L17.2746 17.8016V23.7478C17.2746 24.0333 17.0638 24.2567 16.8034 24.2567Z" fill="black"/>
<path d="M20.8217 24.2573H20.0652C19.8048 24.2573 19.594 24.0339 19.594 23.7484V19.1553L21.2929 20.1484V23.736C21.2929 24.0339 21.0821 24.2573 20.8217 24.2573Z" fill="black"/>
</svg>
