<svg width="36" height="36" viewBox="0 0 36 36" fill="none" xmlns="http://www.w3.org/2000/svg">
<path d="M30.9576 20.4742L29.0955 19.3979C29.2134 18.4698 29.2134 17.5305 29.0955 16.6023L30.9576 15.5261C31.2242 15.3733 31.4315 15.135 31.5459 14.8498C31.6603 14.5646 31.6752 14.2492 31.5882 13.9545C30.9552 11.8253 29.83 9.87509 28.3035 8.26151C28.0918 8.03719 27.8107 7.8907 27.5055 7.84566C27.2004 7.80062 26.8889 7.85965 26.6214 8.01324L24.7594 9.08827C24.0137 8.52391 23.1995 8.05632 22.3362 7.69668V5.54289C22.3364 5.23378 22.2321 4.93368 22.0404 4.69124C21.8486 4.44879 21.5806 4.27822 21.2798 4.20716C19.1229 3.69803 16.8772 3.69803 14.7203 4.20716C14.4195 4.27822 14.1515 4.44879 13.9597 4.69124C13.768 4.93368 13.6638 5.23378 13.6639 5.54289V7.69668C12.8011 8.05884 11.9877 8.52893 11.2432 9.09572L9.38116 8.02068C9.11365 7.8671 8.80222 7.80807 8.49706 7.85311C8.19191 7.89815 7.91081 8.04464 7.69909 8.26896C6.17124 9.88216 5.0447 11.8324 4.41067 13.9619C4.32362 14.2566 4.33852 14.5721 4.45296 14.8573C4.56739 15.1425 4.77468 15.3807 5.04129 15.5335L6.90336 16.6098C6.78543 17.5379 6.78543 18.4772 6.90336 19.4054L5.04129 20.4817C4.77468 20.6344 4.56739 20.8727 4.45296 21.1579C4.33852 21.4431 4.32362 21.7585 4.41067 22.0532C5.04505 24.1798 6.17066 26.1274 7.6966 27.7388C7.90833 27.9631 8.18943 28.1096 8.49458 28.1546C8.79974 28.1996 9.11117 28.1406 9.37867 27.987L11.2407 26.912C11.9864 27.4764 12.8007 27.9439 13.6639 28.3036V30.4537C13.6638 30.7628 13.768 31.0629 13.9597 31.3053C14.1515 31.5477 14.4195 31.7183 14.7203 31.7894C16.8772 32.2985 19.1229 32.2985 21.2798 31.7894C21.5806 31.7183 21.8486 31.5477 22.0404 31.3053C22.2321 31.0629 22.3364 30.7628 22.3362 30.4537V28.3036C23.199 27.9414 24.0124 27.4713 24.7569 26.9045L26.6189 27.9796C26.8865 28.1332 27.1979 28.1922 27.503 28.1472C27.8082 28.1021 28.0893 27.9556 28.301 27.7313C29.8289 26.1181 30.9554 24.1678 31.5894 22.0383C31.6745 21.7445 31.6585 21.4306 31.5439 21.147C31.4293 20.8634 31.2229 20.6265 30.9576 20.4742ZM27.2148 26.2156L24.5682 24.6874C23.0252 26.0058 22.4777 26.3385 20.5076 27.0337V30.0912C18.8533 30.4324 17.1468 30.4324 15.4925 30.0912V27.0337C13.5708 26.3559 13.0097 26.0405 11.4319 24.6874L8.78529 26.2156C7.65996 24.9542 6.80525 23.4755 6.27398 21.8708L8.92309 20.3463C8.55067 18.3216 8.55067 17.6799 8.92309 15.6539L6.27398 14.1258C6.80567 12.5212 7.66033 11.0426 8.78529 9.78096L11.4319 11.3128C12.9973 9.97337 13.551 9.65186 15.4925 8.96537V5.9091C17.1468 5.56789 18.8533 5.56789 20.5076 5.9091V8.96661C22.4492 9.65186 23.0028 9.97461 24.5682 11.3128L27.2148 9.78344C28.3398 11.0451 29.1944 12.5237 29.7261 14.1283L27.077 15.6539C27.4494 17.6799 27.4494 18.3204 27.077 20.3463L29.7261 21.8745C29.1944 23.4779 28.3397 24.9553 27.2148 26.2156Z" fill="black"/>
<path d="M20.3499 17.7679L16.6431 15.5061C16.4333 15.382 16.262 15.4751 16.262 15.7209V20.2792C16.262 20.5275 16.4333 20.6218 16.6431 20.494L20.3499 18.2322C20.5597 18.1043 20.5597 17.8958 20.3499 17.7679Z" fill="black"/>
<path d="M18 11.3213C16.6791 11.3213 15.3879 11.713 14.2896 12.4468C13.1913 13.1807 12.3353 14.2238 11.8298 15.4441C11.3243 16.6645 11.192 18.0073 11.4497 19.3029C11.7074 20.5984 12.3435 21.7884 13.2775 22.7224C14.2116 23.6564 15.4016 24.2925 16.6971 24.5502C17.9926 24.8079 19.3355 24.6757 20.5558 24.1702C21.7762 23.6647 22.8192 22.8087 23.5531 21.7104C24.287 20.6121 24.6786 19.3208 24.6786 17.9999C24.6767 16.2292 23.9724 14.5316 22.7203 13.2796C21.4683 12.0275 19.7707 11.3233 18 11.3213ZM18 22.9406C17.0229 22.9406 16.0676 22.6508 15.2551 22.108C14.4426 21.5651 13.8094 20.7934 13.4354 19.8906C13.0615 18.9878 12.9636 17.9944 13.1543 17.036C13.3449 16.0776 13.8155 15.1973 14.5064 14.5063C15.1974 13.8153 16.0778 13.3448 17.0362 13.1542C17.9945 12.9635 18.988 13.0614 19.8907 13.4353C20.7935 13.8093 21.5652 14.4425 22.1081 15.255C22.6509 16.0675 22.9407 17.0227 22.9407 17.9999C22.9394 19.3099 22.4184 20.5658 21.4922 21.4921C20.5659 22.4183 19.31 22.9393 18 22.9406Z" fill="black"/>
</svg>
