<svg width="36" height="36" viewBox="0 0 36 36" fill="none" xmlns="http://www.w3.org/2000/svg">
<path d="M19.4314 27.5164H16.5687C16.3383 27.5164 16.1172 27.4248 15.9543 27.2619C15.7913 27.0989 15.6998 26.8779 15.6998 26.6474C15.6998 26.4169 15.7913 26.1959 15.9543 26.033C16.1172 25.87 16.3383 25.7784 16.5687 25.7784H19.4314C19.6618 25.7784 19.8828 25.87 20.0458 26.033C20.2088 26.1959 20.3003 26.4169 20.3003 26.6474C20.3003 26.8779 20.2088 27.0989 20.0458 27.2619C19.8828 27.4248 19.6618 27.5164 19.4314 27.5164Z" fill="black"/>
<path d="M26.4326 5.64209H9.56725C8.93313 5.64242 8.32506 5.89438 7.87655 6.34265C7.42805 6.79093 7.17577 7.39887 7.17511 8.03299V27.9671C7.17577 28.6012 7.42805 29.2091 7.87655 29.6574C8.32506 30.1057 8.93313 30.3576 9.56725 30.358H26.4326C27.0667 30.3576 27.6748 30.1057 28.1233 29.6574C28.5718 29.2091 28.8241 28.6012 28.8248 27.9671V8.03299C28.8241 7.39887 28.5718 6.79093 28.1233 6.34265C27.6748 5.89438 27.0667 5.64242 26.4326 5.64209ZM27.1079 27.9671C27.1076 28.1461 27.0364 28.3176 26.9098 28.4442C26.7832 28.5708 26.6116 28.642 26.4326 28.6424H9.56725C9.38825 28.642 9.21667 28.5708 9.09009 28.4442C8.96352 28.3176 8.89227 28.1461 8.89194 27.9671V8.03299C8.89227 7.85398 8.96352 7.68241 9.09009 7.55583C9.21667 7.42926 9.38825 7.358 9.56725 7.35768H26.4326C26.6116 7.358 26.7832 7.42926 26.9098 7.55583C27.0364 7.68241 27.1076 7.85398 27.1079 8.03299V27.9671Z" fill="black"/>
<path d="M25.092 8.64014H10.908C10.7291 8.64275 10.5586 8.71625 10.4338 8.84449C10.3091 8.97274 10.2403 9.14524 10.2426 9.32414V24.1971C10.2403 24.3761 10.309 24.5487 10.4338 24.6772C10.5585 24.8056 10.729 24.8794 10.908 24.8823H25.092C25.271 24.8794 25.4416 24.8056 25.5663 24.6772C25.691 24.5487 25.7597 24.3761 25.7574 24.1971V9.32414C25.7597 9.14524 25.691 8.97274 25.5662 8.84449C25.4415 8.71625 25.2709 8.64275 25.092 8.64014ZM24.0418 23.1109H11.9582V10.4116H24.0418V23.1109Z" fill="black"/>
<path d="M14.3069 13.7792H17.9504C18.1808 13.7792 18.4018 13.6876 18.5648 13.5247C18.7278 13.3617 18.8193 13.1407 18.8193 12.9102C18.8193 12.6798 18.7278 12.4587 18.5648 12.2958C18.4018 12.1328 18.1808 12.0413 17.9504 12.0413H14.3069C14.0764 12.0413 13.8554 12.1328 13.6924 12.2958C13.5295 12.4587 13.4379 12.6798 13.4379 12.9102C13.4379 13.1407 13.5295 13.3617 13.6924 13.5247C13.8554 13.6876 14.0764 13.7792 14.3069 13.7792Z" fill="black"/>
<path d="M14.3069 17.023H21.6931C21.9236 17.023 22.1446 16.9314 22.3076 16.7684C22.4705 16.6055 22.5621 16.3845 22.5621 16.154C22.5621 15.9235 22.4705 15.7025 22.3076 15.5395C22.1446 15.3766 21.9236 15.285 21.6931 15.285H14.3069C14.0764 15.285 13.8554 15.3766 13.6924 15.5395C13.5295 15.7025 13.4379 15.9235 13.4379 16.154C13.4379 16.3845 13.5295 16.6055 13.6924 16.7684C13.8554 16.9314 14.0764 17.023 14.3069 17.023Z" fill="black"/>
<path d="M14.3069 20.2704H21.6931C21.9236 20.2704 22.1446 20.1788 22.3076 20.0159C22.4705 19.8529 22.5621 19.6319 22.5621 19.4014C22.5621 19.171 22.4705 18.9499 22.3076 18.787C22.1446 18.624 21.9236 18.5325 21.6931 18.5325H14.3069C14.1928 18.5325 14.0798 18.5549 13.9744 18.5986C13.8689 18.6423 13.7731 18.7063 13.6924 18.787C13.6118 18.8677 13.5477 18.9635 13.5041 19.0689C13.4604 19.1743 13.4379 19.2873 13.4379 19.4014C13.4379 19.5155 13.4604 19.6285 13.5041 19.734C13.5477 19.8394 13.6118 19.9352 13.6924 20.0159C13.7731 20.0966 13.8689 20.1606 13.9744 20.2043C14.0798 20.2479 14.1928 20.2704 14.3069 20.2704Z" fill="black"/>
</svg>
