<svg width="36" height="36" viewBox="0 0 36 36" fill="none" xmlns="http://www.w3.org/2000/svg">
<path d="M29.4926 6.68594C29.4119 6.60524 29.3161 6.54123 29.2107 6.49755C29.1052 6.45388 28.9922 6.4314 28.8781 6.4314C28.764 6.4314 28.651 6.45388 28.5456 6.49755C28.4401 6.54123 28.3443 6.60524 28.2636 6.68594L6.68598 28.2636C6.60529 28.3443 6.54128 28.4401 6.49761 28.5455C6.45394 28.651 6.43146 28.764 6.43146 28.8781C6.43146 28.9922 6.45394 29.1052 6.49761 29.2106C6.54128 29.3161 6.60529 29.4119 6.68598 29.4926C6.76668 29.5733 6.86248 29.6373 6.96791 29.6809C7.07334 29.7246 7.18635 29.7471 7.30047 29.7471C7.41459 29.7471 7.52759 29.7246 7.63302 29.6809C7.73846 29.6373 7.83425 29.5733 7.91495 29.4926L29.4926 7.91491C29.5733 7.83422 29.6373 7.73842 29.681 7.63298C29.7247 7.52755 29.7471 7.41455 29.7471 7.30042C29.7471 7.1863 29.7247 7.0733 29.681 6.96787C29.6373 6.86243 29.5733 6.76663 29.4926 6.68594Z" fill="black"/>
<path d="M11.7745 17.5704C12.9598 17.5704 14.0965 17.0996 14.9346 16.2615C15.7727 15.4234 16.2435 14.2867 16.2435 13.1015C16.2435 11.6938 14.842 8.8212 12.4933 5.41734C12.4096 5.31001 12.3012 5.22441 12.1774 5.1678C12.0536 5.11119 11.918 5.08522 11.782 5.0921C11.6459 5.08516 11.5101 5.11122 11.3863 5.16807C11.2624 5.22492 11.1542 5.31086 11.0707 5.41858C8.75551 8.77031 7.31799 11.7149 7.31799 13.1027C7.31832 14.2856 7.78759 15.4201 8.62297 16.2576C9.45834 17.095 10.5917 17.5672 11.7745 17.5704ZM9.04351 13.0866C9.0671 12.1171 10.2613 9.96824 10.9714 8.77403L11.7721 7.42714L12.5728 8.77403C13.2828 9.96948 14.477 12.1196 14.5006 13.0853V13.1077C14.5006 13.832 14.2129 14.5267 13.7007 15.0388C13.1885 15.551 12.4939 15.8387 11.7696 15.8387C11.0453 15.8387 10.3506 15.551 9.83845 15.0388C9.32628 14.5267 9.03854 13.832 9.03854 13.1077L9.04351 13.0866Z" fill="black"/>
<path d="M28.6349 23.1655H27.2694L28.3866 20.1229C28.4372 19.9897 28.4543 19.8461 28.4363 19.7047C28.4183 19.5634 28.3659 19.4286 28.2836 19.3123C28.207 19.1999 28.104 19.108 27.9837 19.0446C27.8634 18.9812 27.7294 18.9482 27.5934 18.9485H22.4255C22.2551 18.95 22.0891 19.0026 21.949 19.0996C21.8089 19.1965 21.7011 19.3334 21.6397 19.4923L19.5691 24.7644C19.5162 24.8981 19.497 25.0427 19.513 25.1855C19.529 25.3283 19.5798 25.4651 19.6609 25.5837C19.7368 25.6986 19.8401 25.7928 19.9614 25.8579C20.0828 25.9229 20.2184 25.9566 20.3561 25.9561H21.8545L20.5671 31.2022C20.5178 31.3881 20.5325 31.5852 20.6089 31.7618C20.6852 31.9383 20.8187 32.084 20.988 32.1754C21.1468 32.2686 21.3327 32.3048 21.5149 32.2779C21.6971 32.2511 21.8646 32.1628 21.9898 32.0277L29.2332 24.649C29.3556 24.5255 29.4382 24.3683 29.4703 24.1974C29.5024 24.0266 29.4825 23.85 29.4132 23.6906C29.3508 23.5354 29.2432 23.4024 29.1045 23.3088C28.9658 23.2152 28.8022 23.1653 28.6349 23.1655ZM22.958 28.5903L23.7662 25.2982C23.7987 25.1687 23.8012 25.0335 23.7735 24.9029C23.7457 24.7723 23.6885 24.6497 23.606 24.5447C23.5278 24.4434 23.4273 24.3614 23.3124 24.305C23.1975 24.2486 23.0712 24.2193 22.9432 24.2194H21.6099L23.0003 20.6852H26.3731L25.2558 23.7279C25.2084 23.8622 25.193 24.0058 25.2109 24.1472C25.2288 24.2886 25.2795 24.4239 25.3589 24.5422C25.4487 24.6622 25.567 24.7578 25.7032 24.8205C25.8393 24.8831 25.9889 24.9108 26.1385 24.901H26.5816L22.958 28.5903Z" fill="black"/>
</svg>
