<svg width="36" height="36" viewBox="0 0 36 36" fill="none" xmlns="http://www.w3.org/2000/svg">
<path d="M29.3251 25.8592H7.90636V8.90817C7.90473 8.78402 7.85435 8.66549 7.7661 8.57817C7.67784 8.49084 7.55879 8.44172 7.43463 8.44141H6.67491C6.5515 8.44301 6.43358 8.49266 6.34619 8.57981C6.2588 8.66697 6.20884 8.78476 6.20691 8.90817V26.712C6.20724 26.9381 6.29719 27.1548 6.45706 27.3147C6.61692 27.4746 6.83365 27.5645 7.05974 27.5649H29.3301C29.4554 27.5645 29.5755 27.5146 29.6642 27.426C29.7528 27.3373 29.8027 27.2172 29.8031 27.0919V26.3322C29.8029 26.2697 29.7904 26.2078 29.7662 26.1502C29.7421 26.0926 29.7068 26.0403 29.6624 25.9963C29.618 25.9524 29.5653 25.9176 29.5074 25.8941C29.4496 25.8706 29.3876 25.8587 29.3251 25.8592Z" fill="black"/>
<path d="M25.8406 10.8486H25.0809C24.8197 10.8486 24.6079 11.0604 24.6079 11.3216V22.7137C24.6079 22.9749 24.8197 23.1867 25.0809 23.1867H25.8406C26.1018 23.1867 26.3136 22.9749 26.3136 22.7137V11.3216C26.3136 11.0604 26.1018 10.8486 25.8406 10.8486Z" fill="black"/>
<path d="M21.2834 15.4053H20.5237C20.2625 15.4053 20.0507 15.617 20.0507 15.8782V22.7133C20.0507 22.9745 20.2625 23.1862 20.5237 23.1862H21.2834C21.5446 23.1862 21.7564 22.9745 21.7564 22.7133V15.8782C21.7564 15.617 21.5446 15.4053 21.2834 15.4053Z" fill="black"/>
<path d="M12.1693 18.4431H11.4095C11.1483 18.4431 10.9366 18.6549 10.9366 18.9161V22.7135C10.9366 22.9747 11.1483 23.1864 11.4095 23.1864H12.1693C12.4305 23.1864 12.6422 22.9747 12.6422 22.7135V18.9161C12.6422 18.6549 12.4305 18.4431 12.1693 18.4431Z" fill="black"/>
<path d="M16.7263 12.3665H15.9666C15.7054 12.3665 15.4937 12.5782 15.4937 12.8394V22.7133C15.4937 22.9745 15.7054 23.1863 15.9666 23.1863H16.7263C16.9876 23.1863 17.1993 22.9745 17.1993 22.7133V12.8394C17.1993 12.5782 16.9876 12.3665 16.7263 12.3665Z" fill="black"/>
</svg>
