<svg width="36" height="36" viewBox="0 0 36 36" fill="none" xmlns="http://www.w3.org/2000/svg">
<path d="M21.4052 13.7048C21.1385 13.7042 20.8733 13.7431 20.6181 13.8203C20.1148 13.2361 19.4528 12.8104 18.7124 12.5947C17.972 12.3791 17.185 12.3828 16.4467 12.6053C15.7084 12.8279 15.0504 13.2597 14.5525 13.8486C14.0547 14.4375 13.7382 15.1581 13.6416 15.9232C12.9501 16.2456 12.3893 16.7944 12.0519 17.4787C11.7145 18.163 11.6207 18.942 11.786 19.6868C11.9513 20.4317 12.3657 21.0979 12.9609 21.5753C13.556 22.0527 14.2962 22.3128 15.0592 22.3126H22.3573C23.0022 22.3116 23.6301 22.1052 24.1499 21.7234C24.6697 21.3415 25.0543 20.804 25.2479 20.1888C25.4416 19.5736 25.4343 18.9127 25.227 18.302C25.0198 17.6912 24.6233 17.1624 24.0952 16.7921C24.1117 16.6687 24.12 16.5443 24.12 16.4197C24.1184 15.7002 23.8318 15.0106 23.3231 14.5018C22.8143 13.993 22.1247 13.7065 21.4052 13.7048ZM22.3573 20.6851H15.0592C14.6255 20.6801 14.2096 20.5119 13.8945 20.2139C13.5793 19.9159 13.388 19.5101 13.3587 19.0774C13.3294 18.6446 13.4643 18.2168 13.7364 17.879C14.0086 17.5413 14.398 17.3185 14.8271 17.2552L15.3149 17.1906L15.2541 16.7015C15.2428 16.6101 15.2374 16.518 15.238 16.4259C15.2366 15.8782 15.426 15.347 15.7735 14.9236C16.1211 14.5003 16.6051 14.211 17.1427 14.1056C17.6802 14.0002 18.2376 14.0852 18.7194 14.3459C19.2011 14.6067 19.577 15.0269 19.7827 15.5346L20.0769 16.2546L20.6069 15.6861C20.7082 15.5753 20.8316 15.4869 20.969 15.4266C21.1065 15.3663 21.255 15.3355 21.4052 15.336C21.6941 15.3363 21.9712 15.4513 22.1755 15.6556C22.3798 15.8599 22.4948 16.137 22.4951 16.4259C22.4962 16.6691 22.4148 16.9054 22.2642 17.0963L21.7465 17.7617L22.5795 17.8858C22.9279 17.943 23.242 18.129 23.4597 18.407C23.6773 18.6849 23.7826 19.0345 23.7547 19.3864C23.7267 19.7383 23.5675 20.0669 23.3087 20.307C23.0499 20.5471 22.7103 20.6811 22.3573 20.6826V20.6851Z" fill="black"/>
<path d="M30.7415 18.046H30.2003C30.0465 18.0455 29.8983 18.1041 29.7865 18.2097C29.6747 18.3153 29.6077 18.4598 29.5994 18.6133C29.464 21.162 28.4932 23.5951 26.8369 25.5369C25.1806 27.4786 22.9309 28.821 20.4355 29.3565C17.9401 29.892 15.3378 29.591 13.0306 28.4998C10.7234 27.4086 8.83966 25.5881 7.67047 23.3194L7.63571 23.2511H9.41957C9.57925 23.2511 9.73239 23.1877 9.8453 23.0748C9.95821 22.9619 10.0216 22.8088 10.0216 22.6491V22.1091C10.0216 21.9494 9.95821 21.7963 9.8453 21.6833C9.73239 21.5704 9.57925 21.507 9.41957 21.507H5.24233C5.08265 21.507 4.92951 21.5704 4.8166 21.6833C4.70369 21.7963 4.64026 21.9494 4.64026 22.1091V26.6438C4.64026 26.8035 4.70369 26.9566 4.8166 27.0696C4.92951 27.1825 5.08265 27.2459 5.24233 27.2459H5.78233C5.86139 27.2459 5.93968 27.2303 6.01273 27.2001C6.08578 27.1698 6.15215 27.1255 6.20805 27.0696C6.26396 27.0136 6.30831 26.9473 6.33857 26.8742C6.36882 26.8012 6.3844 26.7229 6.3844 26.6438V24.6067L6.47129 24.7545C7.92591 27.2355 10.1422 29.181 12.7908 30.3019C15.4395 31.4228 18.3791 31.6592 21.1728 30.9759C23.9665 30.2927 26.4652 28.7263 28.2975 26.5096C30.1299 24.2928 31.1982 21.5441 31.3436 18.6717C31.3481 18.5911 31.3358 18.5104 31.3076 18.4348C31.2794 18.3592 31.2359 18.2902 31.1797 18.2322C31.1233 18.1729 31.0553 18.1257 30.9799 18.0937C30.9045 18.0616 30.8234 18.0454 30.7415 18.046Z" fill="black"/>
<path d="M30.7576 8.7542H30.2176C30.0579 8.7542 29.9048 8.81763 29.7919 8.93054C29.679 9.04345 29.6155 9.19659 29.6155 9.35627V11.3934L29.5286 11.2457C28.0746 8.76375 25.8584 6.81739 23.2095 5.69593C20.5606 4.57448 17.6206 4.33783 14.8264 5.02116C12.0323 5.70449 9.53331 7.27132 7.70099 9.48869C5.86867 11.7061 4.80088 14.4556 4.65637 17.3284C4.65187 17.409 4.6641 17.4897 4.6923 17.5653C4.72051 17.6409 4.76406 17.7099 4.82023 17.7679C4.87648 17.8275 4.94443 17.8749 5.01982 17.9072C5.09521 17.9394 5.17644 17.9558 5.25843 17.9553H5.79968C5.95336 17.9562 6.10148 17.8979 6.21334 17.7925C6.3252 17.6871 6.39222 17.5427 6.4005 17.3892C6.53488 14.8403 7.50504 12.4065 9.16104 10.4641C10.817 8.52168 13.0667 7.17876 15.5623 6.64288C18.058 6.10699 20.6606 6.40797 22.968 7.49931C25.2755 8.59065 27.1593 10.4116 28.3282 12.6807L28.363 12.749H26.486C26.3263 12.749 26.1732 12.8124 26.0603 12.9253C25.9474 13.0382 25.8839 13.1914 25.8839 13.351V13.891C25.8839 14.0507 25.9474 14.2038 26.0603 14.3168C26.1732 14.4297 26.3263 14.4931 26.486 14.4931H30.7576C30.9174 14.4931 31.0707 14.4297 31.1838 14.3168C31.2969 14.204 31.3606 14.0508 31.3609 13.891V9.35627C31.3606 9.19648 31.2969 9.04334 31.1838 8.93047C31.0707 8.8176 30.9174 8.7542 30.7576 8.7542Z" fill="black"/>
</svg>
