<svg width="36" height="36" viewBox="0 0 36 36" fill="none" xmlns="http://www.w3.org/2000/svg">
<path d="M17.8205 19.4383L17.8181 19.436L17.8076 19.4313L17.8205 19.4383Z" fill="black"/>
<path d="M18 4.01819C15.2347 4.01819 12.5315 4.8382 10.2322 6.37452C7.93291 7.91084 6.14085 10.0945 5.08261 12.6493C4.02437 15.2041 3.74749 18.0153 4.28697 20.7275C4.82646 23.4397 6.15808 25.931 8.11345 27.8863C10.0688 29.8417 12.5601 31.1733 15.2723 31.7128C17.9845 32.2523 20.7957 31.9754 23.3505 30.9172C25.9053 29.8589 28.089 28.0669 29.6253 25.7676C31.1616 23.4683 31.9816 20.7651 31.9816 17.9998C31.9774 14.293 30.5029 10.7392 27.8818 8.11804C25.2606 5.49689 21.7068 4.02246 18 4.01819ZM19.4896 27.7571C19.2885 28.6136 18.7945 30.2175 18.7945 30.2175C18.5338 30.2336 18.2706 30.2435 18.0062 30.2435C15.7024 30.2455 13.4448 29.597 11.4932 28.3727C9.54167 27.1484 7.97537 25.3981 6.97454 23.323C5.97372 21.2479 5.57903 18.9325 5.83588 16.6431C6.09273 14.3536 6.99069 12.1832 8.42645 10.3815C8.48135 10.5554 8.4694 10.7435 8.39294 10.9091C8.3557 10.9898 8.3197 11.063 8.28618 11.1325L8.27377 11.1586C8.02549 11.6638 7.83556 12.0636 8.08383 12.6197L9.18121 15.0764C9.28286 15.3023 9.44746 15.494 9.65529 15.6288C9.86313 15.7635 10.1054 15.8355 10.3531 15.8361C10.3531 15.8361 10.8757 15.8572 11.3611 15.8361C11.8465 15.815 11.9669 16.5462 11.9669 16.5462L12.3989 18.5088C12.4444 18.7173 12.5414 18.911 12.681 19.0723C12.8207 19.2337 12.9985 19.3575 13.1983 19.4324L16.0535 20.603C17.09 20.8252 17.0156 22.2093 17.0156 22.7717V23.2471C17.0156 24.2402 17.6015 25.2011 18.5735 25.4816C20.0147 25.9099 19.7789 26.5107 19.4896 27.7571ZM24.5582 25.7709L21.1878 29.8277C21.0513 29.8649 20.9122 29.8997 20.7732 29.932C20.7087 29.9469 21.2921 28.0699 21.4274 26.9601C21.4274 26.9601 22.1002 24.7604 20.5882 24.3358L19.1929 23.8194C19.0777 23.7769 18.9782 23.7 18.9078 23.5993C18.8375 23.4986 18.7997 23.3787 18.7994 23.2558C18.7994 23.2558 19.2128 21.1567 18.3215 20.135C18.1142 19.8967 17.3445 19.446 16.9349 19.2176C16.6456 19.055 15.3298 18.4542 14.5949 18.1004C13.9245 17.7814 13.9382 17.2066 13.9382 17.2066L13.4652 15.064C13.3411 14.4805 13.0295 14.0709 12.4324 14.0709C12.0846 14.1084 11.7337 14.1084 11.3859 14.0709C10.831 14.0088 10.7441 13.8871 10.4102 13.4502C9.68273 12.5142 10.0042 11.6688 10.0042 11.6688C10.2014 11.2415 10.2757 10.7677 10.2189 10.3005C10.1622 9.83329 9.9765 9.39111 9.68273 9.02343C10.1328 8.60547 10.6138 8.22204 11.1215 7.87639L11.1587 7.89253C12.0898 8.29225 12.1456 8.31708 12.4138 8.31708L17.7778 8.6746H17.8522H18.1713C19.62 8.6746 20.4529 8.90922 21.0724 9.44425C21.3666 9.69874 23.1517 10.5292 22.0891 11.1536C21.5689 11.459 20.5473 12.2225 20.2891 12.7997C19.903 13.66 19.7007 14.9411 18.7994 15.1943C18.2892 15.3383 17.3979 14.4495 16.848 14.5414C16.1491 14.6518 15.5644 15.1174 15.5644 15.8249V17.3382C15.5652 17.5573 15.6217 17.7726 15.7285 17.9639C15.8354 18.1552 15.989 18.3162 16.1751 18.4318L18.2222 19.6869L18.3041 19.7415C18.714 19.9952 19.1978 20.1026 19.6766 20.0463C20.1554 19.9899 20.601 19.7731 20.9408 19.4311C20.9825 19.3886 21.0324 19.3549 21.0874 19.3321C21.1424 19.3093 21.2015 19.2978 21.2611 19.2983H23.6607C23.797 19.2985 23.9307 19.3361 24.0472 19.407C24.1636 19.4779 24.2584 19.5795 24.3211 19.7005L25.3924 21.7612C25.5001 21.9702 25.6634 22.1454 25.8642 22.2676C26.065 22.3898 26.2956 22.4542 26.5307 22.4539H26.9478L26.8311 22.6041C26.7892 22.6584 26.7341 22.7012 26.671 22.7282L25.4967 23.2509C24.7047 23.6034 24.7233 24.3147 24.7369 24.8349C24.7469 25.2607 24.7444 25.5338 24.552 25.7659L24.5582 25.7709ZM24.9641 28.0724L25.9299 26.9104C26.4947 26.2302 26.5345 25.5859 26.527 24.8138V24.7529L27.4034 24.3631C27.7922 24.1887 28.1219 23.9051 28.3524 23.5467C28.5829 23.1884 28.7044 22.7707 28.7019 22.3447C28.7003 21.9717 28.575 21.6098 28.3456 21.3158C28.1163 21.0217 27.7958 20.812 27.4345 20.7197C27.3016 20.6862 26.7641 20.4367 26.5655 20.0543C26.3669 19.672 25.9063 18.8775 25.9063 18.8775C25.6939 18.4656 25.372 18.1202 24.976 17.8793C24.5801 17.6384 24.1254 17.5113 23.6619 17.512H21.2685C20.9747 17.5113 20.6836 17.5689 20.4121 17.6814C20.1407 17.7939 19.8942 17.9591 19.687 18.1674C19.6308 18.2255 19.5562 18.2624 19.4759 18.2719C19.3957 18.2814 19.3146 18.2629 19.2463 18.2196C19.2463 18.2196 17.2899 17.4151 17.2899 16.6703C17.2899 16.0236 18.422 17.1098 19.2364 17.1991C19.6734 17.2488 20.0619 16.9161 20.2705 16.5288C20.2705 16.5288 21.0898 15.1174 21.4932 14.2558C21.888 13.4154 22.6874 12.9226 23.2485 12.652C23.7612 12.4037 24.0331 11.8426 24.156 11.5C24.2913 11.1276 24.6798 9.38963 22.9853 8.76894L22.9096 8.71929C20.2642 6.95777 20.1612 6.8895 18.1825 6.8895L13.7135 6.53198C16.5099 5.48597 19.5922 5.49812 22.3803 6.56614C25.1683 7.63417 27.4699 9.68442 28.8518 12.331C30.2337 14.9776 30.6006 18.038 29.8834 20.9362C29.1663 23.8345 27.4145 26.3706 24.9579 28.0674L24.9641 28.0724Z" fill="black"/>
</svg>
