<svg width="36" height="36" viewBox="0 0 36 36" fill="none" xmlns="http://www.w3.org/2000/svg">
<path d="M30.7042 10.842C30.7046 9.53385 30.2698 8.26277 29.4685 7.22885C28.6671 6.19493 27.5446 5.45691 26.2778 5.13099C25.0109 4.80506 23.6716 4.90975 22.4708 5.42856C21.2699 5.94738 20.2758 6.85085 19.6448 7.99673C17.1761 7.45228 14.5971 7.73154 12.3022 8.79178C10.0073 9.85203 8.12295 11.6349 6.93737 13.8676C5.75178 16.1003 5.33027 18.6599 5.73731 21.1549C6.14435 23.6499 7.35753 25.9429 9.19125 27.683C11.025 29.4231 13.3783 30.5146 15.8912 30.7905C18.404 31.0664 20.9381 30.5115 23.1057 29.2107C25.2733 27.9099 26.9551 25.9348 27.8937 23.5875C28.8324 21.2403 28.9763 18.6502 28.3034 16.2134C30.2685 13.3918 30.7042 12.5948 30.7042 10.842ZM21.8668 7.90114C22.4484 7.31945 23.1895 6.92331 23.9962 6.7628C24.803 6.6023 25.6392 6.68466 26.3992 6.99946C27.1591 7.31425 27.8086 7.84735 28.2656 8.53132C28.7225 9.21528 28.9664 10.0194 28.9663 10.842C28.9663 12.236 28.5939 12.7587 26.2129 16.16C25.7971 16.7534 25.3353 17.4114 24.8064 18.1723C24.2776 17.4101 23.8133 16.7534 23.3999 16.1588C21.0153 12.7587 20.649 12.236 20.649 10.842C20.6478 10.2957 20.7548 9.75451 20.9638 9.24976C21.1728 8.74502 21.4798 8.28666 21.8668 7.90114ZM21.0823 19.2958C21.0823 20.2422 21.0213 21.1876 20.8998 22.1261H13.3895C13.1445 20.2472 13.1445 18.3444 13.3895 16.4654H20.8998C21.0214 17.404 21.0823 18.3494 21.0823 19.2958ZM17.1446 9.44914C17.6921 9.44914 18.3314 9.90349 18.9148 10.7005C18.9148 10.7476 18.9148 10.7948 18.9148 10.842C18.9148 12.2447 19.1942 13.0342 20.3139 14.7399H13.6973C14.0586 13.1696 14.6011 11.8276 15.2714 10.8507C15.8784 9.95935 16.5624 9.44914 17.1446 9.44914ZM13.7147 10.0698C12.9289 11.2901 12.3157 12.894 11.9333 14.7399H8.42891C9.56145 12.59 11.4416 10.9288 13.7147 10.0698ZM7.29802 19.2958C7.29693 18.3371 7.43663 17.3835 7.71264 16.4654H11.6577C11.5412 17.4044 11.4819 18.3496 11.4802 19.2958C11.4804 20.242 11.5397 21.1873 11.6577 22.1261H7.71264C7.43663 21.208 7.29693 20.2544 7.29802 19.2958ZM8.42891 23.8516H11.9333C12.3182 25.7013 12.9264 27.3051 13.7147 28.5217C11.4414 27.663 9.56117 26.0018 8.42891 23.8516ZM17.1446 29.1424C16.5624 29.1424 15.8784 28.6309 15.2677 27.7409C14.5973 26.7639 14.0548 25.422 13.6936 23.8516H20.5944C20.2344 25.422 19.6919 26.7639 19.0216 27.7409C18.4096 28.6309 17.7256 29.1424 17.1446 29.1424ZM20.5733 28.5217C21.3591 27.3014 21.9724 25.6976 22.3559 23.8516H25.8604C24.7273 26.0016 22.8468 27.6628 20.5733 28.5217ZM26.5754 22.1261H22.6303C22.7469 21.1871 22.8062 20.2419 22.8078 19.2958C22.8078 18.968 22.7991 18.6403 22.7842 18.3113C23.1479 18.8315 23.5427 19.3976 23.9772 20.0282C24.0703 20.1622 24.1945 20.2717 24.3391 20.3474C24.4837 20.423 24.6445 20.4626 24.8077 20.4627C24.9704 20.4619 25.1306 20.422 25.2747 20.3464C25.4188 20.2708 25.5426 20.1616 25.6357 20.0282C26.1086 19.3417 26.5344 18.7297 26.9255 18.1661C26.9682 18.5391 26.9897 18.9142 26.99 19.2896C26.9916 20.2503 26.8519 21.206 26.5754 22.1261Z" fill="black"/>
<path d="M27.6826 10.8424C27.6829 10.2728 27.5142 9.71592 27.198 9.24217C26.8817 8.76842 26.4321 8.39909 25.9059 8.18088C25.3798 7.96268 24.8007 7.90539 24.242 8.01628C23.6833 8.12716 23.17 8.40124 22.7671 8.80384C22.3641 9.20644 22.0896 9.71949 21.9782 10.2781C21.8669 10.8367 21.9236 11.4158 22.1414 11.9422C22.3591 12.4685 22.7281 12.9185 23.2016 13.2351C23.675 13.5518 24.2318 13.7209 24.8014 13.7212C25.5649 13.7205 26.297 13.4171 26.8371 12.8774C27.3773 12.3378 27.6813 11.6059 27.6826 10.8424ZM23.6606 10.8424C23.6603 10.6164 23.7271 10.3955 23.8525 10.2075C23.9779 10.0195 24.1563 9.87288 24.365 9.78629C24.5738 9.69969 24.8035 9.67697 25.0251 9.721C25.2468 9.76502 25.4504 9.87382 25.6102 10.0336C25.77 10.1934 25.8788 10.397 25.9228 10.6187C25.9669 10.8403 25.9441 11.0701 25.8575 11.2788C25.7709 11.4875 25.6244 11.6659 25.4364 11.7913C25.2484 11.9167 25.0274 11.9835 24.8014 11.9832C24.4999 11.9813 24.2114 11.8603 23.9986 11.6466C23.7859 11.433 23.6662 11.1439 23.6655 10.8424H23.6606Z" fill="black"/>
</svg>
