<svg width="36" height="36" viewBox="0 0 36 36" fill="none" xmlns="http://www.w3.org/2000/svg">
<path d="M31.4603 21.1668H29.4592V9.8703C29.4582 9.08636 29.1464 8.33482 28.5921 7.78049C28.0377 7.22617 27.2862 6.91432 26.5023 6.91333H9.49534C8.71141 6.91497 7.96013 7.22746 7.40627 7.78225C6.85241 8.33704 6.54119 9.08884 6.54086 9.87278V21.1693H4.53975C4.31894 21.1697 4.10726 21.2575 3.95112 21.4137C3.79498 21.5698 3.70712 21.7815 3.70679 22.0023V23.1866C3.73384 24.2422 4.10869 25.2594 4.77313 26.0802C5.49686 26.9815 6.42044 27.478 7.37258 27.478H28.6275C30.6919 27.478 32.2933 25.1715 32.2933 23.1866V22.0023C32.2935 21.8927 32.272 21.7842 32.2303 21.683C32.1885 21.5817 32.1272 21.4896 32.0498 21.4121C31.9725 21.3345 31.8806 21.2729 31.7795 21.2308C31.6783 21.1888 31.5699 21.167 31.4603 21.1668ZM8.20555 9.87278C8.20588 9.53015 8.34213 9.20164 8.58441 8.95936C8.82669 8.71709 9.1552 8.58083 9.49783 8.5805H26.5047C26.8469 8.58149 27.1748 8.71803 27.4166 8.96024C27.6583 9.20245 27.7942 9.53058 27.7945 9.87278V21.1693H25.0635C25.1782 20.9035 25.2772 20.6311 25.3602 20.3537C25.4311 20.1155 25.4194 19.8603 25.327 19.6296C25.2346 19.3988 25.0669 19.206 24.8512 19.0826L24.1201 18.6605C24.1471 18.33 24.1471 17.9979 24.1201 17.6674L24.8512 17.2466C25.0668 17.1229 25.2343 16.9302 25.3267 16.6995C25.4191 16.4688 25.4309 16.2136 25.3602 15.9754C25.019 14.82 24.4114 13.7608 23.5863 12.8831C23.4151 12.6998 23.1865 12.5803 22.9382 12.5444C22.6899 12.5085 22.4368 12.5584 22.2207 12.6857L21.492 13.1053C21.2164 12.9165 20.9257 12.7504 20.6231 12.6088V11.7646C20.624 11.5149 20.5401 11.2721 20.3852 11.0762C20.2303 10.8802 20.0135 10.7426 19.7703 10.6859C18.6019 10.4115 17.3858 10.4115 16.2174 10.6859C15.9742 10.7426 15.7574 10.8802 15.6024 11.0762C15.4475 11.2721 15.3637 11.5149 15.3646 11.7646V12.6063C15.0619 12.7479 14.7713 12.914 14.4956 13.1028L13.7793 12.6857C13.5632 12.5584 13.3102 12.5085 13.0619 12.5444C12.8136 12.5803 12.585 12.6998 12.4138 12.8831C11.5875 13.7583 10.9774 14.8148 10.6324 15.968C10.5618 16.2062 10.5736 16.4613 10.6659 16.692C10.7583 16.9227 10.9258 17.1155 11.1414 17.2391L11.8726 17.66C11.8455 17.9904 11.8455 18.3226 11.8726 18.6531L11.1414 19.0751C10.9257 19.1986 10.758 19.3914 10.6656 19.6221C10.5732 19.8529 10.5615 20.1081 10.6324 20.3463C10.7158 20.6236 10.8148 20.8959 10.9291 21.1619H8.1981L8.20555 9.87278ZM12.8856 21.1693C12.7271 20.9011 12.5897 20.6209 12.4747 20.3314L13.788 19.5729L13.7371 19.2924C13.5534 18.2993 13.5534 18.0249 13.7371 17.0306L13.788 16.7513L12.4747 15.9928C12.6906 15.4407 12.989 14.9246 13.3598 14.4622L14.6744 15.2219L14.8904 15.0357C15.66 14.3777 15.8971 14.24 16.8468 13.9048L17.1162 13.8092V12.2897C17.7021 12.2016 18.298 12.2016 18.8839 12.2897V13.8067L19.1533 13.9023C20.1029 14.2375 20.34 14.3753 21.1097 15.0332L21.3257 15.2194L22.6403 14.4597C23.0111 14.9222 23.3095 15.4382 23.5254 15.9903L22.212 16.7488L22.2629 17.0281C22.4467 18.0212 22.4467 18.2968 22.2629 19.2899L22.212 19.5704L23.5254 20.3289C23.4171 20.6033 23.2884 20.8693 23.1406 21.1246L23.1158 21.1668H21.1494C21.0356 21.1708 20.9266 21.2139 20.8407 21.2887C20.7548 21.3635 20.6973 21.4655 20.6777 21.5777C20.6115 21.863 20.4509 22.1176 20.222 22.3003C19.9932 22.483 19.7093 22.5831 19.4165 22.5845H16.5836C16.2908 22.5831 16.0069 22.483 15.778 22.3003C15.5492 22.1176 15.3886 21.863 15.3224 21.5777C15.3028 21.4655 15.2453 21.3635 15.1594 21.2887C15.0735 21.2139 14.9645 21.1708 14.8507 21.1668L12.8856 21.1693ZM30.6286 23.1866C30.6286 24.3448 29.6864 25.8133 28.6275 25.8133H7.37258C6.31369 25.8133 5.37148 24.3448 5.37148 23.1866V22.8353H13.7856C13.9525 23.253 14.2407 23.6113 14.6131 23.8637C14.9854 24.1162 15.4249 24.2513 15.8748 24.2517H20.1253C20.5765 24.2523 21.0175 24.1174 21.3912 23.8644C21.7648 23.6114 22.0538 23.252 22.2207 22.8328H30.6348L30.6286 23.1866Z" fill="black"/>
<path d="M18 21.0724C18.5762 21.0724 19.1395 20.9015 19.6186 20.5814C20.0977 20.2612 20.4712 19.8062 20.6917 19.2738C20.9122 18.7415 20.9699 18.1556 20.8575 17.5905C20.7451 17.0253 20.4676 16.5062 20.0601 16.0987C19.6527 15.6912 19.1335 15.4138 18.5684 15.3013C18.0032 15.1889 17.4174 15.2466 16.885 15.4671C16.3526 15.6877 15.8976 16.0611 15.5775 16.5402C15.2573 17.0193 15.0865 17.5826 15.0865 18.1589C15.0874 18.9313 15.3947 19.6718 15.9409 20.2179C16.4871 20.7641 17.2276 21.0714 18 21.0724ZM18 16.9833C18.2325 16.9833 18.4598 17.0522 18.6531 17.1814C18.8464 17.3106 18.9971 17.4942 19.0861 17.709C19.175 17.9238 19.1983 18.1602 19.153 18.3882C19.1076 18.6163 18.9956 18.8257 18.8312 18.9901C18.6668 19.1545 18.4573 19.2665 18.2293 19.3119C18.0013 19.3572 17.7649 19.3339 17.5501 19.245C17.3353 19.156 17.1517 19.0053 17.0225 18.812C16.8933 18.6187 16.8244 18.3914 16.8244 18.1589C16.8247 17.8472 16.9487 17.5484 17.1691 17.328C17.3895 17.1076 17.6883 16.9836 18 16.9833Z" fill="black"/>
</svg>
