<svg width="36" height="36" viewBox="0 0 36 36" fill="none" xmlns="http://www.w3.org/2000/svg">
<path d="M30.9414 11.6068H30.3629V9.58215C30.3629 9.36255 30.2757 9.15194 30.1204 8.99666C29.9651 8.84138 29.7545 8.75415 29.5349 8.75415C29.3153 8.75415 29.1047 8.84138 28.9494 8.99666C28.7942 9.15194 28.7069 9.36255 28.7069 9.58215V11.6068H27.5487V9.58215C27.553 9.4708 27.5348 9.35972 27.4952 9.25558C27.4556 9.15143 27.3953 9.05636 27.3181 8.97605C27.2408 8.89575 27.1481 8.83186 27.0456 8.78822C26.9431 8.74458 26.8328 8.72209 26.7213 8.72209C26.6099 8.72209 26.4996 8.74458 26.3971 8.78822C26.2946 8.83186 26.2019 8.89575 26.1246 8.97605C26.0474 9.05636 25.9871 9.15143 25.9475 9.25558C25.9079 9.35972 25.8897 9.4708 25.894 9.58215V11.6068H25.3142C25.0931 11.6088 24.8818 11.6984 24.7265 11.8559C24.5713 12.0134 24.4849 12.2261 24.4862 12.4472V14.5973C24.4833 15.4273 24.759 16.2342 25.2693 16.8888C25.7796 17.5433 26.4949 18.0076 27.3005 18.2072V23.1964C27.3058 23.3682 27.2766 23.5394 27.2145 23.6997C27.1524 23.86 27.0588 24.0062 26.9391 24.1297C26.8195 24.2531 26.6762 24.3513 26.5179 24.4183C26.3596 24.4853 26.1894 24.5198 26.0175 24.5198C25.8456 24.5198 25.6754 24.4853 25.5171 24.4183C25.3588 24.3513 25.2155 24.2531 25.0958 24.1297C24.9762 24.0062 24.8825 23.86 24.8205 23.6997C24.7584 23.5394 24.7292 23.3682 24.7345 23.1964V21.0463C24.7345 19.003 23.1009 17.3395 21.0936 17.3395H20.5138V8.86463C20.5201 8.07882 20.2144 7.32261 19.6637 6.76196C19.1131 6.20131 18.3625 5.88201 17.5767 5.87415H10.5418C9.75592 5.88201 9.00522 6.20127 8.45438 6.76188C7.90353 7.3225 7.59753 8.0787 7.60349 8.86463V27.3711H6.67245C6.60953 27.3716 6.54731 27.3845 6.48936 27.409C6.43141 27.4335 6.37886 27.4692 6.33471 27.5141C6.29056 27.5589 6.25568 27.612 6.23205 27.6703C6.20842 27.7287 6.19651 27.7911 6.19701 27.854V28.5703C6.19765 28.6964 6.24787 28.8172 6.33683 28.9066C6.42578 28.9961 6.54633 29.0469 6.67245 29.0482H21.4449C21.5721 29.0472 21.6937 28.9958 21.783 28.9053C21.8724 28.8148 21.9222 28.6925 21.9216 28.5653V27.849C21.922 27.786 21.9101 27.7235 21.8864 27.6651C21.8627 27.6067 21.8277 27.5535 21.7834 27.5087C21.7391 27.4638 21.6864 27.4281 21.6283 27.4037C21.5702 27.3792 21.5079 27.3665 21.4449 27.3661H20.5138V19.0204H21.0936C21.6254 19.0262 22.1332 19.2429 22.5055 19.6227C22.8779 20.0024 23.0844 20.5144 23.0798 21.0463V23.1964C23.0717 23.5872 23.1418 23.9758 23.2858 24.3392C23.4298 24.7027 23.6449 25.0337 23.9185 25.313C24.1921 25.5923 24.5187 25.8141 24.8791 25.9656C25.2395 26.1171 25.6265 26.1951 26.0175 26.1951C26.4084 26.1951 26.7955 26.1171 27.1559 25.9656C27.5163 25.8141 27.8429 25.5923 28.1165 25.313C28.39 25.0337 28.6052 24.7027 28.7492 24.3392C28.8932 23.9758 28.9632 23.5872 28.9552 23.1964V18.2072C29.7611 18.0082 30.4768 17.5441 30.9871 16.8894C31.4975 16.2347 31.773 15.4274 31.7694 14.5973V12.4472C31.7707 12.2261 31.6843 12.0134 31.5291 11.8559C31.3739 11.6984 31.1626 11.6088 30.9414 11.6068ZM18.8591 27.3724H9.25949V8.86463C9.25651 8.52121 9.38982 8.19063 9.63021 7.94536C9.87059 7.70009 10.1984 7.56015 10.5418 7.55621H17.5767C17.9201 7.56015 18.248 7.70009 18.4884 7.94536C18.7287 8.19063 18.8621 8.52121 18.8591 8.86463V27.3724ZM30.1147 14.5986C30.1147 15.1253 29.9054 15.6305 29.5329 16.003C29.1604 16.3755 28.6552 16.5848 28.1285 16.5848C27.6017 16.5848 27.0965 16.3755 26.724 16.003C26.3515 15.6305 26.1422 15.1253 26.1422 14.5986V13.2889H30.1147V14.5986Z" fill="black"/>
<path d="M16.0523 16.3105H15.2057L15.8028 14.5478C15.8163 14.5102 15.8208 14.47 15.8161 14.4303C15.8114 14.3907 15.7974 14.3527 15.7755 14.3194C15.7545 14.2853 15.7251 14.2572 15.6901 14.2378C15.655 14.2185 15.6156 14.2085 15.5756 14.2089H13.1971C13.1476 14.2092 13.0994 14.225 13.0591 14.2539C13.0189 14.2828 12.9886 14.3234 12.9724 14.3703L12.0203 16.9995C12.0058 17.037 12.0002 17.0774 12.0039 17.1174C12.0076 17.1575 12.0204 17.1961 12.0414 17.2304C12.0624 17.2649 12.092 17.2934 12.1272 17.3131C12.1624 17.3329 12.2021 17.3433 12.2425 17.3434H13.1264L12.4833 20.1836C12.4691 20.2364 12.4728 20.2924 12.4936 20.3429C12.5145 20.3934 12.5515 20.4356 12.5988 20.463C12.6364 20.4853 12.6791 20.4977 12.7229 20.499C12.7553 20.4984 12.7872 20.4907 12.8163 20.4766C12.8455 20.4624 12.8712 20.4421 12.8917 20.417L16.2224 16.7388C16.2548 16.7026 16.2764 16.6581 16.2847 16.6103C16.293 16.5624 16.2878 16.5132 16.2695 16.4682C16.2543 16.4225 16.2251 16.3828 16.1862 16.3546C16.1472 16.3263 16.1004 16.3109 16.0523 16.3105Z" fill="black"/>
</svg>
