<svg width="36" height="36" viewBox="0 0 36 36" fill="none" xmlns="http://www.w3.org/2000/svg">
<path d="M17.9998 9.95093C17.038 9.95068 16.0977 10.2357 15.2979 10.7699C14.4981 11.3041 13.8747 12.0635 13.5065 12.952C13.1383 13.8406 13.0419 14.8184 13.2295 15.7617C13.4171 16.7051 13.8802 17.5716 14.5603 18.2517C15.2404 18.9318 16.1069 19.395 17.0503 19.5825C17.9936 19.7701 18.9714 19.6737 19.86 19.3055C20.7485 18.9373 21.5079 18.3139 22.0421 17.5141C22.5763 16.7143 22.8613 15.774 22.8611 14.8122C22.8594 13.5234 22.3467 12.2879 21.4354 11.3766C20.5241 10.4653 19.2886 9.95257 17.9998 9.95093ZM21.1033 14.8122C21.1033 15.426 20.9213 16.026 20.5803 16.5364C20.2392 17.0467 19.7546 17.4445 19.1875 17.6794C18.6204 17.9143 17.9964 17.9757 17.3944 17.856C16.7924 17.7362 16.2394 17.4407 15.8054 17.0066C15.3713 16.5726 15.0758 16.0196 14.956 15.4176C14.8363 14.8156 14.8977 14.1916 15.1326 13.6245C15.3675 13.0575 15.7653 12.5728 16.2757 12.2317C16.786 11.8907 17.386 11.7087 17.9998 11.7087C18.8223 11.7107 19.6105 12.0383 20.1921 12.6199C20.7737 13.2015 21.1013 13.9897 21.1033 14.8122Z" fill="black"/>
<path d="M17.9999 5.17041C15.4435 5.17304 12.9924 6.18967 11.1846 7.99725C9.37679 9.80484 8.35985 12.2557 8.35689 14.8122C8.35689 18.0063 9.2631 19.2961 13.6166 25.498C14.575 26.8635 15.6612 28.4103 16.951 30.281C17.0675 30.4514 17.2241 30.5906 17.407 30.6862C17.5899 30.7819 17.7935 30.8312 17.9999 30.8297C18.2063 30.8312 18.4099 30.7819 18.5929 30.6862C18.7758 30.5906 18.9324 30.4514 19.0489 30.281C20.3399 28.4103 21.4249 26.8635 22.3832 25.498C26.7368 19.2911 27.643 18.0063 27.643 14.8122C27.64 12.2557 26.6231 9.80484 24.8152 7.99725C23.0074 6.18967 20.5564 5.17304 17.9999 5.17041ZM25.8876 14.8122C25.8876 17.4427 25.1428 18.4991 21.0339 24.3621C20.1649 25.6035 19.1718 27.015 17.9999 28.707C16.8256 27.01 15.8387 25.6035 14.9648 24.3621C10.8533 18.4966 10.1122 17.4427 10.1122 14.8122C10.1122 12.7202 10.9432 10.714 12.4225 9.23474C13.9017 7.7555 15.908 6.92448 17.9999 6.92448C20.0919 6.92448 22.0982 7.7555 23.5774 9.23474C25.0566 10.714 25.8876 12.7202 25.8876 14.8122Z" fill="black"/>
</svg>
