<svg width="36" height="36" viewBox="0 0 36 36" fill="none" xmlns="http://www.w3.org/2000/svg">
<path d="M29.2072 13.6664C29.0266 13.5538 28.8201 13.4895 28.6075 13.4797C28.3948 13.47 28.1833 13.515 27.9931 13.6105L21.065 17.074V14.7253C21.0668 14.5121 21.0137 14.3021 20.9108 14.1154C20.8078 13.9287 20.6586 13.7717 20.4773 13.6594C20.2961 13.5471 20.089 13.4835 19.876 13.4745C19.663 13.4655 19.4513 13.5115 19.2613 13.6081L12.3344 17.0715V8.90447C12.3327 8.57574 12.2014 8.26093 11.969 8.02848C11.7365 7.79603 11.4217 7.66472 11.093 7.66309H7.44829C7.11966 7.66504 6.80504 7.79646 6.57266 8.02884C6.34028 8.26122 6.20886 8.57584 6.20691 8.90447V27.0957C6.20886 27.4243 6.34028 27.7389 6.57266 27.9713C6.80504 28.2037 7.11966 28.3351 7.44829 28.337H28.5517C28.8804 28.3351 29.195 28.2037 29.4274 27.9713C29.6597 27.7389 29.7912 27.4243 29.7931 27.0957V14.7253C29.7939 14.5135 29.7405 14.305 29.6379 14.1196C29.5354 13.9343 29.3871 13.7782 29.2072 13.6664ZM28.0316 26.5768H7.96843V9.4246H10.5753V19.0912C10.5758 19.1789 10.5985 19.2649 10.6412 19.3414C10.6839 19.418 10.7454 19.4824 10.8197 19.5287C10.8941 19.5751 10.979 19.6019 11.0665 19.6065C11.154 19.6112 11.2413 19.5937 11.3202 19.5555L19.2997 15.5657V19.0912C19.2997 19.1797 19.3223 19.2667 19.3654 19.344C19.4084 19.4213 19.4705 19.4863 19.5458 19.5328C19.621 19.5793 19.7069 19.6058 19.7953 19.6098C19.8837 19.6138 19.9716 19.5951 20.0508 19.5555L28.0316 15.5657V26.5768Z" fill="black"/>
<path d="M24.7294 21.7141H22.9121C22.6104 21.7141 22.3658 21.9587 22.3658 22.2603V24.0777C22.3658 24.3794 22.6104 24.6239 22.9121 24.6239H24.7294C25.0311 24.6239 25.2756 24.3794 25.2756 24.0777V22.2603C25.2756 21.9587 25.0311 21.7141 24.7294 21.7141Z" fill="black"/>
<path d="M18.9086 21.7141H17.0912C16.7896 21.7141 16.545 21.9587 16.545 22.2603V24.0777C16.545 24.3794 16.7896 24.6239 17.0912 24.6239H18.9086C19.2103 24.6239 19.4548 24.3794 19.4548 24.0777V22.2603C19.4548 21.9587 19.2103 21.7141 18.9086 21.7141Z" fill="black"/>
<path d="M13.0878 21.7141H11.2705C10.9688 21.7141 10.7242 21.9587 10.7242 22.2603V24.0777C10.7242 24.3794 10.9688 24.6239 11.2705 24.6239H13.0878C13.3895 24.6239 13.634 24.3794 13.634 24.0777V22.2603C13.634 21.9587 13.3895 21.7141 13.0878 21.7141Z" fill="black"/>
<path d="M17.8373 4.56826C17.8976 4.72051 18.0146 4.84347 18.1637 4.91129C18.3128 4.97911 18.4823 4.98653 18.6367 4.93198C20.4436 4.33027 22.4103 4.42733 24.1491 5.20401C25.8879 5.9807 27.2726 7.38065 28.0302 9.12784C28.0874 9.26323 28.1899 9.37448 28.3202 9.44245C28.4504 9.51042 28.6003 9.53086 28.744 9.50026C28.7743 9.49372 28.8041 9.48543 28.8334 9.47543L29.33 9.29046L29.3511 9.28302C29.4278 9.25121 29.4976 9.20458 29.5563 9.1458C29.615 9.08701 29.6615 9.01723 29.6932 8.94044C29.7249 8.86364 29.7412 8.78135 29.7411 8.69827C29.7409 8.61519 29.7244 8.53295 29.6925 8.45626C28.7563 6.28317 27.0371 4.54167 24.8762 3.57761C22.7154 2.61355 20.2709 2.49746 18.0285 3.25239L18.0024 3.26232C17.9252 3.29285 17.8547 3.3383 17.7951 3.39607C17.7354 3.45385 17.6878 3.52281 17.6548 3.59901C17.6218 3.67522 17.6042 3.75718 17.6029 3.8402C17.6016 3.92323 17.6167 4.00569 17.6474 4.08288L17.8373 4.56826Z" fill="black"/>
<path d="M18.9708 6.63899L18.9336 6.65264C18.8563 6.68341 18.7858 6.72912 18.7262 6.78715C18.6665 6.84518 18.6189 6.91439 18.5861 6.99083C18.5532 7.06726 18.5357 7.14943 18.5347 7.23262C18.5336 7.31582 18.5489 7.39841 18.5798 7.47568L18.7697 7.95733C18.777 7.97517 18.7853 7.99257 18.7945 8.00947C18.8638 8.14465 18.9788 8.25082 19.1191 8.30903C19.2594 8.36724 19.4158 8.3737 19.5605 8.32726C20.586 8.01165 21.6912 8.07892 22.6708 8.51659C23.6505 8.95425 24.438 9.73256 24.8872 10.707C24.9465 10.8399 25.0496 10.9485 25.1793 11.0147C25.3089 11.0809 25.4573 11.1006 25.5998 11.0707C25.629 11.0647 25.6576 11.0564 25.6854 11.0459L26.182 10.8622L26.2143 10.8497C26.3677 10.7832 26.4884 10.6585 26.5498 10.503C26.6113 10.3475 26.6085 10.1739 26.542 10.0205C25.9142 8.62658 24.796 7.51195 23.4001 6.8885C22.0042 6.26506 20.4279 6.17626 18.9708 6.63899Z" fill="black"/>
</svg>
