<svg width="36" height="36" viewBox="0 0 36 36" fill="none" xmlns="http://www.w3.org/2000/svg">
<path d="M18.0001 10.7265C16.5615 10.7265 15.1553 11.1531 13.9593 11.9523C12.7632 12.7515 11.8309 13.8874 11.2805 15.2164C10.73 16.5454 10.5859 18.0078 10.8666 19.4187C11.1472 20.8296 11.8399 22.1255 12.8571 23.1427C13.8743 24.1599 15.1702 24.8526 16.5811 25.1332C17.992 25.4139 19.4544 25.2698 20.7834 24.7194C22.1124 24.1689 23.2483 23.2366 24.0475 22.0405C24.8467 20.8445 25.2733 19.4383 25.2733 17.9997C25.2713 16.0714 24.5044 14.2225 23.1408 12.859C21.7773 11.4954 19.9284 10.7285 18.0001 10.7265ZM12.3791 17.5603C12.4904 16.1459 13.1309 14.8254 14.1727 13.8623C15.2146 12.8992 16.5812 12.3643 18.0001 12.3643C19.4189 12.3643 20.7855 12.8992 21.8274 13.8623C22.8692 14.8254 23.5097 16.1459 23.621 17.5603V17.6273H21.3518L21.3381 17.5851C21.1587 17.0776 20.8266 16.6381 20.3874 16.327C19.9482 16.0158 19.4234 15.8482 18.8852 15.8472H17.11C16.5717 15.8482 16.047 16.0158 15.6078 16.327C15.1686 16.6381 14.8364 17.0776 14.657 17.5851L14.6483 17.6273H12.3741L12.3791 17.5603ZM17.182 23.5723L17.11 23.5611C16.02 23.3764 15.0071 22.8792 14.1942 22.13C13.3813 21.3808 12.8034 20.4117 12.5305 19.3404L12.5119 19.2635H14.9947L17.187 21.4557L17.182 23.5723ZM18.0001 19.9599L16.2274 18.1884C16.2162 18.176 16.2088 18.1606 16.2062 18.1441C16.2036 18.1276 16.2057 18.1106 16.2125 18.0953C16.2837 17.9151 16.4072 17.7604 16.5672 17.6511C16.7272 17.5418 16.9162 17.4829 17.11 17.4821H18.8901C19.0839 17.4829 19.2729 17.5418 19.4329 17.6511C19.5929 17.7604 19.7164 17.9151 19.7876 18.0953C19.7944 18.1106 19.7966 18.1276 19.7939 18.1441C19.7913 18.1606 19.7839 18.176 19.7727 18.1884L18.0001 19.9599ZM23.4696 19.3392C23.1967 20.4105 22.6188 21.3796 21.8059 22.1288C20.993 22.878 19.9801 23.3752 18.8901 23.5599L18.8181 23.5711V21.4545L21.0104 19.2622H23.4932L23.4696 19.3392Z" fill="black"/>
<path d="M30.7415 18.0462H30.2003C30.0465 18.0457 29.8983 18.1043 29.7865 18.2098C29.6747 18.3154 29.6077 18.46 29.5994 18.6135C29.464 21.1622 28.4932 23.5953 26.8369 25.5371C25.1806 27.4788 22.9309 28.8212 20.4355 29.3567C17.9401 29.8922 15.3378 29.5911 13.0306 28.5C10.7234 27.4088 8.83966 25.5883 7.67047 23.3196L7.63571 23.2513H9.41957C9.57925 23.2513 9.73239 23.1879 9.8453 23.075C9.95821 22.9621 10.0216 22.8089 10.0216 22.6493V22.1093C10.0216 21.9496 9.95821 21.7964 9.8453 21.6835C9.73239 21.5706 9.57925 21.5072 9.41957 21.5072H5.24233C5.08265 21.5072 4.92951 21.5706 4.8166 21.6835C4.70369 21.7964 4.64026 21.9496 4.64026 22.1093V26.644C4.64026 26.8037 4.70369 26.9568 4.8166 27.0697C4.92951 27.1826 5.08265 27.2461 5.24233 27.2461H5.78233C5.86139 27.2461 5.93968 27.2305 6.01273 27.2003C6.08578 27.17 6.15215 27.1256 6.20805 27.0697C6.26396 27.0138 6.30831 26.9475 6.33857 26.8744C6.36882 26.8014 6.3844 26.7231 6.3844 26.644V24.6069L6.47129 24.7546C7.92591 27.2357 10.1422 29.1812 12.7908 30.3021C15.4395 31.423 18.3791 31.6593 21.1728 30.9761C23.9665 30.2929 26.4652 28.7265 28.2975 26.5098C30.1299 24.293 31.1982 21.5442 31.3436 18.6719C31.3481 18.5913 31.3358 18.5106 31.3076 18.435C31.2794 18.3594 31.2359 18.2904 31.1797 18.2324C31.1233 18.1731 31.0553 18.1259 30.9799 18.0939C30.9045 18.0618 30.8234 18.0456 30.7415 18.0462Z" fill="black"/>
<path d="M30.7577 8.75408H30.2177C30.058 8.75408 29.9049 8.81751 29.7919 8.93042C29.679 9.04333 29.6156 9.19647 29.6156 9.35615V11.3933L29.5287 11.2455C28.0746 8.76363 25.8584 6.81726 23.2096 5.69581C20.5607 4.57436 17.6206 4.33771 14.8265 5.02104C12.0324 5.70437 9.53337 7.2712 7.70105 9.48857C5.86873 11.7059 4.80094 14.4554 4.65643 17.3283C4.65193 17.4089 4.66416 17.4895 4.69236 17.5652C4.72057 17.6408 4.76412 17.7098 4.82029 17.7677C4.87655 17.8274 4.94449 17.8748 5.01988 17.9071C5.09527 17.9393 5.1765 17.9557 5.2585 17.9552H5.79974C5.95342 17.956 6.10154 17.8977 6.2134 17.7923C6.32526 17.687 6.39228 17.5426 6.40056 17.3891C6.53494 14.8401 7.5051 12.4064 9.16111 10.464C10.8171 8.52156 13.0668 7.17864 15.5624 6.64275C18.058 6.10687 20.6607 6.40785 22.9681 7.49919C25.2756 8.59053 27.1593 10.4115 28.3283 12.6806L28.363 12.7488H26.4861C26.3264 12.7488 26.1733 12.8123 26.0604 12.9252C25.9474 13.0381 25.884 13.1912 25.884 13.3509V13.8909C25.884 14.0506 25.9474 14.2037 26.0604 14.3166C26.1733 14.4295 26.3264 14.493 26.4861 14.493H30.7577C30.9175 14.493 31.0707 14.4296 31.1838 14.3167C31.2969 14.2038 31.3606 14.0507 31.361 13.8909V9.35615C31.3606 9.19636 31.2969 9.04322 31.1838 8.93035C31.0707 8.81747 30.9175 8.75408 30.7577 8.75408Z" fill="black"/>
</svg>
